<svg width="144" height="36" viewBox="0 0 144 36" fill="none" xmlns="http://www.w3.org/2000/svg">
<rect width="144" height="36" rx="18" fill="#FFD4AC"/>
<path d="M32.582 13.606V18.43C32.582 20.626 32.366 23.596 29.54 25.288C29.918 25.576 30.458 26.152 30.692 26.53C33.734 24.46 34.256 21.112 34.256 18.448V13.606H32.582ZM33.518 23.074C34.4 24.1 35.516 25.504 36.038 26.368L37.514 25.216C36.956 24.388 35.786 23.038 34.922 22.066L33.518 23.074ZM30.152 10.708V21.742H31.772V12.634H34.958V21.652H36.65V10.708H30.152ZM38.882 9.718C38.378 11.932 37.478 14.218 36.38 15.64C36.848 15.946 37.712 16.648 38.072 16.99C39.242 15.352 40.304 12.706 40.952 10.168L38.882 9.718ZM39.386 12.418L38.396 14.362H44.912V12.418H39.386ZM43.994 12.418V12.868C43.85 20.626 43.67 23.578 43.184 24.172C42.986 24.424 42.806 24.496 42.5 24.496C42.104 24.496 41.312 24.496 40.412 24.424C40.79 25.018 41.042 25.954 41.078 26.566C41.996 26.602 42.896 26.602 43.49 26.494C44.156 26.368 44.588 26.17 45.038 25.504C45.686 24.604 45.848 21.688 46.028 13.408C46.046 13.138 46.046 12.418 46.046 12.418H43.994ZM37.802 23.02C38.216 22.75 38.882 22.552 42.932 21.652C42.806 21.274 42.662 20.554 42.608 20.068L38.45 20.878L37.658 21.454L37.802 23.02ZM37.802 23.02C37.802 22.66 38.954 22.012 38.954 22.012V21.994C39.836 20.446 40.79 18.142 41.348 16.054L39.386 15.496C39.044 17.476 38.252 19.636 38 20.176C37.73 20.77 37.478 21.13 37.172 21.238C37.406 21.724 37.694 22.624 37.802 23.02ZM40.97 18.376C41.456 19.798 41.924 21.652 42.104 22.768L43.706 22.174C43.508 21.094 42.968 19.294 42.464 17.908L40.97 18.376ZM55.928 13.372C55.766 19.888 55.748 23.308 47.666 24.838C48.062 25.27 48.566 26.08 48.746 26.62C57.494 24.802 57.89 20.536 58.106 13.372H55.928ZM48.098 19.132V21.112H64.01V19.132H48.098ZM56.36 23.398C58.718 24.334 61.202 25.63 62.642 26.62L64.01 24.928C62.498 23.992 59.852 22.732 57.458 21.85L56.36 23.398ZM50.582 14.686C51.788 15.244 53.408 16.126 54.164 16.738L55.406 15.118C54.578 14.524 52.94 13.714 51.752 13.246L50.582 14.686ZM48.53 17.206C49.646 17.71 51.158 18.538 51.878 19.096L53.12 17.494C52.346 16.954 50.816 16.216 49.718 15.766L48.53 17.206ZM48.8 10.69V12.706H62.462V10.69H48.8ZM61.832 10.672V10.996C61.382 12.274 60.572 13.84 59.888 14.83L61.652 15.694C62.516 14.542 63.47 12.796 64.172 11.194L62.552 10.546L62.21 10.672H61.832ZM68.204 16.504V18.628H81.848V16.504H68.204ZM66.836 11.572V13.624H81.452V11.572H66.836ZM66.98 16.504V19.006C66.98 20.86 66.854 23.452 65.432 25.288C65.9 25.576 66.872 26.404 67.232 26.836C68.906 24.712 69.248 21.328 69.248 19.06V16.504H66.98ZM69.41 14.308C69.968 15.082 70.598 16.162 70.832 16.846L72.848 15.946C72.56 15.244 71.876 14.218 71.318 13.498L69.41 14.308ZM77.078 13.642C76.79 14.542 76.214 15.766 75.728 16.594L77.438 17.278C78.014 16.558 78.77 15.46 79.508 14.416L77.078 13.642ZM72.236 10.168C72.704 10.852 73.19 11.788 73.352 12.4L75.692 11.752C75.476 11.14 74.972 10.258 74.468 9.646L72.236 10.168ZM88.814 12.49H95.15V14.92H88.814V12.49ZM86.726 10.438V16.972H97.364V10.438H86.726ZM84.26 18.484V26.62H86.294V20.536H88.976V26.512H91.136V18.484H84.26ZM92.666 18.484V26.62H94.736V20.536H97.616V26.53H99.794V18.484H92.666ZM85.16 23.65V25.72H89.876V23.65H85.16ZM93.656 23.65V25.72H98.696V23.65H93.656Z" fill="#FF7E00"/>
</svg>
