<svg width="160" height="38" viewBox="0 0 160 38" fill="none" xmlns="http://www.w3.org/2000/svg">
<rect x="0.657715" y="0.256348" width="158.354" height="37.7436" rx="18.8718" fill="#FFD4AC"/>
<path d="M36.1311 14.2015V19.0255C36.1311 21.2215 35.9151 24.1915 33.0891 25.8835C33.4671 26.1715 34.0071 26.7475 34.2411 27.1255C37.2831 25.0555 37.8051 21.7075 37.8051 19.0435V14.2015H36.1311ZM37.0671 23.6695C37.9491 24.6955 39.0651 26.0995 39.5871 26.9635L41.0631 25.8115C40.5051 24.9835 39.3351 23.6335 38.4711 22.6615L37.0671 23.6695ZM33.7011 11.3035V22.3375H35.3211V13.2295H38.5071V22.2475H40.1991V11.3035H33.7011ZM42.4311 10.3135C41.9271 12.5275 41.0271 14.8135 39.9291 16.2355C40.3971 16.5415 41.2611 17.2435 41.6211 17.5855C42.7911 15.9475 43.8531 13.3015 44.5011 10.7635L42.4311 10.3135ZM42.9351 13.0135L41.9451 14.9575H48.4611V13.0135H42.9351ZM47.5431 13.0135V13.4635C47.3991 21.2215 47.2191 24.1735 46.7331 24.7675C46.5351 25.0195 46.3551 25.0915 46.0491 25.0915C45.6531 25.0915 44.8611 25.0915 43.9611 25.0195C44.3391 25.6135 44.5911 26.5495 44.6271 27.1615C45.5451 27.1975 46.4451 27.1975 47.0391 27.0895C47.7051 26.9635 48.1371 26.7655 48.5871 26.0995C49.2351 25.1995 49.3971 22.2835 49.5771 14.0035C49.5951 13.7335 49.5951 13.0135 49.5951 13.0135H47.5431ZM41.3511 23.6155C41.7651 23.3455 42.4311 23.1475 46.4811 22.2475C46.3551 21.8695 46.2111 21.1495 46.1571 20.6635L41.9991 21.4735L41.2071 22.0495L41.3511 23.6155ZM41.3511 23.6155C41.3511 23.2555 42.5031 22.6075 42.5031 22.6075V22.5895C43.3851 21.0415 44.3391 18.7375 44.8971 16.6495L42.9351 16.0915C42.5931 18.0715 41.8011 20.2315 41.5491 20.7715C41.2791 21.3655 41.0271 21.7255 40.7211 21.8335C40.9551 22.3195 41.2431 23.2195 41.3511 23.6155ZM44.5191 18.9715C45.0051 20.3935 45.4731 22.2475 45.6531 23.3635L47.2551 22.7695C47.0571 21.6895 46.5171 19.8895 46.0131 18.5035L44.5191 18.9715ZM59.4771 13.9675C59.3151 20.4835 59.2971 23.9035 51.2151 25.4335C51.6111 25.8655 52.1151 26.6755 52.2951 27.2155C61.0431 25.3975 61.4391 21.1315 61.6551 13.9675H59.4771ZM51.6471 19.7275V21.7075H67.5591V19.7275H51.6471ZM59.9091 23.9935C62.2671 24.9295 64.7511 26.2255 66.1911 27.2155L67.5591 25.5235C66.0471 24.5875 63.4011 23.3275 61.0071 22.4455L59.9091 23.9935ZM54.1311 15.2815C55.3371 15.8395 56.9571 16.7215 57.7131 17.3335L58.9551 15.7135C58.1271 15.1195 56.4891 14.3095 55.3011 13.8415L54.1311 15.2815ZM52.0791 17.8015C53.1951 18.3055 54.7071 19.1335 55.4271 19.6915L56.6691 18.0895C55.8951 17.5495 54.3651 16.8115 53.2671 16.3615L52.0791 17.8015ZM52.3491 11.2855V13.3015H66.0111V11.2855H52.3491ZM65.3811 11.2675V11.5915C64.9311 12.8695 64.1211 14.4355 63.4371 15.4255L65.2011 16.2895C66.0651 15.1375 67.0191 13.3915 67.7211 11.7895L66.1011 11.1415L65.7591 11.2675H65.3811ZM71.7531 17.0995V19.2235H85.3971V17.0995H71.7531ZM70.3851 12.1675V14.2195H85.0011V12.1675H70.3851ZM70.5291 17.0995V19.6015C70.5291 21.4555 70.4031 24.0475 68.9811 25.8835C69.4491 26.1715 70.4211 26.9995 70.7811 27.4315C72.4551 25.3075 72.7971 21.9235 72.7971 19.6555V17.0995H70.5291ZM72.9591 14.9035C73.5171 15.6775 74.1471 16.7575 74.3811 17.4415L76.3971 16.5415C76.1091 15.8395 75.4251 14.8135 74.8671 14.0935L72.9591 14.9035ZM80.6271 14.2375C80.3391 15.1375 79.7631 16.3615 79.2771 17.1895L80.9871 17.8735C81.5631 17.1535 82.3191 16.0555 83.0571 15.0115L80.6271 14.2375ZM75.7851 10.7635C76.2531 11.4475 76.7391 12.3835 76.9011 12.9955L79.2411 12.3475C79.0251 11.7355 78.5211 10.8535 78.0171 10.2415L75.7851 10.7635ZM92.3631 13.0855H98.6991V15.5155H92.3631V13.0855ZM90.2751 11.0335V17.5675H100.913V11.0335H90.2751ZM87.8091 19.0795V27.2155H89.8431V21.1315H92.5251V27.1075H94.6851V19.0795H87.8091ZM96.2151 19.0795V27.2155H98.2851V21.1315H101.165V27.1255H103.343V19.0795H96.2151ZM88.7091 24.2455V26.3155H93.4251V24.2455H88.7091ZM97.2051 24.2455V26.3155H102.245V24.2455H97.2051Z" fill="#FF7E00"/>
<path d="M121.746 29.0301C121.379 29.0301 121.135 28.9136 120.89 28.6806C120.402 28.2146 120.524 27.5157 121.013 27.0497L128.833 20.2931C129.077 20.0601 129.199 19.8271 129.199 19.5942C129.199 19.3612 129.077 19.1282 128.833 18.8952L120.89 12.4881C120.402 12.0221 120.279 11.3232 120.768 10.8572C121.257 10.3913 121.99 10.2748 122.479 10.7407L130.299 17.1478C131.032 17.7303 131.521 18.6622 131.521 19.5942C131.521 20.5261 131.154 21.3416 130.421 22.0405L122.601 28.7971C122.357 28.9136 121.99 29.0301 121.746 29.0301V29.0301Z" fill="#FF7E00"/>
</svg>
