<svg width="527" height="249" viewBox="0 0 527 249" fill="none" xmlns="http://www.w3.org/2000/svg">
<path d="M38.168 32.684C41.444 36.844 45.084 42.564 46.592 46.1L50.336 44.28C48.672 40.692 44.928 35.18 41.6 31.124L38.168 32.684ZM23.868 6.424V24.988H27.872V6.424H23.868ZM2.964 23.74V27.484H49.14V23.74H2.964ZM8.112 12.612V16.356H45.032V12.612H8.112ZM30.42 25.768V49.324C30.42 50 30.212 50.208 29.38 50.208C28.6 50.26 25.896 50.312 22.932 50.208C23.504 51.352 24.128 53.016 24.336 54.108C28.236 54.108 30.784 54.056 32.396 53.432C34.008 52.756 34.476 51.664 34.476 49.376V25.768H30.42ZM9.984 31.384C8.476 35.544 5.252 40.536 1.612 43.656C2.548 44.176 3.952 45.164 4.732 45.892C8.476 42.512 11.908 37.156 13.936 32.424L9.984 31.384ZM18.72 25.3V30.552C18.72 36.948 17.888 45.32 8.268 51.664C9.204 52.34 10.608 53.64 11.18 54.524C21.58 47.504 22.672 37.988 22.672 30.604V25.3H18.72ZM73.996 9.024V26.808C73.996 34.66 73.476 45.06 67.6 52.288C68.536 52.652 70.2 53.64 70.876 54.264C76.908 46.776 77.74 35.232 77.74 26.808V9.024H73.996ZM81.536 26.548V47.972C81.536 52.6 82.888 53.848 87.984 53.848C89.024 53.848 96.408 53.848 97.5 53.848C102.232 53.848 103.324 51.664 103.792 43.708C102.804 43.448 101.192 42.824 100.36 42.2C100.1 49.064 99.736 50.312 97.292 50.312C95.68 50.312 89.492 50.312 88.296 50.312C85.748 50.312 85.228 49.896 85.228 47.972V26.548H81.536ZM98.228 28.888C94.744 31.956 88.4 35.284 82.732 37.728C83.252 38.508 83.824 39.756 84.084 40.484C90.064 38.092 96.72 34.92 101.244 31.644L98.228 28.888ZM75.712 9.024V12.612H97.344V20.204H75.712V23.844H101.14V9.024H75.712ZM58.656 9.752C62.14 11.26 66.352 13.704 68.38 15.576L70.668 12.3C68.536 10.532 64.272 8.244 60.788 6.892L58.656 9.752ZM56.056 24.104C59.436 25.508 63.544 27.952 65.572 29.72L67.756 26.444C65.624 24.728 61.464 22.492 58.136 21.192L56.056 24.104ZM57.564 50.832L60.996 53.328C63.856 48.44 67.288 41.888 69.836 36.376L66.82 33.984C64.012 39.912 60.164 46.828 57.564 50.832ZM114.972 14.692V18.176H127.14V45.164H114.972V48.7H130.78V14.692H114.972ZM112.632 14.692V52.86H116.272V14.692H112.632ZM114.712 29.148V32.632H129.064V29.148H114.712ZM120.588 6.216C120.172 8.92 119.184 12.872 118.3 15.368L121.42 16.148C122.46 13.808 123.76 10.22 124.8 6.996L120.588 6.216ZM138.164 14.536V18.176H154.128V14.536H138.164ZM152.776 14.536V15.368C152.048 38.3 151.216 46.932 149.5 48.804C148.928 49.48 148.304 49.636 147.264 49.636C146.068 49.636 142.948 49.584 139.568 49.324C140.296 50.364 140.764 51.976 140.868 53.12C143.78 53.276 146.848 53.38 148.616 53.172C150.436 53.016 151.632 52.548 152.776 51.04C154.856 48.492 155.584 40.432 156.416 16.564C156.416 15.992 156.416 14.536 156.416 14.536H152.776ZM139.256 6.112C137.592 13.34 134.732 20.516 131.196 25.092C132.132 25.612 133.744 26.704 134.42 27.328C138.008 22.388 141.076 14.744 143 6.996L139.256 6.112ZM136.864 28.056C139.724 31.852 143.208 37 144.768 40.172L148.096 38.092C146.432 35.024 142.844 29.98 139.88 26.288L136.864 28.056ZM177.736 9.856V13.236H194.948V9.856H177.736ZM178.464 6.216C176.02 11.78 171.184 18.54 164.06 23.48C164.996 24.052 166.348 25.404 166.972 26.34C174.512 20.776 179.608 13.548 182.832 6.944L178.464 6.216ZM172.9 18.748V22.284H211.12V18.748H172.9ZM182.208 27.276V30.708H201.604V27.276H182.208ZM180.232 27.276V47.348C180.232 52.496 182.312 53.744 188.916 53.744C190.424 53.744 202.28 53.744 203.84 53.744C209.976 53.744 211.328 51.612 212.004 43.864C210.912 43.656 209.3 43.032 208.364 42.356C208 48.96 207.376 50.156 203.684 50.156C201.136 50.156 190.996 50.156 188.968 50.156C184.86 50.156 184.08 49.636 184.08 47.348V27.276H180.232ZM200.408 27.276V27.848C199.94 35.492 199.472 38.404 198.744 39.236C198.328 39.652 197.86 39.704 196.976 39.704C196.144 39.704 193.752 39.652 191.256 39.444C191.88 40.38 192.244 41.836 192.348 42.876C194.896 43.032 197.444 43.032 198.692 42.928C200.148 42.824 201.084 42.512 201.916 41.576C203.112 40.328 203.632 37.052 204.1 28.836C204.152 28.316 204.204 27.276 204.204 27.276H200.408ZM170.976 18.748V28.836C170.976 35.752 170.196 45.06 163.904 51.82C164.736 52.288 166.296 53.64 166.92 54.42C173.576 47.244 174.824 36.48 174.824 28.888V18.748H170.976ZM193.544 9.856V10.636C192.556 13.288 190.372 17.396 188.396 19.84C189.332 20.36 190.632 21.14 191.464 21.764C193.648 19.06 196.3 14.9 198.016 11.468L195.156 9.648L194.48 9.856H193.544ZM240.188 15.576V34.348H244.14V15.576H240.188ZM226.408 19.32V22.44H258.388V19.32H226.408ZM224.536 25.924V29.044H260.468V25.924H224.536ZM228.228 49.272V52.496H256.62V49.272H228.228ZM219.388 32.892V36.168H265.356V32.892H219.388ZM226.72 39.288V54.212H230.516V42.512H254.488V54.004H258.44V39.288H226.72ZM240.188 6.32V13.392H244.192V6.32H240.188ZM220.792 11.52V20.776H224.64V15.056H260V20.776H263.952V11.52H220.792Z" fill="black"/>
<path d="M17.616 93.008C19.128 94.928 20.808 97.568 21.504 99.2L23.232 98.36C22.464 96.704 20.736 94.16 19.2 92.288L17.616 93.008ZM11.016 80.888V89.456H12.864V80.888H11.016ZM1.368 88.88V90.608H22.68V88.88H1.368ZM3.744 83.744V85.472H20.784V83.744H3.744ZM14.04 89.816V100.688C14.04 101 13.944 101.096 13.56 101.096C13.2 101.12 11.952 101.144 10.584 101.096C10.848 101.624 11.136 102.392 11.232 102.896C13.032 102.896 14.208 102.872 14.952 102.584C15.696 102.272 15.912 101.768 15.912 100.712V89.816H14.04ZM4.608 92.408C3.912 94.328 2.424 96.632 0.744 98.072C1.176 98.312 1.824 98.768 2.184 99.104C3.912 97.544 5.496 95.072 6.432 92.888L4.608 92.408ZM8.64 89.6V92.024C8.64 94.976 8.256 98.84 3.816 101.768C4.248 102.08 4.896 102.68 5.16 103.088C9.96 99.848 10.464 95.456 10.464 92.048V89.6H8.64ZM34.152 82.088V90.296C34.152 93.92 33.912 98.72 31.2 102.056C31.632 102.224 32.4 102.68 32.712 102.968C35.496 99.512 35.88 94.184 35.88 90.296V82.088H34.152ZM37.632 90.176V100.064C37.632 102.2 38.256 102.776 40.608 102.776C41.088 102.776 44.496 102.776 45 102.776C47.184 102.776 47.688 101.768 47.904 98.096C47.448 97.976 46.704 97.688 46.32 97.4C46.2 100.568 46.032 101.144 44.904 101.144C44.16 101.144 41.304 101.144 40.752 101.144C39.576 101.144 39.336 100.952 39.336 100.064V90.176H37.632ZM45.336 91.256C43.728 92.672 40.8 94.208 38.184 95.336C38.424 95.696 38.688 96.272 38.808 96.608C41.568 95.504 44.64 94.04 46.728 92.528L45.336 91.256ZM34.944 82.088V83.744H44.928V87.248H34.944V88.928H46.68V82.088H34.944ZM27.072 82.424C28.68 83.12 30.624 84.248 31.56 85.112L32.616 83.6C31.632 82.784 29.664 81.728 28.056 81.104L27.072 82.424ZM25.872 89.048C27.432 89.696 29.328 90.824 30.264 91.64L31.272 90.128C30.288 89.336 28.368 88.304 26.832 87.704L25.872 89.048ZM26.568 101.384L28.152 102.536C29.472 100.28 31.056 97.256 32.232 94.712L30.84 93.608C29.544 96.344 27.768 99.536 26.568 101.384ZM53.064 84.704V86.312H58.68V98.768H53.064V100.4H60.36V84.704H53.064ZM51.984 84.704V102.32H53.664V84.704H51.984ZM52.944 91.376V92.984H59.568V91.376H52.944ZM55.656 80.792C55.464 82.04 55.008 83.864 54.6 85.016L56.04 85.376C56.52 84.296 57.12 82.64 57.6 81.152L55.656 80.792ZM63.768 84.632V86.312H71.136V84.632H63.768ZM70.512 84.632V85.016C70.176 95.6 69.792 99.584 69 100.448C68.736 100.76 68.448 100.832 67.968 100.832C67.416 100.832 65.976 100.808 64.416 100.688C64.752 101.168 64.968 101.912 65.016 102.44C66.36 102.512 67.776 102.56 68.592 102.464C69.432 102.392 69.984 102.176 70.512 101.48C71.472 100.304 71.808 96.584 72.192 85.568C72.192 85.304 72.192 84.632 72.192 84.632H70.512ZM64.272 80.744C63.504 84.08 62.184 87.392 60.552 89.504C60.984 89.744 61.728 90.248 62.04 90.536C63.696 88.256 65.112 84.728 66 81.152L64.272 80.744ZM63.168 90.872C64.488 92.624 66.096 95 66.816 96.464L68.352 95.504C67.584 94.088 65.928 91.76 64.56 90.056L63.168 90.872ZM82.032 82.472V84.032H89.976V82.472H82.032ZM82.368 80.792C81.24 83.36 79.008 86.48 75.72 88.76C76.152 89.024 76.776 89.648 77.064 90.08C80.544 87.512 82.896 84.176 84.384 81.128L82.368 80.792ZM79.8 86.576V88.208H97.44V86.576H79.8ZM84.096 90.512V92.096H93.048V90.512H84.096ZM83.184 90.512V99.776C83.184 102.152 84.144 102.728 87.192 102.728C87.888 102.728 93.36 102.728 94.08 102.728C96.912 102.728 97.536 101.744 97.848 98.168C97.344 98.072 96.6 97.784 96.168 97.472C96 100.52 95.712 101.072 94.008 101.072C92.832 101.072 88.152 101.072 87.216 101.072C85.32 101.072 84.96 100.832 84.96 99.776V90.512H83.184ZM92.496 90.512V90.776C92.28 94.304 92.064 95.648 91.728 96.032C91.536 96.224 91.32 96.248 90.912 96.248C90.528 96.248 89.424 96.224 88.272 96.128C88.56 96.56 88.728 97.232 88.776 97.712C89.952 97.784 91.128 97.784 91.704 97.736C92.376 97.688 92.808 97.544 93.192 97.112C93.744 96.536 93.984 95.024 94.2 91.232C94.224 90.992 94.248 90.512 94.248 90.512H92.496ZM78.912 86.576V91.232C78.912 94.424 78.552 98.72 75.648 101.84C76.032 102.056 76.752 102.68 77.04 103.04C80.112 99.728 80.688 94.76 80.688 91.256V86.576H78.912ZM89.328 82.472V82.832C88.872 84.056 87.864 85.952 86.952 87.08C87.384 87.32 87.984 87.68 88.368 87.968C89.376 86.72 90.6 84.8 91.392 83.216L90.072 82.376L89.76 82.472H89.328ZM110.856 85.112V93.776H112.68V85.112H110.856ZM104.496 86.84V88.28H119.256V86.84H104.496ZM103.632 89.888V91.328H120.216V89.888H103.632ZM105.336 100.664V102.152H118.44V100.664H105.336ZM101.256 93.104V94.616H122.472V93.104H101.256ZM104.64 96.056V102.944H106.392V97.544H117.456V102.848H119.28V96.056H104.64ZM110.856 80.84V84.104H112.704V80.84H110.856ZM101.904 83.24V87.512H103.68V84.872H120V87.512H121.824V83.24H101.904ZM142.416 93.008C143.928 94.928 145.608 97.568 146.304 99.2L148.032 98.36C147.264 96.704 145.536 94.16 144 92.288L142.416 93.008ZM135.816 80.888V89.456H137.664V80.888H135.816ZM126.168 88.88V90.608H147.48V88.88H126.168ZM128.544 83.744V85.472H145.584V83.744H128.544ZM138.84 89.816V100.688C138.84 101 138.744 101.096 138.36 101.096C138 101.12 136.752 101.144 135.384 101.096C135.648 101.624 135.936 102.392 136.032 102.896C137.832 102.896 139.008 102.872 139.752 102.584C140.496 102.272 140.712 101.768 140.712 100.712V89.816H138.84ZM129.408 92.408C128.712 94.328 127.224 96.632 125.544 98.072C125.976 98.312 126.624 98.768 126.984 99.104C128.712 97.544 130.296 95.072 131.232 92.888L129.408 92.408ZM133.44 89.6V92.024C133.44 94.976 133.056 98.84 128.616 101.768C129.048 102.08 129.696 102.68 129.96 103.088C134.76 99.848 135.264 95.456 135.264 92.048V89.6H133.44ZM158.952 82.088V90.296C158.952 93.92 158.712 98.72 156 102.056C156.432 102.224 157.2 102.68 157.512 102.968C160.296 99.512 160.68 94.184 160.68 90.296V82.088H158.952ZM162.432 90.176V100.064C162.432 102.2 163.056 102.776 165.408 102.776C165.888 102.776 169.296 102.776 169.8 102.776C171.984 102.776 172.488 101.768 172.704 98.096C172.248 97.976 171.504 97.688 171.12 97.4C171 100.568 170.832 101.144 169.704 101.144C168.96 101.144 166.104 101.144 165.552 101.144C164.376 101.144 164.136 100.952 164.136 100.064V90.176H162.432ZM170.136 91.256C168.528 92.672 165.6 94.208 162.984 95.336C163.224 95.696 163.488 96.272 163.608 96.608C166.368 95.504 169.44 94.04 171.528 92.528L170.136 91.256ZM159.744 82.088V83.744H169.728V87.248H159.744V88.928H171.48V82.088H159.744ZM151.872 82.424C153.48 83.12 155.424 84.248 156.36 85.112L157.416 83.6C156.432 82.784 154.464 81.728 152.856 81.104L151.872 82.424ZM150.672 89.048C152.232 89.696 154.128 90.824 155.064 91.64L156.072 90.128C155.088 89.336 153.168 88.304 151.632 87.704L150.672 89.048ZM151.368 101.384L152.952 102.536C154.272 100.28 155.856 97.256 157.032 94.712L155.64 93.608C154.344 96.344 152.568 99.536 151.368 101.384ZM177.864 84.704V86.312H183.48V98.768H177.864V100.4H185.16V84.704H177.864ZM176.784 84.704V102.32H178.464V84.704H176.784ZM177.744 91.376V92.984H184.368V91.376H177.744ZM180.456 80.792C180.264 82.04 179.808 83.864 179.4 85.016L180.84 85.376C181.32 84.296 181.92 82.64 182.4 81.152L180.456 80.792ZM188.568 84.632V86.312H195.936V84.632H188.568ZM195.312 84.632V85.016C194.976 95.6 194.592 99.584 193.8 100.448C193.536 100.76 193.248 100.832 192.768 100.832C192.216 100.832 190.776 100.808 189.216 100.688C189.552 101.168 189.768 101.912 189.816 102.44C191.16 102.512 192.576 102.56 193.392 102.464C194.232 102.392 194.784 102.176 195.312 101.48C196.272 100.304 196.608 96.584 196.992 85.568C196.992 85.304 196.992 84.632 196.992 84.632H195.312ZM189.072 80.744C188.304 84.08 186.984 87.392 185.352 89.504C185.784 89.744 186.528 90.248 186.84 90.536C188.496 88.256 189.912 84.728 190.8 81.152L189.072 80.744ZM187.968 90.872C189.288 92.624 190.896 95 191.616 96.464L193.152 95.504C192.384 94.088 190.728 91.76 189.36 90.056L187.968 90.872ZM206.832 82.472V84.032H214.776V82.472H206.832ZM207.168 80.792C206.04 83.36 203.808 86.48 200.52 88.76C200.952 89.024 201.576 89.648 201.864 90.08C205.344 87.512 207.696 84.176 209.184 81.128L207.168 80.792ZM204.6 86.576V88.208H222.24V86.576H204.6ZM208.896 90.512V92.096H217.848V90.512H208.896ZM207.984 90.512V99.776C207.984 102.152 208.944 102.728 211.992 102.728C212.688 102.728 218.16 102.728 218.88 102.728C221.712 102.728 222.336 101.744 222.648 98.168C222.144 98.072 221.4 97.784 220.968 97.472C220.8 100.52 220.512 101.072 218.808 101.072C217.632 101.072 212.952 101.072 212.016 101.072C210.12 101.072 209.76 100.832 209.76 99.776V90.512H207.984ZM217.296 90.512V90.776C217.08 94.304 216.864 95.648 216.528 96.032C216.336 96.224 216.12 96.248 215.712 96.248C215.328 96.248 214.224 96.224 213.072 96.128C213.36 96.56 213.528 97.232 213.576 97.712C214.752 97.784 215.928 97.784 216.504 97.736C217.176 97.688 217.608 97.544 217.992 97.112C218.544 96.536 218.784 95.024 219 91.232C219.024 90.992 219.048 90.512 219.048 90.512H217.296ZM203.712 86.576V91.232C203.712 94.424 203.352 98.72 200.448 101.84C200.832 102.056 201.552 102.68 201.84 103.04C204.912 99.728 205.488 94.76 205.488 91.256V86.576H203.712ZM214.128 82.472V82.832C213.672 84.056 212.664 85.952 211.752 87.08C212.184 87.32 212.784 87.68 213.168 87.968C214.176 86.72 215.4 84.8 216.192 83.216L214.872 82.376L214.56 82.472H214.128ZM235.656 85.112V93.776H237.48V85.112H235.656ZM229.296 86.84V88.28H244.056V86.84H229.296ZM228.432 89.888V91.328H245.016V89.888H228.432ZM230.136 100.664V102.152H243.24V100.664H230.136ZM226.056 93.104V94.616H247.272V93.104H226.056ZM229.44 96.056V102.944H231.192V97.544H242.256V102.848H244.08V96.056H229.44ZM235.656 80.84V84.104H237.504V80.84H235.656ZM226.704 83.24V87.512H228.48V84.872H244.8V87.512H246.624V83.24H226.704ZM267.216 93.008C268.728 94.928 270.408 97.568 271.104 99.2L272.832 98.36C272.064 96.704 270.336 94.16 268.8 92.288L267.216 93.008ZM260.616 80.888V89.456H262.464V80.888H260.616ZM250.968 88.88V90.608H272.28V88.88H250.968ZM253.344 83.744V85.472H270.384V83.744H253.344ZM263.64 89.816V100.688C263.64 101 263.544 101.096 263.16 101.096C262.8 101.12 261.552 101.144 260.184 101.096C260.448 101.624 260.736 102.392 260.832 102.896C262.632 102.896 263.808 102.872 264.552 102.584C265.296 102.272 265.512 101.768 265.512 100.712V89.816H263.64ZM254.208 92.408C253.512 94.328 252.024 96.632 250.344 98.072C250.776 98.312 251.424 98.768 251.784 99.104C253.512 97.544 255.096 95.072 256.032 92.888L254.208 92.408ZM258.24 89.6V92.024C258.24 94.976 257.856 98.84 253.416 101.768C253.848 102.08 254.496 102.68 254.76 103.088C259.56 99.848 260.064 95.456 260.064 92.048V89.6H258.24ZM283.752 82.088V90.296C283.752 93.92 283.512 98.72 280.8 102.056C281.232 102.224 282 102.68 282.312 102.968C285.096 99.512 285.48 94.184 285.48 90.296V82.088H283.752ZM287.232 90.176V100.064C287.232 102.2 287.856 102.776 290.208 102.776C290.688 102.776 294.096 102.776 294.6 102.776C296.784 102.776 297.288 101.768 297.504 98.096C297.048 97.976 296.304 97.688 295.92 97.4C295.8 100.568 295.632 101.144 294.504 101.144C293.76 101.144 290.904 101.144 290.352 101.144C289.176 101.144 288.936 100.952 288.936 100.064V90.176H287.232ZM294.936 91.256C293.328 92.672 290.4 94.208 287.784 95.336C288.024 95.696 288.288 96.272 288.408 96.608C291.168 95.504 294.24 94.04 296.328 92.528L294.936 91.256ZM284.544 82.088V83.744H294.528V87.248H284.544V88.928H296.28V82.088H284.544ZM276.672 82.424C278.28 83.12 280.224 84.248 281.16 85.112L282.216 83.6C281.232 82.784 279.264 81.728 277.656 81.104L276.672 82.424ZM275.472 89.048C277.032 89.696 278.928 90.824 279.864 91.64L280.872 90.128C279.888 89.336 277.968 88.304 276.432 87.704L275.472 89.048ZM276.168 101.384L277.752 102.536C279.072 100.28 280.656 97.256 281.832 94.712L280.44 93.608C279.144 96.344 277.368 99.536 276.168 101.384ZM302.664 84.704V86.312H308.28V98.768H302.664V100.4H309.96V84.704H302.664ZM301.584 84.704V102.32H303.264V84.704H301.584ZM302.544 91.376V92.984H309.168V91.376H302.544ZM305.256 80.792C305.064 82.04 304.608 83.864 304.2 85.016L305.64 85.376C306.12 84.296 306.72 82.64 307.2 81.152L305.256 80.792ZM313.368 84.632V86.312H320.736V84.632H313.368ZM320.112 84.632V85.016C319.776 95.6 319.392 99.584 318.6 100.448C318.336 100.76 318.048 100.832 317.568 100.832C317.016 100.832 315.576 100.808 314.016 100.688C314.352 101.168 314.568 101.912 314.616 102.44C315.96 102.512 317.376 102.56 318.192 102.464C319.032 102.392 319.584 102.176 320.112 101.48C321.072 100.304 321.408 96.584 321.792 85.568C321.792 85.304 321.792 84.632 321.792 84.632H320.112ZM313.872 80.744C313.104 84.08 311.784 87.392 310.152 89.504C310.584 89.744 311.328 90.248 311.64 90.536C313.296 88.256 314.712 84.728 315.6 81.152L313.872 80.744ZM312.768 90.872C314.088 92.624 315.696 95 316.416 96.464L317.952 95.504C317.184 94.088 315.528 91.76 314.16 90.056L312.768 90.872ZM331.632 82.472V84.032H339.576V82.472H331.632ZM331.968 80.792C330.84 83.36 328.608 86.48 325.32 88.76C325.752 89.024 326.376 89.648 326.664 90.08C330.144 87.512 332.496 84.176 333.984 81.128L331.968 80.792ZM329.4 86.576V88.208H347.04V86.576H329.4ZM333.696 90.512V92.096H342.648V90.512H333.696ZM332.784 90.512V99.776C332.784 102.152 333.744 102.728 336.792 102.728C337.488 102.728 342.96 102.728 343.68 102.728C346.512 102.728 347.136 101.744 347.448 98.168C346.944 98.072 346.2 97.784 345.768 97.472C345.6 100.52 345.312 101.072 343.608 101.072C342.432 101.072 337.752 101.072 336.816 101.072C334.92 101.072 334.56 100.832 334.56 99.776V90.512H332.784ZM342.096 90.512V90.776C341.88 94.304 341.664 95.648 341.328 96.032C341.136 96.224 340.92 96.248 340.512 96.248C340.128 96.248 339.024 96.224 337.872 96.128C338.16 96.56 338.328 97.232 338.376 97.712C339.552 97.784 340.728 97.784 341.304 97.736C341.976 97.688 342.408 97.544 342.792 97.112C343.344 96.536 343.584 95.024 343.8 91.232C343.824 90.992 343.848 90.512 343.848 90.512H342.096ZM328.512 86.576V91.232C328.512 94.424 328.152 98.72 325.248 101.84C325.632 102.056 326.352 102.68 326.64 103.04C329.712 99.728 330.288 94.76 330.288 91.256V86.576H328.512ZM338.928 82.472V82.832C338.472 84.056 337.464 85.952 336.552 87.08C336.984 87.32 337.584 87.68 337.968 87.968C338.976 86.72 340.2 84.8 340.992 83.216L339.672 82.376L339.36 82.472H338.928ZM360.456 85.112V93.776H362.28V85.112H360.456ZM354.096 86.84V88.28H368.856V86.84H354.096ZM353.232 89.888V91.328H369.816V89.888H353.232ZM354.936 100.664V102.152H368.04V100.664H354.936ZM350.856 93.104V94.616H372.072V93.104H350.856ZM354.24 96.056V102.944H355.992V97.544H367.056V102.848H368.88V96.056H354.24ZM360.456 80.84V84.104H362.304V80.84H360.456ZM351.504 83.24V87.512H353.28V84.872H369.6V87.512H371.424V83.24H351.504ZM17.616 126.008C19.128 127.928 20.808 130.568 21.504 132.2L23.232 131.36C22.464 129.704 20.736 127.16 19.2 125.288L17.616 126.008ZM11.016 113.888V122.456H12.864V113.888H11.016ZM1.368 121.88V123.608H22.68V121.88H1.368ZM3.744 116.744V118.472H20.784V116.744H3.744ZM14.04 122.816V133.688C14.04 134 13.944 134.096 13.56 134.096C13.2 134.12 11.952 134.144 10.584 134.096C10.848 134.624 11.136 135.392 11.232 135.896C13.032 135.896 14.208 135.872 14.952 135.584C15.696 135.272 15.912 134.768 15.912 133.712V122.816H14.04ZM4.608 125.408C3.912 127.328 2.424 129.632 0.744 131.072C1.176 131.312 1.824 131.768 2.184 132.104C3.912 130.544 5.496 128.072 6.432 125.888L4.608 125.408ZM8.64 122.6V125.024C8.64 127.976 8.256 131.84 3.816 134.768C4.248 135.08 4.896 135.68 5.16 136.088C9.96 132.848 10.464 128.456 10.464 125.048V122.6H8.64ZM34.152 115.088V123.296C34.152 126.92 33.912 131.72 31.2 135.056C31.632 135.224 32.4 135.68 32.712 135.968C35.496 132.512 35.88 127.184 35.88 123.296V115.088H34.152ZM37.632 123.176V133.064C37.632 135.2 38.256 135.776 40.608 135.776C41.088 135.776 44.496 135.776 45 135.776C47.184 135.776 47.688 134.768 47.904 131.096C47.448 130.976 46.704 130.688 46.32 130.4C46.2 133.568 46.032 134.144 44.904 134.144C44.16 134.144 41.304 134.144 40.752 134.144C39.576 134.144 39.336 133.952 39.336 133.064V123.176H37.632ZM45.336 124.256C43.728 125.672 40.8 127.208 38.184 128.336C38.424 128.696 38.688 129.272 38.808 129.608C41.568 128.504 44.64 127.04 46.728 125.528L45.336 124.256ZM34.944 115.088V116.744H44.928V120.248H34.944V121.928H46.68V115.088H34.944ZM27.072 115.424C28.68 116.12 30.624 117.248 31.56 118.112L32.616 116.6C31.632 115.784 29.664 114.728 28.056 114.104L27.072 115.424ZM25.872 122.048C27.432 122.696 29.328 123.824 30.264 124.64L31.272 123.128C30.288 122.336 28.368 121.304 26.832 120.704L25.872 122.048ZM26.568 134.384L28.152 135.536C29.472 133.28 31.056 130.256 32.232 127.712L30.84 126.608C29.544 129.344 27.768 132.536 26.568 134.384ZM53.064 117.704V119.312H58.68V131.768H53.064V133.4H60.36V117.704H53.064ZM51.984 117.704V135.32H53.664V117.704H51.984ZM52.944 124.376V125.984H59.568V124.376H52.944ZM55.656 113.792C55.464 115.04 55.008 116.864 54.6 118.016L56.04 118.376C56.52 117.296 57.12 115.64 57.6 114.152L55.656 113.792ZM63.768 117.632V119.312H71.136V117.632H63.768ZM70.512 117.632V118.016C70.176 128.6 69.792 132.584 69 133.448C68.736 133.76 68.448 133.832 67.968 133.832C67.416 133.832 65.976 133.808 64.416 133.688C64.752 134.168 64.968 134.912 65.016 135.44C66.36 135.512 67.776 135.56 68.592 135.464C69.432 135.392 69.984 135.176 70.512 134.48C71.472 133.304 71.808 129.584 72.192 118.568C72.192 118.304 72.192 117.632 72.192 117.632H70.512ZM64.272 113.744C63.504 117.08 62.184 120.392 60.552 122.504C60.984 122.744 61.728 123.248 62.04 123.536C63.696 121.256 65.112 117.728 66 114.152L64.272 113.744ZM63.168 123.872C64.488 125.624 66.096 128 66.816 129.464L68.352 128.504C67.584 127.088 65.928 124.76 64.56 123.056L63.168 123.872ZM82.032 115.472V117.032H89.976V115.472H82.032ZM82.368 113.792C81.24 116.36 79.008 119.48 75.72 121.76C76.152 122.024 76.776 122.648 77.064 123.08C80.544 120.512 82.896 117.176 84.384 114.128L82.368 113.792ZM79.8 119.576V121.208H97.44V119.576H79.8ZM84.096 123.512V125.096H93.048V123.512H84.096ZM83.184 123.512V132.776C83.184 135.152 84.144 135.728 87.192 135.728C87.888 135.728 93.36 135.728 94.08 135.728C96.912 135.728 97.536 134.744 97.848 131.168C97.344 131.072 96.6 130.784 96.168 130.472C96 133.52 95.712 134.072 94.008 134.072C92.832 134.072 88.152 134.072 87.216 134.072C85.32 134.072 84.96 133.832 84.96 132.776V123.512H83.184ZM92.496 123.512V123.776C92.28 127.304 92.064 128.648 91.728 129.032C91.536 129.224 91.32 129.248 90.912 129.248C90.528 129.248 89.424 129.224 88.272 129.128C88.56 129.56 88.728 130.232 88.776 130.712C89.952 130.784 91.128 130.784 91.704 130.736C92.376 130.688 92.808 130.544 93.192 130.112C93.744 129.536 93.984 128.024 94.2 124.232C94.224 123.992 94.248 123.512 94.248 123.512H92.496ZM78.912 119.576V124.232C78.912 127.424 78.552 131.72 75.648 134.84C76.032 135.056 76.752 135.68 77.04 136.04C80.112 132.728 80.688 127.76 80.688 124.256V119.576H78.912ZM89.328 115.472V115.832C88.872 117.056 87.864 118.952 86.952 120.08C87.384 120.32 87.984 120.68 88.368 120.968C89.376 119.72 90.6 117.8 91.392 116.216L90.072 115.376L89.76 115.472H89.328ZM110.856 118.112V126.776H112.68V118.112H110.856ZM104.496 119.84V121.28H119.256V119.84H104.496ZM103.632 122.888V124.328H120.216V122.888H103.632ZM105.336 133.664V135.152H118.44V133.664H105.336ZM101.256 126.104V127.616H122.472V126.104H101.256ZM104.64 129.056V135.944H106.392V130.544H117.456V135.848H119.28V129.056H104.64ZM110.856 113.84V117.104H112.704V113.84H110.856ZM101.904 116.24V120.512H103.68V117.872H120V120.512H121.824V116.24H101.904ZM142.416 126.008C143.928 127.928 145.608 130.568 146.304 132.2L148.032 131.36C147.264 129.704 145.536 127.16 144 125.288L142.416 126.008ZM135.816 113.888V122.456H137.664V113.888H135.816ZM126.168 121.88V123.608H147.48V121.88H126.168ZM128.544 116.744V118.472H145.584V116.744H128.544ZM138.84 122.816V133.688C138.84 134 138.744 134.096 138.36 134.096C138 134.12 136.752 134.144 135.384 134.096C135.648 134.624 135.936 135.392 136.032 135.896C137.832 135.896 139.008 135.872 139.752 135.584C140.496 135.272 140.712 134.768 140.712 133.712V122.816H138.84ZM129.408 125.408C128.712 127.328 127.224 129.632 125.544 131.072C125.976 131.312 126.624 131.768 126.984 132.104C128.712 130.544 130.296 128.072 131.232 125.888L129.408 125.408ZM133.44 122.6V125.024C133.44 127.976 133.056 131.84 128.616 134.768C129.048 135.08 129.696 135.68 129.96 136.088C134.76 132.848 135.264 128.456 135.264 125.048V122.6H133.44ZM158.952 115.088V123.296C158.952 126.92 158.712 131.72 156 135.056C156.432 135.224 157.2 135.68 157.512 135.968C160.296 132.512 160.68 127.184 160.68 123.296V115.088H158.952ZM162.432 123.176V133.064C162.432 135.2 163.056 135.776 165.408 135.776C165.888 135.776 169.296 135.776 169.8 135.776C171.984 135.776 172.488 134.768 172.704 131.096C172.248 130.976 171.504 130.688 171.12 130.4C171 133.568 170.832 134.144 169.704 134.144C168.96 134.144 166.104 134.144 165.552 134.144C164.376 134.144 164.136 133.952 164.136 133.064V123.176H162.432ZM170.136 124.256C168.528 125.672 165.6 127.208 162.984 128.336C163.224 128.696 163.488 129.272 163.608 129.608C166.368 128.504 169.44 127.04 171.528 125.528L170.136 124.256ZM159.744 115.088V116.744H169.728V120.248H159.744V121.928H171.48V115.088H159.744ZM151.872 115.424C153.48 116.12 155.424 117.248 156.36 118.112L157.416 116.6C156.432 115.784 154.464 114.728 152.856 114.104L151.872 115.424ZM150.672 122.048C152.232 122.696 154.128 123.824 155.064 124.64L156.072 123.128C155.088 122.336 153.168 121.304 151.632 120.704L150.672 122.048ZM151.368 134.384L152.952 135.536C154.272 133.28 155.856 130.256 157.032 127.712L155.64 126.608C154.344 129.344 152.568 132.536 151.368 134.384ZM177.864 117.704V119.312H183.48V131.768H177.864V133.4H185.16V117.704H177.864ZM176.784 117.704V135.32H178.464V117.704H176.784ZM177.744 124.376V125.984H184.368V124.376H177.744ZM180.456 113.792C180.264 115.04 179.808 116.864 179.4 118.016L180.84 118.376C181.32 117.296 181.92 115.64 182.4 114.152L180.456 113.792ZM188.568 117.632V119.312H195.936V117.632H188.568ZM195.312 117.632V118.016C194.976 128.6 194.592 132.584 193.8 133.448C193.536 133.76 193.248 133.832 192.768 133.832C192.216 133.832 190.776 133.808 189.216 133.688C189.552 134.168 189.768 134.912 189.816 135.44C191.16 135.512 192.576 135.56 193.392 135.464C194.232 135.392 194.784 135.176 195.312 134.48C196.272 133.304 196.608 129.584 196.992 118.568C196.992 118.304 196.992 117.632 196.992 117.632H195.312ZM189.072 113.744C188.304 117.08 186.984 120.392 185.352 122.504C185.784 122.744 186.528 123.248 186.84 123.536C188.496 121.256 189.912 117.728 190.8 114.152L189.072 113.744ZM187.968 123.872C189.288 125.624 190.896 128 191.616 129.464L193.152 128.504C192.384 127.088 190.728 124.76 189.36 123.056L187.968 123.872ZM206.832 115.472V117.032H214.776V115.472H206.832ZM207.168 113.792C206.04 116.36 203.808 119.48 200.52 121.76C200.952 122.024 201.576 122.648 201.864 123.08C205.344 120.512 207.696 117.176 209.184 114.128L207.168 113.792ZM204.6 119.576V121.208H222.24V119.576H204.6ZM208.896 123.512V125.096H217.848V123.512H208.896ZM207.984 123.512V132.776C207.984 135.152 208.944 135.728 211.992 135.728C212.688 135.728 218.16 135.728 218.88 135.728C221.712 135.728 222.336 134.744 222.648 131.168C222.144 131.072 221.4 130.784 220.968 130.472C220.8 133.52 220.512 134.072 218.808 134.072C217.632 134.072 212.952 134.072 212.016 134.072C210.12 134.072 209.76 133.832 209.76 132.776V123.512H207.984ZM217.296 123.512V123.776C217.08 127.304 216.864 128.648 216.528 129.032C216.336 129.224 216.12 129.248 215.712 129.248C215.328 129.248 214.224 129.224 213.072 129.128C213.36 129.56 213.528 130.232 213.576 130.712C214.752 130.784 215.928 130.784 216.504 130.736C217.176 130.688 217.608 130.544 217.992 130.112C218.544 129.536 218.784 128.024 219 124.232C219.024 123.992 219.048 123.512 219.048 123.512H217.296ZM203.712 119.576V124.232C203.712 127.424 203.352 131.72 200.448 134.84C200.832 135.056 201.552 135.68 201.84 136.04C204.912 132.728 205.488 127.76 205.488 124.256V119.576H203.712ZM214.128 115.472V115.832C213.672 117.056 212.664 118.952 211.752 120.08C212.184 120.32 212.784 120.68 213.168 120.968C214.176 119.72 215.4 117.8 216.192 116.216L214.872 115.376L214.56 115.472H214.128ZM235.656 118.112V126.776H237.48V118.112H235.656ZM229.296 119.84V121.28H244.056V119.84H229.296ZM228.432 122.888V124.328H245.016V122.888H228.432ZM230.136 133.664V135.152H243.24V133.664H230.136ZM226.056 126.104V127.616H247.272V126.104H226.056ZM229.44 129.056V135.944H231.192V130.544H242.256V135.848H244.08V129.056H229.44ZM235.656 113.84V117.104H237.504V113.84H235.656ZM226.704 116.24V120.512H228.48V117.872H244.8V120.512H246.624V116.24H226.704ZM267.216 126.008C268.728 127.928 270.408 130.568 271.104 132.2L272.832 131.36C272.064 129.704 270.336 127.16 268.8 125.288L267.216 126.008ZM260.616 113.888V122.456H262.464V113.888H260.616ZM250.968 121.88V123.608H272.28V121.88H250.968ZM253.344 116.744V118.472H270.384V116.744H253.344ZM263.64 122.816V133.688C263.64 134 263.544 134.096 263.16 134.096C262.8 134.12 261.552 134.144 260.184 134.096C260.448 134.624 260.736 135.392 260.832 135.896C262.632 135.896 263.808 135.872 264.552 135.584C265.296 135.272 265.512 134.768 265.512 133.712V122.816H263.64ZM254.208 125.408C253.512 127.328 252.024 129.632 250.344 131.072C250.776 131.312 251.424 131.768 251.784 132.104C253.512 130.544 255.096 128.072 256.032 125.888L254.208 125.408ZM258.24 122.6V125.024C258.24 127.976 257.856 131.84 253.416 134.768C253.848 135.08 254.496 135.68 254.76 136.088C259.56 132.848 260.064 128.456 260.064 125.048V122.6H258.24ZM283.752 115.088V123.296C283.752 126.92 283.512 131.72 280.8 135.056C281.232 135.224 282 135.68 282.312 135.968C285.096 132.512 285.48 127.184 285.48 123.296V115.088H283.752ZM287.232 123.176V133.064C287.232 135.2 287.856 135.776 290.208 135.776C290.688 135.776 294.096 135.776 294.6 135.776C296.784 135.776 297.288 134.768 297.504 131.096C297.048 130.976 296.304 130.688 295.92 130.4C295.8 133.568 295.632 134.144 294.504 134.144C293.76 134.144 290.904 134.144 290.352 134.144C289.176 134.144 288.936 133.952 288.936 133.064V123.176H287.232ZM294.936 124.256C293.328 125.672 290.4 127.208 287.784 128.336C288.024 128.696 288.288 129.272 288.408 129.608C291.168 128.504 294.24 127.04 296.328 125.528L294.936 124.256ZM284.544 115.088V116.744H294.528V120.248H284.544V121.928H296.28V115.088H284.544ZM276.672 115.424C278.28 116.12 280.224 117.248 281.16 118.112L282.216 116.6C281.232 115.784 279.264 114.728 277.656 114.104L276.672 115.424ZM275.472 122.048C277.032 122.696 278.928 123.824 279.864 124.64L280.872 123.128C279.888 122.336 277.968 121.304 276.432 120.704L275.472 122.048ZM276.168 134.384L277.752 135.536C279.072 133.28 280.656 130.256 281.832 127.712L280.44 126.608C279.144 129.344 277.368 132.536 276.168 134.384ZM302.664 117.704V119.312H308.28V131.768H302.664V133.4H309.96V117.704H302.664ZM301.584 117.704V135.32H303.264V117.704H301.584ZM302.544 124.376V125.984H309.168V124.376H302.544ZM305.256 113.792C305.064 115.04 304.608 116.864 304.2 118.016L305.64 118.376C306.12 117.296 306.72 115.64 307.2 114.152L305.256 113.792ZM313.368 117.632V119.312H320.736V117.632H313.368ZM320.112 117.632V118.016C319.776 128.6 319.392 132.584 318.6 133.448C318.336 133.76 318.048 133.832 317.568 133.832C317.016 133.832 315.576 133.808 314.016 133.688C314.352 134.168 314.568 134.912 314.616 135.44C315.96 135.512 317.376 135.56 318.192 135.464C319.032 135.392 319.584 135.176 320.112 134.48C321.072 133.304 321.408 129.584 321.792 118.568C321.792 118.304 321.792 117.632 321.792 117.632H320.112ZM313.872 113.744C313.104 117.08 311.784 120.392 310.152 122.504C310.584 122.744 311.328 123.248 311.64 123.536C313.296 121.256 314.712 117.728 315.6 114.152L313.872 113.744ZM312.768 123.872C314.088 125.624 315.696 128 316.416 129.464L317.952 128.504C317.184 127.088 315.528 124.76 314.16 123.056L312.768 123.872ZM331.632 115.472V117.032H339.576V115.472H331.632ZM331.968 113.792C330.84 116.36 328.608 119.48 325.32 121.76C325.752 122.024 326.376 122.648 326.664 123.08C330.144 120.512 332.496 117.176 333.984 114.128L331.968 113.792ZM329.4 119.576V121.208H347.04V119.576H329.4ZM333.696 123.512V125.096H342.648V123.512H333.696ZM332.784 123.512V132.776C332.784 135.152 333.744 135.728 336.792 135.728C337.488 135.728 342.96 135.728 343.68 135.728C346.512 135.728 347.136 134.744 347.448 131.168C346.944 131.072 346.2 130.784 345.768 130.472C345.6 133.52 345.312 134.072 343.608 134.072C342.432 134.072 337.752 134.072 336.816 134.072C334.92 134.072 334.56 133.832 334.56 132.776V123.512H332.784ZM342.096 123.512V123.776C341.88 127.304 341.664 128.648 341.328 129.032C341.136 129.224 340.92 129.248 340.512 129.248C340.128 129.248 339.024 129.224 337.872 129.128C338.16 129.56 338.328 130.232 338.376 130.712C339.552 130.784 340.728 130.784 341.304 130.736C341.976 130.688 342.408 130.544 342.792 130.112C343.344 129.536 343.584 128.024 343.8 124.232C343.824 123.992 343.848 123.512 343.848 123.512H342.096ZM328.512 119.576V124.232C328.512 127.424 328.152 131.72 325.248 134.84C325.632 135.056 326.352 135.68 326.64 136.04C329.712 132.728 330.288 127.76 330.288 124.256V119.576H328.512ZM338.928 115.472V115.832C338.472 117.056 337.464 118.952 336.552 120.08C336.984 120.32 337.584 120.68 337.968 120.968C338.976 119.72 340.2 117.8 340.992 116.216L339.672 115.376L339.36 115.472H338.928ZM360.456 118.112V126.776H362.28V118.112H360.456ZM354.096 119.84V121.28H368.856V119.84H354.096ZM353.232 122.888V124.328H369.816V122.888H353.232ZM354.936 133.664V135.152H368.04V133.664H354.936ZM350.856 126.104V127.616H372.072V126.104H350.856ZM354.24 129.056V135.944H355.992V130.544H367.056V135.848H368.88V129.056H354.24ZM360.456 113.84V117.104H362.304V113.84H360.456ZM351.504 116.24V120.512H353.28V117.872H369.6V120.512H371.424V116.24H351.504ZM17.616 159.008C19.128 160.928 20.808 163.568 21.504 165.2L23.232 164.36C22.464 162.704 20.736 160.16 19.2 158.288L17.616 159.008ZM11.016 146.888V155.456H12.864V146.888H11.016ZM1.368 154.88V156.608H22.68V154.88H1.368ZM3.744 149.744V151.472H20.784V149.744H3.744ZM14.04 155.816V166.688C14.04 167 13.944 167.096 13.56 167.096C13.2 167.12 11.952 167.144 10.584 167.096C10.848 167.624 11.136 168.392 11.232 168.896C13.032 168.896 14.208 168.872 14.952 168.584C15.696 168.272 15.912 167.768 15.912 166.712V155.816H14.04ZM4.608 158.408C3.912 160.328 2.424 162.632 0.744 164.072C1.176 164.312 1.824 164.768 2.184 165.104C3.912 163.544 5.496 161.072 6.432 158.888L4.608 158.408ZM8.64 155.6V158.024C8.64 160.976 8.256 164.84 3.816 167.768C4.248 168.08 4.896 168.68 5.16 169.088C9.96 165.848 10.464 161.456 10.464 158.048V155.6H8.64ZM34.152 148.088V156.296C34.152 159.92 33.912 164.72 31.2 168.056C31.632 168.224 32.4 168.68 32.712 168.968C35.496 165.512 35.88 160.184 35.88 156.296V148.088H34.152ZM37.632 156.176V166.064C37.632 168.2 38.256 168.776 40.608 168.776C41.088 168.776 44.496 168.776 45 168.776C47.184 168.776 47.688 167.768 47.904 164.096C47.448 163.976 46.704 163.688 46.32 163.4C46.2 166.568 46.032 167.144 44.904 167.144C44.16 167.144 41.304 167.144 40.752 167.144C39.576 167.144 39.336 166.952 39.336 166.064V156.176H37.632ZM45.336 157.256C43.728 158.672 40.8 160.208 38.184 161.336C38.424 161.696 38.688 162.272 38.808 162.608C41.568 161.504 44.64 160.04 46.728 158.528L45.336 157.256ZM34.944 148.088V149.744H44.928V153.248H34.944V154.928H46.68V148.088H34.944ZM27.072 148.424C28.68 149.12 30.624 150.248 31.56 151.112L32.616 149.6C31.632 148.784 29.664 147.728 28.056 147.104L27.072 148.424ZM25.872 155.048C27.432 155.696 29.328 156.824 30.264 157.64L31.272 156.128C30.288 155.336 28.368 154.304 26.832 153.704L25.872 155.048ZM26.568 167.384L28.152 168.536C29.472 166.28 31.056 163.256 32.232 160.712L30.84 159.608C29.544 162.344 27.768 165.536 26.568 167.384ZM53.064 150.704V152.312H58.68V164.768H53.064V166.4H60.36V150.704H53.064ZM51.984 150.704V168.32H53.664V150.704H51.984ZM52.944 157.376V158.984H59.568V157.376H52.944ZM55.656 146.792C55.464 148.04 55.008 149.864 54.6 151.016L56.04 151.376C56.52 150.296 57.12 148.64 57.6 147.152L55.656 146.792ZM63.768 150.632V152.312H71.136V150.632H63.768ZM70.512 150.632V151.016C70.176 161.6 69.792 165.584 69 166.448C68.736 166.76 68.448 166.832 67.968 166.832C67.416 166.832 65.976 166.808 64.416 166.688C64.752 167.168 64.968 167.912 65.016 168.44C66.36 168.512 67.776 168.56 68.592 168.464C69.432 168.392 69.984 168.176 70.512 167.48C71.472 166.304 71.808 162.584 72.192 151.568C72.192 151.304 72.192 150.632 72.192 150.632H70.512ZM64.272 146.744C63.504 150.08 62.184 153.392 60.552 155.504C60.984 155.744 61.728 156.248 62.04 156.536C63.696 154.256 65.112 150.728 66 147.152L64.272 146.744ZM63.168 156.872C64.488 158.624 66.096 161 66.816 162.464L68.352 161.504C67.584 160.088 65.928 157.76 64.56 156.056L63.168 156.872ZM82.032 148.472V150.032H89.976V148.472H82.032ZM82.368 146.792C81.24 149.36 79.008 152.48 75.72 154.76C76.152 155.024 76.776 155.648 77.064 156.08C80.544 153.512 82.896 150.176 84.384 147.128L82.368 146.792ZM79.8 152.576V154.208H97.44V152.576H79.8ZM84.096 156.512V158.096H93.048V156.512H84.096ZM83.184 156.512V165.776C83.184 168.152 84.144 168.728 87.192 168.728C87.888 168.728 93.36 168.728 94.08 168.728C96.912 168.728 97.536 167.744 97.848 164.168C97.344 164.072 96.6 163.784 96.168 163.472C96 166.52 95.712 167.072 94.008 167.072C92.832 167.072 88.152 167.072 87.216 167.072C85.32 167.072 84.96 166.832 84.96 165.776V156.512H83.184ZM92.496 156.512V156.776C92.28 160.304 92.064 161.648 91.728 162.032C91.536 162.224 91.32 162.248 90.912 162.248C90.528 162.248 89.424 162.224 88.272 162.128C88.56 162.56 88.728 163.232 88.776 163.712C89.952 163.784 91.128 163.784 91.704 163.736C92.376 163.688 92.808 163.544 93.192 163.112C93.744 162.536 93.984 161.024 94.2 157.232C94.224 156.992 94.248 156.512 94.248 156.512H92.496ZM78.912 152.576V157.232C78.912 160.424 78.552 164.72 75.648 167.84C76.032 168.056 76.752 168.68 77.04 169.04C80.112 165.728 80.688 160.76 80.688 157.256V152.576H78.912ZM89.328 148.472V148.832C88.872 150.056 87.864 151.952 86.952 153.08C87.384 153.32 87.984 153.68 88.368 153.968C89.376 152.72 90.6 150.8 91.392 149.216L90.072 148.376L89.76 148.472H89.328ZM110.856 151.112V159.776H112.68V151.112H110.856ZM104.496 152.84V154.28H119.256V152.84H104.496ZM103.632 155.888V157.328H120.216V155.888H103.632ZM105.336 166.664V168.152H118.44V166.664H105.336ZM101.256 159.104V160.616H122.472V159.104H101.256ZM104.64 162.056V168.944H106.392V163.544H117.456V168.848H119.28V162.056H104.64ZM110.856 146.84V150.104H112.704V146.84H110.856ZM101.904 149.24V153.512H103.68V150.872H120V153.512H121.824V149.24H101.904ZM142.416 159.008C143.928 160.928 145.608 163.568 146.304 165.2L148.032 164.36C147.264 162.704 145.536 160.16 144 158.288L142.416 159.008ZM135.816 146.888V155.456H137.664V146.888H135.816ZM126.168 154.88V156.608H147.48V154.88H126.168ZM128.544 149.744V151.472H145.584V149.744H128.544ZM138.84 155.816V166.688C138.84 167 138.744 167.096 138.36 167.096C138 167.12 136.752 167.144 135.384 167.096C135.648 167.624 135.936 168.392 136.032 168.896C137.832 168.896 139.008 168.872 139.752 168.584C140.496 168.272 140.712 167.768 140.712 166.712V155.816H138.84ZM129.408 158.408C128.712 160.328 127.224 162.632 125.544 164.072C125.976 164.312 126.624 164.768 126.984 165.104C128.712 163.544 130.296 161.072 131.232 158.888L129.408 158.408ZM133.44 155.6V158.024C133.44 160.976 133.056 164.84 128.616 167.768C129.048 168.08 129.696 168.68 129.96 169.088C134.76 165.848 135.264 161.456 135.264 158.048V155.6H133.44ZM158.952 148.088V156.296C158.952 159.92 158.712 164.72 156 168.056C156.432 168.224 157.2 168.68 157.512 168.968C160.296 165.512 160.68 160.184 160.68 156.296V148.088H158.952ZM162.432 156.176V166.064C162.432 168.2 163.056 168.776 165.408 168.776C165.888 168.776 169.296 168.776 169.8 168.776C171.984 168.776 172.488 167.768 172.704 164.096C172.248 163.976 171.504 163.688 171.12 163.4C171 166.568 170.832 167.144 169.704 167.144C168.96 167.144 166.104 167.144 165.552 167.144C164.376 167.144 164.136 166.952 164.136 166.064V156.176H162.432ZM170.136 157.256C168.528 158.672 165.6 160.208 162.984 161.336C163.224 161.696 163.488 162.272 163.608 162.608C166.368 161.504 169.44 160.04 171.528 158.528L170.136 157.256ZM159.744 148.088V149.744H169.728V153.248H159.744V154.928H171.48V148.088H159.744ZM151.872 148.424C153.48 149.12 155.424 150.248 156.36 151.112L157.416 149.6C156.432 148.784 154.464 147.728 152.856 147.104L151.872 148.424ZM150.672 155.048C152.232 155.696 154.128 156.824 155.064 157.64L156.072 156.128C155.088 155.336 153.168 154.304 151.632 153.704L150.672 155.048ZM151.368 167.384L152.952 168.536C154.272 166.28 155.856 163.256 157.032 160.712L155.64 159.608C154.344 162.344 152.568 165.536 151.368 167.384ZM177.864 150.704V152.312H183.48V164.768H177.864V166.4H185.16V150.704H177.864ZM176.784 150.704V168.32H178.464V150.704H176.784ZM177.744 157.376V158.984H184.368V157.376H177.744ZM180.456 146.792C180.264 148.04 179.808 149.864 179.4 151.016L180.84 151.376C181.32 150.296 181.92 148.64 182.4 147.152L180.456 146.792ZM188.568 150.632V152.312H195.936V150.632H188.568ZM195.312 150.632V151.016C194.976 161.6 194.592 165.584 193.8 166.448C193.536 166.76 193.248 166.832 192.768 166.832C192.216 166.832 190.776 166.808 189.216 166.688C189.552 167.168 189.768 167.912 189.816 168.44C191.16 168.512 192.576 168.56 193.392 168.464C194.232 168.392 194.784 168.176 195.312 167.48C196.272 166.304 196.608 162.584 196.992 151.568C196.992 151.304 196.992 150.632 196.992 150.632H195.312ZM189.072 146.744C188.304 150.08 186.984 153.392 185.352 155.504C185.784 155.744 186.528 156.248 186.84 156.536C188.496 154.256 189.912 150.728 190.8 147.152L189.072 146.744ZM187.968 156.872C189.288 158.624 190.896 161 191.616 162.464L193.152 161.504C192.384 160.088 190.728 157.76 189.36 156.056L187.968 156.872ZM206.832 148.472V150.032H214.776V148.472H206.832ZM207.168 146.792C206.04 149.36 203.808 152.48 200.52 154.76C200.952 155.024 201.576 155.648 201.864 156.08C205.344 153.512 207.696 150.176 209.184 147.128L207.168 146.792ZM204.6 152.576V154.208H222.24V152.576H204.6ZM208.896 156.512V158.096H217.848V156.512H208.896ZM207.984 156.512V165.776C207.984 168.152 208.944 168.728 211.992 168.728C212.688 168.728 218.16 168.728 218.88 168.728C221.712 168.728 222.336 167.744 222.648 164.168C222.144 164.072 221.4 163.784 220.968 163.472C220.8 166.52 220.512 167.072 218.808 167.072C217.632 167.072 212.952 167.072 212.016 167.072C210.12 167.072 209.76 166.832 209.76 165.776V156.512H207.984ZM217.296 156.512V156.776C217.08 160.304 216.864 161.648 216.528 162.032C216.336 162.224 216.12 162.248 215.712 162.248C215.328 162.248 214.224 162.224 213.072 162.128C213.36 162.56 213.528 163.232 213.576 163.712C214.752 163.784 215.928 163.784 216.504 163.736C217.176 163.688 217.608 163.544 217.992 163.112C218.544 162.536 218.784 161.024 219 157.232C219.024 156.992 219.048 156.512 219.048 156.512H217.296ZM203.712 152.576V157.232C203.712 160.424 203.352 164.72 200.448 167.84C200.832 168.056 201.552 168.68 201.84 169.04C204.912 165.728 205.488 160.76 205.488 157.256V152.576H203.712ZM214.128 148.472V148.832C213.672 150.056 212.664 151.952 211.752 153.08C212.184 153.32 212.784 153.68 213.168 153.968C214.176 152.72 215.4 150.8 216.192 149.216L214.872 148.376L214.56 148.472H214.128ZM235.656 151.112V159.776H237.48V151.112H235.656ZM229.296 152.84V154.28H244.056V152.84H229.296ZM228.432 155.888V157.328H245.016V155.888H228.432ZM230.136 166.664V168.152H243.24V166.664H230.136ZM226.056 159.104V160.616H247.272V159.104H226.056ZM229.44 162.056V168.944H231.192V163.544H242.256V168.848H244.08V162.056H229.44ZM235.656 146.84V150.104H237.504V146.84H235.656ZM226.704 149.24V153.512H228.48V150.872H244.8V153.512H246.624V149.24H226.704ZM267.216 159.008C268.728 160.928 270.408 163.568 271.104 165.2L272.832 164.36C272.064 162.704 270.336 160.16 268.8 158.288L267.216 159.008ZM260.616 146.888V155.456H262.464V146.888H260.616ZM250.968 154.88V156.608H272.28V154.88H250.968ZM253.344 149.744V151.472H270.384V149.744H253.344ZM263.64 155.816V166.688C263.64 167 263.544 167.096 263.16 167.096C262.8 167.12 261.552 167.144 260.184 167.096C260.448 167.624 260.736 168.392 260.832 168.896C262.632 168.896 263.808 168.872 264.552 168.584C265.296 168.272 265.512 167.768 265.512 166.712V155.816H263.64ZM254.208 158.408C253.512 160.328 252.024 162.632 250.344 164.072C250.776 164.312 251.424 164.768 251.784 165.104C253.512 163.544 255.096 161.072 256.032 158.888L254.208 158.408ZM258.24 155.6V158.024C258.24 160.976 257.856 164.84 253.416 167.768C253.848 168.08 254.496 168.68 254.76 169.088C259.56 165.848 260.064 161.456 260.064 158.048V155.6H258.24ZM283.752 148.088V156.296C283.752 159.92 283.512 164.72 280.8 168.056C281.232 168.224 282 168.68 282.312 168.968C285.096 165.512 285.48 160.184 285.48 156.296V148.088H283.752ZM287.232 156.176V166.064C287.232 168.2 287.856 168.776 290.208 168.776C290.688 168.776 294.096 168.776 294.6 168.776C296.784 168.776 297.288 167.768 297.504 164.096C297.048 163.976 296.304 163.688 295.92 163.4C295.8 166.568 295.632 167.144 294.504 167.144C293.76 167.144 290.904 167.144 290.352 167.144C289.176 167.144 288.936 166.952 288.936 166.064V156.176H287.232ZM294.936 157.256C293.328 158.672 290.4 160.208 287.784 161.336C288.024 161.696 288.288 162.272 288.408 162.608C291.168 161.504 294.24 160.04 296.328 158.528L294.936 157.256ZM284.544 148.088V149.744H294.528V153.248H284.544V154.928H296.28V148.088H284.544ZM276.672 148.424C278.28 149.12 280.224 150.248 281.16 151.112L282.216 149.6C281.232 148.784 279.264 147.728 277.656 147.104L276.672 148.424ZM275.472 155.048C277.032 155.696 278.928 156.824 279.864 157.64L280.872 156.128C279.888 155.336 277.968 154.304 276.432 153.704L275.472 155.048ZM276.168 167.384L277.752 168.536C279.072 166.28 280.656 163.256 281.832 160.712L280.44 159.608C279.144 162.344 277.368 165.536 276.168 167.384ZM302.664 150.704V152.312H308.28V164.768H302.664V166.4H309.96V150.704H302.664ZM301.584 150.704V168.32H303.264V150.704H301.584ZM302.544 157.376V158.984H309.168V157.376H302.544ZM305.256 146.792C305.064 148.04 304.608 149.864 304.2 151.016L305.64 151.376C306.12 150.296 306.72 148.64 307.2 147.152L305.256 146.792ZM313.368 150.632V152.312H320.736V150.632H313.368ZM320.112 150.632V151.016C319.776 161.6 319.392 165.584 318.6 166.448C318.336 166.76 318.048 166.832 317.568 166.832C317.016 166.832 315.576 166.808 314.016 166.688C314.352 167.168 314.568 167.912 314.616 168.44C315.96 168.512 317.376 168.56 318.192 168.464C319.032 168.392 319.584 168.176 320.112 167.48C321.072 166.304 321.408 162.584 321.792 151.568C321.792 151.304 321.792 150.632 321.792 150.632H320.112ZM313.872 146.744C313.104 150.08 311.784 153.392 310.152 155.504C310.584 155.744 311.328 156.248 311.64 156.536C313.296 154.256 314.712 150.728 315.6 147.152L313.872 146.744ZM312.768 156.872C314.088 158.624 315.696 161 316.416 162.464L317.952 161.504C317.184 160.088 315.528 157.76 314.16 156.056L312.768 156.872ZM331.632 148.472V150.032H339.576V148.472H331.632ZM331.968 146.792C330.84 149.36 328.608 152.48 325.32 154.76C325.752 155.024 326.376 155.648 326.664 156.08C330.144 153.512 332.496 150.176 333.984 147.128L331.968 146.792ZM329.4 152.576V154.208H347.04V152.576H329.4ZM333.696 156.512V158.096H342.648V156.512H333.696ZM332.784 156.512V165.776C332.784 168.152 333.744 168.728 336.792 168.728C337.488 168.728 342.96 168.728 343.68 168.728C346.512 168.728 347.136 167.744 347.448 164.168C346.944 164.072 346.2 163.784 345.768 163.472C345.6 166.52 345.312 167.072 343.608 167.072C342.432 167.072 337.752 167.072 336.816 167.072C334.92 167.072 334.56 166.832 334.56 165.776V156.512H332.784ZM342.096 156.512V156.776C341.88 160.304 341.664 161.648 341.328 162.032C341.136 162.224 340.92 162.248 340.512 162.248C340.128 162.248 339.024 162.224 337.872 162.128C338.16 162.56 338.328 163.232 338.376 163.712C339.552 163.784 340.728 163.784 341.304 163.736C341.976 163.688 342.408 163.544 342.792 163.112C343.344 162.536 343.584 161.024 343.8 157.232C343.824 156.992 343.848 156.512 343.848 156.512H342.096ZM328.512 152.576V157.232C328.512 160.424 328.152 164.72 325.248 167.84C325.632 168.056 326.352 168.68 326.64 169.04C329.712 165.728 330.288 160.76 330.288 157.256V152.576H328.512ZM338.928 148.472V148.832C338.472 150.056 337.464 151.952 336.552 153.08C336.984 153.32 337.584 153.68 337.968 153.968C338.976 152.72 340.2 150.8 340.992 149.216L339.672 148.376L339.36 148.472H338.928ZM360.456 151.112V159.776H362.28V151.112H360.456ZM354.096 152.84V154.28H368.856V152.84H354.096ZM353.232 155.888V157.328H369.816V155.888H353.232ZM354.936 166.664V168.152H368.04V166.664H354.936ZM350.856 159.104V160.616H372.072V159.104H350.856ZM354.24 162.056V168.944H355.992V163.544H367.056V168.848H368.88V162.056H354.24ZM360.456 146.84V150.104H362.304V146.84H360.456ZM351.504 149.24V153.512H353.28V150.872H369.6V153.512H371.424V149.24H351.504ZM17.616 192.008C19.128 193.928 20.808 196.568 21.504 198.2L23.232 197.36C22.464 195.704 20.736 193.16 19.2 191.288L17.616 192.008ZM11.016 179.888V188.456H12.864V179.888H11.016ZM1.368 187.88V189.608H22.68V187.88H1.368ZM3.744 182.744V184.472H20.784V182.744H3.744ZM14.04 188.816V199.688C14.04 200 13.944 200.096 13.56 200.096C13.2 200.12 11.952 200.144 10.584 200.096C10.848 200.624 11.136 201.392 11.232 201.896C13.032 201.896 14.208 201.872 14.952 201.584C15.696 201.272 15.912 200.768 15.912 199.712V188.816H14.04ZM4.608 191.408C3.912 193.328 2.424 195.632 0.744 197.072C1.176 197.312 1.824 197.768 2.184 198.104C3.912 196.544 5.496 194.072 6.432 191.888L4.608 191.408ZM8.64 188.6V191.024C8.64 193.976 8.256 197.84 3.816 200.768C4.248 201.08 4.896 201.68 5.16 202.088C9.96 198.848 10.464 194.456 10.464 191.048V188.6H8.64ZM34.152 181.088V189.296C34.152 192.92 33.912 197.72 31.2 201.056C31.632 201.224 32.4 201.68 32.712 201.968C35.496 198.512 35.88 193.184 35.88 189.296V181.088H34.152ZM37.632 189.176V199.064C37.632 201.2 38.256 201.776 40.608 201.776C41.088 201.776 44.496 201.776 45 201.776C47.184 201.776 47.688 200.768 47.904 197.096C47.448 196.976 46.704 196.688 46.32 196.4C46.2 199.568 46.032 200.144 44.904 200.144C44.16 200.144 41.304 200.144 40.752 200.144C39.576 200.144 39.336 199.952 39.336 199.064V189.176H37.632ZM45.336 190.256C43.728 191.672 40.8 193.208 38.184 194.336C38.424 194.696 38.688 195.272 38.808 195.608C41.568 194.504 44.64 193.04 46.728 191.528L45.336 190.256ZM34.944 181.088V182.744H44.928V186.248H34.944V187.928H46.68V181.088H34.944ZM27.072 181.424C28.68 182.12 30.624 183.248 31.56 184.112L32.616 182.6C31.632 181.784 29.664 180.728 28.056 180.104L27.072 181.424ZM25.872 188.048C27.432 188.696 29.328 189.824 30.264 190.64L31.272 189.128C30.288 188.336 28.368 187.304 26.832 186.704L25.872 188.048ZM26.568 200.384L28.152 201.536C29.472 199.28 31.056 196.256 32.232 193.712L30.84 192.608C29.544 195.344 27.768 198.536 26.568 200.384ZM53.064 183.704V185.312H58.68V197.768H53.064V199.4H60.36V183.704H53.064ZM51.984 183.704V201.32H53.664V183.704H51.984ZM52.944 190.376V191.984H59.568V190.376H52.944ZM55.656 179.792C55.464 181.04 55.008 182.864 54.6 184.016L56.04 184.376C56.52 183.296 57.12 181.64 57.6 180.152L55.656 179.792ZM63.768 183.632V185.312H71.136V183.632H63.768ZM70.512 183.632V184.016C70.176 194.6 69.792 198.584 69 199.448C68.736 199.76 68.448 199.832 67.968 199.832C67.416 199.832 65.976 199.808 64.416 199.688C64.752 200.168 64.968 200.912 65.016 201.44C66.36 201.512 67.776 201.56 68.592 201.464C69.432 201.392 69.984 201.176 70.512 200.48C71.472 199.304 71.808 195.584 72.192 184.568C72.192 184.304 72.192 183.632 72.192 183.632H70.512ZM64.272 179.744C63.504 183.08 62.184 186.392 60.552 188.504C60.984 188.744 61.728 189.248 62.04 189.536C63.696 187.256 65.112 183.728 66 180.152L64.272 179.744ZM63.168 189.872C64.488 191.624 66.096 194 66.816 195.464L68.352 194.504C67.584 193.088 65.928 190.76 64.56 189.056L63.168 189.872ZM82.032 181.472V183.032H89.976V181.472H82.032ZM82.368 179.792C81.24 182.36 79.008 185.48 75.72 187.76C76.152 188.024 76.776 188.648 77.064 189.08C80.544 186.512 82.896 183.176 84.384 180.128L82.368 179.792ZM79.8 185.576V187.208H97.44V185.576H79.8ZM84.096 189.512V191.096H93.048V189.512H84.096ZM83.184 189.512V198.776C83.184 201.152 84.144 201.728 87.192 201.728C87.888 201.728 93.36 201.728 94.08 201.728C96.912 201.728 97.536 200.744 97.848 197.168C97.344 197.072 96.6 196.784 96.168 196.472C96 199.52 95.712 200.072 94.008 200.072C92.832 200.072 88.152 200.072 87.216 200.072C85.32 200.072 84.96 199.832 84.96 198.776V189.512H83.184ZM92.496 189.512V189.776C92.28 193.304 92.064 194.648 91.728 195.032C91.536 195.224 91.32 195.248 90.912 195.248C90.528 195.248 89.424 195.224 88.272 195.128C88.56 195.56 88.728 196.232 88.776 196.712C89.952 196.784 91.128 196.784 91.704 196.736C92.376 196.688 92.808 196.544 93.192 196.112C93.744 195.536 93.984 194.024 94.2 190.232C94.224 189.992 94.248 189.512 94.248 189.512H92.496ZM78.912 185.576V190.232C78.912 193.424 78.552 197.72 75.648 200.84C76.032 201.056 76.752 201.68 77.04 202.04C80.112 198.728 80.688 193.76 80.688 190.256V185.576H78.912ZM89.328 181.472V181.832C88.872 183.056 87.864 184.952 86.952 186.08C87.384 186.32 87.984 186.68 88.368 186.968C89.376 185.72 90.6 183.8 91.392 182.216L90.072 181.376L89.76 181.472H89.328ZM110.856 184.112V192.776H112.68V184.112H110.856ZM104.496 185.84V187.28H119.256V185.84H104.496ZM103.632 188.888V190.328H120.216V188.888H103.632ZM105.336 199.664V201.152H118.44V199.664H105.336ZM101.256 192.104V193.616H122.472V192.104H101.256ZM104.64 195.056V201.944H106.392V196.544H117.456V201.848H119.28V195.056H104.64ZM110.856 179.84V183.104H112.704V179.84H110.856ZM101.904 182.24V186.512H103.68V183.872H120V186.512H121.824V182.24H101.904ZM142.416 192.008C143.928 193.928 145.608 196.568 146.304 198.2L148.032 197.36C147.264 195.704 145.536 193.16 144 191.288L142.416 192.008ZM135.816 179.888V188.456H137.664V179.888H135.816ZM126.168 187.88V189.608H147.48V187.88H126.168ZM128.544 182.744V184.472H145.584V182.744H128.544ZM138.84 188.816V199.688C138.84 200 138.744 200.096 138.36 200.096C138 200.12 136.752 200.144 135.384 200.096C135.648 200.624 135.936 201.392 136.032 201.896C137.832 201.896 139.008 201.872 139.752 201.584C140.496 201.272 140.712 200.768 140.712 199.712V188.816H138.84ZM129.408 191.408C128.712 193.328 127.224 195.632 125.544 197.072C125.976 197.312 126.624 197.768 126.984 198.104C128.712 196.544 130.296 194.072 131.232 191.888L129.408 191.408ZM133.44 188.6V191.024C133.44 193.976 133.056 197.84 128.616 200.768C129.048 201.08 129.696 201.68 129.96 202.088C134.76 198.848 135.264 194.456 135.264 191.048V188.6H133.44ZM158.952 181.088V189.296C158.952 192.92 158.712 197.72 156 201.056C156.432 201.224 157.2 201.68 157.512 201.968C160.296 198.512 160.68 193.184 160.68 189.296V181.088H158.952ZM162.432 189.176V199.064C162.432 201.2 163.056 201.776 165.408 201.776C165.888 201.776 169.296 201.776 169.8 201.776C171.984 201.776 172.488 200.768 172.704 197.096C172.248 196.976 171.504 196.688 171.12 196.4C171 199.568 170.832 200.144 169.704 200.144C168.96 200.144 166.104 200.144 165.552 200.144C164.376 200.144 164.136 199.952 164.136 199.064V189.176H162.432ZM170.136 190.256C168.528 191.672 165.6 193.208 162.984 194.336C163.224 194.696 163.488 195.272 163.608 195.608C166.368 194.504 169.44 193.04 171.528 191.528L170.136 190.256ZM159.744 181.088V182.744H169.728V186.248H159.744V187.928H171.48V181.088H159.744ZM151.872 181.424C153.48 182.12 155.424 183.248 156.36 184.112L157.416 182.6C156.432 181.784 154.464 180.728 152.856 180.104L151.872 181.424ZM150.672 188.048C152.232 188.696 154.128 189.824 155.064 190.64L156.072 189.128C155.088 188.336 153.168 187.304 151.632 186.704L150.672 188.048ZM151.368 200.384L152.952 201.536C154.272 199.28 155.856 196.256 157.032 193.712L155.64 192.608C154.344 195.344 152.568 198.536 151.368 200.384ZM177.864 183.704V185.312H183.48V197.768H177.864V199.4H185.16V183.704H177.864ZM176.784 183.704V201.32H178.464V183.704H176.784ZM177.744 190.376V191.984H184.368V190.376H177.744ZM180.456 179.792C180.264 181.04 179.808 182.864 179.4 184.016L180.84 184.376C181.32 183.296 181.92 181.64 182.4 180.152L180.456 179.792ZM188.568 183.632V185.312H195.936V183.632H188.568ZM195.312 183.632V184.016C194.976 194.6 194.592 198.584 193.8 199.448C193.536 199.76 193.248 199.832 192.768 199.832C192.216 199.832 190.776 199.808 189.216 199.688C189.552 200.168 189.768 200.912 189.816 201.44C191.16 201.512 192.576 201.56 193.392 201.464C194.232 201.392 194.784 201.176 195.312 200.48C196.272 199.304 196.608 195.584 196.992 184.568C196.992 184.304 196.992 183.632 196.992 183.632H195.312ZM189.072 179.744C188.304 183.08 186.984 186.392 185.352 188.504C185.784 188.744 186.528 189.248 186.84 189.536C188.496 187.256 189.912 183.728 190.8 180.152L189.072 179.744ZM187.968 189.872C189.288 191.624 190.896 194 191.616 195.464L193.152 194.504C192.384 193.088 190.728 190.76 189.36 189.056L187.968 189.872ZM206.832 181.472V183.032H214.776V181.472H206.832ZM207.168 179.792C206.04 182.36 203.808 185.48 200.52 187.76C200.952 188.024 201.576 188.648 201.864 189.08C205.344 186.512 207.696 183.176 209.184 180.128L207.168 179.792ZM204.6 185.576V187.208H222.24V185.576H204.6ZM208.896 189.512V191.096H217.848V189.512H208.896ZM207.984 189.512V198.776C207.984 201.152 208.944 201.728 211.992 201.728C212.688 201.728 218.16 201.728 218.88 201.728C221.712 201.728 222.336 200.744 222.648 197.168C222.144 197.072 221.4 196.784 220.968 196.472C220.8 199.52 220.512 200.072 218.808 200.072C217.632 200.072 212.952 200.072 212.016 200.072C210.12 200.072 209.76 199.832 209.76 198.776V189.512H207.984ZM217.296 189.512V189.776C217.08 193.304 216.864 194.648 216.528 195.032C216.336 195.224 216.12 195.248 215.712 195.248C215.328 195.248 214.224 195.224 213.072 195.128C213.36 195.56 213.528 196.232 213.576 196.712C214.752 196.784 215.928 196.784 216.504 196.736C217.176 196.688 217.608 196.544 217.992 196.112C218.544 195.536 218.784 194.024 219 190.232C219.024 189.992 219.048 189.512 219.048 189.512H217.296ZM203.712 185.576V190.232C203.712 193.424 203.352 197.72 200.448 200.84C200.832 201.056 201.552 201.68 201.84 202.04C204.912 198.728 205.488 193.76 205.488 190.256V185.576H203.712ZM214.128 181.472V181.832C213.672 183.056 212.664 184.952 211.752 186.08C212.184 186.32 212.784 186.68 213.168 186.968C214.176 185.72 215.4 183.8 216.192 182.216L214.872 181.376L214.56 181.472H214.128ZM235.656 184.112V192.776H237.48V184.112H235.656ZM229.296 185.84V187.28H244.056V185.84H229.296ZM228.432 188.888V190.328H245.016V188.888H228.432ZM230.136 199.664V201.152H243.24V199.664H230.136ZM226.056 192.104V193.616H247.272V192.104H226.056ZM229.44 195.056V201.944H231.192V196.544H242.256V201.848H244.08V195.056H229.44ZM235.656 179.84V183.104H237.504V179.84H235.656ZM226.704 182.24V186.512H228.48V183.872H244.8V186.512H246.624V182.24H226.704ZM267.216 192.008C268.728 193.928 270.408 196.568 271.104 198.2L272.832 197.36C272.064 195.704 270.336 193.16 268.8 191.288L267.216 192.008ZM260.616 179.888V188.456H262.464V179.888H260.616ZM250.968 187.88V189.608H272.28V187.88H250.968ZM253.344 182.744V184.472H270.384V182.744H253.344ZM263.64 188.816V199.688C263.64 200 263.544 200.096 263.16 200.096C262.8 200.12 261.552 200.144 260.184 200.096C260.448 200.624 260.736 201.392 260.832 201.896C262.632 201.896 263.808 201.872 264.552 201.584C265.296 201.272 265.512 200.768 265.512 199.712V188.816H263.64ZM254.208 191.408C253.512 193.328 252.024 195.632 250.344 197.072C250.776 197.312 251.424 197.768 251.784 198.104C253.512 196.544 255.096 194.072 256.032 191.888L254.208 191.408ZM258.24 188.6V191.024C258.24 193.976 257.856 197.84 253.416 200.768C253.848 201.08 254.496 201.68 254.76 202.088C259.56 198.848 260.064 194.456 260.064 191.048V188.6H258.24ZM283.752 181.088V189.296C283.752 192.92 283.512 197.72 280.8 201.056C281.232 201.224 282 201.68 282.312 201.968C285.096 198.512 285.48 193.184 285.48 189.296V181.088H283.752ZM287.232 189.176V199.064C287.232 201.2 287.856 201.776 290.208 201.776C290.688 201.776 294.096 201.776 294.6 201.776C296.784 201.776 297.288 200.768 297.504 197.096C297.048 196.976 296.304 196.688 295.92 196.4C295.8 199.568 295.632 200.144 294.504 200.144C293.76 200.144 290.904 200.144 290.352 200.144C289.176 200.144 288.936 199.952 288.936 199.064V189.176H287.232ZM294.936 190.256C293.328 191.672 290.4 193.208 287.784 194.336C288.024 194.696 288.288 195.272 288.408 195.608C291.168 194.504 294.24 193.04 296.328 191.528L294.936 190.256ZM284.544 181.088V182.744H294.528V186.248H284.544V187.928H296.28V181.088H284.544ZM276.672 181.424C278.28 182.12 280.224 183.248 281.16 184.112L282.216 182.6C281.232 181.784 279.264 180.728 277.656 180.104L276.672 181.424ZM275.472 188.048C277.032 188.696 278.928 189.824 279.864 190.64L280.872 189.128C279.888 188.336 277.968 187.304 276.432 186.704L275.472 188.048ZM276.168 200.384L277.752 201.536C279.072 199.28 280.656 196.256 281.832 193.712L280.44 192.608C279.144 195.344 277.368 198.536 276.168 200.384ZM302.664 183.704V185.312H308.28V197.768H302.664V199.4H309.96V183.704H302.664ZM301.584 183.704V201.32H303.264V183.704H301.584ZM302.544 190.376V191.984H309.168V190.376H302.544ZM305.256 179.792C305.064 181.04 304.608 182.864 304.2 184.016L305.64 184.376C306.12 183.296 306.72 181.64 307.2 180.152L305.256 179.792ZM313.368 183.632V185.312H320.736V183.632H313.368ZM320.112 183.632V184.016C319.776 194.6 319.392 198.584 318.6 199.448C318.336 199.76 318.048 199.832 317.568 199.832C317.016 199.832 315.576 199.808 314.016 199.688C314.352 200.168 314.568 200.912 314.616 201.44C315.96 201.512 317.376 201.56 318.192 201.464C319.032 201.392 319.584 201.176 320.112 200.48C321.072 199.304 321.408 195.584 321.792 184.568C321.792 184.304 321.792 183.632 321.792 183.632H320.112ZM313.872 179.744C313.104 183.08 311.784 186.392 310.152 188.504C310.584 188.744 311.328 189.248 311.64 189.536C313.296 187.256 314.712 183.728 315.6 180.152L313.872 179.744ZM312.768 189.872C314.088 191.624 315.696 194 316.416 195.464L317.952 194.504C317.184 193.088 315.528 190.76 314.16 189.056L312.768 189.872ZM331.632 181.472V183.032H339.576V181.472H331.632ZM331.968 179.792C330.84 182.36 328.608 185.48 325.32 187.76C325.752 188.024 326.376 188.648 326.664 189.08C330.144 186.512 332.496 183.176 333.984 180.128L331.968 179.792ZM329.4 185.576V187.208H347.04V185.576H329.4ZM333.696 189.512V191.096H342.648V189.512H333.696ZM332.784 189.512V198.776C332.784 201.152 333.744 201.728 336.792 201.728C337.488 201.728 342.96 201.728 343.68 201.728C346.512 201.728 347.136 200.744 347.448 197.168C346.944 197.072 346.2 196.784 345.768 196.472C345.6 199.52 345.312 200.072 343.608 200.072C342.432 200.072 337.752 200.072 336.816 200.072C334.92 200.072 334.56 199.832 334.56 198.776V189.512H332.784ZM342.096 189.512V189.776C341.88 193.304 341.664 194.648 341.328 195.032C341.136 195.224 340.92 195.248 340.512 195.248C340.128 195.248 339.024 195.224 337.872 195.128C338.16 195.56 338.328 196.232 338.376 196.712C339.552 196.784 340.728 196.784 341.304 196.736C341.976 196.688 342.408 196.544 342.792 196.112C343.344 195.536 343.584 194.024 343.8 190.232C343.824 189.992 343.848 189.512 343.848 189.512H342.096ZM328.512 185.576V190.232C328.512 193.424 328.152 197.72 325.248 200.84C325.632 201.056 326.352 201.68 326.64 202.04C329.712 198.728 330.288 193.76 330.288 190.256V185.576H328.512ZM338.928 181.472V181.832C338.472 183.056 337.464 184.952 336.552 186.08C336.984 186.32 337.584 186.68 337.968 186.968C338.976 185.72 340.2 183.8 340.992 182.216L339.672 181.376L339.36 181.472H338.928ZM360.456 184.112V192.776H362.28V184.112H360.456ZM354.096 185.84V187.28H368.856V185.84H354.096ZM353.232 188.888V190.328H369.816V188.888H353.232ZM354.936 199.664V201.152H368.04V199.664H354.936ZM350.856 192.104V193.616H372.072V192.104H350.856ZM354.24 195.056V201.944H355.992V196.544H367.056V201.848H368.88V195.056H354.24ZM360.456 179.84V183.104H362.304V179.84H360.456ZM351.504 182.24V186.512H353.28V183.872H369.6V186.512H371.424V182.24H351.504ZM17.616 225.008C19.128 226.928 20.808 229.568 21.504 231.2L23.232 230.36C22.464 228.704 20.736 226.16 19.2 224.288L17.616 225.008ZM11.016 212.888V221.456H12.864V212.888H11.016ZM1.368 220.88V222.608H22.68V220.88H1.368ZM3.744 215.744V217.472H20.784V215.744H3.744ZM14.04 221.816V232.688C14.04 233 13.944 233.096 13.56 233.096C13.2 233.12 11.952 233.144 10.584 233.096C10.848 233.624 11.136 234.392 11.232 234.896C13.032 234.896 14.208 234.872 14.952 234.584C15.696 234.272 15.912 233.768 15.912 232.712V221.816H14.04ZM4.608 224.408C3.912 226.328 2.424 228.632 0.744 230.072C1.176 230.312 1.824 230.768 2.184 231.104C3.912 229.544 5.496 227.072 6.432 224.888L4.608 224.408ZM8.64 221.6V224.024C8.64 226.976 8.256 230.84 3.816 233.768C4.248 234.08 4.896 234.68 5.16 235.088C9.96 231.848 10.464 227.456 10.464 224.048V221.6H8.64ZM34.152 214.088V222.296C34.152 225.92 33.912 230.72 31.2 234.056C31.632 234.224 32.4 234.68 32.712 234.968C35.496 231.512 35.88 226.184 35.88 222.296V214.088H34.152ZM37.632 222.176V232.064C37.632 234.2 38.256 234.776 40.608 234.776C41.088 234.776 44.496 234.776 45 234.776C47.184 234.776 47.688 233.768 47.904 230.096C47.448 229.976 46.704 229.688 46.32 229.4C46.2 232.568 46.032 233.144 44.904 233.144C44.16 233.144 41.304 233.144 40.752 233.144C39.576 233.144 39.336 232.952 39.336 232.064V222.176H37.632ZM45.336 223.256C43.728 224.672 40.8 226.208 38.184 227.336C38.424 227.696 38.688 228.272 38.808 228.608C41.568 227.504 44.64 226.04 46.728 224.528L45.336 223.256ZM34.944 214.088V215.744H44.928V219.248H34.944V220.928H46.68V214.088H34.944ZM27.072 214.424C28.68 215.12 30.624 216.248 31.56 217.112L32.616 215.6C31.632 214.784 29.664 213.728 28.056 213.104L27.072 214.424ZM25.872 221.048C27.432 221.696 29.328 222.824 30.264 223.64L31.272 222.128C30.288 221.336 28.368 220.304 26.832 219.704L25.872 221.048ZM26.568 233.384L28.152 234.536C29.472 232.28 31.056 229.256 32.232 226.712L30.84 225.608C29.544 228.344 27.768 231.536 26.568 233.384ZM53.064 216.704V218.312H58.68V230.768H53.064V232.4H60.36V216.704H53.064ZM51.984 216.704V234.32H53.664V216.704H51.984ZM52.944 223.376V224.984H59.568V223.376H52.944ZM55.656 212.792C55.464 214.04 55.008 215.864 54.6 217.016L56.04 217.376C56.52 216.296 57.12 214.64 57.6 213.152L55.656 212.792ZM63.768 216.632V218.312H71.136V216.632H63.768ZM70.512 216.632V217.016C70.176 227.6 69.792 231.584 69 232.448C68.736 232.76 68.448 232.832 67.968 232.832C67.416 232.832 65.976 232.808 64.416 232.688C64.752 233.168 64.968 233.912 65.016 234.44C66.36 234.512 67.776 234.56 68.592 234.464C69.432 234.392 69.984 234.176 70.512 233.48C71.472 232.304 71.808 228.584 72.192 217.568C72.192 217.304 72.192 216.632 72.192 216.632H70.512ZM64.272 212.744C63.504 216.08 62.184 219.392 60.552 221.504C60.984 221.744 61.728 222.248 62.04 222.536C63.696 220.256 65.112 216.728 66 213.152L64.272 212.744ZM63.168 222.872C64.488 224.624 66.096 227 66.816 228.464L68.352 227.504C67.584 226.088 65.928 223.76 64.56 222.056L63.168 222.872ZM82.032 214.472V216.032H89.976V214.472H82.032ZM82.368 212.792C81.24 215.36 79.008 218.48 75.72 220.76C76.152 221.024 76.776 221.648 77.064 222.08C80.544 219.512 82.896 216.176 84.384 213.128L82.368 212.792ZM79.8 218.576V220.208H97.44V218.576H79.8ZM84.096 222.512V224.096H93.048V222.512H84.096ZM83.184 222.512V231.776C83.184 234.152 84.144 234.728 87.192 234.728C87.888 234.728 93.36 234.728 94.08 234.728C96.912 234.728 97.536 233.744 97.848 230.168C97.344 230.072 96.6 229.784 96.168 229.472C96 232.52 95.712 233.072 94.008 233.072C92.832 233.072 88.152 233.072 87.216 233.072C85.32 233.072 84.96 232.832 84.96 231.776V222.512H83.184ZM92.496 222.512V222.776C92.28 226.304 92.064 227.648 91.728 228.032C91.536 228.224 91.32 228.248 90.912 228.248C90.528 228.248 89.424 228.224 88.272 228.128C88.56 228.56 88.728 229.232 88.776 229.712C89.952 229.784 91.128 229.784 91.704 229.736C92.376 229.688 92.808 229.544 93.192 229.112C93.744 228.536 93.984 227.024 94.2 223.232C94.224 222.992 94.248 222.512 94.248 222.512H92.496ZM78.912 218.576V223.232C78.912 226.424 78.552 230.72 75.648 233.84C76.032 234.056 76.752 234.68 77.04 235.04C80.112 231.728 80.688 226.76 80.688 223.256V218.576H78.912ZM89.328 214.472V214.832C88.872 216.056 87.864 217.952 86.952 219.08C87.384 219.32 87.984 219.68 88.368 219.968C89.376 218.72 90.6 216.8 91.392 215.216L90.072 214.376L89.76 214.472H89.328ZM110.856 217.112V225.776H112.68V217.112H110.856ZM104.496 218.84V220.28H119.256V218.84H104.496ZM103.632 221.888V223.328H120.216V221.888H103.632ZM105.336 232.664V234.152H118.44V232.664H105.336ZM101.256 225.104V226.616H122.472V225.104H101.256ZM104.64 228.056V234.944H106.392V229.544H117.456V234.848H119.28V228.056H104.64ZM110.856 212.84V216.104H112.704V212.84H110.856ZM101.904 215.24V219.512H103.68V216.872H120V219.512H121.824V215.24H101.904Z" fill="black"/>
</svg>
