<svg width="527" height="501" viewBox="0 0 527 501" fill="none" xmlns="http://www.w3.org/2000/svg">
<path d="M38.168 32.684C41.444 36.844 45.084 42.564 46.592 46.1L50.336 44.28C48.672 40.692 44.928 35.18 41.6 31.124L38.168 32.684ZM23.868 6.424V24.988H27.872V6.424H23.868ZM2.964 23.74V27.484H49.14V23.74H2.964ZM8.112 12.612V16.356H45.032V12.612H8.112ZM30.42 25.768V49.324C30.42 50 30.212 50.208 29.38 50.208C28.6 50.26 25.896 50.312 22.932 50.208C23.504 51.352 24.128 53.016 24.336 54.108C28.236 54.108 30.784 54.056 32.396 53.432C34.008 52.756 34.476 51.664 34.476 49.376V25.768H30.42ZM9.984 31.384C8.476 35.544 5.252 40.536 1.612 43.656C2.548 44.176 3.952 45.164 4.732 45.892C8.476 42.512 11.908 37.156 13.936 32.424L9.984 31.384ZM18.72 25.3V30.552C18.72 36.948 17.888 45.32 8.268 51.664C9.204 52.34 10.608 53.64 11.18 54.524C21.58 47.504 22.672 37.988 22.672 30.604V25.3H18.72ZM73.996 9.024V26.808C73.996 34.66 73.476 45.06 67.6 52.288C68.536 52.652 70.2 53.64 70.876 54.264C76.908 46.776 77.74 35.232 77.74 26.808V9.024H73.996ZM81.536 26.548V47.972C81.536 52.6 82.888 53.848 87.984 53.848C89.024 53.848 96.408 53.848 97.5 53.848C102.232 53.848 103.324 51.664 103.792 43.708C102.804 43.448 101.192 42.824 100.36 42.2C100.1 49.064 99.736 50.312 97.292 50.312C95.68 50.312 89.492 50.312 88.296 50.312C85.748 50.312 85.228 49.896 85.228 47.972V26.548H81.536ZM98.228 28.888C94.744 31.956 88.4 35.284 82.732 37.728C83.252 38.508 83.824 39.756 84.084 40.484C90.064 38.092 96.72 34.92 101.244 31.644L98.228 28.888ZM75.712 9.024V12.612H97.344V20.204H75.712V23.844H101.14V9.024H75.712ZM58.656 9.752C62.14 11.26 66.352 13.704 68.38 15.576L70.668 12.3C68.536 10.532 64.272 8.244 60.788 6.892L58.656 9.752ZM56.056 24.104C59.436 25.508 63.544 27.952 65.572 29.72L67.756 26.444C65.624 24.728 61.464 22.492 58.136 21.192L56.056 24.104ZM57.564 50.832L60.996 53.328C63.856 48.44 67.288 41.888 69.836 36.376L66.82 33.984C64.012 39.912 60.164 46.828 57.564 50.832ZM114.972 14.692V18.176H127.14V45.164H114.972V48.7H130.78V14.692H114.972ZM112.632 14.692V52.86H116.272V14.692H112.632ZM114.712 29.148V32.632H129.064V29.148H114.712ZM120.588 6.216C120.172 8.92 119.184 12.872 118.3 15.368L121.42 16.148C122.46 13.808 123.76 10.22 124.8 6.996L120.588 6.216ZM138.164 14.536V18.176H154.128V14.536H138.164ZM152.776 14.536V15.368C152.048 38.3 151.216 46.932 149.5 48.804C148.928 49.48 148.304 49.636 147.264 49.636C146.068 49.636 142.948 49.584 139.568 49.324C140.296 50.364 140.764 51.976 140.868 53.12C143.78 53.276 146.848 53.38 148.616 53.172C150.436 53.016 151.632 52.548 152.776 51.04C154.856 48.492 155.584 40.432 156.416 16.564C156.416 15.992 156.416 14.536 156.416 14.536H152.776ZM139.256 6.112C137.592 13.34 134.732 20.516 131.196 25.092C132.132 25.612 133.744 26.704 134.42 27.328C138.008 22.388 141.076 14.744 143 6.996L139.256 6.112ZM136.864 28.056C139.724 31.852 143.208 37 144.768 40.172L148.096 38.092C146.432 35.024 142.844 29.98 139.88 26.288L136.864 28.056ZM177.736 9.856V13.236H194.948V9.856H177.736ZM178.464 6.216C176.02 11.78 171.184 18.54 164.06 23.48C164.996 24.052 166.348 25.404 166.972 26.34C174.512 20.776 179.608 13.548 182.832 6.944L178.464 6.216ZM172.9 18.748V22.284H211.12V18.748H172.9ZM182.208 27.276V30.708H201.604V27.276H182.208ZM180.232 27.276V47.348C180.232 52.496 182.312 53.744 188.916 53.744C190.424 53.744 202.28 53.744 203.84 53.744C209.976 53.744 211.328 51.612 212.004 43.864C210.912 43.656 209.3 43.032 208.364 42.356C208 48.96 207.376 50.156 203.684 50.156C201.136 50.156 190.996 50.156 188.968 50.156C184.86 50.156 184.08 49.636 184.08 47.348V27.276H180.232ZM200.408 27.276V27.848C199.94 35.492 199.472 38.404 198.744 39.236C198.328 39.652 197.86 39.704 196.976 39.704C196.144 39.704 193.752 39.652 191.256 39.444C191.88 40.38 192.244 41.836 192.348 42.876C194.896 43.032 197.444 43.032 198.692 42.928C200.148 42.824 201.084 42.512 201.916 41.576C203.112 40.328 203.632 37.052 204.1 28.836C204.152 28.316 204.204 27.276 204.204 27.276H200.408ZM170.976 18.748V28.836C170.976 35.752 170.196 45.06 163.904 51.82C164.736 52.288 166.296 53.64 166.92 54.42C173.576 47.244 174.824 36.48 174.824 28.888V18.748H170.976ZM193.544 9.856V10.636C192.556 13.288 190.372 17.396 188.396 19.84C189.332 20.36 190.632 21.14 191.464 21.764C193.648 19.06 196.3 14.9 198.016 11.468L195.156 9.648L194.48 9.856H193.544ZM240.188 15.576V34.348H244.14V15.576H240.188ZM226.408 19.32V22.44H258.388V19.32H226.408ZM224.536 25.924V29.044H260.468V25.924H224.536ZM228.228 49.272V52.496H256.62V49.272H228.228ZM219.388 32.892V36.168H265.356V32.892H219.388ZM226.72 39.288V54.212H230.516V42.512H254.488V54.004H258.44V39.288H226.72ZM240.188 6.32V13.392H244.192V6.32H240.188ZM220.792 11.52V20.776H224.64V15.056H260V20.776H263.952V11.52H220.792Z" fill="black"/>
<path d="M9.44 112.959V116.159H19.904V112.959H9.44ZM9.28 110.879C7.808 114.367 4.992 118.335 0.64 121.279C1.536 121.855 2.848 123.231 3.456 124.159C8.224 120.575 11.36 116.159 13.536 111.615L9.28 110.879ZM6.976 118.527V121.983H30.304V118.527H6.976ZM13.024 124.191V127.487H23.808V124.191H13.024ZM11.168 124.191V135.743C11.168 139.807 12.64 140.863 17.408 140.863C18.464 140.863 23.968 140.863 25.088 140.863C29.376 140.863 30.528 139.423 31.072 134.207C30.016 133.983 28.416 133.375 27.52 132.799C27.296 136.735 26.944 137.407 24.832 137.407C23.52 137.407 18.784 137.407 17.664 137.407C15.328 137.407 14.912 137.151 14.912 135.679V124.191H11.168ZM22.72 124.191V124.671C22.528 128.799 22.304 130.431 21.888 130.879C21.632 131.167 21.344 131.199 20.864 131.199C20.352 131.199 19.168 131.167 17.92 131.039C18.464 131.967 18.848 133.343 18.912 134.367C20.448 134.431 21.952 134.399 22.784 134.303C23.712 134.175 24.448 133.919 25.088 133.215C25.824 132.351 26.144 130.207 26.4 125.535C26.432 125.087 26.464 124.191 26.464 124.191H22.72ZM5.024 118.527V124.543C5.024 128.735 4.64 134.527 0.736 138.559C1.536 139.007 3.104 140.383 3.712 141.119C8 136.671 8.832 129.471 8.832 124.607V118.527H5.024ZM18.592 112.959V113.727C18.016 115.263 16.672 117.951 15.424 119.615C16.288 120.095 17.6 120.927 18.4 121.535C19.936 119.679 21.824 116.767 22.976 114.591L20.16 112.767L19.52 112.959H18.592ZM47.232 117.215V128.735H51.104V117.215H47.232ZM39.424 118.879V121.791H59.264V118.879H39.424ZM38.08 123.103V125.951H60.8V123.103H38.08ZM40.768 137.183V140.191H57.792V137.183H40.768ZM35.04 127.359V130.463H63.68V127.359H35.04ZM39.424 131.711V141.055H43.136V134.719H55.648V141.023H59.52V131.711H39.424ZM47.2 111.007V115.615H51.168V111.007H47.2ZM35.744 113.727V120.351H39.488V117.087H58.976V120.351H62.88V113.727H35.744ZM68.064 122.047V125.599H77.088V122.047H68.064ZM67.616 112.895V116.383H77.792V112.895H67.616ZM67.296 134.111L68.192 137.695C71.04 136.767 74.656 135.615 77.984 134.463L77.408 131.071C73.76 132.223 69.92 133.439 67.296 134.111ZM70.976 115.007V134.079L74.528 133.151V115.007H70.976ZM78.976 112.735V116.415H97.152V112.735H78.976ZM86.912 114.783C84.992 120.607 81.568 126.111 77.6 129.439C78.464 130.143 79.968 131.711 80.608 132.479C84.672 128.607 88.48 122.335 90.784 115.839L86.912 114.783ZM88.16 123.167C90.368 125.887 93.12 129.599 94.272 131.935L97.44 129.567C96.16 127.263 93.28 123.711 91.104 121.119L88.16 123.167ZM85.28 120.767V141.023H89.088V119.359L85.28 120.767ZM111.776 113.023V115.999H130.144V113.023H111.776ZM111.072 118.463V121.567H130.72V118.463H111.072ZM118.752 111.103V115.039H122.528V111.103H118.752ZM123.584 115.423C123.36 116.287 122.88 117.535 122.464 118.399L125.792 119.071C126.208 118.335 126.72 117.311 127.328 116.127L123.584 115.423ZM114.528 116.223C114.944 117.151 115.392 118.367 115.488 119.167L118.976 118.335C118.784 117.535 118.336 116.351 117.824 115.551L114.528 116.223ZM116.448 128.991H125.472V130.623H116.448V128.991ZM116.448 125.183H125.472V126.783H116.448V125.183ZM112.864 122.815V132.991H129.216V122.815H112.864ZM121.664 132.255V136.799C121.664 139.839 122.304 140.895 125.312 140.895C125.888 140.895 127.232 140.895 127.84 140.895C130.08 140.895 130.976 139.967 131.328 136.223C130.368 136.031 128.832 135.423 128.16 134.879C128.064 137.311 127.936 137.663 127.424 137.663C127.104 137.663 126.176 137.663 125.952 137.663C125.408 137.663 125.312 137.535 125.312 136.735V132.255H121.664ZM115.808 132.127C115.296 134.975 114.176 136.831 108.576 137.919C109.312 138.655 110.304 140.223 110.656 141.151C117.28 139.455 118.912 136.447 119.552 132.127H115.808ZM101.248 118.623V122.239H110.912V118.623H101.248ZM104.448 111.455V132.703H108V111.455H104.448ZM100.544 132.383L101.856 136.223C104.768 134.879 108.448 133.215 111.84 131.583L110.976 128.159C107.2 129.791 103.168 131.487 100.544 132.383ZM149.12 120.799C150.4 120.799 151.52 119.839 151.52 118.399C151.52 116.927 150.4 115.967 149.12 115.967C147.808 115.967 146.688 116.927 146.688 118.399C146.688 119.839 147.808 120.799 149.12 120.799ZM149.12 136.447C150.4 136.447 151.52 135.519 151.52 134.047C151.52 132.575 150.4 131.647 149.12 131.647C147.808 131.647 146.688 132.575 146.688 134.047C146.688 135.519 147.808 136.447 149.12 136.447ZM23.488 172.519C25.504 175.079 27.744 178.599 28.672 180.775L30.976 179.655C29.952 177.447 27.648 174.055 25.6 171.559L23.488 172.519ZM14.688 156.359V167.783H17.152V156.359H14.688ZM1.824 167.015V169.319H30.24V167.015H1.824ZM4.992 160.167V162.471H27.712V160.167H4.992ZM18.72 168.263V182.759C18.72 183.175 18.592 183.303 18.08 183.303C17.6 183.335 15.936 183.367 14.112 183.303C14.464 184.007 14.848 185.031 14.976 185.703C17.376 185.703 18.944 185.671 19.936 185.287C20.928 184.871 21.216 184.199 21.216 182.791V168.263H18.72ZM6.144 171.719C5.216 174.279 3.232 177.351 0.992 179.271C1.568 179.591 2.432 180.199 2.912 180.647C5.216 178.567 7.328 175.271 8.576 172.359L6.144 171.719ZM11.52 167.975V171.207C11.52 175.143 11.008 180.295 5.088 184.199C5.664 184.615 6.528 185.415 6.88 185.959C13.28 181.639 13.952 175.783 13.952 171.239V167.975H11.52ZM45.536 157.959V168.903C45.536 173.735 45.216 180.135 41.6 184.583C42.176 184.807 43.2 185.415 43.616 185.799C47.328 181.191 47.84 174.087 47.84 168.903V157.959H45.536ZM50.176 168.743V181.927C50.176 184.775 51.008 185.543 54.144 185.543C54.784 185.543 59.328 185.543 60 185.543C62.912 185.543 63.584 184.199 63.872 179.303C63.264 179.143 62.272 178.759 61.76 178.375C61.6 182.599 61.376 183.367 59.872 183.367C58.88 183.367 55.072 183.367 54.336 183.367C52.768 183.367 52.448 183.111 52.448 181.927V168.743H50.176ZM60.448 170.183C58.304 172.071 54.4 174.119 50.912 175.623C51.232 176.103 51.584 176.871 51.744 177.319C55.424 175.847 59.52 173.895 62.304 171.879L60.448 170.183ZM46.592 157.959V160.167H59.904V164.839H46.592V167.079H62.24V157.959H46.592ZM36.096 158.407C38.24 159.335 40.832 160.839 42.08 161.991L43.488 159.975C42.176 158.887 39.552 157.479 37.408 156.647L36.096 158.407ZM34.496 167.239C36.576 168.103 39.104 169.607 40.352 170.695L41.696 168.679C40.384 167.623 37.824 166.247 35.776 165.447L34.496 167.239ZM35.424 183.687L37.536 185.223C39.296 182.215 41.408 178.183 42.976 174.791L41.12 173.319C39.392 176.967 37.024 181.223 35.424 183.687ZM69.888 158.087V160.231H95.52V158.087H69.888ZM70.976 168.615V170.759H96.512V168.615H70.976ZM77.984 158.823V169.511H80.32V158.823H77.984ZM84.672 158.791V169.543H87.04V158.791H84.672ZM71.232 161.927C72.448 163.783 73.568 166.279 73.984 167.911L76.128 167.143C75.712 165.479 74.56 163.015 73.248 161.223L71.232 161.927ZM91.584 161.127C90.848 162.983 89.536 165.639 88.448 167.271L90.4 167.975C91.52 166.439 92.928 164.007 94.048 161.927L91.584 161.127ZM70.176 168.615V173.863C70.176 176.903 69.856 181.063 67.456 184.103C67.936 184.391 68.928 185.287 69.312 185.767C72 182.375 72.544 177.383 72.544 173.863V168.615H70.176ZM101.504 182.759V184.743H130.208V182.759H101.504ZM101.664 161.991V163.975H130.016V161.991H101.664ZM103.872 178.087V180.007H128.16V178.087H103.872ZM114.496 158.759V183.719H116.896V158.759H114.496ZM125.632 156.487C120.576 157.415 111.52 157.991 104.064 158.183C104.288 158.695 104.576 159.527 104.576 160.103C112.064 159.943 121.184 159.399 126.912 158.343L125.632 156.487ZM107.232 171.655H124.544V174.119H107.232V171.655ZM107.232 167.623H124.544V170.055H107.232V167.623ZM104.896 165.895V175.847H126.976V165.895H104.896ZM134.56 168.007V169.927H152.8V168.007H134.56ZM142.624 165.735V169.063H144.832V165.735H142.624ZM139.136 173.511H148.512V176.487H139.136V173.511ZM137.024 171.815V178.183H150.72V171.815H137.024ZM138.912 162.503H148.704V164.487H138.912V162.503ZM138.912 159.047H148.704V161.031H138.912V159.047ZM136.736 157.511V166.023H150.944V157.511H136.736ZM142.624 176.999V183.431C142.624 183.751 142.528 183.847 142.144 183.847C141.728 183.879 140.544 183.879 139.072 183.815C139.424 184.391 139.84 185.159 139.968 185.735C141.76 185.735 142.944 185.735 143.776 185.415C144.608 185.095 144.832 184.551 144.832 183.463V176.999H142.624ZM137.984 178.983C137.216 180.711 135.872 182.407 134.432 183.591C134.944 183.911 135.808 184.487 136.192 184.839C137.632 183.527 139.136 181.511 140.064 179.527L137.984 178.983ZM146.848 179.943C148.096 181.319 149.536 183.207 150.208 184.391L152.096 183.367C151.392 182.183 149.92 180.359 148.672 179.015L146.848 179.943ZM160.192 156.871C158.4 159.335 155.104 161.959 152.32 163.431C152.896 163.879 153.632 164.615 154.048 165.127C156.992 163.399 160.32 160.615 162.464 157.799L160.192 156.871ZM161.056 165.735C159.072 168.327 155.488 171.079 152.448 172.647C153.056 173.095 153.792 173.831 154.208 174.343C157.376 172.519 160.992 169.639 163.296 166.663L161.056 165.735ZM161.888 174.791C159.712 178.567 155.52 181.895 151.168 183.783C151.776 184.295 152.48 185.127 152.864 185.703C157.504 183.527 161.728 179.911 164.224 175.623L161.888 174.791ZM169.952 159.367V161.575H174.72V175.015H169.952V177.255H176.736V159.367H169.952ZM168.768 159.367V180.327H170.912V159.367H168.768ZM193.952 161.671V182.919C193.952 183.303 193.824 183.431 193.408 183.463C192.992 183.463 191.648 183.495 190.272 183.399C190.56 184.039 190.88 185.031 191.008 185.639C192.992 185.671 194.336 185.607 195.168 185.223C196 184.839 196.256 184.167 196.256 182.919V161.671H193.952ZM179.136 161.671V185.543H181.44V163.815H195.136V161.671H179.136ZM184.064 167.431V179.943H185.792V167.431H184.064ZM185.024 167.431V169.223H189.6V176.327H185.024V178.119H191.296V167.431H185.024ZM186.432 156.231C185.952 158.151 185.056 160.839 184.256 162.535L186.4 163.111C187.264 161.543 188.32 158.983 189.184 156.807L186.432 156.231ZM206.336 162.535V164.871H228.512V162.535H206.336ZM204.928 171.911V174.215H227.36V171.911H204.928ZM201.44 182.375V184.711H230.016V182.375H201.44ZM214.496 156.327V183.559H216.96V156.327H214.496ZM207.296 156.839C206.08 161.415 204 165.863 201.376 168.711C201.984 169.031 203.072 169.735 203.552 170.151C206.112 167.079 208.352 162.343 209.76 157.383L207.296 156.839ZM234.752 160.807V163.047H263.264V160.807H234.752ZM247.84 156.199C247.136 163.207 245.728 169.735 234.4 172.551C234.88 173.063 235.488 174.023 235.744 174.567C247.616 171.367 249.504 164.167 250.368 156.199H247.84ZM250.72 161.063L248.512 161.575C250.784 168.167 255.136 172.551 261.984 174.407C262.336 173.767 263.04 172.743 263.616 172.231C257.056 170.727 252.704 166.759 250.72 161.063ZM245.152 170.087C247.008 171.175 249.28 172.871 250.304 174.055L252.448 172.647C251.296 171.463 249.024 169.831 247.168 168.807L245.152 170.087ZM241.568 175.495V181.735C241.568 184.359 242.56 185.031 246.272 185.031C247.04 185.031 252.928 185.031 253.76 185.031C256.8 185.031 257.6 184.039 257.92 180.007C257.248 179.847 256.256 179.495 255.712 179.111C255.52 182.375 255.264 182.855 253.6 182.855C252.288 182.855 247.36 182.855 246.4 182.855C244.32 182.855 243.936 182.695 243.936 181.735V175.495H241.568ZM246.048 174.695C247.904 176.391 250.112 178.791 251.136 180.295L253.12 179.015C252.032 177.511 249.76 175.207 247.904 173.607L246.048 174.695ZM256.928 175.687C258.56 178.375 260.16 182.055 260.736 184.295L263.04 183.495C262.432 181.223 260.704 177.639 259.072 174.983L256.928 175.687ZM237.888 175.495C237.248 178.055 236.128 181.287 234.688 183.367L236.832 184.487C238.272 182.279 239.328 178.823 240 176.199L237.888 175.495ZM268.032 167.719V169.991H276.416V167.719H268.032ZM267.552 158.503V160.711H277.088V158.503H267.552ZM267.36 179.911L268 182.183C270.592 181.255 273.984 180.039 277.184 178.887L276.8 176.711C273.344 177.927 269.792 179.207 267.36 179.911ZM271.328 159.847V179.431L273.568 178.791V159.847H271.328ZM278.72 158.375V160.679H296.448V158.375H278.72ZM287.296 159.623C285.312 165.671 281.824 171.143 277.568 174.535C278.112 174.983 279.04 175.911 279.456 176.391C283.712 172.647 287.424 166.791 289.696 160.263L287.296 159.623ZM287.872 167.367C290.272 170.055 293.152 173.735 294.432 176.039L296.384 174.535C295.04 172.295 292.096 168.711 289.696 166.119L287.872 167.367ZM285.504 165.127V185.639H287.872V164.071L285.504 165.127ZM311.52 158.823V160.775H329.472V158.823H311.52ZM310.496 164.487V166.503H330.208V164.487H310.496ZM319.104 156.359V160.103H321.472V156.359H319.104ZM324.16 160.647C323.808 161.671 323.136 163.239 322.56 164.231L324.64 164.711C325.184 163.815 325.856 162.471 326.496 161.191L324.16 160.647ZM314.592 161.159C315.2 162.279 315.744 163.751 315.904 164.711L318.112 164.103C317.888 163.143 317.312 161.703 316.64 160.679L314.592 161.159ZM315.04 173.767H326.048V176.167H315.04V173.767ZM315.04 169.831H326.048V172.199H315.04V169.831ZM312.768 168.167V177.831H328.384V168.167H312.768ZM321.696 177.191V182.663C321.696 184.903 322.272 185.543 324.576 185.543C325.056 185.543 327.264 185.543 327.744 185.543C329.632 185.543 330.24 184.679 330.464 181.095C329.856 180.967 328.896 180.583 328.416 180.231C328.352 183.079 328.224 183.463 327.488 183.463C327.008 183.463 325.248 183.463 324.896 183.463C324.128 183.463 324 183.335 324 182.631V177.191H321.696ZM316.128 177.127C315.52 180.519 313.92 182.631 308.32 183.751C308.768 184.199 309.408 185.191 309.664 185.767C315.84 184.263 317.76 181.511 318.496 177.127H316.128ZM301.184 164.135V166.407H310.56V164.135H301.184ZM304.928 156.647V177.511H307.168V156.647H304.928ZM300.576 178.247L301.44 180.647C304.256 179.303 307.968 177.575 311.424 175.879L310.88 173.735C307.104 175.463 303.168 177.223 300.576 178.247ZM337.824 186.599C341.184 185.447 343.36 182.823 343.36 179.367C343.36 177.127 342.4 175.655 340.608 175.655C339.328 175.655 338.176 176.455 338.176 177.959C338.176 179.495 339.264 180.263 340.576 180.263C341.184 180.263 341.824 180.103 342.272 179.527L340.544 177.095L341.152 179.815C341.152 182.215 339.712 183.847 337.088 184.935L337.824 186.599ZM1.632 203.023V205.231H12.384V203.023H1.632ZM4.768 212.879V215.023H9.472V224.559H4.768V226.703H11.616V212.879H4.768ZM5.76 204.079C4.896 209.423 3.36 214.415 0.864 217.679C1.28 218.319 1.856 219.695 1.984 220.271C4.992 216.431 6.88 210.607 8.064 204.559L5.76 204.079ZM3.744 212.879V229.295H5.856V212.879H3.744ZM15.104 206.255V208.431H28.512V206.255H15.104ZM27.936 206.255V206.639C27.584 208.559 26.976 210.927 26.4 212.399L28.288 212.911C28.96 211.311 29.696 208.751 30.208 206.575L28.672 206.159L28.32 206.255H27.936ZM20.608 201.327V214.895H22.784V201.327H20.608ZM14.016 206.255V214.479C14.016 218.991 13.728 225.135 10.848 229.519C11.36 229.743 12.32 230.351 12.672 230.703C15.68 226.095 16.16 219.247 16.16 214.479V206.255H14.016ZM15.296 213.807V215.919H27.264V213.807H15.296ZM26.88 213.807V214.223C25.152 221.455 20.096 226.671 14.56 228.815C15.04 229.263 15.648 230.127 15.904 230.671C21.856 228.047 27.072 222.671 29.088 214.255L27.712 213.711L27.296 213.807H26.88ZM17.856 215.183L15.872 215.727C18.304 222.799 22.784 228.143 29.184 230.703C29.504 230.095 30.208 229.199 30.688 228.783C24.48 226.607 20 221.551 17.856 215.183ZM44.544 203.407V205.711H63.936V203.407H44.544ZM54.976 204.687C52.608 210.063 48.288 214.543 43.232 217.231C43.776 217.679 44.64 218.671 45.024 219.183C50.112 216.143 54.656 211.343 57.344 205.423L54.976 204.687ZM55.136 212.399C57.792 214.415 61.152 217.327 62.752 219.151L64.416 217.423C62.752 215.631 59.328 212.815 56.704 210.895L55.136 212.399ZM34.944 209.167V211.439H44.672V209.167H34.944ZM38.848 201.711V222.639H41.152V201.711H38.848ZM34.336 223.375L35.136 225.839C38.08 224.751 41.856 223.279 45.44 221.871L44.992 219.663C41.088 221.071 37.056 222.543 34.336 223.375ZM52.544 210.191V230.671H54.912V209.135L52.544 210.191ZM68.288 209.519V211.919H77.92V209.519H68.288ZM81.344 201.391V227.375C81.344 227.983 81.088 228.175 80.48 228.207C79.808 228.207 77.76 228.239 75.456 228.143C75.84 228.879 76.32 230.063 76.416 230.767C79.392 230.767 81.248 230.703 82.336 230.255C83.392 229.839 83.84 229.071 83.84 227.375V201.391H81.344ZM77.088 209.519V210.063C75.744 217.391 72.064 222.863 67.488 225.743C68.064 226.127 69.024 227.087 69.44 227.663C74.144 224.463 78.016 218.479 79.648 210.031L78.016 209.423L77.6 209.519H77.088ZM83.712 206.607L81.792 207.055C84.16 216.527 88.512 224.687 95.808 228.303C96.224 227.567 97.056 226.607 97.664 226.127C90.496 222.991 85.92 215.215 83.712 206.607ZM94.144 206.511C92.032 209.359 88.32 213.103 85.6 215.311L87.296 216.655C90.08 214.511 93.728 210.991 96.352 208.079L94.144 206.511ZM102.528 204.143C104.896 205.007 107.808 206.479 109.248 207.631L110.496 205.743C109.024 204.623 106.08 203.247 103.776 202.479L102.528 204.143ZM101.408 212.335L102.112 214.543C104.672 213.679 107.936 212.623 111.072 211.567L110.688 209.455C107.2 210.575 103.744 211.663 101.408 212.335ZM115.328 201.423C114.496 203.663 112.832 206.383 110.208 208.335C110.752 208.623 111.52 209.295 111.904 209.839C114.784 207.503 116.512 204.559 117.6 201.743L115.328 201.423ZM115.36 204.271L114.016 206.159H127.488V204.271H115.36ZM126.944 204.271V204.591C126.368 206.127 125.504 207.887 124.8 209.007L126.88 209.615C127.712 208.335 128.64 206.415 129.472 204.655L127.744 204.175L127.328 204.271H126.944ZM105.664 216.303V225.231H108.032V218.511H123.904V225.007H126.368V216.303H105.664ZM114.944 219.471C114.016 224.751 111.584 227.599 101.408 228.847C101.824 229.327 102.336 230.255 102.496 230.799C113.28 229.295 116.224 225.839 117.312 219.471H114.944ZM116.32 225.807C120.352 227.087 125.632 229.199 128.352 230.639L129.76 228.623C126.944 227.247 121.6 225.231 117.664 224.047L116.32 225.807ZM119.328 205.231C118.464 208.943 116.48 212.303 110.24 213.967C110.72 214.351 111.296 215.183 111.552 215.727C118.304 213.679 120.704 209.903 121.728 205.231H119.328ZM120.736 207.407L118.944 207.919C120.768 211.503 124.416 214.255 128.768 215.503C129.088 214.895 129.696 214.031 130.208 213.583C126.016 212.687 122.4 210.383 120.736 207.407ZM144.736 202.863V205.071H163.52V202.863H144.736ZM143.936 202.863V211.663C143.936 216.943 143.584 224.207 139.936 229.359C140.512 229.583 141.504 230.223 141.952 230.639C145.728 225.263 146.272 217.231 146.272 211.663V202.863H143.936ZM150.304 214.959H160.064V217.775H150.304V214.959ZM150.304 210.415H160.064V213.199H150.304V210.415ZM148.128 208.559V219.631H162.304V208.559H148.128ZM149.248 221.423C148.384 223.727 146.944 226.031 145.376 227.663C145.888 227.951 146.816 228.559 147.264 228.911C148.832 227.183 150.432 224.527 151.424 221.935L149.248 221.423ZM158.304 221.999C159.808 224.015 161.376 226.767 161.984 228.527L164.16 227.535C163.52 225.775 161.856 223.119 160.384 221.135L158.304 221.999ZM154.016 204.591C153.856 205.967 153.408 208.015 153.056 209.327L155.168 209.839C155.616 208.623 156.128 206.767 156.608 205.103L154.016 204.591ZM153.888 218.895V228.207C153.888 228.559 153.76 228.655 153.344 228.687C152.928 228.687 151.552 228.719 150.016 228.655C150.304 229.263 150.592 230.127 150.688 230.735C152.832 230.767 154.208 230.735 155.072 230.383C155.968 230.063 156.16 229.423 156.16 228.239V218.895H153.888ZM135.872 203.343C137.792 204.303 140.096 205.839 141.184 206.991L142.624 205.071C141.504 203.951 139.168 202.511 137.248 201.615L135.872 203.343ZM134.304 211.983C136.256 212.847 138.592 214.287 139.712 215.375L141.12 213.423C139.936 212.367 137.6 211.023 135.68 210.191L134.304 211.983ZM134.976 228.943L137.12 230.287C138.656 227.311 140.448 223.343 141.792 219.951L139.84 218.607C138.4 222.223 136.416 226.447 134.976 228.943ZM172.608 220.399C169.92 220.399 167.712 222.575 167.712 225.263C167.712 227.951 169.92 230.127 172.608 230.127C175.296 230.127 177.472 227.951 177.472 225.263C177.472 222.575 175.296 220.399 172.608 220.399ZM172.608 228.495C170.816 228.495 169.344 227.055 169.344 225.263C169.344 223.471 170.816 222.031 172.608 222.031C174.4 222.031 175.84 223.471 175.84 225.263C175.84 227.055 174.4 228.495 172.608 228.495ZM9.44 247.959V251.159H19.904V247.959H9.44ZM9.28 245.879C7.808 249.367 4.992 253.335 0.64 256.279C1.536 256.855 2.848 258.231 3.456 259.159C8.224 255.575 11.36 251.159 13.536 246.615L9.28 245.879ZM6.976 253.527V256.983H30.304V253.527H6.976ZM13.024 259.191V262.487H23.808V259.191H13.024ZM11.168 259.191V270.743C11.168 274.807 12.64 275.863 17.408 275.863C18.464 275.863 23.968 275.863 25.088 275.863C29.376 275.863 30.528 274.423 31.072 269.207C30.016 268.983 28.416 268.375 27.52 267.799C27.296 271.735 26.944 272.407 24.832 272.407C23.52 272.407 18.784 272.407 17.664 272.407C15.328 272.407 14.912 272.151 14.912 270.679V259.191H11.168ZM22.72 259.191V259.671C22.528 263.799 22.304 265.431 21.888 265.879C21.632 266.167 21.344 266.199 20.864 266.199C20.352 266.199 19.168 266.167 17.92 266.039C18.464 266.967 18.848 268.343 18.912 269.367C20.448 269.431 21.952 269.399 22.784 269.303C23.712 269.175 24.448 268.919 25.088 268.215C25.824 267.351 26.144 265.207 26.4 260.535C26.432 260.087 26.464 259.191 26.464 259.191H22.72ZM5.024 253.527V259.543C5.024 263.735 4.64 269.527 0.736 273.559C1.536 274.007 3.104 275.383 3.712 276.119C8 271.671 8.832 264.471 8.832 259.607V253.527H5.024ZM18.592 247.959V248.727C18.016 250.263 16.672 252.951 15.424 254.615C16.288 255.095 17.6 255.927 18.4 256.535C19.936 254.679 21.824 251.767 22.976 249.591L20.16 247.767L19.52 247.959H18.592ZM47.232 252.215V263.735H51.104V252.215H47.232ZM39.424 253.879V256.791H59.264V253.879H39.424ZM38.08 258.103V260.951H60.8V258.103H38.08ZM40.768 272.183V275.191H57.792V272.183H40.768ZM35.04 262.359V265.463H63.68V262.359H35.04ZM39.424 266.711V276.055H43.136V269.719H55.648V276.023H59.52V266.711H39.424ZM47.2 246.007V250.615H51.168V246.007H47.2ZM35.744 248.727V255.351H39.488V252.087H58.976V255.351H62.88V248.727H35.744ZM79.872 246.775C79.648 250.967 80.096 265.591 67.232 272.727C68.544 273.623 69.792 274.807 70.464 275.799C83.552 267.767 83.968 252.151 84.256 246.775H79.872ZM84.128 247.607L80.416 247.991C80.672 251.287 81.28 268.919 95.072 275.767C95.648 274.711 96.8 273.431 98.016 272.503C84.896 266.359 84.224 250.391 84.128 247.607ZM106.912 246.135C105.44 250.679 102.944 255.223 100.256 258.167C100.928 259.095 101.984 261.239 102.336 262.135C105.6 258.455 108.64 252.663 110.528 247.223L106.912 246.135ZM104.32 254.967V276.023H107.968V251.351L107.936 251.319L104.32 254.967ZM117.952 246.167V275.831H121.696V246.167H117.952ZM109.824 251.703V255.351H130.56V251.703H109.824ZM113.728 267.223V270.647H125.984V267.223H113.728ZM123.04 253.751L120.32 254.551C122.08 260.855 125.056 267.415 128.576 271.255C129.248 270.231 130.528 268.919 131.424 268.247C127.968 264.983 124.736 259.191 123.04 253.751ZM116.768 253.463C115.072 259.159 111.776 265.175 108.128 268.439C108.96 269.079 110.24 270.423 110.848 271.351C114.656 267.447 117.696 260.855 119.52 254.231L116.768 253.463ZM149.12 255.799C150.4 255.799 151.52 254.839 151.52 253.399C151.52 251.927 150.4 250.967 149.12 250.967C147.808 250.967 146.688 251.927 146.688 253.399C146.688 254.839 147.808 255.799 149.12 255.799ZM149.12 271.447C150.4 271.447 151.52 270.519 151.52 269.047C151.52 267.575 150.4 266.647 149.12 266.647C147.808 266.647 146.688 267.575 146.688 269.047C146.688 270.519 147.808 271.447 149.12 271.447ZM23.488 307.519C25.504 310.079 27.744 313.599 28.672 315.775L30.976 314.655C29.952 312.447 27.648 309.055 25.6 306.559L23.488 307.519ZM14.688 291.359V302.783H17.152V291.359H14.688ZM1.824 302.015V304.319H30.24V302.015H1.824ZM4.992 295.167V297.471H27.712V295.167H4.992ZM18.72 303.263V317.759C18.72 318.175 18.592 318.303 18.08 318.303C17.6 318.335 15.936 318.367 14.112 318.303C14.464 319.007 14.848 320.031 14.976 320.703C17.376 320.703 18.944 320.671 19.936 320.287C20.928 319.871 21.216 319.199 21.216 317.791V303.263H18.72ZM6.144 306.719C5.216 309.279 3.232 312.351 0.992 314.271C1.568 314.591 2.432 315.199 2.912 315.647C5.216 313.567 7.328 310.271 8.576 307.359L6.144 306.719ZM11.52 302.975V306.207C11.52 310.143 11.008 315.295 5.088 319.199C5.664 319.615 6.528 320.415 6.88 320.959C13.28 316.639 13.952 310.783 13.952 306.239V302.975H11.52ZM45.536 292.959V303.903C45.536 308.735 45.216 315.135 41.6 319.583C42.176 319.807 43.2 320.415 43.616 320.799C47.328 316.191 47.84 309.087 47.84 303.903V292.959H45.536ZM50.176 303.743V316.927C50.176 319.775 51.008 320.543 54.144 320.543C54.784 320.543 59.328 320.543 60 320.543C62.912 320.543 63.584 319.199 63.872 314.303C63.264 314.143 62.272 313.759 61.76 313.375C61.6 317.599 61.376 318.367 59.872 318.367C58.88 318.367 55.072 318.367 54.336 318.367C52.768 318.367 52.448 318.111 52.448 316.927V303.743H50.176ZM60.448 305.183C58.304 307.071 54.4 309.119 50.912 310.623C51.232 311.103 51.584 311.871 51.744 312.319C55.424 310.847 59.52 308.895 62.304 306.879L60.448 305.183ZM46.592 292.959V295.167H59.904V299.839H46.592V302.079H62.24V292.959H46.592ZM36.096 293.407C38.24 294.335 40.832 295.839 42.08 296.991L43.488 294.975C42.176 293.887 39.552 292.479 37.408 291.647L36.096 293.407ZM34.496 302.239C36.576 303.103 39.104 304.607 40.352 305.695L41.696 303.679C40.384 302.623 37.824 301.247 35.776 300.447L34.496 302.239ZM35.424 318.687L37.536 320.223C39.296 317.215 41.408 313.183 42.976 309.791L41.12 308.319C39.392 311.967 37.024 316.223 35.424 318.687ZM68 303.007V304.927H86.24V303.007H68ZM76.064 300.735V304.063H78.272V300.735H76.064ZM72.576 308.511H81.952V311.487H72.576V308.511ZM70.464 306.815V313.183H84.16V306.815H70.464ZM72.352 297.503H82.144V299.487H72.352V297.503ZM72.352 294.047H82.144V296.031H72.352V294.047ZM70.176 292.511V301.023H84.384V292.511H70.176ZM76.064 311.999V318.431C76.064 318.751 75.968 318.847 75.584 318.847C75.168 318.879 73.984 318.879 72.512 318.815C72.864 319.391 73.28 320.159 73.408 320.735C75.2 320.735 76.384 320.735 77.216 320.415C78.048 320.095 78.272 319.551 78.272 318.463V311.999H76.064ZM71.424 313.983C70.656 315.711 69.312 317.407 67.872 318.591C68.384 318.911 69.248 319.487 69.632 319.839C71.072 318.527 72.576 316.511 73.504 314.527L71.424 313.983ZM80.288 314.943C81.536 316.319 82.976 318.207 83.648 319.391L85.536 318.367C84.832 317.183 83.36 315.359 82.112 314.015L80.288 314.943ZM93.632 291.871C91.84 294.335 88.544 296.959 85.76 298.431C86.336 298.879 87.072 299.615 87.488 300.127C90.432 298.399 93.76 295.615 95.904 292.799L93.632 291.871ZM94.496 300.735C92.512 303.327 88.928 306.079 85.888 307.647C86.496 308.095 87.232 308.831 87.648 309.343C90.816 307.519 94.432 304.639 96.736 301.663L94.496 300.735ZM95.328 309.791C93.152 313.567 88.96 316.895 84.608 318.783C85.216 319.295 85.92 320.127 86.304 320.703C90.944 318.527 95.168 314.911 97.664 310.623L95.328 309.791ZM103.392 294.367V296.575H108.16V310.015H103.392V312.255H110.176V294.367H103.392ZM102.208 294.367V315.327H104.352V294.367H102.208ZM127.392 296.671V317.919C127.392 318.303 127.264 318.431 126.848 318.463C126.432 318.463 125.088 318.495 123.712 318.399C124 319.039 124.32 320.031 124.448 320.639C126.432 320.671 127.776 320.607 128.608 320.223C129.44 319.839 129.696 319.167 129.696 317.919V296.671H127.392ZM112.576 296.671V320.543H114.88V298.815H128.576V296.671H112.576ZM117.504 302.431V314.943H119.232V302.431H117.504ZM118.464 302.431V304.223H123.04V311.327H118.464V313.119H124.736V302.431H118.464ZM119.872 291.231C119.392 293.151 118.496 295.839 117.696 297.535L119.84 298.111C120.704 296.543 121.76 293.983 122.624 291.807L119.872 291.231ZM147.456 292.287C147.232 296.543 147.232 311.935 134.176 318.591C134.912 319.135 135.712 319.871 136.128 320.479C149.376 313.279 149.856 297.311 150.112 292.287H147.456ZM150.016 292.927L147.712 293.151C147.936 296.095 148.832 313.983 162.4 320.479C162.784 319.807 163.52 319.007 164.224 318.463C151.04 312.415 150.112 295.423 150.016 292.927ZM174.4 291.423C172.832 296.255 170.208 301.055 167.36 304.191C167.808 304.767 168.512 306.015 168.768 306.559C171.904 302.943 174.816 297.503 176.672 292.095L174.4 291.423ZM171.52 299.679V320.703H173.792V297.439L173.76 297.407L171.52 299.679ZM184.96 291.423V320.575H187.296V291.423H184.96ZM175.936 297.759V300.063H196.896V297.759H175.936ZM179.68 312.607V314.783H192.48V312.607H179.68ZM188.448 298.943L186.656 299.487C188.544 305.727 191.968 312.095 195.712 315.519C196.16 314.879 196.96 314.047 197.536 313.631C193.792 310.623 190.272 304.671 188.448 298.943ZM183.968 298.815C182.08 304.671 178.432 310.751 174.688 313.791C175.232 314.175 176.032 315.007 176.384 315.615C180.256 312.095 183.744 305.759 185.728 299.359L183.968 298.815ZM220.736 291.551V316.959H222.976V291.551H220.736ZM213.888 298.399V300.255H230.656V298.399H213.888ZM214.592 311.455V313.311H230.048V311.455H214.592ZM215.552 307.071V308.927H229.152V307.071H215.552ZM208.288 293.951V295.967H212.928V293.951H208.288ZM209.504 302.943V304.799H213.6V302.943H209.504ZM212.416 293.951V294.239C211.36 296.863 209.152 302.111 207.392 305.823L209.408 306.303C211.136 302.559 213.312 297.599 214.624 294.271L213.088 293.855L212.704 293.951H212.416ZM212.96 302.943V303.327C212.32 310.943 210.112 316.351 206.656 318.879C207.136 319.327 207.744 320.127 208.032 320.639C212 317.535 214.272 311.999 215.04 303.135L213.76 302.879L213.376 302.943H212.96ZM209.632 307.391L207.776 307.967C209.888 317.887 214.112 320.159 221.76 320.159H229.92C230.048 319.519 230.4 318.495 230.752 317.951C229.376 317.983 222.88 317.983 221.856 317.983C215.328 317.983 211.36 316.063 209.632 307.391ZM216.064 294.111V295.967H226.656V302.751H216.064V304.639H228.736V294.111H216.064ZM206.624 291.487C205.248 296.191 202.944 300.799 200.32 303.839C200.704 304.447 201.312 305.759 201.536 306.303C204.48 302.751 207.136 297.375 208.8 292.095L206.624 291.487ZM204.352 299.583V320.671H206.496V297.503L206.464 297.471L204.352 299.583ZM239.808 303.039V304.863H263.68V303.039H239.808ZM242.08 298.911V300.671H258.24V307.359H241.824V309.119H260.512V298.911H242.08ZM249.568 296.639V317.983C249.568 318.527 249.408 318.687 248.832 318.687C248.288 318.719 246.336 318.751 244.352 318.687C244.704 319.295 245.024 320.223 245.152 320.799C247.776 320.799 249.504 320.767 250.528 320.415C251.52 320.095 251.904 319.487 251.904 317.983V296.639H249.568ZM240.608 310.847C242.272 311.839 244.32 313.311 245.312 314.303L246.784 312.831C245.696 311.871 243.648 310.463 241.984 309.535L240.608 310.847ZM260.128 309.695C258.624 310.975 256.032 312.735 254.144 313.759L255.52 314.975C257.472 314.047 259.968 312.543 261.888 311.103L260.128 309.695ZM252.416 308.479L250.56 308.927C252.448 314.495 256.192 318.591 261.568 320.415C261.888 319.807 262.528 318.943 263.04 318.495C257.824 316.991 254.112 313.311 252.416 308.479ZM238.912 317.535L240.064 319.487C242.368 318.559 245.248 317.375 248 316.191L247.584 314.431C244.384 315.615 241.088 316.831 238.912 317.535ZM248.64 291.327V295.391H251.104V291.327H248.64ZM237.888 294.271V296.383H263.296V294.271H237.888ZM236.736 294.271V303.711C236.736 308.415 236.512 314.943 233.952 319.583C234.496 319.807 235.488 320.447 235.904 320.863C238.592 315.999 239.008 308.735 239.008 303.711V294.271H236.736ZM271.264 321.599C274.624 320.447 276.8 317.823 276.8 314.367C276.8 312.127 275.84 310.655 274.048 310.655C272.768 310.655 271.616 311.455 271.616 312.959C271.616 314.495 272.704 315.263 274.016 315.263C274.624 315.263 275.264 315.103 275.712 314.527L273.984 312.095L274.592 314.815C274.592 317.215 273.152 318.847 270.528 319.935L271.264 321.599ZM3.104 362.247L3.424 364.615C9.088 364.423 17.76 364.039 25.824 363.623L25.92 361.415C17.6 361.799 8.672 362.119 3.104 362.247ZM2.816 352.359V354.631H29.344V352.359H2.816ZM8.288 346.247V348.487H23.584V346.247H8.288ZM11.584 353.799C10.624 356.615 8.736 360.583 7.232 363.079L9.376 363.783C10.944 361.383 12.8 357.639 14.272 354.567L11.584 353.799ZM19.2 357.191C22.048 359.751 25.216 363.431 26.656 365.831L28.832 364.519C27.328 362.087 24.192 358.631 21.248 356.103L19.2 357.191ZM15.872 338.663C18.848 342.823 24.48 347.111 29.472 349.511C29.888 348.807 30.464 347.943 31.04 347.367C25.952 345.287 20.352 341.095 16.96 336.359H14.496C12 340.455 6.656 345.095 1.152 347.719C1.664 348.231 2.272 349.095 2.56 349.671C8 346.951 13.248 342.567 15.872 338.663ZM35.232 353.863V356.135H63.488V353.863H35.232ZM53.984 351.399V362.855C53.984 363.335 53.792 363.495 53.184 363.495C52.576 363.527 50.272 363.559 47.904 363.463C48.224 364.103 48.64 364.999 48.736 365.639C51.84 365.639 53.76 365.639 54.912 365.287C56.064 364.967 56.448 364.295 56.448 362.887V351.399H53.984ZM40.032 357.351C42.016 359.047 44.288 361.479 45.248 363.143L47.04 361.543C45.984 359.911 43.712 357.575 41.696 355.943L40.032 357.351ZM37.6 338.567V346.951C37.6 349.927 39.168 350.599 44.448 350.599C45.664 350.599 55.936 350.599 57.248 350.599C61.28 350.599 62.304 349.799 62.72 346.535C62.016 346.407 61.024 346.119 60.416 345.767C60.128 348.135 59.68 348.583 57.056 348.583C54.816 348.583 45.952 348.583 44.288 348.583C40.736 348.583 40.096 348.263 40.096 346.919V338.567H37.6ZM38.432 343.047V345.191H59.68V337.575H37.6V339.687H57.344V343.047H38.432ZM68.032 338.343V340.583H82.368V338.343H68.032ZM68.736 353.255V355.463H81.856V353.255H68.736ZM73.952 349.511V361.703H76.256V349.511H73.952ZM67.776 361.575L68.16 364.039C72.064 363.335 77.6 362.375 82.848 361.415L82.72 359.143C77.248 360.071 71.488 361.063 67.776 361.575ZM67.712 347.047L68 349.287C71.296 348.999 75.872 348.647 80.32 348.231L80.288 346.151C75.616 346.535 70.88 346.887 67.712 347.047ZM72.704 339.591C72 342.023 70.688 345.543 69.6 347.687L71.52 348.263C72.704 346.215 74.08 342.887 75.168 340.167L72.704 339.591ZM76.736 343.239C78.176 345.191 79.776 347.911 80.416 349.607L82.432 348.519C81.76 346.855 80.096 344.263 78.624 342.311L76.736 343.239ZM85.12 342.279V344.519H97.12V342.279H85.12ZM85.92 336.295C84.96 341.735 83.264 347.015 80.672 350.311C81.248 350.695 82.272 351.463 82.72 351.911C85.344 348.263 87.264 342.663 88.384 336.711L85.92 336.295ZM92.768 343.527C91.296 353.767 87.936 360.167 79.936 363.687C80.384 364.167 81.12 365.255 81.344 365.831C89.792 361.735 93.472 354.951 95.2 343.815L92.768 343.527ZM86.112 344.327L83.936 344.711C85.696 354.503 89.056 362.215 95.84 365.767C96.224 365.127 96.96 364.199 97.536 363.719C91.04 360.647 87.648 353.223 86.112 344.327ZM114.176 337.287C113.952 341.543 113.952 356.935 100.896 363.591C101.632 364.135 102.432 364.871 102.848 365.479C116.096 358.279 116.576 342.311 116.832 337.287H114.176ZM116.736 337.927L114.432 338.151C114.656 341.095 115.552 358.983 129.12 365.479C129.504 364.807 130.24 364.007 130.944 363.463C117.76 357.415 116.832 340.423 116.736 337.927ZM141.12 336.423C139.552 341.255 136.928 346.055 134.08 349.191C134.528 349.767 135.232 351.015 135.488 351.559C138.624 347.943 141.536 342.503 143.392 337.095L141.12 336.423ZM138.24 344.679V365.703H140.512V342.439L140.48 342.407L138.24 344.679ZM151.68 336.423V365.575H154.016V336.423H151.68ZM142.656 342.759V345.063H163.616V342.759H142.656ZM146.4 357.607V359.783H159.2V357.607H146.4ZM155.168 343.943L153.376 344.487C155.264 350.727 158.688 357.095 162.432 360.519C162.88 359.879 163.68 359.047 164.256 358.631C160.512 355.623 156.992 349.671 155.168 343.943ZM150.688 343.815C148.8 349.671 145.152 355.751 141.408 358.791C141.952 359.175 142.752 360.007 143.104 360.615C146.976 357.095 150.464 350.759 152.448 344.359L150.688 343.815ZM170.592 341.447V343.591H178.08V360.199H170.592V362.375H180.32V341.447H170.592ZM169.152 341.447V364.935H171.392V341.447H169.152ZM170.432 350.343V352.487H179.264V350.343H170.432ZM174.048 336.231C173.792 337.895 173.184 340.327 172.64 341.863L174.56 342.343C175.2 340.903 176 338.695 176.64 336.711L174.048 336.231ZM184.864 341.351V343.591H194.688V341.351H184.864ZM193.856 341.351V341.863C193.408 355.975 192.896 361.287 191.84 362.439C191.488 362.855 191.104 362.951 190.464 362.951C189.728 362.951 187.808 362.919 185.728 362.759C186.176 363.399 186.464 364.391 186.528 365.095C188.32 365.191 190.208 365.255 191.296 365.127C192.416 365.031 193.152 364.743 193.856 363.815C195.136 362.247 195.584 357.287 196.096 342.599C196.096 342.247 196.096 341.351 196.096 341.351H193.856ZM185.536 336.167C184.512 340.615 182.752 345.031 180.576 347.847C181.152 348.167 182.144 348.839 182.56 349.223C184.768 346.183 186.656 341.479 187.84 336.711L185.536 336.167ZM184.064 349.671C185.824 352.007 187.968 355.175 188.928 357.127L190.976 355.847C189.952 353.959 187.744 350.855 185.92 348.583L184.064 349.671ZM219.264 352.807V354.663H227.104V352.807H219.264ZM214.336 342.183L214.528 344.327C218.208 344.135 223.424 343.815 228.416 343.527L228.448 341.575C223.264 341.831 217.888 342.055 214.336 342.183ZM220.416 349.735C219.104 352.967 216.544 355.751 213.664 357.511C214.144 357.895 215.008 358.663 215.36 359.079C218.304 357.063 221.056 353.927 222.592 350.247L220.416 349.735ZM226.56 352.807V353.191C224.704 358.759 219.552 362.375 214.016 363.847C214.464 364.295 214.976 365.159 215.232 365.703C221.216 363.847 226.592 360.039 228.8 353.287L227.36 352.711L226.976 352.807H226.56ZM219.584 354.503L217.6 355.015C219.744 360.263 223.872 364.103 229.472 365.735C229.792 365.159 230.432 364.263 230.944 363.815C225.568 362.471 221.472 358.983 219.584 354.503ZM218.4 343.687C218.144 346.695 217.28 348.647 214.016 349.735C214.464 350.087 215.072 350.887 215.264 351.399C219.072 349.959 220.192 347.495 220.544 343.687H218.4ZM223.168 343.591V347.751C223.168 349.735 223.648 350.279 225.728 350.279C226.112 350.279 227.84 350.279 228.288 350.279C229.824 350.279 230.4 349.607 230.592 346.759C230.016 346.631 229.152 346.311 228.768 346.023C228.704 348.167 228.544 348.423 227.968 348.423C227.616 348.423 226.24 348.423 225.984 348.423C225.344 348.423 225.248 348.359 225.248 347.751V343.591H223.168ZM219.712 336.231C219.008 338.215 217.664 341.127 216.544 342.855L218.368 343.527C219.52 341.863 220.928 339.207 222.048 336.967L219.712 336.231ZM224.352 339.463C226.112 341.127 228.064 343.527 228.928 345.095L230.752 344.039C229.856 342.439 227.84 340.135 226.08 338.503L224.352 339.463ZM201.696 343.751V365.639H203.552V345.831H212.096V365.191H214.016V343.751H201.696ZM202.528 356.295V358.215H213.216V356.295H202.528ZM202.528 361.447V363.367H213.216V361.447H202.528ZM201.376 337.735V339.815H214.176V337.735H201.376ZM205.12 338.375V345.383H206.848V338.375H205.12ZM208.736 338.375V345.383H210.496V338.375H208.736ZM205.536 345.223V348.231C205.536 349.863 205.216 351.847 203.36 353.447C203.68 353.607 204.224 354.055 204.448 354.343C206.432 352.583 206.912 350.119 206.912 348.231V345.223H205.536ZM208.672 345.223V350.855C208.672 352.391 209.056 352.711 210.304 352.711C210.56 352.711 211.648 352.711 211.904 352.711C212.768 352.711 213.216 352.391 213.376 351.719C212.928 351.591 212.416 351.463 212.128 351.207C212.064 351.271 212 351.271 211.616 351.271C211.392 351.271 210.624 351.271 210.464 351.271C210.08 351.271 210.048 351.239 210.048 350.855V345.223H208.672ZM260.928 347.015C259.328 354.663 256.256 360.583 251.04 364.167C251.488 364.551 252.192 365.383 252.48 365.799C257.888 361.831 261.184 355.623 262.976 347.367L260.928 347.015ZM246.624 341.511V343.591H263.648V341.511H246.624ZM248.416 346.055V347.975H255.296V346.055H248.416ZM245.568 341.511V349.895C245.568 354.247 245.312 360.167 242.656 364.423C243.072 364.647 243.936 365.351 244.256 365.735C247.104 361.223 247.584 354.567 247.584 349.895V341.511H245.568ZM255.744 336.359C256.032 355.591 257.344 365.735 261.152 365.735C263.008 365.735 263.776 364.871 264.128 360.039C263.584 359.879 262.848 359.367 262.336 358.919C262.176 362.535 261.888 363.655 261.344 363.655C259.584 363.655 257.792 355.367 257.856 336.359H255.744ZM248.832 350.535V361.255H250.496V350.535H248.832ZM249.664 350.535V352.327H253.312V357.383H249.664V359.207H255.008V350.535H249.664ZM258.336 337.639C259.584 338.567 261.088 340.071 261.856 341.063L263.392 339.847C262.688 338.887 261.152 337.511 259.84 336.583L258.336 337.639ZM234.496 338.023V340.199H244.256V338.023H234.496ZM237.184 347.847V349.991H241.664V359.559H237.184V361.703H243.584V347.847H237.184ZM238.144 339.143C237.44 344.391 236.128 349.383 233.888 352.647C234.272 353.223 234.816 354.439 234.976 354.983C237.664 351.175 239.264 345.479 240.256 339.527L238.144 339.143ZM236.352 347.847V364.263H238.208V347.847H236.352ZM267.936 350.695V353.127H296.544V350.695H267.936ZM273.792 336.743C272.608 341.127 270.624 345.383 268.128 348.103C268.736 348.391 269.92 348.999 270.432 349.383C272.832 346.471 274.944 341.991 276.288 337.287L273.792 336.743ZM273.472 341.927L272.32 344.327H293.856V341.927H273.472ZM283.648 351.207L281.44 351.751C283.712 359.111 288.16 363.783 295.68 365.767C296.064 365.095 296.768 364.071 297.312 363.559C290.048 361.959 285.6 357.639 283.648 351.207ZM280.832 336.295V346.247C280.832 352.775 279.52 359.655 267.552 363.719C268.064 364.199 268.8 365.191 269.056 365.799C281.824 361.383 283.328 353.639 283.328 346.279V336.295H280.832ZM308.544 356.775V358.759H322.336V356.775H308.544ZM312.416 336.455C311.616 339.175 310.08 342.727 307.584 345.351C308.128 345.607 308.896 346.215 309.28 346.695C311.968 343.719 313.568 340.007 314.592 336.775L312.416 336.455ZM313.12 338.983L312.16 340.903H317.728V338.983H313.12ZM311.456 350.023H319.552V352.839H311.456V350.023ZM311.456 345.575H319.552V348.359H311.456V345.575ZM309.6 343.847V354.599H321.44V343.847H309.6ZM314.624 344.679V353.671H316.448V344.679H314.624ZM314.336 360.391C316.384 361.799 318.88 363.847 320.032 365.223L321.536 363.623C320.32 362.279 317.824 360.327 315.744 358.983L314.336 360.391ZM317.088 338.983V339.431C316.736 340.807 315.968 342.951 315.296 344.231C315.808 344.487 316.544 344.935 316.992 345.223C317.792 343.847 318.816 341.671 319.488 339.847L317.952 338.887L317.6 338.983H317.088ZM314.464 354.183C314.208 359.559 313.216 362.503 308.096 364.103C308.576 364.487 309.152 365.287 309.344 365.799C315.072 363.847 316.32 360.327 316.672 354.183H314.464ZM305.856 336.295C304.704 338.407 302.432 341.031 300.384 342.695C300.768 343.111 301.408 344.007 301.696 344.487C303.968 342.567 306.464 339.687 308.032 337.127L305.856 336.295ZM306.528 342.727C304.928 346.087 302.432 349.511 300.032 351.815C300.448 352.295 301.184 353.415 301.44 353.895C304.032 351.271 306.816 347.239 308.64 343.463L306.528 342.727ZM304.224 348.583V365.735H306.4V346.439V346.407L304.224 348.583ZM322.464 338.183V340.359H329.856V338.183H322.464ZM322.016 346.407V348.615H330.496V346.407H322.016ZM325.408 347.527V362.855C325.408 363.239 325.28 363.335 324.896 363.367C324.512 363.367 323.264 363.367 321.856 363.335C322.144 364.007 322.464 364.999 322.528 365.639C324.48 365.639 325.792 365.607 326.624 365.223C327.456 364.807 327.68 364.135 327.68 362.887V347.527H325.408ZM339.008 355.399C336.32 355.399 334.112 357.575 334.112 360.263C334.112 362.951 336.32 365.127 339.008 365.127C341.696 365.127 343.872 362.951 343.872 360.263C343.872 357.575 341.696 355.399 339.008 355.399ZM339.008 363.495C337.216 363.495 335.744 362.055 335.744 360.263C335.744 358.471 337.216 357.031 339.008 357.031C340.8 357.031 342.24 358.471 342.24 360.263C342.24 362.055 340.8 363.495 339.008 363.495ZM9.44 382.959V386.159H19.904V382.959H9.44ZM9.28 380.879C7.808 384.367 4.992 388.335 0.64 391.279C1.536 391.855 2.848 393.231 3.456 394.159C8.224 390.575 11.36 386.159 13.536 381.615L9.28 380.879ZM6.976 388.527V391.983H30.304V388.527H6.976ZM13.024 394.191V397.487H23.808V394.191H13.024ZM11.168 394.191V405.743C11.168 409.807 12.64 410.863 17.408 410.863C18.464 410.863 23.968 410.863 25.088 410.863C29.376 410.863 30.528 409.423 31.072 404.207C30.016 403.983 28.416 403.375 27.52 402.799C27.296 406.735 26.944 407.407 24.832 407.407C23.52 407.407 18.784 407.407 17.664 407.407C15.328 407.407 14.912 407.151 14.912 405.679V394.191H11.168ZM22.72 394.191V394.671C22.528 398.799 22.304 400.431 21.888 400.879C21.632 401.167 21.344 401.199 20.864 401.199C20.352 401.199 19.168 401.167 17.92 401.039C18.464 401.967 18.848 403.343 18.912 404.367C20.448 404.431 21.952 404.399 22.784 404.303C23.712 404.175 24.448 403.919 25.088 403.215C25.824 402.351 26.144 400.207 26.4 395.535C26.432 395.087 26.464 394.191 26.464 394.191H22.72ZM5.024 388.527V394.543C5.024 398.735 4.64 404.527 0.736 408.559C1.536 409.007 3.104 410.383 3.712 411.119C8 406.671 8.832 399.471 8.832 394.607V388.527H5.024ZM18.592 382.959V383.727C18.016 385.263 16.672 387.951 15.424 389.615C16.288 390.095 17.6 390.927 18.4 391.535C19.936 389.679 21.824 386.767 22.976 384.591L20.16 382.767L19.52 382.959H18.592ZM47.232 387.215V398.735H51.104V387.215H47.232ZM39.424 388.879V391.791H59.264V388.879H39.424ZM38.08 393.103V395.951H60.8V393.103H38.08ZM40.768 407.183V410.191H57.792V407.183H40.768ZM35.04 397.359V400.463H63.68V397.359H35.04ZM39.424 401.711V411.055H43.136V404.719H55.648V411.023H59.52V401.711H39.424ZM47.2 381.007V385.615H51.168V381.007H47.2ZM35.744 383.727V390.351H39.488V387.087H58.976V390.351H62.88V383.727H35.744ZM73.184 386.799V390.543H95.456V386.799H73.184ZM71.872 396.239V399.919H94.24V396.239H71.872ZM68.16 406.383V410.127H97.088V406.383H68.16ZM80.608 381.007V408.239H84.608V381.007H80.608ZM73.216 381.391C72.064 385.807 70.016 390.223 67.488 392.911C68.48 393.455 70.176 394.575 70.944 395.247C73.44 392.175 75.776 387.247 77.184 382.287L73.216 381.391ZM105.536 393.071V396.847H129.792V393.071H105.536ZM103.104 384.303V387.951H129.088V384.303H103.104ZM103.36 393.071V397.519C103.36 400.815 103.136 405.423 100.608 408.687C101.44 409.199 103.168 410.671 103.808 411.439C106.784 407.663 107.392 401.647 107.392 397.615V393.071H103.36ZM107.68 389.167C108.672 390.543 109.792 392.463 110.208 393.679L113.792 392.079C113.28 390.831 112.064 389.007 111.072 387.727L107.68 389.167ZM121.312 387.983C120.8 389.583 119.776 391.759 118.912 393.231L121.952 394.447C122.976 393.167 124.32 391.215 125.632 389.359L121.312 387.983ZM112.704 381.807C113.536 383.023 114.4 384.687 114.688 385.775L118.848 384.623C118.464 383.535 117.568 381.967 116.672 380.879L112.704 381.807ZM149.12 390.799C150.4 390.799 151.52 389.839 151.52 388.399C151.52 386.927 150.4 385.967 149.12 385.967C147.808 385.967 146.688 386.927 146.688 388.399C146.688 389.839 147.808 390.799 149.12 390.799ZM149.12 406.447C150.4 406.447 151.52 405.519 151.52 404.047C151.52 402.575 150.4 401.647 149.12 401.647C147.808 401.647 146.688 402.575 146.688 404.047C146.688 405.519 147.808 406.447 149.12 406.447ZM23.488 442.519C25.504 445.079 27.744 448.599 28.672 450.775L30.976 449.655C29.952 447.447 27.648 444.055 25.6 441.559L23.488 442.519ZM14.688 426.359V437.783H17.152V426.359H14.688ZM1.824 437.015V439.319H30.24V437.015H1.824ZM4.992 430.167V432.471H27.712V430.167H4.992ZM18.72 438.263V452.759C18.72 453.175 18.592 453.303 18.08 453.303C17.6 453.335 15.936 453.367 14.112 453.303C14.464 454.007 14.848 455.031 14.976 455.703C17.376 455.703 18.944 455.671 19.936 455.287C20.928 454.871 21.216 454.199 21.216 452.791V438.263H18.72ZM6.144 441.719C5.216 444.279 3.232 447.351 0.992 449.271C1.568 449.591 2.432 450.199 2.912 450.647C5.216 448.567 7.328 445.271 8.576 442.359L6.144 441.719ZM11.52 437.975V441.207C11.52 445.143 11.008 450.295 5.088 454.199C5.664 454.615 6.528 455.415 6.88 455.959C13.28 451.639 13.952 445.783 13.952 441.239V437.975H11.52ZM45.536 427.959V438.903C45.536 443.735 45.216 450.135 41.6 454.583C42.176 454.807 43.2 455.415 43.616 455.799C47.328 451.191 47.84 444.087 47.84 438.903V427.959H45.536ZM50.176 438.743V451.927C50.176 454.775 51.008 455.543 54.144 455.543C54.784 455.543 59.328 455.543 60 455.543C62.912 455.543 63.584 454.199 63.872 449.303C63.264 449.143 62.272 448.759 61.76 448.375C61.6 452.599 61.376 453.367 59.872 453.367C58.88 453.367 55.072 453.367 54.336 453.367C52.768 453.367 52.448 453.111 52.448 451.927V438.743H50.176ZM60.448 440.183C58.304 442.071 54.4 444.119 50.912 445.623C51.232 446.103 51.584 446.871 51.744 447.319C55.424 445.847 59.52 443.895 62.304 441.879L60.448 440.183ZM46.592 427.959V430.167H59.904V434.839H46.592V437.079H62.24V427.959H46.592ZM36.096 428.407C38.24 429.335 40.832 430.839 42.08 431.991L43.488 429.975C42.176 428.887 39.552 427.479 37.408 426.647L36.096 428.407ZM34.496 437.239C36.576 438.103 39.104 439.607 40.352 440.695L41.696 438.679C40.384 437.623 37.824 436.247 35.776 435.447L34.496 437.239ZM35.424 453.687L37.536 455.223C39.296 452.215 41.408 448.183 42.976 444.791L41.12 443.319C39.392 446.967 37.024 451.223 35.424 453.687ZM83.296 426.295V439.831C83.296 445.591 82.624 450.615 77.216 454.167C77.76 454.551 78.56 455.287 78.944 455.767C84.736 451.863 85.472 446.231 85.472 439.831V426.295H83.296ZM88.8 426.295V455.703H91.104V426.295H88.8ZM78.048 431.767V433.975H84.256V431.767H78.048ZM90.016 431.767V433.975H96.704V431.767H90.016ZM90.144 438.487V440.631H96.384V438.487H90.144ZM89.984 445.463V447.671H97.248V445.463H89.984ZM78.272 438.487V440.631H84.352V438.487H78.272ZM76.448 446.839L77.376 448.919C79.36 448.215 81.632 447.383 83.84 446.519L83.488 444.663C80.864 445.495 78.304 446.327 76.448 446.839ZM67.424 442.903L68.064 445.239C70.784 444.375 74.304 443.223 77.632 442.071L77.312 439.863C73.664 441.047 69.92 442.199 67.424 442.903ZM67.872 432.759V434.999H77.6V432.759H67.872ZM71.904 426.327V452.951C71.904 453.431 71.712 453.527 71.328 453.527C70.944 453.559 69.728 453.559 68.32 453.527C68.64 454.199 68.928 455.191 69.024 455.767C71.04 455.767 72.288 455.703 73.024 455.319C73.824 454.935 74.144 454.295 74.144 452.951V426.327H71.904ZM107.104 428.247V430.679H116.16V428.247H107.104ZM114.944 428.247C114.944 434.263 116 447.895 128.8 455.639C129.248 455.063 130.208 454.039 130.752 453.623C118.112 446.135 117.408 433.975 117.408 428.247H114.944ZM114.048 434.519C112.096 443.575 108.096 450.039 100.992 453.751C101.632 454.199 102.72 455.191 103.168 455.703C110.24 451.543 114.464 444.791 116.768 435.031L114.048 434.519ZM146.56 430.295V432.471H163.584V430.295H146.56ZM147.328 435.383V437.495H160.16V435.383H147.328ZM142.24 442.007V444.215H164.192V442.007H142.24ZM145.568 449.111V451.191H163.968V449.111H145.568ZM147.264 426.295C146.176 430.071 144.256 433.815 141.92 436.183C142.528 436.471 143.552 437.175 144 437.559C146.272 434.999 148.352 430.967 149.632 426.807L147.264 426.295ZM146.336 435.383C145.792 440.727 144.704 448.151 143.84 452.471L146.144 452.663C146.912 448.375 147.936 440.887 148.576 435.383H146.336ZM152.704 436.247C152.416 440.567 151.776 446.615 151.232 450.135H153.344C153.856 446.711 154.432 440.695 154.816 436.247H152.704ZM159.424 435.383V435.863C158.976 447.895 158.464 452.279 157.568 453.271C157.28 453.655 156.96 453.719 156.384 453.719C155.744 453.719 154.272 453.719 152.64 453.591C152.992 454.135 153.216 454.999 153.248 455.639C154.848 455.703 156.384 455.735 157.344 455.639C158.304 455.575 158.944 455.319 159.552 454.519C160.64 453.207 161.152 448.983 161.632 436.535C161.664 436.215 161.664 435.383 161.664 435.383H159.424ZM135.904 428.375C137.824 429.335 140.096 430.871 141.216 432.023L142.656 430.103C141.536 428.983 139.2 427.543 137.28 426.647L135.904 428.375ZM134.368 436.919C136.32 437.815 138.624 439.223 139.744 440.311L141.152 438.391C140 437.335 137.632 435.959 135.712 435.159L134.368 436.919ZM135.104 453.975L137.248 455.351C138.784 452.375 140.64 448.311 142.016 444.919L140.096 443.575C138.624 447.223 136.544 451.479 135.104 453.975ZM169.472 432.023V447.255H171.872V434.391H192.768V447.095H195.264V432.023H169.472ZM170.752 442.903V445.239H194.208V442.903H170.752ZM181.056 426.295V455.703H183.552V426.295H181.056ZM217.312 426.391C217.472 441.559 220.288 455.767 226.656 455.767C229.088 455.767 230.016 454.199 230.432 448.663C229.76 448.439 228.864 447.863 228.32 447.319C228.128 451.575 227.776 453.271 226.848 453.271C222.944 453.271 219.808 441.015 219.872 426.391H217.312ZM221.792 427.895C223.776 428.823 226.112 430.327 227.264 431.415L228.736 429.719C227.552 428.663 225.184 427.255 223.2 426.423L221.792 427.895ZM225.984 436.087C223.456 444.151 218.848 450.295 212.192 453.879C212.704 454.327 213.664 455.287 214.016 455.767C220.736 451.735 225.568 445.303 228.352 436.663L225.984 436.087ZM201.824 431.415V433.783H229.632V431.415H201.824ZM201.664 451.095L202.112 453.559C205.856 452.759 211.104 451.607 216 450.519L215.808 448.215C210.592 449.335 205.152 450.423 201.664 451.095ZM205.888 438.711H212.416V444.311H205.888V438.711ZM203.68 436.631V446.359H214.784V436.631H203.68ZM235.424 427.639V455.703H237.632V429.815H242.944V427.639H235.424ZM242.496 427.639V428.247C241.664 430.455 240.256 434.167 238.912 437.015C241.632 439.575 242.336 441.751 242.368 443.543C242.368 444.535 242.176 445.431 241.6 445.783C241.28 445.975 240.864 446.071 240.416 446.071C239.84 446.135 239.072 446.135 238.272 446.007C238.624 446.647 238.848 447.575 238.88 448.151C239.68 448.183 240.608 448.183 241.312 448.119C242.016 448.023 242.624 447.831 243.136 447.511C244.096 446.839 244.544 445.495 244.544 443.767C244.512 441.719 243.872 439.415 241.12 436.759C242.368 434.263 243.776 431.127 244.832 428.503L243.264 427.543L242.912 427.639H242.496ZM246.688 430.999V433.239H261.632V430.999H246.688ZM245.312 438.807V441.079H263.584V438.807H245.312ZM253.216 426.455V452.631H255.584V426.455H253.216ZM260.128 444.119V455.575H262.4V444.119H260.128ZM246.4 444.119V453.975H261.504V451.767H248.736V444.119H246.4ZM286.56 426.295V448.599H288.832V426.295H286.56ZM276.48 439.511L277.408 441.623L294.624 434.295L293.728 432.247L276.48 439.511ZM279.936 429.303V450.679C279.936 454.167 281.024 455.031 284.704 455.031C285.504 455.031 291.712 455.031 292.576 455.031C295.936 455.031 296.704 453.623 297.088 449.207C296.416 449.079 295.488 448.695 294.912 448.311C294.688 451.991 294.368 452.855 292.48 452.855C291.2 452.855 285.824 452.855 284.768 452.855C282.624 452.855 282.24 452.471 282.24 450.711V429.303H279.936ZM293.312 432.567C293.312 438.935 293.28 443.479 293.088 444.311C292.928 445.047 292.608 445.175 292.128 445.175C291.776 445.175 290.72 445.175 289.984 445.143C290.272 445.687 290.464 446.583 290.56 447.223C291.424 447.223 292.704 447.223 293.568 446.999C294.496 446.775 295.104 446.167 295.296 444.887C295.52 443.639 295.616 438.839 295.616 432.823L295.712 432.375L294.016 431.735L293.6 432.087L293.024 432.567H293.312ZM267.552 434.007V436.279H277.728V434.007H267.552ZM271.68 426.679V447.447H273.952V426.679H271.68ZM267.264 448.279L268.224 450.647C271.072 449.431 274.688 447.799 278.112 446.167L277.6 444.023C273.792 445.655 269.856 447.319 267.264 448.279ZM315.136 438.807V440.983H328.96V438.807H315.136ZM315.136 445.207V447.383H328.96V445.207H315.136ZM315.2 451.671V453.911H330.336V451.671H315.2ZM321.12 433.623V452.951H323.456V433.623H321.12ZM323.328 426.551C322.688 428.631 321.536 431.575 320.544 433.431L322.496 434.007C323.584 432.279 324.864 429.527 325.92 427.159L323.328 426.551ZM313.792 432.407V455.735H316.128V434.583H329.696V432.407H313.792ZM316.128 426.263C314.72 430.999 312.32 435.607 309.408 438.519C309.952 438.967 310.848 439.895 311.2 440.343C314.24 437.079 316.864 432.055 318.496 426.807L316.128 426.263ZM301.184 433.911V436.183H310.912V433.911H301.184ZM305.12 426.711V447.383H307.424V426.711H305.12ZM300.576 448.055L301.408 450.487C304.32 449.303 308.128 447.767 311.68 446.263L311.2 443.991C307.296 445.527 303.264 447.127 300.576 448.055ZM334.176 431.479V433.751H348.416V431.479H334.176ZM339.36 438.007V440.215H345.504V438.007H339.36ZM340.032 426.359V432.567H342.4V426.359H340.032ZM344.672 438.007V438.487C344.48 448.759 344.224 452.311 343.68 453.079C343.424 453.431 343.136 453.527 342.688 453.495C342.176 453.495 340.992 453.495 339.648 453.399C340 454.007 340.224 454.935 340.288 455.607C341.632 455.671 343.008 455.671 343.776 455.607C344.64 455.479 345.152 455.255 345.664 454.551C346.528 453.431 346.72 449.783 346.944 439.095C346.976 438.775 346.976 438.007 346.976 438.007H344.672ZM351.424 432.279V434.519H363.584V432.279H351.424ZM352.16 426.295C351.232 431.799 349.568 437.175 347.008 440.567C347.584 440.919 348.64 441.719 349.056 442.135C351.68 438.423 353.536 432.695 354.624 426.647L352.16 426.295ZM358.976 433.495C357.504 443.735 354.112 450.167 346.208 453.719C346.688 454.231 347.392 455.287 347.616 455.831C355.936 451.703 359.584 444.887 361.344 433.751L358.976 433.495ZM352.352 434.327L350.272 434.711C352.032 444.439 355.36 452.151 362.112 455.671C362.464 455.031 363.232 454.103 363.808 453.623C357.312 450.583 353.92 443.191 352.352 434.327ZM337.984 432.599V440.407C337.984 444.919 337.504 450.007 333.568 454.167C334.176 454.583 334.944 455.223 335.36 455.703C339.616 451.191 340.256 445.719 340.256 440.407V432.599H337.984ZM371.104 456.599C374.464 455.447 376.64 452.823 376.64 449.367C376.64 447.127 375.68 445.655 373.888 445.655C372.608 445.655 371.456 446.455 371.456 447.959C371.456 449.495 372.544 450.263 373.856 450.263C374.464 450.263 375.104 450.103 375.552 449.527L373.824 447.095L374.432 449.815C374.432 452.215 372.992 453.847 370.368 454.935L371.104 456.599ZM9.536 473.471V475.551H20.128V473.471H9.536ZM9.984 471.231C8.48 474.655 5.504 478.815 1.12 481.855C1.696 482.207 2.528 483.039 2.912 483.615C7.552 480.191 10.688 475.743 12.672 471.679L9.984 471.231ZM6.56 478.943V481.119H30.08V478.943H6.56ZM12.288 484.191V486.303H24.224V484.191H12.288ZM11.072 484.191V496.543C11.072 499.711 12.352 500.479 16.416 500.479C17.344 500.479 24.64 500.479 25.6 500.479C29.376 500.479 30.208 499.167 30.624 494.399C29.952 494.271 28.96 493.887 28.384 493.471C28.16 497.535 27.776 498.271 25.504 498.271C23.936 498.271 17.696 498.271 16.448 498.271C13.92 498.271 13.44 497.951 13.44 496.543V484.191H11.072ZM23.488 484.191V484.543C23.2 489.247 22.912 491.039 22.464 491.551C22.208 491.807 21.92 491.839 21.376 491.839C20.864 491.839 19.392 491.807 17.856 491.679C18.24 492.255 18.464 493.151 18.528 493.791C20.096 493.887 21.664 493.887 22.432 493.823C23.328 493.759 23.904 493.567 24.416 492.991C25.152 492.223 25.472 490.207 25.76 485.151C25.792 484.831 25.824 484.191 25.824 484.191H23.488ZM5.376 478.943V485.151C5.376 489.407 4.896 495.135 1.024 499.295C1.536 499.583 2.496 500.415 2.88 500.895C6.976 496.479 7.744 489.855 7.744 485.183V478.943H5.376ZM19.264 473.471V473.951C18.656 475.583 17.312 478.111 16.096 479.615C16.672 479.935 17.472 480.415 17.984 480.799C19.328 479.135 20.96 476.575 22.016 474.463L20.256 473.343L19.84 473.471H19.264ZM47.968 476.991V488.543H50.4V476.991H47.968ZM39.488 479.295V481.215H59.168V479.295H39.488ZM38.336 483.359V485.279H60.448V483.359H38.336ZM40.608 497.727V499.711H58.08V497.727H40.608ZM35.168 487.647V489.663H63.456V487.647H35.168ZM39.68 491.583V500.767H42.016V493.567H56.768V500.639H59.2V491.583H39.68ZM47.968 471.295V475.647H50.432V471.295H47.968ZM36.032 474.495V480.191H38.4V476.671H60.16V480.191H62.592V474.495H36.032ZM75.168 496.959V499.231H97.056V496.959H75.168ZM81.76 474.079V476.159H90.048V474.079H81.76ZM85.152 481.215V492.767H87.392V481.215H85.152ZM82.304 471.327C80.544 475.263 77.664 479.103 74.56 481.535C75.072 481.951 75.968 482.847 76.352 483.295C79.424 480.575 82.56 476.383 84.576 472.031L82.304 471.327ZM89.28 474.079V474.559C88.576 476.255 87.136 478.687 85.856 480.159C86.272 480.479 86.944 481.183 87.296 481.631C88.896 479.967 90.688 477.343 91.904 475.039L90.336 473.951L89.856 474.079H89.28ZM79.84 487.711H92.8V491.679H79.84V487.711ZM79.84 481.919H92.8V485.823H79.84V481.919ZM77.632 479.935V493.663H95.072V479.935H77.632ZM69.408 473.375C71.36 474.399 73.856 475.999 75.072 477.087L76.448 475.135C75.232 474.047 72.704 472.575 70.784 471.615L69.408 473.375ZM67.68 481.983C69.664 482.911 72.128 484.383 73.344 485.439L74.72 483.455C73.472 482.431 70.976 481.055 69.024 480.191L67.68 481.983ZM68.608 498.879L70.688 500.287C72.288 497.311 74.24 493.311 75.68 489.919L73.792 488.511C72.256 492.159 70.08 496.383 68.608 498.879ZM101.76 496.703V499.103H129.984V496.703H101.76ZM110.72 471.711V497.695H113.152V471.711H110.72ZM118.56 471.711V497.855H120.992V471.711H118.56ZM127.136 478.751C125.888 482.303 123.616 486.943 121.824 489.855L123.808 490.911C125.632 487.903 127.808 483.487 129.344 479.775L127.136 478.751ZM102.464 479.327C104.128 482.943 106.048 487.807 106.816 490.655L109.216 489.759C108.352 486.943 106.368 482.207 104.672 478.655L102.464 479.327ZM150.752 471.391C150.912 486.559 153.728 500.767 160.096 500.767C162.528 500.767 163.456 499.199 163.872 493.663C163.2 493.439 162.304 492.863 161.76 492.319C161.568 496.575 161.216 498.271 160.288 498.271C156.384 498.271 153.248 486.015 153.312 471.391H150.752ZM155.232 472.895C157.216 473.823 159.552 475.327 160.704 476.415L162.176 474.719C160.992 473.663 158.624 472.255 156.64 471.423L155.232 472.895ZM159.424 481.087C156.896 489.151 152.288 495.295 145.632 498.879C146.144 499.327 147.104 500.287 147.456 500.767C154.176 496.735 159.008 490.303 161.792 481.663L159.424 481.087ZM135.264 476.415V478.783H163.072V476.415H135.264ZM135.104 496.095L135.552 498.559C139.296 497.759 144.544 496.607 149.44 495.519L149.248 493.215C144.032 494.335 138.592 495.423 135.104 496.095ZM139.328 483.711H145.856V489.311H139.328V483.711ZM137.12 481.631V491.359H148.224V481.631H137.12ZM180.064 475.327V477.439H195.36V475.327H180.064ZM176.16 481.535V483.615H196.736V481.535H176.16ZM180.608 471.743C179.584 474.719 177.92 477.663 175.904 479.615C176.48 479.903 177.472 480.447 177.952 480.831C179.872 478.719 181.728 475.551 182.848 472.255L180.608 471.743ZM185.28 471.327V482.879H187.648V471.327H185.28ZM174.752 483.935H167.936V486.175H172.416V495.263H174.752V483.935ZM174.752 494.207H172.576C170.944 495.583 169.056 496.991 167.52 498.015L168.8 500.479C170.528 499.071 172.16 497.695 173.696 496.319C175.744 498.847 178.624 499.967 182.784 500.127C186.336 500.255 192.96 500.191 196.48 500.063C196.576 499.327 196.992 498.175 197.248 497.599C193.472 497.855 186.272 497.951 182.784 497.823C179.104 497.663 176.256 496.575 174.752 494.207ZM168.288 473.535C170.368 474.943 172.768 477.119 173.792 478.655L175.68 477.087C174.56 475.519 172.16 473.439 170.048 472.095L168.288 473.535ZM181.376 488.127H191.968V493.183H181.376V488.127ZM179.04 486.111V495.199H194.464V486.111H179.04ZM205.12 483.295V485.535H213.088V483.295H205.12ZM212.128 483.295V483.711C212.032 490.623 211.872 493.023 211.392 493.599C211.168 493.887 210.848 493.919 210.4 493.919C209.856 493.919 208.448 493.919 207.008 493.791C207.36 494.399 207.616 495.327 207.68 496.031C209.248 496.095 210.688 496.127 211.52 496.031C212.416 495.935 212.928 495.711 213.44 495.135C214.112 494.239 214.304 491.551 214.464 484.319C214.464 483.999 214.464 483.295 214.464 483.295H212.128ZM221.152 472.927C223.168 473.983 225.632 475.615 226.848 476.735L228.352 475.103C227.104 473.983 224.576 472.447 222.592 471.423L221.152 472.927ZM225.728 481.599C223.328 489.311 218.816 495.167 212.32 498.623C212.832 499.103 213.728 500.095 214.08 500.575C220.64 496.703 225.408 490.527 228.128 482.175L225.728 481.599ZM205.312 476.735V479.103H230.08V476.735H205.312ZM203.776 476.735V485.727C203.776 489.919 203.488 495.423 200.832 499.359C201.408 499.647 202.432 500.479 202.848 500.959C205.76 496.767 206.272 490.303 206.272 485.759V476.735H203.776ZM217.056 471.359C217.184 486.687 220.064 500.511 226.592 500.511C229.024 500.511 229.92 498.943 230.368 493.471C229.728 493.247 228.832 492.703 228.288 492.159C228.096 496.415 227.68 498.079 226.784 498.079C222.624 498.079 219.488 486.079 219.552 471.359H217.056ZM236.672 481.599V483.967H261.28V481.599H236.672ZM234.624 496.959V499.327H263.328V496.959H234.624ZM247.616 471.423V498.463H250.144V471.423H247.616ZM286.56 471.295V493.599H288.832V471.295H286.56ZM276.48 484.511L277.408 486.623L294.624 479.295L293.728 477.247L276.48 484.511ZM279.936 474.303V495.679C279.936 499.167 281.024 500.031 284.704 500.031C285.504 500.031 291.712 500.031 292.576 500.031C295.936 500.031 296.704 498.623 297.088 494.207C296.416 494.079 295.488 493.695 294.912 493.311C294.688 496.991 294.368 497.855 292.48 497.855C291.2 497.855 285.824 497.855 284.768 497.855C282.624 497.855 282.24 497.471 282.24 495.711V474.303H279.936ZM293.312 477.567C293.312 483.935 293.28 488.479 293.088 489.311C292.928 490.047 292.608 490.175 292.128 490.175C291.776 490.175 290.72 490.175 289.984 490.143C290.272 490.687 290.464 491.583 290.56 492.223C291.424 492.223 292.704 492.223 293.568 491.999C294.496 491.775 295.104 491.167 295.296 489.887C295.52 488.639 295.616 483.839 295.616 477.823L295.712 477.375L294.016 476.735L293.6 477.087L293.024 477.567H293.312ZM267.552 479.007V481.279H277.728V479.007H267.552ZM271.68 471.679V492.447H273.952V471.679H271.68ZM267.264 493.279L268.224 495.647C271.072 494.431 274.688 492.799 278.112 491.167L277.6 489.023C273.792 490.655 269.856 492.319 267.264 493.279ZM309.792 480.607V482.879H330.208V480.607H309.792ZM312 473.343V475.647H327.968V473.343H312ZM314.464 488.191V490.463H325.824V488.191H314.464ZM314.72 481.983C314.24 484.703 313.408 488.223 312.736 490.463H315.168C315.776 488.287 316.544 484.831 317.12 481.983H314.72ZM325.152 488.191V488.543C324.704 494.527 324.224 497.119 323.328 497.823C322.976 498.079 322.496 498.111 321.76 498.111C320.768 498.111 318.112 498.079 315.52 497.855C316 498.495 316.384 499.455 316.448 500.159C318.912 500.319 321.248 500.351 322.464 500.255C323.84 500.223 324.64 500.031 325.408 499.295C326.464 498.271 327.008 495.615 327.52 489.247C327.552 488.927 327.616 488.191 327.616 488.191H325.152ZM302.368 473.471C304.352 474.559 307.04 476.127 308.416 477.087L309.792 475.071C308.384 474.207 305.664 472.735 303.712 471.743L302.368 473.471ZM300.832 482.239C302.784 483.263 305.44 484.799 306.752 485.695L308.096 483.743C306.752 482.815 304.064 481.407 302.176 480.479L300.832 482.239ZM301.92 498.687L303.936 500.319C305.824 497.343 308.064 493.343 309.76 489.951L308.032 488.383C306.176 492.031 303.648 496.255 301.92 498.687ZM334.592 488.927V491.071H363.008V488.927H334.592ZM343.776 474.879V477.055H356.736V474.879H343.776ZM347.552 485.471V500.735H349.984V485.471H347.552ZM346.4 489.855C343.776 493.407 338.624 496.735 333.952 498.271C334.496 498.751 335.2 499.647 335.552 500.223C340.256 498.399 345.44 494.783 348.32 490.687L346.4 489.855ZM351.04 489.823L349.088 490.687C351.936 494.783 357.088 498.303 362.016 500.031C362.368 499.423 363.104 498.495 363.616 498.015C358.72 496.575 353.6 493.439 351.04 489.823ZM334.208 477.727C336.064 478.335 338.432 479.327 339.68 480.095L340.704 478.271C339.456 477.535 337.056 476.639 335.232 476.127L334.208 477.727ZM336.384 473.151C338.24 473.759 340.64 474.815 341.856 475.551L342.88 473.759C341.632 473.055 339.232 472.095 337.376 471.551L336.384 473.151ZM335.008 485.919L336.768 487.583C338.528 485.759 340.544 483.615 342.272 481.631L340.8 480.127C338.88 482.303 336.608 484.575 335.008 485.919ZM355.424 474.879V482.783C355.424 484.671 355.648 485.215 356.16 485.663C356.672 486.079 357.504 486.239 358.208 486.239C358.592 486.239 359.616 486.239 360.096 486.239C360.704 486.239 361.44 486.143 361.888 485.951C362.4 485.695 362.752 485.343 362.976 484.703C363.2 484.127 363.296 482.559 363.36 481.151C362.656 480.895 361.76 480.479 361.28 480.031C361.248 481.535 361.216 482.687 361.152 483.231C361.056 483.711 360.896 483.967 360.704 484.063C360.544 484.159 360.192 484.223 359.84 484.223C359.52 484.223 358.944 484.223 358.688 484.223C358.368 484.223 358.144 484.159 357.984 484.063C357.824 483.935 357.792 483.583 357.792 482.879V474.879H355.424ZM349.248 471.327C349.152 478.975 347.264 483.135 341.376 485.343C341.888 485.727 342.784 486.687 343.04 487.167C349.152 484.415 351.424 479.903 351.68 471.295L349.248 471.327ZM372.288 490.399C369.6 490.399 367.392 492.575 367.392 495.263C367.392 497.951 369.6 500.127 372.288 500.127C374.976 500.127 377.152 497.951 377.152 495.263C377.152 492.575 374.976 490.399 372.288 490.399ZM372.288 498.495C370.496 498.495 369.024 497.055 369.024 495.263C369.024 493.471 370.496 492.031 372.288 492.031C374.08 492.031 375.52 493.471 375.52 495.263C375.52 497.055 374.08 498.495 372.288 498.495Z" fill="black"/>
</svg>
