<svg width="180" height="47" viewBox="0 0 180 47" fill="none" xmlns="http://www.w3.org/2000/svg">
<path d="M20.88 18.604C22.533 20.982 24.36 24.172 25.056 26.173L28.42 24.607C27.608 22.548 25.636 19.503 23.983 17.27L20.88 18.604ZM12.615 3.437V13.935H16.211V3.437H12.615ZM1.479 12.688V16.023H27.637V12.688H1.479ZM4.379 6.395V9.701H25.172V6.395H4.379ZM16.182 14.689V26.637C16.182 27.014 16.037 27.101 15.602 27.101C15.196 27.13 13.717 27.159 12.441 27.101C12.934 28.058 13.456 29.566 13.601 30.581C15.689 30.581 17.226 30.523 18.386 29.972C19.546 29.392 19.836 28.464 19.836 26.724V14.689H16.182ZM4.727 17.502C4.002 19.706 2.407 22.461 0.551 24.114C1.363 24.549 2.639 25.419 3.364 26.057C5.336 24.172 7.105 21.127 8.236 18.401L4.727 17.502ZM9.918 14.022V17.27C9.918 20.576 9.396 25.013 4.466 28.203C5.336 28.783 6.583 30.001 7.105 30.784C12.76 26.985 13.427 21.475 13.427 17.357V14.022H9.918ZM40.049 4.887V14.225C40.049 18.691 39.788 24.781 36.569 28.928C37.41 29.276 38.86 30.146 39.498 30.697C42.891 26.289 43.384 19.184 43.384 14.225V4.887H40.049ZM44.66 15.066V26.028C44.66 29.363 45.501 30.378 48.807 30.378C49.474 30.378 52.229 30.378 52.896 30.378C55.796 30.378 56.666 29.044 57.014 24.375C56.144 24.172 54.723 23.621 54.027 23.07C53.882 26.666 53.708 27.304 52.635 27.304C51.997 27.304 49.764 27.304 49.271 27.304C48.111 27.304 47.937 27.13 47.937 25.999V15.066H44.66ZM53.563 16.11C51.707 17.705 48.604 19.445 45.762 20.634C46.168 21.301 46.69 22.403 46.893 23.07C49.996 21.91 53.505 20.315 56.115 18.546L53.563 16.11ZM41.499 4.887V8.077H52.258V10.919H41.499V14.109H55.651V4.887H41.499ZM31.291 6.25C33.147 7.062 35.496 8.425 36.598 9.469L38.628 6.598C37.439 5.612 35.032 4.394 33.176 3.698L31.291 6.25ZM29.783 14.283C31.639 15.066 34.017 16.4 35.119 17.386L37.062 14.486C35.844 13.529 33.437 12.34 31.581 11.673L29.783 14.283ZM30.537 27.913L33.64 30.059C35.177 27.188 36.772 23.824 38.077 20.75L35.322 18.633C33.843 22.026 31.9 25.68 30.537 27.913ZM59.015 6.424V9.614H70.267V6.424H59.015ZM64.496 11.383V30.552H67.831V11.383H64.496ZM58.783 22.664L59.45 25.999C62.727 25.448 67.048 24.694 71.108 23.969L70.963 20.953C66.526 21.62 61.857 22.287 58.783 22.664ZM60.088 19.01C60.088 18.459 61.886 17.357 61.886 17.357V17.299C63.655 13.819 65.54 8.773 66.584 3.988L63.22 3.35C62.669 7.729 61.103 12.659 60.581 13.819C60.059 15.066 59.653 15.907 59.044 16.081C59.45 16.893 59.943 18.401 60.088 19.01ZM60.088 19.01C60.349 18.749 61.422 18.575 62.35 18.575H69.977V15.443H61.596L60.088 16.255V19.01ZM74.298 17.357V20.605H82.795V17.357H74.298ZM81.954 17.357V17.705C80.649 19.648 78.097 23.099 75.951 25.709L78.909 27.101C81.142 24.375 83.636 21.098 85.463 18.401L83.027 17.183L82.505 17.357H81.954ZM72.5 24.578C75.661 26.347 79.402 29.073 81.229 30.784L83.491 28.058C81.577 26.376 77.923 24.027 74.733 22.374L72.5 24.578ZM76.879 3.408C75.69 8.918 73.66 16.197 72.152 20.605H75.864C77.14 16.458 78.996 9.382 80.33 3.843L76.879 3.408ZM71.369 6.453V9.643H84.999V6.453H71.369ZM70.354 11.876V15.095H86.014V11.876H70.354ZM100.833 4.133V24.984C100.833 29.102 101.906 30.262 105.56 30.262C106.343 30.262 109.707 30.262 110.548 30.262C113.97 30.262 114.898 28.406 115.333 23.389C114.347 23.186 112.926 22.548 112.085 21.939C111.882 26.028 111.65 27.043 110.229 27.043C109.533 27.043 106.633 27.043 105.995 27.043C104.574 27.043 104.371 26.753 104.371 25.013V4.133H100.833ZM111.708 8.976C109.127 11.18 105.27 13.79 101.674 15.501C102.167 16.255 102.834 17.473 103.066 18.285C106.836 16.516 110.983 14.341 114.26 12.021L111.708 8.976ZM95.236 3.756C93.438 8.135 90.393 12.427 87.261 15.124C87.899 15.994 88.914 17.908 89.262 18.807C92.916 15.443 96.483 10.078 98.658 4.916L95.236 3.756ZM92.162 11.934V30.552H95.642V8.57L95.584 8.512L92.162 11.934ZM127.165 7.526V10.716H143.376V7.526H127.165ZM127.687 14.196V17.357H140.07V14.196H127.687ZM133.429 3.379V15.907H136.851V3.379H133.429ZM131.457 16.719L128.325 17.618C130.964 24.143 135.343 28.609 142.303 30.639C142.767 29.74 143.753 28.348 144.507 27.652C137.953 26.028 133.545 22.084 131.457 16.719ZM139.722 14.196V14.747C137.953 21.504 132.501 25.767 125.483 27.42C126.15 28.145 126.991 29.624 127.339 30.552C135.053 28.29 140.882 23.592 143.202 14.979L140.969 14.08L140.36 14.196H139.722ZM116.783 18.111L117.682 21.446C120.379 20.75 123.83 19.851 127.049 18.981L126.614 15.791C123.076 16.69 119.335 17.589 116.783 18.111ZM117.16 8.889V12.137H126.788V8.889H117.16ZM120.495 3.379V26.753C120.495 27.159 120.35 27.304 119.944 27.304C119.567 27.304 118.349 27.304 117.218 27.275C117.624 28.174 118.088 29.566 118.175 30.465C120.263 30.465 121.655 30.349 122.641 29.827C123.627 29.305 123.917 28.435 123.917 26.782V3.379H120.495ZM162.313 12.804L159.442 13.935C162.139 19.068 166.431 24.375 170.549 27.478C171.216 26.492 172.463 25.071 173.362 24.346C169.244 21.765 164.691 17.067 162.313 12.804ZM157.238 12.891C154.947 17.589 150.423 22.258 145.609 24.636C146.45 25.361 147.639 26.782 148.277 27.71C153.236 24.81 157.644 19.706 160.37 14.022L157.238 12.891ZM146.769 10.513V13.935H172.144V10.513H146.769ZM157.644 3.408V30.639H161.501V3.408H157.644ZM162.545 5.757C164.169 7.062 166.344 8.947 167.359 10.136L170.056 7.729C168.954 6.569 166.692 4.829 165.126 3.64L162.545 5.757Z" fill="url(#paint0_linear_592_2)"/>
<line x1="7" y1="45.5" x2="169" y2="45.5" stroke="url(#paint1_linear_592_2)" stroke-width="3"/>
<defs>
<linearGradient id="paint0_linear_592_2" x1="147.302" y1="-42.4699" x2="67.7147" y2="74.7771" gradientUnits="userSpaceOnUse">
<stop stop-color="#EF2626"/>
<stop offset="1" stop-color="#F08200" stop-opacity="0.88"/>
</linearGradient>
<linearGradient id="paint1_linear_592_2" x1="2.5001" y1="47.0287" x2="169" y2="46.9965" gradientUnits="userSpaceOnUse">
<stop stop-color="#F38F2D"/>
<stop offset="1" stop-color="#F04323"/>
</linearGradient>
</defs>
</svg>
