<svg width="233" height="63" viewBox="0 0 233 63" fill="none" xmlns="http://www.w3.org/2000/svg">
<line x1="20" y1="61.5" x2="180" y2="61.5" stroke="#FF7A00" stroke-width="3"/>
<path d="M23.04 20.632C24.864 23.256 26.88 26.776 27.648 28.984L31.36 27.256C30.464 24.984 28.288 21.624 26.464 19.16L23.04 20.632ZM13.92 3.896V15.48H17.888V3.896H13.92ZM1.632 14.104V17.784H30.496V14.104H1.632ZM4.832 7.16V10.808H27.776V7.16H4.832ZM17.856 16.312V29.496C17.856 29.912 17.696 30.008 17.216 30.008C16.768 30.04 15.136 30.072 13.728 30.008C14.272 31.064 14.848 32.728 15.008 33.848C17.312 33.848 19.008 33.784 20.288 33.176C21.568 32.536 21.888 31.512 21.888 29.592V16.312H17.856ZM5.216 19.416C4.416 21.848 2.656 24.888 0.608 26.712C1.504 27.192 2.912 28.152 3.712 28.856C5.888 26.776 7.84 23.416 9.088 20.408L5.216 19.416ZM10.944 15.576V19.16C10.944 22.808 10.368 27.704 4.928 31.224C5.888 31.864 7.264 33.208 7.84 34.072C14.08 29.88 14.816 23.8 14.816 19.256V15.576H10.944ZM44.192 5.496V15.8C44.192 20.728 43.904 27.448 40.352 32.024C41.28 32.408 42.88 33.368 43.584 33.976C47.328 29.112 47.872 21.272 47.872 15.8V5.496H44.192ZM49.28 16.728V28.824C49.28 32.504 50.208 33.624 53.856 33.624C54.592 33.624 57.632 33.624 58.368 33.624C61.568 33.624 62.528 32.152 62.912 27C61.952 26.776 60.384 26.168 59.616 25.56C59.456 29.528 59.264 30.232 58.08 30.232C57.376 30.232 54.912 30.232 54.368 30.232C53.088 30.232 52.896 30.04 52.896 28.792V16.728H49.28ZM59.104 17.88C57.056 19.64 53.632 21.56 50.496 22.872C50.944 23.608 51.52 24.824 51.744 25.56C55.168 24.28 59.04 22.52 61.92 20.568L59.104 17.88ZM45.792 5.496V9.016H57.664V12.152H45.792V15.672H61.408V5.496H45.792ZM34.528 7C36.576 7.896 39.168 9.4 40.384 10.552L42.624 7.384C41.312 6.296 38.656 4.952 36.608 4.184L34.528 7ZM32.864 15.864C34.912 16.728 37.536 18.2 38.752 19.288L40.896 16.088C39.552 15.032 36.896 13.72 34.848 12.984L32.864 15.864ZM33.696 30.904L37.12 33.272C38.816 30.104 40.576 26.392 42.016 23L38.976 20.664C37.344 24.408 35.2 28.44 33.696 30.904ZM65.12 7.192V10.712H77.536V7.192H65.12ZM71.168 12.664V33.816H74.848V12.664H71.168ZM64.864 25.112L65.6 28.792C69.216 28.184 73.984 27.352 78.464 26.552L78.304 23.224C73.408 23.96 68.256 24.696 64.864 25.112ZM66.304 21.08C66.304 20.472 68.288 19.256 68.288 19.256V19.192C70.24 15.352 72.32 9.784 73.472 4.504L69.76 3.8C69.152 8.632 67.424 14.072 66.848 15.352C66.272 16.728 65.824 17.656 65.152 17.848C65.6 18.744 66.144 20.408 66.304 21.08ZM66.304 21.08C66.592 20.792 67.776 20.6 68.8 20.6H77.216V17.144H67.968L66.304 18.04V21.08ZM81.984 19.256V22.84H91.36V19.256H81.984ZM90.432 19.256V19.64C88.992 21.784 86.176 25.592 83.808 28.472L87.072 30.008C89.536 27 92.288 23.384 94.304 20.408L91.616 19.064L91.04 19.256H90.432ZM80 27.224C83.488 29.176 87.616 32.184 89.632 34.072L92.128 31.064C90.016 29.208 85.984 26.616 82.464 24.792L80 27.224ZM84.832 3.864C83.52 9.944 81.28 17.976 79.616 22.84H83.712C85.12 18.264 87.168 10.456 88.64 4.344L84.832 3.864ZM78.752 7.224V10.744H93.792V7.224H78.752ZM77.632 13.208V16.76H94.912V13.208H77.632ZM111.264 4.664V27.672C111.264 32.216 112.448 33.496 116.48 33.496C117.344 33.496 121.056 33.496 121.984 33.496C125.76 33.496 126.784 31.448 127.264 25.912C126.176 25.688 124.608 24.984 123.68 24.312C123.456 28.824 123.2 29.944 121.632 29.944C120.864 29.944 117.664 29.944 116.96 29.944C115.392 29.944 115.168 29.624 115.168 27.704V4.664H111.264ZM123.264 10.008C120.416 12.44 116.16 15.32 112.192 17.208C112.736 18.04 113.472 19.384 113.728 20.28C117.888 18.328 122.464 15.928 126.08 13.368L123.264 10.008ZM105.088 4.248C103.104 9.08 99.744 13.816 96.288 16.792C96.992 17.752 98.112 19.864 98.496 20.856C102.528 17.144 106.464 11.224 108.864 5.528L105.088 4.248ZM101.696 13.272V33.816H105.536V9.56L105.472 9.496L101.696 13.272ZM140.32 8.408V11.928H158.208V8.408H140.32ZM140.896 15.768V19.256H154.56V15.768H140.896ZM147.232 3.832V17.656H151.008V3.832H147.232ZM145.056 18.552L141.6 19.544C144.512 26.744 149.344 31.672 157.024 33.912C157.536 32.92 158.624 31.384 159.456 30.616C152.224 28.824 147.36 24.472 145.056 18.552ZM154.176 15.768V16.376C152.224 23.832 146.208 28.536 138.464 30.36C139.2 31.16 140.128 32.792 140.512 33.816C149.024 31.32 155.456 26.136 158.016 16.632L155.552 15.64L154.88 15.768H154.176ZM128.864 20.088L129.856 23.768C132.832 23 136.64 22.008 140.192 21.048L139.712 17.528C135.808 18.52 131.68 19.512 128.864 20.088ZM129.28 9.912V13.496H139.904V9.912H129.28ZM132.96 3.832V29.624C132.96 30.072 132.8 30.232 132.352 30.232C131.936 30.232 130.592 30.232 129.344 30.2C129.792 31.192 130.304 32.728 130.4 33.72C132.704 33.72 134.24 33.592 135.328 33.016C136.416 32.44 136.736 31.48 136.736 29.656V3.832H132.96ZM179.104 14.232L175.936 15.48C178.912 21.144 183.648 27 188.192 30.424C188.928 29.336 190.304 27.768 191.296 26.968C186.752 24.12 181.728 18.936 179.104 14.232ZM173.504 14.328C170.976 19.512 165.984 24.664 160.672 27.288C161.6 28.088 162.912 29.656 163.616 30.68C169.088 27.48 173.952 21.848 176.96 15.576L173.504 14.328ZM161.952 11.704V15.48H189.952V11.704H161.952ZM173.952 3.864V33.912H178.208V3.864H173.952ZM179.36 6.456C181.152 7.896 183.552 9.976 184.672 11.288L187.648 8.632C186.432 7.352 183.936 5.432 182.208 4.12L179.36 6.456Z" fill="white"/>
<line x1="25" y1="50.5" x2="171" y2="50.5" stroke="white" stroke-width="3"/>
</svg>
