<svg width="974" height="240" viewBox="0 0 974 240" fill="none" xmlns="http://www.w3.org/2000/svg">
<rect width="300" height="200" rx="18" fill="#CCCCCC"/>
<path d="M61.92 220.728C63.376 222.888 66.176 225.368 68.688 226.824C68.912 226.472 69.216 226.072 69.504 225.768C66.96 224.488 64.144 222.04 62.464 219.528H61.248C60 221.736 57.328 224.392 54.528 225.96C54.8 226.216 55.136 226.648 55.296 226.92C58.032 225.288 60.64 222.792 61.92 220.728ZM62.032 227.64V228.728H67.344V227.64H62.032ZM55.2 232.728V233.832H68.848V232.728H55.2ZM61.456 223.88V233.304H62.72V223.88H61.456ZM57.232 226.776V233.256H58.4V226.776H57.232ZM70.96 232.264V233.464H85.072V232.264H70.96ZM75.44 219.768V232.76H76.656V219.768H75.44ZM79.36 219.768V232.84H80.576V219.768H79.36ZM83.648 223.288C83.024 225.064 81.888 227.384 80.992 228.84L81.984 229.368C82.896 227.864 83.984 225.656 84.752 223.8L83.648 223.288ZM71.312 223.576C72.144 225.384 73.104 227.816 73.488 229.24L74.688 228.792C74.256 227.384 73.264 225.016 72.416 223.24L71.312 223.576ZM93.92 220.728C95.376 222.888 98.176 225.368 100.688 226.824C100.912 226.472 101.216 226.072 101.504 225.768C98.96 224.488 96.144 222.04 94.464 219.528H93.248C92 221.736 89.328 224.392 86.528 225.96C86.8 226.216 87.136 226.648 87.296 226.92C90.032 225.288 92.64 222.792 93.92 220.728ZM94.032 227.64V228.728H99.344V227.64H94.032ZM87.2 232.728V233.832H100.848V232.728H87.2ZM93.456 223.88V233.304H94.72V223.88H93.456ZM89.232 226.776V233.256H90.4V226.776H89.232ZM102.96 232.264V233.464H117.072V232.264H102.96ZM107.44 219.768V232.76H108.656V219.768H107.44ZM111.36 219.768V232.84H112.576V219.768H111.36ZM115.648 223.288C115.024 225.064 113.888 227.384 112.992 228.84L113.984 229.368C114.896 227.864 115.984 225.656 116.752 223.8L115.648 223.288ZM103.312 223.576C104.144 225.384 105.104 227.816 105.488 229.24L106.688 228.792C106.256 227.384 105.264 225.016 104.416 223.24L103.312 223.576ZM125.92 220.728C127.376 222.888 130.176 225.368 132.688 226.824C132.912 226.472 133.216 226.072 133.504 225.768C130.96 224.488 128.144 222.04 126.464 219.528H125.248C124 221.736 121.328 224.392 118.528 225.96C118.8 226.216 119.136 226.648 119.296 226.92C122.032 225.288 124.64 222.792 125.92 220.728ZM126.032 227.64V228.728H131.344V227.64H126.032ZM119.2 232.728V233.832H132.848V232.728H119.2ZM125.456 223.88V233.304H126.72V223.88H125.456ZM121.232 226.776V233.256H122.4V226.776H121.232ZM134.96 232.264V233.464H149.072V232.264H134.96ZM139.44 219.768V232.76H140.656V219.768H139.44ZM143.36 219.768V232.84H144.576V219.768H143.36ZM147.648 223.288C147.024 225.064 145.888 227.384 144.992 228.84L145.984 229.368C146.896 227.864 147.984 225.656 148.752 223.8L147.648 223.288ZM135.312 223.576C136.144 225.384 137.104 227.816 137.488 229.24L138.688 228.792C138.256 227.384 137.264 225.016 136.416 223.24L135.312 223.576ZM157.92 220.728C159.376 222.888 162.176 225.368 164.688 226.824C164.912 226.472 165.216 226.072 165.504 225.768C162.96 224.488 160.144 222.04 158.464 219.528H157.248C156 221.736 153.328 224.392 150.528 225.96C150.8 226.216 151.136 226.648 151.296 226.92C154.032 225.288 156.64 222.792 157.92 220.728ZM158.032 227.64V228.728H163.344V227.64H158.032ZM151.2 232.728V233.832H164.848V232.728H151.2ZM157.456 223.88V233.304H158.72V223.88H157.456ZM153.232 226.776V233.256H154.4V226.776H153.232ZM166.96 232.264V233.464H181.072V232.264H166.96ZM171.44 219.768V232.76H172.656V219.768H171.44ZM175.36 219.768V232.84H176.576V219.768H175.36ZM179.648 223.288C179.024 225.064 177.888 227.384 176.992 228.84L177.984 229.368C178.896 227.864 179.984 225.656 180.752 223.8L179.648 223.288ZM167.312 223.576C168.144 225.384 169.104 227.816 169.488 229.24L170.688 228.792C170.256 227.384 169.264 225.016 168.416 223.24L167.312 223.576ZM189.92 220.728C191.376 222.888 194.176 225.368 196.688 226.824C196.912 226.472 197.216 226.072 197.504 225.768C194.96 224.488 192.144 222.04 190.464 219.528H189.248C188 221.736 185.328 224.392 182.528 225.96C182.8 226.216 183.136 226.648 183.296 226.92C186.032 225.288 188.64 222.792 189.92 220.728ZM190.032 227.64V228.728H195.344V227.64H190.032ZM183.2 232.728V233.832H196.848V232.728H183.2ZM189.456 223.88V233.304H190.72V223.88H189.456ZM185.232 226.776V233.256H186.4V226.776H185.232ZM198.96 232.264V233.464H213.072V232.264H198.96ZM203.44 219.768V232.76H204.656V219.768H203.44ZM207.36 219.768V232.84H208.576V219.768H207.36ZM211.648 223.288C211.024 225.064 209.888 227.384 208.992 228.84L209.984 229.368C210.896 227.864 211.984 225.656 212.752 223.8L211.648 223.288ZM199.312 223.576C200.144 225.384 201.104 227.816 201.488 229.24L202.688 228.792C202.256 227.384 201.264 225.016 200.416 223.24L199.312 223.576ZM221.92 220.728C223.376 222.888 226.176 225.368 228.688 226.824C228.912 226.472 229.216 226.072 229.504 225.768C226.96 224.488 224.144 222.04 222.464 219.528H221.248C220 221.736 217.328 224.392 214.528 225.96C214.8 226.216 215.136 226.648 215.296 226.92C218.032 225.288 220.64 222.792 221.92 220.728ZM222.032 227.64V228.728H227.344V227.64H222.032ZM215.2 232.728V233.832H228.848V232.728H215.2ZM221.456 223.88V233.304H222.72V223.88H221.456ZM217.232 226.776V233.256H218.4V226.776H217.232ZM230.96 232.264V233.464H245.072V232.264H230.96ZM235.44 219.768V232.76H236.656V219.768H235.44ZM239.36 219.768V232.84H240.576V219.768H239.36ZM243.648 223.288C243.024 225.064 241.888 227.384 240.992 228.84L241.984 229.368C242.896 227.864 243.984 225.656 244.752 223.8L243.648 223.288ZM231.312 223.576C232.144 225.384 233.104 227.816 233.488 229.24L234.688 228.792C234.256 227.384 233.264 225.016 232.416 223.24L231.312 223.576Z" fill="black"/>
<rect x="337" width="300" height="200" rx="18" fill="#CCCCCC"/>
<path d="M397.92 220.728C399.376 222.888 402.176 225.368 404.688 226.824C404.912 226.472 405.216 226.072 405.504 225.768C402.96 224.488 400.144 222.04 398.464 219.528H397.248C396 221.736 393.328 224.392 390.528 225.96C390.8 226.216 391.136 226.648 391.296 226.92C394.032 225.288 396.64 222.792 397.92 220.728ZM398.032 227.64V228.728H403.344V227.64H398.032ZM391.2 232.728V233.832H404.848V232.728H391.2ZM397.456 223.88V233.304H398.72V223.88H397.456ZM393.232 226.776V233.256H394.4V226.776H393.232ZM406.96 232.264V233.464H421.072V232.264H406.96ZM411.44 219.768V232.76H412.656V219.768H411.44ZM415.36 219.768V232.84H416.576V219.768H415.36ZM419.648 223.288C419.024 225.064 417.888 227.384 416.992 228.84L417.984 229.368C418.896 227.864 419.984 225.656 420.752 223.8L419.648 223.288ZM407.312 223.576C408.144 225.384 409.104 227.816 409.488 229.24L410.688 228.792C410.256 227.384 409.264 225.016 408.416 223.24L407.312 223.576ZM429.92 220.728C431.376 222.888 434.176 225.368 436.688 226.824C436.912 226.472 437.216 226.072 437.504 225.768C434.96 224.488 432.144 222.04 430.464 219.528H429.248C428 221.736 425.328 224.392 422.528 225.96C422.8 226.216 423.136 226.648 423.296 226.92C426.032 225.288 428.64 222.792 429.92 220.728ZM430.032 227.64V228.728H435.344V227.64H430.032ZM423.2 232.728V233.832H436.848V232.728H423.2ZM429.456 223.88V233.304H430.72V223.88H429.456ZM425.232 226.776V233.256H426.4V226.776H425.232ZM438.96 232.264V233.464H453.072V232.264H438.96ZM443.44 219.768V232.76H444.656V219.768H443.44ZM447.36 219.768V232.84H448.576V219.768H447.36ZM451.648 223.288C451.024 225.064 449.888 227.384 448.992 228.84L449.984 229.368C450.896 227.864 451.984 225.656 452.752 223.8L451.648 223.288ZM439.312 223.576C440.144 225.384 441.104 227.816 441.488 229.24L442.688 228.792C442.256 227.384 441.264 225.016 440.416 223.24L439.312 223.576ZM461.92 220.728C463.376 222.888 466.176 225.368 468.688 226.824C468.912 226.472 469.216 226.072 469.504 225.768C466.96 224.488 464.144 222.04 462.464 219.528H461.248C460 221.736 457.328 224.392 454.528 225.96C454.8 226.216 455.136 226.648 455.296 226.92C458.032 225.288 460.64 222.792 461.92 220.728ZM462.032 227.64V228.728H467.344V227.64H462.032ZM455.2 232.728V233.832H468.848V232.728H455.2ZM461.456 223.88V233.304H462.72V223.88H461.456ZM457.232 226.776V233.256H458.4V226.776H457.232ZM470.96 232.264V233.464H485.072V232.264H470.96ZM475.44 219.768V232.76H476.656V219.768H475.44ZM479.36 219.768V232.84H480.576V219.768H479.36ZM483.648 223.288C483.024 225.064 481.888 227.384 480.992 228.84L481.984 229.368C482.896 227.864 483.984 225.656 484.752 223.8L483.648 223.288ZM471.312 223.576C472.144 225.384 473.104 227.816 473.488 229.24L474.688 228.792C474.256 227.384 473.264 225.016 472.416 223.24L471.312 223.576ZM493.92 220.728C495.376 222.888 498.176 225.368 500.688 226.824C500.912 226.472 501.216 226.072 501.504 225.768C498.96 224.488 496.144 222.04 494.464 219.528H493.248C492 221.736 489.328 224.392 486.528 225.96C486.8 226.216 487.136 226.648 487.296 226.92C490.032 225.288 492.64 222.792 493.92 220.728ZM494.032 227.64V228.728H499.344V227.64H494.032ZM487.2 232.728V233.832H500.848V232.728H487.2ZM493.456 223.88V233.304H494.72V223.88H493.456ZM489.232 226.776V233.256H490.4V226.776H489.232ZM502.96 232.264V233.464H517.072V232.264H502.96ZM507.44 219.768V232.76H508.656V219.768H507.44ZM511.36 219.768V232.84H512.576V219.768H511.36ZM515.648 223.288C515.024 225.064 513.888 227.384 512.992 228.84L513.984 229.368C514.896 227.864 515.984 225.656 516.752 223.8L515.648 223.288ZM503.312 223.576C504.144 225.384 505.104 227.816 505.488 229.24L506.688 228.792C506.256 227.384 505.264 225.016 504.416 223.24L503.312 223.576ZM525.92 220.728C527.376 222.888 530.176 225.368 532.688 226.824C532.912 226.472 533.216 226.072 533.504 225.768C530.96 224.488 528.144 222.04 526.464 219.528H525.248C524 221.736 521.328 224.392 518.528 225.96C518.8 226.216 519.136 226.648 519.296 226.92C522.032 225.288 524.64 222.792 525.92 220.728ZM526.032 227.64V228.728H531.344V227.64H526.032ZM519.2 232.728V233.832H532.848V232.728H519.2ZM525.456 223.88V233.304H526.72V223.88H525.456ZM521.232 226.776V233.256H522.4V226.776H521.232ZM534.96 232.264V233.464H549.072V232.264H534.96ZM539.44 219.768V232.76H540.656V219.768H539.44ZM543.36 219.768V232.84H544.576V219.768H543.36ZM547.648 223.288C547.024 225.064 545.888 227.384 544.992 228.84L545.984 229.368C546.896 227.864 547.984 225.656 548.752 223.8L547.648 223.288ZM535.312 223.576C536.144 225.384 537.104 227.816 537.488 229.24L538.688 228.792C538.256 227.384 537.264 225.016 536.416 223.24L535.312 223.576ZM557.92 220.728C559.376 222.888 562.176 225.368 564.688 226.824C564.912 226.472 565.216 226.072 565.504 225.768C562.96 224.488 560.144 222.04 558.464 219.528H557.248C556 221.736 553.328 224.392 550.528 225.96C550.8 226.216 551.136 226.648 551.296 226.92C554.032 225.288 556.64 222.792 557.92 220.728ZM558.032 227.64V228.728H563.344V227.64H558.032ZM551.2 232.728V233.832H564.848V232.728H551.2ZM557.456 223.88V233.304H558.72V223.88H557.456ZM553.232 226.776V233.256H554.4V226.776H553.232ZM566.96 232.264V233.464H581.072V232.264H566.96ZM571.44 219.768V232.76H572.656V219.768H571.44ZM575.36 219.768V232.84H576.576V219.768H575.36ZM579.648 223.288C579.024 225.064 577.888 227.384 576.992 228.84L577.984 229.368C578.896 227.864 579.984 225.656 580.752 223.8L579.648 223.288ZM567.312 223.576C568.144 225.384 569.104 227.816 569.488 229.24L570.688 228.792C570.256 227.384 569.264 225.016 568.416 223.24L567.312 223.576Z" fill="black"/>
<rect x="674" width="300" height="200" rx="18" fill="#CCCCCC"/>
<path d="M739.92 220.728C741.376 222.888 744.176 225.368 746.688 226.824C746.912 226.472 747.216 226.072 747.504 225.768C744.96 224.488 742.144 222.04 740.464 219.528H739.248C738 221.736 735.328 224.392 732.528 225.96C732.8 226.216 733.136 226.648 733.296 226.92C736.032 225.288 738.64 222.792 739.92 220.728ZM740.032 227.64V228.728H745.344V227.64H740.032ZM733.2 232.728V233.832H746.848V232.728H733.2ZM739.456 223.88V233.304H740.72V223.88H739.456ZM735.232 226.776V233.256H736.4V226.776H735.232ZM748.96 232.264V233.464H763.072V232.264H748.96ZM753.44 219.768V232.76H754.656V219.768H753.44ZM757.36 219.768V232.84H758.576V219.768H757.36ZM761.648 223.288C761.024 225.064 759.888 227.384 758.992 228.84L759.984 229.368C760.896 227.864 761.984 225.656 762.752 223.8L761.648 223.288ZM749.312 223.576C750.144 225.384 751.104 227.816 751.488 229.24L752.688 228.792C752.256 227.384 751.264 225.016 750.416 223.24L749.312 223.576ZM771.92 220.728C773.376 222.888 776.176 225.368 778.688 226.824C778.912 226.472 779.216 226.072 779.504 225.768C776.96 224.488 774.144 222.04 772.464 219.528H771.248C770 221.736 767.328 224.392 764.528 225.96C764.8 226.216 765.136 226.648 765.296 226.92C768.032 225.288 770.64 222.792 771.92 220.728ZM772.032 227.64V228.728H777.344V227.64H772.032ZM765.2 232.728V233.832H778.848V232.728H765.2ZM771.456 223.88V233.304H772.72V223.88H771.456ZM767.232 226.776V233.256H768.4V226.776H767.232ZM780.96 232.264V233.464H795.072V232.264H780.96ZM785.44 219.768V232.76H786.656V219.768H785.44ZM789.36 219.768V232.84H790.576V219.768H789.36ZM793.648 223.288C793.024 225.064 791.888 227.384 790.992 228.84L791.984 229.368C792.896 227.864 793.984 225.656 794.752 223.8L793.648 223.288ZM781.312 223.576C782.144 225.384 783.104 227.816 783.488 229.24L784.688 228.792C784.256 227.384 783.264 225.016 782.416 223.24L781.312 223.576ZM803.92 220.728C805.376 222.888 808.176 225.368 810.688 226.824C810.912 226.472 811.216 226.072 811.504 225.768C808.96 224.488 806.144 222.04 804.464 219.528H803.248C802 221.736 799.328 224.392 796.528 225.96C796.8 226.216 797.136 226.648 797.296 226.92C800.032 225.288 802.64 222.792 803.92 220.728ZM804.032 227.64V228.728H809.344V227.64H804.032ZM797.2 232.728V233.832H810.848V232.728H797.2ZM803.456 223.88V233.304H804.72V223.88H803.456ZM799.232 226.776V233.256H800.4V226.776H799.232ZM812.96 232.264V233.464H827.072V232.264H812.96ZM817.44 219.768V232.76H818.656V219.768H817.44ZM821.36 219.768V232.84H822.576V219.768H821.36ZM825.648 223.288C825.024 225.064 823.888 227.384 822.992 228.84L823.984 229.368C824.896 227.864 825.984 225.656 826.752 223.8L825.648 223.288ZM813.312 223.576C814.144 225.384 815.104 227.816 815.488 229.24L816.688 228.792C816.256 227.384 815.264 225.016 814.416 223.24L813.312 223.576ZM835.92 220.728C837.376 222.888 840.176 225.368 842.688 226.824C842.912 226.472 843.216 226.072 843.504 225.768C840.96 224.488 838.144 222.04 836.464 219.528H835.248C834 221.736 831.328 224.392 828.528 225.96C828.8 226.216 829.136 226.648 829.296 226.92C832.032 225.288 834.64 222.792 835.92 220.728ZM836.032 227.64V228.728H841.344V227.64H836.032ZM829.2 232.728V233.832H842.848V232.728H829.2ZM835.456 223.88V233.304H836.72V223.88H835.456ZM831.232 226.776V233.256H832.4V226.776H831.232ZM844.96 232.264V233.464H859.072V232.264H844.96ZM849.44 219.768V232.76H850.656V219.768H849.44ZM853.36 219.768V232.84H854.576V219.768H853.36ZM857.648 223.288C857.024 225.064 855.888 227.384 854.992 228.84L855.984 229.368C856.896 227.864 857.984 225.656 858.752 223.8L857.648 223.288ZM845.312 223.576C846.144 225.384 847.104 227.816 847.488 229.24L848.688 228.792C848.256 227.384 847.264 225.016 846.416 223.24L845.312 223.576ZM867.92 220.728C869.376 222.888 872.176 225.368 874.688 226.824C874.912 226.472 875.216 226.072 875.504 225.768C872.96 224.488 870.144 222.04 868.464 219.528H867.248C866 221.736 863.328 224.392 860.528 225.96C860.8 226.216 861.136 226.648 861.296 226.92C864.032 225.288 866.64 222.792 867.92 220.728ZM868.032 227.64V228.728H873.344V227.64H868.032ZM861.2 232.728V233.832H874.848V232.728H861.2ZM867.456 223.88V233.304H868.72V223.88H867.456ZM863.232 226.776V233.256H864.4V226.776H863.232ZM876.96 232.264V233.464H891.072V232.264H876.96ZM881.44 219.768V232.76H882.656V219.768H881.44ZM885.36 219.768V232.84H886.576V219.768H885.36ZM889.648 223.288C889.024 225.064 887.888 227.384 886.992 228.84L887.984 229.368C888.896 227.864 889.984 225.656 890.752 223.8L889.648 223.288ZM877.312 223.576C878.144 225.384 879.104 227.816 879.488 229.24L880.688 228.792C880.256 227.384 879.264 225.016 878.416 223.24L877.312 223.576ZM899.92 220.728C901.376 222.888 904.176 225.368 906.688 226.824C906.912 226.472 907.216 226.072 907.504 225.768C904.96 224.488 902.144 222.04 900.464 219.528H899.248C898 221.736 895.328 224.392 892.528 225.96C892.8 226.216 893.136 226.648 893.296 226.92C896.032 225.288 898.64 222.792 899.92 220.728ZM900.032 227.64V228.728H905.344V227.64H900.032ZM893.2 232.728V233.832H906.848V232.728H893.2ZM899.456 223.88V233.304H900.72V223.88H899.456ZM895.232 226.776V233.256H896.4V226.776H895.232ZM908.96 232.264V233.464H923.072V232.264H908.96ZM913.44 219.768V232.76H914.656V219.768H913.44ZM917.36 219.768V232.84H918.576V219.768H917.36ZM921.648 223.288C921.024 225.064 919.888 227.384 918.992 228.84L919.984 229.368C920.896 227.864 921.984 225.656 922.752 223.8L921.648 223.288ZM909.312 223.576C910.144 225.384 911.104 227.816 911.488 229.24L912.688 228.792C912.256 227.384 911.264 225.016 910.416 223.24L909.312 223.576Z" fill="black"/>
</svg>
