<svg width="309" height="49" viewBox="0 0 309 49" fill="none" xmlns="http://www.w3.org/2000/svg">
<path d="M12.209 18.169V21.011H26.941V18.169H12.209ZM10.672 23.65V26.579H27.84V23.65H10.672ZM19.285 16.255V30.61H22.678V16.255H19.285ZM13.804 19.416V24.839H16.82V19.416H13.804ZM2.059 4.626V30.639H5.104V7.729H8.903V4.626H2.059ZM7.83 4.626V5.612C7.424 7.468 6.496 11.47 5.684 14.08C7.337 16.023 7.714 17.821 7.714 19.184C7.714 19.996 7.569 20.576 7.221 20.837C7.018 21.011 6.728 21.069 6.409 21.069C6.061 21.098 5.684 21.069 5.162 21.04C5.626 21.881 5.887 23.186 5.916 24.027C6.583 24.027 7.279 23.998 7.801 23.94C8.439 23.853 8.99 23.65 9.454 23.331C10.382 22.693 10.759 21.475 10.759 19.59C10.759 17.908 10.411 15.965 8.613 13.703C9.454 11.441 10.411 8.28 11.165 5.786L8.903 4.51L8.41 4.626H7.83ZM16.037 5.815V8.512H23.751V5.815H16.037ZM23.084 5.815V6.308C21.315 10.948 16.356 14.08 10.788 15.327C11.397 15.994 12.151 17.241 12.528 18.082C18.734 16.342 24.041 12.833 26.419 6.685L24.273 5.699L23.693 5.815H23.084ZM16.733 7.758L13.949 8.628C16.414 13.268 20.619 16.342 26.506 17.618C26.941 16.777 27.84 15.472 28.507 14.834C22.968 13.906 18.734 11.354 16.733 7.758ZM16.791 3.408C15.747 5.728 13.746 8.309 10.585 10.194C11.31 10.658 12.354 11.731 12.818 12.427C16.298 10.049 18.531 7.12 20.039 3.959L16.791 3.408ZM54.085 13.413C52.809 20.141 50.17 25.332 45.53 28.377C46.139 28.928 47.125 30.117 47.502 30.697C52.432 27.13 55.39 21.388 56.927 13.877L54.085 13.413ZM41.441 7.903V10.803H57.043V7.903H41.441ZM43.239 12.253V14.863H49.01V12.253H43.239ZM39.991 7.903V15.994C39.991 19.851 39.817 25.071 37.729 28.783C38.309 29.073 39.498 30.088 39.962 30.639C42.34 26.579 42.775 20.286 42.775 15.994V7.903H39.991ZM49.271 3.408C49.416 20.431 50.112 30.61 54.027 30.61C56.231 30.61 57.101 29.798 57.478 24.897C56.753 24.694 55.767 23.969 55.1 23.331C54.984 26.55 54.752 27.71 54.346 27.71C53.186 27.71 51.91 20.054 52.171 3.408H49.271ZM43.326 16.4V26.753H45.501V16.4H43.326ZM44.428 16.4V18.807H46.922V22.49H44.428V24.897H49.126V16.4H44.428ZM51.968 5.061C52.983 5.815 54.259 7.12 54.897 7.961L57.043 6.279C56.434 5.467 55.158 4.336 54.056 3.553L51.968 5.061ZM30.16 4.655V7.787H39.121V4.655H30.16ZM32.944 13.703V16.719H36.076V24.056H32.944V27.072H38.715V13.703H32.944ZM33.118 6.308C32.538 10.687 31.494 14.892 29.609 17.618C30.044 18.517 30.682 20.46 30.798 21.301C33.553 17.763 35.09 12.311 36.018 6.888L33.118 6.308ZM31.668 13.703V29.247H34.22V13.703H31.668ZM78.88 18.604C80.533 20.982 82.36 24.172 83.056 26.173L86.42 24.607C85.608 22.548 83.636 19.503 81.983 17.27L78.88 18.604ZM70.615 3.437V13.935H74.211V3.437H70.615ZM59.479 12.688V16.023H85.637V12.688H59.479ZM62.379 6.395V9.701H83.172V6.395H62.379ZM74.182 14.689V26.637C74.182 27.014 74.037 27.101 73.602 27.101C73.196 27.13 71.717 27.159 70.441 27.101C70.934 28.058 71.456 29.566 71.601 30.581C73.689 30.581 75.226 30.523 76.386 29.972C77.546 29.392 77.836 28.464 77.836 26.724V14.689H74.182ZM62.727 17.502C62.002 19.706 60.407 22.461 58.551 24.114C59.363 24.549 60.639 25.419 61.364 26.057C63.336 24.172 65.105 21.127 66.236 18.401L62.727 17.502ZM67.918 14.022V17.27C67.918 20.576 67.396 25.013 62.466 28.203C63.336 28.783 64.583 30.001 65.105 30.784C70.76 26.985 71.427 21.475 71.427 17.357V14.022H67.918ZM98.049 4.887V14.225C98.049 18.691 97.788 24.781 94.569 28.928C95.41 29.276 96.86 30.146 97.498 30.697C100.891 26.289 101.384 19.184 101.384 14.225V4.887H98.049ZM102.66 15.066V26.028C102.66 29.363 103.501 30.378 106.807 30.378C107.474 30.378 110.229 30.378 110.896 30.378C113.796 30.378 114.666 29.044 115.014 24.375C114.144 24.172 112.723 23.621 112.027 23.07C111.882 26.666 111.708 27.304 110.635 27.304C109.997 27.304 107.764 27.304 107.271 27.304C106.111 27.304 105.937 27.13 105.937 25.999V15.066H102.66ZM111.563 16.11C109.707 17.705 106.604 19.445 103.762 20.634C104.168 21.301 104.69 22.403 104.893 23.07C107.996 21.91 111.505 20.315 114.115 18.546L111.563 16.11ZM99.499 4.887V8.077H110.258V10.919H99.499V14.109H113.651V4.887H99.499ZM89.291 6.25C91.147 7.062 93.496 8.425 94.598 9.469L96.628 6.598C95.439 5.612 93.032 4.394 91.176 3.698L89.291 6.25ZM87.783 14.283C89.639 15.066 92.017 16.4 93.119 17.386L95.062 14.486C93.844 13.529 91.437 12.34 89.581 11.673L87.783 14.283ZM88.537 27.913L91.64 30.059C93.177 27.188 94.772 23.824 96.077 20.75L93.322 18.633C91.843 22.026 89.9 25.68 88.537 27.913ZM129.978 12.108V15.124H140.969V12.108H129.978ZM127.194 17.386V20.373H143.724V17.386H127.194ZM127.368 6.714V12.282H130.645V9.643H140.157V12.282H143.608V6.714H127.368ZM134.038 18.662V27.043C134.038 27.333 133.922 27.42 133.574 27.42C133.255 27.449 132.037 27.449 131.022 27.42C131.428 28.29 131.834 29.566 131.95 30.465C133.806 30.494 135.14 30.465 136.155 30.001C137.199 29.479 137.431 28.667 137.431 27.13V18.662H134.038ZM129.804 21.591C128.818 23.534 127.223 25.738 125.773 27.188C126.527 27.623 127.89 28.58 128.528 29.16C129.978 27.507 131.776 24.897 132.994 22.664L129.804 21.591ZM138.214 22.78C139.432 24.723 140.795 27.304 141.346 28.899L144.507 27.507C143.869 25.912 142.39 23.418 141.143 21.591L138.214 22.78ZM133.081 3.93C133.69 5.235 134.328 6.975 134.56 8.106L138.098 7.178C137.808 6.076 137.141 4.394 136.416 3.118L133.081 3.93ZM117.885 23.099C117.885 22.519 119.944 21.591 119.944 21.591V21.533C122.641 18.749 125.454 14.892 127.571 11.122L124.932 9.44C123.047 13.355 120.147 17.357 119.161 18.372C118.262 19.416 117.624 20.083 116.899 20.257C117.247 21.04 117.74 22.519 117.885 23.099ZM117.885 23.099C118.61 22.693 119.741 22.345 126.324 21.069C126.266 20.373 126.295 19.068 126.411 18.169L119.132 19.387L117.682 20.402L117.885 23.099ZM117.653 16.023C117.653 15.443 119.451 14.428 119.451 14.428V14.341C121.452 11.818 123.627 8.164 125.019 4.771L121.916 3.321C120.901 6.714 118.958 10.368 118.32 11.267C117.711 12.224 117.218 12.862 116.609 13.007C116.986 13.848 117.508 15.385 117.653 16.023ZM117.653 16.023C118.233 15.762 119.132 15.559 123.482 15.095C123.482 14.428 123.627 13.239 123.801 12.398L118.958 12.775L117.566 13.703L117.653 16.023ZM116.928 26.028L117.537 29.334C120.263 28.609 123.656 27.71 126.875 26.811L126.527 23.911C122.96 24.752 119.335 25.593 116.928 26.028ZM152.25 12.746V15.791H166.808V12.746H152.25ZM151.902 26.521V29.566H166.866V26.521H151.902ZM150.365 18.691V30.668H153.787V21.765H165.271V30.668H168.838V18.691H150.365ZM159.384 6.83C161.907 10.281 166.779 14.225 171.245 16.574C171.854 15.501 172.666 14.312 173.536 13.442C168.867 11.557 164.198 7.874 161.037 3.408H157.412C155.266 6.975 150.597 11.354 145.58 13.79C146.334 14.515 147.291 15.791 147.755 16.603C152.54 14.051 157.006 10.223 159.384 6.83ZM175.247 11.992V15.211H189.167V11.992H175.247ZM190.559 6.888V23.186H193.952V6.888H190.559ZM180.786 6.25V30.581H184.208V6.25H180.786ZM197.432 3.93V26.347C197.432 26.898 197.2 27.072 196.649 27.072C196.04 27.072 194.184 27.072 192.27 27.014C192.763 28 193.314 29.595 193.488 30.61C196.156 30.61 198.07 30.494 199.288 29.943C200.477 29.363 200.883 28.406 200.883 26.347V3.93H197.432ZM186.615 3.495C183.802 4.771 179.133 5.844 174.899 6.482C175.305 7.207 175.798 8.425 175.943 9.208C180.322 8.599 185.426 7.613 189.109 6.163L186.615 3.495ZM180.757 13.529C179.597 16.922 177.074 21.156 174.58 23.563C175.16 24.491 176.03 25.941 176.378 26.985C179.104 24.085 181.656 18.894 183.106 14.544L180.757 13.529ZM183.686 16.458L181.888 18.256C183.309 19.561 186.006 22.374 187.282 23.94L189.254 20.953C188.413 20.199 184.817 17.183 183.686 16.458ZM209.09 5.322V8.628H226.896V5.322H209.09ZM209.09 11.992V15.24H226.954V11.992H209.09ZM209.032 18.836V22.113H227.07V18.836H209.032ZM207.089 5.322V15.733C207.089 19.822 206.828 25.013 203.667 28.522C204.421 28.957 205.842 30.117 206.393 30.784C209.96 26.898 210.54 20.373 210.54 15.762V5.322H207.089ZM225.678 5.322V26.492C225.678 26.985 225.475 27.159 224.924 27.188C224.402 27.188 222.488 27.217 220.835 27.101C221.299 28 221.821 29.508 221.966 30.436C224.605 30.465 226.345 30.407 227.563 29.856C228.723 29.305 229.129 28.377 229.129 26.521V5.322H225.678ZM216.021 6.627V30.262H219.559V6.627H216.021ZM243.165 7.526V10.716H259.376V7.526H243.165ZM243.687 14.196V17.357H256.07V14.196H243.687ZM249.429 3.379V15.907H252.851V3.379H249.429ZM247.457 16.719L244.325 17.618C246.964 24.143 251.343 28.609 258.303 30.639C258.767 29.74 259.753 28.348 260.507 27.652C253.953 26.028 249.545 22.084 247.457 16.719ZM255.722 14.196V14.747C253.953 21.504 248.501 25.767 241.483 27.42C242.15 28.145 242.991 29.624 243.339 30.552C251.053 28.29 256.882 23.592 259.202 14.979L256.969 14.08L256.36 14.196H255.722ZM232.783 18.111L233.682 21.446C236.379 20.75 239.83 19.851 243.049 18.981L242.614 15.791C239.076 16.69 235.335 17.589 232.783 18.111ZM233.16 8.889V12.137H242.788V8.889H233.16ZM236.495 3.379V26.753C236.495 27.159 236.35 27.304 235.944 27.304C235.567 27.304 234.349 27.304 233.218 27.275C233.624 28.174 234.088 29.566 234.175 30.465C236.263 30.465 237.655 30.349 238.641 29.827C239.627 29.305 239.917 28.435 239.917 26.782V3.379H236.495ZM278.313 12.804L275.442 13.935C278.139 19.068 282.431 24.375 286.549 27.478C287.216 26.492 288.463 25.071 289.362 24.346C285.244 21.765 280.691 17.067 278.313 12.804ZM273.238 12.891C270.947 17.589 266.423 22.258 261.609 24.636C262.45 25.361 263.639 26.782 264.277 27.71C269.236 24.81 273.644 19.706 276.37 14.022L273.238 12.891ZM262.769 10.513V13.935H288.144V10.513H262.769ZM273.644 3.408V30.639H277.501V3.408H273.644ZM278.545 5.757C280.169 7.062 282.344 8.947 283.359 10.136L286.056 7.729C284.954 6.569 282.692 4.829 281.126 3.64L278.545 5.757Z" fill="url(#paint0_linear_141_165)"/>
<line x1="32.0071" y1="45.5" x2="248.007" y2="46.5286" stroke="url(#paint1_linear_141_165)" stroke-width="3"/>
<defs>
<linearGradient id="paint0_linear_141_165" x1="252.869" y1="-42.4699" x2="194.302" y2="105.643" gradientUnits="userSpaceOnUse">
<stop stop-color="#EF2626"/>
<stop offset="1" stop-color="#F08200" stop-opacity="0.88"/>
</linearGradient>
<linearGradient id="paint1_linear_141_165" x1="26" y1="47.0001" x2="248" y2="48.0001" gradientUnits="userSpaceOnUse">
<stop stop-color="#F38F2D"/>
<stop offset="1" stop-color="#F04323"/>
</linearGradient>
</defs>
</svg>
