<svg width="80" height="134" viewBox="0 0 80 134" fill="none" xmlns="http://www.w3.org/2000/svg">
<path d="M10.796 0.322651C13.5796 -0.113287 16.4265 0.116401 19.1773 0.665619C22.8812 1.42109 26.4429 2.75703 29.8577 4.36249C33.3663 6.01953 36.7257 7.97734 39.9484 10.1336C43.3507 7.85859 46.9046 5.80234 50.6242 4.09218C53.7109 2.67421 56.9195 1.49296 60.2429 0.766401C62.6445 0.244526 65.1132 -0.0210994 67.5702 0.144526C69.4843 0.284369 71.3976 0.719526 73.1226 1.57812C75.6976 2.82421 77.7413 5.07968 78.7749 7.74296C80.0593 10.9812 80.0374 14.5773 79.4992 17.9719C78.9148 21.5758 77.7249 25.0562 76.2632 28.3914C74.4773 32.4469 72.2679 36.3078 69.8054 39.9898C72.7538 44.4016 75.3507 49.0711 77.2687 54.0266C78.8046 58.0539 79.9273 62.3227 79.839 66.6625C79.7796 69.7602 78.9382 72.9469 76.9429 75.3758C75.9374 76.6086 74.6679 77.6211 73.2492 78.3398C71.4617 79.2539 69.4663 79.707 67.4718 79.843C63.2992 80.0976 59.1554 79.1492 55.2406 77.7734C49.8171 75.8328 44.7312 73.0391 39.9499 69.8453C35.0937 73.0852 29.9281 75.918 24.4109 77.8601C20.6843 79.1492 16.7554 80.0336 12.7913 79.8641C11.0062 79.7742 9.22025 79.4453 7.56478 78.7594C5.99057 78.1156 4.54838 77.1391 3.39525 75.8836C1.31947 73.6484 0.303066 70.607 0.104628 67.6016C-0.174278 63.3523 0.801503 59.1266 2.21478 55.1445C4.15228 49.7711 6.93353 44.7383 10.0867 39.9898C7.4765 36.0633 5.13353 31.9461 3.29525 27.6C1.80775 24.0641 0.634316 20.3602 0.203066 16.5359C0.0202532 14.818 -0.0109968 13.0758 0.206191 11.3609C0.553847 8.57343 1.66322 5.80937 3.67807 3.80781C5.56166 1.87109 8.1515 0.738276 10.796 0.322651M10.1374 5.01015C8.54994 5.46953 7.0726 6.40937 6.11713 7.77499C4.97728 9.37968 4.55307 11.3797 4.49213 13.3164C4.3976 16.5172 5.15775 19.6742 6.16635 22.6898C7.78744 27.4266 10.1523 31.8781 12.846 36.0875C14.8038 33.4469 16.8913 30.9047 19.0804 28.4531C24.2117 22.7289 29.8781 17.4734 36.0492 12.8844C33.1601 11.0391 30.1648 9.35234 27.0374 7.94531C23.7226 6.46484 20.2554 5.24765 16.6499 4.72499C14.4898 4.43671 12.2476 4.39453 10.1374 5.01015M63.5968 4.68046C60.2265 5.11718 56.9679 6.19062 53.8484 7.51328C50.3609 8.99765 47.0421 10.8492 43.8476 12.8812C47.1226 15.3141 50.2523 17.9383 53.2374 20.718C58.2835 25.4227 62.9382 30.5539 67.0593 36.0891C69.6413 32.0266 71.9398 27.7555 73.5515 23.2086C74.6796 19.9758 75.5312 16.5773 75.4023 13.1289C75.3101 11.1633 74.8421 9.13203 73.6132 7.55156C72.6312 6.25703 71.1663 5.39453 69.6148 4.96718C67.6609 4.42578 65.596 4.44296 63.5968 4.68046M30.5085 23.2086C24.9601 28.282 19.8843 33.8859 15.4898 39.9906C17.8867 43.3234 20.4913 46.5047 23.2617 49.5344C28.3101 55.043 33.8835 60.082 39.9499 64.4508C43.2429 62.0805 46.3906 59.5102 49.3874 56.7742C54.9382 51.7016 60.0124 46.0945 64.4101 39.9906C62.0374 36.6953 59.4663 33.5453 56.7288 30.5469C51.657 24.9984 46.0515 19.9258 39.9499 15.5297C36.6546 17.8992 33.507 20.4734 30.5085 23.2086M12.8382 43.893C10.0788 48.2344 7.64135 52.8187 6.02416 57.7156C5.03353 60.7812 4.31244 63.9984 4.52025 67.2391C4.65072 69.0945 5.14916 70.9898 6.31713 72.4719C7.28666 73.7219 8.70619 74.5687 10.2163 74.993C12.2648 75.5742 14.4343 75.5398 16.5288 75.2711C19.6156 74.8414 22.6078 73.8867 25.4835 72.7039C29.1757 71.1805 32.6851 69.2437 36.0484 67.0961C32.8663 64.732 29.8195 62.1851 26.9101 59.493C21.7671 54.7266 17.0312 49.5164 12.8382 43.893ZM67.057 43.8914C63.6484 48.475 59.8702 52.7812 55.8054 56.7945C52.0663 60.5008 48.0749 63.9562 43.8499 67.0969C47.9945 69.7414 52.3663 72.075 57.0195 73.6945C59.3874 74.5062 61.8296 75.1469 64.3273 75.3789C66.5304 75.5625 68.8374 75.4695 70.8851 74.5531C72.3593 73.9062 73.607 72.7492 74.3281 71.3047C75.3054 69.4148 75.4882 67.2312 75.3952 65.1383C75.2499 62.5555 74.6312 60.0203 73.8281 57.568C72.2054 52.7266 69.7952 48.1867 67.057 43.8914V43.8914ZM38.3859 29.0148C40.2437 28.7625 42.1679 28.9594 43.9195 29.6359C46.8421 30.7398 49.2374 33.1469 50.3242 36.0758C51.6148 39.4484 51.1195 43.443 49.0101 46.3805C46.9867 49.2867 43.4992 51.1172 39.9507 51.0648C36.6351 51.1101 33.3585 49.5219 31.3015 46.9266C29.1945 44.3476 28.3945 40.7875 29.1351 37.5469C29.7992 34.5062 31.8288 31.8086 34.5492 30.3031C35.7382 29.642 37.0388 29.2053 38.3859 29.0148M39.4929 33.3531C37.9515 33.4602 36.4562 34.1242 35.346 35.1992C34.282 36.2133 33.5773 37.5914 33.3648 39.0445C33.1367 40.6086 33.4945 42.2484 34.3538 43.5758C35.1624 44.8383 36.407 45.8172 37.8304 46.2906C39.2429 46.7766 40.8226 46.7555 42.2234 46.2375C43.8007 45.6695 45.1374 44.4734 45.889 42.975C46.6492 41.4797 46.814 39.6891 46.3187 38.0844C45.9101 36.7078 45.0367 35.4781 43.8781 34.6312C42.6281 33.7047 41.0445 33.2445 39.4929 33.3531V33.3531Z" fill="#FF7E00"/>
<path d="M15.925 101.925V104.6H28.725V101.925H15.925ZM20.8 98.975V103.175H23.725V98.975H20.8ZM18.55 105C17.925 106.75 16.775 108.5 15.475 109.65C16.125 110.05 17.25 110.925 17.775 111.4C19.15 110.025 20.525 107.85 21.325 105.7L18.55 105ZM23.275 109.725C22 114.175 19.425 117.825 15.8 119.925C16.45 120.475 17.55 121.675 17.975 122.3C21.775 119.725 24.65 115.575 26.25 110.4L23.275 109.725ZM23.175 106.15C24.175 107.4 25.225 109.1 25.625 110.2L28.025 108.825C27.6 107.7 26.475 106.1 25.425 104.925L23.175 106.15ZM17.625 112.025C20.325 114.4 23.475 117.75 24.75 120.075L27.175 118.025C25.75 115.7 22.5 112.5 19.8 110.25L17.625 112.025ZM30.05 103.35V106.125H39.225V103.35H30.05ZM30.575 98.75C30 103.225 28.875 107.55 26.85 110.175C27.5 110.675 28.65 111.775 29.125 112.35C31.35 109.225 32.75 104.325 33.525 99.175L30.575 98.75ZM34.925 105.025C34.15 112.475 31.975 117.2 26.275 119.7C26.825 120.325 27.675 121.65 27.95 122.325C34.25 119.175 36.825 113.825 37.875 105.275L34.925 105.025ZM31.775 105.6L29.2 106C30.375 113.425 32.45 119.275 37.3 122.275C37.75 121.5 38.65 120.35 39.325 119.775C34.85 117.35 32.75 111.925 31.775 105.6ZM41.325 111.925V114.675H63.7V111.925H41.325ZM50.95 100.95V122.25H54.15V100.95H50.95ZM50.125 113.275C48.15 115.7 44.275 117.975 40.575 119.1C41.225 119.725 42.15 120.85 42.6 121.575C46.4 120.175 50.275 117.475 52.625 114.35L50.125 113.275ZM54.7 113.1L52.35 114.15C54.75 117.2 58.7 119.975 62.4 121.425C62.85 120.675 63.775 119.5 64.425 118.9C60.75 117.775 56.75 115.5 54.7 113.1ZM46.9 106.325H58.1V107.95H46.9V106.325ZM46.9 102.425H58.1V104H46.9V102.425ZM43.775 99.925V110.45H61.4V99.925H43.775Z" fill="url(#paint0_linear_593_8)"/>
<defs>
<linearGradient id="paint0_linear_593_8" x1="66.5558" y1="61.6626" x2="3.77794" y2="101.698" gradientUnits="userSpaceOnUse">
<stop stop-color="#EF2626"/>
<stop offset="1" stop-color="#F08200" stop-opacity="0.88"/>
</linearGradient>
</defs>
</svg>
