<svg width="160" height="51" viewBox="0 0 160 51" fill="none" xmlns="http://www.w3.org/2000/svg">
<path d="M27.84 7.48C30.592 11.448 35.968 16.056 40.928 18.808C41.664 17.656 42.56 16.376 43.52 15.384C38.368 13.144 33.12 8.792 29.664 3.672H25.664C23.264 7.8 18.08 12.888 12.512 15.768C13.376 16.568 14.464 17.976 14.976 18.872C20.288 15.864 25.216 11.384 27.84 7.48ZM28.032 19.704V23.128H38.784V19.704H28.032ZM14.336 29.56V33.016H41.696V29.56H14.336ZM26.112 12.824V31.416H30.208V12.824H26.112ZM17.824 18.36V31.32H21.6V18.36H17.824ZM45.632 28.568V32.376H74.432V28.568H45.632ZM53.92 4.248V30.008H57.888V4.248H53.92ZM62.112 4.216V30.232H66.048V4.216H62.112ZM70.656 10.648C69.536 14.552 67.488 19.384 65.824 22.392L68.992 24.024C70.688 20.92 72.704 16.376 74.144 12.312L70.656 10.648ZM46.048 11.64C47.488 15.544 49.184 20.76 49.888 23.832L53.728 22.456C52.896 19.384 51.04 14.36 49.568 10.584L46.048 11.64ZM89.536 5.08V8.088H104.288V5.08H89.536ZM89.024 14.296V17.304H104.864V14.296H89.024ZM89.024 18.872V21.88H104.736V18.872H89.024ZM90.56 29.56V32.6H103.296V29.56H90.56ZM86.496 9.656V12.76H107.104V9.656H86.496ZM88.512 23.48V33.848H92.192V26.456H101.44V33.752H105.312V23.48H88.512ZM84.128 3.896C82.4 8.472 79.424 13.016 76.384 15.896C77.024 16.824 78.048 18.936 78.368 19.832C82.016 16.216 85.536 10.488 87.712 5.048L84.128 3.896ZM81.056 12.76V33.784H84.704V9.144L84.672 9.112L81.056 12.76ZM117.12 24.76V29.4C117.12 32.728 118.112 33.784 122.272 33.784C123.136 33.784 126.624 33.784 127.52 33.784C130.624 33.784 131.68 32.824 132.16 28.984C131.136 28.792 129.504 28.216 128.736 27.672C128.576 30.04 128.352 30.392 127.136 30.392C126.272 30.392 123.392 30.392 122.72 30.392C121.184 30.392 120.928 30.264 120.928 29.368V24.76H117.12ZM120.672 24.024C122.336 25.4 124.224 27.384 125.024 28.76L128.032 26.712C127.136 25.272 125.184 23.416 123.488 22.136L120.672 24.024ZM130.624 25.688C132.864 27.832 135.168 30.776 136.032 32.856L139.36 30.712C138.4 28.536 135.936 25.752 133.696 23.736L130.624 25.688ZM112.384 24.152C111.712 26.552 110.432 29.016 108.704 30.552L111.904 32.792C113.856 30.904 115.008 28.024 115.808 25.4L112.384 24.152ZM117.632 13.528H130.592V15.128H117.632V13.528ZM117.632 17.912H130.592V19.512H117.632V17.912ZM117.632 9.176H130.592V10.776H117.632V9.176ZM113.92 6.264V22.456H134.464V6.264H113.92ZM122.016 3.48C121.824 4.568 121.408 6.04 121.024 7.16L124.576 7.864C125.12 6.904 125.952 5.592 126.688 4.056L122.016 3.48Z" fill="url(#paint0_linear_557_3)"/>
<line y1="49.5" x2="160" y2="49.5" stroke="#FF7A00" stroke-width="3"/>
<defs>
<linearGradient id="paint0_linear_557_3" x1="123.295" y1="-28.0121" x2="73.7514" y2="55.5958" gradientUnits="userSpaceOnUse">
<stop stop-color="#EF2626"/>
<stop offset="1" stop-color="#F08200" stop-opacity="0.88"/>
</linearGradient>
</defs>
</svg>
