<svg width="787" height="157" viewBox="0 0 787 157" fill="none" xmlns="http://www.w3.org/2000/svg">
<path d="M102.143 12.9091V50H94.3011V20.3526H94.0838L85.5898 25.6772V18.7227L94.772 12.9091H102.143Z" fill="#EF6400"/>
<path d="M80.1697 95.9724L80.2015 106.1L81.9775 106.095L81.9457 95.9669L80.1697 95.9724ZM75.3316 99.1317L75.3367 100.764L86.8087 100.728L86.8036 99.0956L75.3316 99.1317ZM74.0294 104.8L74.0347 106.48L87.7386 106.437L87.7333 104.757L74.0294 104.8ZM80.1601 85.2924L80.1888 94.4124L81.9648 94.4068L81.9361 85.2868L80.1601 85.2924ZM75.6825 88.5945L75.6876 90.2265L86.4636 90.1926L86.4584 88.5606L75.6825 88.5945ZM74.8105 93.6853L74.8157 95.3413L87.3436 95.3019L87.3384 93.6459L74.8105 93.6853ZM65.8121 86.5615L65.8173 88.2175L74.7212 88.1895L74.716 86.5335L65.8121 86.5615ZM68.4273 93.9453L68.4323 95.5533L72.2723 95.5413L72.2948 102.693L68.4548 102.705L68.4599 104.313L73.8358 104.296L73.8032 93.9284L68.4273 93.9453ZM68.9825 87.3435C68.3471 91.3536 67.2309 95.1011 65.4146 97.5548C65.7041 98.0339 66.1154 99.0886 66.2369 99.5442C68.4357 96.6333 69.838 92.2609 70.6637 87.6983L68.9825 87.3435ZM67.4913 93.9483L67.53 106.26L69.114 106.255L69.0753 93.9433L67.4913 93.9483ZM103.359 97.5316L103.363 98.9236L109.243 98.9051L109.239 97.5131L103.359 97.5316ZM99.6377 89.5752L99.7867 91.1828C102.546 91.0301 106.458 90.7778 110.201 90.55L110.22 89.086C106.333 89.2902 102.301 89.4708 99.6377 89.5752ZM104.215 95.2249C103.239 97.6519 101.326 99.746 99.1698 101.073C99.5307 101.36 100.181 101.934 100.446 102.245C102.649 100.726 104.705 98.3673 105.849 95.6037L104.215 95.2249ZM108.831 97.5144L108.832 97.8024C107.453 101.983 103.597 104.707 99.4488 105.824C99.7858 106.159 100.172 106.806 100.365 107.213C104.849 105.807 108.872 102.938 110.512 97.8691L109.43 97.4405L109.143 97.5134L108.831 97.5144ZM103.603 98.8028L102.116 99.1915C103.736 103.122 106.841 105.993 111.045 107.203C111.284 106.771 111.762 106.097 112.145 105.76C108.109 104.765 105.029 102.158 103.603 98.8028ZM102.689 90.6936C102.504 92.9502 101.861 94.4163 99.4155 95.2399C99.7523 95.5029 100.21 96.1015 100.355 96.485C103.208 95.396 104.042 93.5454 104.297 90.6886L102.689 90.6936ZM106.265 90.6104L106.275 93.7304C106.279 95.2184 106.641 95.6252 108.201 95.6203C108.489 95.6194 109.785 95.6154 110.121 95.6143C111.273 95.6107 111.703 95.1053 111.84 92.9689C111.408 92.8742 110.759 92.6363 110.471 92.4212C110.428 94.0293 110.308 94.2217 109.876 94.2231C109.612 94.2239 108.58 94.2271 108.388 94.2277C107.908 94.2292 107.836 94.1815 107.835 93.7255L107.825 90.6055L106.265 90.6104ZM103.656 85.0986C103.132 86.5882 102.131 88.7754 101.295 90.074L102.665 90.5737C103.525 89.323 104.575 87.3277 105.409 85.6451L103.656 85.0986ZM107.143 87.5116C108.467 88.7555 109.937 90.5509 110.589 91.7248L111.954 90.9285C111.278 89.7306 109.761 88.0074 108.437 86.7876L107.143 87.5116ZM90.1614 90.781L90.213 107.197L91.605 107.193L91.5583 92.3366L97.9663 92.3165L98.0119 106.836L99.4519 106.832L99.4014 90.752L90.1614 90.781ZM90.815 100.187L90.8195 101.627L98.8355 101.602L98.831 100.162L90.815 100.187ZM90.8271 104.051L90.8317 105.491L98.8476 105.466L98.8431 104.026L90.8271 104.051ZM89.9073 86.2698L89.9122 87.8298L99.5121 87.7996L99.5072 86.2396L89.9073 86.2698ZM92.7168 86.741L92.7333 91.9969L94.0293 91.9929L94.0127 86.7369L92.7168 86.741ZM95.4287 86.7324L95.4453 91.9884L96.7653 91.9843L96.7487 86.7283L95.4287 86.7324ZM93.0449 91.8759L93.052 94.1319C93.0558 95.3559 92.8205 96.8447 91.4323 98.049C91.6727 98.1683 92.0817 98.503 92.2504 98.7185C93.7342 97.3938 94.0884 95.5447 94.084 94.1287L94.0769 91.8727L93.0449 91.8759ZM95.3969 91.8686L95.4102 96.0925C95.4138 97.2445 95.7025 97.4836 96.6385 97.4807C96.8305 97.4801 97.6465 97.4775 97.8385 97.4769C98.4865 97.4749 98.8218 97.2338 98.9402 96.7294C98.6039 96.6345 98.2196 96.5397 98.003 96.3484C97.9551 96.3965 97.9071 96.3967 97.6191 96.3976C97.4511 96.3981 96.8751 96.3999 96.7551 96.4003C96.4671 96.4012 96.4431 96.3773 96.4422 96.0893L96.4289 91.8653L95.3969 91.8686ZM113.942 104.938L113.947 106.522L135.355 106.455L135.35 104.871L113.942 104.938ZM115.889 98.3082L115.911 105.34L117.615 105.335L117.598 99.9108L121.222 99.8994L121.239 105.323L122.847 105.318L122.83 99.8944L126.478 99.8829L126.495 105.307L128.127 105.302L128.11 99.8778L131.758 99.8663L131.775 105.29L133.551 105.285L133.529 98.2528L115.889 98.3082ZM128.511 90.0605C130.483 91.2783 133.105 93.0461 134.404 94.194L135.528 92.7024C134.18 91.6267 131.535 89.907 129.587 88.7611L128.511 90.0605ZM127.032 85.0971L127.07 97.337L128.918 97.3312L128.88 85.0913L127.032 85.0971ZM113.912 95.3144L114.181 96.9935C117.156 96.5522 121.426 95.9388 125.504 95.35L125.451 93.7181C121.205 94.3555 116.767 94.9694 113.912 95.3144ZM114.491 88.7365L114.496 90.3205L124.984 90.2876L124.979 88.7036L114.491 88.7365ZM119.04 85.1222L119.071 94.9622L120.871 94.9565L120.84 85.1166L119.04 85.1222ZM22.5622 124.226L22.5673 125.834L34.8792 125.795L34.8742 124.187L22.5622 124.226ZM23.25 129.239L23.2549 130.823L34.3189 130.789L34.3139 129.205L23.25 129.239ZM22.2357 134.883L22.2405 136.419L35.4405 136.377L35.4356 134.841L22.2357 134.883ZM27.7718 124.713L27.8062 135.681L29.4862 135.676L29.4518 124.708L27.7718 124.713ZM30.9862 131.855C31.8528 132.668 32.8885 133.841 33.3708 134.584L34.5925 133.836C34.1101 133.093 33.0507 131.993 32.1362 131.204L30.9862 131.855ZM18.7825 120.517L18.8485 141.517L20.6725 141.512L20.6117 122.168L36.7637 122.117L36.8244 141.461L38.7444 141.455L38.6784 120.455L18.7825 120.517ZM19.8235 138.634L19.8287 140.29L37.7086 140.234L37.7034 138.578L19.8235 138.634ZM51.779 119.334L51.789 122.526L53.637 122.52L53.627 119.328L51.779 119.334ZM42.8337 121.498L42.8487 126.274L44.6007 126.268L44.5909 123.148L60.9589 123.097L60.9687 126.217L62.7927 126.211L62.7776 121.435L42.8337 121.498ZM45.9185 125.544L45.9234 127.128L59.4354 127.086L59.4304 125.502L45.9185 125.544ZM49.0738 129.134C53.7409 132.672 53.854 138.095 52.1538 139.325C51.6751 139.734 51.1472 139.784 50.4993 139.786C49.9473 139.788 49.1312 139.766 48.2429 139.673C48.5565 140.176 48.7268 140.919 48.7763 141.399C49.5205 141.445 50.2885 141.467 50.8645 141.465C51.9445 141.461 52.616 141.291 53.43 140.641C55.8965 138.905 55.7555 132.209 50.4151 128.29L49.0738 129.134ZM52.6636 125.883C50.486 127.93 46.3631 129.575 42.6939 130.474C43.007 130.809 43.4893 131.552 43.6824 131.887C47.423 130.796 51.6892 128.934 54.1536 126.526L52.6636 125.883ZM50.974 130.472C49.2026 131.942 45.584 133.657 42.8743 134.41C43.2354 134.769 43.6214 135.391 43.8387 135.799C46.5956 134.806 50.1897 132.923 52.1765 131.285L50.974 130.472ZM52.7577 132.939C50.5091 135.274 45.8609 137.784 42.0481 138.804C42.3854 139.211 42.7954 139.858 43.0129 140.313C46.8489 139.029 51.5205 136.375 54.0086 133.847L52.7577 132.939ZM54.9444 126.14L53.4574 126.457C54.9163 132.476 57.7636 137.339 62.4984 139.484C62.7848 138.979 63.3346 138.282 63.7415 137.92C59.1757 136.111 56.2814 131.536 54.9444 126.14ZM61.1179 127.896C59.7538 129.125 57.4309 130.764 55.802 131.729L56.9334 132.83C58.6345 131.912 60.8859 130.417 62.5137 129.092L61.1179 127.896ZM66.0492 139.113L66.0539 140.601L87.5818 140.533L87.5771 139.045L66.0492 139.113ZM66.1203 123.537L66.1249 125.025L87.3888 124.958L87.3842 123.47L66.1203 123.537ZM67.8142 135.603L67.8187 137.043L86.0346 136.986L86.0301 135.546L67.8142 135.603ZM75.7366 121.082L75.7954 139.802L77.5954 139.797L77.5366 121.077L75.7366 121.082ZM84.0832 119.352C80.2934 120.06 73.5028 120.514 67.9113 120.675C68.0805 121.059 68.2984 121.682 68.2998 122.114C73.9154 121.976 80.7541 121.547 85.0476 120.741L84.0832 119.352ZM70.319 130.772L83.303 130.731L83.3088 132.579L70.3248 132.62L70.319 130.772ZM70.3095 127.748L83.2935 127.707L83.2992 129.531L70.3152 129.572L70.3095 127.748ZM68.5535 126.457L68.5769 133.921L85.1368 133.869L85.1134 126.405L68.5535 126.457ZM99.6347 119.159L99.6604 127.343L101.484 127.338L101.459 119.154L99.6347 119.159ZM94.4311 128.2L106.983 128.16L106.996 132.456L94.4446 132.496L94.4311 128.2ZM92.7217 126.501L92.7458 134.181L108.826 134.131L108.802 126.451L92.7217 126.501ZM100.483 121.725L100.488 123.429L110.592 123.397L110.587 121.693L100.483 121.725ZM96.9284 136.256C97.2453 137.815 97.4436 139.83 97.4475 141.054L99.2947 140.809C99.267 139.633 98.9968 137.665 98.6559 136.107L96.9284 136.256ZM101.896 136.264C102.621 137.774 103.347 139.764 103.591 140.963L105.366 140.525C105.074 139.302 104.276 137.361 103.527 135.923L101.896 136.264ZM106.792 136.057C108.021 137.589 109.347 139.697 109.903 141.015L111.605 140.314C111.025 138.972 109.627 136.936 108.398 135.452L106.792 136.057ZM93.0384 135.644C92.3 137.423 91.0581 139.37 89.7895 140.454L91.4481 141.265C92.7401 139.989 93.9577 137.945 94.7438 136.071L93.0384 135.644ZM125.682 136.67C128.878 137.884 132.099 139.529 134.023 140.987L135.123 139.592C133.151 138.158 129.761 136.513 126.566 135.371L125.682 136.67ZM123.012 119.494C123.663 120.5 124.363 121.914 124.654 122.753L126.5 122.123C126.209 121.26 125.461 119.918 124.81 118.936L123.012 119.494ZM114.907 121.847L114.923 126.719L116.698 126.714L116.689 123.546L132.768 123.495L132.778 126.663L134.626 126.657L134.611 121.785L114.907 121.847ZM124.828 124.72C124.59 133.001 124.197 137.538 114.723 139.56C115.108 139.943 115.59 140.637 115.76 141.117C125.713 138.806 126.44 133.619 126.7 124.714L124.828 124.72ZM114.487 133.153L114.492 134.713L135.204 134.648L135.199 133.088L114.487 133.153ZM118.52 125.916C119.818 126.68 121.334 127.851 122.057 128.689L123.181 127.389C122.434 126.552 120.895 125.453 119.596 124.761L118.52 125.916ZM116.132 129.644C117.478 130.383 119.114 131.578 119.885 132.44L120.96 131.092C120.166 130.255 118.554 129.132 117.184 128.44L116.132 129.644ZM145.102 130.249L145.103 130.537C144.785 136.37 144.408 138.579 143.858 139.132C143.642 139.397 143.403 139.422 142.995 139.423C142.563 139.425 141.458 139.404 140.258 139.288C140.547 139.719 140.717 140.342 140.743 140.822C141.895 140.867 143.023 140.887 143.647 140.837C144.343 140.787 144.798 140.618 145.205 140.136C145.946 139.366 146.299 137.085 146.664 130.988C146.687 130.748 146.686 130.244 146.686 130.244L145.102 130.249ZM137.535 135.672L137.899 137.159C139.698 136.674 141.904 136.043 144.086 135.436L143.914 134.044C141.54 134.676 139.19 135.307 137.535 135.672ZM138.278 120.142L138.283 121.678L144.619 121.658L144.614 120.122L138.278 120.142ZM144.086 120.124C143.952 123.412 143.535 128.021 143.159 130.735L144.743 130.634C145.047 128.065 145.441 123.503 145.646 120.119L144.086 120.124ZM139.296 123.475C139.161 126.067 138.86 129.62 138.578 131.757L140.114 131.752C140.396 129.687 140.673 126.182 140.833 123.566L139.296 123.475ZM139.126 130.267L139.13 131.755L145.37 131.736L145.366 130.248L139.126 130.267ZM153.325 119.759L152.007 120.603C153.648 123.262 156.634 126.444 159.232 128.332C159.398 127.828 159.804 127.058 160.139 126.649C157.686 125.097 154.772 122.178 153.325 119.759ZM152.722 118.825C151.268 122.189 148.638 125.149 145.739 126.983C146.077 127.341 146.631 128.084 146.824 128.419C149.817 126.322 152.615 123.073 154.308 119.348L152.722 118.825ZM149.554 126.443L149.559 128.027L156.711 128.004L156.706 126.42L149.554 126.443ZM147.982 130.479C148.66 132.325 149.34 134.699 149.537 136.259L150.999 135.87C150.779 134.311 150.099 131.937 149.373 130.139L147.982 130.479ZM152.205 129.866C152.642 131.689 153.082 134.063 153.183 135.623L154.67 135.378C154.545 133.819 154.106 131.492 153.62 129.67L152.205 129.866ZM157.629 129.993C156.845 132.612 155.321 136.336 154.104 138.572L155.425 138.976C156.69 136.788 158.191 133.207 159.286 130.372L157.629 129.993ZM147.239 138.33L147.244 139.914L159.484 139.875L159.479 138.291L147.239 138.33ZM171.793 131.197L171.818 139.333L173.666 139.327L173.641 131.191L171.793 131.197ZM164.885 124.858L164.89 126.442L180.778 126.392L180.773 124.808L164.885 124.858ZM162.193 138.763L162.198 140.371L183.486 140.304L183.48 138.696L162.193 138.763ZM164.386 134.148L164.391 135.732L181.359 135.679L181.354 134.095L164.386 134.148ZM169.688 125.683C169.02 127.149 167.803 129.289 166.847 130.612L168.289 131.112C169.293 129.861 170.558 127.889 171.537 126.205L169.688 125.683ZM163.941 129.997L164.042 131.653C168.074 131.544 174.217 131.333 180.025 131.075L180.116 129.538C174.188 129.725 167.901 129.937 163.941 129.997ZM175.526 127.849C177.547 129.187 179.953 131.195 181.061 132.584L182.45 131.547C181.294 130.159 178.84 128.223 176.819 126.933L175.526 127.849ZM171.754 118.957L171.764 121.885L173.612 121.879L173.602 118.951L171.754 118.957ZM162.424 120.786L162.438 125.226L164.19 125.221L164.181 122.437L181.293 122.383L181.302 125.167L183.126 125.161L183.112 120.721L162.424 120.786Z" fill="#666666"/>
<path d="M389.473 50L404.849 19.5739V19.3203H386.938V12.9091H412.963V19.4109L397.569 50H389.473ZM431.427 50.5071C428.638 50.5071 426.157 50.0543 423.983 49.1488C421.822 48.2312 420.126 46.9815 418.894 45.3999C417.663 43.8182 417.047 42.0252 417.047 40.021C417.047 38.4755 417.397 37.0568 418.097 35.7649C418.81 34.4609 419.776 33.3803 420.995 32.5231C422.215 31.6538 423.579 31.0984 425.088 30.8569V30.6033C423.108 30.2049 421.502 29.245 420.271 27.7237C419.039 26.1903 418.423 24.4094 418.423 22.381C418.423 20.4613 418.985 18.7528 420.108 17.2557C421.231 15.7464 422.77 14.5632 424.726 13.706C426.694 12.8366 428.928 12.402 431.427 12.402C433.926 12.402 436.154 12.8366 438.11 13.706C440.078 14.5753 441.623 15.7646 442.746 17.2738C443.869 18.771 444.437 20.4734 444.449 22.381C444.437 24.4215 443.809 26.2024 442.565 27.7237C441.322 29.245 439.728 30.2049 437.784 30.6033V30.8569C439.269 31.0984 440.615 31.6538 441.823 32.5231C443.042 33.3803 444.008 34.4609 444.72 35.7649C445.445 37.0568 445.813 38.4755 445.825 40.021C445.813 42.0252 445.191 43.8182 443.96 45.3999C442.728 46.9815 441.026 48.2312 438.852 49.1488C436.691 50.0543 434.216 50.5071 431.427 50.5071ZM431.427 44.7479C432.671 44.7479 433.757 44.5245 434.687 44.0778C435.617 43.619 436.341 42.9911 436.86 42.1942C437.392 41.3853 437.657 40.4556 437.657 39.4052C437.657 38.3306 437.385 37.3828 436.842 36.5618C436.299 35.7287 435.562 35.0767 434.633 34.6058C433.703 34.1229 432.634 33.8814 431.427 33.8814C430.232 33.8814 429.163 34.1229 428.221 34.6058C427.28 35.0767 426.537 35.7287 425.994 36.5618C425.463 37.3828 425.197 38.3306 425.197 39.4052C425.197 40.4556 425.456 41.3853 425.976 42.1942C426.495 42.9911 427.225 43.619 428.167 44.0778C429.109 44.5245 430.195 44.7479 431.427 44.7479ZM431.427 28.1765C432.465 28.1765 433.389 27.9652 434.198 27.5426C435.007 27.12 435.641 26.5344 436.1 25.7859C436.558 25.0373 436.788 24.174 436.788 23.196C436.788 22.2301 436.558 21.3849 436.1 20.6605C435.641 19.924 435.013 19.3505 434.216 18.94C433.419 18.5174 432.49 18.3061 431.427 18.3061C430.377 18.3061 429.447 18.5174 428.638 18.94C427.829 19.3505 427.195 19.924 426.736 20.6605C426.29 21.3849 426.066 22.2301 426.066 23.196C426.066 24.174 426.296 25.0373 426.754 25.7859C427.213 26.5344 427.847 27.12 428.656 27.5426C429.465 27.9652 430.389 28.1765 431.427 28.1765Z" fill="#EF6400"/>
<path d="M371.519 92.0916L371.524 93.8195L392.476 93.7537L392.471 92.0257L371.519 92.0916ZM373.448 87.5015L373.454 89.2295L390.734 89.1752L390.728 87.4472L373.448 87.5015ZM377.509 96.4888L377.514 98.1927L389.226 98.1559L389.221 96.4519L377.509 96.4888ZM388.693 96.4536L388.693 96.6936C387.186 98.2823 384.244 101.22 381.85 103.411L383.461 104.366C385.878 102.054 388.749 99.1894 390.735 97.1672L389.364 96.3555L389.053 96.4525L388.693 96.4536ZM376.375 102.444C380.051 103.513 384.833 105.466 387.189 106.874L388.289 105.335C385.788 103.903 380.958 102.094 377.379 101.121L376.375 102.444ZM380.352 84.7438C379.237 88.9713 377.407 94.7611 376.074 98.1733L377.97 98.1913C379.184 94.9475 380.966 89.2539 382.177 85.002L380.352 84.7438ZM395.351 91.9927L395.356 93.6727L406.78 93.6367L406.775 91.9568L395.351 91.9927ZM408.369 87.5597L408.41 100.832L410.162 100.826L410.121 87.5542L408.369 87.5597ZM400.374 86.7688L400.437 106.785L402.213 106.779L402.15 86.7633L400.374 86.7688ZM414.265 85.1412L414.326 104.389C414.327 104.845 414.136 104.99 413.68 104.991C413.224 105.017 411.736 105.021 410.007 104.979C410.297 105.506 410.588 106.297 410.685 106.801C412.893 106.818 414.237 106.765 415.028 106.451C415.795 106.16 416.106 105.608 416.102 104.36L416.041 85.1356L414.265 85.1412ZM405.144 84.8578C402.891 85.8729 398.718 86.7021 395.168 87.2172C395.385 87.6005 395.651 88.2237 395.724 88.6555C399.371 88.164 403.712 87.3584 406.493 86.2456L405.144 84.8578ZM400.321 92.745C399.275 95.9643 396.959 99.7876 394.853 101.81C395.167 102.265 395.625 102.984 395.843 103.511C398.068 101.224 400.406 96.9208 401.619 93.269L400.321 92.745ZM401.937 95.212L400.956 96.1751C402.063 97.1076 404.687 99.6194 405.674 100.72L406.725 99.2049C405.955 98.5354 402.851 95.8571 401.937 95.212ZM432.107 88.3251L432.112 89.9571L439.816 89.9329L439.811 88.3009L432.107 88.3251ZM432.312 84.6285C431.819 88.35 430.894 91.881 429.222 94.1422C429.654 94.3809 430.424 94.8824 430.737 95.1455C432.409 92.6922 433.477 88.9448 434.064 84.887L432.312 84.6285ZM439.403 88.3022L439.404 88.6142C439.074 90.6072 438.554 93.1289 438.127 94.6182L439.568 95.0217C440.115 93.412 440.707 90.7941 441.156 88.5607L439.955 88.2525L439.667 88.3014L439.403 88.3022ZM434.112 92.2548L434.115 93.3588C434.126 96.6948 433.805 101.688 428.657 105.544C429.09 105.807 429.716 106.357 430.005 106.74C435.416 102.595 435.855 97.0974 435.843 93.3774L435.84 92.2494L434.112 92.2548ZM435.729 95.3458L434.242 95.6385C435.17 100.58 436.935 104.774 440.181 106.684C440.444 106.227 440.993 105.553 441.376 105.192C438.323 103.618 436.559 99.7352 435.729 95.3458ZM419.337 87.5253L419.342 89.2532L429.614 89.221L429.609 87.493L419.337 87.5253ZM424.821 91.324L424.869 106.636L426.525 106.631L426.477 91.3188L424.821 91.324ZM419.138 100.798L419.528 102.621C422.311 102.204 426.149 101.544 429.771 100.933L429.694 99.2768C425.808 99.865 421.753 100.454 419.138 100.798ZM420.446 96.8818C420.445 96.4978 421.739 95.8697 421.739 95.8697L421.739 95.8457C423.194 93.0092 424.717 88.9484 425.713 85.0812L423.96 84.7027C423.179 88.3292 421.656 92.318 421.155 93.3516C420.678 94.4091 420.297 95.1783 419.865 95.2756C420.058 95.731 420.349 96.5221 420.446 96.8818ZM420.446 96.8818C420.637 96.6892 421.381 96.5429 422.293 96.54L429.493 96.5174L429.512 94.8613L421.424 94.8867L420.441 95.3938L420.446 96.8818ZM443.574 94.4091L443.579 96.0171L464.843 95.9503L464.838 94.3423L443.574 94.4091ZM445.579 90.6828L445.584 92.2188L459.335 92.1756L459.331 90.6396L445.579 90.6828ZM449.5 101.207L449.504 102.455L461.312 102.417L461.308 101.169L449.5 101.207ZM449.534 104.47L449.539 105.91L461.299 105.873L461.294 104.433L449.534 104.47ZM451.717 88.9115L451.737 95.3675L453.513 95.3619L453.493 88.9059L451.717 88.9115ZM462.014 89.2631C457.782 94.1725 450.473 97.7475 442.991 99.667C443.304 100.026 443.787 100.816 443.98 101.2C451.437 99.0164 458.866 95.4171 463.505 90.1465L462.014 89.2631ZM449.04 84.5999L449.056 89.7599L450.832 89.7543L450.816 84.5943L449.04 84.5999ZM457.32 84.5739L457.336 89.7338L459.088 89.7283L459.072 84.5684L457.32 84.5739ZM443.573 86.3691L443.578 87.9771L464.698 87.9107L464.693 86.3027L443.573 86.3691ZM450.065 97.8687L449.369 97.8709L448.269 98.9304L448.293 106.682L450.093 106.677L450.07 99.2847L461.566 99.2486L461.561 97.8326L450.065 97.8687ZM460.793 97.835L460.821 106.619L462.597 106.613L462.569 97.8294L460.793 97.835Z" fill="#666666"/>
<path d="M714.143 12.9091V50H706.301V20.3526H706.084L697.59 25.6772V18.7227L706.772 12.9091H714.143ZM737.194 50.5071C735.286 50.495 733.445 50.1751 731.67 49.5472C729.907 48.9194 728.325 47.8991 726.925 46.4865C725.524 45.0739 724.413 43.2024 723.592 40.8722C722.783 38.5419 722.379 35.6804 722.379 32.2876C722.391 29.1726 722.747 26.3896 723.448 23.9386C724.16 21.4755 725.174 19.3867 726.49 17.6722C727.818 15.9577 729.406 14.6538 731.253 13.7603C733.101 12.8548 735.171 12.402 737.465 12.402C739.94 12.402 742.126 12.8849 744.021 13.8509C745.917 14.8047 747.438 16.1026 748.585 17.7447C749.744 19.3867 750.445 21.228 750.686 23.2685H742.953C742.651 21.9766 742.017 20.9624 741.051 20.2259C740.085 19.4893 738.89 19.1211 737.465 19.1211C735.051 19.1211 733.215 20.1715 731.96 22.2724C730.716 24.3732 730.082 27.2287 730.058 30.8388H730.312C730.867 29.7401 731.616 28.8043 732.557 28.0316C733.511 27.2468 734.592 26.6491 735.799 26.2386C737.019 25.8161 738.304 25.6048 739.657 25.6048C741.854 25.6048 743.81 26.1239 745.525 27.1623C747.239 28.1886 748.591 29.6012 749.581 31.4002C750.571 33.1992 751.066 35.2578 751.066 37.576C751.066 40.0874 750.481 42.321 749.31 44.277C748.151 46.233 746.527 47.7663 744.438 48.8771C742.361 49.9759 739.946 50.5192 737.194 50.5071ZM737.157 44.3494C738.365 44.3494 739.445 44.0597 740.399 43.4801C741.353 42.9006 742.102 42.1158 742.645 41.1257C743.188 40.1357 743.46 39.0249 743.46 37.7933C743.46 36.5618 743.188 35.457 742.645 34.479C742.114 33.5011 741.377 32.7223 740.435 32.1428C739.494 31.5632 738.419 31.2734 737.212 31.2734C736.306 31.2734 735.467 31.4425 734.694 31.7805C733.934 32.1186 733.264 32.5895 732.684 33.1932C732.117 33.7969 731.67 34.4972 731.344 35.294C731.018 36.0788 730.855 36.918 730.855 37.8114C730.855 39.0067 731.127 40.0994 731.67 41.0895C732.225 42.0795 732.974 42.8704 733.916 43.462C734.869 44.0536 735.95 44.3494 737.157 44.3494Z" fill="#EF6400"/>
<path d="M683.129 92.6531L683.134 94.2611L695.254 94.223L695.249 92.615L683.129 92.6531ZM682.733 104.318L682.738 105.926L695.602 105.886L695.597 104.278L682.733 104.318ZM681.895 97.289L681.925 106.913L683.677 106.907L683.652 98.9155L694.764 98.8805L694.789 106.872L696.613 106.867L696.583 97.2428L681.895 97.289ZM689.086 86.6343C691.351 89.6992 695.586 93.0699 699.36 95.0261C699.67 94.4971 700.101 93.8717 700.555 93.4383C696.71 91.7464 692.499 88.4236 689.896 84.8558L688.072 84.8615C686.186 87.9634 682.189 91.648 677.972 93.7973C678.381 94.18 678.863 94.8265 679.105 95.2337C683.202 92.9888 687.127 89.5685 689.086 86.6343ZM712.852 88.7436L712.018 90.4743L724.234 90.4359L724.228 88.7079L712.852 88.7436ZM715.869 93.9422L715.874 95.5982L723.698 95.5736L723.693 93.9176L715.869 93.9422ZM715.861 99.2222L715.867 100.926L724.051 100.901L724.045 99.1965L715.861 99.2222ZM714.942 89.2891L714.997 106.785L716.845 106.779L716.79 89.2833L714.942 89.2891ZM713.753 84.9968C712.588 88.5285 710.655 92.0386 708.478 94.2774C708.887 94.5641 709.609 95.2099 709.874 95.521C712.074 93.0421 714.15 89.2676 715.506 85.4473L713.753 84.9968ZM707.992 84.8229C706.636 88.4752 704.415 92.0822 702.022 94.4177C702.36 94.8486 702.915 95.8069 703.084 96.2384C705.691 93.5422 708.151 89.4304 709.722 85.3695L707.992 84.8229ZM705.444 91.0229L705.493 106.791L707.317 106.785L707.262 89.2412L707.214 89.2174L705.444 91.0229ZM737.037 86.3876C739.231 89.6207 743.443 93.3275 747.218 95.4997C747.552 94.9706 748.006 94.3692 748.437 93.9118C744.615 92.0038 740.379 88.3451 737.848 84.5851L736.024 84.5908C734.162 87.9087 730.166 91.9052 725.974 94.2704C726.383 94.6531 726.889 95.2996 727.13 95.7068C731.227 93.2459 735.127 89.4896 737.037 86.3876ZM737.238 96.755L737.243 98.387L745.211 98.362L745.206 96.73L737.238 96.755ZM727.014 104.419L727.019 106.075L747.491 106.011L747.486 104.355L727.014 104.419ZM736.356 91.1178L736.4 105.254L738.296 105.248L738.252 91.1118L736.356 91.1178ZM730.034 95.4817L730.064 105.202L731.816 105.196L731.786 95.4762L730.034 95.4817ZM750.651 103.649L750.657 105.449L771.825 105.382L771.819 103.582L750.651 103.649ZM757.313 84.8839L757.374 104.372L759.198 104.366L759.137 84.8782L757.313 84.8839ZM763.193 84.8654L763.254 104.473L765.078 104.468L765.016 84.8597L763.193 84.8654ZM769.641 90.1252C768.713 92.7921 767.02 96.2774 765.683 98.4657L767.174 99.253C768.535 96.9927 770.156 93.6756 771.299 90.888L769.641 90.1252ZM751.139 90.6153C752.395 93.3234 753.846 96.9668 754.429 99.101L756.227 98.4234C755.572 96.3134 754.073 92.7661 752.793 90.1061L751.139 90.6153Z" fill="#515151"/>
</svg>
