<svg width="79" height="19" viewBox="0 0 79 19" fill="none" xmlns="http://www.w3.org/2000/svg">
<path d="M3.22 0.0999994V18.74H5.36V0.0999994H3.22ZM0.68 6.68V8.92H7.28V6.68H0.68ZM3.2 7.88C2.7 9.86 1.52 12.64 0.36 14.12C0.72 14.8 1.26 15.88 1.46 16.62C2.76 14.7 3.92 11.2 4.54 8.54L3.2 7.88ZM5.4 9.08L4.3 10C4.92 11.02 6.08 13.26 6.52 14.44L8.04 12.6C7.66 12 5.92 9.62 5.4 9.08ZM0.66 1.66C1.14 3.08 1.52 4.98 1.58 6.2L3.24 5.8C3.14 4.56 2.76 2.7 2.22 1.26L0.66 1.66ZM6.22 1.16C6.02 2.56 5.58 4.52 5.2 5.76L6.62 6.16C7.08 5 7.64 3.12 8.12 1.56L6.22 1.16ZM8.36 1.48V3.2H18.78V1.48H8.36ZM8.84 3.98V5.6H18.36V3.98H8.84ZM7.8 6.46V8.2H19.3V6.46H7.8ZM12.24 0.039999V7.44H14.52V0.039999H12.24ZM8.84 9.02V18.82H11.08V10.72H16.44V9.02H8.84ZM15.9 9.02V16.62C15.9 16.84 15.82 16.92 15.56 16.92C15.32 16.92 14.48 16.92 13.74 16.88C14 17.42 14.26 18.22 14.36 18.8C15.64 18.8 16.58 18.78 17.26 18.48C17.96 18.16 18.14 17.64 18.14 16.64V9.02H15.9ZM10.1 11.68V13.24H16.68V11.68H10.1ZM10.1 14.2V15.76H16.68V14.2H10.1ZM26.46 3.1H33.5V5.8H26.46V3.1ZM24.14 0.82V8.08H35.96V0.82H24.14ZM21.4 9.76V18.8H23.66V12.04H26.64V18.68H29.04V9.76H21.4ZM30.74 9.76V18.8H33.04V12.04H36.24V18.7H38.66V9.76H30.74ZM22.4 15.5V17.8H27.64V15.5H22.4ZM31.84 15.5V17.8H37.44V15.5H31.84ZM48.78 0.039999V2.7H51.18V0.039999H48.78ZM48.72 10.94V18.78H51.14V10.94H48.72ZM41.42 1.36V4.44H43.64V3.34H56.3V4.44H58.62V1.36H41.42ZM41.28 4.82V6.7H58.76V4.82H41.28ZM40.9 12.32V14.3H59.12V12.32H40.9ZM47.82 3.22C46.62 4.94 44.92 7.16 43.66 8.56L45.94 9.18C47.1 7.8 48.76 5.68 50.06 3.88L47.82 3.22ZM45.28 8.66C48.98 9.42 53.98 10.84 56.48 11.9L57.9 10.22C55.16 9.16 50.12 7.86 46.6 7.24L45.28 8.66ZM48.12 13.46C46.54 14.94 43.4 16.14 40.42 16.66C40.9 17.12 41.58 18.04 41.9 18.6C44.96 17.86 48.06 16.26 49.9 14.24L48.12 13.46ZM51.72 13.4L50 14.16C51.9 16.22 55.08 17.84 58.14 18.58C58.46 17.98 59.14 17.06 59.66 16.56C56.62 16.06 53.4 14.86 51.72 13.4ZM53.02 5.94C52.04 8.36 50.08 9.56 41.78 9.98C42.1 10.46 42.48 11.28 42.56 11.84C51.52 11.22 54.26 9.56 55.54 5.94H53.02ZM66.22 0.899999V3H73.34V0.899999H66.22ZM68.24 5.16L67.58 7.24H71.64V5.16H68.24ZM67 10.66C67.8 11.28 68.78 12.16 69.22 12.76L70.28 10.74C69.82 10.2 68.82 9.4 68.02 8.86L67 10.66ZM73.2 2.34V14.06H75.32V2.34H73.2ZM76.56 0.399999V16.08C76.56 16.4 76.44 16.5 76.12 16.52C75.76 16.52 74.74 16.52 73.64 16.48C73.96 17.14 74.28 18.18 74.38 18.82C75.96 18.82 77.08 18.74 77.82 18.36C78.54 17.98 78.78 17.36 78.78 16.08V0.399999H76.56ZM67.7 1.64C67.38 4.7 66.58 8.66 64.72 10.9C65.16 11.3 65.82 12.1 66.14 12.58C68.36 9.98 69.4 5.62 69.98 1.96L67.7 1.64ZM70.74 5.16V5.62C70.18 11.12 68.4 15 65.52 16.96C65.98 17.32 66.7 18.26 67.02 18.8C70.1 16.56 72.2 12.02 72.92 5.5L71.54 5.08L71.16 5.16H70.74ZM64.18 0.039999C63.32 2.96 61.84 5.88 60.22 7.78C60.6 8.4 61.18 9.78 61.38 10.36C63.42 7.98 65.26 4.2 66.4 0.699999L64.18 0.039999ZM62.6 5.54V18.78H64.8V3.44L64.74 3.4L62.6 5.54Z" fill="url(#paint0_linear_141_214)"/>
<defs>
<linearGradient id="paint0_linear_141_214" x1="85" y1="-41.0698" x2="31.8499" y2="22.5332" gradientUnits="userSpaceOnUse">
<stop stop-color="#F70C0C"/>
<stop offset="1" stop-color="#F08200" stop-opacity="0.88"/>
</linearGradient>
</defs>
</svg>
