<svg width="1440" height="1149" viewBox="0 0 1440 1149" fill="none" xmlns="http://www.w3.org/2000/svg">
<rect x="115" y="226" width="380" height="450" rx="20" fill="#D9D9D9"/>
<rect x="542" y="729" width="201" height="238" rx="20" fill="#D9D9D9"/>
<rect x="-88" y="729" width="580" height="320" rx="20" fill="#D9D9D9"/>
<rect x="793" y="729" width="520" height="420" rx="20" fill="#D9D9D9"/>
<rect x="542" y="446" width="360" height="240" rx="20" fill="#D9D9D9"/>
<rect x="940" y="365" width="560" height="320" rx="20" fill="#D9D9D9"/>
<rect x="101" width="200" height="20" rx="10" fill="#FFC24D" fill-opacity="0.5"/>
<path d="M208.74 375.116C213.472 382.136 222.572 390.196 230.736 394.928C231.464 393.784 232.452 392.484 233.388 391.496C225.12 387.336 215.968 379.38 210.508 371.216H206.556C202.5 378.392 193.816 387.024 184.716 392.12C185.6 392.952 186.692 394.356 187.212 395.24C196.104 389.936 204.58 381.824 208.74 375.116ZM209.104 397.58V401.116H226.368V397.58H209.104ZM186.9 414.116V417.704H231.256V414.116H186.9ZM207.232 385.36V415.988H211.34V385.36H207.232ZM193.504 394.772V415.832H197.3V394.772H193.504ZM240.2 412.608V416.508H286.064V412.608H240.2ZM254.76 371.996V414.22H258.712V371.996H254.76ZM267.5 371.996V414.48H271.452V371.996H267.5ZM281.436 383.436C279.408 389.208 275.716 396.748 272.804 401.48L276.028 403.196C278.992 398.308 282.528 391.132 285.024 385.1L281.436 383.436ZM241.344 384.372C244.048 390.248 247.168 398.152 248.416 402.78L252.316 401.324C250.912 396.748 247.688 389.052 244.932 383.28L241.344 384.372ZM295.476 373.608V419.212H299.272V377.196H334.892V419.212H338.792V373.608H295.476ZM297.712 413.492V416.976H337.18V413.492H297.712ZM310.608 400.544C314.82 401.428 320.124 403.248 322.984 404.652L324.648 402.052C321.736 400.7 316.432 398.984 312.272 398.152L310.608 400.544ZM312.688 378.236C310.036 382.448 305.564 386.504 301.144 389.156C301.924 389.728 303.276 390.872 303.848 391.496C308.216 388.584 312.948 384.112 315.912 379.328L312.688 378.236ZM326.572 382.344V382.916C322.1 389.884 310.4 395.032 300.208 397.008C300.884 397.736 301.664 399.296 302.028 400.232C312.584 397.788 324.7 392.12 330.056 383.54L327.872 382.188L327.248 382.344H326.572ZM310.4 385.204L307.488 386.556C312.636 392.796 322.256 397.58 331.772 399.608C332.24 398.672 333.228 397.372 333.956 396.644C324.492 394.928 314.976 390.716 310.4 385.204ZM311.492 382.344L309.412 385.412H327.716V382.344H311.492ZM305.46 407.148C312.636 408.032 321.632 410.112 326.572 411.88L328.34 408.968C323.244 407.252 314.3 405.276 307.28 404.444L305.46 407.148ZM356.628 384.788V388.844H392.196V384.788H356.628ZM373.424 371.424V386.66H377.532V371.424H373.424ZM354.548 372.672V390.04C354.548 399.244 353.82 408.864 347.216 416.248C348.152 416.924 349.608 418.38 350.232 419.264C357.72 411.1 358.604 400.388 358.604 390.04V372.672H354.548ZM356.472 397.112V401.168H379.924V419.212H384.136V397.112H356.472ZM206.296 435.932C205.932 442.848 205.932 467.86 184.716 478.676C185.912 479.56 187.212 480.756 187.888 481.744C209.416 470.044 210.196 444.096 210.612 435.932H206.296ZM210.456 436.972L206.712 437.336C207.076 442.12 208.532 471.188 230.58 481.744C231.204 480.652 232.4 479.352 233.544 478.468C212.12 468.64 210.612 441.028 210.456 436.972ZM264.848 434.32C263.08 442.224 260.012 449.712 255.644 454.392C256.476 454.912 258.036 456.056 258.66 456.628C263.028 451.48 266.46 443.576 268.384 435.048L264.848 434.32ZM282.788 443.056V443.992C281.696 466.82 280.5 475.088 278.784 477.064C278.16 477.74 277.64 477.948 276.808 477.948C275.82 477.948 273.688 477.896 271.348 477.688C271.972 478.728 272.336 480.392 272.44 481.536C274.728 481.692 277.016 481.744 278.368 481.536C279.98 481.38 280.968 480.912 282.008 479.508C284.14 476.96 285.232 468.796 286.428 445.084C286.48 444.512 286.48 443.056 286.48 443.056H282.788ZM264.484 443.056L262.82 446.748H284.348V443.056H264.484ZM269.736 444.2C267.604 453.3 262.612 463.388 256.528 468.172C257.568 468.744 258.816 469.68 259.596 470.46C265.524 465.312 270.464 454.912 272.7 445.708L269.736 444.2ZM277.172 444.512C274.676 458.344 268.904 472.436 259.804 478.936C260.948 479.508 262.352 480.496 263.132 481.328C271.868 474.308 277.692 459.956 280.292 445.968L277.172 444.512ZM238.9 463.18L239.94 466.976C245.192 465.312 252.212 463.128 258.816 461.048L258.296 457.616C251.224 459.748 243.788 461.932 238.9 463.18ZM248.624 434.372V482.16H252.264V434.372H248.624ZM242.176 437.336C241.552 443.732 240.512 450.336 238.536 454.756C239.368 455.12 240.876 456.004 241.5 456.472C243.476 451.844 244.776 444.824 245.556 437.908L242.176 437.336ZM242.488 444.98L241.864 448.776H257.62V444.98H242.488ZM187.524 506.94V510.84H219.868V506.94H187.524ZM217.996 506.94V507.824C217.268 529.456 216.436 537.672 214.668 539.544C214.044 540.168 213.472 540.324 212.38 540.272C211.08 540.272 207.856 540.272 204.424 539.96C205.1 541.156 205.672 542.924 205.724 544.12C208.896 544.276 212.224 544.38 214.096 544.172C216.02 544.016 217.268 543.496 218.464 541.936C220.544 539.44 221.376 531.588 222.156 509.072C222.208 508.5 222.208 506.94 222.208 506.94H217.996ZM203.228 497.372V506.472C203.228 517.236 201.98 531.9 185.184 542.248C186.172 542.976 187.68 544.484 188.356 545.368C205.984 534.292 207.388 518.276 207.388 506.472V497.372H203.228ZM192.516 515.26C191.06 519.836 188.408 525.66 185.34 529.3L188.928 531.38C191.944 527.48 194.44 521.344 196.052 516.716L192.516 515.26ZM223.404 516.04C225.848 521.24 228.24 528.156 229.02 532.368L232.92 530.964C231.984 526.752 229.436 519.94 226.992 514.844L223.404 516.04ZM258.764 516.196C256.32 523.528 251.796 533.668 248.104 540.064L251.692 541.208C255.54 534.916 260.064 525.192 263.34 517.34L258.764 516.196ZM241.708 538.868L242.228 542.976C252.004 542.56 266.564 541.78 280.188 541L280.292 537.256C266.356 537.932 251.224 538.556 241.708 538.868ZM268.748 527.584C273.376 533.096 278.784 540.688 281.228 545.42L285.18 543.288C282.58 538.556 277.224 531.328 272.492 525.868L268.748 527.584ZM253.512 498.88C250.496 506.576 245.348 514.064 239.628 518.744C240.72 519.368 242.54 520.772 243.372 521.552C248.884 516.404 254.344 508.448 257.828 500.076L253.512 498.88ZM272.128 498.828L268.28 500.44C272.284 507.72 278.784 516.56 283.62 521.5C284.4 520.512 285.856 519.004 286.896 518.172C282.112 513.856 275.56 505.64 272.128 498.828ZM293.76 510.06V513.752H309.516V510.06H293.76ZM300.104 497.944V532.784H303.796V497.944H300.104ZM292.98 534.292L294.28 538.244C298.804 536.528 304.68 534.188 310.14 531.952L309.412 528.416C303.38 530.652 297.14 532.992 292.98 534.292ZM310.66 499.816V503.508H332.396V499.816H310.66ZM336.14 514.116V514.948C335.152 532.368 334.008 538.92 332.552 540.48C332.032 541.156 331.564 541.26 330.732 541.26C329.848 541.26 327.872 541.208 325.74 541C326.312 542.04 326.728 543.652 326.78 544.744C329.016 544.848 331.096 544.848 332.396 544.692C333.904 544.588 334.892 544.172 335.932 542.924C337.752 540.74 338.844 534.344 339.884 516.04C339.988 515.468 340.04 514.116 340.04 514.116H336.14ZM312.48 518.432C312.48 517.652 315.236 516.56 315.236 516.56V516.456C321.476 513.024 328.288 507.928 335.308 501.636L332.344 499.452L330.472 500.232V500.492C325.428 505.848 318.2 510.892 316.068 512.192C314.092 513.492 312.168 514.584 310.816 514.792C311.388 515.728 312.22 517.6 312.48 518.432ZM312.48 518.432C312.948 518.016 314.612 517.808 317.004 517.808H337.492V514.116H314.716L312.48 515.208V518.432ZM329.276 516.196C326.104 528.104 320.072 537.36 310.868 542.872C311.752 543.392 313.208 544.484 313.832 545.108C322.828 539.076 329.172 529.612 332.708 516.872L329.276 516.196ZM321.268 516.248C319.24 522.696 315.132 528.104 309.932 531.432C310.764 531.952 312.22 533.096 312.844 533.668C318.044 529.924 322.412 524.1 324.7 516.976L321.268 516.248ZM357.98 507.72H384.344V511.048H357.98V507.72ZM357.98 501.896H384.344V505.172H357.98V501.896ZM354.236 499.192V513.752H388.244V499.192H354.236ZM348.152 517.028V520.2H394.12V517.028H348.152ZM359.176 525.816H383.304V531.016H359.176V525.816ZM355.432 522.956V533.876H387.204V522.956H355.432ZM369.108 513.232V518.744H373.112V513.232H369.108ZM369.264 532.108V541.312C369.264 541.884 369.056 542.092 368.38 542.144C367.6 542.144 365.104 542.144 362.4 542.04C362.868 542.976 363.388 544.224 363.596 545.16C367.236 545.16 369.68 545.16 371.188 544.692C372.748 544.224 373.164 543.34 373.164 541.416V532.108H369.264ZM377.896 537.152C382.576 539.024 388.504 542.092 391.468 544.172L394.172 541.728C391 539.544 385.02 536.684 380.392 534.968L377.896 537.152ZM360.32 535.02C357.2 537.516 352.052 539.96 347.528 541.52C348.36 542.144 349.712 543.548 350.388 544.328C354.86 542.456 360.372 539.44 363.856 536.476L360.32 535.02Z" fill="black"/>
<path d="M117.872 50.424C119.288 51.672 120.92 53.4 121.64 54.552L123.128 53.496C122.336 52.392 120.656 50.688 119.24 49.488L117.872 50.424ZM102.32 55.944V57.672H123.704V55.944H102.32ZM101.96 63L102.488 64.8C105.512 64.128 109.76 63.144 113.696 62.232L113.552 60.6C109.328 61.512 104.816 62.472 101.96 63ZM107.48 51.288V68.592C107.48 69.024 107.336 69.144 106.904 69.144C106.472 69.168 105.056 69.192 103.52 69.12C103.784 69.648 104.096 70.464 104.192 70.944C106.184 70.968 107.456 70.896 108.224 70.608C108.992 70.32 109.28 69.792 109.28 68.616V51.288H107.48ZM112.04 49.128C109.736 49.992 105.848 50.808 102.464 51.336C102.704 51.744 102.92 52.416 103.016 52.824C106.448 52.344 110.528 51.6 113.312 50.64L112.04 49.128ZM114.44 49.056C114.536 60.48 116.672 71.016 121.376 71.016C123.176 71.016 123.824 69.84 124.16 65.856C123.656 65.664 123.008 65.256 122.624 64.848C122.48 67.944 122.192 69.192 121.544 69.192C118.616 69.192 116.264 60.072 116.312 49.056H114.44ZM120.944 58.776C118.808 62.832 114.848 66.528 110.576 68.592C111.032 69 111.536 69.576 111.824 70.032C116.24 67.704 120.2 63.84 122.552 59.448L120.944 58.776ZM139.76 49.728V51.384H146.984V49.728H139.76ZM146.288 49.728V68.64C146.288 69.024 146.144 69.144 145.76 69.168C145.352 69.192 144.032 69.216 142.664 69.144C142.904 69.624 143.168 70.416 143.24 70.872C145.136 70.872 146.36 70.848 147.08 70.56C147.824 70.272 148.088 69.744 148.088 68.664V49.728H146.288ZM135.08 49.632C136.136 51.096 137.336 53.112 137.864 54.336L139.352 53.472C138.8 52.272 137.528 50.304 136.472 48.864L135.08 49.632ZM134.072 53.688V70.92H135.824V53.688H134.072ZM131.336 48.984C130.352 52.68 128.696 56.376 126.8 58.8C127.112 59.256 127.616 60.216 127.784 60.624C129.944 57.816 131.816 53.592 133.016 49.44L131.336 48.984ZM129.44 55.032V70.92H131.168V53.4L131.096 53.352L129.44 55.032ZM152.312 59.424V61.056H173.552V59.424H152.312ZM162.992 63.72V65.304H171.968V63.72H162.992ZM162.2 60.144V69.24H164.024V60.144H162.2ZM157.496 64.056L156.008 64.608C157.88 69.456 161.144 70.464 166.76 70.464H173.36C173.456 69.936 173.744 69.144 174.008 68.736C172.76 68.76 167.744 68.76 166.832 68.76C162.128 68.736 158.96 67.992 157.496 64.056ZM156.464 61.824C155.84 65.352 154.304 68.04 151.76 69.696C152.168 69.984 152.864 70.632 153.128 70.968C155.768 69.048 157.496 66.072 158.264 62.088L156.464 61.824ZM156.584 54.456H169.088V56.424H156.584V54.456ZM156.584 51.216H169.088V53.16H156.584V51.216ZM154.832 49.848V57.792H170.912V49.848H154.832ZM187.088 57.864V59.496H197.648V57.864H187.088ZM187.088 62.592V64.224H197.648V62.592H187.088ZM187.064 67.536V69.216H198.872V67.536H187.064ZM192.128 53.76V68.448H193.832V53.76H192.128ZM187.856 53.184H187.208L186.128 54.312V70.944H187.856V54.84H198.2V53.184H187.856ZM188.048 48.984C187.16 51.792 185.384 55.32 183.272 57.552C183.632 57.864 184.136 58.512 184.4 58.896C186.704 56.448 188.648 52.704 189.824 49.464L188.048 48.984ZM191.24 49.704C191.912 50.76 192.56 52.2 192.824 53.136L194.408 52.416C194.144 51.504 193.448 50.112 192.752 49.08L191.24 49.704ZM178.4 50.472C179.672 51.6 181.28 53.208 182.024 54.24L183.272 52.992C182.504 51.984 180.872 50.448 179.576 49.392L178.4 50.472ZM180.056 70.248C180.44 69.768 181.064 69.264 185.168 66.048C184.952 65.712 184.64 65.016 184.472 64.56L180.152 67.848L179.72 68.592L180.056 70.248ZM176.912 56.376V58.128H181.16V56.376H176.912ZM180.056 70.248C180.056 69.528 182.024 67.68 182.024 67.68V56.376H180.296V66.432C180.296 67.704 179.432 68.64 178.928 69.024C179.264 69.312 179.864 69.912 180.056 70.248ZM217.712 50.424C219.128 51.672 220.76 53.4 221.48 54.552L222.968 53.496C222.176 52.392 220.496 50.688 219.08 49.488L217.712 50.424ZM202.16 55.944V57.672H223.544V55.944H202.16ZM201.8 63L202.328 64.8C205.352 64.128 209.6 63.144 213.536 62.232L213.392 60.6C209.168 61.512 204.656 62.472 201.8 63ZM207.32 51.288V68.592C207.32 69.024 207.176 69.144 206.744 69.144C206.312 69.168 204.896 69.192 203.36 69.12C203.624 69.648 203.936 70.464 204.032 70.944C206.024 70.968 207.296 70.896 208.064 70.608C208.832 70.32 209.12 69.792 209.12 68.616V51.288H207.32ZM211.88 49.128C209.576 49.992 205.688 50.808 202.304 51.336C202.544 51.744 202.76 52.416 202.856 52.824C206.288 52.344 210.368 51.6 213.152 50.64L211.88 49.128ZM214.28 49.056C214.376 60.48 216.512 71.016 221.216 71.016C223.016 71.016 223.664 69.84 224 65.856C223.496 65.664 222.848 65.256 222.464 64.848C222.32 67.944 222.032 69.192 221.384 69.192C218.456 69.192 216.104 60.072 216.152 49.056H214.28ZM220.784 58.776C218.648 62.832 214.688 66.528 210.416 68.592C210.872 69 211.376 69.576 211.664 70.032C216.08 67.704 220.04 63.84 222.392 59.448L220.784 58.776ZM239.6 49.728V51.384H246.824V49.728H239.6ZM246.128 49.728V68.64C246.128 69.024 245.984 69.144 245.6 69.168C245.192 69.192 243.872 69.216 242.504 69.144C242.744 69.624 243.008 70.416 243.08 70.872C244.976 70.872 246.2 70.848 246.92 70.56C247.664 70.272 247.928 69.744 247.928 68.664V49.728H246.128ZM234.92 49.632C235.976 51.096 237.176 53.112 237.704 54.336L239.192 53.472C238.64 52.272 237.368 50.304 236.312 48.864L234.92 49.632ZM233.912 53.688V70.92H235.664V53.688H233.912ZM231.176 48.984C230.192 52.68 228.536 56.376 226.64 58.8C226.952 59.256 227.456 60.216 227.624 60.624C229.784 57.816 231.656 53.592 232.856 49.44L231.176 48.984ZM229.28 55.032V70.92H231.008V53.4L230.936 53.352L229.28 55.032ZM252.152 59.424V61.056H273.392V59.424H252.152ZM262.832 63.72V65.304H271.808V63.72H262.832ZM262.04 60.144V69.24H263.864V60.144H262.04ZM257.336 64.056L255.848 64.608C257.72 69.456 260.984 70.464 266.6 70.464H273.2C273.296 69.936 273.584 69.144 273.848 68.736C272.6 68.76 267.584 68.76 266.672 68.76C261.968 68.736 258.8 67.992 257.336 64.056ZM256.304 61.824C255.68 65.352 254.144 68.04 251.6 69.696C252.008 69.984 252.704 70.632 252.968 70.968C255.608 69.048 257.336 66.072 258.104 62.088L256.304 61.824ZM256.424 54.456H268.928V56.424H256.424V54.456ZM256.424 51.216H268.928V53.16H256.424V51.216ZM254.672 49.848V57.792H270.752V49.848H254.672ZM286.928 57.864V59.496H297.488V57.864H286.928ZM286.928 62.592V64.224H297.488V62.592H286.928ZM286.904 67.536V69.216H298.712V67.536H286.904ZM291.968 53.76V68.448H293.672V53.76H291.968ZM287.696 53.184H287.048L285.968 54.312V70.944H287.696V54.84H298.04V53.184H287.696ZM287.888 48.984C287 51.792 285.224 55.32 283.112 57.552C283.472 57.864 283.976 58.512 284.24 58.896C286.544 56.448 288.488 52.704 289.664 49.464L287.888 48.984ZM291.08 49.704C291.752 50.76 292.4 52.2 292.664 53.136L294.248 52.416C293.984 51.504 293.288 50.112 292.592 49.08L291.08 49.704ZM278.24 50.472C279.512 51.6 281.12 53.208 281.864 54.24L283.112 52.992C282.344 51.984 280.712 50.448 279.416 49.392L278.24 50.472ZM279.896 70.248C280.28 69.768 280.904 69.264 285.008 66.048C284.792 65.712 284.48 65.016 284.312 64.56L279.992 67.848L279.56 68.592L279.896 70.248ZM276.752 56.376V58.128H281V56.376H276.752ZM279.896 70.248C279.896 69.528 281.864 67.68 281.864 67.68V56.376H280.136V66.432C280.136 67.704 279.272 68.64 278.768 69.024C279.104 69.312 279.704 69.912 279.896 70.248ZM317.552 50.424C318.968 51.672 320.6 53.4 321.32 54.552L322.808 53.496C322.016 52.392 320.336 50.688 318.92 49.488L317.552 50.424ZM302 55.944V57.672H323.384V55.944H302ZM301.64 63L302.168 64.8C305.192 64.128 309.44 63.144 313.376 62.232L313.232 60.6C309.008 61.512 304.496 62.472 301.64 63ZM307.16 51.288V68.592C307.16 69.024 307.016 69.144 306.584 69.144C306.152 69.168 304.736 69.192 303.2 69.12C303.464 69.648 303.776 70.464 303.872 70.944C305.864 70.968 307.136 70.896 307.904 70.608C308.672 70.32 308.96 69.792 308.96 68.616V51.288H307.16ZM311.72 49.128C309.416 49.992 305.528 50.808 302.144 51.336C302.384 51.744 302.6 52.416 302.696 52.824C306.128 52.344 310.208 51.6 312.992 50.64L311.72 49.128ZM314.12 49.056C314.216 60.48 316.352 71.016 321.056 71.016C322.856 71.016 323.504 69.84 323.84 65.856C323.336 65.664 322.688 65.256 322.304 64.848C322.16 67.944 321.872 69.192 321.224 69.192C318.296 69.192 315.944 60.072 315.992 49.056H314.12ZM320.624 58.776C318.488 62.832 314.528 66.528 310.256 68.592C310.712 69 311.216 69.576 311.504 70.032C315.92 67.704 319.88 63.84 322.232 59.448L320.624 58.776ZM339.44 49.728V51.384H346.664V49.728H339.44ZM345.968 49.728V68.64C345.968 69.024 345.824 69.144 345.44 69.168C345.032 69.192 343.712 69.216 342.344 69.144C342.584 69.624 342.848 70.416 342.92 70.872C344.816 70.872 346.04 70.848 346.76 70.56C347.504 70.272 347.768 69.744 347.768 68.664V49.728H345.968ZM334.76 49.632C335.816 51.096 337.016 53.112 337.544 54.336L339.032 53.472C338.48 52.272 337.208 50.304 336.152 48.864L334.76 49.632ZM333.752 53.688V70.92H335.504V53.688H333.752ZM331.016 48.984C330.032 52.68 328.376 56.376 326.48 58.8C326.792 59.256 327.296 60.216 327.464 60.624C329.624 57.816 331.496 53.592 332.696 49.44L331.016 48.984ZM329.12 55.032V70.92H330.848V53.4L330.776 53.352L329.12 55.032ZM351.992 59.424V61.056H373.232V59.424H351.992ZM362.672 63.72V65.304H371.648V63.72H362.672ZM361.88 60.144V69.24H363.704V60.144H361.88ZM357.176 64.056L355.688 64.608C357.56 69.456 360.824 70.464 366.44 70.464H373.04C373.136 69.936 373.424 69.144 373.688 68.736C372.44 68.76 367.424 68.76 366.512 68.76C361.808 68.736 358.64 67.992 357.176 64.056ZM356.144 61.824C355.52 65.352 353.984 68.04 351.44 69.696C351.848 69.984 352.544 70.632 352.808 70.968C355.448 69.048 357.176 66.072 357.944 62.088L356.144 61.824ZM356.264 54.456H368.768V56.424H356.264V54.456ZM356.264 51.216H368.768V53.16H356.264V51.216ZM354.512 49.848V57.792H370.592V49.848H354.512ZM386.768 57.864V59.496H397.328V57.864H386.768ZM386.768 62.592V64.224H397.328V62.592H386.768ZM386.744 67.536V69.216H398.552V67.536H386.744ZM391.808 53.76V68.448H393.512V53.76H391.808ZM387.536 53.184H386.888L385.808 54.312V70.944H387.536V54.84H397.88V53.184H387.536ZM387.728 48.984C386.84 51.792 385.064 55.32 382.952 57.552C383.312 57.864 383.816 58.512 384.08 58.896C386.384 56.448 388.328 52.704 389.504 49.464L387.728 48.984ZM390.92 49.704C391.592 50.76 392.24 52.2 392.504 53.136L394.088 52.416C393.824 51.504 393.128 50.112 392.432 49.08L390.92 49.704ZM378.08 50.472C379.352 51.6 380.96 53.208 381.704 54.24L382.952 52.992C382.184 51.984 380.552 50.448 379.256 49.392L378.08 50.472ZM379.736 70.248C380.12 69.768 380.744 69.264 384.848 66.048C384.632 65.712 384.32 65.016 384.152 64.56L379.832 67.848L379.4 68.592L379.736 70.248ZM376.592 56.376V58.128H380.84V56.376H376.592ZM379.736 70.248C379.736 69.528 381.704 67.68 381.704 67.68V56.376H379.976V66.432C379.976 67.704 379.112 68.64 378.608 69.024C378.944 69.312 379.544 69.912 379.736 70.248ZM417.392 50.424C418.808 51.672 420.44 53.4 421.16 54.552L422.648 53.496C421.856 52.392 420.176 50.688 418.76 49.488L417.392 50.424ZM401.84 55.944V57.672H423.224V55.944H401.84ZM401.48 63L402.008 64.8C405.032 64.128 409.28 63.144 413.216 62.232L413.072 60.6C408.848 61.512 404.336 62.472 401.48 63ZM407 51.288V68.592C407 69.024 406.856 69.144 406.424 69.144C405.992 69.168 404.576 69.192 403.04 69.12C403.304 69.648 403.616 70.464 403.712 70.944C405.704 70.968 406.976 70.896 407.744 70.608C408.512 70.32 408.8 69.792 408.8 68.616V51.288H407ZM411.56 49.128C409.256 49.992 405.368 50.808 401.984 51.336C402.224 51.744 402.44 52.416 402.536 52.824C405.968 52.344 410.048 51.6 412.832 50.64L411.56 49.128ZM413.96 49.056C414.056 60.48 416.192 71.016 420.896 71.016C422.696 71.016 423.344 69.84 423.68 65.856C423.176 65.664 422.528 65.256 422.144 64.848C422 67.944 421.712 69.192 421.064 69.192C418.136 69.192 415.784 60.072 415.832 49.056H413.96ZM420.464 58.776C418.328 62.832 414.368 66.528 410.096 68.592C410.552 69 411.056 69.576 411.344 70.032C415.76 67.704 419.72 63.84 422.072 59.448L420.464 58.776ZM439.28 49.728V51.384H446.504V49.728H439.28ZM445.808 49.728V68.64C445.808 69.024 445.664 69.144 445.28 69.168C444.872 69.192 443.552 69.216 442.184 69.144C442.424 69.624 442.688 70.416 442.76 70.872C444.656 70.872 445.88 70.848 446.6 70.56C447.344 70.272 447.608 69.744 447.608 68.664V49.728H445.808ZM434.6 49.632C435.656 51.096 436.856 53.112 437.384 54.336L438.872 53.472C438.32 52.272 437.048 50.304 435.992 48.864L434.6 49.632ZM433.592 53.688V70.92H435.344V53.688H433.592ZM430.856 48.984C429.872 52.68 428.216 56.376 426.32 58.8C426.632 59.256 427.136 60.216 427.304 60.624C429.464 57.816 431.336 53.592 432.536 49.44L430.856 48.984ZM428.96 55.032V70.92H430.688V53.4L430.616 53.352L428.96 55.032ZM451.832 59.424V61.056H473.072V59.424H451.832ZM462.512 63.72V65.304H471.488V63.72H462.512ZM461.72 60.144V69.24H463.544V60.144H461.72ZM457.016 64.056L455.528 64.608C457.4 69.456 460.664 70.464 466.28 70.464H472.88C472.976 69.936 473.264 69.144 473.528 68.736C472.28 68.76 467.264 68.76 466.352 68.76C461.648 68.736 458.48 67.992 457.016 64.056ZM455.984 61.824C455.36 65.352 453.824 68.04 451.28 69.696C451.688 69.984 452.384 70.632 452.648 70.968C455.288 69.048 457.016 66.072 457.784 62.088L455.984 61.824ZM456.104 54.456H468.608V56.424H456.104V54.456ZM456.104 51.216H468.608V53.16H456.104V51.216ZM454.352 49.848V57.792H470.432V49.848H454.352ZM486.608 57.864V59.496H497.168V57.864H486.608ZM486.608 62.592V64.224H497.168V62.592H486.608ZM486.584 67.536V69.216H498.392V67.536H486.584ZM491.648 53.76V68.448H493.352V53.76H491.648ZM487.376 53.184H486.728L485.648 54.312V70.944H487.376V54.84H497.72V53.184H487.376ZM487.568 48.984C486.68 51.792 484.904 55.32 482.792 57.552C483.152 57.864 483.656 58.512 483.92 58.896C486.224 56.448 488.168 52.704 489.344 49.464L487.568 48.984ZM490.76 49.704C491.432 50.76 492.08 52.2 492.344 53.136L493.928 52.416C493.664 51.504 492.968 50.112 492.272 49.08L490.76 49.704ZM477.92 50.472C479.192 51.6 480.8 53.208 481.544 54.24L482.792 52.992C482.024 51.984 480.392 50.448 479.096 49.392L477.92 50.472ZM479.576 70.248C479.96 69.768 480.584 69.264 484.688 66.048C484.472 65.712 484.16 65.016 483.992 64.56L479.672 67.848L479.24 68.592L479.576 70.248ZM476.432 56.376V58.128H480.68V56.376H476.432ZM479.576 70.248C479.576 69.528 481.544 67.68 481.544 67.68V56.376H479.816V66.432C479.816 67.704 478.952 68.64 478.448 69.024C478.784 69.312 479.384 69.912 479.576 70.248ZM517.232 50.424C518.648 51.672 520.28 53.4 521 54.552L522.488 53.496C521.696 52.392 520.016 50.688 518.6 49.488L517.232 50.424ZM501.68 55.944V57.672H523.064V55.944H501.68ZM501.32 63L501.848 64.8C504.872 64.128 509.12 63.144 513.056 62.232L512.912 60.6C508.688 61.512 504.176 62.472 501.32 63ZM506.84 51.288V68.592C506.84 69.024 506.696 69.144 506.264 69.144C505.832 69.168 504.416 69.192 502.88 69.12C503.144 69.648 503.456 70.464 503.552 70.944C505.544 70.968 506.816 70.896 507.584 70.608C508.352 70.32 508.64 69.792 508.64 68.616V51.288H506.84ZM511.4 49.128C509.096 49.992 505.208 50.808 501.824 51.336C502.064 51.744 502.28 52.416 502.376 52.824C505.808 52.344 509.888 51.6 512.672 50.64L511.4 49.128ZM513.8 49.056C513.896 60.48 516.032 71.016 520.736 71.016C522.536 71.016 523.184 69.84 523.52 65.856C523.016 65.664 522.368 65.256 521.984 64.848C521.84 67.944 521.552 69.192 520.904 69.192C517.976 69.192 515.624 60.072 515.672 49.056H513.8ZM520.304 58.776C518.168 62.832 514.208 66.528 509.936 68.592C510.392 69 510.896 69.576 511.184 70.032C515.6 67.704 519.56 63.84 521.912 59.448L520.304 58.776ZM539.12 49.728V51.384H546.344V49.728H539.12ZM545.648 49.728V68.64C545.648 69.024 545.504 69.144 545.12 69.168C544.712 69.192 543.392 69.216 542.024 69.144C542.264 69.624 542.528 70.416 542.6 70.872C544.496 70.872 545.72 70.848 546.44 70.56C547.184 70.272 547.448 69.744 547.448 68.664V49.728H545.648ZM534.44 49.632C535.496 51.096 536.696 53.112 537.224 54.336L538.712 53.472C538.16 52.272 536.888 50.304 535.832 48.864L534.44 49.632ZM533.432 53.688V70.92H535.184V53.688H533.432ZM530.696 48.984C529.712 52.68 528.056 56.376 526.16 58.8C526.472 59.256 526.976 60.216 527.144 60.624C529.304 57.816 531.176 53.592 532.376 49.44L530.696 48.984ZM528.8 55.032V70.92H530.528V53.4L530.456 53.352L528.8 55.032ZM551.672 59.424V61.056H572.912V59.424H551.672ZM562.352 63.72V65.304H571.328V63.72H562.352ZM561.56 60.144V69.24H563.384V60.144H561.56ZM556.856 64.056L555.368 64.608C557.24 69.456 560.504 70.464 566.12 70.464H572.72C572.816 69.936 573.104 69.144 573.368 68.736C572.12 68.76 567.104 68.76 566.192 68.76C561.488 68.736 558.32 67.992 556.856 64.056ZM555.824 61.824C555.2 65.352 553.664 68.04 551.12 69.696C551.528 69.984 552.224 70.632 552.488 70.968C555.128 69.048 556.856 66.072 557.624 62.088L555.824 61.824ZM555.944 54.456H568.448V56.424H555.944V54.456ZM555.944 51.216H568.448V53.16H555.944V51.216ZM554.192 49.848V57.792H570.272V49.848H554.192ZM586.448 57.864V59.496H597.008V57.864H586.448ZM586.448 62.592V64.224H597.008V62.592H586.448ZM586.424 67.536V69.216H598.232V67.536H586.424ZM591.488 53.76V68.448H593.192V53.76H591.488ZM587.216 53.184H586.568L585.488 54.312V70.944H587.216V54.84H597.56V53.184H587.216ZM587.408 48.984C586.52 51.792 584.744 55.32 582.632 57.552C582.992 57.864 583.496 58.512 583.76 58.896C586.064 56.448 588.008 52.704 589.184 49.464L587.408 48.984ZM590.6 49.704C591.272 50.76 591.92 52.2 592.184 53.136L593.768 52.416C593.504 51.504 592.808 50.112 592.112 49.08L590.6 49.704ZM577.76 50.472C579.032 51.6 580.64 53.208 581.384 54.24L582.632 52.992C581.864 51.984 580.232 50.448 578.936 49.392L577.76 50.472ZM579.416 70.248C579.8 69.768 580.424 69.264 584.528 66.048C584.312 65.712 584 65.016 583.832 64.56L579.512 67.848L579.08 68.592L579.416 70.248ZM576.272 56.376V58.128H580.52V56.376H576.272ZM579.416 70.248C579.416 69.528 581.384 67.68 581.384 67.68V56.376H579.656V66.432C579.656 67.704 578.792 68.64 578.288 69.024C578.624 69.312 579.224 69.912 579.416 70.248ZM617.072 50.424C618.488 51.672 620.12 53.4 620.84 54.552L622.328 53.496C621.536 52.392 619.856 50.688 618.44 49.488L617.072 50.424ZM601.52 55.944V57.672H622.904V55.944H601.52ZM601.16 63L601.688 64.8C604.712 64.128 608.96 63.144 612.896 62.232L612.752 60.6C608.528 61.512 604.016 62.472 601.16 63ZM606.68 51.288V68.592C606.68 69.024 606.536 69.144 606.104 69.144C605.672 69.168 604.256 69.192 602.72 69.12C602.984 69.648 603.296 70.464 603.392 70.944C605.384 70.968 606.656 70.896 607.424 70.608C608.192 70.32 608.48 69.792 608.48 68.616V51.288H606.68ZM611.24 49.128C608.936 49.992 605.048 50.808 601.664 51.336C601.904 51.744 602.12 52.416 602.216 52.824C605.648 52.344 609.728 51.6 612.512 50.64L611.24 49.128ZM613.64 49.056C613.736 60.48 615.872 71.016 620.576 71.016C622.376 71.016 623.024 69.84 623.36 65.856C622.856 65.664 622.208 65.256 621.824 64.848C621.68 67.944 621.392 69.192 620.744 69.192C617.816 69.192 615.464 60.072 615.512 49.056H613.64ZM620.144 58.776C618.008 62.832 614.048 66.528 609.776 68.592C610.232 69 610.736 69.576 611.024 70.032C615.44 67.704 619.4 63.84 621.752 59.448L620.144 58.776ZM114.8 82.728V84.384H122.024V82.728H114.8ZM121.328 82.728V101.64C121.328 102.024 121.184 102.144 120.8 102.168C120.392 102.192 119.072 102.216 117.704 102.144C117.944 102.624 118.208 103.416 118.28 103.872C120.176 103.872 121.4 103.848 122.12 103.56C122.864 103.272 123.128 102.744 123.128 101.664V82.728H121.328ZM110.12 82.632C111.176 84.096 112.376 86.112 112.904 87.336L114.392 86.472C113.84 85.272 112.568 83.304 111.512 81.864L110.12 82.632ZM109.112 86.688V103.92H110.864V86.688H109.112ZM106.376 81.984C105.392 85.68 103.736 89.376 101.84 91.8C102.152 92.256 102.656 93.216 102.824 93.624C104.984 90.816 106.856 86.592 108.056 82.44L106.376 81.984ZM104.48 88.032V103.92H106.208V86.4L106.136 86.352L104.48 88.032ZM127.352 92.424V94.056H148.592V92.424H127.352ZM138.032 96.72V98.304H147.008V96.72H138.032ZM137.24 93.144V102.24H139.064V93.144H137.24ZM132.536 97.056L131.048 97.608C132.92 102.456 136.184 103.464 141.8 103.464H148.4C148.496 102.936 148.784 102.144 149.048 101.736C147.8 101.76 142.784 101.76 141.872 101.76C137.168 101.736 134 100.992 132.536 97.056ZM131.504 94.824C130.88 98.352 129.344 101.04 126.8 102.696C127.208 102.984 127.904 103.632 128.168 103.968C130.808 102.048 132.536 99.072 133.304 95.088L131.504 94.824ZM131.624 87.456H144.128V89.424H131.624V87.456ZM131.624 84.216H144.128V86.16H131.624V84.216ZM129.872 82.848V90.792H145.952V82.848H129.872ZM162.128 90.864V92.496H172.688V90.864H162.128ZM162.128 95.592V97.224H172.688V95.592H162.128ZM162.104 100.536V102.216H173.912V100.536H162.104ZM167.168 86.76V101.448H168.872V86.76H167.168ZM162.896 86.184H162.248L161.168 87.312V103.944H162.896V87.84H173.24V86.184H162.896ZM163.088 81.984C162.2 84.792 160.424 88.32 158.312 90.552C158.672 90.864 159.176 91.512 159.44 91.896C161.744 89.448 163.688 85.704 164.864 82.464L163.088 81.984ZM166.28 82.704C166.952 83.76 167.6 85.2 167.864 86.136L169.448 85.416C169.184 84.504 168.488 83.112 167.792 82.08L166.28 82.704ZM153.44 83.472C154.712 84.6 156.32 86.208 157.064 87.24L158.312 85.992C157.544 84.984 155.912 83.448 154.616 82.392L153.44 83.472ZM155.096 103.248C155.48 102.768 156.104 102.264 160.208 99.048C159.992 98.712 159.68 98.016 159.512 97.56L155.192 100.848L154.76 101.592L155.096 103.248ZM151.952 89.376V91.128H156.2V89.376H151.952ZM155.096 103.248C155.096 102.528 157.064 100.68 157.064 100.68V89.376H155.336V99.432C155.336 100.704 154.472 101.64 153.968 102.024C154.304 102.312 154.904 102.912 155.096 103.248ZM192.752 83.424C194.168 84.672 195.8 86.4 196.52 87.552L198.008 86.496C197.216 85.392 195.536 83.688 194.12 82.488L192.752 83.424ZM177.2 88.944V90.672H198.584V88.944H177.2ZM176.84 96L177.368 97.8C180.392 97.128 184.64 96.144 188.576 95.232L188.432 93.6C184.208 94.512 179.696 95.472 176.84 96ZM182.36 84.288V101.592C182.36 102.024 182.216 102.144 181.784 102.144C181.352 102.168 179.936 102.192 178.4 102.12C178.664 102.648 178.976 103.464 179.072 103.944C181.064 103.968 182.336 103.896 183.104 103.608C183.872 103.32 184.16 102.792 184.16 101.616V84.288H182.36ZM186.92 82.128C184.616 82.992 180.728 83.808 177.344 84.336C177.584 84.744 177.8 85.416 177.896 85.824C181.328 85.344 185.408 84.6 188.192 83.64L186.92 82.128ZM189.32 82.056C189.416 93.48 191.552 104.016 196.256 104.016C198.056 104.016 198.704 102.84 199.04 98.856C198.536 98.664 197.888 98.256 197.504 97.848C197.36 100.944 197.072 102.192 196.424 102.192C193.496 102.192 191.144 93.072 191.192 82.056H189.32ZM195.824 91.776C193.688 95.832 189.728 99.528 185.456 101.592C185.912 102 186.416 102.576 186.704 103.032C191.12 100.704 195.08 96.84 197.432 92.448L195.824 91.776ZM214.64 82.728V84.384H221.864V82.728H214.64ZM221.168 82.728V101.64C221.168 102.024 221.024 102.144 220.64 102.168C220.232 102.192 218.912 102.216 217.544 102.144C217.784 102.624 218.048 103.416 218.12 103.872C220.016 103.872 221.24 103.848 221.96 103.56C222.704 103.272 222.968 102.744 222.968 101.664V82.728H221.168ZM209.96 82.632C211.016 84.096 212.216 86.112 212.744 87.336L214.232 86.472C213.68 85.272 212.408 83.304 211.352 81.864L209.96 82.632ZM208.952 86.688V103.92H210.704V86.688H208.952ZM206.216 81.984C205.232 85.68 203.576 89.376 201.68 91.8C201.992 92.256 202.496 93.216 202.664 93.624C204.824 90.816 206.696 86.592 207.896 82.44L206.216 81.984ZM204.32 88.032V103.92H206.048V86.4L205.976 86.352L204.32 88.032ZM227.192 92.424V94.056H248.432V92.424H227.192ZM237.872 96.72V98.304H246.848V96.72H237.872ZM237.08 93.144V102.24H238.904V93.144H237.08ZM232.376 97.056L230.888 97.608C232.76 102.456 236.024 103.464 241.64 103.464H248.24C248.336 102.936 248.624 102.144 248.888 101.736C247.64 101.76 242.624 101.76 241.712 101.76C237.008 101.736 233.84 100.992 232.376 97.056ZM231.344 94.824C230.72 98.352 229.184 101.04 226.64 102.696C227.048 102.984 227.744 103.632 228.008 103.968C230.648 102.048 232.376 99.072 233.144 95.088L231.344 94.824ZM231.464 87.456H243.968V89.424H231.464V87.456ZM231.464 84.216H243.968V86.16H231.464V84.216ZM229.712 82.848V90.792H245.792V82.848H229.712ZM261.968 90.864V92.496H272.528V90.864H261.968ZM261.968 95.592V97.224H272.528V95.592H261.968ZM261.944 100.536V102.216H273.752V100.536H261.944ZM267.008 86.76V101.448H268.712V86.76H267.008ZM262.736 86.184H262.088L261.008 87.312V103.944H262.736V87.84H273.08V86.184H262.736ZM262.928 81.984C262.04 84.792 260.264 88.32 258.152 90.552C258.512 90.864 259.016 91.512 259.28 91.896C261.584 89.448 263.528 85.704 264.704 82.464L262.928 81.984ZM266.12 82.704C266.792 83.76 267.44 85.2 267.704 86.136L269.288 85.416C269.024 84.504 268.328 83.112 267.632 82.08L266.12 82.704ZM253.28 83.472C254.552 84.6 256.16 86.208 256.904 87.24L258.152 85.992C257.384 84.984 255.752 83.448 254.456 82.392L253.28 83.472ZM254.936 103.248C255.32 102.768 255.944 102.264 260.048 99.048C259.832 98.712 259.52 98.016 259.352 97.56L255.032 100.848L254.6 101.592L254.936 103.248ZM251.792 89.376V91.128H256.04V89.376H251.792ZM254.936 103.248C254.936 102.528 256.904 100.68 256.904 100.68V89.376H255.176V99.432C255.176 100.704 254.312 101.64 253.808 102.024C254.144 102.312 254.744 102.912 254.936 103.248ZM292.592 83.424C294.008 84.672 295.64 86.4 296.36 87.552L297.848 86.496C297.056 85.392 295.376 83.688 293.96 82.488L292.592 83.424ZM277.04 88.944V90.672H298.424V88.944H277.04ZM276.68 96L277.208 97.8C280.232 97.128 284.48 96.144 288.416 95.232L288.272 93.6C284.048 94.512 279.536 95.472 276.68 96ZM282.2 84.288V101.592C282.2 102.024 282.056 102.144 281.624 102.144C281.192 102.168 279.776 102.192 278.24 102.12C278.504 102.648 278.816 103.464 278.912 103.944C280.904 103.968 282.176 103.896 282.944 103.608C283.712 103.32 284 102.792 284 101.616V84.288H282.2ZM286.76 82.128C284.456 82.992 280.568 83.808 277.184 84.336C277.424 84.744 277.64 85.416 277.736 85.824C281.168 85.344 285.248 84.6 288.032 83.64L286.76 82.128ZM289.16 82.056C289.256 93.48 291.392 104.016 296.096 104.016C297.896 104.016 298.544 102.84 298.88 98.856C298.376 98.664 297.728 98.256 297.344 97.848C297.2 100.944 296.912 102.192 296.264 102.192C293.336 102.192 290.984 93.072 291.032 82.056H289.16ZM295.664 91.776C293.528 95.832 289.568 99.528 285.296 101.592C285.752 102 286.256 102.576 286.544 103.032C290.96 100.704 294.92 96.84 297.272 92.448L295.664 91.776ZM314.48 82.728V84.384H321.704V82.728H314.48ZM321.008 82.728V101.64C321.008 102.024 320.864 102.144 320.48 102.168C320.072 102.192 318.752 102.216 317.384 102.144C317.624 102.624 317.888 103.416 317.96 103.872C319.856 103.872 321.08 103.848 321.8 103.56C322.544 103.272 322.808 102.744 322.808 101.664V82.728H321.008ZM309.8 82.632C310.856 84.096 312.056 86.112 312.584 87.336L314.072 86.472C313.52 85.272 312.248 83.304 311.192 81.864L309.8 82.632ZM308.792 86.688V103.92H310.544V86.688H308.792ZM306.056 81.984C305.072 85.68 303.416 89.376 301.52 91.8C301.832 92.256 302.336 93.216 302.504 93.624C304.664 90.816 306.536 86.592 307.736 82.44L306.056 81.984ZM304.16 88.032V103.92H305.888V86.4L305.816 86.352L304.16 88.032ZM327.032 92.424V94.056H348.272V92.424H327.032ZM337.712 96.72V98.304H346.688V96.72H337.712ZM336.92 93.144V102.24H338.744V93.144H336.92ZM332.216 97.056L330.728 97.608C332.6 102.456 335.864 103.464 341.48 103.464H348.08C348.176 102.936 348.464 102.144 348.728 101.736C347.48 101.76 342.464 101.76 341.552 101.76C336.848 101.736 333.68 100.992 332.216 97.056ZM331.184 94.824C330.56 98.352 329.024 101.04 326.48 102.696C326.888 102.984 327.584 103.632 327.848 103.968C330.488 102.048 332.216 99.072 332.984 95.088L331.184 94.824ZM331.304 87.456H343.808V89.424H331.304V87.456ZM331.304 84.216H343.808V86.16H331.304V84.216ZM329.552 82.848V90.792H345.632V82.848H329.552ZM361.808 90.864V92.496H372.368V90.864H361.808ZM361.808 95.592V97.224H372.368V95.592H361.808ZM361.784 100.536V102.216H373.592V100.536H361.784ZM366.848 86.76V101.448H368.552V86.76H366.848ZM362.576 86.184H361.928L360.848 87.312V103.944H362.576V87.84H372.92V86.184H362.576ZM362.768 81.984C361.88 84.792 360.104 88.32 357.992 90.552C358.352 90.864 358.856 91.512 359.12 91.896C361.424 89.448 363.368 85.704 364.544 82.464L362.768 81.984ZM365.96 82.704C366.632 83.76 367.28 85.2 367.544 86.136L369.128 85.416C368.864 84.504 368.168 83.112 367.472 82.08L365.96 82.704ZM353.12 83.472C354.392 84.6 356 86.208 356.744 87.24L357.992 85.992C357.224 84.984 355.592 83.448 354.296 82.392L353.12 83.472ZM354.776 103.248C355.16 102.768 355.784 102.264 359.888 99.048C359.672 98.712 359.36 98.016 359.192 97.56L354.872 100.848L354.44 101.592L354.776 103.248ZM351.632 89.376V91.128H355.88V89.376H351.632ZM354.776 103.248C354.776 102.528 356.744 100.68 356.744 100.68V89.376H355.016V99.432C355.016 100.704 354.152 101.64 353.648 102.024C353.984 102.312 354.584 102.912 354.776 103.248ZM392.432 83.424C393.848 84.672 395.48 86.4 396.2 87.552L397.688 86.496C396.896 85.392 395.216 83.688 393.8 82.488L392.432 83.424ZM376.88 88.944V90.672H398.264V88.944H376.88ZM376.52 96L377.048 97.8C380.072 97.128 384.32 96.144 388.256 95.232L388.112 93.6C383.888 94.512 379.376 95.472 376.52 96ZM382.04 84.288V101.592C382.04 102.024 381.896 102.144 381.464 102.144C381.032 102.168 379.616 102.192 378.08 102.12C378.344 102.648 378.656 103.464 378.752 103.944C380.744 103.968 382.016 103.896 382.784 103.608C383.552 103.32 383.84 102.792 383.84 101.616V84.288H382.04ZM386.6 82.128C384.296 82.992 380.408 83.808 377.024 84.336C377.264 84.744 377.48 85.416 377.576 85.824C381.008 85.344 385.088 84.6 387.872 83.64L386.6 82.128ZM389 82.056C389.096 93.48 391.232 104.016 395.936 104.016C397.736 104.016 398.384 102.84 398.72 98.856C398.216 98.664 397.568 98.256 397.184 97.848C397.04 100.944 396.752 102.192 396.104 102.192C393.176 102.192 390.824 93.072 390.872 82.056H389ZM395.504 91.776C393.368 95.832 389.408 99.528 385.136 101.592C385.592 102 386.096 102.576 386.384 103.032C390.8 100.704 394.76 96.84 397.112 92.448L395.504 91.776ZM414.32 82.728V84.384H421.544V82.728H414.32ZM420.848 82.728V101.64C420.848 102.024 420.704 102.144 420.32 102.168C419.912 102.192 418.592 102.216 417.224 102.144C417.464 102.624 417.728 103.416 417.8 103.872C419.696 103.872 420.92 103.848 421.64 103.56C422.384 103.272 422.648 102.744 422.648 101.664V82.728H420.848ZM409.64 82.632C410.696 84.096 411.896 86.112 412.424 87.336L413.912 86.472C413.36 85.272 412.088 83.304 411.032 81.864L409.64 82.632ZM408.632 86.688V103.92H410.384V86.688H408.632ZM405.896 81.984C404.912 85.68 403.256 89.376 401.36 91.8C401.672 92.256 402.176 93.216 402.344 93.624C404.504 90.816 406.376 86.592 407.576 82.44L405.896 81.984ZM404 88.032V103.92H405.728V86.4L405.656 86.352L404 88.032ZM426.872 92.424V94.056H448.112V92.424H426.872ZM437.552 96.72V98.304H446.528V96.72H437.552ZM436.76 93.144V102.24H438.584V93.144H436.76ZM432.056 97.056L430.568 97.608C432.44 102.456 435.704 103.464 441.32 103.464H447.92C448.016 102.936 448.304 102.144 448.568 101.736C447.32 101.76 442.304 101.76 441.392 101.76C436.688 101.736 433.52 100.992 432.056 97.056ZM431.024 94.824C430.4 98.352 428.864 101.04 426.32 102.696C426.728 102.984 427.424 103.632 427.688 103.968C430.328 102.048 432.056 99.072 432.824 95.088L431.024 94.824ZM431.144 87.456H443.648V89.424H431.144V87.456ZM431.144 84.216H443.648V86.16H431.144V84.216ZM429.392 82.848V90.792H445.472V82.848H429.392ZM461.648 90.864V92.496H472.208V90.864H461.648ZM461.648 95.592V97.224H472.208V95.592H461.648ZM461.624 100.536V102.216H473.432V100.536H461.624ZM466.688 86.76V101.448H468.392V86.76H466.688ZM462.416 86.184H461.768L460.688 87.312V103.944H462.416V87.84H472.76V86.184H462.416ZM462.608 81.984C461.72 84.792 459.944 88.32 457.832 90.552C458.192 90.864 458.696 91.512 458.96 91.896C461.264 89.448 463.208 85.704 464.384 82.464L462.608 81.984ZM465.8 82.704C466.472 83.76 467.12 85.2 467.384 86.136L468.968 85.416C468.704 84.504 468.008 83.112 467.312 82.08L465.8 82.704ZM452.96 83.472C454.232 84.6 455.84 86.208 456.584 87.24L457.832 85.992C457.064 84.984 455.432 83.448 454.136 82.392L452.96 83.472ZM454.616 103.248C455 102.768 455.624 102.264 459.728 99.048C459.512 98.712 459.2 98.016 459.032 97.56L454.712 100.848L454.28 101.592L454.616 103.248ZM451.472 89.376V91.128H455.72V89.376H451.472ZM454.616 103.248C454.616 102.528 456.584 100.68 456.584 100.68V89.376H454.856V99.432C454.856 100.704 453.992 101.64 453.488 102.024C453.824 102.312 454.424 102.912 454.616 103.248ZM492.272 83.424C493.688 84.672 495.32 86.4 496.04 87.552L497.528 86.496C496.736 85.392 495.056 83.688 493.64 82.488L492.272 83.424ZM476.72 88.944V90.672H498.104V88.944H476.72ZM476.36 96L476.888 97.8C479.912 97.128 484.16 96.144 488.096 95.232L487.952 93.6C483.728 94.512 479.216 95.472 476.36 96ZM481.88 84.288V101.592C481.88 102.024 481.736 102.144 481.304 102.144C480.872 102.168 479.456 102.192 477.92 102.12C478.184 102.648 478.496 103.464 478.592 103.944C480.584 103.968 481.856 103.896 482.624 103.608C483.392 103.32 483.68 102.792 483.68 101.616V84.288H481.88ZM486.44 82.128C484.136 82.992 480.248 83.808 476.864 84.336C477.104 84.744 477.32 85.416 477.416 85.824C480.848 85.344 484.928 84.6 487.712 83.64L486.44 82.128ZM488.84 82.056C488.936 93.48 491.072 104.016 495.776 104.016C497.576 104.016 498.224 102.84 498.56 98.856C498.056 98.664 497.408 98.256 497.024 97.848C496.88 100.944 496.592 102.192 495.944 102.192C493.016 102.192 490.664 93.072 490.712 82.056H488.84ZM495.344 91.776C493.208 95.832 489.248 99.528 484.976 101.592C485.432 102 485.936 102.576 486.224 103.032C490.64 100.704 494.6 96.84 496.952 92.448L495.344 91.776ZM514.16 82.728V84.384H521.384V82.728H514.16ZM520.688 82.728V101.64C520.688 102.024 520.544 102.144 520.16 102.168C519.752 102.192 518.432 102.216 517.064 102.144C517.304 102.624 517.568 103.416 517.64 103.872C519.536 103.872 520.76 103.848 521.48 103.56C522.224 103.272 522.488 102.744 522.488 101.664V82.728H520.688ZM509.48 82.632C510.536 84.096 511.736 86.112 512.264 87.336L513.752 86.472C513.2 85.272 511.928 83.304 510.872 81.864L509.48 82.632ZM508.472 86.688V103.92H510.224V86.688H508.472ZM505.736 81.984C504.752 85.68 503.096 89.376 501.2 91.8C501.512 92.256 502.016 93.216 502.184 93.624C504.344 90.816 506.216 86.592 507.416 82.44L505.736 81.984ZM503.84 88.032V103.92H505.568V86.4L505.496 86.352L503.84 88.032ZM526.712 92.424V94.056H547.952V92.424H526.712ZM537.392 96.72V98.304H546.368V96.72H537.392ZM536.6 93.144V102.24H538.424V93.144H536.6ZM531.896 97.056L530.408 97.608C532.28 102.456 535.544 103.464 541.16 103.464H547.76C547.856 102.936 548.144 102.144 548.408 101.736C547.16 101.76 542.144 101.76 541.232 101.76C536.528 101.736 533.36 100.992 531.896 97.056ZM530.864 94.824C530.24 98.352 528.704 101.04 526.16 102.696C526.568 102.984 527.264 103.632 527.528 103.968C530.168 102.048 531.896 99.072 532.664 95.088L530.864 94.824ZM530.984 87.456H543.488V89.424H530.984V87.456ZM530.984 84.216H543.488V86.16H530.984V84.216ZM529.232 82.848V90.792H545.312V82.848H529.232ZM561.488 90.864V92.496H572.048V90.864H561.488ZM561.488 95.592V97.224H572.048V95.592H561.488ZM561.464 100.536V102.216H573.272V100.536H561.464ZM566.528 86.76V101.448H568.232V86.76H566.528ZM562.256 86.184H561.608L560.528 87.312V103.944H562.256V87.84H572.6V86.184H562.256ZM562.448 81.984C561.56 84.792 559.784 88.32 557.672 90.552C558.032 90.864 558.536 91.512 558.8 91.896C561.104 89.448 563.048 85.704 564.224 82.464L562.448 81.984ZM565.64 82.704C566.312 83.76 566.96 85.2 567.224 86.136L568.808 85.416C568.544 84.504 567.848 83.112 567.152 82.08L565.64 82.704ZM552.8 83.472C554.072 84.6 555.68 86.208 556.424 87.24L557.672 85.992C556.904 84.984 555.272 83.448 553.976 82.392L552.8 83.472ZM554.456 103.248C554.84 102.768 555.464 102.264 559.568 99.048C559.352 98.712 559.04 98.016 558.872 97.56L554.552 100.848L554.12 101.592L554.456 103.248ZM551.312 89.376V91.128H555.56V89.376H551.312ZM554.456 103.248C554.456 102.528 556.424 100.68 556.424 100.68V89.376H554.696V99.432C554.696 100.704 553.832 101.64 553.328 102.024C553.664 102.312 554.264 102.912 554.456 103.248ZM592.112 83.424C593.528 84.672 595.16 86.4 595.88 87.552L597.368 86.496C596.576 85.392 594.896 83.688 593.48 82.488L592.112 83.424ZM576.56 88.944V90.672H597.944V88.944H576.56ZM576.2 96L576.728 97.8C579.752 97.128 584 96.144 587.936 95.232L587.792 93.6C583.568 94.512 579.056 95.472 576.2 96ZM581.72 84.288V101.592C581.72 102.024 581.576 102.144 581.144 102.144C580.712 102.168 579.296 102.192 577.76 102.12C578.024 102.648 578.336 103.464 578.432 103.944C580.424 103.968 581.696 103.896 582.464 103.608C583.232 103.32 583.52 102.792 583.52 101.616V84.288H581.72ZM586.28 82.128C583.976 82.992 580.088 83.808 576.704 84.336C576.944 84.744 577.16 85.416 577.256 85.824C580.688 85.344 584.768 84.6 587.552 83.64L586.28 82.128ZM588.68 82.056C588.776 93.48 590.912 104.016 595.616 104.016C597.416 104.016 598.064 102.84 598.4 98.856C597.896 98.664 597.248 98.256 596.864 97.848C596.72 100.944 596.432 102.192 595.784 102.192C592.856 102.192 590.504 93.072 590.552 82.056H588.68ZM595.184 91.776C593.048 95.832 589.088 99.528 584.816 101.592C585.272 102 585.776 102.576 586.064 103.032C590.48 100.704 594.44 96.84 596.792 92.448L595.184 91.776ZM614 82.728V84.384H621.224V82.728H614ZM620.528 82.728V101.64C620.528 102.024 620.384 102.144 620 102.168C619.592 102.192 618.272 102.216 616.904 102.144C617.144 102.624 617.408 103.416 617.48 103.872C619.376 103.872 620.6 103.848 621.32 103.56C622.064 103.272 622.328 102.744 622.328 101.664V82.728H620.528ZM609.32 82.632C610.376 84.096 611.576 86.112 612.104 87.336L613.592 86.472C613.04 85.272 611.768 83.304 610.712 81.864L609.32 82.632ZM608.312 86.688V103.92H610.064V86.688H608.312ZM605.576 81.984C604.592 85.68 602.936 89.376 601.04 91.8C601.352 92.256 601.856 93.216 602.024 93.624C604.184 90.816 606.056 86.592 607.256 82.44L605.576 81.984ZM603.68 88.032V103.92H605.408V86.4L605.336 86.352L603.68 88.032ZM102.392 125.424V127.056H123.632V125.424H102.392ZM113.072 129.72V131.304H122.048V129.72H113.072ZM112.28 126.144V135.24H114.104V126.144H112.28ZM107.576 130.056L106.088 130.608C107.96 135.456 111.224 136.464 116.84 136.464H123.44C123.536 135.936 123.824 135.144 124.088 134.736C122.84 134.76 117.824 134.76 116.912 134.76C112.208 134.736 109.04 133.992 107.576 130.056ZM106.544 127.824C105.92 131.352 104.384 134.04 101.84 135.696C102.248 135.984 102.944 136.632 103.208 136.968C105.848 135.048 107.576 132.072 108.344 128.088L106.544 127.824ZM106.664 120.456H119.168V122.424H106.664V120.456ZM106.664 117.216H119.168V119.16H106.664V117.216ZM104.912 115.848V123.792H120.992V115.848H104.912ZM137.168 123.864V125.496H147.728V123.864H137.168ZM137.168 128.592V130.224H147.728V128.592H137.168ZM137.144 133.536V135.216H148.952V133.536H137.144ZM142.208 119.76V134.448H143.912V119.76H142.208ZM137.936 119.184H137.288L136.208 120.312V136.944H137.936V120.84H148.28V119.184H137.936ZM138.128 114.984C137.24 117.792 135.464 121.32 133.352 123.552C133.712 123.864 134.216 124.512 134.48 124.896C136.784 122.448 138.728 118.704 139.904 115.464L138.128 114.984ZM141.32 115.704C141.992 116.76 142.64 118.2 142.904 119.136L144.488 118.416C144.224 117.504 143.528 116.112 142.832 115.08L141.32 115.704ZM128.48 116.472C129.752 117.6 131.36 119.208 132.104 120.24L133.352 118.992C132.584 117.984 130.952 116.448 129.656 115.392L128.48 116.472ZM130.136 136.248C130.52 135.768 131.144 135.264 135.248 132.048C135.032 131.712 134.72 131.016 134.552 130.56L130.232 133.848L129.8 134.592L130.136 136.248ZM126.992 122.376V124.128H131.24V122.376H126.992ZM130.136 136.248C130.136 135.528 132.104 133.68 132.104 133.68V122.376H130.376V132.432C130.376 133.704 129.512 134.64 129.008 135.024C129.344 135.312 129.944 135.912 130.136 136.248ZM167.792 116.424C169.208 117.672 170.84 119.4 171.56 120.552L173.048 119.496C172.256 118.392 170.576 116.688 169.16 115.488L167.792 116.424ZM152.24 121.944V123.672H173.624V121.944H152.24ZM151.88 129L152.408 130.8C155.432 130.128 159.68 129.144 163.616 128.232L163.472 126.6C159.248 127.512 154.736 128.472 151.88 129ZM157.4 117.288V134.592C157.4 135.024 157.256 135.144 156.824 135.144C156.392 135.168 154.976 135.192 153.44 135.12C153.704 135.648 154.016 136.464 154.112 136.944C156.104 136.968 157.376 136.896 158.144 136.608C158.912 136.32 159.2 135.792 159.2 134.616V117.288H157.4ZM161.96 115.128C159.656 115.992 155.768 116.808 152.384 117.336C152.624 117.744 152.84 118.416 152.936 118.824C156.368 118.344 160.448 117.6 163.232 116.64L161.96 115.128ZM164.36 115.056C164.456 126.48 166.592 137.016 171.296 137.016C173.096 137.016 173.744 135.84 174.08 131.856C173.576 131.664 172.928 131.256 172.544 130.848C172.4 133.944 172.112 135.192 171.464 135.192C168.536 135.192 166.184 126.072 166.232 115.056H164.36ZM170.864 124.776C168.728 128.832 164.768 132.528 160.496 134.592C160.952 135 161.456 135.576 161.744 136.032C166.16 133.704 170.12 129.84 172.472 125.448L170.864 124.776ZM189.68 115.728V117.384H196.904V115.728H189.68ZM196.208 115.728V134.64C196.208 135.024 196.064 135.144 195.68 135.168C195.272 135.192 193.952 135.216 192.584 135.144C192.824 135.624 193.088 136.416 193.16 136.872C195.056 136.872 196.28 136.848 197 136.56C197.744 136.272 198.008 135.744 198.008 134.664V115.728H196.208ZM185 115.632C186.056 117.096 187.256 119.112 187.784 120.336L189.272 119.472C188.72 118.272 187.448 116.304 186.392 114.864L185 115.632ZM183.992 119.688V136.92H185.744V119.688H183.992ZM181.256 114.984C180.272 118.68 178.616 122.376 176.72 124.8C177.032 125.256 177.536 126.216 177.704 126.624C179.864 123.816 181.736 119.592 182.936 115.44L181.256 114.984ZM179.36 121.032V136.92H181.088V119.4L181.016 119.352L179.36 121.032ZM202.232 125.424V127.056H223.472V125.424H202.232ZM212.912 129.72V131.304H221.888V129.72H212.912ZM212.12 126.144V135.24H213.944V126.144H212.12ZM207.416 130.056L205.928 130.608C207.8 135.456 211.064 136.464 216.68 136.464H223.28C223.376 135.936 223.664 135.144 223.928 134.736C222.68 134.76 217.664 134.76 216.752 134.76C212.048 134.736 208.88 133.992 207.416 130.056ZM206.384 127.824C205.76 131.352 204.224 134.04 201.68 135.696C202.088 135.984 202.784 136.632 203.048 136.968C205.688 135.048 207.416 132.072 208.184 128.088L206.384 127.824ZM206.504 120.456H219.008V122.424H206.504V120.456ZM206.504 117.216H219.008V119.16H206.504V117.216ZM204.752 115.848V123.792H220.832V115.848H204.752ZM237.008 123.864V125.496H247.568V123.864H237.008ZM237.008 128.592V130.224H247.568V128.592H237.008ZM236.984 133.536V135.216H248.792V133.536H236.984ZM242.048 119.76V134.448H243.752V119.76H242.048ZM237.776 119.184H237.128L236.048 120.312V136.944H237.776V120.84H248.12V119.184H237.776ZM237.968 114.984C237.08 117.792 235.304 121.32 233.192 123.552C233.552 123.864 234.056 124.512 234.32 124.896C236.624 122.448 238.568 118.704 239.744 115.464L237.968 114.984ZM241.16 115.704C241.832 116.76 242.48 118.2 242.744 119.136L244.328 118.416C244.064 117.504 243.368 116.112 242.672 115.08L241.16 115.704ZM228.32 116.472C229.592 117.6 231.2 119.208 231.944 120.24L233.192 118.992C232.424 117.984 230.792 116.448 229.496 115.392L228.32 116.472ZM229.976 136.248C230.36 135.768 230.984 135.264 235.088 132.048C234.872 131.712 234.56 131.016 234.392 130.56L230.072 133.848L229.64 134.592L229.976 136.248ZM226.832 122.376V124.128H231.08V122.376H226.832ZM229.976 136.248C229.976 135.528 231.944 133.68 231.944 133.68V122.376H230.216V132.432C230.216 133.704 229.352 134.64 228.848 135.024C229.184 135.312 229.784 135.912 229.976 136.248ZM267.632 116.424C269.048 117.672 270.68 119.4 271.4 120.552L272.888 119.496C272.096 118.392 270.416 116.688 269 115.488L267.632 116.424ZM252.08 121.944V123.672H273.464V121.944H252.08ZM251.72 129L252.248 130.8C255.272 130.128 259.52 129.144 263.456 128.232L263.312 126.6C259.088 127.512 254.576 128.472 251.72 129ZM257.24 117.288V134.592C257.24 135.024 257.096 135.144 256.664 135.144C256.232 135.168 254.816 135.192 253.28 135.12C253.544 135.648 253.856 136.464 253.952 136.944C255.944 136.968 257.216 136.896 257.984 136.608C258.752 136.32 259.04 135.792 259.04 134.616V117.288H257.24ZM261.8 115.128C259.496 115.992 255.608 116.808 252.224 117.336C252.464 117.744 252.68 118.416 252.776 118.824C256.208 118.344 260.288 117.6 263.072 116.64L261.8 115.128ZM264.2 115.056C264.296 126.48 266.432 137.016 271.136 137.016C272.936 137.016 273.584 135.84 273.92 131.856C273.416 131.664 272.768 131.256 272.384 130.848C272.24 133.944 271.952 135.192 271.304 135.192C268.376 135.192 266.024 126.072 266.072 115.056H264.2ZM270.704 124.776C268.568 128.832 264.608 132.528 260.336 134.592C260.792 135 261.296 135.576 261.584 136.032C266 133.704 269.96 129.84 272.312 125.448L270.704 124.776ZM289.52 115.728V117.384H296.744V115.728H289.52ZM296.048 115.728V134.64C296.048 135.024 295.904 135.144 295.52 135.168C295.112 135.192 293.792 135.216 292.424 135.144C292.664 135.624 292.928 136.416 293 136.872C294.896 136.872 296.12 136.848 296.84 136.56C297.584 136.272 297.848 135.744 297.848 134.664V115.728H296.048ZM284.84 115.632C285.896 117.096 287.096 119.112 287.624 120.336L289.112 119.472C288.56 118.272 287.288 116.304 286.232 114.864L284.84 115.632ZM283.832 119.688V136.92H285.584V119.688H283.832ZM281.096 114.984C280.112 118.68 278.456 122.376 276.56 124.8C276.872 125.256 277.376 126.216 277.544 126.624C279.704 123.816 281.576 119.592 282.776 115.44L281.096 114.984ZM279.2 121.032V136.92H280.928V119.4L280.856 119.352L279.2 121.032ZM302.072 125.424V127.056H323.312V125.424H302.072ZM312.752 129.72V131.304H321.728V129.72H312.752ZM311.96 126.144V135.24H313.784V126.144H311.96ZM307.256 130.056L305.768 130.608C307.64 135.456 310.904 136.464 316.52 136.464H323.12C323.216 135.936 323.504 135.144 323.768 134.736C322.52 134.76 317.504 134.76 316.592 134.76C311.888 134.736 308.72 133.992 307.256 130.056ZM306.224 127.824C305.6 131.352 304.064 134.04 301.52 135.696C301.928 135.984 302.624 136.632 302.888 136.968C305.528 135.048 307.256 132.072 308.024 128.088L306.224 127.824ZM306.344 120.456H318.848V122.424H306.344V120.456ZM306.344 117.216H318.848V119.16H306.344V117.216ZM304.592 115.848V123.792H320.672V115.848H304.592ZM336.848 123.864V125.496H347.408V123.864H336.848ZM336.848 128.592V130.224H347.408V128.592H336.848ZM336.824 133.536V135.216H348.632V133.536H336.824ZM341.888 119.76V134.448H343.592V119.76H341.888ZM337.616 119.184H336.968L335.888 120.312V136.944H337.616V120.84H347.96V119.184H337.616ZM337.808 114.984C336.92 117.792 335.144 121.32 333.032 123.552C333.392 123.864 333.896 124.512 334.16 124.896C336.464 122.448 338.408 118.704 339.584 115.464L337.808 114.984ZM341 115.704C341.672 116.76 342.32 118.2 342.584 119.136L344.168 118.416C343.904 117.504 343.208 116.112 342.512 115.08L341 115.704ZM328.16 116.472C329.432 117.6 331.04 119.208 331.784 120.24L333.032 118.992C332.264 117.984 330.632 116.448 329.336 115.392L328.16 116.472ZM329.816 136.248C330.2 135.768 330.824 135.264 334.928 132.048C334.712 131.712 334.4 131.016 334.232 130.56L329.912 133.848L329.48 134.592L329.816 136.248ZM326.672 122.376V124.128H330.92V122.376H326.672ZM329.816 136.248C329.816 135.528 331.784 133.68 331.784 133.68V122.376H330.056V132.432C330.056 133.704 329.192 134.64 328.688 135.024C329.024 135.312 329.624 135.912 329.816 136.248ZM367.472 116.424C368.888 117.672 370.52 119.4 371.24 120.552L372.728 119.496C371.936 118.392 370.256 116.688 368.84 115.488L367.472 116.424ZM351.92 121.944V123.672H373.304V121.944H351.92ZM351.56 129L352.088 130.8C355.112 130.128 359.36 129.144 363.296 128.232L363.152 126.6C358.928 127.512 354.416 128.472 351.56 129ZM357.08 117.288V134.592C357.08 135.024 356.936 135.144 356.504 135.144C356.072 135.168 354.656 135.192 353.12 135.12C353.384 135.648 353.696 136.464 353.792 136.944C355.784 136.968 357.056 136.896 357.824 136.608C358.592 136.32 358.88 135.792 358.88 134.616V117.288H357.08ZM361.64 115.128C359.336 115.992 355.448 116.808 352.064 117.336C352.304 117.744 352.52 118.416 352.616 118.824C356.048 118.344 360.128 117.6 362.912 116.64L361.64 115.128ZM364.04 115.056C364.136 126.48 366.272 137.016 370.976 137.016C372.776 137.016 373.424 135.84 373.76 131.856C373.256 131.664 372.608 131.256 372.224 130.848C372.08 133.944 371.792 135.192 371.144 135.192C368.216 135.192 365.864 126.072 365.912 115.056H364.04ZM370.544 124.776C368.408 128.832 364.448 132.528 360.176 134.592C360.632 135 361.136 135.576 361.424 136.032C365.84 133.704 369.8 129.84 372.152 125.448L370.544 124.776ZM389.36 115.728V117.384H396.584V115.728H389.36ZM395.888 115.728V134.64C395.888 135.024 395.744 135.144 395.36 135.168C394.952 135.192 393.632 135.216 392.264 135.144C392.504 135.624 392.768 136.416 392.84 136.872C394.736 136.872 395.96 136.848 396.68 136.56C397.424 136.272 397.688 135.744 397.688 134.664V115.728H395.888ZM384.68 115.632C385.736 117.096 386.936 119.112 387.464 120.336L388.952 119.472C388.4 118.272 387.128 116.304 386.072 114.864L384.68 115.632ZM383.672 119.688V136.92H385.424V119.688H383.672ZM380.936 114.984C379.952 118.68 378.296 122.376 376.4 124.8C376.712 125.256 377.216 126.216 377.384 126.624C379.544 123.816 381.416 119.592 382.616 115.44L380.936 114.984ZM379.04 121.032V136.92H380.768V119.4L380.696 119.352L379.04 121.032ZM401.912 125.424V127.056H423.152V125.424H401.912ZM412.592 129.72V131.304H421.568V129.72H412.592ZM411.8 126.144V135.24H413.624V126.144H411.8ZM407.096 130.056L405.608 130.608C407.48 135.456 410.744 136.464 416.36 136.464H422.96C423.056 135.936 423.344 135.144 423.608 134.736C422.36 134.76 417.344 134.76 416.432 134.76C411.728 134.736 408.56 133.992 407.096 130.056ZM406.064 127.824C405.44 131.352 403.904 134.04 401.36 135.696C401.768 135.984 402.464 136.632 402.728 136.968C405.368 135.048 407.096 132.072 407.864 128.088L406.064 127.824ZM406.184 120.456H418.688V122.424H406.184V120.456ZM406.184 117.216H418.688V119.16H406.184V117.216ZM404.432 115.848V123.792H420.512V115.848H404.432ZM436.688 123.864V125.496H447.248V123.864H436.688ZM436.688 128.592V130.224H447.248V128.592H436.688ZM436.664 133.536V135.216H448.472V133.536H436.664ZM441.728 119.76V134.448H443.432V119.76H441.728ZM437.456 119.184H436.808L435.728 120.312V136.944H437.456V120.84H447.8V119.184H437.456ZM437.648 114.984C436.76 117.792 434.984 121.32 432.872 123.552C433.232 123.864 433.736 124.512 434 124.896C436.304 122.448 438.248 118.704 439.424 115.464L437.648 114.984ZM440.84 115.704C441.512 116.76 442.16 118.2 442.424 119.136L444.008 118.416C443.744 117.504 443.048 116.112 442.352 115.08L440.84 115.704ZM428 116.472C429.272 117.6 430.88 119.208 431.624 120.24L432.872 118.992C432.104 117.984 430.472 116.448 429.176 115.392L428 116.472ZM429.656 136.248C430.04 135.768 430.664 135.264 434.768 132.048C434.552 131.712 434.24 131.016 434.072 130.56L429.752 133.848L429.32 134.592L429.656 136.248ZM426.512 122.376V124.128H430.76V122.376H426.512ZM429.656 136.248C429.656 135.528 431.624 133.68 431.624 133.68V122.376H429.896V132.432C429.896 133.704 429.032 134.64 428.528 135.024C428.864 135.312 429.464 135.912 429.656 136.248Z" fill="black"/>
</svg>
