<svg width="450" height="359" viewBox="0 0 450 359" fill="none" xmlns="http://www.w3.org/2000/svg">
<path d="M89.13 2.57C90.78 3.86 92.73 5.72 93.63 6.98L95.28 5.63C94.35 4.4 92.37 2.6 90.69 1.4L89.13 2.57ZM69.12 8.12V10.22H95.85V8.12H69.12ZM78.39 15.5V17.51H84.45V15.5H78.39ZM71.52 2.6V4.67H82.98V2.6H71.52ZM68.76 25.76L69.33 27.98C73.59 27.2 79.77 26.06 85.47 24.98L85.32 22.91C79.29 23.99 72.81 25.13 68.76 25.76ZM77.13 11.3V25.37H79.29V11.3H77.13ZM71.49 13.55V26.09H73.59V13.55H71.49ZM85.38 0.949999C85.47 15.74 87.3 28.46 93.03 28.46C95.25 28.46 96.03 26.96 96.42 21.74C95.82 21.53 95.01 21.02 94.5 20.54C94.35 24.56 94.02 26.24 93.21 26.24C89.67 26.24 87.54 15.2 87.66 0.949999H85.38ZM108.3 3.11V5.24H123.12V3.11H108.3ZM111.6 4.85L109.56 5.27C112.02 16.16 116.58 24.47 125.1 28.28C125.43 27.77 126.09 26.9 126.6 26.48C118.38 23.09 113.79 14.96 111.6 4.85ZM122.61 3.11V3.59C120.66 16.25 114.15 23.57 105.96 26.51C106.44 26.96 106.98 27.83 107.25 28.4C115.95 24.92 122.64 17.51 124.74 3.47L123.33 2.99L122.97 3.11H122.61ZM100.23 2.87C102.24 3.77 104.67 5.24 105.87 6.32L107.07 4.55C105.81 3.47 103.35 2.15 101.37 1.31L100.23 2.87ZM98.73 11.06C100.68 11.93 103.14 13.34 104.34 14.36L105.48 12.56C104.22 11.57 101.76 10.25 99.84 9.44L98.73 11.06ZM99.6 26.48L101.37 27.98C103.14 25.19 105.21 21.44 106.8 18.26L105.27 16.82C103.56 20.24 101.22 24.2 99.6 26.48ZM136.86 5.3V6.74H148.2V5.3H136.86ZM142.41 2.48C145.35 4.64 150.42 6.86 154.47 7.97C154.71 7.46 155.19 6.65 155.61 6.23C151.32 5.21 146.52 3.29 143.25 0.919999H141.36C138.9 3.05 134.16 5.21 129.51 6.5C129.87 6.95 130.32 7.7 130.53 8.18C135.12 6.77 139.86 4.52 142.41 2.48ZM148.77 15.41C150.45 17.03 153.15 18.71 155.46 19.7C155.73 19.25 156.18 18.56 156.54 18.11C154.05 17.24 151.38 15.71 149.55 13.91H147.84C146.49 15.56 143.85 17.33 141.24 18.35C141.63 18.74 142.05 19.4 142.26 19.82C144.81 18.71 147.33 17 148.77 15.41ZM135.84 10.04C136.29 10.76 136.77 11.78 136.95 12.44L138.75 11.9C138.57 11.3 138.03 10.31 137.55 9.59L135.84 10.04ZM147.42 9.38C147.09 10.16 146.46 11.3 145.98 12.08L147.51 12.56C148.05 11.84 148.68 10.88 149.34 9.86L147.42 9.38ZM133.17 8.24V9.74H151.65V8.24H133.17ZM131.07 12.17V13.73H154.05V12.17H131.07ZM141.36 5.93V12.83H143.49V5.93H141.36ZM131.91 17.99V19.4H139.89V17.99H131.91ZM130.98 23.09C131.46 23.93 131.91 25.1 132.09 25.82L133.56 25.37C133.38 24.65 132.9 23.54 132.39 22.7L130.98 23.09ZM139.11 22.49C138.87 23.24 138.39 24.32 138 25.07L139.29 25.46C139.71 24.8 140.13 23.9 140.61 22.94L139.11 22.49ZM129.78 20.93V22.43H141.51V20.93H129.78ZM134.85 18.62V26.3H136.59V18.62H134.85ZM129.06 26.45L129.33 28.04C132.54 27.71 137.13 27.2 141.51 26.72V25.22C136.86 25.73 132.15 26.18 129.06 26.45ZM144.54 17.99V19.4H153.12V17.99H144.54ZM143.52 23.15C144.06 24.02 144.57 25.19 144.78 26L146.34 25.46C146.13 24.74 145.56 23.57 145.02 22.73L143.52 23.15ZM152.46 22.67C152.1 23.48 151.47 24.74 150.93 25.55L152.31 25.97C152.85 25.19 153.45 24.17 154.02 23.12L152.46 22.67ZM142.41 21.02V22.52H155.52V21.02H142.41ZM141.9 25.97V27.56H156.03V25.97H141.9ZM147.78 18.53V26.48H149.64V18.53H147.78ZM134.94 13.91C133.71 15.41 131.49 17.09 128.61 18.32C129.03 18.56 129.57 19.13 129.87 19.52C132.93 18.05 135.12 16.34 136.53 14.93V14.36H135.96V13.91H134.94ZM135.33 13.91V15.26H135.78C137.52 16.25 139.68 17.87 140.85 18.86L142.23 17.63C140.91 16.52 138.54 14.96 136.68 13.91H135.33ZM160.74 4.46V6.35H184.5V4.46H160.74ZM159.03 12.26V14.15H186V12.26H159.03ZM168.33 5.24V13.31H170.43V5.24H168.33ZM174.27 5.24V13.31H176.43V5.24H174.27ZM162.21 7.46C163.26 8.9 164.25 10.85 164.61 12.14L166.56 11.36C166.2 10.04 165.18 8.12 164.07 6.74L162.21 7.46ZM164.43 1.55C165.33 2.54 166.26 4.01 166.62 5L168.69 4.07C168.27 3.11 167.37 1.73 166.41 0.769999L164.43 1.55ZM180.81 6.59C180.18 8.06 178.98 10.13 178.11 11.45L179.85 12.05C180.78 10.85 181.92 8.99 182.85 7.31L180.81 6.59ZM178.2 0.769999C177.69 1.73 176.76 3.17 176.01 4.07L177.99 4.76C178.71 3.92 179.64 2.72 180.42 1.49L178.2 0.769999ZM163.47 15.98V28.37H165.72V17.78H179.28V28.28H181.65V15.98H163.47ZM164.7 20.72V22.49H180.36V20.72H164.7ZM164.73 25.52V27.35H180.39V25.52H164.73ZM188.97 9.86V11.96H203.25V9.86H188.97ZM205.26 4.37V20.96H207.45V4.37H205.26ZM195.27 3.35V28.37H197.49V3.35H195.27ZM212.64 1.37V25.43C212.64 26 212.4 26.18 211.83 26.18C211.26 26.21 209.4 26.21 207.24 26.15C207.6 26.81 207.96 27.8 208.08 28.43C210.84 28.46 212.52 28.4 213.51 28.01C214.47 27.65 214.86 26.96 214.86 25.4V1.37H212.64ZM201.24 0.979998C198.42 2.24 193.2 3.26 188.76 3.89C189.03 4.37 189.36 5.15 189.45 5.69C194.01 5.09 199.44 4.1 202.92 2.72L201.24 0.979998ZM195.18 10.82C193.86 14.84 190.95 19.61 188.31 22.13C188.7 22.7 189.27 23.6 189.54 24.26C192.33 21.41 195.27 16.04 196.8 11.48L195.18 10.82ZM197.19 13.91L195.96 15.11C197.34 16.28 200.61 19.43 201.84 20.81L203.16 18.92C202.2 18.08 198.33 14.72 197.19 13.91ZM219.18 11.51V13.64H227.04V11.51H219.18ZM218.73 2.87V4.94H227.67V2.87H218.73ZM218.55 22.94L219.15 25.07C221.58 24.2 224.76 23.06 227.76 21.98L227.4 19.94C224.16 21.08 220.83 22.28 218.55 22.94ZM222.27 4.13V22.49L224.37 21.89V4.13H222.27ZM229.2 2.75V4.91H245.82V2.75H229.2ZM237.24 3.92C235.38 9.59 232.11 14.72 228.12 17.9C228.63 18.32 229.5 19.19 229.89 19.64C233.88 16.13 237.36 10.64 239.49 4.52L237.24 3.92ZM237.78 11.18C240.03 13.7 242.73 17.15 243.93 19.31L245.76 17.9C244.5 15.8 241.74 12.44 239.49 10.01L237.78 11.18ZM235.56 9.08V28.31H237.78V8.09L235.56 9.08ZM265.41 11.12V28.43H267.69V11.12H265.41ZM256.65 15.53V17.6H276.12V15.53H256.65ZM268.32 16.34L266.58 17C268.56 20.99 272.04 25.04 275.31 27.14C275.7 26.6 276.42 25.79 276.9 25.37C273.63 23.57 270.12 19.94 268.32 16.34ZM264.9 16.19C263.01 19.85 259.32 23.57 255.81 25.31C256.29 25.76 256.98 26.54 257.37 27.08C260.94 25.01 264.66 20.99 266.67 16.85L264.9 16.19ZM261.03 4.25H272.22V9.74H261.03V4.25ZM258.9 2.24V11.78H274.44V2.24H258.9ZM255.78 0.89C254.04 5.45 251.16 9.92 248.16 12.77C248.58 13.31 249.21 14.48 249.45 14.99C252.72 11.66 255.87 6.62 257.91 1.55L255.78 0.89ZM252.66 8.63V28.34H254.82V6.53L254.79 6.5L252.66 8.63ZM283.86 3.29V28.34H286.05V3.29H283.86ZM278.79 9.26V11.39H290.49V9.26H278.79ZM283.98 10.07C282.9 13.79 280.5 18.47 278.34 20.87C278.73 21.38 279.27 22.31 279.48 22.94C281.79 20.15 284.19 14.9 285.39 10.67L283.98 10.07ZM288.66 1.22C286.38 2.24 282.45 3.11 279.06 3.65C279.3 4.16 279.6 4.91 279.72 5.42C283.14 4.94 287.28 4.13 290.04 3.05L288.66 1.22ZM285.93 11.78L284.88 12.71C285.78 13.88 288.12 17.45 288.84 18.89L290.25 17.12C289.59 16.22 286.71 12.59 285.93 11.78ZM300.36 0.799999V28.37H302.58V0.799999H300.36ZM290.13 20.33L290.46 22.46L306.45 19.85L306.09 17.75L290.13 20.33ZM292.56 4.22C294.33 5.42 296.43 7.22 297.39 8.48L298.95 7.01C297.93 5.75 295.8 4.04 294 2.9L292.56 4.22ZM291.36 12.02C293.31 13.25 295.59 15.14 296.7 16.46L298.2 14.96C297.09 13.67 294.72 11.87 292.77 10.7L291.36 12.02ZM318.81 5.54V7.64H335.34V5.54H318.81ZM319.44 12.14V14.21H332.67V12.14H319.44ZM325.89 0.799999V13.31H328.11V0.799999H325.89ZM322.35 13.67L320.31 14.27C322.92 21.32 327.78 26.3 334.98 28.43C335.31 27.86 335.94 26.96 336.45 26.51C329.43 24.65 324.6 19.97 322.35 13.67ZM332.49 12.14V12.53C330.3 19.94 323.97 24.59 317.1 26.36C317.52 26.84 318.09 27.8 318.3 28.4C325.65 26.18 332.19 21.29 334.74 12.68L333.33 12.05L332.91 12.14H332.49ZM308.58 16.7L309.24 18.86C311.91 18.08 315.39 17.06 318.66 16.07L318.39 14.03C314.82 15.05 311.1 16.07 308.58 16.7ZM308.97 6.86V8.99H318.39V6.86H308.97ZM312.84 0.829999V25.7C312.84 26.12 312.66 26.27 312.27 26.27C311.88 26.3 310.56 26.3 309.15 26.27C309.45 26.87 309.78 27.77 309.84 28.34C311.91 28.34 313.17 28.28 313.95 27.92C314.76 27.59 315.06 26.96 315.06 25.7V0.829999H312.84ZM339.39 4.7V6.83H365.67V4.7H339.39ZM346.71 15.41V17.36H360.81V15.41H346.71ZM345.12 10.31V28.4H347.34V12.32H360.45V10.31H345.12ZM359.94 10.31V25.58C359.94 26.03 359.76 26.18 359.25 26.21C358.71 26.21 356.88 26.24 354.87 26.15C355.2 26.78 355.53 27.71 355.62 28.34C358.2 28.34 359.88 28.34 360.84 27.98C361.86 27.62 362.13 26.93 362.13 25.61V10.31H359.94ZM349.2 0.799999C347.58 6.83 344.04 13.19 338.67 16.88C339.12 17.33 339.81 18.11 340.11 18.62C345.84 14.6 349.44 7.94 351.48 1.34L349.2 0.799999ZM346.71 20.48V22.43H360.81V20.48H346.71ZM382.11 7.82V9.71H393.3V7.82H382.11ZM377.43 25.79L378.18 27.98C381.09 27.32 385.11 26.45 388.89 25.58L388.74 23.6C384.54 24.44 380.19 25.31 377.43 25.79ZM380.82 2.15V25.97H383.01V2.15H380.82ZM382.11 2.15V4.13H392.16V13.49H382.11V15.47H394.35V2.15H382.11ZM387.9 14.18L386.04 14.54C387.42 20.87 390.21 25.94 394.89 28.31C395.22 27.74 395.88 26.9 396.39 26.45C391.92 24.47 389.19 19.79 387.9 14.18ZM393.87 16.16C392.61 17.6 390.36 19.49 388.74 20.66L390.15 21.8C391.83 20.69 393.96 19.01 395.64 17.45L393.87 16.16ZM369.93 2.12V28.43H372.06V4.16H377.61V2.12H369.93ZM376.95 2.12V2.75C376.26 4.82 375.03 8.45 373.83 11.18C376.17 13.52 376.8 15.5 376.8 17.15C376.83 18.08 376.65 18.86 376.14 19.19C375.84 19.37 375.48 19.46 375.09 19.49C374.55 19.52 373.89 19.52 373.11 19.43C373.47 20.03 373.65 20.93 373.68 21.47C374.43 21.53 375.27 21.53 375.96 21.44C376.59 21.38 377.16 21.2 377.61 20.9C378.51 20.27 378.9 19.04 378.9 17.39C378.9 15.53 378.33 13.4 375.9 10.91C377.01 8.54 378.27 5.45 379.23 2.96L377.7 2.03L377.37 2.12H376.95ZM410.01 11.69C408.6 15.92 405.99 21.77 403.86 25.46L405.93 26.12C408.15 22.49 410.76 16.88 412.65 12.35L410.01 11.69ZM400.17 24.77L400.47 27.14C406.11 26.9 414.51 26.45 422.37 26L422.43 23.84C414.39 24.23 405.66 24.59 400.17 24.77ZM415.77 18.26C418.44 21.44 421.56 25.82 422.97 28.55L425.25 27.32C423.75 24.59 420.66 20.42 417.93 17.27L415.77 18.26ZM406.98 1.7C405.24 6.14 402.27 10.46 398.97 13.16C399.6 13.52 400.65 14.33 401.13 14.78C404.31 11.81 407.46 7.22 409.47 2.39L406.98 1.7ZM417.72 1.67L415.5 2.6C417.81 6.8 421.56 11.9 424.35 14.75C424.8 14.18 425.64 13.31 426.24 12.83C423.48 10.34 419.7 5.6 417.72 1.67ZM2.64 49.75V51.91H25.26V49.75H2.64ZM2.82 55.06V57.07H20.91V55.06H2.82ZM24.36 49.75V72.04C24.36 72.61 24.18 72.76 23.61 72.79C22.98 72.82 20.94 72.82 18.84 72.76C19.2 73.42 19.53 74.53 19.65 75.22C22.32 75.22 24.21 75.19 25.26 74.8C26.31 74.38 26.61 73.6 26.61 72.04V49.75H24.36ZM4.74 60.31V72.13H6.93V60.31H4.74ZM6.54 60.31V62.32H16.62V67.93H6.54V69.91H18.84V60.31H6.54ZM42.78 57.88V60.1H58.62V57.88H42.78ZM49.83 48.07V75.37H52.14V48.07H49.83ZM35.55 47.89C34.56 50.68 32.82 53.38 30.9 55.12C31.29 55.63 31.89 56.77 32.07 57.22C34.32 55.09 36.33 51.79 37.59 48.49L35.55 47.89ZM34.74 51.31L34.29 53.41H42.66V51.31H34.74ZM36.03 75.25C36.54 74.74 37.38 74.26 43.26 71.17C43.11 70.72 42.93 69.85 42.87 69.25L36.57 72.37L35.76 73.27L36.03 75.25ZM33.21 56.59V58.63H41.88V56.59H33.21ZM31.8 62.71V64.75H42.51V62.71H31.8ZM36.03 75.25C36.03 74.44 38.46 72.97 38.46 72.97V57.19H36.3V70.99C36.3 72.22 35.46 72.94 34.92 73.27C35.31 73.75 35.82 74.71 36.03 75.25ZM62.07 51.82V53.98H72.3V51.82H62.07ZM71.55 51.82V52.36C70.41 62.65 66.54 70.12 61.32 73.54C61.86 73.96 62.58 74.8 62.91 75.34C68.58 71.29 72.51 63.82 73.77 52.15L72.33 51.73L71.94 51.82H71.55ZM62.73 59.41C66.75 63.01 71.19 68.11 73.05 71.56L74.82 69.91C72.93 66.46 68.34 61.54 64.29 58.03L62.73 59.41ZM74.46 55.03V57.22H88.74V55.03H74.46ZM82.92 47.8V72.34C82.92 72.88 82.71 73.03 82.2 73.06C81.69 73.09 80.01 73.09 78.12 73.03C78.45 73.72 78.78 74.77 78.87 75.4C81.45 75.4 82.98 75.34 83.88 74.95C84.78 74.53 85.17 73.87 85.17 72.37V47.8H82.92ZM75.03 61.21C76.47 63.31 77.82 66.16 78.27 67.96L80.25 67C79.77 65.17 78.33 62.41 76.89 60.34L75.03 61.21ZM111.09 49.78C112.86 51.34 114.9 53.5 115.8 54.94L117.66 53.62C116.67 52.24 114.57 50.11 112.8 48.61L111.09 49.78ZM91.65 56.68V58.84H118.38V56.68H91.65ZM91.2 65.5L91.86 67.75C95.64 66.91 100.95 65.68 105.87 64.54L105.69 62.5C100.41 63.64 94.77 64.84 91.2 65.5ZM98.1 50.86V72.49C98.1 73.03 97.92 73.18 97.38 73.18C96.84 73.21 95.07 73.24 93.15 73.15C93.48 73.81 93.87 74.83 93.99 75.43C96.48 75.46 98.07 75.37 99.03 75.01C99.99 74.65 100.35 73.99 100.35 72.52V50.86H98.1ZM103.8 48.16C100.92 49.24 96.06 50.26 91.83 50.92C92.13 51.43 92.4 52.27 92.52 52.78C96.81 52.18 101.91 51.25 105.39 50.05L103.8 48.16ZM106.8 48.07C106.92 62.35 109.59 75.52 115.47 75.52C117.72 75.52 118.53 74.05 118.95 69.07C118.32 68.83 117.51 68.32 117.03 67.81C116.85 71.68 116.49 73.24 115.68 73.24C112.02 73.24 109.08 61.84 109.14 48.07H106.8ZM114.93 60.22C112.26 65.29 107.31 69.91 101.97 72.49C102.54 73 103.17 73.72 103.53 74.29C109.05 71.38 114 66.55 116.94 61.06L114.93 60.22ZM127.26 53.83V55.84H142.65V53.83H127.26ZM128.1 60.1V62.08H141.93V60.1H128.1ZM126.81 67.15V69.07H143.31V67.15H126.81ZM133.77 54.46V68.17H135.87V54.46H133.77ZM137.76 63.4C138.84 64.42 140.13 65.89 140.73 66.82L142.26 65.89C141.66 64.96 140.34 63.58 139.2 62.59L137.76 63.4ZM122.55 49.18V75.43H124.83V51.25H145.02V75.43H147.42V49.18H122.55ZM123.78 71.83V73.9H146.13V71.83H123.78ZM172.02 63.01C173.91 65.41 176.01 68.71 176.88 70.75L179.04 69.7C178.08 67.63 175.92 64.45 174 62.11L172.02 63.01ZM163.77 47.86V58.57H166.08V47.86H163.77ZM151.71 57.85V60.01H178.35V57.85H151.71ZM154.68 51.43V53.59H175.98V51.43H154.68ZM167.55 59.02V72.61C167.55 73 167.43 73.12 166.95 73.12C166.5 73.15 164.94 73.18 163.23 73.12C163.56 73.78 163.92 74.74 164.04 75.37C166.29 75.37 167.76 75.34 168.69 74.98C169.62 74.59 169.89 73.96 169.89 72.64V59.02H167.55ZM155.76 62.26C154.89 64.66 153.03 67.54 150.93 69.34C151.47 69.64 152.28 70.21 152.73 70.63C154.89 68.68 156.87 65.59 158.04 62.86L155.76 62.26ZM160.8 58.75V61.78C160.8 65.47 160.32 70.3 154.77 73.96C155.31 74.35 156.12 75.1 156.45 75.61C162.45 71.56 163.08 66.07 163.08 61.81V58.75H160.8ZM191.49 49.36V59.62C191.49 64.15 191.19 70.15 187.8 74.32C188.34 74.53 189.3 75.1 189.69 75.46C193.17 71.14 193.65 64.48 193.65 59.62V49.36H191.49ZM195.84 59.47V71.83C195.84 74.5 196.62 75.22 199.56 75.22C200.16 75.22 204.42 75.22 205.05 75.22C207.78 75.22 208.41 73.96 208.68 69.37C208.11 69.22 207.18 68.86 206.7 68.5C206.55 72.46 206.34 73.18 204.93 73.18C204 73.18 200.43 73.18 199.74 73.18C198.27 73.18 197.97 72.94 197.97 71.83V59.47H195.84ZM205.47 60.82C203.46 62.59 199.8 64.51 196.53 65.92C196.83 66.37 197.16 67.09 197.31 67.51C200.76 66.13 204.6 64.3 207.21 62.41L205.47 60.82ZM192.48 49.36V51.43H204.96V55.81H192.48V57.91H207.15V49.36H192.48ZM182.64 49.78C184.65 50.65 187.08 52.06 188.25 53.14L189.57 51.25C188.34 50.23 185.88 48.91 183.87 48.13L182.64 49.78ZM181.14 58.06C183.09 58.87 185.46 60.28 186.63 61.3L187.89 59.41C186.66 58.42 184.26 57.13 182.34 56.38L181.14 58.06ZM182.01 73.48L183.99 74.92C185.64 72.1 187.62 68.32 189.09 65.14L187.35 63.76C185.73 67.18 183.51 71.17 182.01 73.48ZM225.69 47.8V60.49C225.69 65.89 225.06 70.6 219.99 73.93C220.5 74.29 221.25 74.98 221.61 75.43C227.04 71.77 227.73 66.49 227.73 60.49V47.8H225.69ZM230.85 47.8V75.37H233.01V47.8H230.85ZM220.77 52.93V55H226.59V52.93H220.77ZM231.99 52.93V55H238.26V52.93H231.99ZM232.11 59.23V61.24H237.96V59.23H232.11ZM231.96 65.77V67.84H238.77V65.77H231.96ZM220.98 59.23V61.24H226.68V59.23H220.98ZM219.27 67.06L220.14 69.01C222 68.35 224.13 67.57 226.2 66.76L225.87 65.02C223.41 65.8 221.01 66.58 219.27 67.06ZM210.81 63.37L211.41 65.56C213.96 64.75 217.26 63.67 220.38 62.59L220.08 60.52C216.66 61.63 213.15 62.71 210.81 63.37ZM211.23 53.86V55.96H220.35V53.86H211.23ZM215.01 47.83V72.79C215.01 73.24 214.83 73.33 214.47 73.33C214.11 73.36 212.97 73.36 211.65 73.33C211.95 73.96 212.22 74.89 212.31 75.43C214.2 75.43 215.37 75.37 216.06 75.01C216.81 74.65 217.11 74.05 217.11 72.79V47.83H215.01ZM241.29 52.66V54.79H254.64V52.66H241.29ZM246.15 58.78V60.85H251.91V58.78H246.15ZM246.78 47.86V53.68H249V47.86H246.78ZM251.13 58.78V59.23C250.95 68.86 250.71 72.19 250.2 72.91C249.96 73.24 249.69 73.33 249.27 73.3C248.79 73.3 247.68 73.3 246.42 73.21C246.75 73.78 246.96 74.65 247.02 75.28C248.28 75.34 249.57 75.34 250.29 75.28C251.1 75.16 251.58 74.95 252.06 74.29C252.87 73.24 253.05 69.82 253.26 59.8C253.29 59.5 253.29 58.78 253.29 58.78H251.13ZM257.46 53.41V55.51H268.86V53.41H257.46ZM258.15 47.8C257.28 52.96 255.72 58 253.32 61.18C253.86 61.51 254.85 62.26 255.24 62.65C257.7 59.17 259.44 53.8 260.46 48.13L258.15 47.8ZM264.54 54.55C263.16 64.15 259.98 70.18 252.57 73.51C253.02 73.99 253.68 74.98 253.89 75.49C261.69 71.62 265.11 65.23 266.76 54.79L264.54 54.55ZM258.33 55.33L256.38 55.69C258.03 64.81 261.15 72.04 267.48 75.34C267.81 74.74 268.53 73.87 269.07 73.42C262.98 70.57 259.8 63.64 258.33 55.33ZM244.86 53.71V61.03C244.86 65.26 244.41 70.03 240.72 73.93C241.29 74.32 242.01 74.92 242.4 75.37C246.39 71.14 246.99 66.01 246.99 61.03V53.71H244.86ZM277.47 53.05H292.41V54.73H277.47V53.05ZM277.47 50.14H292.41V51.76H277.47V50.14ZM275.31 48.79V56.08H294.66V48.79H275.31ZM276.9 64.84H293.31V66.55H276.9V64.84ZM276.9 61.81H293.31V63.49H276.9V61.81ZM274.77 60.4V67.93H295.53V60.4H274.77ZM283.83 60.91V73.84H286.05V60.91H283.83ZM271.56 57.34V59.08H298.47V57.34H271.56ZM273.93 69.58V71.17H296.19V69.58H273.93ZM271.38 72.91V74.68H298.62V72.91H271.38ZM301.86 56.44V58.72H328.23V56.44H301.86ZM316.47 57.34L314.22 57.88C316.47 65.95 320.55 72.28 327.03 75.34C327.42 74.71 328.17 73.75 328.74 73.24C322.5 70.66 318.42 64.6 316.47 57.34ZM313.83 47.83C313.77 55.03 314.01 67.96 301.26 73.51C301.89 73.96 302.61 74.77 302.97 75.37C316.08 69.37 316.14 55.69 316.26 47.83H313.83ZM338.19 74.68L340.23 72.94C338.34 70.75 335.64 68.05 333.48 66.31L331.53 68.02C333.66 69.76 336.24 72.31 338.19 74.68ZM372.27 55.12V56.89H384.87V63.73H372.12V65.5H386.97V55.12H372.27ZM374.34 67.96V72.46C374.34 74.56 374.97 75.13 377.58 75.13C378.09 75.13 381.42 75.13 381.99 75.13C384 75.13 384.63 74.44 384.87 71.41C384.27 71.26 383.43 70.99 383.01 70.63C382.89 72.94 382.74 73.24 381.78 73.24C381.06 73.24 378.27 73.24 377.76 73.24C376.56 73.24 376.35 73.12 376.35 72.46V67.96H374.34ZM371.64 67.87C371.16 69.64 370.26 72.01 369.3 73.42L371.01 74.53C372.03 72.94 372.9 70.45 373.41 68.62L371.64 67.87ZM376.2 66.73C377.88 67.9 379.98 69.58 381 70.72L382.41 69.34C381.33 68.26 379.26 66.64 377.61 65.53L376.2 66.73ZM383.67 68.23C384.99 70.06 386.37 72.55 386.94 74.23L388.8 73.45C388.2 71.8 386.82 69.34 385.41 67.54L383.67 68.23ZM372.99 59.38V61.09H385.98V59.38H372.99ZM362.4 49.12V75.43H364.44V51.16H369.48V49.12H362.4ZM368.88 49.12V49.72C368.25 51.79 367.14 55.36 366.06 58.09C368.19 60.43 368.76 62.47 368.76 64.09C368.76 64.99 368.61 65.8 368.13 66.13C367.89 66.31 367.56 66.4 367.2 66.4C366.72 66.46 366.12 66.43 365.43 66.37C365.79 66.94 365.97 67.81 366 68.35C366.69 68.38 367.41 68.38 368.04 68.32C368.64 68.23 369.18 68.05 369.6 67.78C370.41 67.18 370.77 65.92 370.77 64.3C370.77 62.44 370.26 60.34 368.07 57.85C369.09 55.45 370.2 52.36 371.07 49.9L369.6 49.03L369.27 49.12H368.88ZM376.62 50.26L375.27 52H383.22V50.26H376.62ZM376.23 48.1C375.15 50.11 373.26 52.66 370.74 54.58C371.19 54.85 371.88 55.48 372.21 55.9C374.94 53.65 376.92 50.95 378.33 48.46L376.23 48.1ZM382.62 50.26V50.65C381.87 52.06 380.37 54.13 379.17 55.36C379.65 55.57 380.28 55.99 380.67 56.26C381.96 54.97 383.7 52.9 384.75 51.1L383.4 50.17L383.07 50.26H382.62ZM399.12 67.39V72.16C399.12 74.47 399.9 75.07 403.02 75.07C403.65 75.07 408.09 75.07 408.78 75.07C411.24 75.07 411.93 74.23 412.2 70.75C411.6 70.63 410.67 70.3 410.19 69.94C410.07 72.67 409.86 73.03 408.57 73.03C407.58 73.03 403.89 73.03 403.17 73.03C401.61 73.03 401.34 72.88 401.34 72.13V67.39H399.12ZM401.13 66.58C402.99 67.6 405.15 69.19 406.14 70.36L407.7 69.01C406.65 67.81 404.49 66.28 402.63 65.35L401.13 66.58ZM411.33 68.14C413.55 69.97 415.86 72.61 416.76 74.5L418.74 73.33C417.75 71.41 415.38 68.83 413.16 67.12L411.33 68.14ZM395.31 67.27C394.65 69.64 393.3 71.98 391.17 73.3L392.97 74.59C395.31 73.09 396.51 70.54 397.29 67.93L395.31 67.27ZM396.84 51.82H413.22V54.55H396.84V51.82ZM394.74 50.11V56.26H415.44V50.11H394.74ZM403.77 47.83V66.64H406.02V47.83H403.77ZM393.66 58.24V65.56H395.76V59.98H414.24V65.5H416.4V58.24H393.66ZM394.83 62.83V64.6H415.32V62.83H394.83ZM1.95 97.68V99.63H28.02V97.68H1.95ZM13.68 94.8V98.61H15.99V94.8H13.68ZM3.27 109.41V122.43H5.46V111.33H25.56V109.41H3.27ZM24.63 109.41V119.67C24.63 120.09 24.51 120.24 24 120.24C23.49 120.3 21.81 120.3 19.83 120.24C20.16 120.84 20.49 121.74 20.58 122.37C23.07 122.37 24.69 122.34 25.65 122.01C26.61 121.62 26.88 120.96 26.88 119.73V109.41H24.63ZM9.27 113.28V121.14H11.28V113.28H9.27ZM10.35 113.28V114.9H18.69V117.99H10.35V119.61H20.73V113.28H10.35ZM9.09 102.96H20.82V105.87H9.09V102.96ZM6.93 101.31V107.52H23.1V101.31H6.93ZM38.19 121.68L40.23 119.94C38.34 117.75 35.64 115.05 33.48 113.31L31.53 115.02C33.66 116.76 36.24 119.31 38.19 121.68ZM74.7 103.89V105.87H85.62V103.89H74.7ZM71.76 109.38V111.36H88.32V109.38H71.76ZM72.18 98.52V103.56H74.31V100.47H85.95V103.56H88.17V98.52H72.18ZM79.11 110.28V119.88C79.11 120.21 78.99 120.3 78.63 120.3C78.27 120.33 77.01 120.33 75.66 120.3C75.96 120.87 76.26 121.71 76.35 122.28C78.27 122.31 79.5 122.28 80.31 121.98C81.09 121.62 81.3 121.05 81.3 119.91V110.28H79.11ZM74.79 113.31C73.68 115.44 71.94 117.75 70.32 119.31C70.83 119.61 71.7 120.27 72.12 120.66C73.68 118.95 75.57 116.34 76.86 114L74.79 113.31ZM83.28 114.12C84.72 116.1 86.31 118.77 87 120.42L89.07 119.43C88.32 117.81 86.64 115.2 85.2 113.28L83.28 114.12ZM78.03 95.25C78.75 96.57 79.53 98.37 79.86 99.54L82.14 98.88C81.78 97.74 80.97 96 80.16 94.68L78.03 95.25ZM62.04 114.54C62.04 114.09 63.51 113.46 63.51 113.46V113.43C66.33 110.49 69.24 106.41 71.61 102.33L69.81 101.25C67.77 105.3 64.62 109.53 63.63 110.61C62.7 111.72 62.01 112.47 61.38 112.59C61.62 113.13 61.95 114.12 62.04 114.54ZM62.04 114.54C62.64 114.21 63.63 113.91 70.8 112.47C70.77 112.02 70.77 111.18 70.83 110.61L63.03 112.02L61.95 112.77L62.04 114.54ZM61.83 107.34C61.83 106.89 63.15 106.2 63.15 106.2V106.14C65.16 103.41 67.26 99.51 68.73 95.79L66.69 94.89C65.55 98.49 63.45 102.42 62.79 103.44C62.16 104.46 61.65 105.18 61.14 105.3C61.38 105.84 61.74 106.89 61.83 107.34ZM61.83 107.34C62.31 107.1 63.12 106.92 68.13 106.26C68.13 105.84 68.19 105.06 68.28 104.49L62.82 105.06L61.77 105.75L61.83 107.34ZM61.32 118.41L61.74 120.57C64.41 119.88 67.86 119.01 71.19 118.14L70.98 116.22C67.35 117.09 63.75 117.93 61.32 118.41ZM97.44 104.61V106.62H112.59V104.61H97.44ZM96.9 119.19V121.2H112.98V119.19H96.9ZM95.88 110.4V122.43H98.07V112.44H111.96V122.43H114.24V110.4H95.88ZM104.91 97.11C107.73 100.95 113.01 105.18 117.72 107.64C118.11 106.98 118.65 106.2 119.22 105.66C114.42 103.53 109.17 99.36 105.93 94.89H103.65C101.28 98.76 96.27 103.35 90.99 106.02C91.5 106.5 92.1 107.31 92.4 107.82C97.53 105.03 102.45 100.77 104.91 97.11ZM121.47 103.86V105.96H135.75V103.86H121.47ZM137.76 98.37V114.96H139.95V98.37H137.76ZM127.77 97.35V122.37H129.99V97.35H127.77ZM145.14 95.37V119.43C145.14 120 144.9 120.18 144.33 120.18C143.76 120.21 141.9 120.21 139.74 120.15C140.1 120.81 140.46 121.8 140.58 122.43C143.34 122.46 145.02 122.4 146.01 122.01C146.97 121.65 147.36 120.96 147.36 119.4V95.37H145.14ZM133.74 94.98C130.92 96.24 125.7 97.26 121.26 97.89C121.53 98.37 121.86 99.15 121.95 99.69C126.51 99.09 131.94 98.1 135.42 96.72L133.74 94.98ZM127.68 104.82C126.36 108.84 123.45 113.61 120.81 116.13C121.2 116.7 121.77 117.6 122.04 118.26C124.83 115.41 127.77 110.04 129.3 105.48L127.68 104.82ZM129.69 107.91L128.46 109.11C129.84 110.28 133.11 113.43 134.34 114.81L135.66 112.92C134.7 112.08 130.83 108.72 129.69 107.91ZM155.85 96.93V99.09H175.26V96.93H155.85ZM155.85 103.92V106.05H175.23V103.92H155.85ZM155.7 111.09V113.22H175.29V111.09H155.7ZM154.59 96.93V107.79C154.59 112.02 154.26 117.36 150.96 121.08C151.44 121.38 152.34 122.13 152.7 122.58C156.27 118.59 156.81 112.38 156.81 107.82V96.93H154.59ZM174.36 96.93V119.34C174.36 119.91 174.15 120.09 173.58 120.12C173.01 120.12 170.97 120.15 168.84 120.06C169.17 120.66 169.53 121.65 169.62 122.25C172.47 122.28 174.21 122.25 175.23 121.89C176.22 121.5 176.58 120.81 176.58 119.34V96.93H174.36ZM164.01 97.74V122.13H166.29V97.74H164.01ZM193.74 94.83V99.03H196.05V94.83H193.74ZM193.74 111.96V122.52H196.05V111.96H193.74ZM181.59 114.3V116.37H208.41V114.3H181.59ZM182.52 98.19V100.26H207.57V98.19H182.52ZM205.2 101.07C204.06 102.27 202.02 103.89 200.55 104.91L202.17 105.87C203.7 104.91 205.65 103.53 207.18 102.12L205.2 101.07ZM193.26 99.78C192.51 101.07 191.19 103.02 190.14 104.22L191.61 104.91C192.72 103.77 194.07 102.09 195.21 100.53L193.26 99.78ZM197.64 102.06C195.72 104.76 192.48 108.48 189.93 110.73L191.28 111.51C193.83 109.35 197.1 105.84 199.44 102.93L197.64 102.06ZM188.85 104.19C190.62 105.3 192.81 106.95 193.86 108.06L195.03 106.56C193.95 105.48 191.7 103.92 189.99 102.9L188.85 104.19ZM188.49 110.01L188.79 111.96C191.88 111.75 195.99 111.48 200.07 111.15V109.5C195.75 109.71 191.4 109.92 188.49 110.01ZM196.53 107.31C198 108.99 199.59 111.36 200.25 112.89L201.99 111.99C201.3 110.49 199.65 108.21 198.15 106.56L196.53 107.31ZM181.47 110.64L182.61 112.47C184.59 111.57 187.08 110.4 189.48 109.26L189.06 107.55C186.27 108.72 183.39 109.92 181.47 110.64ZM182.55 102.75C184.23 103.71 186.27 105.15 187.29 106.14L188.85 104.73C187.8 103.77 185.7 102.39 184.05 101.52L182.55 102.75ZM199.98 108.48C202.32 109.68 205.32 111.54 206.79 112.77L208.44 111.33C206.88 110.1 203.85 108.36 201.54 107.22L199.98 108.48ZM235.59 95.82C232.35 96.9 226.53 97.92 221.55 98.46C221.79 98.97 222.09 99.78 222.18 100.29C227.34 99.72 233.34 98.79 237.33 97.53L235.59 95.82ZM220.92 97.86V116.19H223.11V98.58L220.92 97.86ZM218.91 115.8L219.39 117.9C222.39 117.36 226.38 116.61 230.19 115.89L230.07 113.85C225.96 114.63 221.76 115.35 218.91 115.8ZM222.18 105.33V107.4H238.77V105.33H222.18ZM229.11 98.49C229.35 110.55 231.78 121.26 236.31 121.26C238.23 121.26 239.01 120.12 239.34 116.04C238.8 115.83 238.02 115.38 237.54 114.9C237.42 117.84 237.12 119.04 236.52 119.04C233.94 119.07 231.42 109.83 231.39 98.49H229.11ZM219.81 119.61V121.62H232.59V119.61H219.81ZM217.92 94.92C216.24 99.48 213.42 103.98 210.45 106.89C210.87 107.4 211.5 108.6 211.74 109.11C214.98 105.75 218.07 100.68 220.05 95.58L217.92 94.92ZM214.8 102.66V122.37H216.96V100.56L216.9 100.53L214.8 102.66ZM243.93 99.63V101.64H250.95V117.21H243.93V119.25H253.05V99.63H243.93ZM242.58 99.63V121.65H244.68V99.63H242.58ZM243.78 107.97V109.98H252.06V107.97H243.78ZM247.17 94.74C246.93 96.3 246.36 98.58 245.85 100.02L247.65 100.47C248.25 99.12 249 97.05 249.6 95.19L247.17 94.74ZM257.31 99.54V101.64H266.52V99.54H257.31ZM265.74 99.54V100.02C265.32 113.25 264.84 118.23 263.85 119.31C263.52 119.7 263.16 119.79 262.56 119.79C261.87 119.79 260.07 119.76 258.12 119.61C258.54 120.21 258.81 121.14 258.87 121.8C260.55 121.89 262.32 121.95 263.34 121.83C264.39 121.74 265.08 121.47 265.74 120.6C266.94 119.13 267.36 114.48 267.84 100.71C267.84 100.38 267.84 99.54 267.84 99.54H265.74ZM257.94 94.68C256.98 98.85 255.33 102.99 253.29 105.63C253.83 105.93 254.76 106.56 255.15 106.92C257.22 104.07 258.99 99.66 260.1 95.19L257.94 94.68ZM256.56 107.34C258.21 109.53 260.22 112.5 261.12 114.33L263.04 113.13C262.08 111.36 260.01 108.45 258.3 106.32L256.56 107.34ZM283.17 98.07V100.14H297.36V98.07H283.17ZM281.4 103.95V106.05H298.74V103.95H281.4ZM281.91 109.65V111.75H298.56V109.65H281.91ZM289.08 94.8V105.06H291.3V94.8H289.08ZM292.8 105.75V119.61C292.8 120.06 292.68 120.15 292.2 120.18C291.66 120.21 290.01 120.21 288.21 120.15C288.54 120.81 288.84 121.77 288.93 122.4C291.24 122.4 292.83 122.37 293.79 122.01C294.75 121.65 295.05 120.99 295.05 119.64V105.75H292.8ZM283.47 113.64C284.94 115.11 286.56 117.18 287.22 118.59L289.05 117.42C288.3 116.01 286.65 114.03 285.18 112.62L283.47 113.64ZM271.05 111.12L271.65 113.31C274.68 112.35 278.73 111.09 282.54 109.86L282.24 107.91C278.16 109.14 273.87 110.4 271.05 111.12ZM276.66 94.83V122.4H278.76V94.83H276.66ZM272.94 96.42C272.58 100.11 271.98 103.92 270.84 106.47C271.32 106.68 272.19 107.19 272.55 107.46C273.69 104.79 274.44 100.74 274.89 96.75L272.94 96.42ZM273.12 100.89L272.76 103.05H281.85V100.89H273.12ZM313.62 94.8V105.03H315.9V94.8H313.62ZM307.08 106.08H322.77V111.45H307.08V106.08ZM304.95 103.95V113.55H325.05V103.95H304.95ZM314.67 98.01V100.14H327.3V98.01H314.67ZM310.17 116.16C310.56 118.11 310.8 120.63 310.8 122.16L313.11 121.86C313.08 120.39 312.75 117.93 312.33 115.98L310.17 116.16ZM316.38 116.19C317.28 118.08 318.18 120.57 318.48 122.07L320.7 121.53C320.34 120 319.35 117.57 318.42 115.77L316.38 116.19ZM322.5 115.95C324.03 117.87 325.68 120.51 326.37 122.16L328.5 121.29C327.78 119.61 326.04 117.06 324.51 115.2L322.5 115.95ZM305.31 115.38C304.38 117.6 302.82 120.03 301.23 121.38L303.3 122.4C304.92 120.81 306.45 118.26 307.44 115.92L305.31 115.38ZM334.71 123.21C337.86 122.13 339.9 119.67 339.9 116.43C339.9 114.33 339 112.95 337.32 112.95C336.12 112.95 335.04 113.7 335.04 115.11C335.04 116.55 336.06 117.27 337.29 117.27C337.86 117.27 338.46 117.12 338.88 116.58L337.26 114.3L337.83 116.85C337.83 119.1 336.48 120.63 334.02 121.65L334.71 123.21ZM361.38 96.72V98.82H374.82V96.72H361.38ZM362.04 110.7V112.77H374.34V110.7H362.04ZM366.93 107.19V118.62H369.09V107.19H366.93ZM361.14 118.5L361.5 120.81C365.16 120.15 370.35 119.25 375.27 118.35L375.15 116.22C370.02 117.09 364.62 118.02 361.14 118.5ZM361.08 104.88L361.35 106.98C364.44 106.71 368.73 106.38 372.9 105.99L372.87 104.04C368.49 104.4 364.05 104.73 361.08 104.88ZM365.76 97.89C365.1 100.17 363.87 103.47 362.85 105.48L364.65 106.02C365.76 104.1 367.05 100.98 368.07 98.43L365.76 97.89ZM369.54 101.31C370.89 103.14 372.39 105.69 372.99 107.28L374.88 106.26C374.25 104.7 372.69 102.27 371.31 100.44L369.54 101.31ZM377.4 100.41V102.51H388.65V100.41H377.4ZM378.15 94.8C377.25 99.9 375.66 104.85 373.23 107.94C373.77 108.3 374.73 109.02 375.15 109.44C377.61 106.02 379.41 100.77 380.46 95.19L378.15 94.8ZM384.57 101.58C383.19 111.18 380.04 117.18 372.54 120.48C372.96 120.93 373.65 121.95 373.86 122.49C381.78 118.65 385.23 112.29 386.85 101.85L384.57 101.58ZM378.33 102.33L376.29 102.69C377.94 111.87 381.09 119.1 387.45 122.43C387.81 121.83 388.5 120.96 389.04 120.51C382.95 117.63 379.77 110.67 378.33 102.33ZM392.46 101.37V103.65H415.74V101.37H392.46ZM414.87 101.37V101.85C414.27 113.76 413.61 118.44 412.47 119.55C412.08 119.91 411.72 120 411.06 120C410.31 120 408.39 119.97 406.35 119.79C406.77 120.45 407.07 121.44 407.1 122.1C408.96 122.22 410.88 122.28 411.93 122.16C413.07 122.07 413.79 121.83 414.51 120.96C415.83 119.46 416.46 114.99 417.15 102.57C417.18 102.21 417.21 101.37 417.21 101.37H414.87ZM402.27 94.86V100.08C402.27 106.29 401.55 114.81 391.59 120.75C392.13 121.14 392.97 121.98 393.3 122.52C403.8 116.19 404.64 106.92 404.64 100.08V94.86H402.27ZM421.62 106.8V109.02H448.38V106.8H421.62ZM434.07 97.71V119.13C434.07 119.73 433.83 119.91 433.2 119.94C432.51 119.97 430.23 119.97 427.77 119.91C428.1 120.57 428.55 121.62 428.7 122.28C431.76 122.28 433.74 122.22 434.85 121.86C435.99 121.47 436.44 120.78 436.44 119.13V97.71H434.07ZM423.72 96.96V99.18H446.28V96.96H423.72ZM4.14 149.42V151.19H12.81V149.42H4.14ZM4.14 154.52V156.23H12.81V154.52H4.14ZM4.14 159.74V161.51H12.81V159.74H4.14ZM16.92 156.02V157.97H28.35V156.02H16.92ZM5.7 144.5V146.27H10.68V144.5H5.7ZM15 143.33V145.25H26.73V143.33H15ZM14.64 161.63V163.64H28.86V161.63H14.64ZM20.97 152.93V169.28H23.13V152.93H20.97ZM7.86 150.29V160.49H9.48V150.29H7.86ZM26.01 143.33V143.63C25.8 148.34 25.56 150.08 25.17 150.53C24.99 150.77 24.72 150.83 24.3 150.8C23.88 150.8 22.8 150.8 21.6 150.68C21.87 151.19 22.08 151.97 22.11 152.57C23.37 152.63 24.63 152.63 25.23 152.57C26.01 152.51 26.46 152.33 26.88 151.82C27.51 151.13 27.81 149.18 28.02 144.17C28.05 143.9 28.05 143.33 28.05 143.33H26.01ZM17.04 153.2C16.53 155.75 15.6 158.27 14.31 159.95C14.79 160.19 15.69 160.64 16.08 160.91C17.34 159.11 18.39 156.38 18.99 153.59L17.04 153.2ZM5.64 141.8C4.74 145.49 3.06 149.06 0.93 151.37C1.41 151.67 2.28 152.36 2.64 152.72C4.77 150.17 6.6 146.3 7.71 142.25L5.64 141.8ZM3.27 149.42V157.4C3.27 160.79 3.06 165.26 1.02 168.44C1.47 168.65 2.31 169.16 2.64 169.46C4.77 166.13 5.13 161.06 5.13 157.4V149.42H3.27ZM12.21 149.42V166.94C12.21 167.33 12.03 167.45 11.64 167.48C11.22 167.51 9.87 167.51 8.34 167.45C8.61 167.99 8.94 168.86 9.03 169.37C11.1 169.37 12.33 169.34 13.08 169.01C13.86 168.68 14.1 168.05 14.1 166.94V149.42H12.21ZM19.26 143.96C18.84 147.35 17.76 150.32 14.07 151.88C14.52 152.21 15.06 152.93 15.33 153.41C19.53 151.52 20.82 148.1 21.33 143.96H19.26ZM10.14 144.5V144.86C9.69 146.36 8.85 148.52 8.1 149.87C8.52 150.05 9.18 150.44 9.54 150.74C10.44 149.33 11.58 147.11 12.21 145.25L10.89 144.38L10.59 144.5H10.14ZM31.5 144.08C33.24 145.97 35.25 148.58 36.15 150.23L38.04 148.94C37.11 147.32 34.98 144.8 33.27 143L31.5 144.08ZM31.11 166.67L33.06 168.05C34.71 165.17 36.6 161.36 38.01 158.12L36.33 156.74C34.77 160.25 32.61 164.27 31.11 166.67ZM40.74 146.54V148.7H53.67V156.65H55.83V146.54H40.74ZM39.18 155.63V157.82H58.83V155.63H39.18ZM49.86 156.32L47.85 156.74C49.35 162.86 52.35 167.27 57.51 169.37C57.84 168.77 58.5 167.87 59.01 167.42C54.12 165.74 51.18 161.66 49.86 156.32ZM46.74 141.86V151.85C46.74 157.1 46.41 163.64 37.47 167.69C38.01 168.11 38.76 168.98 39.09 169.49C48.21 164.93 49.08 157.76 49.08 151.85V141.86H46.74ZM82.02 157.01C83.91 159.41 86.01 162.71 86.88 164.75L89.04 163.7C88.08 161.63 85.92 158.45 84 156.11L82.02 157.01ZM73.77 141.86V152.57H76.08V141.86H73.77ZM61.71 151.85V154.01H88.35V151.85H61.71ZM64.68 145.43V147.59H85.98V145.43H64.68ZM77.55 153.02V166.61C77.55 167 77.43 167.12 76.95 167.12C76.5 167.15 74.94 167.18 73.23 167.12C73.56 167.78 73.92 168.74 74.04 169.37C76.29 169.37 77.76 169.34 78.69 168.98C79.62 168.59 79.89 167.96 79.89 166.64V153.02H77.55ZM65.76 156.26C64.89 158.66 63.03 161.54 60.93 163.34C61.47 163.64 62.28 164.21 62.73 164.63C64.89 162.68 66.87 159.59 68.04 156.86L65.76 156.26ZM70.8 152.75V155.78C70.8 159.47 70.32 164.3 64.77 167.96C65.31 168.35 66.12 169.1 66.45 169.61C72.45 165.56 73.08 160.07 73.08 155.81V152.75H70.8ZM101.49 143.36V153.62C101.49 158.15 101.19 164.15 97.8 168.32C98.34 168.53 99.3 169.1 99.69 169.46C103.17 165.14 103.65 158.48 103.65 153.62V143.36H101.49ZM105.84 153.47V165.83C105.84 168.5 106.62 169.22 109.56 169.22C110.16 169.22 114.42 169.22 115.05 169.22C117.78 169.22 118.41 167.96 118.68 163.37C118.11 163.22 117.18 162.86 116.7 162.5C116.55 166.46 116.34 167.18 114.93 167.18C114 167.18 110.43 167.18 109.74 167.18C108.27 167.18 107.97 166.94 107.97 165.83V153.47H105.84ZM115.47 154.82C113.46 156.59 109.8 158.51 106.53 159.92C106.83 160.37 107.16 161.09 107.31 161.51C110.76 160.13 114.6 158.3 117.21 156.41L115.47 154.82ZM102.48 143.36V145.43H114.96V149.81H102.48V151.91H117.15V143.36H102.48ZM92.64 143.78C94.65 144.65 97.08 146.06 98.25 147.14L99.57 145.25C98.34 144.23 95.88 142.91 93.87 142.13L92.64 143.78ZM91.14 152.06C93.09 152.87 95.46 154.28 96.63 155.3L97.89 153.41C96.66 152.42 94.26 151.13 92.34 150.38L91.14 152.06ZM92.01 167.48L93.99 168.92C95.64 166.1 97.62 162.32 99.09 159.14L97.35 157.76C95.73 161.18 93.51 165.17 92.01 167.48ZM145.59 142.82C142.35 143.9 136.53 144.92 131.55 145.46C131.79 145.97 132.09 146.78 132.18 147.29C137.34 146.72 143.34 145.79 147.33 144.53L145.59 142.82ZM130.92 144.86V163.19H133.11V145.58L130.92 144.86ZM128.91 162.8L129.39 164.9C132.39 164.36 136.38 163.61 140.19 162.89L140.07 160.85C135.96 161.63 131.76 162.35 128.91 162.8ZM132.18 152.33V154.4H148.77V152.33H132.18ZM139.11 145.49C139.35 157.55 141.78 168.26 146.31 168.26C148.23 168.26 149.01 167.12 149.34 163.04C148.8 162.83 148.02 162.38 147.54 161.9C147.42 164.84 147.12 166.04 146.52 166.04C143.94 166.07 141.42 156.83 141.39 145.49H139.11ZM129.81 166.61V168.62H142.59V166.61H129.81ZM127.92 141.92C126.24 146.48 123.42 150.98 120.45 153.89C120.87 154.4 121.5 155.6 121.74 156.11C124.98 152.75 128.07 147.68 130.05 142.58L127.92 141.92ZM124.8 149.66V169.37H126.96V147.56L126.9 147.53L124.8 149.66ZM155.1 153.05V155.15H162.57V153.05H155.1ZM161.67 153.05V153.44C161.58 159.92 161.43 162.17 160.98 162.71C160.77 162.98 160.47 163.01 160.05 163.01C159.54 163.01 158.22 163.01 156.87 162.89C157.2 163.46 157.44 164.33 157.5 164.99C158.97 165.05 160.32 165.08 161.1 164.99C161.94 164.9 162.42 164.69 162.9 164.15C163.53 163.31 163.71 160.79 163.86 154.01C163.86 153.71 163.86 153.05 163.86 153.05H161.67ZM170.13 143.33C172.02 144.32 174.33 145.85 175.47 146.9L176.88 145.37C175.71 144.32 173.34 142.88 171.48 141.92L170.13 143.33ZM174.42 151.46C172.17 158.69 167.94 164.18 161.85 167.42C162.33 167.87 163.17 168.8 163.5 169.25C169.65 165.62 174.12 159.83 176.67 152L174.42 151.46ZM155.28 146.9V149.12H178.5V146.9H155.28ZM153.84 146.9V155.33C153.84 159.26 153.57 164.42 151.08 168.11C151.62 168.38 152.58 169.16 152.97 169.61C155.7 165.68 156.18 159.62 156.18 155.36V146.9H153.84ZM166.29 141.86C166.41 156.23 169.11 169.19 175.23 169.19C177.51 169.19 178.35 167.72 178.77 162.59C178.17 162.38 177.33 161.87 176.82 161.36C176.64 165.35 176.25 166.91 175.41 166.91C171.51 166.91 168.57 155.66 168.63 141.86H166.29ZM181.92 148.13V150.41H208.11V148.13H181.92ZM187.92 161.51V163.79H201.9V161.51H187.92ZM193.77 141.83V169.4H196.14V141.83H193.77ZM193.08 148.88C190.68 154.64 185.91 160.22 180.9 162.83C181.41 163.28 182.16 164.12 182.52 164.69C187.71 161.66 192.42 155.93 195.09 149.57L193.08 148.88ZM196.89 148.97L194.88 149.66C197.52 155.96 202.14 161.69 207.45 164.63C207.81 164 208.59 163.1 209.16 162.62C203.97 160.13 199.26 154.67 196.89 148.97ZM211.95 144.68V146.63H238.02V144.68H211.95ZM223.68 141.8V145.61H225.99V141.8H223.68ZM213.27 156.41V169.43H215.46V158.33H235.56V156.41H213.27ZM234.63 156.41V166.67C234.63 167.09 234.51 167.24 234 167.24C233.49 167.3 231.81 167.3 229.83 167.24C230.16 167.84 230.49 168.74 230.58 169.37C233.07 169.37 234.69 169.34 235.65 169.01C236.61 168.62 236.88 167.96 236.88 166.73V156.41H234.63ZM219.27 160.28V168.14H221.28V160.28H219.27ZM220.35 160.28V161.9H228.69V164.99H220.35V166.61H230.73V160.28H220.35ZM219.09 149.96H230.82V152.87H219.09V149.96ZM216.93 148.31V154.52H233.1V148.31H216.93ZM241.29 145.88V147.92H256.32V145.88H241.29ZM247.59 141.92V146.84H249.78V141.92H247.59ZM244.92 148.94C244.05 151.13 242.61 153.32 241.02 154.82C241.53 155.12 242.4 155.81 242.79 156.17C244.38 154.49 246.03 151.94 247.05 149.48L244.92 148.94ZM250.59 154.37C248.91 160.13 245.73 164.87 241.26 167.72C241.77 168.14 242.61 168.98 242.94 169.46C247.5 166.22 250.86 161.21 252.81 154.88L250.59 154.37ZM250.29 149.84C251.58 151.31 252.96 153.32 253.56 154.64L255.36 153.53C254.76 152.24 253.29 150.29 251.97 148.91L250.29 149.84ZM243.6 156.77C246.99 159.65 250.8 163.73 252.42 166.52L254.25 164.96C252.54 162.2 248.64 158.24 245.25 155.45L243.6 156.77ZM258.12 147.41V149.51H268.8V147.41H258.12ZM259.02 141.8C258.18 147.08 256.71 152.18 254.31 155.42C254.82 155.78 255.72 156.56 256.11 156.98C258.57 153.41 260.25 147.95 261.24 142.13L259.02 141.8ZM264.78 148.55C263.55 158.12 260.67 164.18 253.53 167.54C253.95 167.99 254.61 168.98 254.85 169.49C262.38 165.59 265.56 159.14 267 148.79L264.78 148.55ZM259.32 149.24L257.37 149.57C258.81 158.63 261.6 165.98 267.39 169.43C267.72 168.86 268.41 168.02 268.95 167.57C263.43 164.6 260.61 157.52 259.32 149.24ZM283.74 141.83V146.03H286.05V141.83H283.74ZM283.74 158.96V169.52H286.05V158.96H283.74ZM271.59 161.3V163.37H298.41V161.3H271.59ZM272.52 145.19V147.26H297.57V145.19H272.52ZM295.2 148.07C294.06 149.27 292.02 150.89 290.55 151.91L292.17 152.87C293.7 151.91 295.65 150.53 297.18 149.12L295.2 148.07ZM283.26 146.78C282.51 148.07 281.19 150.02 280.14 151.22L281.61 151.91C282.72 150.77 284.07 149.09 285.21 147.53L283.26 146.78ZM287.64 149.06C285.72 151.76 282.48 155.48 279.93 157.73L281.28 158.51C283.83 156.35 287.1 152.84 289.44 149.93L287.64 149.06ZM278.85 151.19C280.62 152.3 282.81 153.95 283.86 155.06L285.03 153.56C283.95 152.48 281.7 150.92 279.99 149.9L278.85 151.19ZM278.49 157.01L278.79 158.96C281.88 158.75 285.99 158.48 290.07 158.15V156.5C285.75 156.71 281.4 156.92 278.49 157.01ZM286.53 154.31C288 155.99 289.59 158.36 290.25 159.89L291.99 158.99C291.3 157.49 289.65 155.21 288.15 153.56L286.53 154.31ZM271.47 157.64L272.61 159.47C274.59 158.57 277.08 157.4 279.48 156.26L279.06 154.55C276.27 155.72 273.39 156.92 271.47 157.64ZM272.55 149.75C274.23 150.71 276.27 152.15 277.29 153.14L278.85 151.73C277.8 150.77 275.7 149.39 274.05 148.52L272.55 149.75ZM289.98 155.48C292.32 156.68 295.32 158.54 296.79 159.77L298.44 158.33C296.88 157.1 293.85 155.36 291.54 154.22L289.98 155.48ZM312.39 156.98V158.9H327.57V156.98H312.39ZM310.89 162.92V164.87H328.44V162.92H310.89ZM320.55 154.58V169.4H322.74V154.58H320.55ZM314.52 157.76V163.67H316.53V157.76H314.52ZM302.4 143.12V169.43H304.44V145.16H309.48V143.12H302.4ZM308.79 143.12V143.72C308.16 145.79 307.05 149.36 305.97 152.09C308.13 154.43 308.67 156.47 308.67 158.09C308.67 158.99 308.52 159.8 308.04 160.13C307.8 160.31 307.47 160.4 307.11 160.4C306.63 160.46 306.06 160.43 305.37 160.37C305.7 160.94 305.88 161.81 305.91 162.35C306.6 162.38 307.35 162.38 307.95 162.32C308.55 162.23 309.09 162.05 309.51 161.78C310.35 161.18 310.68 159.92 310.68 158.3C310.68 156.44 310.2 154.34 307.98 151.85C309 149.45 310.11 146.36 310.98 143.9L309.54 143.03L309.18 143.12H308.79ZM316.47 144.41V146.24H324.9V144.41H316.47ZM324.39 144.41V144.77C322.29 150.05 316.59 153.5 310.86 154.82C311.25 155.27 311.76 156.08 312.03 156.65C318.15 154.97 324.06 151.31 326.58 145.01L325.2 144.32L324.81 144.41H324.39ZM316.65 146L314.85 146.6C317.25 151.4 321.87 154.82 327.81 156.17C328.11 155.6 328.71 154.79 329.16 154.34C323.4 153.26 318.78 150.14 316.65 146ZM317.61 141.8C316.47 144.2 314.22 147.11 310.86 149.21C311.37 149.48 312.06 150.17 312.36 150.62C315.9 148.22 318.27 145.13 319.77 142.16L317.61 141.8ZM356.22 151.85C354.72 159.02 351.84 164.57 346.95 167.93C347.37 168.29 348.03 169.07 348.3 169.46C353.37 165.74 356.46 159.92 358.14 152.18L356.22 151.85ZM342.81 146.69V148.64H358.77V146.69H342.81ZM344.49 150.95V152.75H350.94V150.95H344.49ZM341.82 146.69V154.55C341.82 158.63 341.58 164.18 339.09 168.17C339.48 168.38 340.29 169.04 340.59 169.4C343.26 165.17 343.71 158.93 343.71 154.55V146.69H341.82ZM351.36 141.86C351.63 159.89 352.86 169.4 356.43 169.4C358.17 169.4 358.89 168.59 359.22 164.06C358.71 163.91 358.02 163.43 357.54 163.01C357.39 166.4 357.12 167.45 356.61 167.45C354.96 167.45 353.28 159.68 353.34 141.86H351.36ZM344.88 155.15V165.2H346.44V155.15H344.88ZM345.66 155.15V156.83H349.08V161.57H345.66V163.28H350.67V155.15H345.66ZM353.79 143.06C354.96 143.93 356.37 145.34 357.09 146.27L358.53 145.13C357.87 144.23 356.43 142.94 355.2 142.07L353.79 143.06ZM331.44 143.42V145.46H340.59V143.42H331.44ZM333.96 152.63V154.64H338.16V163.61H333.96V165.62H339.96V152.63H333.96ZM334.86 144.47C334.2 149.39 332.97 154.07 330.87 157.13C331.23 157.67 331.74 158.81 331.89 159.32C334.41 155.75 335.91 150.41 336.84 144.83L334.86 144.47ZM333.18 152.63V168.02H334.92V152.63H333.18ZM371.31 146.54V148.64H387.84V146.54H371.31ZM371.94 153.14V155.21H385.17V153.14H371.94ZM378.39 141.8V154.31H380.61V141.8H378.39ZM374.85 154.67L372.81 155.27C375.42 162.32 380.28 167.3 387.48 169.43C387.81 168.86 388.44 167.96 388.95 167.51C381.93 165.65 377.1 160.97 374.85 154.67ZM384.99 153.14V153.53C382.8 160.94 376.47 165.59 369.6 167.36C370.02 167.84 370.59 168.8 370.8 169.4C378.15 167.18 384.69 162.29 387.24 153.68L385.83 153.05L385.41 153.14H384.99ZM361.08 157.7L361.74 159.86C364.41 159.08 367.89 158.06 371.16 157.07L370.89 155.03C367.32 156.05 363.6 157.07 361.08 157.7ZM361.47 147.86V149.99H370.89V147.86H361.47ZM365.34 141.83V166.7C365.34 167.12 365.16 167.27 364.77 167.27C364.38 167.3 363.06 167.3 361.65 167.27C361.95 167.87 362.28 168.77 362.34 169.34C364.41 169.34 365.67 169.28 366.45 168.92C367.26 168.59 367.56 167.96 367.56 166.7V141.83H365.34ZM406.74 150.83L404.85 151.58C407.79 156.89 412.77 162.65 417.03 165.71C417.45 165.08 418.26 164.21 418.83 163.76C414.54 161.06 409.44 155.66 406.74 150.83ZM403.59 150.86C401.01 156.17 396 161.48 391.05 164.03C391.59 164.48 392.34 165.35 392.76 165.95C397.77 163.07 402.75 157.55 405.6 151.61L403.59 150.86ZM391.98 149.42V151.64H417.81V149.42H391.98ZM403.8 141.86V169.43H406.26V141.86H403.8ZM408.18 143.72C410.04 145.07 412.41 146.99 413.58 148.22L415.26 146.63C414.06 145.43 411.66 143.6 409.83 142.34L408.18 143.72ZM435.42 153.08V155.12H447.63V153.08H435.42ZM435.45 158.99V161.03H447.66V158.99H435.45ZM435.27 165.17V167.27H448.65V165.17H435.27ZM440.94 147.95V166.31H442.98V147.95H440.94ZM436.38 147.23H435.6L434.28 148.64V169.43H436.38V149.3H448.29V147.23H436.38ZM436.65 141.98C435.54 145.7 433.38 150.41 430.86 153.41C431.22 153.89 431.73 154.85 431.97 155.42C434.94 152 437.37 146.96 438.87 142.58L436.65 141.98ZM439.8 142.76C440.58 144.11 441.48 145.94 441.84 147.14L443.91 146.21C443.49 145.07 442.59 143.3 441.75 141.98L439.8 142.76ZM421.74 145.25V147.29H430.41V145.25H421.74ZM429.72 145.25V145.79C428.67 154.67 425.19 162.08 420.87 165.35C421.41 165.71 422.1 166.52 422.46 167.06C427.2 163.16 430.68 155.81 431.91 145.64L430.5 145.16L430.11 145.25H429.72ZM421.44 150.38C424.8 154.82 428.76 160.79 430.44 164.48L432.21 162.92C430.47 159.35 426.36 153.5 423 149.15L421.44 150.38ZM5.25 195.55H11.4V197.83H5.25V195.55ZM5.25 191.71H11.4V193.96H5.25V191.71ZM3.24 190.09V199.51H13.5V190.09H3.24ZM1.44 201.73V203.47H15.03V201.73H1.44ZM14.97 190.18V192.04H28.65V190.18H14.97ZM7.53 202.3V212.56L9.48 213.73V202.3H7.53ZM8.43 206.71V208.42H14.46V206.71H8.43ZM20.7 190.81C20.43 192.1 19.86 193.96 19.41 195.19L21.21 195.64C21.75 194.5 22.38 192.82 22.98 191.26L20.7 190.81ZM5.01 208.06L3.63 208.57C6.06 214.78 10.86 215.77 18.39 215.77H28.08C28.17 215.17 28.56 214.3 28.89 213.82C27.15 213.88 19.77 213.88 18.42 213.88C11.76 213.88 7.11 213.22 5.01 208.06ZM16.17 194.92V207.55H18.09V196.63H25.2V207.46H27.18V194.92H16.17ZM3.69 204.97C3.54 209.29 3 212.89 0.99 215.23C1.44 215.5 2.28 216.07 2.61 216.34C4.65 213.73 5.4 209.92 5.61 205.09L3.69 204.97ZM20.82 198.1C20.64 205.9 20.01 209.71 13.71 211.72C14.13 212.05 14.61 212.77 14.82 213.19C21.66 210.94 22.53 206.56 22.74 198.1H20.82ZM21.87 208.45C23.76 209.8 26.07 211.78 27.24 213.04L28.59 211.66C27.42 210.4 25.05 208.51 23.19 207.25L21.87 208.45ZM34.71 217.21C37.86 216.13 39.9 213.67 39.9 210.43C39.9 208.33 39 206.95 37.32 206.95C36.12 206.95 35.04 207.7 35.04 209.11C35.04 210.55 36.06 211.27 37.29 211.27C37.86 211.27 38.46 211.12 38.88 210.58L37.26 208.3L37.83 210.85C37.83 213.1 36.48 214.63 34.02 215.65L34.71 217.21ZM74.34 195.49H84.36V197.89H74.34V195.49ZM74.34 191.5H84.36V193.9H74.34V191.5ZM72.27 189.79V199.63H86.52V189.79H72.27ZM70.89 201.79V203.68H88.17V201.79H70.89ZM78.27 202.72V214.12L80.37 214.99V202.72H78.27ZM74.25 208.24L72.87 208.75C74.7 214.87 78.15 215.95 83.16 215.95H88.44C88.5 215.38 88.8 214.42 89.1 213.94C88.05 213.97 84 213.97 83.25 213.97C79.08 213.97 75.78 213.22 74.25 208.24ZM79.71 207.19V209.05H86.67V207.19H79.71ZM72.87 205.09C72.39 209.53 71.04 212.92 68.37 215.05C68.82 215.38 69.69 216.04 70.05 216.4C72.75 214 74.31 210.28 74.91 205.33L72.87 205.09ZM60.84 204.76L61.41 206.95C63.96 206.14 67.23 205.06 70.35 204.04L70.02 201.97C66.66 203.05 63.18 204.13 60.84 204.76ZM61.17 194.86V196.96H70.32V194.86H61.17ZM64.89 188.83V213.58C64.89 214.03 64.77 214.15 64.38 214.15C64.02 214.15 62.88 214.15 61.56 214.12C61.86 214.75 62.13 215.68 62.22 216.22C64.11 216.22 65.28 216.16 65.97 215.8C66.72 215.44 66.99 214.84 66.99 213.61V188.83H64.89ZM94.47 212.32V214.54H115.65V212.32H94.47ZM103.68 188.98V213.58H105.99V188.98H103.68ZM93.36 203.95V216.43H95.64V203.95H93.36ZM114.45 203.95V216.34H116.76V203.95H114.45ZM94.53 191.68V202.03H115.56V191.68H113.22V199.84H96.75V191.68H94.53ZM121.32 201.07V203.53H148.77V201.07H121.32ZM163.2 195.13V208.51H165.33V197.32H175.98V208.33H178.17V195.13H163.2ZM169.59 188.89V216.34H171.84V188.89H169.59ZM163.98 204.49V206.65H177.54V204.49H163.98ZM156.18 191.29V216.34H158.37V191.29H156.18ZM151.35 197.26V199.39H162.24V197.26H151.35ZM156.27 198.07C155.19 201.79 152.82 206.47 150.66 208.87C151.05 209.38 151.56 210.31 151.8 210.94C154.11 208.15 156.48 202.9 157.68 198.67L156.27 198.07ZM160.98 189.22C158.7 190.24 154.74 191.11 151.38 191.65C151.62 192.16 151.92 192.91 152.01 193.42C155.49 192.94 159.6 192.13 162.33 191.05L160.98 189.22ZM158.28 199.93L157.23 200.86C158.1 201.97 160.38 205.42 161.07 206.8L162.45 205.03C161.82 204.19 159.03 200.71 158.28 199.93ZM192.78 198.88V201.1H208.62V198.88H192.78ZM199.83 189.07V216.37H202.14V189.07H199.83ZM185.55 188.89C184.56 191.68 182.82 194.38 180.9 196.12C181.29 196.63 181.89 197.77 182.07 198.22C184.32 196.09 186.33 192.79 187.59 189.49L185.55 188.89ZM184.74 192.31L184.29 194.41H192.66V192.31H184.74ZM186.03 216.25C186.54 215.74 187.38 215.26 193.26 212.17C193.11 211.72 192.93 210.85 192.87 210.25L186.57 213.37L185.76 214.27L186.03 216.25ZM183.21 197.59V199.63H191.88V197.59H183.21ZM181.8 203.71V205.75H192.51V203.71H181.8ZM186.03 216.25C186.03 215.44 188.46 213.97 188.46 213.97V198.19H186.3V211.99C186.3 213.22 185.46 213.94 184.92 214.27C185.31 214.75 185.82 215.71 186.03 216.25ZM212.07 192.82V194.98H222.3V192.82H212.07ZM221.55 192.82V193.36C220.41 203.65 216.54 211.12 211.32 214.54C211.86 214.96 212.58 215.8 212.91 216.34C218.58 212.29 222.51 204.82 223.77 193.15L222.33 192.73L221.94 192.82H221.55ZM212.73 200.41C216.75 204.01 221.19 209.11 223.05 212.56L224.82 210.91C222.93 207.46 218.34 202.54 214.29 199.03L212.73 200.41ZM224.46 196.03V198.22H238.74V196.03H224.46ZM232.92 188.8V213.34C232.92 213.88 232.71 214.03 232.2 214.06C231.69 214.09 230.01 214.09 228.12 214.03C228.45 214.72 228.78 215.77 228.87 216.4C231.45 216.4 232.98 216.34 233.88 215.95C234.78 215.53 235.17 214.87 235.17 213.37V188.8H232.92ZM225.03 202.21C226.47 204.31 227.82 207.16 228.27 208.96L230.25 208C229.77 206.17 228.33 203.41 226.89 201.34L225.03 202.21ZM241.62 200.8V203.02H268.38V200.8H241.62ZM254.07 191.71V213.13C254.07 213.73 253.83 213.91 253.2 213.94C252.51 213.97 250.23 213.97 247.77 213.91C248.1 214.57 248.55 215.62 248.7 216.28C251.76 216.28 253.74 216.22 254.85 215.86C255.99 215.47 256.44 214.78 256.44 213.13V191.71H254.07ZM243.72 190.96V193.18H266.28V190.96H243.72ZM292.02 204.01C293.91 206.41 296.01 209.71 296.88 211.75L299.04 210.7C298.08 208.63 295.92 205.45 294 203.11L292.02 204.01ZM283.77 188.86V199.57H286.08V188.86H283.77ZM271.71 198.85V201.01H298.35V198.85H271.71ZM274.68 192.43V194.59H295.98V192.43H274.68ZM287.55 200.02V213.61C287.55 214 287.43 214.12 286.95 214.12C286.5 214.15 284.94 214.18 283.23 214.12C283.56 214.78 283.92 215.74 284.04 216.37C286.29 216.37 287.76 216.34 288.69 215.98C289.62 215.59 289.89 214.96 289.89 213.64V200.02H287.55ZM275.76 203.26C274.89 205.66 273.03 208.54 270.93 210.34C271.47 210.64 272.28 211.21 272.73 211.63C274.89 209.68 276.87 206.59 278.04 203.86L275.76 203.26ZM280.8 199.75V202.78C280.8 206.47 280.32 211.3 274.77 214.96C275.31 215.35 276.12 216.1 276.45 216.61C282.45 212.56 283.08 207.07 283.08 202.81V199.75H280.8ZM311.49 190.36V200.62C311.49 205.15 311.19 211.15 307.8 215.32C308.34 215.53 309.3 216.1 309.69 216.46C313.17 212.14 313.65 205.48 313.65 200.62V190.36H311.49ZM315.84 200.47V212.83C315.84 215.5 316.62 216.22 319.56 216.22C320.16 216.22 324.42 216.22 325.05 216.22C327.78 216.22 328.41 214.96 328.68 210.37C328.11 210.22 327.18 209.86 326.7 209.5C326.55 213.46 326.34 214.18 324.93 214.18C324 214.18 320.43 214.18 319.74 214.18C318.27 214.18 317.97 213.94 317.97 212.83V200.47H315.84ZM325.47 201.82C323.46 203.59 319.8 205.51 316.53 206.92C316.83 207.37 317.16 208.09 317.31 208.51C320.76 207.13 324.6 205.3 327.21 203.41L325.47 201.82ZM312.48 190.36V192.43H324.96V196.81H312.48V198.91H327.15V190.36H312.48ZM302.64 190.78C304.65 191.65 307.08 193.06 308.25 194.14L309.57 192.25C308.34 191.23 305.88 189.91 303.87 189.13L302.64 190.78ZM301.14 199.06C303.09 199.87 305.46 201.28 306.63 202.3L307.89 200.41C306.66 199.42 304.26 198.13 302.34 197.38L301.14 199.06ZM302.01 214.48L303.99 215.92C305.64 213.1 307.62 209.32 309.09 206.14L307.35 204.76C305.73 208.18 303.51 212.17 302.01 214.48ZM333.93 193.63V195.64H340.95V211.21H333.93V213.25H343.05V193.63H333.93ZM332.58 193.63V215.65H334.68V193.63H332.58ZM333.78 201.97V203.98H342.06V201.97H333.78ZM337.17 188.74C336.93 190.3 336.36 192.58 335.85 194.02L337.65 194.47C338.25 193.12 339 191.05 339.6 189.19L337.17 188.74ZM347.31 193.54V195.64H356.52V193.54H347.31ZM355.74 193.54V194.02C355.32 207.25 354.84 212.23 353.85 213.31C353.52 213.7 353.16 213.79 352.56 213.79C351.87 213.79 350.07 213.76 348.12 213.61C348.54 214.21 348.81 215.14 348.87 215.8C350.55 215.89 352.32 215.95 353.34 215.83C354.39 215.74 355.08 215.47 355.74 214.6C356.94 213.13 357.36 208.48 357.84 194.71C357.84 194.38 357.84 193.54 357.84 193.54H355.74ZM347.94 188.68C346.98 192.85 345.33 196.99 343.29 199.63C343.83 199.93 344.76 200.56 345.15 200.92C347.22 198.07 348.99 193.66 350.1 189.19L347.94 188.68ZM346.56 201.34C348.21 203.53 350.22 206.5 351.12 208.33L353.04 207.13C352.08 205.36 350.01 202.45 348.3 200.32L346.56 201.34ZM372.96 196.81H384.48V199.87H372.96V196.81ZM372.96 192.01H384.48V195.01H372.96V192.01ZM370.86 190.12V201.76H386.7V190.12H370.86ZM367.8 213.55V215.53H388.8V213.55H367.8ZM369.57 205.09C370.77 207.25 371.85 210.13 372.18 212.05L374.16 211.33C373.77 209.44 372.66 206.59 371.4 204.46L369.57 205.09ZM386.01 204.28C385.35 206.44 384.06 209.53 383.04 211.39L384.72 212.05C385.8 210.22 387.15 207.34 388.2 204.97L386.01 204.28ZM375.09 202.75V214.72H377.19V202.75H375.09ZM380.22 202.75V214.72H382.35V202.75H380.22ZM362.76 190.78C364.62 191.65 366.84 193.03 367.92 194.08L369.24 192.22C368.1 191.2 365.85 189.91 364.02 189.16L362.76 190.78ZM361.14 198.7C363.03 199.57 365.31 200.95 366.42 201.97L367.71 200.14C366.57 199.15 364.26 197.83 362.4 197.08L361.14 198.7ZM361.95 214.48L363.93 215.8C365.31 213.01 366.96 209.26 368.16 206.11L366.42 204.82C365.07 208.24 363.24 212.17 361.95 214.48ZM399.21 201.43V203.56H418.5V201.43H399.21ZM400.74 193.72V195.88H417.09V193.72H400.74ZM407.61 188.83V202.96H409.92V188.83H407.61ZM399.24 212.74L399.57 215.02C403.83 214.75 410.1 214.33 416.07 213.88V211.84C409.86 212.2 403.32 212.56 399.24 212.74ZM411.33 207.61C413.58 210.34 415.98 214.09 416.91 216.46L419.01 215.29C418.02 212.86 415.53 209.29 413.25 206.62L411.33 207.61ZM405.6 202.84C404.67 206.05 402.9 210.55 401.43 213.34L403.41 214.03C404.91 211.3 406.71 207.01 408.03 203.53L405.6 202.84ZM392.73 190.69C394.83 191.5 397.35 192.91 398.61 193.99L399.9 192.1C398.61 191.05 396.03 189.76 393.99 189.01L392.73 190.69ZM391.14 198.97C393.24 199.69 395.82 200.95 397.11 201.91L398.34 200.02C396.99 199.06 394.35 197.89 392.31 197.23L391.14 198.97ZM392.19 214.57L394.14 216.04C395.82 213.25 397.8 209.5 399.3 206.32L397.62 204.91C395.97 208.3 393.72 212.26 392.19 214.57ZM421.23 190.6V192.64H431.58V190.6H421.23ZM424.29 199.63V201.64H428.64V210.46H424.29V212.44H430.59V199.63H424.29ZM424.86 191.62C424.23 197.17 423.06 202.51 420.84 205.93C421.26 206.41 421.92 207.4 422.16 207.88C424.71 203.98 426.09 198.13 426.96 191.92L424.86 191.62ZM423.45 199.63V214.93H425.34V199.63H423.45ZM436.8 203.08C436.56 205.21 435.9 207.37 434.85 208.6L436.35 209.5C437.58 208.03 438.18 205.6 438.42 203.35L436.8 203.08ZM446.16 202.69C445.53 204.4 444.36 206.83 443.37 208.36L444.9 208.99C445.92 207.52 447.09 205.3 448.11 203.41L446.16 202.69ZM433.11 189.76V195.88H447.51V189.76H445.5V193.99H435.06V189.76H433.11ZM431.34 198.28V200.26H448.77V198.28H431.34ZM439.17 188.83V195.16H441.18V188.83H439.17ZM440.43 200.8C440.22 208.33 439.56 212.62 433.62 214.87C434.04 215.23 434.58 215.95 434.82 216.43C441.21 213.85 442.08 209.02 442.35 200.8H440.43ZM442.29 201.64L440.61 201.76C440.97 207.73 441.63 213.7 447.9 216.43C448.17 215.89 448.77 215.17 449.22 214.75C443.22 212.38 442.53 207.25 442.29 201.64ZM433.08 196.69V201.7C433.08 205.9 432.75 210.88 429.81 214.96C430.32 215.23 431.1 215.8 431.52 216.19C434.67 211.78 435.03 206.38 435.03 201.7V196.69H433.08ZM14.58 236.55V258.78C14.58 262.08 15.54 262.98 18.69 262.98C19.38 262.98 24.09 262.98 24.87 262.98C27.99 262.98 28.65 261.27 29.01 256.35C28.35 256.2 27.42 255.78 26.85 255.36C26.64 259.74 26.4 260.85 24.75 260.85C23.73 260.85 19.65 260.85 18.84 260.85C17.16 260.85 16.86 260.49 16.86 258.81V236.55H14.58ZM25.83 241.53C23.28 243.87 18.99 246.66 15.15 248.67C15.48 249.15 15.93 249.93 16.08 250.44C20.04 248.37 24.45 245.94 27.48 243.45L25.83 241.53ZM9.36 236.28C7.38 241.02 4.08 245.58 0.6 248.49C1.05 249.03 1.74 250.2 1.98 250.74C5.7 247.41 9.3 242.28 11.55 237L9.36 236.28ZM5.94 244.11V263.37H8.16V241.95L8.13 241.92L5.94 244.11ZM42.99 237.12V239.22H58.8V237.12H42.99ZM51.09 243.6V245.61H57.78V243.6H51.09ZM49.89 238.17V251.1H52.11V238.17H49.89ZM56.28 250.17V250.5C55.89 257.34 55.47 260.13 54.75 260.79C54.42 261.06 54.09 261.12 53.52 261.12C52.83 261.12 51.06 261.09 49.26 260.94C49.74 261.54 50.04 262.44 50.1 263.1C51.72 263.19 53.37 263.22 54.24 263.16C55.32 263.1 56.01 262.89 56.61 262.2C57.57 261.21 57.99 258.42 58.44 251.16C58.47 250.86 58.47 250.17 58.47 250.17H56.28ZM44.01 242.52V252.24H57.18V250.14H46.11V242.52H44.01ZM35.52 235.89C34.59 238.71 33 241.38 31.2 243.15C31.56 243.66 32.16 244.8 32.34 245.28C34.47 243.09 36.39 239.79 37.56 236.49L35.52 235.89ZM34.98 239.25L34.53 241.38H42.33V239.25H34.98ZM33.48 244.59V246.63H41.91V244.59H33.48ZM31.92 250.71V252.75H42.57V250.71H31.92ZM35.91 263.19C36.42 262.68 37.26 262.2 42.9 259.29C42.75 258.84 42.6 257.94 42.54 257.37L36.45 260.31L35.64 261.21L35.91 263.19ZM35.91 263.19C35.91 262.41 38.28 261.18 38.28 261.18V245.31H36.12V259.32C36.12 260.52 35.46 261.03 34.98 261.27C35.31 261.72 35.76 262.68 35.91 263.19ZM74.58 236.55V258.78C74.58 262.08 75.54 262.98 78.69 262.98C79.38 262.98 84.09 262.98 84.87 262.98C87.99 262.98 88.65 261.27 89.01 256.35C88.35 256.2 87.42 255.78 86.85 255.36C86.64 259.74 86.4 260.85 84.75 260.85C83.73 260.85 79.65 260.85 78.84 260.85C77.16 260.85 76.86 260.49 76.86 258.81V236.55H74.58ZM85.83 241.53C83.28 243.87 78.99 246.66 75.15 248.67C75.48 249.15 75.93 249.93 76.08 250.44C80.04 248.37 84.45 245.94 87.48 243.45L85.83 241.53ZM69.36 236.28C67.38 241.02 64.08 245.58 60.6 248.49C61.05 249.03 61.74 250.2 61.98 250.74C65.7 247.41 69.3 242.28 71.55 237L69.36 236.28ZM65.94 244.11V263.37H68.16V241.95L68.13 241.92L65.94 244.11ZM102.39 250.98V252.9H117.57V250.98H102.39ZM100.89 256.92V258.87H118.44V256.92H100.89ZM110.55 248.58V263.4H112.74V248.58H110.55ZM104.52 251.76V257.67H106.53V251.76H104.52ZM92.4 237.12V263.43H94.44V239.16H99.48V237.12H92.4ZM98.79 237.12V237.72C98.16 239.79 97.05 243.36 95.97 246.09C98.13 248.43 98.67 250.47 98.67 252.09C98.67 252.99 98.52 253.8 98.04 254.13C97.8 254.31 97.47 254.4 97.11 254.4C96.63 254.46 96.06 254.43 95.37 254.37C95.7 254.94 95.88 255.81 95.91 256.35C96.6 256.38 97.35 256.38 97.95 256.32C98.55 256.23 99.09 256.05 99.51 255.78C100.35 255.18 100.68 253.92 100.68 252.3C100.68 250.44 100.2 248.34 97.98 245.85C99 243.45 100.11 240.36 100.98 237.9L99.54 237.03L99.18 237.12H98.79ZM106.47 238.41V240.24H114.9V238.41H106.47ZM114.39 238.41V238.77C112.29 244.05 106.59 247.5 100.86 248.82C101.25 249.27 101.76 250.08 102.03 250.65C108.15 248.97 114.06 245.31 116.58 239.01L115.2 238.32L114.81 238.41H114.39ZM106.65 240L104.85 240.6C107.25 245.4 111.87 248.82 117.81 250.17C118.11 249.6 118.71 248.79 119.16 248.34C113.4 247.26 108.78 244.14 106.65 240ZM107.61 235.8C106.47 238.2 104.22 241.11 100.86 243.21C101.37 243.48 102.06 244.17 102.36 244.62C105.9 242.22 108.27 239.13 109.77 236.16L107.61 235.8ZM146.22 245.85C144.72 253.02 141.84 258.57 136.95 261.93C137.37 262.29 138.03 263.07 138.3 263.46C143.37 259.74 146.46 253.92 148.14 246.18L146.22 245.85ZM132.81 240.69V242.64H148.77V240.69H132.81ZM134.49 244.95V246.75H140.94V244.95H134.49ZM131.82 240.69V248.55C131.82 252.63 131.58 258.18 129.09 262.17C129.48 262.38 130.29 263.04 130.59 263.4C133.26 259.17 133.71 252.93 133.71 248.55V240.69H131.82ZM141.36 235.86C141.63 253.89 142.86 263.4 146.43 263.4C148.17 263.4 148.89 262.59 149.22 258.06C148.71 257.91 148.02 257.43 147.54 257.01C147.39 260.4 147.12 261.45 146.61 261.45C144.96 261.45 143.28 253.68 143.34 235.86H141.36ZM134.88 249.15V259.2H136.44V249.15H134.88ZM135.66 249.15V250.83H139.08V255.57H135.66V257.28H140.67V249.15H135.66ZM143.79 237.06C144.96 237.93 146.37 239.34 147.09 240.27L148.53 239.13C147.87 238.23 146.43 236.94 145.2 236.07L143.79 237.06ZM121.44 237.42V239.46H130.59V237.42H121.44ZM123.96 246.63V248.64H128.16V257.61H123.96V259.62H129.96V246.63H123.96ZM124.86 238.47C124.2 243.39 122.97 248.07 120.87 251.13C121.23 251.67 121.74 252.81 121.89 253.32C124.41 249.75 125.91 244.41 126.84 238.83L124.86 238.47ZM123.18 246.63V262.02H124.92V246.63H123.18ZM151.56 240.99V243.15H178.41V240.99H151.56ZM161.37 248.1V250.26H173.37V248.1H161.37ZM172.56 248.1L172.53 248.49C172.02 256.71 171.42 260.07 170.46 260.94C170.13 261.24 169.71 261.27 169.05 261.27C168.27 261.27 166.14 261.27 163.98 261.06C164.4 261.69 164.73 262.62 164.76 263.28C166.8 263.37 168.78 263.43 169.83 263.37C170.97 263.28 171.72 263.07 172.41 262.35C173.58 261.15 174.18 257.82 174.78 249.18C174.84 248.85 174.87 248.1 174.87 248.1H172.56ZM160.86 242.19C160.53 249.36 160.02 257.73 151.26 261.69C151.83 262.14 152.55 262.95 152.88 263.52C162.03 259.14 162.9 250.14 163.35 242.19H160.86ZM163.71 235.74V241.92H166.02V235.74H163.71ZM189.21 248.43V250.56H208.5V248.43H189.21ZM190.74 240.72V242.88H207.09V240.72H190.74ZM197.61 235.83V249.96H199.92V235.83H197.61ZM189.24 259.74L189.57 262.02C193.83 261.75 200.1 261.33 206.07 260.88V258.84C199.86 259.2 193.32 259.56 189.24 259.74ZM201.33 254.61C203.58 257.34 205.98 261.09 206.91 263.46L209.01 262.29C208.02 259.86 205.53 256.29 203.25 253.62L201.33 254.61ZM195.6 249.84C194.67 253.05 192.9 257.55 191.43 260.34L193.41 261.03C194.91 258.3 196.71 254.01 198.03 250.53L195.6 249.84ZM182.73 237.69C184.83 238.5 187.35 239.91 188.61 240.99L189.9 239.1C188.61 238.05 186.03 236.76 183.99 236.01L182.73 237.69ZM181.14 245.97C183.24 246.69 185.82 247.95 187.11 248.91L188.34 247.02C186.99 246.06 184.35 244.89 182.31 244.23L181.14 245.97ZM182.19 261.57L184.14 263.04C185.82 260.25 187.8 256.5 189.3 253.32L187.62 251.91C185.97 255.3 183.72 259.26 182.19 261.57ZM230.85 249.6C230.85 255.48 233.22 260.22 236.82 263.88L238.62 262.95C235.14 259.38 233.01 254.97 233.01 249.6C233.01 244.26 235.14 239.85 238.62 236.28L236.82 235.35C233.22 239.01 230.85 243.75 230.85 249.6ZM246.605 261L240.639 239.182H243.324L247.884 256.952H248.097L252.741 239.182H255.724L260.369 256.952H260.582L265.142 239.182H267.827L261.861 261H259.134L254.318 243.614H254.148L249.332 261H246.605ZM287.65 246H285.008C284.852 245.24 284.578 244.572 284.188 243.997C283.804 243.422 283.335 242.939 282.781 242.548C282.235 242.151 281.627 241.852 280.96 241.653C280.292 241.455 279.596 241.355 278.872 241.355C277.551 241.355 276.354 241.689 275.281 242.357C274.216 243.024 273.367 244.008 272.735 245.308C272.11 246.607 271.798 248.202 271.798 250.091C271.798 251.98 272.11 253.575 272.735 254.874C273.367 256.174 274.216 257.158 275.281 257.825C276.354 258.493 277.551 258.827 278.872 258.827C279.596 258.827 280.292 258.727 280.96 258.528C281.627 258.33 282.235 258.035 282.781 257.644C283.335 257.246 283.804 256.76 284.188 256.185C284.578 255.602 284.852 254.935 285.008 254.182H287.65C287.451 255.297 287.089 256.295 286.563 257.175C286.038 258.056 285.384 258.805 284.603 259.423C283.822 260.034 282.945 260.499 281.972 260.819C281.006 261.138 279.972 261.298 278.872 261.298C277.011 261.298 275.356 260.844 273.907 259.935C272.458 259.026 271.318 257.733 270.487 256.057C269.656 254.381 269.241 252.392 269.241 250.091C269.241 247.79 269.656 245.801 270.487 244.125C271.318 242.449 272.458 241.156 273.907 240.247C275.356 239.338 277.011 238.884 278.872 238.884C279.972 238.884 281.006 239.043 281.972 239.363C282.945 239.683 283.822 240.151 284.603 240.769C285.384 241.38 286.038 242.126 286.563 243.006C287.089 243.88 287.451 244.878 287.65 246ZM309.476 246H306.834C306.678 245.24 306.404 244.572 306.014 243.997C305.63 243.422 305.162 242.939 304.608 242.548C304.061 242.151 303.453 241.852 302.786 241.653C302.118 241.455 301.422 241.355 300.698 241.355C299.377 241.355 298.18 241.689 297.108 242.357C296.042 243.024 295.194 244.008 294.561 245.308C293.936 246.607 293.624 248.202 293.624 250.091C293.624 251.98 293.936 253.575 294.561 254.874C295.194 256.174 296.042 257.158 297.108 257.825C298.18 258.493 299.377 258.827 300.698 258.827C301.422 258.827 302.118 258.727 302.786 258.528C303.453 258.33 304.061 258.035 304.608 257.644C305.162 257.246 305.63 256.76 306.014 256.185C306.404 255.602 306.678 254.935 306.834 254.182H309.476C309.277 255.297 308.915 256.295 308.39 257.175C307.864 258.056 307.211 258.805 306.429 259.423C305.648 260.034 304.771 260.499 303.798 260.819C302.832 261.138 301.799 261.298 300.698 261.298C298.837 261.298 297.182 260.844 295.733 259.935C294.284 259.026 293.145 257.733 292.314 256.057C291.483 254.381 291.067 252.392 291.067 250.091C291.067 247.79 291.483 245.801 292.314 244.125C293.145 242.449 294.284 241.156 295.733 240.247C297.182 239.338 298.837 238.884 300.698 238.884C301.799 238.884 302.832 239.043 303.798 239.363C304.771 239.683 305.648 240.151 306.429 240.769C307.211 241.38 307.864 242.126 308.39 243.006C308.915 243.88 309.277 244.878 309.476 246ZM328.751 248.43V250.56H348.041V248.43H328.751ZM330.281 240.72V242.88H346.631V240.72H330.281ZM337.151 235.83V249.96H339.461V235.83H337.151ZM328.781 259.74L329.111 262.02C333.371 261.75 339.641 261.33 345.611 260.88V258.84C339.401 259.2 332.861 259.56 328.781 259.74ZM340.871 254.61C343.121 257.34 345.521 261.09 346.451 263.46L348.551 262.29C347.561 259.86 345.071 256.29 342.791 253.62L340.871 254.61ZM335.141 249.84C334.211 253.05 332.441 257.55 330.971 260.34L332.951 261.03C334.451 258.3 336.251 254.01 337.571 250.53L335.141 249.84ZM322.271 237.69C324.371 238.5 326.891 239.91 328.151 240.99L329.441 239.1C328.151 238.05 325.571 236.76 323.531 236.01L322.271 237.69ZM320.681 245.97C322.781 246.69 325.361 247.95 326.651 248.91L327.881 247.02C326.531 246.06 323.891 244.89 321.851 244.23L320.681 245.97ZM321.731 261.57L323.681 263.04C325.361 260.25 327.341 256.5 328.841 253.32L327.161 251.91C325.511 255.3 323.261 259.26 321.731 261.57ZM358.661 249.6C358.661 243.75 356.291 239.01 352.691 235.35L350.891 236.28C354.371 239.85 356.501 244.26 356.501 249.6C356.501 254.97 354.371 259.38 350.891 262.95L352.691 263.88C356.291 260.22 358.661 255.48 358.661 249.6ZM385.361 253.71C382.841 253.71 380.771 255.75 380.771 258.27C380.771 260.79 382.841 262.83 385.361 262.83C387.881 262.83 389.921 260.79 389.921 258.27C389.921 255.75 387.881 253.71 385.361 253.71ZM385.361 261.3C383.681 261.3 382.301 259.95 382.301 258.27C382.301 256.59 383.681 255.24 385.361 255.24C387.041 255.24 388.391 256.59 388.391 258.27C388.391 259.95 387.041 261.3 385.361 261.3ZM420.461 240.54C422.381 242.76 424.331 245.85 425.111 247.92L427.271 246.75C426.401 244.71 424.481 241.74 422.471 239.55L420.461 240.54ZM410.591 257.82L411.401 260.16C414.731 258.72 419.291 256.71 423.461 254.79L422.951 252.6C418.451 254.58 413.651 256.62 410.591 257.82ZM428.591 253.86C431.471 256.8 435.071 260.85 436.751 263.34L438.671 261.57C436.901 259.11 433.181 255.21 430.331 252.39L428.591 253.86ZM432.761 237.36C431.411 250.41 428.231 257.76 417.851 261.54C418.421 262.02 419.321 263.01 419.651 263.49C430.151 259.11 433.661 251.46 435.191 237.6L432.761 237.36ZM414.251 237.45L414.761 257.28L417.071 257.19L416.561 237.36L414.251 237.45ZM4.56 285.83V287.99H28.5V285.83H4.56ZM3.39 285.83V294.29C3.39 298.64 3.21 304.85 1.08 309.2C1.62 309.44 2.64 310.1 3.06 310.49C5.31 305.84 5.67 298.94 5.67 294.29V285.83H3.39ZM13.95 283.22C14.7 284.48 15.6 286.16 16.05 287.15L18.45 286.52C17.97 285.56 16.98 283.94 16.2 282.74L13.95 283.22ZM13.29 298.91V300.89H23.58V298.91H13.29ZM23.07 298.91V299.3C21 304.22 15.33 307.43 9.72 308.72C10.14 309.17 10.71 310.01 10.95 310.58C17.01 308.93 22.89 305.57 25.47 299.6L23.94 298.79L23.52 298.91H23.07ZM15.81 288.68C14.4 297.29 11.4 303.38 5.19 306.95C5.64 307.34 6.39 308.27 6.69 308.72C13.08 304.73 16.35 298.31 18.03 289.01L15.81 288.68ZM13.8 300.17L11.88 300.89C14.88 305.72 20.4 309.02 26.85 310.43C27.18 309.86 27.78 308.99 28.26 308.51C21.93 307.34 16.44 304.37 13.8 300.17ZM20.73 290.24C21.9 291.41 23.4 293.06 24.15 294.02L25.83 292.85C25.05 291.89 23.52 290.33 22.35 289.19L20.73 290.24ZM8.19 296.42C8.19 295.88 9.96 295.16 9.96 295.16V295.13C10.77 293.78 11.79 291.59 12.33 289.46L9.96 289.13C9.63 290.99 8.64 292.94 8.37 293.39C8.1 293.93 7.8 294.26 7.44 294.35C7.68 294.89 8.04 295.94 8.19 296.42ZM8.19 296.42C8.49 296.15 9.57 296.03 11.31 296.03H27.75V293.99H9.57L8.19 294.65V296.42ZM42.66 307.04V309.11H55.14V307.04H42.66ZM41.58 298.34V310.46H43.77V300.44H53.97V310.34H56.25V298.34H41.58ZM39.03 293.39L39.3 295.64C43.68 295.4 50.19 295.04 56.37 294.65L56.4 292.58C50.04 292.91 43.29 293.24 39.03 293.39ZM50.73 288.38C53.1 291.05 55.74 294.77 56.91 297.17L58.98 296C57.78 293.63 55.14 290.03 52.68 287.39L50.73 288.38ZM46.05 282.77C45.06 286.22 43.14 291.02 41.55 294.02L43.56 294.65C45.18 291.74 47.16 287.12 48.6 283.4L46.05 282.77ZM32.79 284.69C34.83 285.56 37.26 286.97 38.46 288.05L39.78 286.16C38.55 285.11 36.03 283.76 34.02 283.01L32.79 284.69ZM31.14 292.88C33.21 293.63 35.73 294.92 36.99 295.91L38.25 293.96C36.96 293 34.38 291.8 32.37 291.14L31.14 292.88ZM32.13 308.48L34.05 310.01C35.82 307.22 37.89 303.47 39.45 300.29L37.8 298.82C36.06 302.24 33.72 306.2 32.13 308.48ZM64.56 285.83V287.99H88.5V285.83H64.56ZM63.39 285.83V294.29C63.39 298.64 63.21 304.85 61.08 309.2C61.62 309.44 62.64 310.1 63.06 310.49C65.31 305.84 65.67 298.94 65.67 294.29V285.83H63.39ZM73.95 283.22C74.7 284.48 75.6 286.16 76.05 287.15L78.45 286.52C77.97 285.56 76.98 283.94 76.2 282.74L73.95 283.22ZM73.29 298.91V300.89H83.58V298.91H73.29ZM83.07 298.91V299.3C81 304.22 75.33 307.43 69.72 308.72C70.14 309.17 70.71 310.01 70.95 310.58C77.01 308.93 82.89 305.57 85.47 299.6L83.94 298.79L83.52 298.91H83.07ZM75.81 288.68C74.4 297.29 71.4 303.38 65.19 306.95C65.64 307.34 66.39 308.27 66.69 308.72C73.08 304.73 76.35 298.31 78.03 289.01L75.81 288.68ZM73.8 300.17L71.88 300.89C74.88 305.72 80.4 309.02 86.85 310.43C87.18 309.86 87.78 308.99 88.26 308.51C81.93 307.34 76.44 304.37 73.8 300.17ZM80.73 290.24C81.9 291.41 83.4 293.06 84.15 294.02L85.83 292.85C85.05 291.89 83.52 290.33 82.35 289.19L80.73 290.24ZM68.19 296.42C68.19 295.88 69.96 295.16 69.96 295.16V295.13C70.77 293.78 71.79 291.59 72.33 289.46L69.96 289.13C69.63 290.99 68.64 292.94 68.37 293.39C68.1 293.93 67.8 294.26 67.44 294.35C67.68 294.89 68.04 295.94 68.19 296.42ZM68.19 296.42C68.49 296.15 69.57 296.03 71.31 296.03H87.75V293.99H69.57L68.19 294.65V296.42ZM98.19 309.68L100.23 307.94C98.34 305.75 95.64 303.05 93.48 301.31L91.53 303.02C93.66 304.76 96.24 307.31 98.19 309.68ZM130.38 287V296.99H132.66V287H130.38ZM122.1 285.86V287.9H147.9V285.86H122.1ZM126.66 289.16C125.79 291.29 124.29 293.45 122.61 294.89C123.12 295.16 123.99 295.76 124.38 296.09C126 294.53 127.68 292.1 128.7 289.67L126.66 289.16ZM140.73 290.3C142.56 291.98 144.75 294.5 145.8 296.15L147.6 294.98C146.55 293.42 144.33 290.99 142.38 289.31L140.73 290.3ZM132.93 283.07C133.62 284.18 134.43 285.65 134.79 286.58L137.04 285.95C136.65 285.02 135.84 283.58 135.09 282.53L132.93 283.07ZM137.28 286.82V296.96H139.53V286.82H137.28ZM128.04 298.73L126.18 299.54C130.23 305.78 137.85 309.26 147.36 310.46C147.66 309.89 148.2 308.99 148.65 308.51C139.23 307.49 131.61 304.25 128.04 298.73ZM123.96 297.86V299.84H142.83V297.86H123.96ZM142.35 297.86V298.22C138.99 304.28 130.53 307.31 121.53 308.48C121.92 308.96 122.46 309.92 122.67 310.49C131.82 309.02 140.67 305.72 144.66 298.73L143.25 297.74L142.83 297.86H142.35ZM154.56 285.83V287.99H178.5V285.83H154.56ZM153.39 285.83V294.29C153.39 298.64 153.21 304.85 151.08 309.2C151.62 309.44 152.64 310.1 153.06 310.49C155.31 305.84 155.67 298.94 155.67 294.29V285.83H153.39ZM163.95 283.22C164.7 284.48 165.6 286.16 166.05 287.15L168.45 286.52C167.97 285.56 166.98 283.94 166.2 282.74L163.95 283.22ZM163.29 298.91V300.89H173.58V298.91H163.29ZM173.07 298.91V299.3C171 304.22 165.33 307.43 159.72 308.72C160.14 309.17 160.71 310.01 160.95 310.58C167.01 308.93 172.89 305.57 175.47 299.6L173.94 298.79L173.52 298.91H173.07ZM165.81 288.68C164.4 297.29 161.4 303.38 155.19 306.95C155.64 307.34 156.39 308.27 156.69 308.72C163.08 304.73 166.35 298.31 168.03 289.01L165.81 288.68ZM163.8 300.17L161.88 300.89C164.88 305.72 170.4 309.02 176.85 310.43C177.18 309.86 177.78 308.99 178.26 308.51C171.93 307.34 166.44 304.37 163.8 300.17ZM170.73 290.24C171.9 291.41 173.4 293.06 174.15 294.02L175.83 292.85C175.05 291.89 173.52 290.33 172.35 289.19L170.73 290.24ZM158.19 296.42C158.19 295.88 159.96 295.16 159.96 295.16V295.13C160.77 293.78 161.79 291.59 162.33 289.46L159.96 289.13C159.63 290.99 158.64 292.94 158.37 293.39C158.1 293.93 157.8 294.26 157.44 294.35C157.68 294.89 158.04 295.94 158.19 296.42ZM158.19 296.42C158.49 296.15 159.57 296.03 161.31 296.03H177.75V293.99H159.57L158.19 294.65V296.42ZM182.43 290.03V292.28H205.59V290.03H182.43ZM204.66 290.03V290.51C204.27 302.03 203.79 306.47 202.83 307.43C202.47 307.79 202.14 307.88 201.51 307.88C200.76 307.88 198.87 307.88 196.86 307.67C197.28 308.36 197.58 309.35 197.64 310.01C199.47 310.13 201.39 310.16 202.44 310.07C203.52 309.98 204.24 309.71 204.9 308.87C206.1 307.49 206.52 303.23 206.97 291.2C207 290.87 207 290.03 207 290.03H204.66ZM192.3 282.86V286.43C192.3 292.64 191.67 301.82 181.62 308.33C182.19 308.72 183.03 309.47 183.39 310.01C193.86 303.05 194.58 293.15 194.58 286.43V282.86H192.3ZM184.83 284.48C186.03 285.89 187.41 287.84 187.98 289.04L190.02 288.08C189.39 286.85 187.98 284.96 186.78 283.64L184.83 284.48ZM194.94 296.9C196.47 298.7 198.27 301.22 199.02 302.81L201 301.76C200.22 300.17 198.39 297.74 196.8 295.97L194.94 296.9ZM224.28 289.28V291.44H238.74V289.28H224.28ZM233.28 282.86V307.37C233.28 307.91 233.1 308.06 232.53 308.09C231.99 308.09 230.04 308.12 228.09 308.06C228.39 308.72 228.75 309.74 228.9 310.37C231.45 310.37 233.22 310.34 234.24 309.95C235.23 309.59 235.62 308.9 235.62 307.34V282.86H233.28ZM233.04 290.27C230.94 295.34 226.62 301.01 222.54 303.8C223.11 304.25 223.8 305.03 224.16 305.63C228.3 302.48 232.62 296.63 234.84 291.35L233.04 290.27ZM211.8 289.25V291.41H223.17V289.25H211.8ZM216.81 282.8V310.37H219.06V282.8H216.81ZM216.69 290.57C215.64 294.98 213.18 300.08 210.75 302.78C211.17 303.32 211.77 304.25 212.01 304.91C214.59 301.88 217.05 296.03 218.28 291.14L216.69 290.57ZM218.85 292.04L217.68 293.18C218.76 294.44 221.55 298.19 222.51 299.78L223.95 297.83C223.2 296.87 219.81 292.91 218.85 292.04ZM244.71 311.21C247.86 310.13 249.9 307.67 249.9 304.43C249.9 302.33 249 300.95 247.32 300.95C246.12 300.95 245.04 301.7 245.04 303.11C245.04 304.55 246.06 305.27 247.29 305.27C247.86 305.27 248.46 305.12 248.88 304.58L247.26 302.3L247.83 304.85C247.83 307.1 246.48 308.63 244.02 309.65L244.71 311.21ZM281.31 287.54V289.64H297.84V287.54H281.31ZM281.94 294.14V296.21H295.17V294.14H281.94ZM288.39 282.8V295.31H290.61V282.8H288.39ZM284.85 295.67L282.81 296.27C285.42 303.32 290.28 308.3 297.48 310.43C297.81 309.86 298.44 308.96 298.95 308.51C291.93 306.65 287.1 301.97 284.85 295.67ZM294.99 294.14V294.53C292.8 301.94 286.47 306.59 279.6 308.36C280.02 308.84 280.59 309.8 280.8 310.4C288.15 308.18 294.69 303.29 297.24 294.68L295.83 294.05L295.41 294.14H294.99ZM271.08 298.7L271.74 300.86C274.41 300.08 277.89 299.06 281.16 298.07L280.89 296.03C277.32 297.05 273.6 298.07 271.08 298.7ZM271.47 288.86V290.99H280.89V288.86H271.47ZM275.34 282.83V307.7C275.34 308.12 275.16 308.27 274.77 308.27C274.38 308.3 273.06 308.3 271.65 308.27C271.95 308.87 272.28 309.77 272.34 310.34C274.41 310.34 275.67 310.28 276.45 309.92C277.26 309.59 277.56 308.96 277.56 307.7V282.83H275.34ZM316.74 291.83L314.85 292.58C317.79 297.89 322.77 303.65 327.03 306.71C327.45 306.08 328.26 305.21 328.83 304.76C324.54 302.06 319.44 296.66 316.74 291.83ZM313.59 291.86C311.01 297.17 306 302.48 301.05 305.03C301.59 305.48 302.34 306.35 302.76 306.95C307.77 304.07 312.75 298.55 315.6 292.61L313.59 291.86ZM301.98 290.42V292.64H327.81V290.42H301.98ZM313.8 282.86V310.43H316.26V282.86H313.8ZM318.18 284.72C320.04 286.07 322.41 287.99 323.58 289.22L325.26 287.63C324.06 286.43 321.66 284.6 319.83 283.34L318.18 284.72ZM341.91 290.06V292.01H358.8V290.06H341.91ZM347.94 298.01V299.96H351.75V298.01H347.94ZM343.2 285.08V287H350.79V285.08H343.2ZM351.69 282.86C351.9 296.96 352.8 310.43 356.55 310.43C358.32 310.43 358.89 308.99 359.16 304.46C358.65 304.22 358.02 303.8 357.6 303.35C357.54 306.74 357.3 308.42 356.88 308.42C355.08 308.42 353.61 296.84 353.7 282.86H351.69ZM354.33 284.27C355.41 285.53 356.55 287.24 357.03 288.38L358.65 287.6C358.17 286.43 357 284.78 355.89 283.58L354.33 284.27ZM347.13 293.18V307.31H348.96V293.18H347.13ZM343.11 295.01V307.67H344.85V295.01H343.11ZM341.4 307.49L341.88 309.5C344.82 308.9 348.81 308.09 352.65 307.28L352.5 305.45C348.36 306.23 344.16 307.01 341.4 307.49ZM335.82 288.68V296.84C335.82 300.44 335.49 305.78 331.14 308.72C331.59 309.08 332.16 309.68 332.4 310.1C337.17 306.68 337.65 301.04 337.65 296.84V288.68H335.82ZM336.96 303.86C337.98 305.39 339.15 307.46 339.66 308.75L341.28 307.73C340.77 306.5 339.54 304.49 338.52 302.99L336.96 303.86ZM332.4 284.54V302.39H334.05V286.58H339.33V302.33H341.01V284.54H332.4ZM366.21 282.8C365.49 284.99 364.08 288.14 362.94 290.06L364.86 290.63C366.06 288.74 367.47 285.83 368.55 283.34L366.21 282.8ZM361.17 289.16L361.38 291.35C364.65 291.17 369.3 290.93 373.77 290.66L373.8 288.65C369.09 288.86 364.32 289.07 361.17 289.16ZM363 293.51V310.37H365.1V295.43H372.51V293.51H363ZM371.49 293.51V307.79C371.49 308.18 371.37 308.27 370.98 308.27C370.56 308.3 369.27 308.33 367.86 308.27C368.16 308.84 368.49 309.74 368.61 310.34C370.5 310.34 371.82 310.31 372.66 309.95C373.47 309.59 373.71 308.96 373.71 307.82V293.51H371.49ZM363.99 297.98V299.75H372.66V297.98H363.99ZM363.99 302.48V304.28H372.66V302.48H363.99ZM376.53 282.86V292.82C376.53 295.31 377.28 296 380.16 296C380.76 296 384.69 296 385.32 296C387.75 296 388.41 295.01 388.68 291.35C388.02 291.2 387.12 290.87 386.64 290.48C386.52 293.45 386.31 293.96 385.14 293.96C384.27 293.96 381 293.96 380.37 293.96C378.99 293.96 378.75 293.75 378.75 292.79V282.86H376.53ZM385.71 285.08C383.67 286.13 380.25 287.45 377.28 288.38C377.55 288.83 377.85 289.49 377.97 289.97C381.06 289.1 384.66 287.93 387.21 286.73L385.71 285.08ZM376.53 296.81V306.98C376.53 309.47 377.31 310.16 380.22 310.16C380.85 310.16 384.9 310.16 385.56 310.16C388.08 310.16 388.74 309.08 389.04 305.03C388.41 304.91 387.51 304.55 387 304.19C386.85 307.58 386.67 308.15 385.38 308.15C384.48 308.15 381.09 308.15 380.46 308.15C379.02 308.15 378.75 307.97 378.75 306.95V296.81H376.53ZM386.07 298.46C384.03 299.78 380.4 301.16 377.28 302.06C377.52 302.51 377.85 303.23 377.97 303.68C381.21 302.81 385.05 301.58 387.57 300.14L386.07 298.46ZM369.96 285.65C371.55 287.78 373.17 290.66 373.8 292.49L375.78 291.62C375.09 289.76 373.41 287 371.82 284.9L369.96 285.65ZM394.14 290.42V292.19H402.81V290.42H394.14ZM394.14 295.52V297.23H402.81V295.52H394.14ZM394.14 300.74V302.51H402.81V300.74H394.14ZM406.92 297.02V298.97H418.35V297.02H406.92ZM395.7 285.5V287.27H400.68V285.5H395.7ZM405 284.33V286.25H416.73V284.33H405ZM404.64 302.63V304.64H418.86V302.63H404.64ZM410.97 293.93V310.28H413.13V293.93H410.97ZM397.86 291.29V301.49H399.48V291.29H397.86ZM416.01 284.33V284.63C415.8 289.34 415.56 291.08 415.17 291.53C414.99 291.77 414.72 291.83 414.3 291.8C413.88 291.8 412.8 291.8 411.6 291.68C411.87 292.19 412.08 292.97 412.11 293.57C413.37 293.63 414.63 293.63 415.23 293.57C416.01 293.51 416.46 293.33 416.88 292.82C417.51 292.13 417.81 290.18 418.02 285.17C418.05 284.9 418.05 284.33 418.05 284.33H416.01ZM407.04 294.2C406.53 296.75 405.6 299.27 404.31 300.95C404.79 301.19 405.69 301.64 406.08 301.91C407.34 300.11 408.39 297.38 408.99 294.59L407.04 294.2ZM395.64 282.8C394.74 286.49 393.06 290.06 390.93 292.37C391.41 292.67 392.28 293.36 392.64 293.72C394.77 291.17 396.6 287.3 397.71 283.25L395.64 282.8ZM393.27 290.42V298.4C393.27 301.79 393.06 306.26 391.02 309.44C391.47 309.65 392.31 310.16 392.64 310.46C394.77 307.13 395.13 302.06 395.13 298.4V290.42H393.27ZM402.21 290.42V307.94C402.21 308.33 402.03 308.45 401.64 308.48C401.22 308.51 399.87 308.51 398.34 308.45C398.61 308.99 398.94 309.86 399.03 310.37C401.1 310.37 402.33 310.34 403.08 310.01C403.86 309.68 404.1 309.05 404.1 307.94V290.42H402.21ZM409.26 284.96C408.84 288.35 407.76 291.32 404.07 292.88C404.52 293.21 405.06 293.93 405.33 294.41C409.53 292.52 410.82 289.1 411.33 284.96H409.26ZM400.14 285.5V285.86C399.69 287.36 398.85 289.52 398.1 290.87C398.52 291.05 399.18 291.44 399.54 291.74C400.44 290.33 401.58 288.11 402.21 286.25L400.89 285.38L400.59 285.5H400.14ZM442.02 298.01C443.91 300.41 446.01 303.71 446.88 305.75L449.04 304.7C448.08 302.63 445.92 299.45 444 297.11L442.02 298.01ZM433.77 282.86V293.57H436.08V282.86H433.77ZM421.71 292.85V295.01H448.35V292.85H421.71ZM424.68 286.43V288.59H445.98V286.43H424.68ZM437.55 294.02V307.61C437.55 308 437.43 308.12 436.95 308.12C436.5 308.15 434.94 308.18 433.23 308.12C433.56 308.78 433.92 309.74 434.04 310.37C436.29 310.37 437.76 310.34 438.69 309.98C439.62 309.59 439.89 308.96 439.89 307.64V294.02H437.55ZM425.76 297.26C424.89 299.66 423.03 302.54 420.93 304.34C421.47 304.64 422.28 305.21 422.73 305.63C424.89 303.68 426.87 300.59 428.04 297.86L425.76 297.26ZM430.8 293.75V296.78C430.8 300.47 430.32 305.3 424.77 308.96C425.31 309.35 426.12 310.1 426.45 310.61C432.45 306.56 433.08 301.07 433.08 296.81V293.75H430.8ZM11.49 331.36V341.62C11.49 346.15 11.19 352.15 7.8 356.32C8.34 356.53 9.3 357.1 9.69 357.46C13.17 353.14 13.65 346.48 13.65 341.62V331.36H11.49ZM15.84 341.47V353.83C15.84 356.5 16.62 357.22 19.56 357.22C20.16 357.22 24.42 357.22 25.05 357.22C27.78 357.22 28.41 355.96 28.68 351.37C28.11 351.22 27.18 350.86 26.7 350.5C26.55 354.46 26.34 355.18 24.93 355.18C24 355.18 20.43 355.18 19.74 355.18C18.27 355.18 17.97 354.94 17.97 353.83V341.47H15.84ZM25.47 342.82C23.46 344.59 19.8 346.51 16.53 347.92C16.83 348.37 17.16 349.09 17.31 349.51C20.76 348.13 24.6 346.3 27.21 344.41L25.47 342.82ZM12.48 331.36V333.43H24.96V337.81H12.48V339.91H27.15V331.36H12.48ZM2.64 331.78C4.65 332.65 7.08 334.06 8.25 335.14L9.57 333.25C8.34 332.23 5.88 330.91 3.87 330.13L2.64 331.78ZM1.14 340.06C3.09 340.87 5.46 342.28 6.63 343.3L7.89 341.41C6.66 340.42 4.26 339.13 2.34 338.38L1.14 340.06ZM2.01 355.48L3.99 356.92C5.64 354.1 7.62 350.32 9.09 347.14L7.35 345.76C5.73 349.18 3.51 353.17 2.01 355.48ZM36.54 338.65V340.57H53.64V338.65H36.54ZM46.5 339.46L45 339.94C46.53 344.23 49.41 348.43 52.59 350.53C52.95 349.99 53.61 349.24 54.09 348.85C50.91 347.11 47.97 343.3 46.5 339.46ZM43.83 334.45V352.33H45.96V334.45H43.83ZM43.32 339.31C41.85 343.27 38.97 347.2 35.91 349.03C36.36 349.42 36.99 350.11 37.35 350.62C40.47 348.43 43.35 344.2 44.91 339.82L43.32 339.31ZM32.52 331.24V357.49H34.74V333.34H55.2V357.49H57.54V331.24H32.52ZM33.78 353.95V356.05H56.13V353.95H33.78ZM71.25 332.17V334H88.08V332.17H71.25ZM70.29 337.48V339.37H88.77V337.48H70.29ZM78.36 329.86V333.37H80.58V329.86H78.36ZM83.1 333.88C82.77 334.84 82.14 336.31 81.6 337.24L83.55 337.69C84.06 336.85 84.69 335.59 85.29 334.39L83.1 333.88ZM74.13 334.36C74.7 335.41 75.21 336.79 75.36 337.69L77.43 337.12C77.22 336.22 76.68 334.87 76.05 333.91L74.13 334.36ZM74.55 346.18H84.87V348.43H74.55V346.18ZM74.55 342.49H84.87V344.71H74.55V342.49ZM72.42 340.93V349.99H87.06V340.93H72.42ZM80.79 349.39V354.52C80.79 356.62 81.33 357.22 83.49 357.22C83.94 357.22 86.01 357.22 86.46 357.22C88.23 357.22 88.8 356.41 89.01 353.05C88.44 352.93 87.54 352.57 87.09 352.24C87.03 354.91 86.91 355.27 86.22 355.27C85.77 355.27 84.12 355.27 83.79 355.27C83.07 355.27 82.95 355.15 82.95 354.49V349.39H80.79ZM75.57 349.33C75 352.51 73.5 354.49 68.25 355.54C68.67 355.96 69.27 356.89 69.51 357.43C75.3 356.02 77.1 353.44 77.79 349.33H75.57ZM61.56 337.15V339.28H70.35V337.15H61.56ZM65.07 330.13V349.69H67.17V330.13H65.07ZM60.99 350.38L61.8 352.63C64.44 351.37 67.92 349.75 71.16 348.16L70.65 346.15C67.11 347.77 63.42 349.42 60.99 350.38ZM94.71 358.21C97.86 357.13 99.9 354.67 99.9 351.43C99.9 349.33 99 347.95 97.32 347.95C96.12 347.95 95.04 348.7 95.04 350.11C95.04 351.55 96.06 352.27 97.29 352.27C97.86 352.27 98.46 352.12 98.88 351.58L97.26 349.3L97.83 351.85C97.83 354.1 96.48 355.63 94.02 356.65L94.71 358.21ZM133.98 336.61V338.74H146.67V336.61H133.98ZM145.71 336.61V337.09C145.44 349.36 145.11 353.74 144.3 354.67C144.03 355.06 143.7 355.15 143.19 355.12C142.56 355.12 141 355.12 139.26 355C139.65 355.57 139.89 356.5 139.95 357.16C141.54 357.22 143.16 357.25 144.09 357.16C145.05 357.07 145.68 356.83 146.28 356.02C147.27 354.73 147.54 350.44 147.84 337.75C147.84 337.45 147.87 336.61 147.87 336.61H145.71ZM138.96 329.83C138.93 340.75 139.11 350.83 131.1 355.81C131.67 356.17 132.42 356.92 132.75 357.46C141.09 352 141.12 341.32 141.15 329.83H138.96ZM123.18 331.27V352.72H125.19V333.34H130.86V350.8H132.96V331.27H123.18ZM121.02 352.18L121.41 354.46C125.01 353.65 130.05 352.48 134.82 351.34L134.61 349.3C129.63 350.41 124.35 351.52 121.02 352.18ZM124.23 337.72V339.76H131.85V337.72H124.23ZM124.23 344.14V346.15H131.85V344.14H124.23ZM152.46 336.37V338.65H175.74V336.37H152.46ZM174.87 336.37V336.85C174.27 348.76 173.61 353.44 172.47 354.55C172.08 354.91 171.72 355 171.06 355C170.31 355 168.39 354.97 166.35 354.79C166.77 355.45 167.07 356.44 167.1 357.1C168.96 357.22 170.88 357.28 171.93 357.16C173.07 357.07 173.79 356.83 174.51 355.96C175.83 354.46 176.46 349.99 177.15 337.57C177.18 337.21 177.21 336.37 177.21 336.37H174.87ZM162.27 329.86V335.08C162.27 341.29 161.55 349.81 151.59 355.75C152.13 356.14 152.97 356.98 153.3 357.52C163.8 351.19 164.64 341.92 164.64 335.08V329.86H162.27ZM181.68 340.51V342.64H189.54V340.51H181.68ZM181.23 331.87V333.94H190.17V331.87H181.23ZM181.05 351.94L181.65 354.07C184.08 353.2 187.26 352.06 190.26 350.98L189.9 348.94C186.66 350.08 183.33 351.28 181.05 351.94ZM184.77 333.13V351.49L186.87 350.89V333.13H184.77ZM191.7 331.75V333.91H208.32V331.75H191.7ZM199.74 332.92C197.88 338.59 194.61 343.72 190.62 346.9C191.13 347.32 192 348.19 192.39 348.64C196.38 345.13 199.86 339.64 201.99 333.52L199.74 332.92ZM200.28 340.18C202.53 342.7 205.23 346.15 206.43 348.31L208.26 346.9C207 344.8 204.24 341.44 201.99 339.01L200.28 340.18ZM198.06 338.08V357.31H200.28V337.09L198.06 338.08ZM227.91 340.12V357.43H230.19V340.12H227.91ZM219.15 344.53V346.6H238.62V344.53H219.15ZM230.82 345.34L229.08 346C231.06 349.99 234.54 354.04 237.81 356.14C238.2 355.6 238.92 354.79 239.4 354.37C236.13 352.57 232.62 348.94 230.82 345.34ZM227.4 345.19C225.51 348.85 221.82 352.57 218.31 354.31C218.79 354.76 219.48 355.54 219.87 356.08C223.44 354.01 227.16 349.99 229.17 345.85L227.4 345.19ZM223.53 333.25H234.72V338.74H223.53V333.25ZM221.4 331.24V340.78H236.94V331.24H221.4ZM218.28 329.89C216.54 334.45 213.66 338.92 210.66 341.77C211.08 342.31 211.71 343.48 211.95 343.99C215.22 340.66 218.37 335.62 220.41 330.55L218.28 329.89ZM215.16 337.63V357.34H217.32V335.53L217.29 335.5L215.16 337.63ZM249.39 336.16V337.99H268.8V336.16H249.39ZM251.16 344.26V345.97H266.82V344.26H251.16ZM249.81 348.37V350.23H268.14V348.37H249.81ZM257.7 330.04V353.41H259.89V330.04H257.7ZM251.55 332.23V334.03H264.33V340.21H251.34V342.01H266.55V332.23H251.55ZM241.23 331.72V333.73H247.71V331.72H241.23ZM246.9 331.72V331.99C245.79 334.51 243.48 339.37 241.62 342.88L243.66 343.45C245.49 339.88 247.74 335.23 249.12 332.08L247.59 331.6L247.23 331.72H246.9ZM243.96 340.27L243.69 342.28H248.88V340.27H243.96ZM247.95 340.27V340.72C247.2 348.46 244.8 353.35 240.99 355.9C241.5 356.2 242.34 357.01 242.7 357.46C246.6 354.64 249.21 349.27 250.11 340.54L248.82 340.21L248.4 340.27H247.95ZM244.05 344.68L242.25 345.37C245.16 354.79 250.95 356.62 259.62 356.62H268.08C268.23 355.96 268.65 354.94 269.01 354.43C267.42 354.46 260.94 354.46 259.68 354.46C252.06 354.46 246.48 352.96 244.05 344.68ZM272.91 334V336.04H297.06V334H272.91ZM274.41 338.47V340.42H295.74V338.47H274.41ZM271.71 342.97V345.01H298.26V342.97H271.71ZM271.5 347.77V349.78H298.56V347.77H271.5ZM283.77 335.14V344.44H286.08V335.14H283.77ZM276.75 330.58C277.83 331.72 278.85 333.37 279.24 334.51L281.34 333.55C280.86 332.44 279.81 330.88 278.7 329.77L276.75 330.58ZM290.85 329.77C290.22 330.91 289.11 332.59 288.21 333.61L290.19 334.3C291.06 333.31 292.2 331.87 293.16 330.49L290.85 329.77ZM283.65 344.62C282.99 350.62 281.25 353.95 271.11 355.42C271.53 355.9 272.07 356.83 272.25 357.4C283.02 355.66 285.21 351.64 286.02 344.62H283.65ZM286.68 348.37L284.61 348.79C286.62 354.04 290.7 356.56 297.63 357.46C297.9 356.83 298.5 355.87 299.01 355.39C292.44 354.76 288.39 352.69 286.68 348.37ZM305.97 343.06C307.02 344.98 308.28 347.5 308.85 349.15L310.71 348.31C310.11 346.72 308.85 344.26 307.71 342.37L305.97 343.06ZM319.11 343.36C320.19 345.22 321.54 347.71 322.14 349.3L323.91 348.49C323.28 346.93 321.96 344.53 320.82 342.7L319.11 343.36ZM301.59 331.63V333.82H328.41V331.63H301.59ZM303.21 336.91V357.4H305.34V338.98H312.42V336.91H303.21ZM316.23 336.91V357.4H318.33V338.98H325.86V336.91H316.23ZM311.37 336.91V354.61C311.37 354.97 311.22 355.09 310.86 355.09C310.53 355.12 309.39 355.12 308.16 355.06C308.46 355.69 308.76 356.65 308.82 357.22C310.68 357.25 311.82 357.19 312.6 356.83C313.35 356.47 313.59 355.81 313.59 354.64V336.91H311.37ZM324.75 336.91V354.7C324.75 355.06 324.63 355.18 324.24 355.18C323.88 355.18 322.68 355.21 321.39 355.15C321.66 355.75 321.93 356.68 322.02 357.28C323.97 357.28 325.17 357.25 325.98 356.89C326.76 356.53 327 355.9 327 354.7V336.91H324.75ZM332.88 335.17V349.45H335.13V337.39H354.72V349.3H357.06V335.17H332.88ZM334.08 345.37V347.56H356.07V345.37H334.08ZM343.74 329.8V357.37H346.08V329.8H343.74ZM367.26 335.83V337.84H382.65V335.83H367.26ZM368.1 342.1V344.08H381.93V342.1H368.1ZM366.81 349.15V351.07H383.31V349.15H366.81ZM373.77 336.46V350.17H375.87V336.46H373.77ZM377.76 345.4C378.84 346.42 380.13 347.89 380.73 348.82L382.26 347.89C381.66 346.96 380.34 345.58 379.2 344.59L377.76 345.4ZM362.55 331.18V357.43H364.83V333.25H385.02V357.43H387.42V331.18H362.55ZM363.78 353.83V355.9H386.13V353.83H363.78ZM395.82 347.71C393.3 347.71 391.23 349.75 391.23 352.27C391.23 354.79 393.3 356.83 395.82 356.83C398.34 356.83 400.38 354.79 400.38 352.27C400.38 349.75 398.34 347.71 395.82 347.71ZM395.82 355.3C394.14 355.3 392.76 353.95 392.76 352.27C392.76 350.59 394.14 349.24 395.82 349.24C397.5 349.24 398.85 350.59 398.85 352.27C398.85 353.95 397.5 355.3 395.82 355.3Z" fill="white"/>
</svg>
