<svg width="239" height="80" viewBox="0 0 239 80" fill="none" xmlns="http://www.w3.org/2000/svg">
<g filter="url(#filter0_d_670_4)">
<rect x="8" y="8" width="223" height="64" rx="32" fill="white"/>
</g>
<path d="M64.088 36.024V47.568C64.088 48 63.92 48.144 63.392 48.168C62.84 48.192 60.992 48.192 59 48.12C59.288 48.648 59.624 49.416 59.744 49.944C62.168 49.944 63.776 49.92 64.712 49.632C65.648 49.368 65.96 48.816 65.96 47.616V36.024H64.088ZM55.352 29.736V31.488H72.68V29.736H55.352ZM72.032 29.736V30.168C70.52 32.16 67.352 34.92 64.616 36.432C65 36.696 65.576 37.296 65.84 37.68C68.816 36 72.2 33.168 74.336 30.624L72.944 29.616L72.512 29.736H72.032ZM80.312 33.936V35.352H87.248V33.936H80.312ZM80.312 38.016V39.384H87.248V38.016H80.312ZM80.312 42.192V43.608H87.248V42.192H80.312ZM90.536 39.216V40.776H99.68V39.216H90.536ZM81.56 30V31.416H85.544V30H81.56ZM89 29.064V30.6H98.384V29.064H89ZM88.712 43.704V45.312H100.088V43.704H88.712ZM93.776 36.744V49.824H95.504V36.744H93.776ZM83.288 34.632V42.792H84.584V34.632H83.288ZM97.808 29.064V29.304C97.64 33.072 97.448 34.464 97.136 34.824C96.992 35.016 96.776 35.064 96.44 35.04C96.104 35.04 95.24 35.04 94.28 34.944C94.496 35.352 94.664 35.976 94.688 36.456C95.696 36.504 96.704 36.504 97.184 36.456C97.808 36.408 98.168 36.264 98.504 35.856C99.008 35.304 99.248 33.744 99.416 29.736C99.44 29.52 99.44 29.064 99.44 29.064H97.808ZM90.632 36.96C90.224 39 89.48 41.016 88.448 42.36C88.832 42.552 89.552 42.912 89.864 43.128C90.872 41.688 91.712 39.504 92.192 37.272L90.632 36.96ZM81.512 27.84C80.792 30.792 79.448 33.648 77.744 35.496C78.128 35.736 78.824 36.288 79.112 36.576C80.816 34.536 82.28 31.44 83.168 28.2L81.512 27.84ZM79.616 33.936V40.32C79.616 43.032 79.448 46.608 77.816 49.152C78.176 49.32 78.848 49.728 79.112 49.968C80.816 47.304 81.104 43.248 81.104 40.32V33.936H79.616ZM86.768 33.936V47.952C86.768 48.264 86.624 48.36 86.312 48.384C85.976 48.408 84.896 48.408 83.672 48.36C83.888 48.792 84.152 49.488 84.224 49.896C85.88 49.896 86.864 49.872 87.464 49.608C88.088 49.344 88.28 48.84 88.28 47.952V33.936H86.768ZM92.408 29.568C92.072 32.28 91.208 34.656 88.256 35.904C88.616 36.168 89.048 36.744 89.264 37.128C92.624 35.616 93.656 32.88 94.064 29.568H92.408ZM85.112 30V30.288C84.752 31.488 84.08 33.216 83.48 34.296C83.816 34.44 84.344 34.752 84.632 34.992C85.352 33.864 86.264 32.088 86.768 30.6L85.712 29.904L85.472 30H85.112ZM102.536 29.136V30.768H123.44V29.136H102.536ZM112.208 29.832V39.12C112.208 43.104 111.464 46.632 102.104 48.36C102.488 48.792 102.992 49.56 103.184 49.944C112.808 47.904 114.08 43.776 114.08 39.144V29.832H112.208ZM106.448 38.136H120.128V40.584H106.448V38.136ZM106.448 34.296H120.128V36.696H106.448V34.296ZM104.744 32.784V42.096H121.952V32.784H104.744ZM107.048 42.288L105.512 42.912C108.728 48.36 114.632 49.488 123.464 49.848C123.56 49.272 123.92 48.504 124.232 48.072C115.568 47.856 110.096 47.04 107.048 42.288ZM131.024 33.144C132.824 34.032 135.008 35.448 136.04 36.456L137.312 35.28C136.232 34.272 134.024 32.928 132.224 32.088L131.024 33.144ZM142.112 29.88V30.168C139.496 34.896 132.584 38.136 126.536 39.264C126.872 39.648 127.232 40.392 127.4 40.848C133.736 39.456 140.84 36.096 143.96 30.504L142.784 29.784L142.472 29.88H142.112ZM134.096 29.88V31.392H142.568V29.88H134.096ZM135.872 27.816C134.216 29.832 131.048 32.088 126.728 33.6C127.136 33.912 127.688 34.512 127.952 34.944C132.416 33.168 135.68 30.792 137.888 28.248L135.872 27.816ZM134.096 41.952C135.992 42.984 138.272 44.592 139.352 45.72L140.768 44.568C139.616 43.416 137.312 41.904 135.416 40.92L134.096 41.952ZM145.616 38.28V38.544C143.024 44.592 135.776 47.448 128.36 48.336C128.648 48.744 129.008 49.488 129.128 49.992C136.976 48.84 144.464 45.84 147.488 38.832L146.312 38.184L145.976 38.28H145.616ZM137.816 38.28V39.816H146.096V38.28H137.816ZM139.76 36.024C137.888 38.304 134.24 40.8 129.152 42.384C129.536 42.72 130.064 43.368 130.28 43.776C135.536 41.928 139.328 39.312 141.752 36.48L139.76 36.024Z" fill="url(#paint0_linear_670_4)"/>
<path d="M197.531 40.0137H172.531C171.669 40.0137 170.969 39.3355 170.969 38.5C170.969 37.6645 171.669 36.9863 172.531 36.9863H197.531C198.394 36.9863 199.094 37.6645 199.094 38.5C199.094 39.3355 198.394 40.0137 197.531 40.0137Z" fill="#FF7A00"/>
<path d="M198.362 39.3688L191.734 32.9478C191.125 32.3575 191.125 31.3978 191.734 30.8075C192.344 30.2172 193.334 30.2172 193.944 30.8075L200.575 37.2285C201.184 37.8188 201.184 38.7785 200.575 39.3688C199.962 39.9622 198.975 39.9622 198.362 39.3688Z" fill="#FF7A00"/>
<path d="M191.734 44.0522L198.362 37.6312C198.972 37.0409 199.962 37.0409 200.572 37.6312C201.181 38.2216 201.181 39.1812 200.572 39.7716L193.944 46.1926C193.334 46.7829 192.344 46.7829 191.734 46.1926C191.125 45.6022 191.125 44.6426 191.734 44.0522Z" fill="#FF7A00"/>
<defs>
<filter id="filter0_d_670_4" x="0" y="0" width="239" height="80" filterUnits="userSpaceOnUse" color-interpolation-filters="sRGB">
<feFlood flood-opacity="0" result="BackgroundImageFix"/>
<feColorMatrix in="SourceAlpha" type="matrix" values="0 0 0 0 0 0 0 0 0 0 0 0 0 0 0 0 0 0 127 0" result="hardAlpha"/>
<feOffset/>
<feGaussianBlur stdDeviation="4"/>
<feComposite in2="hardAlpha" operator="out"/>
<feColorMatrix type="matrix" values="0 0 0 0 0.745833 0 0 0 0 0.466 0 0 0 0 0.192674 0 0 0 0.7 0"/>
<feBlend mode="normal" in2="BackgroundImageFix" result="effect1_dropShadow_670_4"/>
<feBlend mode="normal" in="SourceGraphic" in2="effect1_dropShadow_670_4" result="shape"/>
</filter>
<linearGradient id="paint0_linear_670_4" x1="170" y1="-31.9767" x2="91.8172" y2="56.3302" gradientUnits="userSpaceOnUse">
<stop stop-color="#F70C0C"/>
<stop offset="1" stop-color="#F08200" stop-opacity="0.88"/>
</linearGradient>
</defs>
</svg>
