<svg width="193" height="58" viewBox="0 0 193 58" fill="none" xmlns="http://www.w3.org/2000/svg">
<rect x="0.120483" y="0.168701" width="192.771" height="57.8313" rx="26" fill="white"/>
<path d="M55.1436 24.8513V34.4713C55.1436 34.8313 55.0036 34.9513 54.5636 34.9713C54.1036 34.9913 52.5636 34.9913 50.9036 34.9313C51.1436 35.3713 51.4236 36.0113 51.5236 36.4513C53.5436 36.4513 54.8836 36.4313 55.6636 36.1913C56.4436 35.9713 56.7036 35.5113 56.7036 34.5113V24.8513H55.1436ZM47.8636 19.6113V21.0713H62.3036V19.6113H47.8636ZM61.7636 19.6113V19.9713C60.5036 21.6313 57.8636 23.9313 55.5836 25.1913C55.9036 25.4113 56.3836 25.9113 56.6036 26.2313C59.0836 24.8313 61.9036 22.4713 63.6836 20.3513L62.5236 19.5113L62.1636 19.6113H61.7636ZM68.6636 23.1113V24.2913H74.4436V23.1113H68.6636ZM68.6636 26.5113V27.6513H74.4436V26.5113H68.6636ZM68.6636 29.9913V31.1713H74.4436V29.9913H68.6636ZM77.1836 27.5113V28.8113H84.8036V27.5113H77.1836ZM69.7036 19.8313V21.0113H73.0236V19.8313H69.7036ZM75.9036 19.0513V20.3313H83.7236V19.0513H75.9036ZM75.6636 31.2513V32.5913H85.1436V31.2513H75.6636ZM79.8836 25.4513V36.3513H81.3236V25.4513H79.8836ZM71.1436 23.6913V30.4913H72.2236V23.6913H71.1436ZM83.2436 19.0513V19.2513C83.1036 22.3913 82.9436 23.5513 82.6836 23.8513C82.5636 24.0113 82.3836 24.0513 82.1036 24.0313C81.8236 24.0313 81.1036 24.0313 80.3036 23.9513C80.4836 24.2913 80.6236 24.8113 80.6436 25.2113C81.4836 25.2513 82.3236 25.2513 82.7236 25.2113C83.2436 25.1713 83.5436 25.0513 83.8236 24.7113C84.2436 24.2513 84.4436 22.9513 84.5836 19.6113C84.6036 19.4313 84.6036 19.0513 84.6036 19.0513H83.2436ZM77.2636 25.6313C76.9236 27.3313 76.3036 29.0113 75.4436 30.1313C75.7636 30.2913 76.3636 30.5913 76.6236 30.7713C77.4636 29.5713 78.1636 27.7513 78.5636 25.8913L77.2636 25.6313ZM69.6636 18.0313C69.0636 20.4913 67.9436 22.8713 66.5236 24.4113C66.8436 24.6113 67.4236 25.0713 67.6636 25.3113C69.0836 23.6113 70.3036 21.0313 71.0436 18.3313L69.6636 18.0313ZM68.0836 23.1113V28.4313C68.0836 30.6913 67.9436 33.6713 66.5836 35.7913C66.8836 35.9313 67.4436 36.2713 67.6636 36.4713C69.0836 34.2513 69.3236 30.8713 69.3236 28.4313V23.1113H68.0836ZM74.0436 23.1113V34.7913C74.0436 35.0513 73.9236 35.1313 73.6636 35.1513C73.3836 35.1713 72.4836 35.1713 71.4636 35.1313C71.6436 35.4913 71.8636 36.0713 71.9236 36.4113C73.3036 36.4113 74.1236 36.3913 74.6236 36.1713C75.1436 35.9513 75.3036 35.5313 75.3036 34.7913V23.1113H74.0436ZM78.7436 19.4713C78.4636 21.7313 77.7436 23.7113 75.2836 24.7513C75.5836 24.9713 75.9436 25.4513 76.1236 25.7713C78.9236 24.5113 79.7836 22.2313 80.1236 19.4713H78.7436ZM72.6636 19.8313V20.0713C72.3636 21.0713 71.8036 22.5113 71.3036 23.4113C71.5836 23.5313 72.0236 23.7913 72.2636 23.9913C72.8636 23.0513 73.6236 21.5713 74.0436 20.3313L73.1636 19.7513L72.9636 19.8313H72.6636ZM88.0436 19.4713C89.1236 20.3913 90.4836 21.7113 91.1236 22.5513L92.1436 21.4313C91.4836 20.6313 90.0836 19.3913 89.0036 18.5113L88.0436 19.4713ZM89.6436 36.0313C89.9236 35.6113 90.4436 35.2113 93.7236 32.6313C93.5436 32.3313 93.3236 31.7713 93.2036 31.3713L89.7636 33.9713L89.3636 34.6313L89.6436 36.0313ZM86.7036 24.3313V25.7713H90.8036V24.3313H86.7036ZM89.6436 36.0513C89.6436 35.4513 91.2236 34.1113 91.2236 34.1113V24.3313H89.7836V33.0113C89.7836 33.9913 89.1636 34.6713 88.8236 34.9513C89.0636 35.1913 89.4836 35.7313 89.6436 36.0513ZM93.8836 21.8713V23.2513H104.504V21.8713H93.8836ZM94.5036 26.0313V27.3913H103.864V26.0313H94.5036ZM93.4036 30.2313V31.6313H104.944V30.2313H93.4036ZM98.4836 22.3913V36.4313H100.004V22.3913H98.4836ZM94.9836 18.6313C95.6636 19.6313 96.3836 20.9913 96.6636 21.8513L98.0436 21.2713C97.7636 20.4113 97.0036 19.1113 96.2836 18.1313L94.9836 18.6313ZM102.404 17.9913C101.944 19.2913 101.044 21.1113 100.324 22.2313L101.604 22.7113C102.324 21.6513 103.224 19.9713 103.924 18.4913L102.404 17.9913ZM114.444 29.4913V30.6513H122.404V29.4913H114.444ZM112.584 19.6113V20.7513H124.464V19.6113H112.584ZM113.064 22.0313V23.1313H123.964V22.0313H113.064ZM111.964 24.5313V25.6713H125.044V24.5313H111.964ZM114.444 32.1713V33.2913H122.464V32.1713H114.444ZM113.424 26.8513V36.4113H114.824V28.0113H122.404V26.8513H113.424ZM122.044 26.8513V34.7313C122.044 34.9913 121.964 35.0713 121.684 35.0713C121.404 35.0913 120.444 35.0913 119.444 35.0513C119.624 35.4313 119.824 35.9913 119.884 36.3513C121.304 36.3713 122.204 36.3513 122.764 36.1313C123.324 35.9113 123.484 35.5113 123.484 34.7513V26.8513H122.044ZM117.704 18.0313V24.8913H119.184V18.0313H117.704ZM108.924 18.0313V36.4113H110.304V18.0313H108.924ZM107.344 21.8913C107.224 23.4713 106.904 25.6713 106.444 27.0513L107.604 27.4313C108.064 25.9313 108.404 23.6113 108.464 22.0513L107.344 21.8913ZM110.484 21.3713C110.884 22.3113 111.344 23.5513 111.544 24.3113L112.584 23.8113C112.404 23.0713 111.924 21.8913 111.484 20.9713L110.484 21.3713Z" fill="url(#paint0_linear_861_16)"/>
<defs>
<linearGradient id="paint0_linear_861_16" x1="126.752" y1="-9.20863" x2="78.6799" y2="56.7184" gradientUnits="userSpaceOnUse">
<stop stop-color="#EF2626"/>
<stop offset="1" stop-color="#F08200" stop-opacity="0.88"/>
</linearGradient>
</defs>
</svg>
