<svg width="296" height="96" viewBox="0 0 296 96" fill="none" xmlns="http://www.w3.org/2000/svg">
<g filter="url(#filter0_d_484_4)">
<rect x="8" y="8" width="280" height="80" rx="40" fill="white"/>
</g>
<path d="M70.632 43.036V60.352C70.632 61 70.38 61.216 69.588 61.252C68.76 61.288 65.988 61.288 63 61.18C63.432 61.972 63.936 63.124 64.116 63.916C67.752 63.916 70.164 63.88 71.568 63.448C72.972 63.052 73.44 62.224 73.44 60.424V43.036H70.632ZM57.528 33.604V36.232H83.52V33.604H57.528ZM82.548 33.604V34.252C80.28 37.24 75.528 41.38 71.424 43.648C72 44.044 72.864 44.944 73.26 45.52C77.724 43 82.8 38.752 86.004 34.936L83.916 33.424L83.268 33.604H82.548ZM94.968 39.904V42.028H105.372V39.904H94.968ZM94.968 46.024V48.076H105.372V46.024H94.968ZM94.968 52.288V54.412H105.372V52.288H94.968ZM110.304 47.824V50.164H124.02V47.824H110.304ZM96.84 34V36.124H102.816V34H96.84ZM108 32.596V34.9H122.076V32.596H108ZM107.568 54.556V56.968H124.632V54.556H107.568ZM115.164 44.116V63.736H117.756V44.116H115.164ZM99.432 40.948V53.188H101.376V40.948H99.432ZM121.212 32.596V32.956C120.96 38.608 120.672 40.696 120.204 41.236C119.988 41.524 119.664 41.596 119.16 41.56C118.656 41.56 117.36 41.56 115.92 41.416C116.244 42.028 116.496 42.964 116.532 43.684C118.044 43.756 119.556 43.756 120.276 43.684C121.212 43.612 121.752 43.396 122.256 42.784C123.012 41.956 123.372 39.616 123.624 33.604C123.66 33.28 123.66 32.596 123.66 32.596H121.212ZM110.448 44.44C109.836 47.5 108.72 50.524 107.172 52.54C107.748 52.828 108.828 53.368 109.296 53.692C110.808 51.532 112.068 48.256 112.788 44.908L110.448 44.44ZM96.768 30.76C95.688 35.188 93.672 39.472 91.116 42.244C91.692 42.604 92.736 43.432 93.168 43.864C95.724 40.804 97.92 36.16 99.252 31.3L96.768 30.76ZM93.924 39.904V49.48C93.924 53.548 93.672 58.912 91.224 62.728C91.764 62.98 92.772 63.592 93.168 63.952C95.724 59.956 96.156 53.872 96.156 49.48V39.904H93.924ZM104.652 39.904V60.928C104.652 61.396 104.436 61.54 103.968 61.576C103.464 61.612 101.844 61.612 100.008 61.54C100.332 62.188 100.728 63.232 100.836 63.844C103.32 63.844 104.796 63.808 105.696 63.412C106.632 63.016 106.92 62.26 106.92 60.928V39.904H104.652ZM113.112 33.352C112.608 37.42 111.312 40.984 106.884 42.856C107.424 43.252 108.072 44.116 108.396 44.692C113.436 42.424 114.984 38.32 115.596 33.352H113.112ZM102.168 34V34.432C101.628 36.232 100.62 38.824 99.72 40.444C100.224 40.66 101.016 41.128 101.448 41.488C102.528 39.796 103.896 37.132 104.652 34.9L103.068 33.856L102.708 34H102.168ZM128.304 32.704V35.152H159.66V32.704H128.304ZM142.812 33.748V47.68C142.812 53.656 141.696 58.948 127.656 61.54C128.232 62.188 128.988 63.34 129.276 63.916C143.712 60.856 145.62 54.664 145.62 47.716V33.748H142.812ZM134.172 46.204H154.692V49.876H134.172V46.204ZM134.172 40.444H154.692V44.044H134.172V40.444ZM131.616 38.176V52.144H157.428V38.176H131.616ZM135.072 52.432L132.768 53.368C137.592 61.54 146.448 63.232 159.696 63.772C159.84 62.908 160.38 61.756 160.848 61.108C147.852 60.784 139.644 59.56 135.072 52.432ZM171.036 38.716C173.736 40.048 177.012 42.172 178.56 43.684L180.468 41.92C178.848 40.408 175.536 38.392 172.836 37.132L171.036 38.716ZM187.668 33.82V34.252C183.744 41.344 173.376 46.204 164.304 47.896C164.808 48.472 165.348 49.588 165.6 50.272C175.104 48.184 185.76 43.144 190.44 34.756L188.676 33.676L188.208 33.82H187.668ZM175.644 33.82V36.088H188.352V33.82H175.644ZM178.308 30.724C175.824 33.748 171.072 37.132 164.592 39.4C165.204 39.868 166.032 40.768 166.428 41.416C173.124 38.752 178.02 35.188 181.332 31.372L178.308 30.724ZM175.644 51.928C178.488 53.476 181.908 55.888 183.528 57.58L185.652 55.852C183.924 54.124 180.468 51.856 177.624 50.38L175.644 51.928ZM192.924 46.42V46.816C189.036 55.888 178.164 60.172 167.04 61.504C167.472 62.116 168.012 63.232 168.192 63.988C179.964 62.26 191.196 57.76 195.732 47.248L193.968 46.276L193.464 46.42H192.924ZM181.224 46.42V48.724H193.644V46.42H181.224ZM184.14 43.036C181.332 46.456 175.86 50.2 168.228 52.576C168.804 53.08 169.596 54.052 169.92 54.664C177.804 51.892 183.492 47.968 187.128 43.72L184.14 43.036Z" fill="url(#paint0_linear_484_4)"/>
<path d="M246.414 47.9531H215.164C214.086 47.9531 213.211 47.0781 213.211 46C213.211 44.9219 214.086 44.0469 215.164 44.0469H246.414C247.492 44.0469 248.367 44.9219 248.367 46C248.367 47.0781 247.492 47.9531 246.414 47.9531Z" fill="#FF7A00"/>
<path d="M247.453 47.1211L239.168 38.8359C238.406 38.0742 238.406 36.8359 239.168 36.0742C239.93 35.3125 241.168 35.3125 241.93 36.0742L250.219 44.3594C250.98 45.1211 250.98 46.3594 250.219 47.1211C249.453 47.8867 248.219 47.8867 247.453 47.1211Z" fill="#FF7A00"/>
<path d="M239.168 53.1641L247.453 44.8789C248.215 44.1172 249.453 44.1172 250.215 44.8789C250.977 45.6406 250.977 46.8789 250.215 47.6406L241.93 55.9258C241.168 56.6875 239.93 56.6875 239.168 55.9258C238.406 55.1641 238.406 53.9258 239.168 53.1641Z" fill="#FF7A00"/>
<defs>
<filter id="filter0_d_484_4" x="0" y="0" width="296" height="96" filterUnits="userSpaceOnUse" color-interpolation-filters="sRGB">
<feFlood flood-opacity="0" result="BackgroundImageFix"/>
<feColorMatrix in="SourceAlpha" type="matrix" values="0 0 0 0 0 0 0 0 0 0 0 0 0 0 0 0 0 0 127 0" result="hardAlpha"/>
<feOffset/>
<feGaussianBlur stdDeviation="4"/>
<feComposite in2="hardAlpha" operator="out"/>
<feColorMatrix type="matrix" values="0 0 0 0 0.745833 0 0 0 0 0.466 0 0 0 0 0.192674 0 0 0 0.7 0"/>
<feBlend mode="normal" in2="BackgroundImageFix" result="effect1_dropShadow_484_4"/>
<feBlend mode="normal" in="SourceGraphic" in2="effect1_dropShadow_484_4" result="shape"/>
</filter>
<linearGradient id="paint0_linear_484_4" x1="201" y1="-45.6279" x2="102.706" y2="65.3297" gradientUnits="userSpaceOnUse">
<stop stop-color="#F70C0C"/>
<stop offset="1" stop-color="#F08200" stop-opacity="0.88"/>
</linearGradient>
</defs>
</svg>
