<svg width="480" height="320" viewBox="0 0 480 320" fill="none" xmlns="http://www.w3.org/2000/svg">
<rect width="480" height="320" rx="18" fill="#CCCCCC"/>
<path d="M202.08 148.696V150.4H209.712V148.696H202.08ZM205.128 149.464V161.368H206.904V149.464H205.128ZM201.672 161.608L202.152 163.456C204.36 162.712 207.288 161.728 210.072 160.744L209.856 159.208C206.784 160.12 203.688 161.056 201.672 161.608ZM210.12 146.92V148.552H223.968V146.92H210.12ZM215.952 147.616C215.664 148.768 215.16 150.4 214.68 151.48L216.312 151.84C216.84 150.832 217.512 149.32 218.064 147.928L215.952 147.616ZM215.832 154V159.064C215.832 161.608 215.184 164.68 208.632 166.456C209.016 166.84 209.568 167.488 209.76 167.872C216.552 165.736 217.632 162.232 217.632 159.088V154H215.832ZM217.512 163.84C219.384 165.04 221.712 166.768 222.864 167.92L224.064 166.624C222.888 165.52 220.488 163.84 218.664 162.712L217.512 163.84ZM211.008 151.048V162.352H212.76V152.68H220.56V162.304H222.384V151.048H211.008ZM230.016 153.016V154.72H243.912V153.016H230.016ZM230.016 158.704V160.408H243.912V158.704H230.016ZM230.016 164.416V166.168H243.912V164.416H230.016ZM228.768 147.328V167.8H230.568V149.104H243.192V167.8H245.064V147.328H228.768ZM250.992 146.896V167.944H252.744V148.552H269.184V167.944H270.984V146.896H250.992ZM252.024 165.304V166.912H270.24V165.304H252.024ZM257.976 159.328C259.92 159.736 262.368 160.576 263.688 161.224L264.456 160.024C263.112 159.4 260.664 158.608 258.744 158.224L257.976 159.328ZM258.936 149.032C257.712 150.976 255.648 152.848 253.608 154.072C253.968 154.336 254.592 154.864 254.856 155.152C256.872 153.808 259.056 151.744 260.424 149.536L258.936 149.032ZM265.344 150.928V151.192C263.28 154.408 257.88 156.784 253.176 157.696C253.488 158.032 253.848 158.752 254.016 159.184C258.888 158.056 264.48 155.44 266.952 151.48L265.944 150.856L265.656 150.928H265.344ZM257.88 152.248L256.536 152.872C258.912 155.752 263.352 157.96 267.744 158.896C267.96 158.464 268.416 157.864 268.752 157.528C264.384 156.736 259.992 154.792 257.88 152.248ZM258.384 150.928L257.424 152.344H265.872V150.928H258.384ZM255.6 162.376C258.912 162.784 263.064 163.744 265.344 164.56L266.16 163.216C263.808 162.424 259.68 161.512 256.44 161.128L255.6 162.376ZM278.256 152.056V153.928H294.672V152.056H278.256ZM286.008 145.888V152.92H287.904V145.888H286.008ZM277.296 146.464V154.48C277.296 158.728 276.96 163.168 273.912 166.576C274.344 166.888 275.016 167.56 275.304 167.968C278.76 164.2 279.168 159.256 279.168 154.48V146.464H277.296ZM278.184 157.744V159.616H289.008V167.944H290.952V157.744H278.184Z" fill="black"/>
<path d="M0 267H480V302C480 311.941 471.941 320 462 320H18C8.05889 320 0 311.941 0 302V267Z" fill="#5F5F5F" fill-opacity="0.6"/>
<path d="M49.08 285.696V287.4H56.712V285.696H49.08ZM52.128 286.464V298.368H53.904V286.464H52.128ZM48.672 298.608L49.152 300.456C51.36 299.712 54.288 298.728 57.072 297.744L56.856 296.208C53.784 297.12 50.688 298.056 48.672 298.608ZM57.12 283.92V285.552H70.968V283.92H57.12ZM62.952 284.616C62.664 285.768 62.16 287.4 61.68 288.48L63.312 288.84C63.84 287.832 64.512 286.32 65.064 284.928L62.952 284.616ZM62.832 291V296.064C62.832 298.608 62.184 301.68 55.632 303.456C56.016 303.84 56.568 304.488 56.76 304.872C63.552 302.736 64.632 299.232 64.632 296.088V291H62.832ZM64.512 300.84C66.384 302.04 68.712 303.768 69.864 304.92L71.064 303.624C69.888 302.52 67.488 300.84 65.664 299.712L64.512 300.84ZM58.008 288.048V299.352H59.76V289.68H67.56V299.304H69.384V288.048H58.008ZM77.016 290.016V291.72H90.912V290.016H77.016ZM77.016 295.704V297.408H90.912V295.704H77.016ZM77.016 301.416V303.168H90.912V301.416H77.016ZM75.768 284.328V304.8H77.568V286.104H90.192V304.8H92.064V284.328H75.768ZM100.512 284.952V286.464H107.832V284.952H100.512ZM109.584 284.976V286.512H118.32V284.976H109.584ZM100.944 282.792C100.152 285.072 98.784 287.256 97.152 288.672C97.584 288.888 98.304 289.368 98.64 289.656C100.224 288.12 101.76 285.72 102.648 283.224L100.944 282.792ZM110.304 282.816C109.704 284.904 108.6 286.872 107.232 288.168C107.664 288.408 108.384 288.888 108.72 289.2C110.064 287.76 111.312 285.528 112.008 283.224L110.304 282.816ZM102.312 286.104C102.96 287.136 103.656 288.528 103.92 289.416L105.504 288.768C105.216 287.928 104.472 286.536 103.824 285.552L102.312 286.104ZM112.152 286.056C112.968 287.136 113.832 288.624 114.192 289.56L115.752 288.864C115.368 287.904 114.432 286.488 113.64 285.456L112.152 286.056ZM104.4 297.144V298.464H111.672V297.144H104.4ZM98.544 292.128V304.896H100.296V292.128H98.544ZM104.4 290.112V291.72H116.616V290.112H104.4ZM99.624 290.064C100.632 290.952 101.808 292.248 102.312 293.088L103.704 292.104C103.152 291.264 101.976 290.04 100.944 289.176L99.624 290.064ZM115.68 290.112V302.76C115.68 303.096 115.56 303.192 115.176 303.216C114.84 303.24 113.544 303.24 112.2 303.192C112.464 303.648 112.704 304.32 112.776 304.776C114.6 304.8 115.776 304.776 116.496 304.512C117.216 304.248 117.432 303.768 117.432 302.76V290.112H115.68ZM105.216 295.128H110.88V300.624H105.216V295.128ZM103.656 293.712V302.016H112.488V293.712H103.656ZM131.904 284.688C134.04 288.072 138.168 291.624 142.008 293.664C142.32 293.136 142.752 292.488 143.208 292.056C139.368 290.304 135.192 286.776 132.744 282.84H130.848C129.048 286.248 125.112 290.136 120.864 292.344C121.272 292.728 121.776 293.376 121.992 293.832C126.12 291.528 129.984 287.904 131.904 284.688ZM135.288 291.312V304.896H137.136V291.312H135.288ZM126.72 291.408V294.72C126.72 297.696 126.288 301.104 121.776 303.672C122.232 303.96 122.928 304.56 123.216 304.944C128.04 302.112 128.568 298.176 128.568 294.768V291.408H126.72ZM145.08 285.696V287.4H152.712V285.696H145.08ZM148.128 286.464V298.368H149.904V286.464H148.128ZM144.672 298.608L145.152 300.456C147.36 299.712 150.288 298.728 153.072 297.744L152.856 296.208C149.784 297.12 146.688 298.056 144.672 298.608ZM153.12 283.92V285.552H166.968V283.92H153.12ZM158.952 284.616C158.664 285.768 158.16 287.4 157.68 288.48L159.312 288.84C159.84 287.832 160.512 286.32 161.064 284.928L158.952 284.616ZM158.832 291V296.064C158.832 298.608 158.184 301.68 151.632 303.456C152.016 303.84 152.568 304.488 152.76 304.872C159.552 302.736 160.632 299.232 160.632 296.088V291H158.832ZM160.512 300.84C162.384 302.04 164.712 303.768 165.864 304.92L167.064 303.624C165.888 302.52 163.488 300.84 161.664 299.712L160.512 300.84ZM154.008 288.048V299.352H155.76V289.68H163.56V299.304H165.384V288.048H154.008ZM173.016 290.016V291.72H186.912V290.016H173.016ZM173.016 295.704V297.408H186.912V295.704H173.016ZM173.016 301.416V303.168H186.912V301.416H173.016ZM171.768 284.328V304.8H173.568V286.104H186.192V304.8H188.064V284.328H171.768ZM196.512 284.952V286.464H203.832V284.952H196.512ZM205.584 284.976V286.512H214.32V284.976H205.584ZM196.944 282.792C196.152 285.072 194.784 287.256 193.152 288.672C193.584 288.888 194.304 289.368 194.64 289.656C196.224 288.12 197.76 285.72 198.648 283.224L196.944 282.792ZM206.304 282.816C205.704 284.904 204.6 286.872 203.232 288.168C203.664 288.408 204.384 288.888 204.72 289.2C206.064 287.76 207.312 285.528 208.008 283.224L206.304 282.816ZM198.312 286.104C198.96 287.136 199.656 288.528 199.92 289.416L201.504 288.768C201.216 287.928 200.472 286.536 199.824 285.552L198.312 286.104ZM208.152 286.056C208.968 287.136 209.832 288.624 210.192 289.56L211.752 288.864C211.368 287.904 210.432 286.488 209.64 285.456L208.152 286.056ZM200.4 297.144V298.464H207.672V297.144H200.4ZM194.544 292.128V304.896H196.296V292.128H194.544ZM200.4 290.112V291.72H212.616V290.112H200.4ZM195.624 290.064C196.632 290.952 197.808 292.248 198.312 293.088L199.704 292.104C199.152 291.264 197.976 290.04 196.944 289.176L195.624 290.064ZM211.68 290.112V302.76C211.68 303.096 211.56 303.192 211.176 303.216C210.84 303.24 209.544 303.24 208.2 303.192C208.464 303.648 208.704 304.32 208.776 304.776C210.6 304.8 211.776 304.776 212.496 304.512C213.216 304.248 213.432 303.768 213.432 302.76V290.112H211.68ZM201.216 295.128H206.88V300.624H201.216V295.128ZM199.656 293.712V302.016H208.488V293.712H199.656ZM227.904 284.688C230.04 288.072 234.168 291.624 238.008 293.664C238.32 293.136 238.752 292.488 239.208 292.056C235.368 290.304 231.192 286.776 228.744 282.84H226.848C225.048 286.248 221.112 290.136 216.864 292.344C217.272 292.728 217.776 293.376 217.992 293.832C222.12 291.528 225.984 287.904 227.904 284.688ZM231.288 291.312V304.896H233.136V291.312H231.288ZM222.72 291.408V294.72C222.72 297.696 222.288 301.104 217.776 303.672C218.232 303.96 218.928 304.56 219.216 304.944C224.04 302.112 224.568 298.176 224.568 294.768V291.408H222.72ZM241.08 285.696V287.4H248.712V285.696H241.08ZM244.128 286.464V298.368H245.904V286.464H244.128ZM240.672 298.608L241.152 300.456C243.36 299.712 246.288 298.728 249.072 297.744L248.856 296.208C245.784 297.12 242.688 298.056 240.672 298.608ZM249.12 283.92V285.552H262.968V283.92H249.12ZM254.952 284.616C254.664 285.768 254.16 287.4 253.68 288.48L255.312 288.84C255.84 287.832 256.512 286.32 257.064 284.928L254.952 284.616ZM254.832 291V296.064C254.832 298.608 254.184 301.68 247.632 303.456C248.016 303.84 248.568 304.488 248.76 304.872C255.552 302.736 256.632 299.232 256.632 296.088V291H254.832ZM256.512 300.84C258.384 302.04 260.712 303.768 261.864 304.92L263.064 303.624C261.888 302.52 259.488 300.84 257.664 299.712L256.512 300.84ZM250.008 288.048V299.352H251.76V289.68H259.56V299.304H261.384V288.048H250.008ZM269.016 290.016V291.72H282.912V290.016H269.016ZM269.016 295.704V297.408H282.912V295.704H269.016ZM269.016 301.416V303.168H282.912V301.416H269.016ZM267.768 284.328V304.8H269.568V286.104H282.192V304.8H284.064V284.328H267.768ZM292.512 284.952V286.464H299.832V284.952H292.512ZM301.584 284.976V286.512H310.32V284.976H301.584ZM292.944 282.792C292.152 285.072 290.784 287.256 289.152 288.672C289.584 288.888 290.304 289.368 290.64 289.656C292.224 288.12 293.76 285.72 294.648 283.224L292.944 282.792ZM302.304 282.816C301.704 284.904 300.6 286.872 299.232 288.168C299.664 288.408 300.384 288.888 300.72 289.2C302.064 287.76 303.312 285.528 304.008 283.224L302.304 282.816ZM294.312 286.104C294.96 287.136 295.656 288.528 295.92 289.416L297.504 288.768C297.216 287.928 296.472 286.536 295.824 285.552L294.312 286.104ZM304.152 286.056C304.968 287.136 305.832 288.624 306.192 289.56L307.752 288.864C307.368 287.904 306.432 286.488 305.64 285.456L304.152 286.056ZM296.4 297.144V298.464H303.672V297.144H296.4ZM290.544 292.128V304.896H292.296V292.128H290.544ZM296.4 290.112V291.72H308.616V290.112H296.4ZM291.624 290.064C292.632 290.952 293.808 292.248 294.312 293.088L295.704 292.104C295.152 291.264 293.976 290.04 292.944 289.176L291.624 290.064ZM307.68 290.112V302.76C307.68 303.096 307.56 303.192 307.176 303.216C306.84 303.24 305.544 303.24 304.2 303.192C304.464 303.648 304.704 304.32 304.776 304.776C306.6 304.8 307.776 304.776 308.496 304.512C309.216 304.248 309.432 303.768 309.432 302.76V290.112H307.68ZM297.216 295.128H302.88V300.624H297.216V295.128ZM295.656 293.712V302.016H304.488V293.712H295.656ZM323.904 284.688C326.04 288.072 330.168 291.624 334.008 293.664C334.32 293.136 334.752 292.488 335.208 292.056C331.368 290.304 327.192 286.776 324.744 282.84H322.848C321.048 286.248 317.112 290.136 312.864 292.344C313.272 292.728 313.776 293.376 313.992 293.832C318.12 291.528 321.984 287.904 323.904 284.688ZM327.288 291.312V304.896H329.136V291.312H327.288ZM318.72 291.408V294.72C318.72 297.696 318.288 301.104 313.776 303.672C314.232 303.96 314.928 304.56 315.216 304.944C320.04 302.112 320.568 298.176 320.568 294.768V291.408H318.72ZM337.08 285.696V287.4H344.712V285.696H337.08ZM340.128 286.464V298.368H341.904V286.464H340.128ZM336.672 298.608L337.152 300.456C339.36 299.712 342.288 298.728 345.072 297.744L344.856 296.208C341.784 297.12 338.688 298.056 336.672 298.608ZM345.12 283.92V285.552H358.968V283.92H345.12ZM350.952 284.616C350.664 285.768 350.16 287.4 349.68 288.48L351.312 288.84C351.84 287.832 352.512 286.32 353.064 284.928L350.952 284.616ZM350.832 291V296.064C350.832 298.608 350.184 301.68 343.632 303.456C344.016 303.84 344.568 304.488 344.76 304.872C351.552 302.736 352.632 299.232 352.632 296.088V291H350.832ZM352.512 300.84C354.384 302.04 356.712 303.768 357.864 304.92L359.064 303.624C357.888 302.52 355.488 300.84 353.664 299.712L352.512 300.84ZM346.008 288.048V299.352H347.76V289.68H355.56V299.304H357.384V288.048H346.008ZM365.016 290.016V291.72H378.912V290.016H365.016ZM365.016 295.704V297.408H378.912V295.704H365.016ZM365.016 301.416V303.168H378.912V301.416H365.016ZM363.768 284.328V304.8H365.568V286.104H378.192V304.8H380.064V284.328H363.768ZM388.512 284.952V286.464H395.832V284.952H388.512ZM397.584 284.976V286.512H406.32V284.976H397.584ZM388.944 282.792C388.152 285.072 386.784 287.256 385.152 288.672C385.584 288.888 386.304 289.368 386.64 289.656C388.224 288.12 389.76 285.72 390.648 283.224L388.944 282.792ZM398.304 282.816C397.704 284.904 396.6 286.872 395.232 288.168C395.664 288.408 396.384 288.888 396.72 289.2C398.064 287.76 399.312 285.528 400.008 283.224L398.304 282.816ZM390.312 286.104C390.96 287.136 391.656 288.528 391.92 289.416L393.504 288.768C393.216 287.928 392.472 286.536 391.824 285.552L390.312 286.104ZM400.152 286.056C400.968 287.136 401.832 288.624 402.192 289.56L403.752 288.864C403.368 287.904 402.432 286.488 401.64 285.456L400.152 286.056ZM392.4 297.144V298.464H399.672V297.144H392.4ZM386.544 292.128V304.896H388.296V292.128H386.544ZM392.4 290.112V291.72H404.616V290.112H392.4ZM387.624 290.064C388.632 290.952 389.808 292.248 390.312 293.088L391.704 292.104C391.152 291.264 389.976 290.04 388.944 289.176L387.624 290.064ZM403.68 290.112V302.76C403.68 303.096 403.56 303.192 403.176 303.216C402.84 303.24 401.544 303.24 400.2 303.192C400.464 303.648 400.704 304.32 400.776 304.776C402.6 304.8 403.776 304.776 404.496 304.512C405.216 304.248 405.432 303.768 405.432 302.76V290.112H403.68ZM393.216 295.128H398.88V300.624H393.216V295.128ZM391.656 293.712V302.016H400.488V293.712H391.656ZM419.904 284.688C422.04 288.072 426.168 291.624 430.008 293.664C430.32 293.136 430.752 292.488 431.208 292.056C427.368 290.304 423.192 286.776 420.744 282.84H418.848C417.048 286.248 413.112 290.136 408.864 292.344C409.272 292.728 409.776 293.376 409.992 293.832C414.12 291.528 417.984 287.904 419.904 284.688ZM423.288 291.312V304.896H425.136V291.312H423.288ZM414.72 291.408V294.72C414.72 297.696 414.288 301.104 409.776 303.672C410.232 303.96 410.928 304.56 411.216 304.944C416.04 302.112 416.568 298.176 416.568 294.768V291.408H414.72Z" fill="white"/>
</svg>
