<svg width="480" height="320" viewBox="0 0 480 320" fill="none" xmlns="http://www.w3.org/2000/svg">
<rect width="480" height="320" rx="18" fill="#F1F1F1"/>
<path d="M40.72 75.424V77.008H48.64V75.424H40.72ZM41.896 58.312V59.872H48.232V58.312H41.896ZM40.024 69.232V77.872H41.68V70.792H47.728V77.8H49.456V69.232H40.024ZM47.584 58.312V58.624C46.024 63.64 41.776 67.504 37.528 69.136C37.888 69.472 38.368 70.096 38.584 70.504C43.144 68.56 47.536 64.624 49.384 58.72L48.232 58.24L47.896 58.312H47.584ZM42.304 55.84C41.392 58.792 39.736 61.6 37.768 63.4C38.2 63.664 38.896 64.24 39.184 64.552C41.176 62.56 42.952 59.512 44.032 56.248L42.304 55.84ZM41.824 59.296L40.648 60.28C42.112 63.736 45.28 68.08 50.224 70.216C50.464 69.76 50.968 69.064 51.352 68.728C46.432 66.856 43.216 62.728 41.824 59.296ZM30.136 66.496V75.208H31.648V66.496H30.136ZM31.744 58.432H36.256V62.656H31.744V58.432ZM30.136 56.848V64.24H37.936V56.848H30.136ZM33.52 63.448V74.416H35.152V63.448H33.52ZM28.888 75.016L29.224 76.768C31.744 76.144 35.2 75.304 38.488 74.488L38.32 72.88C34.864 73.696 31.264 74.536 28.888 75.016ZM34.096 67.72V69.328H38.152V67.72H34.096ZM54.208 58.168V59.704H73.864V58.168H54.208ZM54.976 75.76V77.272H73.144V75.76H54.976ZM58.936 61.288V62.656H69.04V61.288H58.936ZM58.936 64.312V65.68H69.04V64.312H58.936ZM53.08 67.408V68.92H74.896V67.408H53.08ZM58.12 71.704V73.192H69.904V71.704H58.12ZM57.856 55.864V68.248H59.656V55.864H57.856ZM68.416 55.864V68.248H70.216V55.864H68.416ZM63.016 69.688V76.6H64.864V69.688H63.016ZM59.128 67.816C57.832 69.928 55.264 71.992 52.84 72.952C53.248 73.288 53.752 73.912 54.016 74.32C56.536 73.144 59.176 70.864 60.64 68.392L59.128 67.816ZM68.944 67.816L67.528 68.368C68.92 70.72 71.464 72.952 74.008 74.032C74.272 73.6 74.8 72.976 75.208 72.64C72.712 71.752 70.216 69.856 68.944 67.816Z" fill="black"/>
<path d="M36.48 129.616V130.672H41.76V129.616H36.48ZM37.264 118.208V119.248H41.488V118.208H37.264ZM36.016 125.488V131.248H37.12V126.528H41.152V131.2H42.304V125.488H36.016ZM41.056 118.208V118.416C40.016 121.76 37.184 124.336 34.352 125.424C34.592 125.648 34.912 126.064 35.056 126.336C38.096 125.04 41.024 122.416 42.256 118.48L41.488 118.16L41.264 118.208H41.056ZM37.536 116.56C36.928 118.528 35.824 120.4 34.512 121.6C34.8 121.776 35.264 122.16 35.456 122.368C36.784 121.04 37.968 119.008 38.688 116.832L37.536 116.56ZM37.216 118.864L36.432 119.52C37.408 121.824 39.52 124.72 42.816 126.144C42.976 125.84 43.312 125.376 43.568 125.152C40.288 123.904 38.144 121.152 37.216 118.864ZM29.424 123.664V129.472H30.432V123.664H29.424ZM30.496 118.288H33.504V121.104H30.496V118.288ZM29.424 117.232V122.16H34.624V117.232H29.424ZM31.68 121.632V128.944H32.768V121.632H31.68ZM28.592 129.344L28.816 130.512C30.496 130.096 32.8 129.536 34.992 128.992L34.88 127.92C32.576 128.464 30.176 129.024 28.592 129.344ZM32.064 124.48V125.552H34.768V124.48H32.064ZM45.472 118.112V119.136H58.576V118.112H45.472ZM45.984 129.84V130.848H58.096V129.84H45.984ZM48.624 120.192V121.104H55.36V120.192H48.624ZM48.624 122.208V123.12H55.36V122.208H48.624ZM44.72 124.272V125.28H59.264V124.272H44.72ZM48.08 127.136V128.128H55.936V127.136H48.08ZM47.904 116.576V124.832H49.104V116.576H47.904ZM54.944 116.576V124.832H56.144V116.576H54.944ZM51.344 125.792V130.4H52.576V125.792H51.344ZM48.752 124.544C47.888 125.952 46.176 127.328 44.56 127.968C44.832 128.192 45.168 128.608 45.344 128.88C47.024 128.096 48.784 126.576 49.76 124.928L48.752 124.544ZM55.296 124.544L54.352 124.912C55.28 126.48 56.976 127.968 58.672 128.688C58.848 128.4 59.2 127.984 59.472 127.76C57.808 127.168 56.144 125.904 55.296 124.544ZM68.48 129.616V130.672H73.76V129.616H68.48ZM69.264 118.208V119.248H73.488V118.208H69.264ZM68.016 125.488V131.248H69.12V126.528H73.152V131.2H74.304V125.488H68.016ZM73.056 118.208V118.416C72.016 121.76 69.184 124.336 66.352 125.424C66.592 125.648 66.912 126.064 67.056 126.336C70.096 125.04 73.024 122.416 74.256 118.48L73.488 118.16L73.264 118.208H73.056ZM69.536 116.56C68.928 118.528 67.824 120.4 66.512 121.6C66.8 121.776 67.264 122.16 67.456 122.368C68.784 121.04 69.968 119.008 70.688 116.832L69.536 116.56ZM69.216 118.864L68.432 119.52C69.408 121.824 71.52 124.72 74.816 126.144C74.976 125.84 75.312 125.376 75.568 125.152C72.288 123.904 70.144 121.152 69.216 118.864ZM61.424 123.664V129.472H62.432V123.664H61.424ZM62.496 118.288H65.504V121.104H62.496V118.288ZM61.424 117.232V122.16H66.624V117.232H61.424ZM63.68 121.632V128.944H64.768V121.632H63.68ZM60.592 129.344L60.816 130.512C62.496 130.096 64.8 129.536 66.992 128.992L66.88 127.92C64.576 128.464 62.176 129.024 60.592 129.344ZM64.064 124.48V125.552H66.768V124.48H64.064ZM77.472 118.112V119.136H90.576V118.112H77.472ZM77.984 129.84V130.848H90.096V129.84H77.984ZM80.624 120.192V121.104H87.36V120.192H80.624ZM80.624 122.208V123.12H87.36V122.208H80.624ZM76.72 124.272V125.28H91.264V124.272H76.72ZM80.08 127.136V128.128H87.936V127.136H80.08ZM79.904 116.576V124.832H81.104V116.576H79.904ZM86.944 116.576V124.832H88.144V116.576H86.944ZM83.344 125.792V130.4H84.576V125.792H83.344ZM80.752 124.544C79.888 125.952 78.176 127.328 76.56 127.968C76.832 128.192 77.168 128.608 77.344 128.88C79.024 128.096 80.784 126.576 81.76 124.928L80.752 124.544ZM87.296 124.544L86.352 124.912C87.28 126.48 88.976 127.968 90.672 128.688C90.848 128.4 91.2 127.984 91.472 127.76C89.808 127.168 88.144 125.904 87.296 124.544ZM100.48 129.616V130.672H105.76V129.616H100.48ZM101.264 118.208V119.248H105.488V118.208H101.264ZM100.016 125.488V131.248H101.12V126.528H105.152V131.2H106.304V125.488H100.016ZM105.056 118.208V118.416C104.016 121.76 101.184 124.336 98.352 125.424C98.592 125.648 98.912 126.064 99.056 126.336C102.096 125.04 105.024 122.416 106.256 118.48L105.488 118.16L105.264 118.208H105.056ZM101.536 116.56C100.928 118.528 99.824 120.4 98.512 121.6C98.8 121.776 99.264 122.16 99.456 122.368C100.784 121.04 101.968 119.008 102.688 116.832L101.536 116.56ZM101.216 118.864L100.432 119.52C101.408 121.824 103.52 124.72 106.816 126.144C106.976 125.84 107.312 125.376 107.568 125.152C104.288 123.904 102.144 121.152 101.216 118.864ZM93.424 123.664V129.472H94.432V123.664H93.424ZM94.496 118.288H97.504V121.104H94.496V118.288ZM93.424 117.232V122.16H98.624V117.232H93.424ZM95.68 121.632V128.944H96.768V121.632H95.68ZM92.592 129.344L92.816 130.512C94.496 130.096 96.8 129.536 98.992 128.992L98.88 127.92C96.576 128.464 94.176 129.024 92.592 129.344ZM96.064 124.48V125.552H98.768V124.48H96.064ZM109.472 118.112V119.136H122.576V118.112H109.472ZM109.984 129.84V130.848H122.096V129.84H109.984ZM112.624 120.192V121.104H119.36V120.192H112.624ZM112.624 122.208V123.12H119.36V122.208H112.624ZM108.72 124.272V125.28H123.264V124.272H108.72ZM112.08 127.136V128.128H119.936V127.136H112.08ZM111.904 116.576V124.832H113.104V116.576H111.904ZM118.944 116.576V124.832H120.144V116.576H118.944ZM115.344 125.792V130.4H116.576V125.792H115.344ZM112.752 124.544C111.888 125.952 110.176 127.328 108.56 127.968C108.832 128.192 109.168 128.608 109.344 128.88C111.024 128.096 112.784 126.576 113.76 124.928L112.752 124.544ZM119.296 124.544L118.352 124.912C119.28 126.48 120.976 127.968 122.672 128.688C122.848 128.4 123.2 127.984 123.472 127.76C121.808 127.168 120.144 125.904 119.296 124.544ZM132.48 129.616V130.672H137.76V129.616H132.48ZM133.264 118.208V119.248H137.488V118.208H133.264ZM132.016 125.488V131.248H133.12V126.528H137.152V131.2H138.304V125.488H132.016ZM137.056 118.208V118.416C136.016 121.76 133.184 124.336 130.352 125.424C130.592 125.648 130.912 126.064 131.056 126.336C134.096 125.04 137.024 122.416 138.256 118.48L137.488 118.16L137.264 118.208H137.056ZM133.536 116.56C132.928 118.528 131.824 120.4 130.512 121.6C130.8 121.776 131.264 122.16 131.456 122.368C132.784 121.04 133.968 119.008 134.688 116.832L133.536 116.56ZM133.216 118.864L132.432 119.52C133.408 121.824 135.52 124.72 138.816 126.144C138.976 125.84 139.312 125.376 139.568 125.152C136.288 123.904 134.144 121.152 133.216 118.864ZM125.424 123.664V129.472H126.432V123.664H125.424ZM126.496 118.288H129.504V121.104H126.496V118.288ZM125.424 117.232V122.16H130.624V117.232H125.424ZM127.68 121.632V128.944H128.768V121.632H127.68ZM124.592 129.344L124.816 130.512C126.496 130.096 128.8 129.536 130.992 128.992L130.88 127.92C128.576 128.464 126.176 129.024 124.592 129.344ZM128.064 124.48V125.552H130.768V124.48H128.064ZM141.472 118.112V119.136H154.576V118.112H141.472ZM141.984 129.84V130.848H154.096V129.84H141.984ZM144.624 120.192V121.104H151.36V120.192H144.624ZM144.624 122.208V123.12H151.36V122.208H144.624ZM140.72 124.272V125.28H155.264V124.272H140.72ZM144.08 127.136V128.128H151.936V127.136H144.08ZM143.904 116.576V124.832H145.104V116.576H143.904ZM150.944 116.576V124.832H152.144V116.576H150.944ZM147.344 125.792V130.4H148.576V125.792H147.344ZM144.752 124.544C143.888 125.952 142.176 127.328 140.56 127.968C140.832 128.192 141.168 128.608 141.344 128.88C143.024 128.096 144.784 126.576 145.76 124.928L144.752 124.544ZM151.296 124.544L150.352 124.912C151.28 126.48 152.976 127.968 154.672 128.688C154.848 128.4 155.2 127.984 155.472 127.76C153.808 127.168 152.144 125.904 151.296 124.544ZM164.48 129.616V130.672H169.76V129.616H164.48ZM165.264 118.208V119.248H169.488V118.208H165.264ZM164.016 125.488V131.248H165.12V126.528H169.152V131.2H170.304V125.488H164.016ZM169.056 118.208V118.416C168.016 121.76 165.184 124.336 162.352 125.424C162.592 125.648 162.912 126.064 163.056 126.336C166.096 125.04 169.024 122.416 170.256 118.48L169.488 118.16L169.264 118.208H169.056ZM165.536 116.56C164.928 118.528 163.824 120.4 162.512 121.6C162.8 121.776 163.264 122.16 163.456 122.368C164.784 121.04 165.968 119.008 166.688 116.832L165.536 116.56ZM165.216 118.864L164.432 119.52C165.408 121.824 167.52 124.72 170.816 126.144C170.976 125.84 171.312 125.376 171.568 125.152C168.288 123.904 166.144 121.152 165.216 118.864ZM157.424 123.664V129.472H158.432V123.664H157.424ZM158.496 118.288H161.504V121.104H158.496V118.288ZM157.424 117.232V122.16H162.624V117.232H157.424ZM159.68 121.632V128.944H160.768V121.632H159.68ZM156.592 129.344L156.816 130.512C158.496 130.096 160.8 129.536 162.992 128.992L162.88 127.92C160.576 128.464 158.176 129.024 156.592 129.344ZM160.064 124.48V125.552H162.768V124.48H160.064ZM173.472 118.112V119.136H186.576V118.112H173.472ZM173.984 129.84V130.848H186.096V129.84H173.984ZM176.624 120.192V121.104H183.36V120.192H176.624ZM176.624 122.208V123.12H183.36V122.208H176.624ZM172.72 124.272V125.28H187.264V124.272H172.72ZM176.08 127.136V128.128H183.936V127.136H176.08ZM175.904 116.576V124.832H177.104V116.576H175.904ZM182.944 116.576V124.832H184.144V116.576H182.944ZM179.344 125.792V130.4H180.576V125.792H179.344ZM176.752 124.544C175.888 125.952 174.176 127.328 172.56 127.968C172.832 128.192 173.168 128.608 173.344 128.88C175.024 128.096 176.784 126.576 177.76 124.928L176.752 124.544ZM183.296 124.544L182.352 124.912C183.28 126.48 184.976 127.968 186.672 128.688C186.848 128.4 187.2 127.984 187.472 127.76C185.808 127.168 184.144 125.904 183.296 124.544ZM196.48 129.616V130.672H201.76V129.616H196.48ZM197.264 118.208V119.248H201.488V118.208H197.264ZM196.016 125.488V131.248H197.12V126.528H201.152V131.2H202.304V125.488H196.016ZM201.056 118.208V118.416C200.016 121.76 197.184 124.336 194.352 125.424C194.592 125.648 194.912 126.064 195.056 126.336C198.096 125.04 201.024 122.416 202.256 118.48L201.488 118.16L201.264 118.208H201.056ZM197.536 116.56C196.928 118.528 195.824 120.4 194.512 121.6C194.8 121.776 195.264 122.16 195.456 122.368C196.784 121.04 197.968 119.008 198.688 116.832L197.536 116.56ZM197.216 118.864L196.432 119.52C197.408 121.824 199.52 124.72 202.816 126.144C202.976 125.84 203.312 125.376 203.568 125.152C200.288 123.904 198.144 121.152 197.216 118.864ZM189.424 123.664V129.472H190.432V123.664H189.424ZM190.496 118.288H193.504V121.104H190.496V118.288ZM189.424 117.232V122.16H194.624V117.232H189.424ZM191.68 121.632V128.944H192.768V121.632H191.68ZM188.592 129.344L188.816 130.512C190.496 130.096 192.8 129.536 194.992 128.992L194.88 127.92C192.576 128.464 190.176 129.024 188.592 129.344ZM192.064 124.48V125.552H194.768V124.48H192.064ZM205.472 118.112V119.136H218.576V118.112H205.472ZM205.984 129.84V130.848H218.096V129.84H205.984ZM208.624 120.192V121.104H215.36V120.192H208.624ZM208.624 122.208V123.12H215.36V122.208H208.624ZM204.72 124.272V125.28H219.264V124.272H204.72ZM208.08 127.136V128.128H215.936V127.136H208.08ZM207.904 116.576V124.832H209.104V116.576H207.904ZM214.944 116.576V124.832H216.144V116.576H214.944ZM211.344 125.792V130.4H212.576V125.792H211.344ZM208.752 124.544C207.888 125.952 206.176 127.328 204.56 127.968C204.832 128.192 205.168 128.608 205.344 128.88C207.024 128.096 208.784 126.576 209.76 124.928L208.752 124.544ZM215.296 124.544L214.352 124.912C215.28 126.48 216.976 127.968 218.672 128.688C218.848 128.4 219.2 127.984 219.472 127.76C217.808 127.168 216.144 125.904 215.296 124.544ZM228.48 129.616V130.672H233.76V129.616H228.48ZM229.264 118.208V119.248H233.488V118.208H229.264ZM228.016 125.488V131.248H229.12V126.528H233.152V131.2H234.304V125.488H228.016ZM233.056 118.208V118.416C232.016 121.76 229.184 124.336 226.352 125.424C226.592 125.648 226.912 126.064 227.056 126.336C230.096 125.04 233.024 122.416 234.256 118.48L233.488 118.16L233.264 118.208H233.056ZM229.536 116.56C228.928 118.528 227.824 120.4 226.512 121.6C226.8 121.776 227.264 122.16 227.456 122.368C228.784 121.04 229.968 119.008 230.688 116.832L229.536 116.56ZM229.216 118.864L228.432 119.52C229.408 121.824 231.52 124.72 234.816 126.144C234.976 125.84 235.312 125.376 235.568 125.152C232.288 123.904 230.144 121.152 229.216 118.864ZM221.424 123.664V129.472H222.432V123.664H221.424ZM222.496 118.288H225.504V121.104H222.496V118.288ZM221.424 117.232V122.16H226.624V117.232H221.424ZM223.68 121.632V128.944H224.768V121.632H223.68ZM220.592 129.344L220.816 130.512C222.496 130.096 224.8 129.536 226.992 128.992L226.88 127.92C224.576 128.464 222.176 129.024 220.592 129.344ZM224.064 124.48V125.552H226.768V124.48H224.064ZM237.472 118.112V119.136H250.576V118.112H237.472ZM237.984 129.84V130.848H250.096V129.84H237.984ZM240.624 120.192V121.104H247.36V120.192H240.624ZM240.624 122.208V123.12H247.36V122.208H240.624ZM236.72 124.272V125.28H251.264V124.272H236.72ZM240.08 127.136V128.128H247.936V127.136H240.08ZM239.904 116.576V124.832H241.104V116.576H239.904ZM246.944 116.576V124.832H248.144V116.576H246.944ZM243.344 125.792V130.4H244.576V125.792H243.344ZM240.752 124.544C239.888 125.952 238.176 127.328 236.56 127.968C236.832 128.192 237.168 128.608 237.344 128.88C239.024 128.096 240.784 126.576 241.76 124.928L240.752 124.544ZM247.296 124.544L246.352 124.912C247.28 126.48 248.976 127.968 250.672 128.688C250.848 128.4 251.2 127.984 251.472 127.76C249.808 127.168 248.144 125.904 247.296 124.544ZM260.48 129.616V130.672H265.76V129.616H260.48ZM261.264 118.208V119.248H265.488V118.208H261.264ZM260.016 125.488V131.248H261.12V126.528H265.152V131.2H266.304V125.488H260.016ZM265.056 118.208V118.416C264.016 121.76 261.184 124.336 258.352 125.424C258.592 125.648 258.912 126.064 259.056 126.336C262.096 125.04 265.024 122.416 266.256 118.48L265.488 118.16L265.264 118.208H265.056ZM261.536 116.56C260.928 118.528 259.824 120.4 258.512 121.6C258.8 121.776 259.264 122.16 259.456 122.368C260.784 121.04 261.968 119.008 262.688 116.832L261.536 116.56ZM261.216 118.864L260.432 119.52C261.408 121.824 263.52 124.72 266.816 126.144C266.976 125.84 267.312 125.376 267.568 125.152C264.288 123.904 262.144 121.152 261.216 118.864ZM253.424 123.664V129.472H254.432V123.664H253.424ZM254.496 118.288H257.504V121.104H254.496V118.288ZM253.424 117.232V122.16H258.624V117.232H253.424ZM255.68 121.632V128.944H256.768V121.632H255.68ZM252.592 129.344L252.816 130.512C254.496 130.096 256.8 129.536 258.992 128.992L258.88 127.92C256.576 128.464 254.176 129.024 252.592 129.344ZM256.064 124.48V125.552H258.768V124.48H256.064ZM269.472 118.112V119.136H282.576V118.112H269.472ZM269.984 129.84V130.848H282.096V129.84H269.984ZM272.624 120.192V121.104H279.36V120.192H272.624ZM272.624 122.208V123.12H279.36V122.208H272.624ZM268.72 124.272V125.28H283.264V124.272H268.72ZM272.08 127.136V128.128H279.936V127.136H272.08ZM271.904 116.576V124.832H273.104V116.576H271.904ZM278.944 116.576V124.832H280.144V116.576H278.944ZM275.344 125.792V130.4H276.576V125.792H275.344ZM272.752 124.544C271.888 125.952 270.176 127.328 268.56 127.968C268.832 128.192 269.168 128.608 269.344 128.88C271.024 128.096 272.784 126.576 273.76 124.928L272.752 124.544ZM279.296 124.544L278.352 124.912C279.28 126.48 280.976 127.968 282.672 128.688C282.848 128.4 283.2 127.984 283.472 127.76C281.808 127.168 280.144 125.904 279.296 124.544ZM292.48 129.616V130.672H297.76V129.616H292.48ZM293.264 118.208V119.248H297.488V118.208H293.264ZM292.016 125.488V131.248H293.12V126.528H297.152V131.2H298.304V125.488H292.016ZM297.056 118.208V118.416C296.016 121.76 293.184 124.336 290.352 125.424C290.592 125.648 290.912 126.064 291.056 126.336C294.096 125.04 297.024 122.416 298.256 118.48L297.488 118.16L297.264 118.208H297.056ZM293.536 116.56C292.928 118.528 291.824 120.4 290.512 121.6C290.8 121.776 291.264 122.16 291.456 122.368C292.784 121.04 293.968 119.008 294.688 116.832L293.536 116.56ZM293.216 118.864L292.432 119.52C293.408 121.824 295.52 124.72 298.816 126.144C298.976 125.84 299.312 125.376 299.568 125.152C296.288 123.904 294.144 121.152 293.216 118.864ZM285.424 123.664V129.472H286.432V123.664H285.424ZM286.496 118.288H289.504V121.104H286.496V118.288ZM285.424 117.232V122.16H290.624V117.232H285.424ZM287.68 121.632V128.944H288.768V121.632H287.68ZM284.592 129.344L284.816 130.512C286.496 130.096 288.8 129.536 290.992 128.992L290.88 127.92C288.576 128.464 286.176 129.024 284.592 129.344ZM288.064 124.48V125.552H290.768V124.48H288.064ZM301.472 118.112V119.136H314.576V118.112H301.472ZM301.984 129.84V130.848H314.096V129.84H301.984ZM304.624 120.192V121.104H311.36V120.192H304.624ZM304.624 122.208V123.12H311.36V122.208H304.624ZM300.72 124.272V125.28H315.264V124.272H300.72ZM304.08 127.136V128.128H311.936V127.136H304.08ZM303.904 116.576V124.832H305.104V116.576H303.904ZM310.944 116.576V124.832H312.144V116.576H310.944ZM307.344 125.792V130.4H308.576V125.792H307.344ZM304.752 124.544C303.888 125.952 302.176 127.328 300.56 127.968C300.832 128.192 301.168 128.608 301.344 128.88C303.024 128.096 304.784 126.576 305.76 124.928L304.752 124.544ZM311.296 124.544L310.352 124.912C311.28 126.48 312.976 127.968 314.672 128.688C314.848 128.4 315.2 127.984 315.472 127.76C313.808 127.168 312.144 125.904 311.296 124.544ZM324.48 129.616V130.672H329.76V129.616H324.48ZM325.264 118.208V119.248H329.488V118.208H325.264ZM324.016 125.488V131.248H325.12V126.528H329.152V131.2H330.304V125.488H324.016ZM329.056 118.208V118.416C328.016 121.76 325.184 124.336 322.352 125.424C322.592 125.648 322.912 126.064 323.056 126.336C326.096 125.04 329.024 122.416 330.256 118.48L329.488 118.16L329.264 118.208H329.056ZM325.536 116.56C324.928 118.528 323.824 120.4 322.512 121.6C322.8 121.776 323.264 122.16 323.456 122.368C324.784 121.04 325.968 119.008 326.688 116.832L325.536 116.56ZM325.216 118.864L324.432 119.52C325.408 121.824 327.52 124.72 330.816 126.144C330.976 125.84 331.312 125.376 331.568 125.152C328.288 123.904 326.144 121.152 325.216 118.864ZM317.424 123.664V129.472H318.432V123.664H317.424ZM318.496 118.288H321.504V121.104H318.496V118.288ZM317.424 117.232V122.16H322.624V117.232H317.424ZM319.68 121.632V128.944H320.768V121.632H319.68ZM316.592 129.344L316.816 130.512C318.496 130.096 320.8 129.536 322.992 128.992L322.88 127.92C320.576 128.464 318.176 129.024 316.592 129.344ZM320.064 124.48V125.552H322.768V124.48H320.064ZM333.472 118.112V119.136H346.576V118.112H333.472ZM333.984 129.84V130.848H346.096V129.84H333.984ZM336.624 120.192V121.104H343.36V120.192H336.624ZM336.624 122.208V123.12H343.36V122.208H336.624ZM332.72 124.272V125.28H347.264V124.272H332.72ZM336.08 127.136V128.128H343.936V127.136H336.08ZM335.904 116.576V124.832H337.104V116.576H335.904ZM342.944 116.576V124.832H344.144V116.576H342.944ZM339.344 125.792V130.4H340.576V125.792H339.344ZM336.752 124.544C335.888 125.952 334.176 127.328 332.56 127.968C332.832 128.192 333.168 128.608 333.344 128.88C335.024 128.096 336.784 126.576 337.76 124.928L336.752 124.544ZM343.296 124.544L342.352 124.912C343.28 126.48 344.976 127.968 346.672 128.688C346.848 128.4 347.2 127.984 347.472 127.76C345.808 127.168 344.144 125.904 343.296 124.544ZM356.48 129.616V130.672H361.76V129.616H356.48ZM357.264 118.208V119.248H361.488V118.208H357.264ZM356.016 125.488V131.248H357.12V126.528H361.152V131.2H362.304V125.488H356.016ZM361.056 118.208V118.416C360.016 121.76 357.184 124.336 354.352 125.424C354.592 125.648 354.912 126.064 355.056 126.336C358.096 125.04 361.024 122.416 362.256 118.48L361.488 118.16L361.264 118.208H361.056ZM357.536 116.56C356.928 118.528 355.824 120.4 354.512 121.6C354.8 121.776 355.264 122.16 355.456 122.368C356.784 121.04 357.968 119.008 358.688 116.832L357.536 116.56ZM357.216 118.864L356.432 119.52C357.408 121.824 359.52 124.72 362.816 126.144C362.976 125.84 363.312 125.376 363.568 125.152C360.288 123.904 358.144 121.152 357.216 118.864ZM349.424 123.664V129.472H350.432V123.664H349.424ZM350.496 118.288H353.504V121.104H350.496V118.288ZM349.424 117.232V122.16H354.624V117.232H349.424ZM351.68 121.632V128.944H352.768V121.632H351.68ZM348.592 129.344L348.816 130.512C350.496 130.096 352.8 129.536 354.992 128.992L354.88 127.92C352.576 128.464 350.176 129.024 348.592 129.344ZM352.064 124.48V125.552H354.768V124.48H352.064ZM365.472 118.112V119.136H378.576V118.112H365.472ZM365.984 129.84V130.848H378.096V129.84H365.984ZM368.624 120.192V121.104H375.36V120.192H368.624ZM368.624 122.208V123.12H375.36V122.208H368.624ZM364.72 124.272V125.28H379.264V124.272H364.72ZM368.08 127.136V128.128H375.936V127.136H368.08ZM367.904 116.576V124.832H369.104V116.576H367.904ZM374.944 116.576V124.832H376.144V116.576H374.944ZM371.344 125.792V130.4H372.576V125.792H371.344ZM368.752 124.544C367.888 125.952 366.176 127.328 364.56 127.968C364.832 128.192 365.168 128.608 365.344 128.88C367.024 128.096 368.784 126.576 369.76 124.928L368.752 124.544ZM375.296 124.544L374.352 124.912C375.28 126.48 376.976 127.968 378.672 128.688C378.848 128.4 379.2 127.984 379.472 127.76C377.808 127.168 376.144 125.904 375.296 124.544ZM388.48 129.616V130.672H393.76V129.616H388.48ZM389.264 118.208V119.248H393.488V118.208H389.264ZM388.016 125.488V131.248H389.12V126.528H393.152V131.2H394.304V125.488H388.016ZM393.056 118.208V118.416C392.016 121.76 389.184 124.336 386.352 125.424C386.592 125.648 386.912 126.064 387.056 126.336C390.096 125.04 393.024 122.416 394.256 118.48L393.488 118.16L393.264 118.208H393.056ZM389.536 116.56C388.928 118.528 387.824 120.4 386.512 121.6C386.8 121.776 387.264 122.16 387.456 122.368C388.784 121.04 389.968 119.008 390.688 116.832L389.536 116.56ZM389.216 118.864L388.432 119.52C389.408 121.824 391.52 124.72 394.816 126.144C394.976 125.84 395.312 125.376 395.568 125.152C392.288 123.904 390.144 121.152 389.216 118.864ZM381.424 123.664V129.472H382.432V123.664H381.424ZM382.496 118.288H385.504V121.104H382.496V118.288ZM381.424 117.232V122.16H386.624V117.232H381.424ZM383.68 121.632V128.944H384.768V121.632H383.68ZM380.592 129.344L380.816 130.512C382.496 130.096 384.8 129.536 386.992 128.992L386.88 127.92C384.576 128.464 382.176 129.024 380.592 129.344ZM384.064 124.48V125.552H386.768V124.48H384.064ZM397.472 118.112V119.136H410.576V118.112H397.472ZM397.984 129.84V130.848H410.096V129.84H397.984ZM400.624 120.192V121.104H407.36V120.192H400.624ZM400.624 122.208V123.12H407.36V122.208H400.624ZM396.72 124.272V125.28H411.264V124.272H396.72ZM400.08 127.136V128.128H407.936V127.136H400.08ZM399.904 116.576V124.832H401.104V116.576H399.904ZM406.944 116.576V124.832H408.144V116.576H406.944ZM403.344 125.792V130.4H404.576V125.792H403.344ZM400.752 124.544C399.888 125.952 398.176 127.328 396.56 127.968C396.832 128.192 397.168 128.608 397.344 128.88C399.024 128.096 400.784 126.576 401.76 124.928L400.752 124.544ZM407.296 124.544L406.352 124.912C407.28 126.48 408.976 127.968 410.672 128.688C410.848 128.4 411.2 127.984 411.472 127.76C409.808 127.168 408.144 125.904 407.296 124.544ZM420.48 129.616V130.672H425.76V129.616H420.48ZM421.264 118.208V119.248H425.488V118.208H421.264ZM420.016 125.488V131.248H421.12V126.528H425.152V131.2H426.304V125.488H420.016ZM425.056 118.208V118.416C424.016 121.76 421.184 124.336 418.352 125.424C418.592 125.648 418.912 126.064 419.056 126.336C422.096 125.04 425.024 122.416 426.256 118.48L425.488 118.16L425.264 118.208H425.056ZM421.536 116.56C420.928 118.528 419.824 120.4 418.512 121.6C418.8 121.776 419.264 122.16 419.456 122.368C420.784 121.04 421.968 119.008 422.688 116.832L421.536 116.56ZM421.216 118.864L420.432 119.52C421.408 121.824 423.52 124.72 426.816 126.144C426.976 125.84 427.312 125.376 427.568 125.152C424.288 123.904 422.144 121.152 421.216 118.864ZM413.424 123.664V129.472H414.432V123.664H413.424ZM414.496 118.288H417.504V121.104H414.496V118.288ZM413.424 117.232V122.16H418.624V117.232H413.424ZM415.68 121.632V128.944H416.768V121.632H415.68ZM412.592 129.344L412.816 130.512C414.496 130.096 416.8 129.536 418.992 128.992L418.88 127.92C416.576 128.464 414.176 129.024 412.592 129.344ZM416.064 124.48V125.552H418.768V124.48H416.064ZM429.472 118.112V119.136H442.576V118.112H429.472ZM429.984 129.84V130.848H442.096V129.84H429.984ZM432.624 120.192V121.104H439.36V120.192H432.624ZM432.624 122.208V123.12H439.36V122.208H432.624ZM428.72 124.272V125.28H443.264V124.272H428.72ZM432.08 127.136V128.128H439.936V127.136H432.08ZM431.904 116.576V124.832H433.104V116.576H431.904ZM438.944 116.576V124.832H440.144V116.576H438.944ZM435.344 125.792V130.4H436.576V125.792H435.344ZM432.752 124.544C431.888 125.952 430.176 127.328 428.56 127.968C428.832 128.192 429.168 128.608 429.344 128.88C431.024 128.096 432.784 126.576 433.76 124.928L432.752 124.544ZM439.296 124.544L438.352 124.912C439.28 126.48 440.976 127.968 442.672 128.688C442.848 128.4 443.2 127.984 443.472 127.76C441.808 127.168 440.144 125.904 439.296 124.544ZM36.48 155.616V156.672H41.76V155.616H36.48ZM37.264 144.208V145.248H41.488V144.208H37.264ZM36.016 151.488V157.248H37.12V152.528H41.152V157.2H42.304V151.488H36.016ZM41.056 144.208V144.416C40.016 147.76 37.184 150.336 34.352 151.424C34.592 151.648 34.912 152.064 35.056 152.336C38.096 151.04 41.024 148.416 42.256 144.48L41.488 144.16L41.264 144.208H41.056ZM37.536 142.56C36.928 144.528 35.824 146.4 34.512 147.6C34.8 147.776 35.264 148.16 35.456 148.368C36.784 147.04 37.968 145.008 38.688 142.832L37.536 142.56ZM37.216 144.864L36.432 145.52C37.408 147.824 39.52 150.72 42.816 152.144C42.976 151.84 43.312 151.376 43.568 151.152C40.288 149.904 38.144 147.152 37.216 144.864ZM29.424 149.664V155.472H30.432V149.664H29.424ZM30.496 144.288H33.504V147.104H30.496V144.288ZM29.424 143.232V148.16H34.624V143.232H29.424ZM31.68 147.632V154.944H32.768V147.632H31.68ZM28.592 155.344L28.816 156.512C30.496 156.096 32.8 155.536 34.992 154.992L34.88 153.92C32.576 154.464 30.176 155.024 28.592 155.344ZM32.064 150.48V151.552H34.768V150.48H32.064ZM45.472 144.112V145.136H58.576V144.112H45.472ZM45.984 155.84V156.848H58.096V155.84H45.984ZM48.624 146.192V147.104H55.36V146.192H48.624ZM48.624 148.208V149.12H55.36V148.208H48.624ZM44.72 150.272V151.28H59.264V150.272H44.72ZM48.08 153.136V154.128H55.936V153.136H48.08ZM47.904 142.576V150.832H49.104V142.576H47.904ZM54.944 142.576V150.832H56.144V142.576H54.944ZM51.344 151.792V156.4H52.576V151.792H51.344ZM48.752 150.544C47.888 151.952 46.176 153.328 44.56 153.968C44.832 154.192 45.168 154.608 45.344 154.88C47.024 154.096 48.784 152.576 49.76 150.928L48.752 150.544ZM55.296 150.544L54.352 150.912C55.28 152.48 56.976 153.968 58.672 154.688C58.848 154.4 59.2 153.984 59.472 153.76C57.808 153.168 56.144 151.904 55.296 150.544ZM68.48 155.616V156.672H73.76V155.616H68.48ZM69.264 144.208V145.248H73.488V144.208H69.264ZM68.016 151.488V157.248H69.12V152.528H73.152V157.2H74.304V151.488H68.016ZM73.056 144.208V144.416C72.016 147.76 69.184 150.336 66.352 151.424C66.592 151.648 66.912 152.064 67.056 152.336C70.096 151.04 73.024 148.416 74.256 144.48L73.488 144.16L73.264 144.208H73.056ZM69.536 142.56C68.928 144.528 67.824 146.4 66.512 147.6C66.8 147.776 67.264 148.16 67.456 148.368C68.784 147.04 69.968 145.008 70.688 142.832L69.536 142.56ZM69.216 144.864L68.432 145.52C69.408 147.824 71.52 150.72 74.816 152.144C74.976 151.84 75.312 151.376 75.568 151.152C72.288 149.904 70.144 147.152 69.216 144.864ZM61.424 149.664V155.472H62.432V149.664H61.424ZM62.496 144.288H65.504V147.104H62.496V144.288ZM61.424 143.232V148.16H66.624V143.232H61.424ZM63.68 147.632V154.944H64.768V147.632H63.68ZM60.592 155.344L60.816 156.512C62.496 156.096 64.8 155.536 66.992 154.992L66.88 153.92C64.576 154.464 62.176 155.024 60.592 155.344ZM64.064 150.48V151.552H66.768V150.48H64.064ZM77.472 144.112V145.136H90.576V144.112H77.472ZM77.984 155.84V156.848H90.096V155.84H77.984ZM80.624 146.192V147.104H87.36V146.192H80.624ZM80.624 148.208V149.12H87.36V148.208H80.624ZM76.72 150.272V151.28H91.264V150.272H76.72ZM80.08 153.136V154.128H87.936V153.136H80.08ZM79.904 142.576V150.832H81.104V142.576H79.904ZM86.944 142.576V150.832H88.144V142.576H86.944ZM83.344 151.792V156.4H84.576V151.792H83.344ZM80.752 150.544C79.888 151.952 78.176 153.328 76.56 153.968C76.832 154.192 77.168 154.608 77.344 154.88C79.024 154.096 80.784 152.576 81.76 150.928L80.752 150.544ZM87.296 150.544L86.352 150.912C87.28 152.48 88.976 153.968 90.672 154.688C90.848 154.4 91.2 153.984 91.472 153.76C89.808 153.168 88.144 151.904 87.296 150.544ZM100.48 155.616V156.672H105.76V155.616H100.48ZM101.264 144.208V145.248H105.488V144.208H101.264ZM100.016 151.488V157.248H101.12V152.528H105.152V157.2H106.304V151.488H100.016ZM105.056 144.208V144.416C104.016 147.76 101.184 150.336 98.352 151.424C98.592 151.648 98.912 152.064 99.056 152.336C102.096 151.04 105.024 148.416 106.256 144.48L105.488 144.16L105.264 144.208H105.056ZM101.536 142.56C100.928 144.528 99.824 146.4 98.512 147.6C98.8 147.776 99.264 148.16 99.456 148.368C100.784 147.04 101.968 145.008 102.688 142.832L101.536 142.56ZM101.216 144.864L100.432 145.52C101.408 147.824 103.52 150.72 106.816 152.144C106.976 151.84 107.312 151.376 107.568 151.152C104.288 149.904 102.144 147.152 101.216 144.864ZM93.424 149.664V155.472H94.432V149.664H93.424ZM94.496 144.288H97.504V147.104H94.496V144.288ZM93.424 143.232V148.16H98.624V143.232H93.424ZM95.68 147.632V154.944H96.768V147.632H95.68ZM92.592 155.344L92.816 156.512C94.496 156.096 96.8 155.536 98.992 154.992L98.88 153.92C96.576 154.464 94.176 155.024 92.592 155.344ZM96.064 150.48V151.552H98.768V150.48H96.064ZM109.472 144.112V145.136H122.576V144.112H109.472ZM109.984 155.84V156.848H122.096V155.84H109.984ZM112.624 146.192V147.104H119.36V146.192H112.624ZM112.624 148.208V149.12H119.36V148.208H112.624ZM108.72 150.272V151.28H123.264V150.272H108.72ZM112.08 153.136V154.128H119.936V153.136H112.08ZM111.904 142.576V150.832H113.104V142.576H111.904ZM118.944 142.576V150.832H120.144V142.576H118.944ZM115.344 151.792V156.4H116.576V151.792H115.344ZM112.752 150.544C111.888 151.952 110.176 153.328 108.56 153.968C108.832 154.192 109.168 154.608 109.344 154.88C111.024 154.096 112.784 152.576 113.76 150.928L112.752 150.544ZM119.296 150.544L118.352 150.912C119.28 152.48 120.976 153.968 122.672 154.688C122.848 154.4 123.2 153.984 123.472 153.76C121.808 153.168 120.144 151.904 119.296 150.544ZM132.48 155.616V156.672H137.76V155.616H132.48ZM133.264 144.208V145.248H137.488V144.208H133.264ZM132.016 151.488V157.248H133.12V152.528H137.152V157.2H138.304V151.488H132.016ZM137.056 144.208V144.416C136.016 147.76 133.184 150.336 130.352 151.424C130.592 151.648 130.912 152.064 131.056 152.336C134.096 151.04 137.024 148.416 138.256 144.48L137.488 144.16L137.264 144.208H137.056ZM133.536 142.56C132.928 144.528 131.824 146.4 130.512 147.6C130.8 147.776 131.264 148.16 131.456 148.368C132.784 147.04 133.968 145.008 134.688 142.832L133.536 142.56ZM133.216 144.864L132.432 145.52C133.408 147.824 135.52 150.72 138.816 152.144C138.976 151.84 139.312 151.376 139.568 151.152C136.288 149.904 134.144 147.152 133.216 144.864ZM125.424 149.664V155.472H126.432V149.664H125.424ZM126.496 144.288H129.504V147.104H126.496V144.288ZM125.424 143.232V148.16H130.624V143.232H125.424ZM127.68 147.632V154.944H128.768V147.632H127.68ZM124.592 155.344L124.816 156.512C126.496 156.096 128.8 155.536 130.992 154.992L130.88 153.92C128.576 154.464 126.176 155.024 124.592 155.344ZM128.064 150.48V151.552H130.768V150.48H128.064ZM141.472 144.112V145.136H154.576V144.112H141.472ZM141.984 155.84V156.848H154.096V155.84H141.984ZM144.624 146.192V147.104H151.36V146.192H144.624ZM144.624 148.208V149.12H151.36V148.208H144.624ZM140.72 150.272V151.28H155.264V150.272H140.72ZM144.08 153.136V154.128H151.936V153.136H144.08ZM143.904 142.576V150.832H145.104V142.576H143.904ZM150.944 142.576V150.832H152.144V142.576H150.944ZM147.344 151.792V156.4H148.576V151.792H147.344ZM144.752 150.544C143.888 151.952 142.176 153.328 140.56 153.968C140.832 154.192 141.168 154.608 141.344 154.88C143.024 154.096 144.784 152.576 145.76 150.928L144.752 150.544ZM151.296 150.544L150.352 150.912C151.28 152.48 152.976 153.968 154.672 154.688C154.848 154.4 155.2 153.984 155.472 153.76C153.808 153.168 152.144 151.904 151.296 150.544ZM164.48 155.616V156.672H169.76V155.616H164.48ZM165.264 144.208V145.248H169.488V144.208H165.264ZM164.016 151.488V157.248H165.12V152.528H169.152V157.2H170.304V151.488H164.016ZM169.056 144.208V144.416C168.016 147.76 165.184 150.336 162.352 151.424C162.592 151.648 162.912 152.064 163.056 152.336C166.096 151.04 169.024 148.416 170.256 144.48L169.488 144.16L169.264 144.208H169.056ZM165.536 142.56C164.928 144.528 163.824 146.4 162.512 147.6C162.8 147.776 163.264 148.16 163.456 148.368C164.784 147.04 165.968 145.008 166.688 142.832L165.536 142.56ZM165.216 144.864L164.432 145.52C165.408 147.824 167.52 150.72 170.816 152.144C170.976 151.84 171.312 151.376 171.568 151.152C168.288 149.904 166.144 147.152 165.216 144.864ZM157.424 149.664V155.472H158.432V149.664H157.424ZM158.496 144.288H161.504V147.104H158.496V144.288ZM157.424 143.232V148.16H162.624V143.232H157.424ZM159.68 147.632V154.944H160.768V147.632H159.68ZM156.592 155.344L156.816 156.512C158.496 156.096 160.8 155.536 162.992 154.992L162.88 153.92C160.576 154.464 158.176 155.024 156.592 155.344ZM160.064 150.48V151.552H162.768V150.48H160.064ZM173.472 144.112V145.136H186.576V144.112H173.472ZM173.984 155.84V156.848H186.096V155.84H173.984ZM176.624 146.192V147.104H183.36V146.192H176.624ZM176.624 148.208V149.12H183.36V148.208H176.624ZM172.72 150.272V151.28H187.264V150.272H172.72ZM176.08 153.136V154.128H183.936V153.136H176.08ZM175.904 142.576V150.832H177.104V142.576H175.904ZM182.944 142.576V150.832H184.144V142.576H182.944ZM179.344 151.792V156.4H180.576V151.792H179.344ZM176.752 150.544C175.888 151.952 174.176 153.328 172.56 153.968C172.832 154.192 173.168 154.608 173.344 154.88C175.024 154.096 176.784 152.576 177.76 150.928L176.752 150.544ZM183.296 150.544L182.352 150.912C183.28 152.48 184.976 153.968 186.672 154.688C186.848 154.4 187.2 153.984 187.472 153.76C185.808 153.168 184.144 151.904 183.296 150.544ZM196.48 155.616V156.672H201.76V155.616H196.48ZM197.264 144.208V145.248H201.488V144.208H197.264ZM196.016 151.488V157.248H197.12V152.528H201.152V157.2H202.304V151.488H196.016ZM201.056 144.208V144.416C200.016 147.76 197.184 150.336 194.352 151.424C194.592 151.648 194.912 152.064 195.056 152.336C198.096 151.04 201.024 148.416 202.256 144.48L201.488 144.16L201.264 144.208H201.056ZM197.536 142.56C196.928 144.528 195.824 146.4 194.512 147.6C194.8 147.776 195.264 148.16 195.456 148.368C196.784 147.04 197.968 145.008 198.688 142.832L197.536 142.56ZM197.216 144.864L196.432 145.52C197.408 147.824 199.52 150.72 202.816 152.144C202.976 151.84 203.312 151.376 203.568 151.152C200.288 149.904 198.144 147.152 197.216 144.864ZM189.424 149.664V155.472H190.432V149.664H189.424ZM190.496 144.288H193.504V147.104H190.496V144.288ZM189.424 143.232V148.16H194.624V143.232H189.424ZM191.68 147.632V154.944H192.768V147.632H191.68ZM188.592 155.344L188.816 156.512C190.496 156.096 192.8 155.536 194.992 154.992L194.88 153.92C192.576 154.464 190.176 155.024 188.592 155.344ZM192.064 150.48V151.552H194.768V150.48H192.064ZM205.472 144.112V145.136H218.576V144.112H205.472ZM205.984 155.84V156.848H218.096V155.84H205.984ZM208.624 146.192V147.104H215.36V146.192H208.624ZM208.624 148.208V149.12H215.36V148.208H208.624ZM204.72 150.272V151.28H219.264V150.272H204.72ZM208.08 153.136V154.128H215.936V153.136H208.08ZM207.904 142.576V150.832H209.104V142.576H207.904ZM214.944 142.576V150.832H216.144V142.576H214.944ZM211.344 151.792V156.4H212.576V151.792H211.344ZM208.752 150.544C207.888 151.952 206.176 153.328 204.56 153.968C204.832 154.192 205.168 154.608 205.344 154.88C207.024 154.096 208.784 152.576 209.76 150.928L208.752 150.544ZM215.296 150.544L214.352 150.912C215.28 152.48 216.976 153.968 218.672 154.688C218.848 154.4 219.2 153.984 219.472 153.76C217.808 153.168 216.144 151.904 215.296 150.544ZM228.48 155.616V156.672H233.76V155.616H228.48ZM229.264 144.208V145.248H233.488V144.208H229.264ZM228.016 151.488V157.248H229.12V152.528H233.152V157.2H234.304V151.488H228.016ZM233.056 144.208V144.416C232.016 147.76 229.184 150.336 226.352 151.424C226.592 151.648 226.912 152.064 227.056 152.336C230.096 151.04 233.024 148.416 234.256 144.48L233.488 144.16L233.264 144.208H233.056ZM229.536 142.56C228.928 144.528 227.824 146.4 226.512 147.6C226.8 147.776 227.264 148.16 227.456 148.368C228.784 147.04 229.968 145.008 230.688 142.832L229.536 142.56ZM229.216 144.864L228.432 145.52C229.408 147.824 231.52 150.72 234.816 152.144C234.976 151.84 235.312 151.376 235.568 151.152C232.288 149.904 230.144 147.152 229.216 144.864ZM221.424 149.664V155.472H222.432V149.664H221.424ZM222.496 144.288H225.504V147.104H222.496V144.288ZM221.424 143.232V148.16H226.624V143.232H221.424ZM223.68 147.632V154.944H224.768V147.632H223.68ZM220.592 155.344L220.816 156.512C222.496 156.096 224.8 155.536 226.992 154.992L226.88 153.92C224.576 154.464 222.176 155.024 220.592 155.344ZM224.064 150.48V151.552H226.768V150.48H224.064ZM237.472 144.112V145.136H250.576V144.112H237.472ZM237.984 155.84V156.848H250.096V155.84H237.984ZM240.624 146.192V147.104H247.36V146.192H240.624ZM240.624 148.208V149.12H247.36V148.208H240.624ZM236.72 150.272V151.28H251.264V150.272H236.72ZM240.08 153.136V154.128H247.936V153.136H240.08ZM239.904 142.576V150.832H241.104V142.576H239.904ZM246.944 142.576V150.832H248.144V142.576H246.944ZM243.344 151.792V156.4H244.576V151.792H243.344ZM240.752 150.544C239.888 151.952 238.176 153.328 236.56 153.968C236.832 154.192 237.168 154.608 237.344 154.88C239.024 154.096 240.784 152.576 241.76 150.928L240.752 150.544ZM247.296 150.544L246.352 150.912C247.28 152.48 248.976 153.968 250.672 154.688C250.848 154.4 251.2 153.984 251.472 153.76C249.808 153.168 248.144 151.904 247.296 150.544ZM260.48 155.616V156.672H265.76V155.616H260.48ZM261.264 144.208V145.248H265.488V144.208H261.264ZM260.016 151.488V157.248H261.12V152.528H265.152V157.2H266.304V151.488H260.016ZM265.056 144.208V144.416C264.016 147.76 261.184 150.336 258.352 151.424C258.592 151.648 258.912 152.064 259.056 152.336C262.096 151.04 265.024 148.416 266.256 144.48L265.488 144.16L265.264 144.208H265.056ZM261.536 142.56C260.928 144.528 259.824 146.4 258.512 147.6C258.8 147.776 259.264 148.16 259.456 148.368C260.784 147.04 261.968 145.008 262.688 142.832L261.536 142.56ZM261.216 144.864L260.432 145.52C261.408 147.824 263.52 150.72 266.816 152.144C266.976 151.84 267.312 151.376 267.568 151.152C264.288 149.904 262.144 147.152 261.216 144.864ZM253.424 149.664V155.472H254.432V149.664H253.424ZM254.496 144.288H257.504V147.104H254.496V144.288ZM253.424 143.232V148.16H258.624V143.232H253.424ZM255.68 147.632V154.944H256.768V147.632H255.68ZM252.592 155.344L252.816 156.512C254.496 156.096 256.8 155.536 258.992 154.992L258.88 153.92C256.576 154.464 254.176 155.024 252.592 155.344ZM256.064 150.48V151.552H258.768V150.48H256.064ZM269.472 144.112V145.136H282.576V144.112H269.472ZM269.984 155.84V156.848H282.096V155.84H269.984ZM272.624 146.192V147.104H279.36V146.192H272.624ZM272.624 148.208V149.12H279.36V148.208H272.624ZM268.72 150.272V151.28H283.264V150.272H268.72ZM272.08 153.136V154.128H279.936V153.136H272.08ZM271.904 142.576V150.832H273.104V142.576H271.904ZM278.944 142.576V150.832H280.144V142.576H278.944ZM275.344 151.792V156.4H276.576V151.792H275.344ZM272.752 150.544C271.888 151.952 270.176 153.328 268.56 153.968C268.832 154.192 269.168 154.608 269.344 154.88C271.024 154.096 272.784 152.576 273.76 150.928L272.752 150.544ZM279.296 150.544L278.352 150.912C279.28 152.48 280.976 153.968 282.672 154.688C282.848 154.4 283.2 153.984 283.472 153.76C281.808 153.168 280.144 151.904 279.296 150.544ZM292.48 155.616V156.672H297.76V155.616H292.48ZM293.264 144.208V145.248H297.488V144.208H293.264ZM292.016 151.488V157.248H293.12V152.528H297.152V157.2H298.304V151.488H292.016ZM297.056 144.208V144.416C296.016 147.76 293.184 150.336 290.352 151.424C290.592 151.648 290.912 152.064 291.056 152.336C294.096 151.04 297.024 148.416 298.256 144.48L297.488 144.16L297.264 144.208H297.056ZM293.536 142.56C292.928 144.528 291.824 146.4 290.512 147.6C290.8 147.776 291.264 148.16 291.456 148.368C292.784 147.04 293.968 145.008 294.688 142.832L293.536 142.56ZM293.216 144.864L292.432 145.52C293.408 147.824 295.52 150.72 298.816 152.144C298.976 151.84 299.312 151.376 299.568 151.152C296.288 149.904 294.144 147.152 293.216 144.864ZM285.424 149.664V155.472H286.432V149.664H285.424ZM286.496 144.288H289.504V147.104H286.496V144.288ZM285.424 143.232V148.16H290.624V143.232H285.424ZM287.68 147.632V154.944H288.768V147.632H287.68ZM284.592 155.344L284.816 156.512C286.496 156.096 288.8 155.536 290.992 154.992L290.88 153.92C288.576 154.464 286.176 155.024 284.592 155.344ZM288.064 150.48V151.552H290.768V150.48H288.064ZM301.472 144.112V145.136H314.576V144.112H301.472ZM301.984 155.84V156.848H314.096V155.84H301.984ZM304.624 146.192V147.104H311.36V146.192H304.624ZM304.624 148.208V149.12H311.36V148.208H304.624ZM300.72 150.272V151.28H315.264V150.272H300.72ZM304.08 153.136V154.128H311.936V153.136H304.08ZM303.904 142.576V150.832H305.104V142.576H303.904ZM310.944 142.576V150.832H312.144V142.576H310.944ZM307.344 151.792V156.4H308.576V151.792H307.344ZM304.752 150.544C303.888 151.952 302.176 153.328 300.56 153.968C300.832 154.192 301.168 154.608 301.344 154.88C303.024 154.096 304.784 152.576 305.76 150.928L304.752 150.544ZM311.296 150.544L310.352 150.912C311.28 152.48 312.976 153.968 314.672 154.688C314.848 154.4 315.2 153.984 315.472 153.76C313.808 153.168 312.144 151.904 311.296 150.544ZM324.48 155.616V156.672H329.76V155.616H324.48ZM325.264 144.208V145.248H329.488V144.208H325.264ZM324.016 151.488V157.248H325.12V152.528H329.152V157.2H330.304V151.488H324.016ZM329.056 144.208V144.416C328.016 147.76 325.184 150.336 322.352 151.424C322.592 151.648 322.912 152.064 323.056 152.336C326.096 151.04 329.024 148.416 330.256 144.48L329.488 144.16L329.264 144.208H329.056ZM325.536 142.56C324.928 144.528 323.824 146.4 322.512 147.6C322.8 147.776 323.264 148.16 323.456 148.368C324.784 147.04 325.968 145.008 326.688 142.832L325.536 142.56ZM325.216 144.864L324.432 145.52C325.408 147.824 327.52 150.72 330.816 152.144C330.976 151.84 331.312 151.376 331.568 151.152C328.288 149.904 326.144 147.152 325.216 144.864ZM317.424 149.664V155.472H318.432V149.664H317.424ZM318.496 144.288H321.504V147.104H318.496V144.288ZM317.424 143.232V148.16H322.624V143.232H317.424ZM319.68 147.632V154.944H320.768V147.632H319.68ZM316.592 155.344L316.816 156.512C318.496 156.096 320.8 155.536 322.992 154.992L322.88 153.92C320.576 154.464 318.176 155.024 316.592 155.344ZM320.064 150.48V151.552H322.768V150.48H320.064ZM333.472 144.112V145.136H346.576V144.112H333.472ZM333.984 155.84V156.848H346.096V155.84H333.984ZM336.624 146.192V147.104H343.36V146.192H336.624ZM336.624 148.208V149.12H343.36V148.208H336.624ZM332.72 150.272V151.28H347.264V150.272H332.72ZM336.08 153.136V154.128H343.936V153.136H336.08ZM335.904 142.576V150.832H337.104V142.576H335.904ZM342.944 142.576V150.832H344.144V142.576H342.944ZM339.344 151.792V156.4H340.576V151.792H339.344ZM336.752 150.544C335.888 151.952 334.176 153.328 332.56 153.968C332.832 154.192 333.168 154.608 333.344 154.88C335.024 154.096 336.784 152.576 337.76 150.928L336.752 150.544ZM343.296 150.544L342.352 150.912C343.28 152.48 344.976 153.968 346.672 154.688C346.848 154.4 347.2 153.984 347.472 153.76C345.808 153.168 344.144 151.904 343.296 150.544ZM356.48 155.616V156.672H361.76V155.616H356.48ZM357.264 144.208V145.248H361.488V144.208H357.264ZM356.016 151.488V157.248H357.12V152.528H361.152V157.2H362.304V151.488H356.016ZM361.056 144.208V144.416C360.016 147.76 357.184 150.336 354.352 151.424C354.592 151.648 354.912 152.064 355.056 152.336C358.096 151.04 361.024 148.416 362.256 144.48L361.488 144.16L361.264 144.208H361.056ZM357.536 142.56C356.928 144.528 355.824 146.4 354.512 147.6C354.8 147.776 355.264 148.16 355.456 148.368C356.784 147.04 357.968 145.008 358.688 142.832L357.536 142.56ZM357.216 144.864L356.432 145.52C357.408 147.824 359.52 150.72 362.816 152.144C362.976 151.84 363.312 151.376 363.568 151.152C360.288 149.904 358.144 147.152 357.216 144.864ZM349.424 149.664V155.472H350.432V149.664H349.424ZM350.496 144.288H353.504V147.104H350.496V144.288ZM349.424 143.232V148.16H354.624V143.232H349.424ZM351.68 147.632V154.944H352.768V147.632H351.68ZM348.592 155.344L348.816 156.512C350.496 156.096 352.8 155.536 354.992 154.992L354.88 153.92C352.576 154.464 350.176 155.024 348.592 155.344ZM352.064 150.48V151.552H354.768V150.48H352.064ZM365.472 144.112V145.136H378.576V144.112H365.472ZM365.984 155.84V156.848H378.096V155.84H365.984ZM368.624 146.192V147.104H375.36V146.192H368.624ZM368.624 148.208V149.12H375.36V148.208H368.624ZM364.72 150.272V151.28H379.264V150.272H364.72ZM368.08 153.136V154.128H375.936V153.136H368.08ZM367.904 142.576V150.832H369.104V142.576H367.904ZM374.944 142.576V150.832H376.144V142.576H374.944ZM371.344 151.792V156.4H372.576V151.792H371.344ZM368.752 150.544C367.888 151.952 366.176 153.328 364.56 153.968C364.832 154.192 365.168 154.608 365.344 154.88C367.024 154.096 368.784 152.576 369.76 150.928L368.752 150.544ZM375.296 150.544L374.352 150.912C375.28 152.48 376.976 153.968 378.672 154.688C378.848 154.4 379.2 153.984 379.472 153.76C377.808 153.168 376.144 151.904 375.296 150.544ZM388.48 155.616V156.672H393.76V155.616H388.48ZM389.264 144.208V145.248H393.488V144.208H389.264ZM388.016 151.488V157.248H389.12V152.528H393.152V157.2H394.304V151.488H388.016ZM393.056 144.208V144.416C392.016 147.76 389.184 150.336 386.352 151.424C386.592 151.648 386.912 152.064 387.056 152.336C390.096 151.04 393.024 148.416 394.256 144.48L393.488 144.16L393.264 144.208H393.056ZM389.536 142.56C388.928 144.528 387.824 146.4 386.512 147.6C386.8 147.776 387.264 148.16 387.456 148.368C388.784 147.04 389.968 145.008 390.688 142.832L389.536 142.56ZM389.216 144.864L388.432 145.52C389.408 147.824 391.52 150.72 394.816 152.144C394.976 151.84 395.312 151.376 395.568 151.152C392.288 149.904 390.144 147.152 389.216 144.864ZM381.424 149.664V155.472H382.432V149.664H381.424ZM382.496 144.288H385.504V147.104H382.496V144.288ZM381.424 143.232V148.16H386.624V143.232H381.424ZM383.68 147.632V154.944H384.768V147.632H383.68ZM380.592 155.344L380.816 156.512C382.496 156.096 384.8 155.536 386.992 154.992L386.88 153.92C384.576 154.464 382.176 155.024 380.592 155.344ZM384.064 150.48V151.552H386.768V150.48H384.064ZM397.472 144.112V145.136H410.576V144.112H397.472ZM397.984 155.84V156.848H410.096V155.84H397.984ZM400.624 146.192V147.104H407.36V146.192H400.624ZM400.624 148.208V149.12H407.36V148.208H400.624ZM396.72 150.272V151.28H411.264V150.272H396.72ZM400.08 153.136V154.128H407.936V153.136H400.08ZM399.904 142.576V150.832H401.104V142.576H399.904ZM406.944 142.576V150.832H408.144V142.576H406.944ZM403.344 151.792V156.4H404.576V151.792H403.344ZM400.752 150.544C399.888 151.952 398.176 153.328 396.56 153.968C396.832 154.192 397.168 154.608 397.344 154.88C399.024 154.096 400.784 152.576 401.76 150.928L400.752 150.544ZM407.296 150.544L406.352 150.912C407.28 152.48 408.976 153.968 410.672 154.688C410.848 154.4 411.2 153.984 411.472 153.76C409.808 153.168 408.144 151.904 407.296 150.544ZM420.48 155.616V156.672H425.76V155.616H420.48ZM421.264 144.208V145.248H425.488V144.208H421.264ZM420.016 151.488V157.248H421.12V152.528H425.152V157.2H426.304V151.488H420.016ZM425.056 144.208V144.416C424.016 147.76 421.184 150.336 418.352 151.424C418.592 151.648 418.912 152.064 419.056 152.336C422.096 151.04 425.024 148.416 426.256 144.48L425.488 144.16L425.264 144.208H425.056ZM421.536 142.56C420.928 144.528 419.824 146.4 418.512 147.6C418.8 147.776 419.264 148.16 419.456 148.368C420.784 147.04 421.968 145.008 422.688 142.832L421.536 142.56ZM421.216 144.864L420.432 145.52C421.408 147.824 423.52 150.72 426.816 152.144C426.976 151.84 427.312 151.376 427.568 151.152C424.288 149.904 422.144 147.152 421.216 144.864ZM413.424 149.664V155.472H414.432V149.664H413.424ZM414.496 144.288H417.504V147.104H414.496V144.288ZM413.424 143.232V148.16H418.624V143.232H413.424ZM415.68 147.632V154.944H416.768V147.632H415.68ZM412.592 155.344L412.816 156.512C414.496 156.096 416.8 155.536 418.992 154.992L418.88 153.92C416.576 154.464 414.176 155.024 412.592 155.344ZM416.064 150.48V151.552H418.768V150.48H416.064ZM429.472 144.112V145.136H442.576V144.112H429.472ZM429.984 155.84V156.848H442.096V155.84H429.984ZM432.624 146.192V147.104H439.36V146.192H432.624ZM432.624 148.208V149.12H439.36V148.208H432.624ZM428.72 150.272V151.28H443.264V150.272H428.72ZM432.08 153.136V154.128H439.936V153.136H432.08ZM431.904 142.576V150.832H433.104V142.576H431.904ZM438.944 142.576V150.832H440.144V142.576H438.944ZM435.344 151.792V156.4H436.576V151.792H435.344ZM432.752 150.544C431.888 151.952 430.176 153.328 428.56 153.968C428.832 154.192 429.168 154.608 429.344 154.88C431.024 154.096 432.784 152.576 433.76 150.928L432.752 150.544ZM439.296 150.544L438.352 150.912C439.28 152.48 440.976 153.968 442.672 154.688C442.848 154.4 443.2 153.984 443.472 153.76C441.808 153.168 440.144 151.904 439.296 150.544ZM36.48 181.616V182.672H41.76V181.616H36.48ZM37.264 170.208V171.248H41.488V170.208H37.264ZM36.016 177.488V183.248H37.12V178.528H41.152V183.2H42.304V177.488H36.016ZM41.056 170.208V170.416C40.016 173.76 37.184 176.336 34.352 177.424C34.592 177.648 34.912 178.064 35.056 178.336C38.096 177.04 41.024 174.416 42.256 170.48L41.488 170.16L41.264 170.208H41.056ZM37.536 168.56C36.928 170.528 35.824 172.4 34.512 173.6C34.8 173.776 35.264 174.16 35.456 174.368C36.784 173.04 37.968 171.008 38.688 168.832L37.536 168.56ZM37.216 170.864L36.432 171.52C37.408 173.824 39.52 176.72 42.816 178.144C42.976 177.84 43.312 177.376 43.568 177.152C40.288 175.904 38.144 173.152 37.216 170.864ZM29.424 175.664V181.472H30.432V175.664H29.424ZM30.496 170.288H33.504V173.104H30.496V170.288ZM29.424 169.232V174.16H34.624V169.232H29.424ZM31.68 173.632V180.944H32.768V173.632H31.68ZM28.592 181.344L28.816 182.512C30.496 182.096 32.8 181.536 34.992 180.992L34.88 179.92C32.576 180.464 30.176 181.024 28.592 181.344ZM32.064 176.48V177.552H34.768V176.48H32.064ZM45.472 170.112V171.136H58.576V170.112H45.472ZM45.984 181.84V182.848H58.096V181.84H45.984ZM48.624 172.192V173.104H55.36V172.192H48.624ZM48.624 174.208V175.12H55.36V174.208H48.624ZM44.72 176.272V177.28H59.264V176.272H44.72ZM48.08 179.136V180.128H55.936V179.136H48.08ZM47.904 168.576V176.832H49.104V168.576H47.904ZM54.944 168.576V176.832H56.144V168.576H54.944ZM51.344 177.792V182.4H52.576V177.792H51.344ZM48.752 176.544C47.888 177.952 46.176 179.328 44.56 179.968C44.832 180.192 45.168 180.608 45.344 180.88C47.024 180.096 48.784 178.576 49.76 176.928L48.752 176.544ZM55.296 176.544L54.352 176.912C55.28 178.48 56.976 179.968 58.672 180.688C58.848 180.4 59.2 179.984 59.472 179.76C57.808 179.168 56.144 177.904 55.296 176.544ZM68.48 181.616V182.672H73.76V181.616H68.48ZM69.264 170.208V171.248H73.488V170.208H69.264ZM68.016 177.488V183.248H69.12V178.528H73.152V183.2H74.304V177.488H68.016ZM73.056 170.208V170.416C72.016 173.76 69.184 176.336 66.352 177.424C66.592 177.648 66.912 178.064 67.056 178.336C70.096 177.04 73.024 174.416 74.256 170.48L73.488 170.16L73.264 170.208H73.056ZM69.536 168.56C68.928 170.528 67.824 172.4 66.512 173.6C66.8 173.776 67.264 174.16 67.456 174.368C68.784 173.04 69.968 171.008 70.688 168.832L69.536 168.56ZM69.216 170.864L68.432 171.52C69.408 173.824 71.52 176.72 74.816 178.144C74.976 177.84 75.312 177.376 75.568 177.152C72.288 175.904 70.144 173.152 69.216 170.864ZM61.424 175.664V181.472H62.432V175.664H61.424ZM62.496 170.288H65.504V173.104H62.496V170.288ZM61.424 169.232V174.16H66.624V169.232H61.424ZM63.68 173.632V180.944H64.768V173.632H63.68ZM60.592 181.344L60.816 182.512C62.496 182.096 64.8 181.536 66.992 180.992L66.88 179.92C64.576 180.464 62.176 181.024 60.592 181.344ZM64.064 176.48V177.552H66.768V176.48H64.064ZM77.472 170.112V171.136H90.576V170.112H77.472ZM77.984 181.84V182.848H90.096V181.84H77.984ZM80.624 172.192V173.104H87.36V172.192H80.624ZM80.624 174.208V175.12H87.36V174.208H80.624ZM76.72 176.272V177.28H91.264V176.272H76.72ZM80.08 179.136V180.128H87.936V179.136H80.08ZM79.904 168.576V176.832H81.104V168.576H79.904ZM86.944 168.576V176.832H88.144V168.576H86.944ZM83.344 177.792V182.4H84.576V177.792H83.344ZM80.752 176.544C79.888 177.952 78.176 179.328 76.56 179.968C76.832 180.192 77.168 180.608 77.344 180.88C79.024 180.096 80.784 178.576 81.76 176.928L80.752 176.544ZM87.296 176.544L86.352 176.912C87.28 178.48 88.976 179.968 90.672 180.688C90.848 180.4 91.2 179.984 91.472 179.76C89.808 179.168 88.144 177.904 87.296 176.544ZM100.48 181.616V182.672H105.76V181.616H100.48ZM101.264 170.208V171.248H105.488V170.208H101.264ZM100.016 177.488V183.248H101.12V178.528H105.152V183.2H106.304V177.488H100.016ZM105.056 170.208V170.416C104.016 173.76 101.184 176.336 98.352 177.424C98.592 177.648 98.912 178.064 99.056 178.336C102.096 177.04 105.024 174.416 106.256 170.48L105.488 170.16L105.264 170.208H105.056ZM101.536 168.56C100.928 170.528 99.824 172.4 98.512 173.6C98.8 173.776 99.264 174.16 99.456 174.368C100.784 173.04 101.968 171.008 102.688 168.832L101.536 168.56ZM101.216 170.864L100.432 171.52C101.408 173.824 103.52 176.72 106.816 178.144C106.976 177.84 107.312 177.376 107.568 177.152C104.288 175.904 102.144 173.152 101.216 170.864ZM93.424 175.664V181.472H94.432V175.664H93.424ZM94.496 170.288H97.504V173.104H94.496V170.288ZM93.424 169.232V174.16H98.624V169.232H93.424ZM95.68 173.632V180.944H96.768V173.632H95.68ZM92.592 181.344L92.816 182.512C94.496 182.096 96.8 181.536 98.992 180.992L98.88 179.92C96.576 180.464 94.176 181.024 92.592 181.344ZM96.064 176.48V177.552H98.768V176.48H96.064ZM109.472 170.112V171.136H122.576V170.112H109.472ZM109.984 181.84V182.848H122.096V181.84H109.984ZM112.624 172.192V173.104H119.36V172.192H112.624ZM112.624 174.208V175.12H119.36V174.208H112.624ZM108.72 176.272V177.28H123.264V176.272H108.72ZM112.08 179.136V180.128H119.936V179.136H112.08ZM111.904 168.576V176.832H113.104V168.576H111.904ZM118.944 168.576V176.832H120.144V168.576H118.944ZM115.344 177.792V182.4H116.576V177.792H115.344ZM112.752 176.544C111.888 177.952 110.176 179.328 108.56 179.968C108.832 180.192 109.168 180.608 109.344 180.88C111.024 180.096 112.784 178.576 113.76 176.928L112.752 176.544ZM119.296 176.544L118.352 176.912C119.28 178.48 120.976 179.968 122.672 180.688C122.848 180.4 123.2 179.984 123.472 179.76C121.808 179.168 120.144 177.904 119.296 176.544ZM132.48 181.616V182.672H137.76V181.616H132.48ZM133.264 170.208V171.248H137.488V170.208H133.264ZM132.016 177.488V183.248H133.12V178.528H137.152V183.2H138.304V177.488H132.016ZM137.056 170.208V170.416C136.016 173.76 133.184 176.336 130.352 177.424C130.592 177.648 130.912 178.064 131.056 178.336C134.096 177.04 137.024 174.416 138.256 170.48L137.488 170.16L137.264 170.208H137.056ZM133.536 168.56C132.928 170.528 131.824 172.4 130.512 173.6C130.8 173.776 131.264 174.16 131.456 174.368C132.784 173.04 133.968 171.008 134.688 168.832L133.536 168.56ZM133.216 170.864L132.432 171.52C133.408 173.824 135.52 176.72 138.816 178.144C138.976 177.84 139.312 177.376 139.568 177.152C136.288 175.904 134.144 173.152 133.216 170.864ZM125.424 175.664V181.472H126.432V175.664H125.424ZM126.496 170.288H129.504V173.104H126.496V170.288ZM125.424 169.232V174.16H130.624V169.232H125.424ZM127.68 173.632V180.944H128.768V173.632H127.68ZM124.592 181.344L124.816 182.512C126.496 182.096 128.8 181.536 130.992 180.992L130.88 179.92C128.576 180.464 126.176 181.024 124.592 181.344ZM128.064 176.48V177.552H130.768V176.48H128.064ZM141.472 170.112V171.136H154.576V170.112H141.472ZM141.984 181.84V182.848H154.096V181.84H141.984ZM144.624 172.192V173.104H151.36V172.192H144.624ZM144.624 174.208V175.12H151.36V174.208H144.624ZM140.72 176.272V177.28H155.264V176.272H140.72ZM144.08 179.136V180.128H151.936V179.136H144.08ZM143.904 168.576V176.832H145.104V168.576H143.904ZM150.944 168.576V176.832H152.144V168.576H150.944ZM147.344 177.792V182.4H148.576V177.792H147.344ZM144.752 176.544C143.888 177.952 142.176 179.328 140.56 179.968C140.832 180.192 141.168 180.608 141.344 180.88C143.024 180.096 144.784 178.576 145.76 176.928L144.752 176.544ZM151.296 176.544L150.352 176.912C151.28 178.48 152.976 179.968 154.672 180.688C154.848 180.4 155.2 179.984 155.472 179.76C153.808 179.168 152.144 177.904 151.296 176.544ZM164.48 181.616V182.672H169.76V181.616H164.48ZM165.264 170.208V171.248H169.488V170.208H165.264ZM164.016 177.488V183.248H165.12V178.528H169.152V183.2H170.304V177.488H164.016ZM169.056 170.208V170.416C168.016 173.76 165.184 176.336 162.352 177.424C162.592 177.648 162.912 178.064 163.056 178.336C166.096 177.04 169.024 174.416 170.256 170.48L169.488 170.16L169.264 170.208H169.056ZM165.536 168.56C164.928 170.528 163.824 172.4 162.512 173.6C162.8 173.776 163.264 174.16 163.456 174.368C164.784 173.04 165.968 171.008 166.688 168.832L165.536 168.56ZM165.216 170.864L164.432 171.52C165.408 173.824 167.52 176.72 170.816 178.144C170.976 177.84 171.312 177.376 171.568 177.152C168.288 175.904 166.144 173.152 165.216 170.864ZM157.424 175.664V181.472H158.432V175.664H157.424ZM158.496 170.288H161.504V173.104H158.496V170.288ZM157.424 169.232V174.16H162.624V169.232H157.424ZM159.68 173.632V180.944H160.768V173.632H159.68ZM156.592 181.344L156.816 182.512C158.496 182.096 160.8 181.536 162.992 180.992L162.88 179.92C160.576 180.464 158.176 181.024 156.592 181.344ZM160.064 176.48V177.552H162.768V176.48H160.064ZM173.472 170.112V171.136H186.576V170.112H173.472ZM173.984 181.84V182.848H186.096V181.84H173.984ZM176.624 172.192V173.104H183.36V172.192H176.624ZM176.624 174.208V175.12H183.36V174.208H176.624ZM172.72 176.272V177.28H187.264V176.272H172.72ZM176.08 179.136V180.128H183.936V179.136H176.08ZM175.904 168.576V176.832H177.104V168.576H175.904ZM182.944 168.576V176.832H184.144V168.576H182.944ZM179.344 177.792V182.4H180.576V177.792H179.344ZM176.752 176.544C175.888 177.952 174.176 179.328 172.56 179.968C172.832 180.192 173.168 180.608 173.344 180.88C175.024 180.096 176.784 178.576 177.76 176.928L176.752 176.544ZM183.296 176.544L182.352 176.912C183.28 178.48 184.976 179.968 186.672 180.688C186.848 180.4 187.2 179.984 187.472 179.76C185.808 179.168 184.144 177.904 183.296 176.544ZM196.48 181.616V182.672H201.76V181.616H196.48ZM197.264 170.208V171.248H201.488V170.208H197.264ZM196.016 177.488V183.248H197.12V178.528H201.152V183.2H202.304V177.488H196.016ZM201.056 170.208V170.416C200.016 173.76 197.184 176.336 194.352 177.424C194.592 177.648 194.912 178.064 195.056 178.336C198.096 177.04 201.024 174.416 202.256 170.48L201.488 170.16L201.264 170.208H201.056ZM197.536 168.56C196.928 170.528 195.824 172.4 194.512 173.6C194.8 173.776 195.264 174.16 195.456 174.368C196.784 173.04 197.968 171.008 198.688 168.832L197.536 168.56ZM197.216 170.864L196.432 171.52C197.408 173.824 199.52 176.72 202.816 178.144C202.976 177.84 203.312 177.376 203.568 177.152C200.288 175.904 198.144 173.152 197.216 170.864ZM189.424 175.664V181.472H190.432V175.664H189.424ZM190.496 170.288H193.504V173.104H190.496V170.288ZM189.424 169.232V174.16H194.624V169.232H189.424ZM191.68 173.632V180.944H192.768V173.632H191.68ZM188.592 181.344L188.816 182.512C190.496 182.096 192.8 181.536 194.992 180.992L194.88 179.92C192.576 180.464 190.176 181.024 188.592 181.344ZM192.064 176.48V177.552H194.768V176.48H192.064ZM205.472 170.112V171.136H218.576V170.112H205.472ZM205.984 181.84V182.848H218.096V181.84H205.984ZM208.624 172.192V173.104H215.36V172.192H208.624ZM208.624 174.208V175.12H215.36V174.208H208.624ZM204.72 176.272V177.28H219.264V176.272H204.72ZM208.08 179.136V180.128H215.936V179.136H208.08ZM207.904 168.576V176.832H209.104V168.576H207.904ZM214.944 168.576V176.832H216.144V168.576H214.944ZM211.344 177.792V182.4H212.576V177.792H211.344ZM208.752 176.544C207.888 177.952 206.176 179.328 204.56 179.968C204.832 180.192 205.168 180.608 205.344 180.88C207.024 180.096 208.784 178.576 209.76 176.928L208.752 176.544ZM215.296 176.544L214.352 176.912C215.28 178.48 216.976 179.968 218.672 180.688C218.848 180.4 219.2 179.984 219.472 179.76C217.808 179.168 216.144 177.904 215.296 176.544ZM228.48 181.616V182.672H233.76V181.616H228.48ZM229.264 170.208V171.248H233.488V170.208H229.264ZM228.016 177.488V183.248H229.12V178.528H233.152V183.2H234.304V177.488H228.016ZM233.056 170.208V170.416C232.016 173.76 229.184 176.336 226.352 177.424C226.592 177.648 226.912 178.064 227.056 178.336C230.096 177.04 233.024 174.416 234.256 170.48L233.488 170.16L233.264 170.208H233.056ZM229.536 168.56C228.928 170.528 227.824 172.4 226.512 173.6C226.8 173.776 227.264 174.16 227.456 174.368C228.784 173.04 229.968 171.008 230.688 168.832L229.536 168.56ZM229.216 170.864L228.432 171.52C229.408 173.824 231.52 176.72 234.816 178.144C234.976 177.84 235.312 177.376 235.568 177.152C232.288 175.904 230.144 173.152 229.216 170.864ZM221.424 175.664V181.472H222.432V175.664H221.424ZM222.496 170.288H225.504V173.104H222.496V170.288ZM221.424 169.232V174.16H226.624V169.232H221.424ZM223.68 173.632V180.944H224.768V173.632H223.68ZM220.592 181.344L220.816 182.512C222.496 182.096 224.8 181.536 226.992 180.992L226.88 179.92C224.576 180.464 222.176 181.024 220.592 181.344ZM224.064 176.48V177.552H226.768V176.48H224.064ZM237.472 170.112V171.136H250.576V170.112H237.472ZM237.984 181.84V182.848H250.096V181.84H237.984ZM240.624 172.192V173.104H247.36V172.192H240.624ZM240.624 174.208V175.12H247.36V174.208H240.624ZM236.72 176.272V177.28H251.264V176.272H236.72ZM240.08 179.136V180.128H247.936V179.136H240.08ZM239.904 168.576V176.832H241.104V168.576H239.904ZM246.944 168.576V176.832H248.144V168.576H246.944ZM243.344 177.792V182.4H244.576V177.792H243.344ZM240.752 176.544C239.888 177.952 238.176 179.328 236.56 179.968C236.832 180.192 237.168 180.608 237.344 180.88C239.024 180.096 240.784 178.576 241.76 176.928L240.752 176.544ZM247.296 176.544L246.352 176.912C247.28 178.48 248.976 179.968 250.672 180.688C250.848 180.4 251.2 179.984 251.472 179.76C249.808 179.168 248.144 177.904 247.296 176.544ZM260.48 181.616V182.672H265.76V181.616H260.48ZM261.264 170.208V171.248H265.488V170.208H261.264ZM260.016 177.488V183.248H261.12V178.528H265.152V183.2H266.304V177.488H260.016ZM265.056 170.208V170.416C264.016 173.76 261.184 176.336 258.352 177.424C258.592 177.648 258.912 178.064 259.056 178.336C262.096 177.04 265.024 174.416 266.256 170.48L265.488 170.16L265.264 170.208H265.056ZM261.536 168.56C260.928 170.528 259.824 172.4 258.512 173.6C258.8 173.776 259.264 174.16 259.456 174.368C260.784 173.04 261.968 171.008 262.688 168.832L261.536 168.56ZM261.216 170.864L260.432 171.52C261.408 173.824 263.52 176.72 266.816 178.144C266.976 177.84 267.312 177.376 267.568 177.152C264.288 175.904 262.144 173.152 261.216 170.864ZM253.424 175.664V181.472H254.432V175.664H253.424ZM254.496 170.288H257.504V173.104H254.496V170.288ZM253.424 169.232V174.16H258.624V169.232H253.424ZM255.68 173.632V180.944H256.768V173.632H255.68ZM252.592 181.344L252.816 182.512C254.496 182.096 256.8 181.536 258.992 180.992L258.88 179.92C256.576 180.464 254.176 181.024 252.592 181.344ZM256.064 176.48V177.552H258.768V176.48H256.064ZM269.472 170.112V171.136H282.576V170.112H269.472ZM269.984 181.84V182.848H282.096V181.84H269.984ZM272.624 172.192V173.104H279.36V172.192H272.624ZM272.624 174.208V175.12H279.36V174.208H272.624ZM268.72 176.272V177.28H283.264V176.272H268.72ZM272.08 179.136V180.128H279.936V179.136H272.08ZM271.904 168.576V176.832H273.104V168.576H271.904ZM278.944 168.576V176.832H280.144V168.576H278.944ZM275.344 177.792V182.4H276.576V177.792H275.344ZM272.752 176.544C271.888 177.952 270.176 179.328 268.56 179.968C268.832 180.192 269.168 180.608 269.344 180.88C271.024 180.096 272.784 178.576 273.76 176.928L272.752 176.544ZM279.296 176.544L278.352 176.912C279.28 178.48 280.976 179.968 282.672 180.688C282.848 180.4 283.2 179.984 283.472 179.76C281.808 179.168 280.144 177.904 279.296 176.544ZM292.48 181.616V182.672H297.76V181.616H292.48ZM293.264 170.208V171.248H297.488V170.208H293.264ZM292.016 177.488V183.248H293.12V178.528H297.152V183.2H298.304V177.488H292.016ZM297.056 170.208V170.416C296.016 173.76 293.184 176.336 290.352 177.424C290.592 177.648 290.912 178.064 291.056 178.336C294.096 177.04 297.024 174.416 298.256 170.48L297.488 170.16L297.264 170.208H297.056ZM293.536 168.56C292.928 170.528 291.824 172.4 290.512 173.6C290.8 173.776 291.264 174.16 291.456 174.368C292.784 173.04 293.968 171.008 294.688 168.832L293.536 168.56ZM293.216 170.864L292.432 171.52C293.408 173.824 295.52 176.72 298.816 178.144C298.976 177.84 299.312 177.376 299.568 177.152C296.288 175.904 294.144 173.152 293.216 170.864ZM285.424 175.664V181.472H286.432V175.664H285.424ZM286.496 170.288H289.504V173.104H286.496V170.288ZM285.424 169.232V174.16H290.624V169.232H285.424ZM287.68 173.632V180.944H288.768V173.632H287.68ZM284.592 181.344L284.816 182.512C286.496 182.096 288.8 181.536 290.992 180.992L290.88 179.92C288.576 180.464 286.176 181.024 284.592 181.344ZM288.064 176.48V177.552H290.768V176.48H288.064ZM301.472 170.112V171.136H314.576V170.112H301.472ZM301.984 181.84V182.848H314.096V181.84H301.984ZM304.624 172.192V173.104H311.36V172.192H304.624ZM304.624 174.208V175.12H311.36V174.208H304.624ZM300.72 176.272V177.28H315.264V176.272H300.72ZM304.08 179.136V180.128H311.936V179.136H304.08ZM303.904 168.576V176.832H305.104V168.576H303.904ZM310.944 168.576V176.832H312.144V168.576H310.944ZM307.344 177.792V182.4H308.576V177.792H307.344ZM304.752 176.544C303.888 177.952 302.176 179.328 300.56 179.968C300.832 180.192 301.168 180.608 301.344 180.88C303.024 180.096 304.784 178.576 305.76 176.928L304.752 176.544ZM311.296 176.544L310.352 176.912C311.28 178.48 312.976 179.968 314.672 180.688C314.848 180.4 315.2 179.984 315.472 179.76C313.808 179.168 312.144 177.904 311.296 176.544ZM324.48 181.616V182.672H329.76V181.616H324.48ZM325.264 170.208V171.248H329.488V170.208H325.264ZM324.016 177.488V183.248H325.12V178.528H329.152V183.2H330.304V177.488H324.016ZM329.056 170.208V170.416C328.016 173.76 325.184 176.336 322.352 177.424C322.592 177.648 322.912 178.064 323.056 178.336C326.096 177.04 329.024 174.416 330.256 170.48L329.488 170.16L329.264 170.208H329.056ZM325.536 168.56C324.928 170.528 323.824 172.4 322.512 173.6C322.8 173.776 323.264 174.16 323.456 174.368C324.784 173.04 325.968 171.008 326.688 168.832L325.536 168.56ZM325.216 170.864L324.432 171.52C325.408 173.824 327.52 176.72 330.816 178.144C330.976 177.84 331.312 177.376 331.568 177.152C328.288 175.904 326.144 173.152 325.216 170.864ZM317.424 175.664V181.472H318.432V175.664H317.424ZM318.496 170.288H321.504V173.104H318.496V170.288ZM317.424 169.232V174.16H322.624V169.232H317.424ZM319.68 173.632V180.944H320.768V173.632H319.68ZM316.592 181.344L316.816 182.512C318.496 182.096 320.8 181.536 322.992 180.992L322.88 179.92C320.576 180.464 318.176 181.024 316.592 181.344ZM320.064 176.48V177.552H322.768V176.48H320.064ZM333.472 170.112V171.136H346.576V170.112H333.472ZM333.984 181.84V182.848H346.096V181.84H333.984ZM336.624 172.192V173.104H343.36V172.192H336.624ZM336.624 174.208V175.12H343.36V174.208H336.624ZM332.72 176.272V177.28H347.264V176.272H332.72ZM336.08 179.136V180.128H343.936V179.136H336.08ZM335.904 168.576V176.832H337.104V168.576H335.904ZM342.944 168.576V176.832H344.144V168.576H342.944ZM339.344 177.792V182.4H340.576V177.792H339.344ZM336.752 176.544C335.888 177.952 334.176 179.328 332.56 179.968C332.832 180.192 333.168 180.608 333.344 180.88C335.024 180.096 336.784 178.576 337.76 176.928L336.752 176.544ZM343.296 176.544L342.352 176.912C343.28 178.48 344.976 179.968 346.672 180.688C346.848 180.4 347.2 179.984 347.472 179.76C345.808 179.168 344.144 177.904 343.296 176.544ZM356.48 181.616V182.672H361.76V181.616H356.48ZM357.264 170.208V171.248H361.488V170.208H357.264ZM356.016 177.488V183.248H357.12V178.528H361.152V183.2H362.304V177.488H356.016ZM361.056 170.208V170.416C360.016 173.76 357.184 176.336 354.352 177.424C354.592 177.648 354.912 178.064 355.056 178.336C358.096 177.04 361.024 174.416 362.256 170.48L361.488 170.16L361.264 170.208H361.056ZM357.536 168.56C356.928 170.528 355.824 172.4 354.512 173.6C354.8 173.776 355.264 174.16 355.456 174.368C356.784 173.04 357.968 171.008 358.688 168.832L357.536 168.56ZM357.216 170.864L356.432 171.52C357.408 173.824 359.52 176.72 362.816 178.144C362.976 177.84 363.312 177.376 363.568 177.152C360.288 175.904 358.144 173.152 357.216 170.864ZM349.424 175.664V181.472H350.432V175.664H349.424ZM350.496 170.288H353.504V173.104H350.496V170.288ZM349.424 169.232V174.16H354.624V169.232H349.424ZM351.68 173.632V180.944H352.768V173.632H351.68ZM348.592 181.344L348.816 182.512C350.496 182.096 352.8 181.536 354.992 180.992L354.88 179.92C352.576 180.464 350.176 181.024 348.592 181.344ZM352.064 176.48V177.552H354.768V176.48H352.064ZM365.472 170.112V171.136H378.576V170.112H365.472ZM365.984 181.84V182.848H378.096V181.84H365.984ZM368.624 172.192V173.104H375.36V172.192H368.624ZM368.624 174.208V175.12H375.36V174.208H368.624ZM364.72 176.272V177.28H379.264V176.272H364.72ZM368.08 179.136V180.128H375.936V179.136H368.08ZM367.904 168.576V176.832H369.104V168.576H367.904ZM374.944 168.576V176.832H376.144V168.576H374.944ZM371.344 177.792V182.4H372.576V177.792H371.344ZM368.752 176.544C367.888 177.952 366.176 179.328 364.56 179.968C364.832 180.192 365.168 180.608 365.344 180.88C367.024 180.096 368.784 178.576 369.76 176.928L368.752 176.544ZM375.296 176.544L374.352 176.912C375.28 178.48 376.976 179.968 378.672 180.688C378.848 180.4 379.2 179.984 379.472 179.76C377.808 179.168 376.144 177.904 375.296 176.544ZM388.48 181.616V182.672H393.76V181.616H388.48ZM389.264 170.208V171.248H393.488V170.208H389.264ZM388.016 177.488V183.248H389.12V178.528H393.152V183.2H394.304V177.488H388.016ZM393.056 170.208V170.416C392.016 173.76 389.184 176.336 386.352 177.424C386.592 177.648 386.912 178.064 387.056 178.336C390.096 177.04 393.024 174.416 394.256 170.48L393.488 170.16L393.264 170.208H393.056ZM389.536 168.56C388.928 170.528 387.824 172.4 386.512 173.6C386.8 173.776 387.264 174.16 387.456 174.368C388.784 173.04 389.968 171.008 390.688 168.832L389.536 168.56ZM389.216 170.864L388.432 171.52C389.408 173.824 391.52 176.72 394.816 178.144C394.976 177.84 395.312 177.376 395.568 177.152C392.288 175.904 390.144 173.152 389.216 170.864ZM381.424 175.664V181.472H382.432V175.664H381.424ZM382.496 170.288H385.504V173.104H382.496V170.288ZM381.424 169.232V174.16H386.624V169.232H381.424ZM383.68 173.632V180.944H384.768V173.632H383.68ZM380.592 181.344L380.816 182.512C382.496 182.096 384.8 181.536 386.992 180.992L386.88 179.92C384.576 180.464 382.176 181.024 380.592 181.344ZM384.064 176.48V177.552H386.768V176.48H384.064ZM397.472 170.112V171.136H410.576V170.112H397.472ZM397.984 181.84V182.848H410.096V181.84H397.984ZM400.624 172.192V173.104H407.36V172.192H400.624ZM400.624 174.208V175.12H407.36V174.208H400.624ZM396.72 176.272V177.28H411.264V176.272H396.72ZM400.08 179.136V180.128H407.936V179.136H400.08ZM399.904 168.576V176.832H401.104V168.576H399.904ZM406.944 168.576V176.832H408.144V168.576H406.944ZM403.344 177.792V182.4H404.576V177.792H403.344ZM400.752 176.544C399.888 177.952 398.176 179.328 396.56 179.968C396.832 180.192 397.168 180.608 397.344 180.88C399.024 180.096 400.784 178.576 401.76 176.928L400.752 176.544ZM407.296 176.544L406.352 176.912C407.28 178.48 408.976 179.968 410.672 180.688C410.848 180.4 411.2 179.984 411.472 179.76C409.808 179.168 408.144 177.904 407.296 176.544ZM420.48 181.616V182.672H425.76V181.616H420.48ZM421.264 170.208V171.248H425.488V170.208H421.264ZM420.016 177.488V183.248H421.12V178.528H425.152V183.2H426.304V177.488H420.016ZM425.056 170.208V170.416C424.016 173.76 421.184 176.336 418.352 177.424C418.592 177.648 418.912 178.064 419.056 178.336C422.096 177.04 425.024 174.416 426.256 170.48L425.488 170.16L425.264 170.208H425.056ZM421.536 168.56C420.928 170.528 419.824 172.4 418.512 173.6C418.8 173.776 419.264 174.16 419.456 174.368C420.784 173.04 421.968 171.008 422.688 168.832L421.536 168.56ZM421.216 170.864L420.432 171.52C421.408 173.824 423.52 176.72 426.816 178.144C426.976 177.84 427.312 177.376 427.568 177.152C424.288 175.904 422.144 173.152 421.216 170.864ZM413.424 175.664V181.472H414.432V175.664H413.424ZM414.496 170.288H417.504V173.104H414.496V170.288ZM413.424 169.232V174.16H418.624V169.232H413.424ZM415.68 173.632V180.944H416.768V173.632H415.68ZM412.592 181.344L412.816 182.512C414.496 182.096 416.8 181.536 418.992 180.992L418.88 179.92C416.576 180.464 414.176 181.024 412.592 181.344ZM416.064 176.48V177.552H418.768V176.48H416.064ZM429.472 170.112V171.136H442.576V170.112H429.472ZM429.984 181.84V182.848H442.096V181.84H429.984ZM432.624 172.192V173.104H439.36V172.192H432.624ZM432.624 174.208V175.12H439.36V174.208H432.624ZM428.72 176.272V177.28H443.264V176.272H428.72ZM432.08 179.136V180.128H439.936V179.136H432.08ZM431.904 168.576V176.832H433.104V168.576H431.904ZM438.944 168.576V176.832H440.144V168.576H438.944ZM435.344 177.792V182.4H436.576V177.792H435.344ZM432.752 176.544C431.888 177.952 430.176 179.328 428.56 179.968C428.832 180.192 429.168 180.608 429.344 180.88C431.024 180.096 432.784 178.576 433.76 176.928L432.752 176.544ZM439.296 176.544L438.352 176.912C439.28 178.48 440.976 179.968 442.672 180.688C442.848 180.4 443.2 179.984 443.472 179.76C441.808 179.168 440.144 177.904 439.296 176.544ZM36.48 207.616V208.672H41.76V207.616H36.48ZM37.264 196.208V197.248H41.488V196.208H37.264ZM36.016 203.488V209.248H37.12V204.528H41.152V209.2H42.304V203.488H36.016ZM41.056 196.208V196.416C40.016 199.76 37.184 202.336 34.352 203.424C34.592 203.648 34.912 204.064 35.056 204.336C38.096 203.04 41.024 200.416 42.256 196.48L41.488 196.16L41.264 196.208H41.056ZM37.536 194.56C36.928 196.528 35.824 198.4 34.512 199.6C34.8 199.776 35.264 200.16 35.456 200.368C36.784 199.04 37.968 197.008 38.688 194.832L37.536 194.56ZM37.216 196.864L36.432 197.52C37.408 199.824 39.52 202.72 42.816 204.144C42.976 203.84 43.312 203.376 43.568 203.152C40.288 201.904 38.144 199.152 37.216 196.864ZM29.424 201.664V207.472H30.432V201.664H29.424ZM30.496 196.288H33.504V199.104H30.496V196.288ZM29.424 195.232V200.16H34.624V195.232H29.424ZM31.68 199.632V206.944H32.768V199.632H31.68ZM28.592 207.344L28.816 208.512C30.496 208.096 32.8 207.536 34.992 206.992L34.88 205.92C32.576 206.464 30.176 207.024 28.592 207.344ZM32.064 202.48V203.552H34.768V202.48H32.064ZM45.472 196.112V197.136H58.576V196.112H45.472ZM45.984 207.84V208.848H58.096V207.84H45.984ZM48.624 198.192V199.104H55.36V198.192H48.624ZM48.624 200.208V201.12H55.36V200.208H48.624ZM44.72 202.272V203.28H59.264V202.272H44.72ZM48.08 205.136V206.128H55.936V205.136H48.08ZM47.904 194.576V202.832H49.104V194.576H47.904ZM54.944 194.576V202.832H56.144V194.576H54.944ZM51.344 203.792V208.4H52.576V203.792H51.344ZM48.752 202.544C47.888 203.952 46.176 205.328 44.56 205.968C44.832 206.192 45.168 206.608 45.344 206.88C47.024 206.096 48.784 204.576 49.76 202.928L48.752 202.544ZM55.296 202.544L54.352 202.912C55.28 204.48 56.976 205.968 58.672 206.688C58.848 206.4 59.2 205.984 59.472 205.76C57.808 205.168 56.144 203.904 55.296 202.544ZM68.48 207.616V208.672H73.76V207.616H68.48ZM69.264 196.208V197.248H73.488V196.208H69.264ZM68.016 203.488V209.248H69.12V204.528H73.152V209.2H74.304V203.488H68.016ZM73.056 196.208V196.416C72.016 199.76 69.184 202.336 66.352 203.424C66.592 203.648 66.912 204.064 67.056 204.336C70.096 203.04 73.024 200.416 74.256 196.48L73.488 196.16L73.264 196.208H73.056ZM69.536 194.56C68.928 196.528 67.824 198.4 66.512 199.6C66.8 199.776 67.264 200.16 67.456 200.368C68.784 199.04 69.968 197.008 70.688 194.832L69.536 194.56ZM69.216 196.864L68.432 197.52C69.408 199.824 71.52 202.72 74.816 204.144C74.976 203.84 75.312 203.376 75.568 203.152C72.288 201.904 70.144 199.152 69.216 196.864ZM61.424 201.664V207.472H62.432V201.664H61.424ZM62.496 196.288H65.504V199.104H62.496V196.288ZM61.424 195.232V200.16H66.624V195.232H61.424ZM63.68 199.632V206.944H64.768V199.632H63.68ZM60.592 207.344L60.816 208.512C62.496 208.096 64.8 207.536 66.992 206.992L66.88 205.92C64.576 206.464 62.176 207.024 60.592 207.344ZM64.064 202.48V203.552H66.768V202.48H64.064ZM77.472 196.112V197.136H90.576V196.112H77.472ZM77.984 207.84V208.848H90.096V207.84H77.984ZM80.624 198.192V199.104H87.36V198.192H80.624ZM80.624 200.208V201.12H87.36V200.208H80.624ZM76.72 202.272V203.28H91.264V202.272H76.72ZM80.08 205.136V206.128H87.936V205.136H80.08ZM79.904 194.576V202.832H81.104V194.576H79.904ZM86.944 194.576V202.832H88.144V194.576H86.944ZM83.344 203.792V208.4H84.576V203.792H83.344ZM80.752 202.544C79.888 203.952 78.176 205.328 76.56 205.968C76.832 206.192 77.168 206.608 77.344 206.88C79.024 206.096 80.784 204.576 81.76 202.928L80.752 202.544ZM87.296 202.544L86.352 202.912C87.28 204.48 88.976 205.968 90.672 206.688C90.848 206.4 91.2 205.984 91.472 205.76C89.808 205.168 88.144 203.904 87.296 202.544ZM100.48 207.616V208.672H105.76V207.616H100.48ZM101.264 196.208V197.248H105.488V196.208H101.264ZM100.016 203.488V209.248H101.12V204.528H105.152V209.2H106.304V203.488H100.016ZM105.056 196.208V196.416C104.016 199.76 101.184 202.336 98.352 203.424C98.592 203.648 98.912 204.064 99.056 204.336C102.096 203.04 105.024 200.416 106.256 196.48L105.488 196.16L105.264 196.208H105.056ZM101.536 194.56C100.928 196.528 99.824 198.4 98.512 199.6C98.8 199.776 99.264 200.16 99.456 200.368C100.784 199.04 101.968 197.008 102.688 194.832L101.536 194.56ZM101.216 196.864L100.432 197.52C101.408 199.824 103.52 202.72 106.816 204.144C106.976 203.84 107.312 203.376 107.568 203.152C104.288 201.904 102.144 199.152 101.216 196.864ZM93.424 201.664V207.472H94.432V201.664H93.424ZM94.496 196.288H97.504V199.104H94.496V196.288ZM93.424 195.232V200.16H98.624V195.232H93.424ZM95.68 199.632V206.944H96.768V199.632H95.68ZM92.592 207.344L92.816 208.512C94.496 208.096 96.8 207.536 98.992 206.992L98.88 205.92C96.576 206.464 94.176 207.024 92.592 207.344ZM96.064 202.48V203.552H98.768V202.48H96.064ZM109.472 196.112V197.136H122.576V196.112H109.472ZM109.984 207.84V208.848H122.096V207.84H109.984ZM112.624 198.192V199.104H119.36V198.192H112.624ZM112.624 200.208V201.12H119.36V200.208H112.624ZM108.72 202.272V203.28H123.264V202.272H108.72ZM112.08 205.136V206.128H119.936V205.136H112.08ZM111.904 194.576V202.832H113.104V194.576H111.904ZM118.944 194.576V202.832H120.144V194.576H118.944ZM115.344 203.792V208.4H116.576V203.792H115.344ZM112.752 202.544C111.888 203.952 110.176 205.328 108.56 205.968C108.832 206.192 109.168 206.608 109.344 206.88C111.024 206.096 112.784 204.576 113.76 202.928L112.752 202.544ZM119.296 202.544L118.352 202.912C119.28 204.48 120.976 205.968 122.672 206.688C122.848 206.4 123.2 205.984 123.472 205.76C121.808 205.168 120.144 203.904 119.296 202.544ZM132.48 207.616V208.672H137.76V207.616H132.48ZM133.264 196.208V197.248H137.488V196.208H133.264ZM132.016 203.488V209.248H133.12V204.528H137.152V209.2H138.304V203.488H132.016ZM137.056 196.208V196.416C136.016 199.76 133.184 202.336 130.352 203.424C130.592 203.648 130.912 204.064 131.056 204.336C134.096 203.04 137.024 200.416 138.256 196.48L137.488 196.16L137.264 196.208H137.056ZM133.536 194.56C132.928 196.528 131.824 198.4 130.512 199.6C130.8 199.776 131.264 200.16 131.456 200.368C132.784 199.04 133.968 197.008 134.688 194.832L133.536 194.56ZM133.216 196.864L132.432 197.52C133.408 199.824 135.52 202.72 138.816 204.144C138.976 203.84 139.312 203.376 139.568 203.152C136.288 201.904 134.144 199.152 133.216 196.864ZM125.424 201.664V207.472H126.432V201.664H125.424ZM126.496 196.288H129.504V199.104H126.496V196.288ZM125.424 195.232V200.16H130.624V195.232H125.424ZM127.68 199.632V206.944H128.768V199.632H127.68ZM124.592 207.344L124.816 208.512C126.496 208.096 128.8 207.536 130.992 206.992L130.88 205.92C128.576 206.464 126.176 207.024 124.592 207.344ZM128.064 202.48V203.552H130.768V202.48H128.064ZM141.472 196.112V197.136H154.576V196.112H141.472ZM141.984 207.84V208.848H154.096V207.84H141.984ZM144.624 198.192V199.104H151.36V198.192H144.624ZM144.624 200.208V201.12H151.36V200.208H144.624ZM140.72 202.272V203.28H155.264V202.272H140.72ZM144.08 205.136V206.128H151.936V205.136H144.08ZM143.904 194.576V202.832H145.104V194.576H143.904ZM150.944 194.576V202.832H152.144V194.576H150.944ZM147.344 203.792V208.4H148.576V203.792H147.344ZM144.752 202.544C143.888 203.952 142.176 205.328 140.56 205.968C140.832 206.192 141.168 206.608 141.344 206.88C143.024 206.096 144.784 204.576 145.76 202.928L144.752 202.544ZM151.296 202.544L150.352 202.912C151.28 204.48 152.976 205.968 154.672 206.688C154.848 206.4 155.2 205.984 155.472 205.76C153.808 205.168 152.144 203.904 151.296 202.544ZM164.48 207.616V208.672H169.76V207.616H164.48ZM165.264 196.208V197.248H169.488V196.208H165.264ZM164.016 203.488V209.248H165.12V204.528H169.152V209.2H170.304V203.488H164.016ZM169.056 196.208V196.416C168.016 199.76 165.184 202.336 162.352 203.424C162.592 203.648 162.912 204.064 163.056 204.336C166.096 203.04 169.024 200.416 170.256 196.48L169.488 196.16L169.264 196.208H169.056ZM165.536 194.56C164.928 196.528 163.824 198.4 162.512 199.6C162.8 199.776 163.264 200.16 163.456 200.368C164.784 199.04 165.968 197.008 166.688 194.832L165.536 194.56ZM165.216 196.864L164.432 197.52C165.408 199.824 167.52 202.72 170.816 204.144C170.976 203.84 171.312 203.376 171.568 203.152C168.288 201.904 166.144 199.152 165.216 196.864ZM157.424 201.664V207.472H158.432V201.664H157.424ZM158.496 196.288H161.504V199.104H158.496V196.288ZM157.424 195.232V200.16H162.624V195.232H157.424ZM159.68 199.632V206.944H160.768V199.632H159.68ZM156.592 207.344L156.816 208.512C158.496 208.096 160.8 207.536 162.992 206.992L162.88 205.92C160.576 206.464 158.176 207.024 156.592 207.344ZM160.064 202.48V203.552H162.768V202.48H160.064ZM173.472 196.112V197.136H186.576V196.112H173.472ZM173.984 207.84V208.848H186.096V207.84H173.984ZM176.624 198.192V199.104H183.36V198.192H176.624ZM176.624 200.208V201.12H183.36V200.208H176.624ZM172.72 202.272V203.28H187.264V202.272H172.72ZM176.08 205.136V206.128H183.936V205.136H176.08ZM175.904 194.576V202.832H177.104V194.576H175.904ZM182.944 194.576V202.832H184.144V194.576H182.944ZM179.344 203.792V208.4H180.576V203.792H179.344ZM176.752 202.544C175.888 203.952 174.176 205.328 172.56 205.968C172.832 206.192 173.168 206.608 173.344 206.88C175.024 206.096 176.784 204.576 177.76 202.928L176.752 202.544ZM183.296 202.544L182.352 202.912C183.28 204.48 184.976 205.968 186.672 206.688C186.848 206.4 187.2 205.984 187.472 205.76C185.808 205.168 184.144 203.904 183.296 202.544ZM196.48 207.616V208.672H201.76V207.616H196.48ZM197.264 196.208V197.248H201.488V196.208H197.264ZM196.016 203.488V209.248H197.12V204.528H201.152V209.2H202.304V203.488H196.016ZM201.056 196.208V196.416C200.016 199.76 197.184 202.336 194.352 203.424C194.592 203.648 194.912 204.064 195.056 204.336C198.096 203.04 201.024 200.416 202.256 196.48L201.488 196.16L201.264 196.208H201.056ZM197.536 194.56C196.928 196.528 195.824 198.4 194.512 199.6C194.8 199.776 195.264 200.16 195.456 200.368C196.784 199.04 197.968 197.008 198.688 194.832L197.536 194.56ZM197.216 196.864L196.432 197.52C197.408 199.824 199.52 202.72 202.816 204.144C202.976 203.84 203.312 203.376 203.568 203.152C200.288 201.904 198.144 199.152 197.216 196.864ZM189.424 201.664V207.472H190.432V201.664H189.424ZM190.496 196.288H193.504V199.104H190.496V196.288ZM189.424 195.232V200.16H194.624V195.232H189.424ZM191.68 199.632V206.944H192.768V199.632H191.68ZM188.592 207.344L188.816 208.512C190.496 208.096 192.8 207.536 194.992 206.992L194.88 205.92C192.576 206.464 190.176 207.024 188.592 207.344ZM192.064 202.48V203.552H194.768V202.48H192.064ZM205.472 196.112V197.136H218.576V196.112H205.472ZM205.984 207.84V208.848H218.096V207.84H205.984ZM208.624 198.192V199.104H215.36V198.192H208.624ZM208.624 200.208V201.12H215.36V200.208H208.624ZM204.72 202.272V203.28H219.264V202.272H204.72ZM208.08 205.136V206.128H215.936V205.136H208.08ZM207.904 194.576V202.832H209.104V194.576H207.904ZM214.944 194.576V202.832H216.144V194.576H214.944ZM211.344 203.792V208.4H212.576V203.792H211.344ZM208.752 202.544C207.888 203.952 206.176 205.328 204.56 205.968C204.832 206.192 205.168 206.608 205.344 206.88C207.024 206.096 208.784 204.576 209.76 202.928L208.752 202.544ZM215.296 202.544L214.352 202.912C215.28 204.48 216.976 205.968 218.672 206.688C218.848 206.4 219.2 205.984 219.472 205.76C217.808 205.168 216.144 203.904 215.296 202.544ZM223.104 204.112C221.76 204.112 220.656 205.2 220.656 206.544C220.656 207.888 221.76 208.976 223.104 208.976C224.448 208.976 225.536 207.888 225.536 206.544C225.536 205.2 224.448 204.112 223.104 204.112ZM223.104 208.16C222.208 208.16 221.472 207.44 221.472 206.544C221.472 205.648 222.208 204.928 223.104 204.928C224 204.928 224.72 205.648 224.72 206.544C224.72 207.44 224 208.16 223.104 208.16Z" fill="black"/>
</svg>
