<svg width="1440" height="752" viewBox="0 0 1440 752" fill="none" xmlns="http://www.w3.org/2000/svg">
<path d="M769.5 397C221.893 397 88 226 -24.0001 99.2506C-136 -27.4987 -24.0001 751.5 -24.0001 751.5H1448.5V35.5C1448.5 35.5 1317.11 397 769.5 397Z" fill="#AD883F" fill-opacity="0.07"/>
<g filter="url(#filter0_d_572_26)">
<rect x="1176" y="101" width="146" height="310" rx="20" fill="#FFB46B"/>
<rect x="1176" y="101" width="146" height="310" rx="20" fill="url(#paint0_linear_572_26)" fill-opacity="0.2"/>
</g>
<rect x="806" y="26" width="460" height="460" rx="20" fill="#D9D9D9"/>
<rect x="302" y="45" width="200" height="20" rx="10" fill="#FFC24D"/>
<path d="M159.556 9.752C162.624 12.456 166.16 16.2 167.72 18.696L170.944 16.408C169.228 14.016 165.588 10.324 162.52 7.724L159.556 9.752ZM125.86 21.712V25.456H172.192V21.712H125.86ZM125.08 37L126.224 40.9C132.776 39.444 141.98 37.312 150.508 35.336L150.196 31.8C141.044 33.776 131.268 35.856 125.08 37ZM137.04 11.624V49.116C137.04 50.052 136.728 50.312 135.792 50.312C134.856 50.364 131.788 50.416 128.46 50.26C129.032 51.404 129.708 53.172 129.916 54.212C134.232 54.264 136.988 54.108 138.652 53.484C140.316 52.86 140.94 51.716 140.94 49.168V11.624H137.04ZM146.92 6.944C141.928 8.816 133.504 10.584 126.172 11.728C126.692 12.612 127.16 14.068 127.368 14.952C134.804 13.912 143.644 12.3 149.676 10.22L146.92 6.944ZM152.12 6.788C152.328 31.54 156.956 54.368 167.148 54.368C171.048 54.368 172.452 51.82 173.18 43.188C172.088 42.772 170.684 41.888 169.852 41.004C169.54 47.712 168.916 50.416 167.512 50.416C161.168 50.416 156.072 30.656 156.176 6.788H152.12ZM166.212 27.848C161.584 36.636 153.004 44.644 143.748 49.116C144.736 50 145.828 51.248 146.452 52.236C156.02 47.192 164.6 38.82 169.696 29.304L166.212 27.848ZM206.98 8.244V11.832H222.632V8.244H206.98ZM221.124 8.244V49.22C221.124 50.052 220.812 50.312 219.98 50.364C219.096 50.416 216.236 50.468 213.272 50.312C213.792 51.352 214.364 53.068 214.52 54.056C218.628 54.056 221.28 54.004 222.84 53.38C224.452 52.756 225.024 51.612 225.024 49.272V8.244H221.124ZM196.84 8.036C199.128 11.208 201.728 15.576 202.872 18.228L206.096 16.356C204.9 13.756 202.144 9.492 199.856 6.372L196.84 8.036ZM194.656 16.824V54.16H198.452V16.824H194.656ZM188.728 6.632C186.596 14.64 183.008 22.648 178.9 27.9C179.576 28.888 180.668 30.968 181.032 31.852C185.712 25.768 189.768 16.616 192.368 7.62L188.728 6.632ZM184.62 19.736V54.16H188.364V16.2L188.208 16.096L184.62 19.736ZM254.924 26.496V54.16H258.98V26.496H254.924ZM255.08 6.58V21.192H258.98V6.58H255.08ZM240.884 33.048V49.532H244.732V36.532H271.408V33.048H240.884ZM270.316 33.048V45.32C270.316 45.892 270.16 46.1 269.432 46.1C268.704 46.152 266.416 46.204 263.712 46.1C264.232 47.088 264.804 48.44 264.96 49.532C268.548 49.532 270.94 49.48 272.344 48.908C273.904 48.336 274.268 47.296 274.268 45.372V33.048H270.316ZM235.216 23.844V34.4H239.012V27.172H275.204V34.4H279.156V23.844H235.216ZM233.812 12.56V15.94H280.56V12.56H233.812ZM242.236 6.632V21.296H246.188V6.632H242.236ZM268.34 6.632V21.4H272.24V6.632H268.34ZM288.152 29.408V33.152H334.38V29.408H288.152ZM290.648 12.612V16.356H332.196V12.612H290.648ZM309.108 6.372V54.16H313.216V6.372H309.108ZM324.552 17.292C323.356 20.464 321.068 24.988 319.248 27.744L322.576 28.94C324.448 26.34 326.736 22.18 328.608 18.592L324.552 17.292ZM294.86 18.852C296.888 21.972 298.864 26.184 299.54 28.836L303.232 27.328C302.504 24.676 300.424 20.568 298.292 17.552L294.86 18.852ZM308.068 30.864C303.596 38.04 294.912 45.268 287.008 48.7C287.892 49.48 289.14 50.936 289.764 51.872C297.668 47.972 306.3 40.276 311.24 32.164L308.068 30.864ZM314.36 30.864L311.188 32.216C316.18 40.224 324.812 48.128 332.768 52.08C333.392 51.092 334.64 49.584 335.524 48.804C327.62 45.372 318.884 38.04 314.36 30.864ZM346.132 14.692V18.176H358.3V45.164H346.132V48.7H361.94V14.692H346.132ZM343.792 14.692V52.86H347.432V14.692H343.792ZM345.872 29.148V32.632H360.224V29.148H345.872ZM351.748 6.216C351.332 8.92 350.344 12.872 349.46 15.368L352.58 16.148C353.62 13.808 354.92 10.22 355.96 6.996L351.748 6.216ZM369.324 14.536V18.176H385.288V14.536H369.324ZM383.936 14.536V15.368C383.208 38.3 382.376 46.932 380.66 48.804C380.088 49.48 379.464 49.636 378.424 49.636C377.228 49.636 374.108 49.584 370.728 49.324C371.456 50.364 371.924 51.976 372.028 53.12C374.94 53.276 378.008 53.38 379.776 53.172C381.596 53.016 382.792 52.548 383.936 51.04C386.016 48.492 386.744 40.432 387.576 16.564C387.576 15.992 387.576 14.536 387.576 14.536H383.936ZM370.416 6.112C368.752 13.34 365.892 20.516 362.356 25.092C363.292 25.612 364.904 26.704 365.58 27.328C369.168 22.388 372.236 14.744 374.16 6.996L370.416 6.112ZM368.024 28.056C370.884 31.852 374.368 37 375.928 40.172L379.256 38.092C377.592 35.024 374.004 29.98 371.04 26.288L368.024 28.056ZM399.068 24.832V28.42H412.276V24.832H399.068ZM396.988 10.896V14.536H410.924V30.396H414.668V10.896H396.988ZM396.988 24.832V41.472C396.988 45.892 398.288 47.036 402.916 47.036C403.904 47.036 409.936 47.036 410.976 47.036C415.032 47.036 416.124 45.372 416.592 38.768C415.5 38.508 413.888 37.884 413.056 37.208C412.848 42.512 412.536 43.344 410.664 43.344C409.364 43.344 404.32 43.344 403.332 43.344C401.148 43.344 400.784 43.084 400.784 41.42V24.832H396.988ZM422 15.888V19.58H443.424V15.888H422ZM423.352 6.372C421.688 15.004 418.568 23.116 413.992 28.264C414.98 28.836 416.696 30.032 417.476 30.708C422 25.092 425.38 16.46 427.408 7.048L423.352 6.372ZM435.52 17.344C433.024 35.336 426.94 45.528 412.068 50.884C412.848 51.768 414.044 53.484 414.46 54.368C429.904 48.024 436.56 37.208 439.472 17.812L435.52 17.344ZM423.56 19.216L419.972 19.892C423.144 36.116 429.228 48.492 441.292 54.16C441.916 53.068 443.164 51.56 444.048 50.78C432.452 45.892 426.368 33.984 423.56 19.216ZM459.232 49.272V52.392H487.884V49.272H459.232ZM457.412 39.964V54.16H461.208V43.084H485.856V54.004H489.86V39.964H457.412ZM453.148 12.092V15.16H493.864V12.092H453.148ZM451.744 25.144V28.212H495.476V25.144H451.744ZM456.32 18.644V21.556H490.64V18.644H456.32ZM450.184 33.776V36.896H496.828V33.776H450.184ZM471.348 13.444V35.128H475.352V13.444H471.348ZM460.324 7.412C461.676 9.18 463.132 11.624 463.652 13.184L467.344 11.936C466.668 10.376 465.264 8.036 463.808 6.372L460.324 7.412ZM458.036 28.992C459.232 30.552 460.532 32.788 461 34.296L464.744 33.152C464.172 31.696 462.872 29.564 461.52 28.004L458.036 28.992ZM482.632 6.268C481.904 7.984 480.448 10.48 479.356 12.144L482.788 12.976C483.932 11.52 485.388 9.336 486.636 7.152L482.632 6.268ZM485.024 28.056C484.296 29.564 482.892 31.852 481.852 33.308L485.336 34.088C486.48 32.788 487.728 30.864 488.924 28.888L485.024 28.056Z" fill="black"/>
<path d="M134.248 250.616C135.192 251.448 136.28 252.6 136.76 253.368L137.752 252.664C137.224 251.928 136.104 250.792 135.16 249.992L134.248 250.616ZM123.88 254.296V255.448H138.136V254.296H123.88ZM123.64 259L123.992 260.2C126.008 259.752 128.84 259.096 131.464 258.488L131.368 257.4C128.552 258.008 125.544 258.648 123.64 259ZM127.32 251.192V262.728C127.32 263.016 127.224 263.096 126.936 263.096C126.648 263.112 125.704 263.128 124.68 263.08C124.856 263.432 125.064 263.976 125.128 264.296C126.456 264.312 127.304 264.264 127.816 264.072C128.328 263.88 128.52 263.528 128.52 262.744V251.192H127.32ZM130.36 249.752C128.824 250.328 126.232 250.872 123.976 251.224C124.136 251.496 124.28 251.944 124.344 252.216C126.632 251.896 129.352 251.4 131.208 250.76L130.36 249.752ZM131.96 249.704C132.024 257.32 133.448 264.344 136.584 264.344C137.784 264.344 138.216 263.56 138.44 260.904C138.104 260.776 137.672 260.504 137.416 260.232C137.32 262.296 137.128 263.128 136.696 263.128C134.744 263.128 133.176 257.048 133.208 249.704H131.96ZM136.296 256.184C134.872 258.888 132.232 261.352 129.384 262.728C129.688 263 130.024 263.384 130.216 263.688C133.16 262.136 135.8 259.56 137.368 256.632L136.296 256.184ZM148.84 250.152V251.256H153.656V250.152H148.84ZM153.192 250.152V262.76C153.192 263.016 153.096 263.096 152.84 263.112C152.568 263.128 151.688 263.144 150.776 263.096C150.936 263.416 151.112 263.944 151.16 264.248C152.424 264.248 153.24 264.232 153.72 264.04C154.216 263.848 154.392 263.496 154.392 262.776V250.152H153.192ZM145.72 250.088C146.424 251.064 147.224 252.408 147.576 253.224L148.568 252.648C148.2 251.848 147.352 250.536 146.648 249.576L145.72 250.088ZM145.048 252.792V264.28H146.216V252.792H145.048ZM143.224 249.656C142.568 252.12 141.464 254.584 140.2 256.2C140.408 256.504 140.744 257.144 140.856 257.416C142.296 255.544 143.544 252.728 144.344 249.96L143.224 249.656ZM141.96 253.688V264.28H143.112V252.6L143.064 252.568L141.96 253.688ZM163.592 255.768V264.28H164.84V255.768H163.592ZM163.64 249.64V254.136H164.84V249.64H163.64ZM159.272 257.784V262.856H160.456V258.856H168.664V257.784H159.272ZM168.328 257.784V261.56C168.328 261.736 168.28 261.8 168.056 261.8C167.832 261.816 167.128 261.832 166.296 261.8C166.456 262.104 166.632 262.52 166.68 262.856C167.784 262.856 168.52 262.84 168.952 262.664C169.432 262.488 169.544 262.168 169.544 261.576V257.784H168.328ZM157.528 254.952V258.2H158.696V255.976H169.832V258.2H171.048V254.952H157.528ZM157.096 251.48V252.52H171.48V251.48H157.096ZM159.688 249.656V254.168H160.904V249.656H159.688ZM167.72 249.656V254.2H168.92V249.656H167.72ZM173.816 256.664V257.816H188.04V256.664H173.816ZM174.584 251.496V252.648H187.368V251.496H174.584ZM180.264 249.576V264.28H181.528V249.576H180.264ZM185.016 252.936C184.648 253.912 183.944 255.304 183.384 256.152L184.408 256.52C184.984 255.72 185.688 254.44 186.264 253.336L185.016 252.936ZM175.88 253.416C176.504 254.376 177.112 255.672 177.32 256.488L178.456 256.024C178.232 255.208 177.592 253.944 176.936 253.016L175.88 253.416ZM179.944 257.112C178.568 259.32 175.896 261.544 173.464 262.6C173.736 262.84 174.12 263.288 174.312 263.576C176.744 262.376 179.4 260.008 180.92 257.512L179.944 257.112ZM181.88 257.112L180.904 257.528C182.44 259.992 185.096 262.424 187.544 263.64C187.736 263.336 188.12 262.872 188.392 262.632C185.96 261.576 183.272 259.32 181.88 257.112ZM191.656 252.136V253.208H195.4V261.512H191.656V262.6H196.52V252.136H191.656ZM190.936 252.136V263.88H192.056V252.136H190.936ZM191.576 256.584V257.656H195.992V256.584H191.576ZM193.384 249.528C193.256 250.36 192.952 251.576 192.68 252.344L193.64 252.584C193.96 251.864 194.36 250.76 194.68 249.768L193.384 249.528ZM198.792 252.088V253.208H203.704V252.088H198.792ZM203.288 252.088V252.344C203.064 259.4 202.808 262.056 202.28 262.632C202.104 262.84 201.912 262.888 201.592 262.888C201.224 262.888 200.264 262.872 199.224 262.792C199.448 263.112 199.592 263.608 199.624 263.96C200.52 264.008 201.464 264.04 202.008 263.976C202.568 263.928 202.936 263.784 203.288 263.32C203.928 262.536 204.152 260.056 204.408 252.712C204.408 252.536 204.408 252.088 204.408 252.088H203.288ZM199.128 249.496C198.616 251.72 197.736 253.928 196.648 255.336C196.936 255.496 197.432 255.832 197.64 256.024C198.744 254.504 199.688 252.152 200.28 249.768L199.128 249.496ZM198.392 256.248C199.272 257.416 200.344 259 200.824 259.976L201.848 259.336C201.336 258.392 200.232 256.84 199.32 255.704L198.392 256.248ZM207.944 255.256V256.36H212.008V255.256H207.944ZM207.304 250.968V252.088H211.592V256.968H212.744V250.968H207.304ZM207.304 255.256V260.376C207.304 261.736 207.704 262.088 209.128 262.088C209.432 262.088 211.288 262.088 211.608 262.088C212.856 262.088 213.192 261.576 213.336 259.544C213 259.464 212.504 259.272 212.248 259.064C212.184 260.696 212.088 260.952 211.512 260.952C211.112 260.952 209.56 260.952 209.256 260.952C208.584 260.952 208.472 260.872 208.472 260.36V255.256H207.304ZM215 252.504V253.64H221.592V252.504H215ZM215.416 249.576C214.904 252.232 213.944 254.728 212.536 256.312C212.84 256.488 213.368 256.856 213.608 257.064C215 255.336 216.04 252.68 216.664 249.784L215.416 249.576ZM219.16 252.952C218.392 258.488 216.52 261.624 211.944 263.272C212.184 263.544 212.552 264.072 212.68 264.344C217.432 262.392 219.48 259.064 220.376 253.096L219.16 252.952ZM215.48 253.528L214.376 253.736C215.352 258.728 217.224 262.536 220.936 264.28C221.128 263.944 221.512 263.48 221.784 263.24C218.216 261.736 216.344 258.072 215.48 253.528ZM226.456 262.776V263.736H235.272V262.776H226.456ZM225.896 259.912V264.28H227.064V260.872H234.648V264.232H235.88V259.912H225.896ZM224.584 251.336V252.28H237.112V251.336H224.584ZM224.152 255.352V256.296H237.608V255.352H224.152ZM225.56 253.352V254.248H236.12V253.352H225.56ZM223.672 258.008V258.968H238.024V258.008H223.672ZM230.184 251.752V258.424H231.416V251.752H230.184ZM226.792 249.896C227.208 250.44 227.656 251.192 227.816 251.672L228.952 251.288C228.744 250.808 228.312 250.088 227.864 249.576L226.792 249.896ZM226.088 256.536C226.456 257.016 226.856 257.704 227 258.168L228.152 257.816C227.976 257.368 227.576 256.712 227.16 256.232L226.088 256.536ZM233.656 249.544C233.432 250.072 232.984 250.84 232.648 251.352L233.704 251.608C234.056 251.16 234.504 250.488 234.888 249.816L233.656 249.544ZM234.392 256.248C234.168 256.712 233.736 257.416 233.416 257.864L234.488 258.104C234.84 257.704 235.224 257.112 235.592 256.504L234.392 256.248ZM250.728 250.616C251.672 251.448 252.76 252.6 253.24 253.368L254.232 252.664C253.704 251.928 252.584 250.792 251.64 249.992L250.728 250.616ZM240.36 254.296V255.448H254.616V254.296H240.36ZM240.12 259L240.472 260.2C242.488 259.752 245.32 259.096 247.944 258.488L247.848 257.4C245.032 258.008 242.024 258.648 240.12 259ZM243.8 251.192V262.728C243.8 263.016 243.704 263.096 243.416 263.096C243.128 263.112 242.184 263.128 241.16 263.08C241.336 263.432 241.544 263.976 241.608 264.296C242.936 264.312 243.784 264.264 244.296 264.072C244.808 263.88 245 263.528 245 262.744V251.192H243.8ZM246.84 249.752C245.304 250.328 242.712 250.872 240.456 251.224C240.616 251.496 240.76 251.944 240.824 252.216C243.112 251.896 245.832 251.4 247.688 250.76L246.84 249.752ZM248.44 249.704C248.504 257.32 249.928 264.344 253.064 264.344C254.264 264.344 254.696 263.56 254.92 260.904C254.584 260.776 254.152 260.504 253.896 260.232C253.8 262.296 253.608 263.128 253.176 263.128C251.224 263.128 249.656 257.048 249.688 249.704H248.44ZM252.776 256.184C251.352 258.888 248.712 261.352 245.864 262.728C246.168 263 246.504 263.384 246.696 263.688C249.64 262.136 252.28 259.56 253.848 256.632L252.776 256.184ZM265.32 250.152V251.256H270.136V250.152H265.32ZM269.672 250.152V262.76C269.672 263.016 269.576 263.096 269.32 263.112C269.048 263.128 268.168 263.144 267.256 263.096C267.416 263.416 267.592 263.944 267.64 264.248C268.904 264.248 269.72 264.232 270.2 264.04C270.696 263.848 270.872 263.496 270.872 262.776V250.152H269.672ZM262.2 250.088C262.904 251.064 263.704 252.408 264.056 253.224L265.048 252.648C264.68 251.848 263.832 250.536 263.128 249.576L262.2 250.088ZM261.528 252.792V264.28H262.696V252.792H261.528ZM259.704 249.656C259.048 252.12 257.944 254.584 256.68 256.2C256.888 256.504 257.224 257.144 257.336 257.416C258.776 255.544 260.024 252.728 260.824 249.96L259.704 249.656ZM258.44 253.688V264.28H259.592V252.6L259.544 252.568L258.44 253.688ZM280.072 255.768V264.28H281.32V255.768H280.072ZM280.12 249.64V254.136H281.32V249.64H280.12ZM275.752 257.784V262.856H276.936V258.856H285.144V257.784H275.752ZM284.808 257.784V261.56C284.808 261.736 284.76 261.8 284.536 261.8C284.312 261.816 283.608 261.832 282.776 261.8C282.936 262.104 283.112 262.52 283.16 262.856C284.264 262.856 285 262.84 285.432 262.664C285.912 262.488 286.024 262.168 286.024 261.576V257.784H284.808ZM274.008 254.952V258.2H275.176V255.976H286.312V258.2H287.528V254.952H274.008ZM273.576 251.48V252.52H287.96V251.48H273.576ZM276.168 249.656V254.168H277.384V249.656H276.168ZM284.2 249.656V254.2H285.4V249.656H284.2ZM290.296 256.664V257.816H304.52V256.664H290.296ZM291.064 251.496V252.648H303.848V251.496H291.064ZM296.744 249.576V264.28H298.008V249.576H296.744ZM301.496 252.936C301.128 253.912 300.424 255.304 299.864 256.152L300.888 256.52C301.464 255.72 302.168 254.44 302.744 253.336L301.496 252.936ZM292.36 253.416C292.984 254.376 293.592 255.672 293.8 256.488L294.936 256.024C294.712 255.208 294.072 253.944 293.416 253.016L292.36 253.416ZM296.424 257.112C295.048 259.32 292.376 261.544 289.944 262.6C290.216 262.84 290.6 263.288 290.792 263.576C293.224 262.376 295.88 260.008 297.4 257.512L296.424 257.112ZM298.36 257.112L297.384 257.528C298.92 259.992 301.576 262.424 304.024 263.64C304.216 263.336 304.6 262.872 304.872 262.632C302.44 261.576 299.752 259.32 298.36 257.112Z" fill="#353535"/>
<circle cx="155" cy="165" r="32" fill="#FFC24D"/>
<path d="M167.711 159.43C167.301 159.262 166.879 159.102 166.437 158.953C166.52 158.535 166.586 158.125 166.641 157.723C166.812 156.449 166.84 155.293 166.734 154.27C166.109 154.852 165.324 155.266 164.453 155.434C164.457 156.043 164.414 156.707 164.32 157.41C164.281 157.699 164.234 157.996 164.18 158.293C162.773 157.949 161.266 157.684 159.688 157.512C158.762 156.254 157.793 155.098 156.801 154.066C157.039 153.863 157.281 153.668 157.52 153.484C158.094 153.043 158.656 152.668 159.195 152.363C159.039 151.902 158.957 151.406 158.957 150.891C158.957 150.516 159.004 150.148 159.086 149.797C158.129 150.219 157.125 150.828 156.09 151.629C155.762 151.883 155.43 152.156 155.102 152.441C154.758 152.141 154.414 151.855 154.066 151.59C150.883 149.137 147.984 148.445 145.906 149.641C143.828 150.84 142.98 153.695 143.512 157.68C143.566 158.098 143.641 158.527 143.723 158.961C143.293 159.109 142.879 159.262 142.48 159.426C138.762 160.957 136.715 163.121 136.715 165.52C136.715 167.918 138.762 170.082 142.48 171.613C142.875 171.777 143.285 171.93 143.707 172.074C143.613 172.551 143.531 173.02 143.473 173.477C142.938 177.461 143.789 180.316 145.867 181.516C146.531 181.898 147.281 182.09 148.102 182.09C149.832 182.09 151.863 181.234 154.027 179.566C154.387 179.289 154.742 178.996 155.102 178.684C155.445 178.98 155.785 179.266 156.129 179.527C158.293 181.195 160.324 182.051 162.055 182.051C162.871 182.051 163.621 181.859 164.289 181.477C166.363 180.277 167.215 177.422 166.68 173.437C166.621 172.996 166.543 172.543 166.453 172.086C166.887 171.937 167.305 171.781 167.711 171.613C171.43 170.082 173.477 167.918 173.477 165.52C173.477 163.121 171.43 160.961 167.711 159.43ZM163.641 160.574C163.441 161.27 163.211 161.977 162.945 162.695C162.719 162.273 162.484 161.852 162.242 161.43C161.984 160.984 161.723 160.547 161.453 160.121C162.211 160.25 162.941 160.402 163.641 160.574ZM162.953 168.375C163.215 169.082 163.449 169.781 163.645 170.465C162.953 170.637 162.234 170.785 161.492 170.91C161.734 170.52 161.973 170.125 162.203 169.723C162.465 169.277 162.715 168.828 162.953 168.375ZM160.176 168.555C159.625 169.508 159.047 170.426 158.445 171.297C157.355 171.387 156.234 171.434 155.094 171.434C153.949 171.434 152.824 171.387 151.73 171.297C151.121 170.414 150.531 169.484 149.977 168.52C149.406 167.531 148.883 166.531 148.418 165.543C148.875 164.578 149.383 163.609 149.938 162.648C150.523 161.637 151.137 160.668 151.777 159.75C152.855 159.66 153.969 159.617 155.094 159.617C156.219 159.617 157.324 159.664 158.398 159.75C159.027 160.656 159.637 161.613 160.211 162.613C160.773 163.59 161.289 164.57 161.75 165.547C161.281 166.543 160.754 167.551 160.176 168.555ZM155.098 175.445C154.59 174.918 154.086 174.352 153.59 173.75C154.09 173.766 154.594 173.777 155.102 173.777C155.605 173.777 156.105 173.77 156.605 173.75C156.105 174.348 155.602 174.914 155.098 175.445ZM147.945 169.687C148.184 170.102 148.43 170.508 148.68 170.91C147.934 170.781 147.211 170.633 146.52 170.461C146.719 169.777 146.953 169.078 147.215 168.371C147.449 168.809 147.695 169.25 147.945 169.687ZM147.223 162.703C146.957 161.984 146.723 161.273 146.523 160.582C147.227 160.406 147.961 160.254 148.719 160.125C148.441 160.566 148.172 161.016 147.906 161.473C147.672 161.879 147.445 162.293 147.223 162.703ZM155.098 157.266C154.609 157.266 154.129 157.273 153.648 157.289C154.125 156.719 154.609 156.18 155.098 155.672C155.586 156.176 156.066 156.719 156.543 157.289C156.062 157.273 155.582 157.266 155.098 157.266ZM145.836 157.371C145.633 155.848 145.66 154.508 145.918 153.496C146.145 152.602 146.535 151.988 147.078 151.672C147.379 151.496 147.738 151.41 148.152 151.41C148.48 151.41 148.844 151.465 149.238 151.578C150.242 151.863 151.418 152.508 152.637 153.445C152.891 153.641 153.145 153.848 153.398 154.062C152.406 155.094 151.43 156.254 150.5 157.512C148.918 157.687 147.402 157.949 145.988 158.301C145.926 157.988 145.879 157.676 145.836 157.371ZM143.375 169.445C141.953 168.859 140.809 168.164 140.059 167.437C139.398 166.793 139.062 166.148 139.062 165.52C139.062 164.891 139.398 164.246 140.059 163.602C140.809 162.875 141.953 162.18 143.375 161.594C143.668 161.473 143.969 161.359 144.281 161.246C144.684 162.637 145.207 164.078 145.844 165.531C145.207 166.973 144.68 168.402 144.277 169.785C143.965 169.68 143.664 169.566 143.375 169.445ZM149.199 179.582C148.309 179.832 147.582 179.801 147.039 179.488C146.496 179.176 146.105 178.562 145.879 177.664C145.621 176.652 145.594 175.312 145.797 173.789C145.844 173.445 145.902 173.094 145.969 172.738C147.371 173.086 148.875 173.348 150.445 173.523C151.395 174.816 152.387 176.004 153.398 177.059C153.133 177.289 152.863 177.508 152.598 177.715C151.379 178.652 150.203 179.297 149.199 179.582ZM164.355 173.75C164.559 175.273 164.531 176.613 164.273 177.625C164.047 178.52 163.656 179.133 163.113 179.449C162.57 179.762 161.844 179.797 160.953 179.543C159.949 179.258 158.773 178.613 157.555 177.676C157.301 177.48 157.047 177.273 156.793 177.055C157.801 176 158.789 174.812 159.734 173.523C161.297 173.348 162.797 173.086 164.191 172.742C164.258 173.086 164.312 173.418 164.355 173.75ZM170.137 167.437C169.387 168.164 168.242 168.859 166.82 169.445C166.52 169.57 166.211 169.687 165.895 169.797C165.492 168.41 164.965 166.98 164.332 165.531C164.969 164.074 165.492 162.633 165.891 161.238C166.211 161.352 166.52 161.469 166.82 161.594C168.242 162.18 169.387 162.871 170.137 163.602C170.797 164.246 171.133 164.891 171.133 165.52C171.133 166.148 170.797 166.793 170.137 167.437Z" fill="white"/>
<path d="M160.25 150.871C160.25 151.755 160.601 152.602 161.226 153.227C161.851 153.852 162.698 154.203 163.582 154.203C164.466 154.203 165.313 153.852 165.938 153.227C166.563 152.602 166.914 151.755 166.914 150.871C166.914 149.987 166.563 149.14 165.938 148.515C165.313 147.89 164.466 147.539 163.582 147.539C162.698 147.539 161.851 147.89 161.226 148.515C160.601 149.14 160.25 149.987 160.25 150.871Z" fill="white"/>
<path d="M134.248 413.616C135.192 414.448 136.28 415.6 136.76 416.368L137.752 415.664C137.224 414.928 136.104 413.792 135.16 412.992L134.248 413.616ZM123.88 417.296V418.448H138.136V417.296H123.88ZM123.64 422L123.992 423.2C126.008 422.752 128.84 422.096 131.464 421.488L131.368 420.4C128.552 421.008 125.544 421.648 123.64 422ZM127.32 414.192V425.728C127.32 426.016 127.224 426.096 126.936 426.096C126.648 426.112 125.704 426.128 124.68 426.08C124.856 426.432 125.064 426.976 125.128 427.296C126.456 427.312 127.304 427.264 127.816 427.072C128.328 426.88 128.52 426.528 128.52 425.744V414.192H127.32ZM130.36 412.752C128.824 413.328 126.232 413.872 123.976 414.224C124.136 414.496 124.28 414.944 124.344 415.216C126.632 414.896 129.352 414.4 131.208 413.76L130.36 412.752ZM131.96 412.704C132.024 420.32 133.448 427.344 136.584 427.344C137.784 427.344 138.216 426.56 138.44 423.904C138.104 423.776 137.672 423.504 137.416 423.232C137.32 425.296 137.128 426.128 136.696 426.128C134.744 426.128 133.176 420.048 133.208 412.704H131.96ZM136.296 419.184C134.872 421.888 132.232 424.352 129.384 425.728C129.688 426 130.024 426.384 130.216 426.688C133.16 425.136 135.8 422.56 137.368 419.632L136.296 419.184ZM148.84 413.152V414.256H153.656V413.152H148.84ZM153.192 413.152V425.76C153.192 426.016 153.096 426.096 152.84 426.112C152.568 426.128 151.688 426.144 150.776 426.096C150.936 426.416 151.112 426.944 151.16 427.248C152.424 427.248 153.24 427.232 153.72 427.04C154.216 426.848 154.392 426.496 154.392 425.776V413.152H153.192ZM145.72 413.088C146.424 414.064 147.224 415.408 147.576 416.224L148.568 415.648C148.2 414.848 147.352 413.536 146.648 412.576L145.72 413.088ZM145.048 415.792V427.28H146.216V415.792H145.048ZM143.224 412.656C142.568 415.12 141.464 417.584 140.2 419.2C140.408 419.504 140.744 420.144 140.856 420.416C142.296 418.544 143.544 415.728 144.344 412.96L143.224 412.656ZM141.96 416.688V427.28H143.112V415.6L143.064 415.568L141.96 416.688ZM163.592 418.768V427.28H164.84V418.768H163.592ZM163.64 412.64V417.136H164.84V412.64H163.64ZM159.272 420.784V425.856H160.456V421.856H168.664V420.784H159.272ZM168.328 420.784V424.56C168.328 424.736 168.28 424.8 168.056 424.8C167.832 424.816 167.128 424.832 166.296 424.8C166.456 425.104 166.632 425.52 166.68 425.856C167.784 425.856 168.52 425.84 168.952 425.664C169.432 425.488 169.544 425.168 169.544 424.576V420.784H168.328ZM157.528 417.952V421.2H158.696V418.976H169.832V421.2H171.048V417.952H157.528ZM157.096 414.48V415.52H171.48V414.48H157.096ZM159.688 412.656V417.168H160.904V412.656H159.688ZM167.72 412.656V417.2H168.92V412.656H167.72ZM173.816 419.664V420.816H188.04V419.664H173.816ZM174.584 414.496V415.648H187.368V414.496H174.584ZM180.264 412.576V427.28H181.528V412.576H180.264ZM185.016 415.936C184.648 416.912 183.944 418.304 183.384 419.152L184.408 419.52C184.984 418.72 185.688 417.44 186.264 416.336L185.016 415.936ZM175.88 416.416C176.504 417.376 177.112 418.672 177.32 419.488L178.456 419.024C178.232 418.208 177.592 416.944 176.936 416.016L175.88 416.416ZM179.944 420.112C178.568 422.32 175.896 424.544 173.464 425.6C173.736 425.84 174.12 426.288 174.312 426.576C176.744 425.376 179.4 423.008 180.92 420.512L179.944 420.112ZM181.88 420.112L180.904 420.528C182.44 422.992 185.096 425.424 187.544 426.64C187.736 426.336 188.12 425.872 188.392 425.632C185.96 424.576 183.272 422.32 181.88 420.112ZM191.656 415.136V416.208H195.4V424.512H191.656V425.6H196.52V415.136H191.656ZM190.936 415.136V426.88H192.056V415.136H190.936ZM191.576 419.584V420.656H195.992V419.584H191.576ZM193.384 412.528C193.256 413.36 192.952 414.576 192.68 415.344L193.64 415.584C193.96 414.864 194.36 413.76 194.68 412.768L193.384 412.528ZM198.792 415.088V416.208H203.704V415.088H198.792ZM203.288 415.088V415.344C203.064 422.4 202.808 425.056 202.28 425.632C202.104 425.84 201.912 425.888 201.592 425.888C201.224 425.888 200.264 425.872 199.224 425.792C199.448 426.112 199.592 426.608 199.624 426.96C200.52 427.008 201.464 427.04 202.008 426.976C202.568 426.928 202.936 426.784 203.288 426.32C203.928 425.536 204.152 423.056 204.408 415.712C204.408 415.536 204.408 415.088 204.408 415.088H203.288ZM199.128 412.496C198.616 414.72 197.736 416.928 196.648 418.336C196.936 418.496 197.432 418.832 197.64 419.024C198.744 417.504 199.688 415.152 200.28 412.768L199.128 412.496ZM198.392 419.248C199.272 420.416 200.344 422 200.824 422.976L201.848 422.336C201.336 421.392 200.232 419.84 199.32 418.704L198.392 419.248ZM207.944 418.256V419.36H212.008V418.256H207.944ZM207.304 413.968V415.088H211.592V419.968H212.744V413.968H207.304ZM207.304 418.256V423.376C207.304 424.736 207.704 425.088 209.128 425.088C209.432 425.088 211.288 425.088 211.608 425.088C212.856 425.088 213.192 424.576 213.336 422.544C213 422.464 212.504 422.272 212.248 422.064C212.184 423.696 212.088 423.952 211.512 423.952C211.112 423.952 209.56 423.952 209.256 423.952C208.584 423.952 208.472 423.872 208.472 423.36V418.256H207.304ZM215 415.504V416.64H221.592V415.504H215ZM215.416 412.576C214.904 415.232 213.944 417.728 212.536 419.312C212.84 419.488 213.368 419.856 213.608 420.064C215 418.336 216.04 415.68 216.664 412.784L215.416 412.576ZM219.16 415.952C218.392 421.488 216.52 424.624 211.944 426.272C212.184 426.544 212.552 427.072 212.68 427.344C217.432 425.392 219.48 422.064 220.376 416.096L219.16 415.952ZM215.48 416.528L214.376 416.736C215.352 421.728 217.224 425.536 220.936 427.28C221.128 426.944 221.512 426.48 221.784 426.24C218.216 424.736 216.344 421.072 215.48 416.528ZM226.456 425.776V426.736H235.272V425.776H226.456ZM225.896 422.912V427.28H227.064V423.872H234.648V427.232H235.88V422.912H225.896ZM224.584 414.336V415.28H237.112V414.336H224.584ZM224.152 418.352V419.296H237.608V418.352H224.152ZM225.56 416.352V417.248H236.12V416.352H225.56ZM223.672 421.008V421.968H238.024V421.008H223.672ZM230.184 414.752V421.424H231.416V414.752H230.184ZM226.792 412.896C227.208 413.44 227.656 414.192 227.816 414.672L228.952 414.288C228.744 413.808 228.312 413.088 227.864 412.576L226.792 412.896ZM226.088 419.536C226.456 420.016 226.856 420.704 227 421.168L228.152 420.816C227.976 420.368 227.576 419.712 227.16 419.232L226.088 419.536ZM233.656 412.544C233.432 413.072 232.984 413.84 232.648 414.352L233.704 414.608C234.056 414.16 234.504 413.488 234.888 412.816L233.656 412.544ZM234.392 419.248C234.168 419.712 233.736 420.416 233.416 420.864L234.488 421.104C234.84 420.704 235.224 420.112 235.592 419.504L234.392 419.248ZM250.728 413.616C251.672 414.448 252.76 415.6 253.24 416.368L254.232 415.664C253.704 414.928 252.584 413.792 251.64 412.992L250.728 413.616ZM240.36 417.296V418.448H254.616V417.296H240.36ZM240.12 422L240.472 423.2C242.488 422.752 245.32 422.096 247.944 421.488L247.848 420.4C245.032 421.008 242.024 421.648 240.12 422ZM243.8 414.192V425.728C243.8 426.016 243.704 426.096 243.416 426.096C243.128 426.112 242.184 426.128 241.16 426.08C241.336 426.432 241.544 426.976 241.608 427.296C242.936 427.312 243.784 427.264 244.296 427.072C244.808 426.88 245 426.528 245 425.744V414.192H243.8ZM246.84 412.752C245.304 413.328 242.712 413.872 240.456 414.224C240.616 414.496 240.76 414.944 240.824 415.216C243.112 414.896 245.832 414.4 247.688 413.76L246.84 412.752ZM248.44 412.704C248.504 420.32 249.928 427.344 253.064 427.344C254.264 427.344 254.696 426.56 254.92 423.904C254.584 423.776 254.152 423.504 253.896 423.232C253.8 425.296 253.608 426.128 253.176 426.128C251.224 426.128 249.656 420.048 249.688 412.704H248.44ZM252.776 419.184C251.352 421.888 248.712 424.352 245.864 425.728C246.168 426 246.504 426.384 246.696 426.688C249.64 425.136 252.28 422.56 253.848 419.632L252.776 419.184ZM265.32 413.152V414.256H270.136V413.152H265.32ZM269.672 413.152V425.76C269.672 426.016 269.576 426.096 269.32 426.112C269.048 426.128 268.168 426.144 267.256 426.096C267.416 426.416 267.592 426.944 267.64 427.248C268.904 427.248 269.72 427.232 270.2 427.04C270.696 426.848 270.872 426.496 270.872 425.776V413.152H269.672ZM262.2 413.088C262.904 414.064 263.704 415.408 264.056 416.224L265.048 415.648C264.68 414.848 263.832 413.536 263.128 412.576L262.2 413.088ZM261.528 415.792V427.28H262.696V415.792H261.528ZM259.704 412.656C259.048 415.12 257.944 417.584 256.68 419.2C256.888 419.504 257.224 420.144 257.336 420.416C258.776 418.544 260.024 415.728 260.824 412.96L259.704 412.656ZM258.44 416.688V427.28H259.592V415.6L259.544 415.568L258.44 416.688ZM280.072 418.768V427.28H281.32V418.768H280.072ZM280.12 412.64V417.136H281.32V412.64H280.12ZM275.752 420.784V425.856H276.936V421.856H285.144V420.784H275.752ZM284.808 420.784V424.56C284.808 424.736 284.76 424.8 284.536 424.8C284.312 424.816 283.608 424.832 282.776 424.8C282.936 425.104 283.112 425.52 283.16 425.856C284.264 425.856 285 425.84 285.432 425.664C285.912 425.488 286.024 425.168 286.024 424.576V420.784H284.808ZM274.008 417.952V421.2H275.176V418.976H286.312V421.2H287.528V417.952H274.008ZM273.576 414.48V415.52H287.96V414.48H273.576ZM276.168 412.656V417.168H277.384V412.656H276.168ZM284.2 412.656V417.2H285.4V412.656H284.2ZM290.296 419.664V420.816H304.52V419.664H290.296ZM291.064 414.496V415.648H303.848V414.496H291.064ZM296.744 412.576V427.28H298.008V412.576H296.744ZM301.496 415.936C301.128 416.912 300.424 418.304 299.864 419.152L300.888 419.52C301.464 418.72 302.168 417.44 302.744 416.336L301.496 415.936ZM292.36 416.416C292.984 417.376 293.592 418.672 293.8 419.488L294.936 419.024C294.712 418.208 294.072 416.944 293.416 416.016L292.36 416.416ZM296.424 420.112C295.048 422.32 292.376 424.544 289.944 425.6C290.216 425.84 290.6 426.288 290.792 426.576C293.224 425.376 295.88 423.008 297.4 420.512L296.424 420.112ZM298.36 420.112L297.384 420.528C298.92 422.992 301.576 425.424 304.024 426.64C304.216 426.336 304.6 425.872 304.872 425.632C302.44 424.576 299.752 422.32 298.36 420.112Z" fill="#353535"/>
<circle cx="155" cy="328" r="32" fill="#FF7A00"/>
<path d="M167.711 322.43C167.301 322.262 166.879 322.102 166.437 321.953C166.52 321.535 166.586 321.125 166.641 320.723C166.812 319.449 166.84 318.293 166.734 317.27C166.109 317.852 165.324 318.266 164.453 318.434C164.457 319.043 164.414 319.707 164.32 320.41C164.281 320.699 164.234 320.996 164.18 321.293C162.773 320.949 161.266 320.684 159.688 320.512C158.762 319.254 157.793 318.098 156.801 317.066C157.039 316.863 157.281 316.668 157.52 316.484C158.094 316.043 158.656 315.668 159.195 315.363C159.039 314.902 158.957 314.406 158.957 313.891C158.957 313.516 159.004 313.148 159.086 312.797C158.129 313.219 157.125 313.828 156.09 314.629C155.762 314.883 155.43 315.156 155.102 315.441C154.758 315.141 154.414 314.855 154.066 314.59C150.883 312.137 147.984 311.445 145.906 312.641C143.828 313.84 142.98 316.695 143.512 320.68C143.566 321.098 143.641 321.527 143.723 321.961C143.293 322.109 142.879 322.262 142.48 322.426C138.762 323.957 136.715 326.121 136.715 328.52C136.715 330.918 138.762 333.082 142.48 334.613C142.875 334.777 143.285 334.93 143.707 335.074C143.613 335.551 143.531 336.02 143.473 336.477C142.938 340.461 143.789 343.316 145.867 344.516C146.531 344.898 147.281 345.09 148.102 345.09C149.832 345.09 151.863 344.234 154.027 342.566C154.387 342.289 154.742 341.996 155.102 341.684C155.445 341.98 155.785 342.266 156.129 342.527C158.293 344.195 160.324 345.051 162.055 345.051C162.871 345.051 163.621 344.859 164.289 344.477C166.363 343.277 167.215 340.422 166.68 336.437C166.621 335.996 166.543 335.543 166.453 335.086C166.887 334.937 167.305 334.781 167.711 334.613C171.43 333.082 173.477 330.918 173.477 328.52C173.477 326.121 171.43 323.961 167.711 322.43ZM163.641 323.574C163.441 324.27 163.211 324.977 162.945 325.695C162.719 325.273 162.484 324.852 162.242 324.43C161.984 323.984 161.723 323.547 161.453 323.121C162.211 323.25 162.941 323.402 163.641 323.574ZM162.953 331.375C163.215 332.082 163.449 332.781 163.645 333.465C162.953 333.637 162.234 333.785 161.492 333.91C161.734 333.52 161.973 333.125 162.203 332.723C162.465 332.277 162.715 331.828 162.953 331.375ZM160.176 331.555C159.625 332.508 159.047 333.426 158.445 334.297C157.355 334.387 156.234 334.434 155.094 334.434C153.949 334.434 152.824 334.387 151.73 334.297C151.121 333.414 150.531 332.484 149.977 331.52C149.406 330.531 148.883 329.531 148.418 328.543C148.875 327.578 149.383 326.609 149.938 325.648C150.523 324.637 151.137 323.668 151.777 322.75C152.855 322.66 153.969 322.617 155.094 322.617C156.219 322.617 157.324 322.664 158.398 322.75C159.027 323.656 159.637 324.613 160.211 325.613C160.773 326.59 161.289 327.57 161.75 328.547C161.281 329.543 160.754 330.551 160.176 331.555ZM155.098 338.445C154.59 337.918 154.086 337.352 153.59 336.75C154.09 336.766 154.594 336.777 155.102 336.777C155.605 336.777 156.105 336.77 156.605 336.75C156.105 337.348 155.602 337.914 155.098 338.445ZM147.945 332.687C148.184 333.102 148.43 333.508 148.68 333.91C147.934 333.781 147.211 333.633 146.52 333.461C146.719 332.777 146.953 332.078 147.215 331.371C147.449 331.809 147.695 332.25 147.945 332.687ZM147.223 325.703C146.957 324.984 146.723 324.273 146.523 323.582C147.227 323.406 147.961 323.254 148.719 323.125C148.441 323.566 148.172 324.016 147.906 324.473C147.672 324.879 147.445 325.293 147.223 325.703ZM155.098 320.266C154.609 320.266 154.129 320.273 153.648 320.289C154.125 319.719 154.609 319.18 155.098 318.672C155.586 319.176 156.066 319.719 156.543 320.289C156.062 320.273 155.582 320.266 155.098 320.266ZM145.836 320.371C145.633 318.848 145.66 317.508 145.918 316.496C146.145 315.602 146.535 314.988 147.078 314.672C147.379 314.496 147.738 314.41 148.152 314.41C148.48 314.41 148.844 314.465 149.238 314.578C150.242 314.863 151.418 315.508 152.637 316.445C152.891 316.641 153.145 316.848 153.398 317.062C152.406 318.094 151.43 319.254 150.5 320.512C148.918 320.687 147.402 320.949 145.988 321.301C145.926 320.988 145.879 320.676 145.836 320.371ZM143.375 332.445C141.953 331.859 140.809 331.164 140.059 330.437C139.398 329.793 139.062 329.148 139.062 328.52C139.062 327.891 139.398 327.246 140.059 326.602C140.809 325.875 141.953 325.18 143.375 324.594C143.668 324.473 143.969 324.359 144.281 324.246C144.684 325.637 145.207 327.078 145.844 328.531C145.207 329.973 144.68 331.402 144.277 332.785C143.965 332.68 143.664 332.566 143.375 332.445ZM149.199 342.582C148.309 342.832 147.582 342.801 147.039 342.488C146.496 342.176 146.105 341.562 145.879 340.664C145.621 339.652 145.594 338.312 145.797 336.789C145.844 336.445 145.902 336.094 145.969 335.738C147.371 336.086 148.875 336.348 150.445 336.523C151.395 337.816 152.387 339.004 153.398 340.059C153.133 340.289 152.863 340.508 152.598 340.715C151.379 341.652 150.203 342.297 149.199 342.582ZM164.355 336.75C164.559 338.273 164.531 339.613 164.273 340.625C164.047 341.52 163.656 342.133 163.113 342.449C162.57 342.762 161.844 342.797 160.953 342.543C159.949 342.258 158.773 341.613 157.555 340.676C157.301 340.48 157.047 340.273 156.793 340.055C157.801 339 158.789 337.812 159.734 336.523C161.297 336.348 162.797 336.086 164.191 335.742C164.258 336.086 164.312 336.418 164.355 336.75ZM170.137 330.437C169.387 331.164 168.242 331.859 166.82 332.445C166.52 332.57 166.211 332.687 165.895 332.797C165.492 331.41 164.965 329.98 164.332 328.531C164.969 327.074 165.492 325.633 165.891 324.238C166.211 324.352 166.52 324.469 166.82 324.594C168.242 325.18 169.387 325.871 170.137 326.602C170.797 327.246 171.133 327.891 171.133 328.52C171.133 329.148 170.797 329.793 170.137 330.437Z" fill="white"/>
<path d="M160.25 313.871C160.25 314.755 160.601 315.602 161.226 316.227C161.851 316.852 162.698 317.203 163.582 317.203C164.466 317.203 165.313 316.852 165.938 316.227C166.563 315.602 166.914 314.755 166.914 313.871C166.914 312.987 166.563 312.14 165.938 311.515C165.313 310.89 164.466 310.539 163.582 310.539C162.698 310.539 161.851 310.89 161.226 311.515C160.601 312.14 160.25 312.987 160.25 313.871Z" fill="white"/>
<path d="M420.248 250.616C421.192 251.448 422.28 252.6 422.76 253.368L423.752 252.664C423.224 251.928 422.104 250.792 421.16 249.992L420.248 250.616ZM409.88 254.296V255.448H424.136V254.296H409.88ZM409.64 259L409.992 260.2C412.008 259.752 414.84 259.096 417.464 258.488L417.368 257.4C414.552 258.008 411.544 258.648 409.64 259ZM413.32 251.192V262.728C413.32 263.016 413.224 263.096 412.936 263.096C412.648 263.112 411.704 263.128 410.68 263.08C410.856 263.432 411.064 263.976 411.128 264.296C412.456 264.312 413.304 264.264 413.816 264.072C414.328 263.88 414.52 263.528 414.52 262.744V251.192H413.32ZM416.36 249.752C414.824 250.328 412.232 250.872 409.976 251.224C410.136 251.496 410.28 251.944 410.344 252.216C412.632 251.896 415.352 251.4 417.208 250.76L416.36 249.752ZM417.96 249.704C418.024 257.32 419.448 264.344 422.584 264.344C423.784 264.344 424.216 263.56 424.44 260.904C424.104 260.776 423.672 260.504 423.416 260.232C423.32 262.296 423.128 263.128 422.696 263.128C420.744 263.128 419.176 257.048 419.208 249.704H417.96ZM422.296 256.184C420.872 258.888 418.232 261.352 415.384 262.728C415.688 263 416.024 263.384 416.216 263.688C419.16 262.136 421.8 259.56 423.368 256.632L422.296 256.184ZM434.84 250.152V251.256H439.656V250.152H434.84ZM439.192 250.152V262.76C439.192 263.016 439.096 263.096 438.84 263.112C438.568 263.128 437.688 263.144 436.776 263.096C436.936 263.416 437.112 263.944 437.16 264.248C438.424 264.248 439.24 264.232 439.72 264.04C440.216 263.848 440.392 263.496 440.392 262.776V250.152H439.192ZM431.72 250.088C432.424 251.064 433.224 252.408 433.576 253.224L434.568 252.648C434.2 251.848 433.352 250.536 432.648 249.576L431.72 250.088ZM431.048 252.792V264.28H432.216V252.792H431.048ZM429.224 249.656C428.568 252.12 427.464 254.584 426.2 256.2C426.408 256.504 426.744 257.144 426.856 257.416C428.296 255.544 429.544 252.728 430.344 249.96L429.224 249.656ZM427.96 253.688V264.28H429.112V252.6L429.064 252.568L427.96 253.688ZM449.592 255.768V264.28H450.84V255.768H449.592ZM449.64 249.64V254.136H450.84V249.64H449.64ZM445.272 257.784V262.856H446.456V258.856H454.664V257.784H445.272ZM454.328 257.784V261.56C454.328 261.736 454.28 261.8 454.056 261.8C453.832 261.816 453.128 261.832 452.296 261.8C452.456 262.104 452.632 262.52 452.68 262.856C453.784 262.856 454.52 262.84 454.952 262.664C455.432 262.488 455.544 262.168 455.544 261.576V257.784H454.328ZM443.528 254.952V258.2H444.696V255.976H455.832V258.2H457.048V254.952H443.528ZM443.096 251.48V252.52H457.48V251.48H443.096ZM445.688 249.656V254.168H446.904V249.656H445.688ZM453.72 249.656V254.2H454.92V249.656H453.72ZM459.816 256.664V257.816H474.04V256.664H459.816ZM460.584 251.496V252.648H473.368V251.496H460.584ZM466.264 249.576V264.28H467.528V249.576H466.264ZM471.016 252.936C470.648 253.912 469.944 255.304 469.384 256.152L470.408 256.52C470.984 255.72 471.688 254.44 472.264 253.336L471.016 252.936ZM461.88 253.416C462.504 254.376 463.112 255.672 463.32 256.488L464.456 256.024C464.232 255.208 463.592 253.944 462.936 253.016L461.88 253.416ZM465.944 257.112C464.568 259.32 461.896 261.544 459.464 262.6C459.736 262.84 460.12 263.288 460.312 263.576C462.744 262.376 465.4 260.008 466.92 257.512L465.944 257.112ZM467.88 257.112L466.904 257.528C468.44 259.992 471.096 262.424 473.544 263.64C473.736 263.336 474.12 262.872 474.392 262.632C471.96 261.576 469.272 259.32 467.88 257.112ZM477.656 252.136V253.208H481.4V261.512H477.656V262.6H482.52V252.136H477.656ZM476.936 252.136V263.88H478.056V252.136H476.936ZM477.576 256.584V257.656H481.992V256.584H477.576ZM479.384 249.528C479.256 250.36 478.952 251.576 478.68 252.344L479.64 252.584C479.96 251.864 480.36 250.76 480.68 249.768L479.384 249.528ZM484.792 252.088V253.208H489.704V252.088H484.792ZM489.288 252.088V252.344C489.064 259.4 488.808 262.056 488.28 262.632C488.104 262.84 487.912 262.888 487.592 262.888C487.224 262.888 486.264 262.872 485.224 262.792C485.448 263.112 485.592 263.608 485.624 263.96C486.52 264.008 487.464 264.04 488.008 263.976C488.568 263.928 488.936 263.784 489.288 263.32C489.928 262.536 490.152 260.056 490.408 252.712C490.408 252.536 490.408 252.088 490.408 252.088H489.288ZM485.128 249.496C484.616 251.72 483.736 253.928 482.648 255.336C482.936 255.496 483.432 255.832 483.64 256.024C484.744 254.504 485.688 252.152 486.28 249.768L485.128 249.496ZM484.392 256.248C485.272 257.416 486.344 259 486.824 259.976L487.848 259.336C487.336 258.392 486.232 256.84 485.32 255.704L484.392 256.248ZM493.944 255.256V256.36H498.008V255.256H493.944ZM493.304 250.968V252.088H497.592V256.968H498.744V250.968H493.304ZM493.304 255.256V260.376C493.304 261.736 493.704 262.088 495.128 262.088C495.432 262.088 497.288 262.088 497.608 262.088C498.856 262.088 499.192 261.576 499.336 259.544C499 259.464 498.504 259.272 498.248 259.064C498.184 260.696 498.088 260.952 497.512 260.952C497.112 260.952 495.56 260.952 495.256 260.952C494.584 260.952 494.472 260.872 494.472 260.36V255.256H493.304ZM501 252.504V253.64H507.592V252.504H501ZM501.416 249.576C500.904 252.232 499.944 254.728 498.536 256.312C498.84 256.488 499.368 256.856 499.608 257.064C501 255.336 502.04 252.68 502.664 249.784L501.416 249.576ZM505.16 252.952C504.392 258.488 502.52 261.624 497.944 263.272C498.184 263.544 498.552 264.072 498.68 264.344C503.432 262.392 505.48 259.064 506.376 253.096L505.16 252.952ZM501.48 253.528L500.376 253.736C501.352 258.728 503.224 262.536 506.936 264.28C507.128 263.944 507.512 263.48 507.784 263.24C504.216 261.736 502.344 258.072 501.48 253.528ZM512.456 262.776V263.736H521.272V262.776H512.456ZM511.896 259.912V264.28H513.064V260.872H520.648V264.232H521.88V259.912H511.896ZM510.584 251.336V252.28H523.112V251.336H510.584ZM510.152 255.352V256.296H523.608V255.352H510.152ZM511.56 253.352V254.248H522.12V253.352H511.56ZM509.672 258.008V258.968H524.024V258.008H509.672ZM516.184 251.752V258.424H517.416V251.752H516.184ZM512.792 249.896C513.208 250.44 513.656 251.192 513.816 251.672L514.952 251.288C514.744 250.808 514.312 250.088 513.864 249.576L512.792 249.896ZM512.088 256.536C512.456 257.016 512.856 257.704 513 258.168L514.152 257.816C513.976 257.368 513.576 256.712 513.16 256.232L512.088 256.536ZM519.656 249.544C519.432 250.072 518.984 250.84 518.648 251.352L519.704 251.608C520.056 251.16 520.504 250.488 520.888 249.816L519.656 249.544ZM520.392 256.248C520.168 256.712 519.736 257.416 519.416 257.864L520.488 258.104C520.84 257.704 521.224 257.112 521.592 256.504L520.392 256.248ZM536.728 250.616C537.672 251.448 538.76 252.6 539.24 253.368L540.232 252.664C539.704 251.928 538.584 250.792 537.64 249.992L536.728 250.616ZM526.36 254.296V255.448H540.616V254.296H526.36ZM526.12 259L526.472 260.2C528.488 259.752 531.32 259.096 533.944 258.488L533.848 257.4C531.032 258.008 528.024 258.648 526.12 259ZM529.8 251.192V262.728C529.8 263.016 529.704 263.096 529.416 263.096C529.128 263.112 528.184 263.128 527.16 263.08C527.336 263.432 527.544 263.976 527.608 264.296C528.936 264.312 529.784 264.264 530.296 264.072C530.808 263.88 531 263.528 531 262.744V251.192H529.8ZM532.84 249.752C531.304 250.328 528.712 250.872 526.456 251.224C526.616 251.496 526.76 251.944 526.824 252.216C529.112 251.896 531.832 251.4 533.688 250.76L532.84 249.752ZM534.44 249.704C534.504 257.32 535.928 264.344 539.064 264.344C540.264 264.344 540.696 263.56 540.92 260.904C540.584 260.776 540.152 260.504 539.896 260.232C539.8 262.296 539.608 263.128 539.176 263.128C537.224 263.128 535.656 257.048 535.688 249.704H534.44ZM538.776 256.184C537.352 258.888 534.712 261.352 531.864 262.728C532.168 263 532.504 263.384 532.696 263.688C535.64 262.136 538.28 259.56 539.848 256.632L538.776 256.184ZM551.32 250.152V251.256H556.136V250.152H551.32ZM555.672 250.152V262.76C555.672 263.016 555.576 263.096 555.32 263.112C555.048 263.128 554.168 263.144 553.256 263.096C553.416 263.416 553.592 263.944 553.64 264.248C554.904 264.248 555.72 264.232 556.2 264.04C556.696 263.848 556.872 263.496 556.872 262.776V250.152H555.672ZM548.2 250.088C548.904 251.064 549.704 252.408 550.056 253.224L551.048 252.648C550.68 251.848 549.832 250.536 549.128 249.576L548.2 250.088ZM547.528 252.792V264.28H548.696V252.792H547.528ZM545.704 249.656C545.048 252.12 543.944 254.584 542.68 256.2C542.888 256.504 543.224 257.144 543.336 257.416C544.776 255.544 546.024 252.728 546.824 249.96L545.704 249.656ZM544.44 253.688V264.28H545.592V252.6L545.544 252.568L544.44 253.688ZM566.072 255.768V264.28H567.32V255.768H566.072ZM566.12 249.64V254.136H567.32V249.64H566.12ZM561.752 257.784V262.856H562.936V258.856H571.144V257.784H561.752ZM570.808 257.784V261.56C570.808 261.736 570.76 261.8 570.536 261.8C570.312 261.816 569.608 261.832 568.776 261.8C568.936 262.104 569.112 262.52 569.16 262.856C570.264 262.856 571 262.84 571.432 262.664C571.912 262.488 572.024 262.168 572.024 261.576V257.784H570.808ZM560.008 254.952V258.2H561.176V255.976H572.312V258.2H573.528V254.952H560.008ZM559.576 251.48V252.52H573.96V251.48H559.576ZM562.168 249.656V254.168H563.384V249.656H562.168ZM570.2 249.656V254.2H571.4V249.656H570.2ZM576.296 256.664V257.816H590.52V256.664H576.296ZM577.064 251.496V252.648H589.848V251.496H577.064ZM582.744 249.576V264.28H584.008V249.576H582.744ZM587.496 252.936C587.128 253.912 586.424 255.304 585.864 256.152L586.888 256.52C587.464 255.72 588.168 254.44 588.744 253.336L587.496 252.936ZM578.36 253.416C578.984 254.376 579.592 255.672 579.8 256.488L580.936 256.024C580.712 255.208 580.072 253.944 579.416 253.016L578.36 253.416ZM582.424 257.112C581.048 259.32 578.376 261.544 575.944 262.6C576.216 262.84 576.6 263.288 576.792 263.576C579.224 262.376 581.88 260.008 583.4 257.512L582.424 257.112ZM584.36 257.112L583.384 257.528C584.92 259.992 587.576 262.424 590.024 263.64C590.216 263.336 590.6 262.872 590.872 262.632C588.44 261.576 585.752 259.32 584.36 257.112Z" fill="#353535"/>
<circle cx="470" cy="165" r="32" fill="#99DE54"/>
<path d="M482.711 159.43C482.301 159.262 481.879 159.102 481.437 158.953C481.52 158.535 481.586 158.125 481.641 157.723C481.812 156.449 481.84 155.293 481.734 154.27C481.109 154.852 480.324 155.266 479.453 155.434C479.457 156.043 479.414 156.707 479.32 157.41C479.281 157.699 479.234 157.996 479.18 158.293C477.773 157.949 476.266 157.684 474.688 157.512C473.762 156.254 472.793 155.098 471.801 154.066C472.039 153.863 472.281 153.668 472.52 153.484C473.094 153.043 473.656 152.668 474.195 152.363C474.039 151.902 473.957 151.406 473.957 150.891C473.957 150.516 474.004 150.148 474.086 149.797C473.129 150.219 472.125 150.828 471.09 151.629C470.762 151.883 470.43 152.156 470.102 152.441C469.758 152.141 469.414 151.855 469.066 151.59C465.883 149.137 462.984 148.445 460.906 149.641C458.828 150.84 457.98 153.695 458.512 157.68C458.566 158.098 458.641 158.527 458.723 158.961C458.293 159.109 457.879 159.262 457.48 159.426C453.762 160.957 451.715 163.121 451.715 165.52C451.715 167.918 453.762 170.082 457.48 171.613C457.875 171.777 458.285 171.93 458.707 172.074C458.613 172.551 458.531 173.02 458.473 173.477C457.938 177.461 458.789 180.316 460.867 181.516C461.531 181.898 462.281 182.09 463.102 182.09C464.832 182.09 466.863 181.234 469.027 179.566C469.387 179.289 469.742 178.996 470.102 178.684C470.445 178.98 470.785 179.266 471.129 179.527C473.293 181.195 475.324 182.051 477.055 182.051C477.871 182.051 478.621 181.859 479.289 181.477C481.363 180.277 482.215 177.422 481.68 173.437C481.621 172.996 481.543 172.543 481.453 172.086C481.887 171.937 482.305 171.781 482.711 171.613C486.43 170.082 488.477 167.918 488.477 165.52C488.477 163.121 486.43 160.961 482.711 159.43ZM478.641 160.574C478.441 161.27 478.211 161.977 477.945 162.695C477.719 162.273 477.484 161.852 477.242 161.43C476.984 160.984 476.723 160.547 476.453 160.121C477.211 160.25 477.941 160.402 478.641 160.574ZM477.953 168.375C478.215 169.082 478.449 169.781 478.645 170.465C477.953 170.637 477.234 170.785 476.492 170.91C476.734 170.52 476.973 170.125 477.203 169.723C477.465 169.277 477.715 168.828 477.953 168.375ZM475.176 168.555C474.625 169.508 474.047 170.426 473.445 171.297C472.355 171.387 471.234 171.434 470.094 171.434C468.949 171.434 467.824 171.387 466.73 171.297C466.121 170.414 465.531 169.484 464.977 168.52C464.406 167.531 463.883 166.531 463.418 165.543C463.875 164.578 464.383 163.609 464.938 162.648C465.523 161.637 466.137 160.668 466.777 159.75C467.855 159.66 468.969 159.617 470.094 159.617C471.219 159.617 472.324 159.664 473.398 159.75C474.027 160.656 474.637 161.613 475.211 162.613C475.773 163.59 476.289 164.57 476.75 165.547C476.281 166.543 475.754 167.551 475.176 168.555ZM470.098 175.445C469.59 174.918 469.086 174.352 468.59 173.75C469.09 173.766 469.594 173.777 470.102 173.777C470.605 173.777 471.105 173.77 471.605 173.75C471.105 174.348 470.602 174.914 470.098 175.445ZM462.945 169.687C463.184 170.102 463.43 170.508 463.68 170.91C462.934 170.781 462.211 170.633 461.52 170.461C461.719 169.777 461.953 169.078 462.215 168.371C462.449 168.809 462.695 169.25 462.945 169.687ZM462.223 162.703C461.957 161.984 461.723 161.273 461.523 160.582C462.227 160.406 462.961 160.254 463.719 160.125C463.441 160.566 463.172 161.016 462.906 161.473C462.672 161.879 462.445 162.293 462.223 162.703ZM470.098 157.266C469.609 157.266 469.129 157.273 468.648 157.289C469.125 156.719 469.609 156.18 470.098 155.672C470.586 156.176 471.066 156.719 471.543 157.289C471.062 157.273 470.582 157.266 470.098 157.266ZM460.836 157.371C460.633 155.848 460.66 154.508 460.918 153.496C461.145 152.602 461.535 151.988 462.078 151.672C462.379 151.496 462.738 151.41 463.152 151.41C463.48 151.41 463.844 151.465 464.238 151.578C465.242 151.863 466.418 152.508 467.637 153.445C467.891 153.641 468.145 153.848 468.398 154.062C467.406 155.094 466.43 156.254 465.5 157.512C463.918 157.687 462.402 157.949 460.988 158.301C460.926 157.988 460.879 157.676 460.836 157.371ZM458.375 169.445C456.953 168.859 455.809 168.164 455.059 167.437C454.398 166.793 454.062 166.148 454.062 165.52C454.062 164.891 454.398 164.246 455.059 163.602C455.809 162.875 456.953 162.18 458.375 161.594C458.668 161.473 458.969 161.359 459.281 161.246C459.684 162.637 460.207 164.078 460.844 165.531C460.207 166.973 459.68 168.402 459.277 169.785C458.965 169.68 458.664 169.566 458.375 169.445ZM464.199 179.582C463.309 179.832 462.582 179.801 462.039 179.488C461.496 179.176 461.105 178.562 460.879 177.664C460.621 176.652 460.594 175.312 460.797 173.789C460.844 173.445 460.902 173.094 460.969 172.738C462.371 173.086 463.875 173.348 465.445 173.523C466.395 174.816 467.387 176.004 468.398 177.059C468.133 177.289 467.863 177.508 467.598 177.715C466.379 178.652 465.203 179.297 464.199 179.582ZM479.355 173.75C479.559 175.273 479.531 176.613 479.273 177.625C479.047 178.52 478.656 179.133 478.113 179.449C477.57 179.762 476.844 179.797 475.953 179.543C474.949 179.258 473.773 178.613 472.555 177.676C472.301 177.48 472.047 177.273 471.793 177.055C472.801 176 473.789 174.812 474.734 173.523C476.297 173.348 477.797 173.086 479.191 172.742C479.258 173.086 479.312 173.418 479.355 173.75ZM485.137 167.437C484.387 168.164 483.242 168.859 481.82 169.445C481.52 169.57 481.211 169.687 480.895 169.797C480.492 168.41 479.965 166.98 479.332 165.531C479.969 164.074 480.492 162.633 480.891 161.238C481.211 161.352 481.52 161.469 481.82 161.594C483.242 162.18 484.387 162.871 485.137 163.602C485.797 164.246 486.133 164.891 486.133 165.52C486.133 166.148 485.797 166.793 485.137 167.437Z" fill="white"/>
<path d="M475.25 150.871C475.25 151.755 475.601 152.602 476.226 153.227C476.851 153.852 477.698 154.203 478.582 154.203C479.466 154.203 480.313 153.852 480.938 153.227C481.563 152.602 481.914 151.755 481.914 150.871C481.914 149.987 481.563 149.14 480.938 148.515C480.313 147.89 479.466 147.539 478.582 147.539C477.698 147.539 476.851 147.89 476.226 148.515C475.601 149.14 475.25 149.987 475.25 150.871Z" fill="white"/>
<path d="M420.248 413.616C421.192 414.448 422.28 415.6 422.76 416.368L423.752 415.664C423.224 414.928 422.104 413.792 421.16 412.992L420.248 413.616ZM409.88 417.296V418.448H424.136V417.296H409.88ZM409.64 422L409.992 423.2C412.008 422.752 414.84 422.096 417.464 421.488L417.368 420.4C414.552 421.008 411.544 421.648 409.64 422ZM413.32 414.192V425.728C413.32 426.016 413.224 426.096 412.936 426.096C412.648 426.112 411.704 426.128 410.68 426.08C410.856 426.432 411.064 426.976 411.128 427.296C412.456 427.312 413.304 427.264 413.816 427.072C414.328 426.88 414.52 426.528 414.52 425.744V414.192H413.32ZM416.36 412.752C414.824 413.328 412.232 413.872 409.976 414.224C410.136 414.496 410.28 414.944 410.344 415.216C412.632 414.896 415.352 414.4 417.208 413.76L416.36 412.752ZM417.96 412.704C418.024 420.32 419.448 427.344 422.584 427.344C423.784 427.344 424.216 426.56 424.44 423.904C424.104 423.776 423.672 423.504 423.416 423.232C423.32 425.296 423.128 426.128 422.696 426.128C420.744 426.128 419.176 420.048 419.208 412.704H417.96ZM422.296 419.184C420.872 421.888 418.232 424.352 415.384 425.728C415.688 426 416.024 426.384 416.216 426.688C419.16 425.136 421.8 422.56 423.368 419.632L422.296 419.184ZM434.84 413.152V414.256H439.656V413.152H434.84ZM439.192 413.152V425.76C439.192 426.016 439.096 426.096 438.84 426.112C438.568 426.128 437.688 426.144 436.776 426.096C436.936 426.416 437.112 426.944 437.16 427.248C438.424 427.248 439.24 427.232 439.72 427.04C440.216 426.848 440.392 426.496 440.392 425.776V413.152H439.192ZM431.72 413.088C432.424 414.064 433.224 415.408 433.576 416.224L434.568 415.648C434.2 414.848 433.352 413.536 432.648 412.576L431.72 413.088ZM431.048 415.792V427.28H432.216V415.792H431.048ZM429.224 412.656C428.568 415.12 427.464 417.584 426.2 419.2C426.408 419.504 426.744 420.144 426.856 420.416C428.296 418.544 429.544 415.728 430.344 412.96L429.224 412.656ZM427.96 416.688V427.28H429.112V415.6L429.064 415.568L427.96 416.688ZM449.592 418.768V427.28H450.84V418.768H449.592ZM449.64 412.64V417.136H450.84V412.64H449.64ZM445.272 420.784V425.856H446.456V421.856H454.664V420.784H445.272ZM454.328 420.784V424.56C454.328 424.736 454.28 424.8 454.056 424.8C453.832 424.816 453.128 424.832 452.296 424.8C452.456 425.104 452.632 425.52 452.68 425.856C453.784 425.856 454.52 425.84 454.952 425.664C455.432 425.488 455.544 425.168 455.544 424.576V420.784H454.328ZM443.528 417.952V421.2H444.696V418.976H455.832V421.2H457.048V417.952H443.528ZM443.096 414.48V415.52H457.48V414.48H443.096ZM445.688 412.656V417.168H446.904V412.656H445.688ZM453.72 412.656V417.2H454.92V412.656H453.72ZM459.816 419.664V420.816H474.04V419.664H459.816ZM460.584 414.496V415.648H473.368V414.496H460.584ZM466.264 412.576V427.28H467.528V412.576H466.264ZM471.016 415.936C470.648 416.912 469.944 418.304 469.384 419.152L470.408 419.52C470.984 418.72 471.688 417.44 472.264 416.336L471.016 415.936ZM461.88 416.416C462.504 417.376 463.112 418.672 463.32 419.488L464.456 419.024C464.232 418.208 463.592 416.944 462.936 416.016L461.88 416.416ZM465.944 420.112C464.568 422.32 461.896 424.544 459.464 425.6C459.736 425.84 460.12 426.288 460.312 426.576C462.744 425.376 465.4 423.008 466.92 420.512L465.944 420.112ZM467.88 420.112L466.904 420.528C468.44 422.992 471.096 425.424 473.544 426.64C473.736 426.336 474.12 425.872 474.392 425.632C471.96 424.576 469.272 422.32 467.88 420.112ZM477.656 415.136V416.208H481.4V424.512H477.656V425.6H482.52V415.136H477.656ZM476.936 415.136V426.88H478.056V415.136H476.936ZM477.576 419.584V420.656H481.992V419.584H477.576ZM479.384 412.528C479.256 413.36 478.952 414.576 478.68 415.344L479.64 415.584C479.96 414.864 480.36 413.76 480.68 412.768L479.384 412.528ZM484.792 415.088V416.208H489.704V415.088H484.792ZM489.288 415.088V415.344C489.064 422.4 488.808 425.056 488.28 425.632C488.104 425.84 487.912 425.888 487.592 425.888C487.224 425.888 486.264 425.872 485.224 425.792C485.448 426.112 485.592 426.608 485.624 426.96C486.52 427.008 487.464 427.04 488.008 426.976C488.568 426.928 488.936 426.784 489.288 426.32C489.928 425.536 490.152 423.056 490.408 415.712C490.408 415.536 490.408 415.088 490.408 415.088H489.288ZM485.128 412.496C484.616 414.72 483.736 416.928 482.648 418.336C482.936 418.496 483.432 418.832 483.64 419.024C484.744 417.504 485.688 415.152 486.28 412.768L485.128 412.496ZM484.392 419.248C485.272 420.416 486.344 422 486.824 422.976L487.848 422.336C487.336 421.392 486.232 419.84 485.32 418.704L484.392 419.248ZM493.944 418.256V419.36H498.008V418.256H493.944ZM493.304 413.968V415.088H497.592V419.968H498.744V413.968H493.304ZM493.304 418.256V423.376C493.304 424.736 493.704 425.088 495.128 425.088C495.432 425.088 497.288 425.088 497.608 425.088C498.856 425.088 499.192 424.576 499.336 422.544C499 422.464 498.504 422.272 498.248 422.064C498.184 423.696 498.088 423.952 497.512 423.952C497.112 423.952 495.56 423.952 495.256 423.952C494.584 423.952 494.472 423.872 494.472 423.36V418.256H493.304ZM501 415.504V416.64H507.592V415.504H501ZM501.416 412.576C500.904 415.232 499.944 417.728 498.536 419.312C498.84 419.488 499.368 419.856 499.608 420.064C501 418.336 502.04 415.68 502.664 412.784L501.416 412.576ZM505.16 415.952C504.392 421.488 502.52 424.624 497.944 426.272C498.184 426.544 498.552 427.072 498.68 427.344C503.432 425.392 505.48 422.064 506.376 416.096L505.16 415.952ZM501.48 416.528L500.376 416.736C501.352 421.728 503.224 425.536 506.936 427.28C507.128 426.944 507.512 426.48 507.784 426.24C504.216 424.736 502.344 421.072 501.48 416.528ZM512.456 425.776V426.736H521.272V425.776H512.456ZM511.896 422.912V427.28H513.064V423.872H520.648V427.232H521.88V422.912H511.896ZM510.584 414.336V415.28H523.112V414.336H510.584ZM510.152 418.352V419.296H523.608V418.352H510.152ZM511.56 416.352V417.248H522.12V416.352H511.56ZM509.672 421.008V421.968H524.024V421.008H509.672ZM516.184 414.752V421.424H517.416V414.752H516.184ZM512.792 412.896C513.208 413.44 513.656 414.192 513.816 414.672L514.952 414.288C514.744 413.808 514.312 413.088 513.864 412.576L512.792 412.896ZM512.088 419.536C512.456 420.016 512.856 420.704 513 421.168L514.152 420.816C513.976 420.368 513.576 419.712 513.16 419.232L512.088 419.536ZM519.656 412.544C519.432 413.072 518.984 413.84 518.648 414.352L519.704 414.608C520.056 414.16 520.504 413.488 520.888 412.816L519.656 412.544ZM520.392 419.248C520.168 419.712 519.736 420.416 519.416 420.864L520.488 421.104C520.84 420.704 521.224 420.112 521.592 419.504L520.392 419.248ZM536.728 413.616C537.672 414.448 538.76 415.6 539.24 416.368L540.232 415.664C539.704 414.928 538.584 413.792 537.64 412.992L536.728 413.616ZM526.36 417.296V418.448H540.616V417.296H526.36ZM526.12 422L526.472 423.2C528.488 422.752 531.32 422.096 533.944 421.488L533.848 420.4C531.032 421.008 528.024 421.648 526.12 422ZM529.8 414.192V425.728C529.8 426.016 529.704 426.096 529.416 426.096C529.128 426.112 528.184 426.128 527.16 426.08C527.336 426.432 527.544 426.976 527.608 427.296C528.936 427.312 529.784 427.264 530.296 427.072C530.808 426.88 531 426.528 531 425.744V414.192H529.8ZM532.84 412.752C531.304 413.328 528.712 413.872 526.456 414.224C526.616 414.496 526.76 414.944 526.824 415.216C529.112 414.896 531.832 414.4 533.688 413.76L532.84 412.752ZM534.44 412.704C534.504 420.32 535.928 427.344 539.064 427.344C540.264 427.344 540.696 426.56 540.92 423.904C540.584 423.776 540.152 423.504 539.896 423.232C539.8 425.296 539.608 426.128 539.176 426.128C537.224 426.128 535.656 420.048 535.688 412.704H534.44ZM538.776 419.184C537.352 421.888 534.712 424.352 531.864 425.728C532.168 426 532.504 426.384 532.696 426.688C535.64 425.136 538.28 422.56 539.848 419.632L538.776 419.184ZM551.32 413.152V414.256H556.136V413.152H551.32ZM555.672 413.152V425.76C555.672 426.016 555.576 426.096 555.32 426.112C555.048 426.128 554.168 426.144 553.256 426.096C553.416 426.416 553.592 426.944 553.64 427.248C554.904 427.248 555.72 427.232 556.2 427.04C556.696 426.848 556.872 426.496 556.872 425.776V413.152H555.672ZM548.2 413.088C548.904 414.064 549.704 415.408 550.056 416.224L551.048 415.648C550.68 414.848 549.832 413.536 549.128 412.576L548.2 413.088ZM547.528 415.792V427.28H548.696V415.792H547.528ZM545.704 412.656C545.048 415.12 543.944 417.584 542.68 419.2C542.888 419.504 543.224 420.144 543.336 420.416C544.776 418.544 546.024 415.728 546.824 412.96L545.704 412.656ZM544.44 416.688V427.28H545.592V415.6L545.544 415.568L544.44 416.688ZM566.072 418.768V427.28H567.32V418.768H566.072ZM566.12 412.64V417.136H567.32V412.64H566.12ZM561.752 420.784V425.856H562.936V421.856H571.144V420.784H561.752ZM570.808 420.784V424.56C570.808 424.736 570.76 424.8 570.536 424.8C570.312 424.816 569.608 424.832 568.776 424.8C568.936 425.104 569.112 425.52 569.16 425.856C570.264 425.856 571 425.84 571.432 425.664C571.912 425.488 572.024 425.168 572.024 424.576V420.784H570.808ZM560.008 417.952V421.2H561.176V418.976H572.312V421.2H573.528V417.952H560.008ZM559.576 414.48V415.52H573.96V414.48H559.576ZM562.168 412.656V417.168H563.384V412.656H562.168ZM570.2 412.656V417.2H571.4V412.656H570.2ZM576.296 419.664V420.816H590.52V419.664H576.296ZM577.064 414.496V415.648H589.848V414.496H577.064ZM582.744 412.576V427.28H584.008V412.576H582.744ZM587.496 415.936C587.128 416.912 586.424 418.304 585.864 419.152L586.888 419.52C587.464 418.72 588.168 417.44 588.744 416.336L587.496 415.936ZM578.36 416.416C578.984 417.376 579.592 418.672 579.8 419.488L580.936 419.024C580.712 418.208 580.072 416.944 579.416 416.016L578.36 416.416ZM582.424 420.112C581.048 422.32 578.376 424.544 575.944 425.6C576.216 425.84 576.6 426.288 576.792 426.576C579.224 425.376 581.88 423.008 583.4 420.512L582.424 420.112ZM584.36 420.112L583.384 420.528C584.92 422.992 587.576 425.424 590.024 426.64C590.216 426.336 590.6 425.872 590.872 425.632C588.44 424.576 585.752 422.32 584.36 420.112Z" fill="#353535"/>
<circle cx="470" cy="328" r="32" fill="#66ADEE"/>
<path d="M482.711 322.43C482.301 322.262 481.879 322.102 481.437 321.953C481.52 321.535 481.586 321.125 481.641 320.723C481.812 319.449 481.84 318.293 481.734 317.27C481.109 317.852 480.324 318.266 479.453 318.434C479.457 319.043 479.414 319.707 479.32 320.41C479.281 320.699 479.234 320.996 479.18 321.293C477.773 320.949 476.266 320.684 474.688 320.512C473.762 319.254 472.793 318.098 471.801 317.066C472.039 316.863 472.281 316.668 472.52 316.484C473.094 316.043 473.656 315.668 474.195 315.363C474.039 314.902 473.957 314.406 473.957 313.891C473.957 313.516 474.004 313.148 474.086 312.797C473.129 313.219 472.125 313.828 471.09 314.629C470.762 314.883 470.43 315.156 470.102 315.441C469.758 315.141 469.414 314.855 469.066 314.59C465.883 312.137 462.984 311.445 460.906 312.641C458.828 313.84 457.98 316.695 458.512 320.68C458.566 321.098 458.641 321.527 458.723 321.961C458.293 322.109 457.879 322.262 457.48 322.426C453.762 323.957 451.715 326.121 451.715 328.52C451.715 330.918 453.762 333.082 457.48 334.613C457.875 334.777 458.285 334.93 458.707 335.074C458.613 335.551 458.531 336.02 458.473 336.477C457.938 340.461 458.789 343.316 460.867 344.516C461.531 344.898 462.281 345.09 463.102 345.09C464.832 345.09 466.863 344.234 469.027 342.566C469.387 342.289 469.742 341.996 470.102 341.684C470.445 341.98 470.785 342.266 471.129 342.527C473.293 344.195 475.324 345.051 477.055 345.051C477.871 345.051 478.621 344.859 479.289 344.477C481.363 343.277 482.215 340.422 481.68 336.437C481.621 335.996 481.543 335.543 481.453 335.086C481.887 334.937 482.305 334.781 482.711 334.613C486.43 333.082 488.477 330.918 488.477 328.52C488.477 326.121 486.43 323.961 482.711 322.43ZM478.641 323.574C478.441 324.27 478.211 324.977 477.945 325.695C477.719 325.273 477.484 324.852 477.242 324.43C476.984 323.984 476.723 323.547 476.453 323.121C477.211 323.25 477.941 323.402 478.641 323.574ZM477.953 331.375C478.215 332.082 478.449 332.781 478.645 333.465C477.953 333.637 477.234 333.785 476.492 333.91C476.734 333.52 476.973 333.125 477.203 332.723C477.465 332.277 477.715 331.828 477.953 331.375ZM475.176 331.555C474.625 332.508 474.047 333.426 473.445 334.297C472.355 334.387 471.234 334.434 470.094 334.434C468.949 334.434 467.824 334.387 466.73 334.297C466.121 333.414 465.531 332.484 464.977 331.52C464.406 330.531 463.883 329.531 463.418 328.543C463.875 327.578 464.383 326.609 464.938 325.648C465.523 324.637 466.137 323.668 466.777 322.75C467.855 322.66 468.969 322.617 470.094 322.617C471.219 322.617 472.324 322.664 473.398 322.75C474.027 323.656 474.637 324.613 475.211 325.613C475.773 326.59 476.289 327.57 476.75 328.547C476.281 329.543 475.754 330.551 475.176 331.555ZM470.098 338.445C469.59 337.918 469.086 337.352 468.59 336.75C469.09 336.766 469.594 336.777 470.102 336.777C470.605 336.777 471.105 336.77 471.605 336.75C471.105 337.348 470.602 337.914 470.098 338.445ZM462.945 332.687C463.184 333.102 463.43 333.508 463.68 333.91C462.934 333.781 462.211 333.633 461.52 333.461C461.719 332.777 461.953 332.078 462.215 331.371C462.449 331.809 462.695 332.25 462.945 332.687ZM462.223 325.703C461.957 324.984 461.723 324.273 461.523 323.582C462.227 323.406 462.961 323.254 463.719 323.125C463.441 323.566 463.172 324.016 462.906 324.473C462.672 324.879 462.445 325.293 462.223 325.703ZM470.098 320.266C469.609 320.266 469.129 320.273 468.648 320.289C469.125 319.719 469.609 319.18 470.098 318.672C470.586 319.176 471.066 319.719 471.543 320.289C471.062 320.273 470.582 320.266 470.098 320.266ZM460.836 320.371C460.633 318.848 460.66 317.508 460.918 316.496C461.145 315.602 461.535 314.988 462.078 314.672C462.379 314.496 462.738 314.41 463.152 314.41C463.48 314.41 463.844 314.465 464.238 314.578C465.242 314.863 466.418 315.508 467.637 316.445C467.891 316.641 468.145 316.848 468.398 317.062C467.406 318.094 466.43 319.254 465.5 320.512C463.918 320.687 462.402 320.949 460.988 321.301C460.926 320.988 460.879 320.676 460.836 320.371ZM458.375 332.445C456.953 331.859 455.809 331.164 455.059 330.437C454.398 329.793 454.062 329.148 454.062 328.52C454.062 327.891 454.398 327.246 455.059 326.602C455.809 325.875 456.953 325.18 458.375 324.594C458.668 324.473 458.969 324.359 459.281 324.246C459.684 325.637 460.207 327.078 460.844 328.531C460.207 329.973 459.68 331.402 459.277 332.785C458.965 332.68 458.664 332.566 458.375 332.445ZM464.199 342.582C463.309 342.832 462.582 342.801 462.039 342.488C461.496 342.176 461.105 341.562 460.879 340.664C460.621 339.652 460.594 338.312 460.797 336.789C460.844 336.445 460.902 336.094 460.969 335.738C462.371 336.086 463.875 336.348 465.445 336.523C466.395 337.816 467.387 339.004 468.398 340.059C468.133 340.289 467.863 340.508 467.598 340.715C466.379 341.652 465.203 342.297 464.199 342.582ZM479.355 336.75C479.559 338.273 479.531 339.613 479.273 340.625C479.047 341.52 478.656 342.133 478.113 342.449C477.57 342.762 476.844 342.797 475.953 342.543C474.949 342.258 473.773 341.613 472.555 340.676C472.301 340.48 472.047 340.273 471.793 340.055C472.801 339 473.789 337.812 474.734 336.523C476.297 336.348 477.797 336.086 479.191 335.742C479.258 336.086 479.312 336.418 479.355 336.75ZM485.137 330.437C484.387 331.164 483.242 331.859 481.82 332.445C481.52 332.57 481.211 332.687 480.895 332.797C480.492 331.41 479.965 329.98 479.332 328.531C479.969 327.074 480.492 325.633 480.891 324.238C481.211 324.352 481.52 324.469 481.82 324.594C483.242 325.18 484.387 325.871 485.137 326.602C485.797 327.246 486.133 327.891 486.133 328.52C486.133 329.148 485.797 329.793 485.137 330.437Z" fill="white"/>
<path d="M475.25 313.871C475.25 314.755 475.601 315.602 476.226 316.227C476.851 316.852 477.698 317.203 478.582 317.203C479.466 317.203 480.313 316.852 480.938 316.227C481.563 315.602 481.914 314.755 481.914 313.871C481.914 312.987 481.563 312.14 480.938 311.515C480.313 310.89 479.466 310.539 478.582 310.539C477.698 310.539 476.851 310.89 476.226 311.515C475.601 312.14 475.25 312.987 475.25 313.871Z" fill="white"/>
<defs>
<filter id="filter0_d_572_26" x="1174" y="99" width="150" height="314" filterUnits="userSpaceOnUse" color-interpolation-filters="sRGB">
<feFlood flood-opacity="0" result="BackgroundImageFix"/>
<feColorMatrix in="SourceAlpha" type="matrix" values="0 0 0 0 0 0 0 0 0 0 0 0 0 0 0 0 0 0 127 0" result="hardAlpha"/>
<feMorphology radius="1" operator="dilate" in="SourceAlpha" result="effect1_dropShadow_572_26"/>
<feOffset/>
<feGaussianBlur stdDeviation="0.5"/>
<feComposite in2="hardAlpha" operator="out"/>
<feColorMatrix type="matrix" values="0 0 0 0 0.754167 0 0 0 0 0.51624 0 0 0 0 0.236934 0 0 0 0.88 0"/>
<feBlend mode="normal" in2="BackgroundImageFix" result="effect1_dropShadow_572_26"/>
<feBlend mode="normal" in="SourceGraphic" in2="effect1_dropShadow_572_26" result="shape"/>
</filter>
<linearGradient id="paint0_linear_572_26" x1="1224.03" y1="101" x2="1398.32" y2="147.405" gradientUnits="userSpaceOnUse">
<stop stop-color="#FF0000"/>
<stop offset="1" stop-opacity="0"/>
</linearGradient>
</defs>
</svg>
