<svg width="162" height="82" viewBox="0 0 162 82" fill="none" xmlns="http://www.w3.org/2000/svg">
<path d="M28.56 14.548C29.871 16.434 31.32 18.964 31.872 20.551L34.54 19.309C33.896 17.676 32.332 15.261 31.021 13.49L28.56 14.548ZM22.005 2.519V10.845H24.857V2.519H22.005ZM13.173 9.856V12.501H33.919V9.856H13.173ZM15.473 4.865V7.487H31.964V4.865H15.473ZM24.834 11.443V20.919C24.834 21.218 24.719 21.287 24.374 21.287C24.052 21.31 22.879 21.333 21.867 21.287C22.258 22.046 22.672 23.242 22.787 24.047C24.443 24.047 25.662 24.001 26.582 23.564C27.502 23.104 27.732 22.368 27.732 20.988V11.443H24.834ZM15.749 13.674C15.174 15.422 13.909 17.607 12.437 18.918C13.081 19.263 14.093 19.953 14.668 20.459C16.232 18.964 17.635 16.549 18.532 14.387L15.749 13.674ZM19.866 10.914V13.49C19.866 16.112 19.452 19.631 15.542 22.161C16.232 22.621 17.221 23.587 17.635 24.208C22.12 21.195 22.649 16.825 22.649 13.559V10.914H19.866ZM43.763 3.669V11.075C43.763 14.617 43.556 19.447 41.003 22.736C41.67 23.012 42.82 23.702 43.326 24.139C46.017 20.643 46.408 15.008 46.408 11.075V3.669H43.763ZM47.42 11.742V20.436C47.42 23.081 48.087 23.886 50.709 23.886C51.238 23.886 53.423 23.886 53.952 23.886C56.252 23.886 56.942 22.828 57.218 19.125C56.528 18.964 55.401 18.527 54.849 18.09C54.734 20.942 54.596 21.448 53.745 21.448C53.239 21.448 51.468 21.448 51.077 21.448C50.157 21.448 50.019 21.31 50.019 20.413V11.742H47.42ZM54.481 12.57C53.009 13.835 50.548 15.215 48.294 16.158C48.616 16.687 49.03 17.561 49.191 18.09C51.652 17.17 54.435 15.905 56.505 14.502L54.481 12.57ZM44.913 3.669V6.199H53.446V8.453H44.913V10.983H56.137V3.669H44.913ZM36.817 4.75C38.289 5.394 40.152 6.475 41.026 7.303L42.636 5.026C41.693 4.244 39.784 3.278 38.312 2.726L36.817 4.75ZM35.621 11.121C37.093 11.742 38.979 12.8 39.853 13.582L41.394 11.282C40.428 10.523 38.519 9.58 37.047 9.051L35.621 11.121ZM36.219 21.931L38.68 23.633C39.899 21.356 41.164 18.688 42.199 16.25L40.014 14.571C38.841 17.262 37.3 20.16 36.219 21.931ZM71.087 14.203V20.505C71.087 23.104 71.731 23.978 74.33 23.978C74.836 23.978 76.561 23.978 77.09 23.978C79.367 23.978 80.08 22.897 80.356 18.78C79.62 18.596 78.401 18.136 77.826 17.653C77.734 20.896 77.596 21.356 76.837 21.356C76.423 21.356 75.089 21.356 74.744 21.356C73.985 21.356 73.87 21.264 73.87 20.482V14.203H71.087ZM64.969 14.295C64.67 17.998 64.118 20.39 58.644 21.701C59.242 22.253 59.955 23.38 60.254 24.116C66.533 22.368 67.545 19.102 67.89 14.295H64.969ZM71.501 8.775C73.548 10.592 75.963 13.191 76.998 14.916L79.505 13.352C78.332 11.604 75.802 9.143 73.801 7.418L71.501 8.775ZM65.613 6.498C65.084 8.246 64.049 10.592 63.175 12.133L65.498 12.938C66.441 11.535 67.637 9.35 68.649 7.349L65.613 6.498ZM60.139 11.029L60.231 13.858C64.44 13.72 70.765 13.444 76.584 13.099L76.699 10.546C70.765 10.73 64.302 10.937 60.139 11.029ZM59.403 4.934V7.533H79.597V4.934H59.403ZM68.028 2.473V6.383H70.857V2.473H68.028ZM89.004 4.083V6.314H102.965V4.083H89.004ZM88.291 17.515V19.815H103.31V17.515H88.291ZM94.593 2.473V8.453H97.284V2.473H94.593ZM93.19 11.512H98.733V12.409H93.19V11.512ZM93.19 13.996H98.733V14.893H93.19V13.996ZM93.19 9.051H98.733V9.925H93.19V9.051ZM90.683 7.372V16.595H101.355V7.372H90.683ZM96.778 20.988C98.319 21.931 100.021 23.219 100.941 24.07L103.494 22.805C102.367 21.908 100.389 20.62 98.687 19.654L96.778 20.988ZM92.5 19.769C91.419 20.735 89.464 21.632 87.578 22.184C88.176 22.621 89.165 23.587 89.625 24.116C91.511 23.334 93.742 22.046 95.099 20.643L92.5 19.769ZM82.012 7.97V10.569H88.981V7.97H82.012ZM84.335 2.818V18.09H86.911V2.818H84.335ZM81.506 17.86L82.541 20.643C84.634 19.723 87.256 18.573 89.648 17.423L89.004 14.87C86.267 16.02 83.392 17.193 81.506 17.86ZM114.925 7.234V9.856H126.218V7.234H114.925ZM121.089 2.496V20.689C121.089 21.08 120.928 21.218 120.514 21.218C120.1 21.218 118.674 21.241 117.409 21.195C117.8 21.954 118.214 23.196 118.352 23.978C120.353 23.978 121.802 23.909 122.745 23.449C123.688 23.012 124.01 22.253 124.01 20.689V2.496H121.089ZM120.859 8.499C119.318 12.248 116.167 16.365 112.947 18.412C113.637 18.964 114.488 19.93 114.948 20.666C118.191 18.228 121.411 13.858 123.09 9.856L120.859 8.499ZM105.035 7.211V9.856H114.281V7.211H105.035ZM108.577 2.473V24.07H111.36V2.473H108.577ZM108.485 8.982C107.772 11.972 106.162 15.491 104.368 17.515C104.828 18.251 105.518 19.424 105.794 20.275C107.772 17.86 109.405 13.421 110.279 9.626L108.485 8.982ZM111.153 10.27L109.796 11.627C110.693 12.685 112.533 15.077 113.338 16.388L114.948 14.019C114.396 13.398 111.889 10.845 111.153 10.27ZM131.347 2.588V24.024H133.9V2.588H131.347ZM127.874 10.132V12.708H137.304V10.132H127.874ZM130.864 11.512C130.22 13.789 128.817 16.986 127.437 18.688C127.851 19.47 128.449 20.689 128.702 21.54C130.22 19.332 131.646 15.33 132.382 12.248L130.864 11.512ZM133.854 12.846L132.589 13.927C133.417 15.054 134.958 17.607 135.556 18.918L137.258 16.756C136.752 16.112 134.521 13.444 133.854 12.846ZM127.828 4.359C128.38 6.038 128.817 8.269 128.863 9.718L130.933 9.166C130.818 7.717 130.358 5.532 129.76 3.853L127.828 4.359ZM135.418 3.738C135.165 5.371 134.613 7.694 134.153 9.166L135.878 9.649C136.453 8.292 137.143 6.107 137.741 4.244L135.418 3.738ZM144.112 2.45V24.047H146.711V2.45H144.112ZM137.235 16.848L137.672 19.424L149.471 17.285L149.057 14.732L137.235 16.848ZM138.546 5.601C139.834 6.429 141.444 7.694 142.134 8.591L143.583 6.498C142.824 5.647 141.191 4.497 139.903 3.715L138.546 5.601ZM137.511 11.397C138.845 12.179 140.524 13.421 141.306 14.272L142.686 12.087C141.858 11.236 140.133 10.132 138.799 9.419L137.511 11.397Z" fill="url(#paint0_linear_818_5)"/>
<rect x="23" y="50" width="124" height="32" rx="16" fill="#EBEBEB"/>
<path d="M60.468 64.014V70.748C60.468 71 60.37 71.084 60.062 71.098C59.74 71.112 58.662 71.112 57.5 71.07C57.668 71.378 57.864 71.826 57.934 72.134C59.348 72.134 60.286 72.12 60.832 71.952C61.378 71.798 61.56 71.476 61.56 70.776V64.014H60.468ZM55.372 60.346V61.368H65.48V60.346H55.372ZM65.102 60.346V60.598C64.22 61.76 62.372 63.37 60.776 64.252C61 64.406 61.336 64.756 61.49 64.98C63.226 64 65.2 62.348 66.446 60.864L65.634 60.276L65.382 60.346H65.102ZM69.932 62.796V63.622H73.978V62.796H69.932ZM69.932 65.176V65.974H73.978V65.176H69.932ZM69.932 67.612V68.438H73.978V67.612H69.932ZM75.896 65.876V66.786H81.23V65.876H75.896ZM70.66 60.5V61.326H72.984V60.5H70.66ZM75 59.954V60.85H80.474V59.954H75ZM74.832 68.494V69.432H81.468V68.494H74.832ZM77.786 64.434V72.064H78.794V64.434H77.786ZM71.668 63.202V67.962H72.424V63.202H71.668ZM80.138 59.954V60.094C80.04 62.292 79.928 63.104 79.746 63.314C79.662 63.426 79.536 63.454 79.34 63.44C79.144 63.44 78.64 63.44 78.08 63.384C78.206 63.622 78.304 63.986 78.318 64.266C78.906 64.294 79.494 64.294 79.774 64.266C80.138 64.238 80.348 64.154 80.544 63.916C80.838 63.594 80.978 62.684 81.076 60.346C81.09 60.22 81.09 59.954 81.09 59.954H80.138ZM75.952 64.56C75.714 65.75 75.28 66.926 74.678 67.71C74.902 67.822 75.322 68.032 75.504 68.158C76.092 67.318 76.582 66.044 76.862 64.742L75.952 64.56ZM70.632 59.24C70.212 60.962 69.428 62.628 68.434 63.706C68.658 63.846 69.064 64.168 69.232 64.336C70.226 63.146 71.08 61.34 71.598 59.45L70.632 59.24ZM69.526 62.796V66.52C69.526 68.102 69.428 70.188 68.476 71.672C68.686 71.77 69.078 72.008 69.232 72.148C70.226 70.594 70.394 68.228 70.394 66.52V62.796H69.526ZM73.698 62.796V70.972C73.698 71.154 73.614 71.21 73.432 71.224C73.236 71.238 72.606 71.238 71.892 71.21C72.018 71.462 72.172 71.868 72.214 72.106C73.18 72.106 73.754 72.092 74.104 71.938C74.468 71.784 74.58 71.49 74.58 70.972V62.796H73.698ZM76.988 60.248C76.792 61.83 76.288 63.216 74.566 63.944C74.776 64.098 75.028 64.434 75.154 64.658C77.114 63.776 77.716 62.18 77.954 60.248H76.988ZM72.732 60.5V60.668C72.522 61.368 72.13 62.376 71.78 63.006C71.976 63.09 72.284 63.272 72.452 63.412C72.872 62.754 73.404 61.718 73.698 60.85L73.082 60.444L72.942 60.5H72.732ZM83.498 60.248C84.254 60.892 85.206 61.816 85.654 62.404L86.368 61.62C85.906 61.06 84.926 60.192 84.17 59.576L83.498 60.248ZM84.618 71.84C84.814 71.546 85.178 71.266 87.474 69.46C87.348 69.25 87.194 68.858 87.11 68.578L84.702 70.398L84.422 70.86L84.618 71.84ZM82.56 63.65V64.658H85.43V63.65H82.56ZM84.618 71.854C84.618 71.434 85.724 70.496 85.724 70.496V63.65H84.716V69.726C84.716 70.412 84.282 70.888 84.044 71.084C84.212 71.252 84.506 71.63 84.618 71.854ZM87.586 61.928V62.894H95.02V61.928H87.586ZM88.02 64.84V65.792H94.572V64.84H88.02ZM87.25 67.78V68.76H95.328V67.78H87.25ZM90.806 62.292V72.12H91.87V62.292H90.806ZM88.356 59.66C88.832 60.36 89.336 61.312 89.532 61.914L90.498 61.508C90.302 60.906 89.77 59.996 89.266 59.31L88.356 59.66ZM93.55 59.212C93.228 60.122 92.598 61.396 92.094 62.18L92.99 62.516C93.494 61.774 94.124 60.598 94.614 59.562L93.55 59.212ZM101.978 67.262V68.074H107.55V67.262H101.978ZM100.676 60.346V61.144H108.992V60.346H100.676ZM101.012 62.04V62.81H108.642V62.04H101.012ZM100.242 63.79V64.588H109.398V63.79H100.242ZM101.978 69.138V69.922H107.592V69.138H101.978ZM101.264 65.414V72.106H102.244V66.226H107.55V65.414H101.264ZM107.298 65.414V70.93C107.298 71.112 107.242 71.168 107.046 71.168C106.85 71.182 106.178 71.182 105.478 71.154C105.604 71.42 105.744 71.812 105.786 72.064C106.78 72.078 107.41 72.064 107.802 71.91C108.194 71.756 108.306 71.476 108.306 70.944V65.414H107.298ZM104.26 59.24V64.042H105.296V59.24H104.26ZM98.114 59.24V72.106H99.08V59.24H98.114ZM97.008 61.942C96.924 63.048 96.7 64.588 96.378 65.554L97.19 65.82C97.512 64.77 97.75 63.146 97.792 62.054L97.008 61.942ZM99.206 61.578C99.486 62.236 99.808 63.104 99.948 63.636L100.676 63.286C100.55 62.768 100.214 61.942 99.906 61.298L99.206 61.578Z" fill="url(#paint1_linear_818_5)"/>
<defs>
<linearGradient id="paint0_linear_818_5" x1="132.572" y1="-29.8193" x2="82.8373" y2="64.0973" gradientUnits="userSpaceOnUse">
<stop stop-color="#EF2626"/>
<stop offset="1" stop-color="#F08200" stop-opacity="0.88"/>
</linearGradient>
<linearGradient id="paint1_linear_818_5" x1="136" y1="21.186" x2="87.7797" y2="81.9137" gradientUnits="userSpaceOnUse">
<stop stop-color="#F70C0C"/>
<stop offset="1" stop-color="#F08200" stop-opacity="0.88"/>
</linearGradient>
</defs>
</svg>
