<svg width="145" height="82" viewBox="0 0 145 82" fill="none" xmlns="http://www.w3.org/2000/svg">
<path d="M4.094 11.144V13.858H21.528V11.144H4.094ZM2.346 4.842V7.464H21.022V4.842H2.346ZM2.53 11.144V14.341C2.53 16.71 2.369 20.022 0.552 22.368C1.15 22.736 2.392 23.794 2.852 24.346C4.991 21.632 5.428 17.308 5.428 14.41V11.144H2.53ZM5.635 8.338C6.348 9.327 7.153 10.707 7.452 11.581L10.028 10.431C9.66 9.534 8.786 8.223 8.073 7.303L5.635 8.338ZM15.433 7.487C15.065 8.637 14.329 10.201 13.708 11.259L15.893 12.133C16.629 11.213 17.595 9.81 18.538 8.476L15.433 7.487ZM9.246 3.048C9.844 3.922 10.465 5.118 10.672 5.9L13.662 5.072C13.386 4.29 12.742 3.163 12.098 2.381L9.246 3.048ZM30.429 6.015H38.525V9.12H30.429V6.015ZM27.761 3.393V11.742H41.354V3.393H27.761ZM24.61 13.674V24.07H27.209V16.296H30.636V23.932H33.396V13.674H24.61ZM35.351 13.674V24.07H37.996V16.296H41.676V23.955H44.459V13.674H35.351ZM25.76 20.275V22.92H31.786V20.275H25.76ZM36.616 20.275V22.92H43.056V20.275H36.616ZM57.408 5.233C59.271 8.223 63.043 11.443 66.723 13.306C67.229 12.455 67.85 11.512 68.563 10.776C64.791 9.327 61.134 6.291 58.765 2.404H55.775C54.188 5.463 50.6 9.143 46.506 11.098C47.104 11.673 47.886 12.708 48.231 13.398C52.095 11.351 55.614 8.177 57.408 5.233ZM59.961 10.891V24.07H62.836V10.891H59.961ZM52.026 11.006V13.789C52.026 16.457 51.612 19.7 47.564 22.115C48.3 22.552 49.381 23.472 49.864 24.07C54.395 21.241 54.855 17.124 54.855 13.858V11.006H52.026ZM70.541 18.113C70.541 17.653 72.22 16.894 72.22 16.894V16.848C74.566 14.686 76.981 11.742 78.867 8.752L76.728 7.326C75.049 10.431 72.519 13.513 71.645 14.318C70.886 15.146 70.334 15.652 69.736 15.79C70.012 16.434 70.426 17.63 70.541 18.113ZM70.541 18.113C71.162 17.768 72.174 17.492 78.407 16.296C78.361 15.744 78.384 14.732 78.476 14.042L71.553 15.215L70.38 16.043L70.541 18.113ZM70.311 12.501C70.311 12.041 71.76 11.213 71.76 11.213V11.167C73.554 9.166 75.371 6.337 76.636 3.692L74.152 2.473C73.209 5.118 71.461 7.97 70.909 8.66C70.357 9.419 69.966 9.879 69.437 10.017C69.759 10.707 70.173 11.972 70.311 12.501ZM70.311 12.501C70.794 12.271 71.599 12.11 75.762 11.673C75.785 11.144 75.877 10.201 76.038 9.557L71.369 9.902L70.242 10.638L70.311 12.501ZM69.69 20.436L70.173 23.058C72.496 22.483 75.44 21.724 78.269 21.011L77.993 18.711C74.957 19.401 71.783 20.068 69.69 20.436ZM80.569 20.643V23.104H88.826V20.643H80.569ZM78.821 3.577V6.061H89.102V3.577H78.821ZM79.465 14.318V24.07H82.064V16.779H87.515V23.978H90.252V14.318H79.465ZM87.998 3.577V3.991C87.837 8.476 87.676 10.201 87.308 10.615C87.101 10.845 86.917 10.891 86.572 10.891C86.158 10.891 85.353 10.891 84.479 10.799C84.893 11.489 85.192 12.57 85.238 13.329C86.296 13.375 87.308 13.352 87.929 13.26C88.619 13.145 89.125 12.938 89.608 12.363C90.206 11.627 90.413 9.557 90.597 4.589C90.62 4.267 90.643 3.577 90.643 3.577H87.998ZM81.972 4.474C81.742 7.671 81.259 10.293 77.694 11.765C78.292 12.248 79.005 13.214 79.304 13.858C83.536 11.949 84.364 8.614 84.686 4.474H81.972ZM101.729 3.37V5.532H112.332V3.37H101.729ZM101.361 9.994V12.156H112.746V9.994H101.361ZM101.361 13.283V15.445H112.654V13.283H101.361ZM102.465 20.965V23.15H111.619V20.965H102.465ZM99.544 6.659V8.89H114.356V6.659H99.544ZM100.993 16.595V24.047H103.638V18.734H110.285V23.978H113.068V16.595H100.993ZM97.842 2.519C96.6 5.808 94.461 9.074 92.276 11.144C92.736 11.811 93.472 13.329 93.702 13.973C96.324 11.374 98.854 7.257 100.418 3.347L97.842 2.519ZM95.634 8.89V24.001H98.256V6.291L98.233 6.268L95.634 8.89ZM121.555 17.515V20.85C121.555 23.242 122.268 24.001 125.258 24.001C125.879 24.001 128.386 24.001 129.03 24.001C131.261 24.001 132.02 23.311 132.365 20.551C131.629 20.413 130.456 19.999 129.904 19.608C129.789 21.31 129.628 21.563 128.754 21.563C128.133 21.563 126.063 21.563 125.58 21.563C124.476 21.563 124.292 21.471 124.292 20.827V17.515H121.555ZM124.108 16.986C125.304 17.975 126.661 19.401 127.236 20.39L129.398 18.918C128.754 17.883 127.351 16.549 126.132 15.629L124.108 16.986ZM131.261 18.182C132.871 19.723 134.527 21.839 135.148 23.334L137.54 21.793C136.85 20.229 135.079 18.228 133.469 16.779L131.261 18.182ZM118.151 17.078C117.668 18.803 116.748 20.574 115.506 21.678L117.806 23.288C119.209 21.931 120.037 19.861 120.612 17.975L118.151 17.078ZM121.923 9.442H131.238V10.592H121.923V9.442ZM121.923 12.593H131.238V13.743H121.923V12.593ZM121.923 6.314H131.238V7.464H121.923V6.314ZM119.255 4.221V15.859H134.021V4.221H119.255ZM125.074 2.22C124.936 3.002 124.637 4.06 124.361 4.865L126.914 5.371C127.305 4.681 127.903 3.738 128.432 2.634L125.074 2.22Z" fill="url(#paint0_linear_554_2)"/>
<rect x="10" y="50" width="124" height="32" rx="16" fill="#EBEBEB"/>
<path d="M47.468 64.014V70.748C47.468 71 47.37 71.084 47.062 71.098C46.74 71.112 45.662 71.112 44.5 71.07C44.668 71.378 44.864 71.826 44.934 72.134C46.348 72.134 47.286 72.12 47.832 71.952C48.378 71.798 48.56 71.476 48.56 70.776V64.014H47.468ZM42.372 60.346V61.368H52.48V60.346H42.372ZM52.102 60.346V60.598C51.22 61.76 49.372 63.37 47.776 64.252C48 64.406 48.336 64.756 48.49 64.98C50.226 64 52.2 62.348 53.446 60.864L52.634 60.276L52.382 60.346H52.102ZM56.932 62.796V63.622H60.978V62.796H56.932ZM56.932 65.176V65.974H60.978V65.176H56.932ZM56.932 67.612V68.438H60.978V67.612H56.932ZM62.896 65.876V66.786H68.23V65.876H62.896ZM57.66 60.5V61.326H59.984V60.5H57.66ZM62 59.954V60.85H67.474V59.954H62ZM61.832 68.494V69.432H68.468V68.494H61.832ZM64.786 64.434V72.064H65.794V64.434H64.786ZM58.668 63.202V67.962H59.424V63.202H58.668ZM67.138 59.954V60.094C67.04 62.292 66.928 63.104 66.746 63.314C66.662 63.426 66.536 63.454 66.34 63.44C66.144 63.44 65.64 63.44 65.08 63.384C65.206 63.622 65.304 63.986 65.318 64.266C65.906 64.294 66.494 64.294 66.774 64.266C67.138 64.238 67.348 64.154 67.544 63.916C67.838 63.594 67.978 62.684 68.076 60.346C68.09 60.22 68.09 59.954 68.09 59.954H67.138ZM62.952 64.56C62.714 65.75 62.28 66.926 61.678 67.71C61.902 67.822 62.322 68.032 62.504 68.158C63.092 67.318 63.582 66.044 63.862 64.742L62.952 64.56ZM57.632 59.24C57.212 60.962 56.428 62.628 55.434 63.706C55.658 63.846 56.064 64.168 56.232 64.336C57.226 63.146 58.08 61.34 58.598 59.45L57.632 59.24ZM56.526 62.796V66.52C56.526 68.102 56.428 70.188 55.476 71.672C55.686 71.77 56.078 72.008 56.232 72.148C57.226 70.594 57.394 68.228 57.394 66.52V62.796H56.526ZM60.698 62.796V70.972C60.698 71.154 60.614 71.21 60.432 71.224C60.236 71.238 59.606 71.238 58.892 71.21C59.018 71.462 59.172 71.868 59.214 72.106C60.18 72.106 60.754 72.092 61.104 71.938C61.468 71.784 61.58 71.49 61.58 70.972V62.796H60.698ZM63.988 60.248C63.792 61.83 63.288 63.216 61.566 63.944C61.776 64.098 62.028 64.434 62.154 64.658C64.114 63.776 64.716 62.18 64.954 60.248H63.988ZM59.732 60.5V60.668C59.522 61.368 59.13 62.376 58.78 63.006C58.976 63.09 59.284 63.272 59.452 63.412C59.872 62.754 60.404 61.718 60.698 60.85L60.082 60.444L59.942 60.5H59.732ZM70.498 60.248C71.254 60.892 72.206 61.816 72.654 62.404L73.368 61.62C72.906 61.06 71.926 60.192 71.17 59.576L70.498 60.248ZM71.618 71.84C71.814 71.546 72.178 71.266 74.474 69.46C74.348 69.25 74.194 68.858 74.11 68.578L71.702 70.398L71.422 70.86L71.618 71.84ZM69.56 63.65V64.658H72.43V63.65H69.56ZM71.618 71.854C71.618 71.434 72.724 70.496 72.724 70.496V63.65H71.716V69.726C71.716 70.412 71.282 70.888 71.044 71.084C71.212 71.252 71.506 71.63 71.618 71.854ZM74.586 61.928V62.894H82.02V61.928H74.586ZM75.02 64.84V65.792H81.572V64.84H75.02ZM74.25 67.78V68.76H82.328V67.78H74.25ZM77.806 62.292V72.12H78.87V62.292H77.806ZM75.356 59.66C75.832 60.36 76.336 61.312 76.532 61.914L77.498 61.508C77.302 60.906 76.77 59.996 76.266 59.31L75.356 59.66ZM80.55 59.212C80.228 60.122 79.598 61.396 79.094 62.18L79.99 62.516C80.494 61.774 81.124 60.598 81.614 59.562L80.55 59.212ZM88.978 67.262V68.074H94.55V67.262H88.978ZM87.676 60.346V61.144H95.992V60.346H87.676ZM88.012 62.04V62.81H95.642V62.04H88.012ZM87.242 63.79V64.588H96.398V63.79H87.242ZM88.978 69.138V69.922H94.592V69.138H88.978ZM88.264 65.414V72.106H89.244V66.226H94.55V65.414H88.264ZM94.298 65.414V70.93C94.298 71.112 94.242 71.168 94.046 71.168C93.85 71.182 93.178 71.182 92.478 71.154C92.604 71.42 92.744 71.812 92.786 72.064C93.78 72.078 94.41 72.064 94.802 71.91C95.194 71.756 95.306 71.476 95.306 70.944V65.414H94.298ZM91.26 59.24V64.042H92.296V59.24H91.26ZM85.114 59.24V72.106H86.08V59.24H85.114ZM84.008 61.942C83.924 63.048 83.7 64.588 83.378 65.554L84.19 65.82C84.512 64.77 84.75 63.146 84.792 62.054L84.008 61.942ZM86.206 61.578C86.486 62.236 86.808 63.104 86.948 63.636L87.676 63.286C87.55 62.768 87.214 61.942 86.906 61.298L86.206 61.578Z" fill="url(#paint1_linear_554_2)"/>
<defs>
<linearGradient id="paint0_linear_554_2" x1="118.66" y1="-29.8193" x2="65.9596" y2="59.2547" gradientUnits="userSpaceOnUse">
<stop stop-color="#EF2626"/>
<stop offset="1" stop-color="#F08200" stop-opacity="0.88"/>
</linearGradient>
<linearGradient id="paint1_linear_554_2" x1="123" y1="21.186" x2="74.7797" y2="81.9137" gradientUnits="userSpaceOnUse">
<stop stop-color="#F70C0C"/>
<stop offset="1" stop-color="#F08200" stop-opacity="0.88"/>
</linearGradient>
</defs>
</svg>
