<svg width="145" height="82" viewBox="0 0 145 82" fill="none" xmlns="http://www.w3.org/2000/svg">
<path d="M16.56 14.548C17.871 16.434 19.32 18.964 19.872 20.551L22.54 19.309C21.896 17.676 20.332 15.261 19.021 13.49L16.56 14.548ZM10.005 2.519V10.845H12.857V2.519H10.005ZM1.173 9.856V12.501H21.919V9.856H1.173ZM3.473 4.865V7.487H19.964V4.865H3.473ZM12.834 11.443V20.919C12.834 21.218 12.719 21.287 12.374 21.287C12.052 21.31 10.879 21.333 9.867 21.287C10.258 22.046 10.672 23.242 10.787 24.047C12.443 24.047 13.662 24.001 14.582 23.564C15.502 23.104 15.732 22.368 15.732 20.988V11.443H12.834ZM3.749 13.674C3.174 15.422 1.909 17.607 0.437 18.918C1.081 19.263 2.093 19.953 2.668 20.459C4.232 18.964 5.635 16.549 6.532 14.387L3.749 13.674ZM7.866 10.914V13.49C7.866 16.112 7.452 19.631 3.542 22.161C4.232 22.621 5.221 23.587 5.635 24.208C10.12 21.195 10.649 16.825 10.649 13.559V10.914H7.866ZM31.763 3.669V11.075C31.763 14.617 31.556 19.447 29.003 22.736C29.67 23.012 30.82 23.702 31.326 24.139C34.017 20.643 34.408 15.008 34.408 11.075V3.669H31.763ZM35.42 11.742V20.436C35.42 23.081 36.087 23.886 38.709 23.886C39.238 23.886 41.423 23.886 41.952 23.886C44.252 23.886 44.942 22.828 45.218 19.125C44.528 18.964 43.401 18.527 42.849 18.09C42.734 20.942 42.596 21.448 41.745 21.448C41.239 21.448 39.468 21.448 39.077 21.448C38.157 21.448 38.019 21.31 38.019 20.413V11.742H35.42ZM42.481 12.57C41.009 13.835 38.548 15.215 36.294 16.158C36.616 16.687 37.03 17.561 37.191 18.09C39.652 17.17 42.435 15.905 44.505 14.502L42.481 12.57ZM32.913 3.669V6.199H41.446V8.453H32.913V10.983H44.137V3.669H32.913ZM24.817 4.75C26.289 5.394 28.152 6.475 29.026 7.303L30.636 5.026C29.693 4.244 27.784 3.278 26.312 2.726L24.817 4.75ZM23.621 11.121C25.093 11.742 26.979 12.8 27.853 13.582L29.394 11.282C28.428 10.523 26.519 9.58 25.047 9.051L23.621 11.121ZM24.219 21.931L26.68 23.633C27.899 21.356 29.164 18.688 30.199 16.25L28.014 14.571C26.841 17.262 25.3 20.16 24.219 21.931ZM58.512 20.873V23.242H65.757V20.873H58.512ZM59.501 4.658V7.004H65.343V4.658H59.501ZM57.385 15.491V24.001H59.915V17.814H64.262V23.932H66.884V15.491H57.385ZM64.377 4.658V5.095C63.089 9.603 59.455 13.122 55.292 14.64C55.844 15.146 56.534 16.089 56.856 16.733C61.525 14.755 65.412 11.075 67.091 5.302L65.343 4.566L64.86 4.658H64.377ZM59.593 2.45C58.788 5.118 57.27 7.694 55.476 9.304C56.097 9.695 57.155 10.592 57.615 11.075C59.478 9.189 61.18 6.199 62.215 3.094L59.593 2.45ZM59.662 5.946L57.799 7.142C59.202 10.546 62.215 14.571 66.953 16.411C67.321 15.698 68.103 14.617 68.655 14.088C63.963 12.616 60.973 9.051 59.662 5.946ZM47.61 12.616V20.988H49.864V12.616H47.61ZM50.186 5.693H53.222V8.614H50.186V5.693ZM47.794 3.324V10.983H55.752V3.324H47.794ZM51.014 10.017V20.298H53.452V10.017H51.014ZM46.598 20.551L47.058 23.196C49.68 22.598 53.176 21.77 56.419 20.965L56.166 18.527C52.716 19.309 49.036 20.114 46.598 20.551ZM51.98 13.674V16.089H55.982V13.674H51.98ZM70.955 4.221V6.452H90.137V4.221H70.955ZM71.806 21.172V23.426H89.401V21.172H71.806ZM75.762 7.441V9.373H85.146V7.441H75.762ZM75.762 10.385V12.317H85.146V10.385H75.762ZM69.736 13.329V15.583H91.241V13.329H69.736ZM74.957 17.515V19.677H86.066V17.515H74.957ZM74.129 2.473V14.571H76.912V2.473H74.129ZM84.157 2.496V14.571H86.963V2.496H84.157ZM79.028 16.066V22.483H81.857V16.066H79.028ZM75.555 13.973C74.336 15.836 71.921 17.607 69.529 18.481C70.104 18.987 70.886 19.953 71.277 20.597C73.899 19.424 76.383 17.262 77.855 14.824L75.555 13.973ZM85.537 13.973L83.352 14.801C84.801 17.101 87.193 19.286 89.677 20.39C90.091 19.746 90.896 18.757 91.494 18.251C89.125 17.4 86.756 15.744 85.537 13.973ZM102.925 7.234V9.856H114.218V7.234H102.925ZM109.089 2.496V20.689C109.089 21.08 108.928 21.218 108.514 21.218C108.1 21.218 106.674 21.241 105.409 21.195C105.8 21.954 106.214 23.196 106.352 23.978C108.353 23.978 109.802 23.909 110.745 23.449C111.688 23.012 112.01 22.253 112.01 20.689V2.496H109.089ZM108.859 8.499C107.318 12.248 104.167 16.365 100.947 18.412C101.637 18.964 102.488 19.93 102.948 20.666C106.191 18.228 109.411 13.858 111.09 9.856L108.859 8.499ZM93.035 7.211V9.856H102.281V7.211H93.035ZM96.577 2.473V24.07H99.36V2.473H96.577ZM96.485 8.982C95.772 11.972 94.162 15.491 92.368 17.515C92.828 18.251 93.518 19.424 93.794 20.275C95.772 17.86 97.405 13.421 98.279 9.626L96.485 8.982ZM99.153 10.27L97.796 11.627C98.693 12.685 100.533 15.077 101.338 16.388L102.948 14.019C102.396 13.398 99.889 10.845 99.153 10.27ZM119.347 2.588V24.024H121.9V2.588H119.347ZM115.874 10.132V12.708H125.304V10.132H115.874ZM118.864 11.512C118.22 13.789 116.817 16.986 115.437 18.688C115.851 19.47 116.449 20.689 116.702 21.54C118.22 19.332 119.646 15.33 120.382 12.248L118.864 11.512ZM121.854 12.846L120.589 13.927C121.417 15.054 122.958 17.607 123.556 18.918L125.258 16.756C124.752 16.112 122.521 13.444 121.854 12.846ZM115.828 4.359C116.38 6.038 116.817 8.269 116.863 9.718L118.933 9.166C118.818 7.717 118.358 5.532 117.76 3.853L115.828 4.359ZM123.418 3.738C123.165 5.371 122.613 7.694 122.153 9.166L123.878 9.649C124.453 8.292 125.143 6.107 125.741 4.244L123.418 3.738ZM132.112 2.45V24.047H134.711V2.45H132.112ZM125.235 16.848L125.672 19.424L137.471 17.285L137.057 14.732L125.235 16.848ZM126.546 5.601C127.834 6.429 129.444 7.694 130.134 8.591L131.583 6.498C130.824 5.647 129.191 4.497 127.903 3.715L126.546 5.601ZM125.511 11.397C126.845 12.179 128.524 13.421 129.306 14.272L130.686 12.087C129.858 11.236 128.133 10.132 126.799 9.419L125.511 11.397Z" fill="url(#paint0_linear_554_2)"/>
<rect x="10" y="50" width="124" height="32" rx="16" fill="#EBEBEB"/>
<path d="M47.468 64.014V70.748C47.468 71 47.37 71.084 47.062 71.098C46.74 71.112 45.662 71.112 44.5 71.07C44.668 71.378 44.864 71.826 44.934 72.134C46.348 72.134 47.286 72.12 47.832 71.952C48.378 71.798 48.56 71.476 48.56 70.776V64.014H47.468ZM42.372 60.346V61.368H52.48V60.346H42.372ZM52.102 60.346V60.598C51.22 61.76 49.372 63.37 47.776 64.252C48 64.406 48.336 64.756 48.49 64.98C50.226 64 52.2 62.348 53.446 60.864L52.634 60.276L52.382 60.346H52.102ZM56.932 62.796V63.622H60.978V62.796H56.932ZM56.932 65.176V65.974H60.978V65.176H56.932ZM56.932 67.612V68.438H60.978V67.612H56.932ZM62.896 65.876V66.786H68.23V65.876H62.896ZM57.66 60.5V61.326H59.984V60.5H57.66ZM62 59.954V60.85H67.474V59.954H62ZM61.832 68.494V69.432H68.468V68.494H61.832ZM64.786 64.434V72.064H65.794V64.434H64.786ZM58.668 63.202V67.962H59.424V63.202H58.668ZM67.138 59.954V60.094C67.04 62.292 66.928 63.104 66.746 63.314C66.662 63.426 66.536 63.454 66.34 63.44C66.144 63.44 65.64 63.44 65.08 63.384C65.206 63.622 65.304 63.986 65.318 64.266C65.906 64.294 66.494 64.294 66.774 64.266C67.138 64.238 67.348 64.154 67.544 63.916C67.838 63.594 67.978 62.684 68.076 60.346C68.09 60.22 68.09 59.954 68.09 59.954H67.138ZM62.952 64.56C62.714 65.75 62.28 66.926 61.678 67.71C61.902 67.822 62.322 68.032 62.504 68.158C63.092 67.318 63.582 66.044 63.862 64.742L62.952 64.56ZM57.632 59.24C57.212 60.962 56.428 62.628 55.434 63.706C55.658 63.846 56.064 64.168 56.232 64.336C57.226 63.146 58.08 61.34 58.598 59.45L57.632 59.24ZM56.526 62.796V66.52C56.526 68.102 56.428 70.188 55.476 71.672C55.686 71.77 56.078 72.008 56.232 72.148C57.226 70.594 57.394 68.228 57.394 66.52V62.796H56.526ZM60.698 62.796V70.972C60.698 71.154 60.614 71.21 60.432 71.224C60.236 71.238 59.606 71.238 58.892 71.21C59.018 71.462 59.172 71.868 59.214 72.106C60.18 72.106 60.754 72.092 61.104 71.938C61.468 71.784 61.58 71.49 61.58 70.972V62.796H60.698ZM63.988 60.248C63.792 61.83 63.288 63.216 61.566 63.944C61.776 64.098 62.028 64.434 62.154 64.658C64.114 63.776 64.716 62.18 64.954 60.248H63.988ZM59.732 60.5V60.668C59.522 61.368 59.13 62.376 58.78 63.006C58.976 63.09 59.284 63.272 59.452 63.412C59.872 62.754 60.404 61.718 60.698 60.85L60.082 60.444L59.942 60.5H59.732ZM70.498 60.248C71.254 60.892 72.206 61.816 72.654 62.404L73.368 61.62C72.906 61.06 71.926 60.192 71.17 59.576L70.498 60.248ZM71.618 71.84C71.814 71.546 72.178 71.266 74.474 69.46C74.348 69.25 74.194 68.858 74.11 68.578L71.702 70.398L71.422 70.86L71.618 71.84ZM69.56 63.65V64.658H72.43V63.65H69.56ZM71.618 71.854C71.618 71.434 72.724 70.496 72.724 70.496V63.65H71.716V69.726C71.716 70.412 71.282 70.888 71.044 71.084C71.212 71.252 71.506 71.63 71.618 71.854ZM74.586 61.928V62.894H82.02V61.928H74.586ZM75.02 64.84V65.792H81.572V64.84H75.02ZM74.25 67.78V68.76H82.328V67.78H74.25ZM77.806 62.292V72.12H78.87V62.292H77.806ZM75.356 59.66C75.832 60.36 76.336 61.312 76.532 61.914L77.498 61.508C77.302 60.906 76.77 59.996 76.266 59.31L75.356 59.66ZM80.55 59.212C80.228 60.122 79.598 61.396 79.094 62.18L79.99 62.516C80.494 61.774 81.124 60.598 81.614 59.562L80.55 59.212ZM88.978 67.262V68.074H94.55V67.262H88.978ZM87.676 60.346V61.144H95.992V60.346H87.676ZM88.012 62.04V62.81H95.642V62.04H88.012ZM87.242 63.79V64.588H96.398V63.79H87.242ZM88.978 69.138V69.922H94.592V69.138H88.978ZM88.264 65.414V72.106H89.244V66.226H94.55V65.414H88.264ZM94.298 65.414V70.93C94.298 71.112 94.242 71.168 94.046 71.168C93.85 71.182 93.178 71.182 92.478 71.154C92.604 71.42 92.744 71.812 92.786 72.064C93.78 72.078 94.41 72.064 94.802 71.91C95.194 71.756 95.306 71.476 95.306 70.944V65.414H94.298ZM91.26 59.24V64.042H92.296V59.24H91.26ZM85.114 59.24V72.106H86.08V59.24H85.114ZM84.008 61.942C83.924 63.048 83.7 64.588 83.378 65.554L84.19 65.82C84.512 64.77 84.75 63.146 84.792 62.054L84.008 61.942ZM86.206 61.578C86.486 62.236 86.808 63.104 86.948 63.636L87.676 63.286C87.55 62.768 87.214 61.942 86.906 61.298L86.206 61.578Z" fill="url(#paint1_linear_554_2)"/>
<defs>
<linearGradient id="paint0_linear_554_2" x1="118.66" y1="-29.8193" x2="65.9596" y2="59.2547" gradientUnits="userSpaceOnUse">
<stop stop-color="#EF2626"/>
<stop offset="1" stop-color="#F08200" stop-opacity="0.88"/>
</linearGradient>
<linearGradient id="paint1_linear_554_2" x1="123" y1="21.186" x2="74.7797" y2="81.9137" gradientUnits="userSpaceOnUse">
<stop stop-color="#F70C0C"/>
<stop offset="1" stop-color="#F08200" stop-opacity="0.88"/>
</linearGradient>
</defs>
</svg>
