<svg width="145" height="82" viewBox="0 0 145 82" fill="none" xmlns="http://www.w3.org/2000/svg">
<path d="M60.471 3.071V19.608C60.471 22.874 61.322 23.794 64.22 23.794C64.841 23.794 67.509 23.794 68.176 23.794C70.89 23.794 71.626 22.322 71.971 18.343C71.189 18.182 70.062 17.676 69.395 17.193C69.234 20.436 69.05 21.241 67.923 21.241C67.371 21.241 65.071 21.241 64.565 21.241C63.438 21.241 63.277 21.011 63.277 19.631V3.071H60.471ZM69.096 6.912C67.049 8.66 63.99 10.73 61.138 12.087C61.529 12.685 62.058 13.651 62.242 14.295C65.232 12.892 68.521 11.167 71.12 9.327L69.096 6.912ZM56.032 2.772C54.606 6.245 52.191 9.649 49.707 11.788C50.213 12.478 51.018 13.996 51.294 14.709C54.192 12.041 57.021 7.786 58.746 3.692L56.032 2.772ZM53.594 9.258V24.024H56.354V6.59L56.308 6.544L53.594 9.258ZM75.651 2.979V5.486H80.711V2.979H75.651ZM75.651 8.2V10.707H80.803V8.2H75.651ZM84.299 11.489V14.088H92.372V11.489H84.299ZM75.628 13.559V16.089H80.734V13.559H75.628ZM74.478 2.979V11.489C74.478 14.939 74.409 19.631 73.029 22.874C73.65 23.104 74.777 23.702 75.283 24.116C76.755 20.643 76.962 15.215 76.962 11.489V2.979H74.478ZM79.17 2.979V20.781C79.17 21.08 79.055 21.195 78.802 21.195C78.526 21.195 77.652 21.195 76.824 21.149C77.169 21.862 77.514 23.104 77.583 23.84C79.078 23.84 80.067 23.771 80.803 23.311C81.539 22.874 81.723 22.069 81.723 20.827V2.979H79.17ZM84.253 3.393V5.992H91.268V15.215H93.913V3.393H84.253ZM82.919 3.393V19.401C82.919 22.736 83.816 23.587 86.668 23.587C87.312 23.587 90.348 23.587 91.038 23.587C93.729 23.587 94.534 22.115 94.879 18.136C94.12 17.975 93.016 17.515 92.372 17.055C92.188 20.206 92.004 20.965 90.808 20.965C90.187 20.965 87.542 20.965 86.944 20.965C85.725 20.965 85.564 20.781 85.564 19.424V3.393H82.919ZM87.289 4.405V12.708H89.566V4.405H87.289Z" fill="url(#paint0_linear_818_6)"/>
<rect x="11" y="50" width="124" height="32" rx="16" fill="#EBEBEB"/>
<path d="M48.468 64.014V70.748C48.468 71 48.37 71.084 48.062 71.098C47.74 71.112 46.662 71.112 45.5 71.07C45.668 71.378 45.864 71.826 45.934 72.134C47.348 72.134 48.286 72.12 48.832 71.952C49.378 71.798 49.56 71.476 49.56 70.776V64.014H48.468ZM43.372 60.346V61.368H53.48V60.346H43.372ZM53.102 60.346V60.598C52.22 61.76 50.372 63.37 48.776 64.252C49 64.406 49.336 64.756 49.49 64.98C51.226 64 53.2 62.348 54.446 60.864L53.634 60.276L53.382 60.346H53.102ZM57.932 62.796V63.622H61.978V62.796H57.932ZM57.932 65.176V65.974H61.978V65.176H57.932ZM57.932 67.612V68.438H61.978V67.612H57.932ZM63.896 65.876V66.786H69.23V65.876H63.896ZM58.66 60.5V61.326H60.984V60.5H58.66ZM63 59.954V60.85H68.474V59.954H63ZM62.832 68.494V69.432H69.468V68.494H62.832ZM65.786 64.434V72.064H66.794V64.434H65.786ZM59.668 63.202V67.962H60.424V63.202H59.668ZM68.138 59.954V60.094C68.04 62.292 67.928 63.104 67.746 63.314C67.662 63.426 67.536 63.454 67.34 63.44C67.144 63.44 66.64 63.44 66.08 63.384C66.206 63.622 66.304 63.986 66.318 64.266C66.906 64.294 67.494 64.294 67.774 64.266C68.138 64.238 68.348 64.154 68.544 63.916C68.838 63.594 68.978 62.684 69.076 60.346C69.09 60.22 69.09 59.954 69.09 59.954H68.138ZM63.952 64.56C63.714 65.75 63.28 66.926 62.678 67.71C62.902 67.822 63.322 68.032 63.504 68.158C64.092 67.318 64.582 66.044 64.862 64.742L63.952 64.56ZM58.632 59.24C58.212 60.962 57.428 62.628 56.434 63.706C56.658 63.846 57.064 64.168 57.232 64.336C58.226 63.146 59.08 61.34 59.598 59.45L58.632 59.24ZM57.526 62.796V66.52C57.526 68.102 57.428 70.188 56.476 71.672C56.686 71.77 57.078 72.008 57.232 72.148C58.226 70.594 58.394 68.228 58.394 66.52V62.796H57.526ZM61.698 62.796V70.972C61.698 71.154 61.614 71.21 61.432 71.224C61.236 71.238 60.606 71.238 59.892 71.21C60.018 71.462 60.172 71.868 60.214 72.106C61.18 72.106 61.754 72.092 62.104 71.938C62.468 71.784 62.58 71.49 62.58 70.972V62.796H61.698ZM64.988 60.248C64.792 61.83 64.288 63.216 62.566 63.944C62.776 64.098 63.028 64.434 63.154 64.658C65.114 63.776 65.716 62.18 65.954 60.248H64.988ZM60.732 60.5V60.668C60.522 61.368 60.13 62.376 59.78 63.006C59.976 63.09 60.284 63.272 60.452 63.412C60.872 62.754 61.404 61.718 61.698 60.85L61.082 60.444L60.942 60.5H60.732ZM71.498 60.248C72.254 60.892 73.206 61.816 73.654 62.404L74.368 61.62C73.906 61.06 72.926 60.192 72.17 59.576L71.498 60.248ZM72.618 71.84C72.814 71.546 73.178 71.266 75.474 69.46C75.348 69.25 75.194 68.858 75.11 68.578L72.702 70.398L72.422 70.86L72.618 71.84ZM70.56 63.65V64.658H73.43V63.65H70.56ZM72.618 71.854C72.618 71.434 73.724 70.496 73.724 70.496V63.65H72.716V69.726C72.716 70.412 72.282 70.888 72.044 71.084C72.212 71.252 72.506 71.63 72.618 71.854ZM75.586 61.928V62.894H83.02V61.928H75.586ZM76.02 64.84V65.792H82.572V64.84H76.02ZM75.25 67.78V68.76H83.328V67.78H75.25ZM78.806 62.292V72.12H79.87V62.292H78.806ZM76.356 59.66C76.832 60.36 77.336 61.312 77.532 61.914L78.498 61.508C78.302 60.906 77.77 59.996 77.266 59.31L76.356 59.66ZM81.55 59.212C81.228 60.122 80.598 61.396 80.094 62.18L80.99 62.516C81.494 61.774 82.124 60.598 82.614 59.562L81.55 59.212ZM89.978 67.262V68.074H95.55V67.262H89.978ZM88.676 60.346V61.144H96.992V60.346H88.676ZM89.012 62.04V62.81H96.642V62.04H89.012ZM88.242 63.79V64.588H97.398V63.79H88.242ZM89.978 69.138V69.922H95.592V69.138H89.978ZM89.264 65.414V72.106H90.244V66.226H95.55V65.414H89.264ZM95.298 65.414V70.93C95.298 71.112 95.242 71.168 95.046 71.168C94.85 71.182 94.178 71.182 93.478 71.154C93.604 71.42 93.744 71.812 93.786 72.064C94.78 72.078 95.41 72.064 95.802 71.91C96.194 71.756 96.306 71.476 96.306 70.944V65.414H95.298ZM92.26 59.24V64.042H93.296V59.24H92.26ZM86.114 59.24V72.106H87.08V59.24H86.114ZM85.008 61.942C84.924 63.048 84.7 64.588 84.378 65.554L85.19 65.82C85.512 64.77 85.75 63.146 85.792 62.054L85.008 61.942ZM87.206 61.578C87.486 62.236 87.808 63.104 87.948 63.636L88.676 63.286C88.55 62.768 88.214 61.942 87.906 61.298L87.206 61.578Z" fill="url(#paint1_linear_818_6)"/>
<defs>
<linearGradient id="paint0_linear_818_6" x1="118.66" y1="-29.8193" x2="65.9596" y2="59.2547" gradientUnits="userSpaceOnUse">
<stop stop-color="#EF2626"/>
<stop offset="1" stop-color="#F08200" stop-opacity="0.88"/>
</linearGradient>
<linearGradient id="paint1_linear_818_6" x1="124" y1="21.186" x2="75.7797" y2="81.9137" gradientUnits="userSpaceOnUse">
<stop stop-color="#F70C0C"/>
<stop offset="1" stop-color="#F08200" stop-opacity="0.88"/>
</linearGradient>
</defs>
</svg>
