<svg width="154" height="46" viewBox="0 0 154 46" fill="none" xmlns="http://www.w3.org/2000/svg">
<g filter="url(#filter0_d_717_3)">
<rect x="5" y="5" width="144" height="36" rx="18" fill="url(#paint0_linear_717_3)" shape-rendering="crispEdges"/>
</g>
<path d="M115.111 32.4444C114.778 32.4444 114.556 32.3333 114.333 32.1111C113.889 31.6666 114 31 114.445 30.5555L121.556 24.1111C121.778 23.8889 121.889 23.6666 121.889 23.4444C121.889 23.2222 121.778 23 121.556 22.7778L114.333 16.6666C113.889 16.2222 113.778 15.5555 114.222 15.1111C114.667 14.6666 115.333 14.5555 115.778 15L122.889 21.1111C123.556 21.6666 124 22.5555 124 23.4444C124 24.3333 123.667 25.1111 123 25.7778L115.889 32.2222C115.667 32.3333 115.333 32.4444 115.111 32.4444Z" fill="white"/>
<path d="M37.582 18.606V23.43C37.582 25.626 37.366 28.596 34.54 30.288C34.918 30.576 35.458 31.152 35.692 31.53C38.734 29.46 39.256 26.112 39.256 23.448V18.606H37.582ZM38.518 28.074C39.4 29.1 40.516 30.504 41.038 31.368L42.514 30.216C41.956 29.388 40.786 28.038 39.922 27.066L38.518 28.074ZM35.152 15.708V26.742H36.772V17.634H39.958V26.652H41.65V15.708H35.152ZM43.882 14.718C43.378 16.932 42.478 19.218 41.38 20.64C41.848 20.946 42.712 21.648 43.072 21.99C44.242 20.352 45.304 17.706 45.952 15.168L43.882 14.718ZM44.386 17.418L43.396 19.362H49.912V17.418H44.386ZM48.994 17.418V17.868C48.85 25.626 48.67 28.578 48.184 29.172C47.986 29.424 47.806 29.496 47.5 29.496C47.104 29.496 46.312 29.496 45.412 29.424C45.79 30.018 46.042 30.954 46.078 31.566C46.996 31.602 47.896 31.602 48.49 31.494C49.156 31.368 49.588 31.17 50.038 30.504C50.686 29.604 50.848 26.688 51.028 18.408C51.046 18.138 51.046 17.418 51.046 17.418H48.994ZM42.802 28.02C43.216 27.75 43.882 27.552 47.932 26.652C47.806 26.274 47.662 25.554 47.608 25.068L43.45 25.878L42.658 26.454L42.802 28.02ZM42.802 28.02C42.802 27.66 43.954 27.012 43.954 27.012V26.994C44.836 25.446 45.79 23.142 46.348 21.054L44.386 20.496C44.044 22.476 43.252 24.636 43 25.176C42.73 25.77 42.478 26.13 42.172 26.238C42.406 26.724 42.694 27.624 42.802 28.02ZM45.97 23.376C46.456 24.798 46.924 26.652 47.104 27.768L48.706 27.174C48.508 26.094 47.968 24.294 47.464 22.908L45.97 23.376ZM60.928 18.372C60.766 24.888 60.748 28.308 52.666 29.838C53.062 30.27 53.566 31.08 53.746 31.62C62.494 29.802 62.89 25.536 63.106 18.372H60.928ZM53.098 24.132V26.112H69.01V24.132H53.098ZM61.36 28.398C63.718 29.334 66.202 30.63 67.642 31.62L69.01 29.928C67.498 28.992 64.852 27.732 62.458 26.85L61.36 28.398ZM55.582 19.686C56.788 20.244 58.408 21.126 59.164 21.738L60.406 20.118C59.578 19.524 57.94 18.714 56.752 18.246L55.582 19.686ZM53.53 22.206C54.646 22.71 56.158 23.538 56.878 24.096L58.12 22.494C57.346 21.954 55.816 21.216 54.718 20.766L53.53 22.206ZM53.8 15.69V17.706H67.462V15.69H53.8ZM66.832 15.672V15.996C66.382 17.274 65.572 18.84 64.888 19.83L66.652 20.694C67.516 19.542 68.47 17.796 69.172 16.194L67.552 15.546L67.21 15.672H66.832ZM73.204 21.504V23.628H86.848V21.504H73.204ZM71.836 16.572V18.624H86.452V16.572H71.836ZM71.98 21.504V24.006C71.98 25.86 71.854 28.452 70.432 30.288C70.9 30.576 71.872 31.404 72.232 31.836C73.906 29.712 74.248 26.328 74.248 24.06V21.504H71.98ZM74.41 19.308C74.968 20.082 75.598 21.162 75.832 21.846L77.848 20.946C77.56 20.244 76.876 19.218 76.318 18.498L74.41 19.308ZM82.078 18.642C81.79 19.542 81.214 20.766 80.728 21.594L82.438 22.278C83.014 21.558 83.77 20.46 84.508 19.416L82.078 18.642ZM77.236 15.168C77.704 15.852 78.19 16.788 78.352 17.4L80.692 16.752C80.476 16.14 79.972 15.258 79.468 14.646L77.236 15.168ZM93.814 17.49H100.15V19.92H93.814V17.49ZM91.726 15.438V21.972H102.364V15.438H91.726ZM89.26 23.484V31.62H91.294V25.536H93.976V31.512H96.136V23.484H89.26ZM97.666 23.484V31.62H99.736V25.536H102.616V31.53H104.794V23.484H97.666ZM90.16 28.65V30.72H94.876V28.65H90.16ZM98.656 28.65V30.72H103.696V28.65H98.656Z" fill="white"/>
<defs>
<filter id="filter0_d_717_3" x="0" y="0" width="154" height="46" filterUnits="userSpaceOnUse" color-interpolation-filters="sRGB">
<feFlood flood-opacity="0" result="BackgroundImageFix"/>
<feColorMatrix in="SourceAlpha" type="matrix" values="0 0 0 0 0 0 0 0 0 0 0 0 0 0 0 0 0 0 127 0" result="hardAlpha"/>
<feMorphology radius="2" operator="erode" in="SourceAlpha" result="effect1_dropShadow_717_3"/>
<feOffset/>
<feGaussianBlur stdDeviation="3.5"/>
<feComposite in2="hardAlpha" operator="out"/>
<feColorMatrix type="matrix" values="0 0 0 0 0.691667 0 0 0 0 0.365569 0 0 0 0 0.0645556 0 0 0 1 0"/>
<feBlend mode="normal" in2="BackgroundImageFix" result="effect1_dropShadow_717_3"/>
<feBlend mode="normal" in="SourceGraphic" in2="effect1_dropShadow_717_3" result="shape"/>
</filter>
<linearGradient id="paint0_linear_717_3" x1="19.5" y1="-6.50001" x2="180" y2="52.5" gradientUnits="userSpaceOnUse">
<stop stop-color="#FF7E00"/>
<stop offset="0.653922" stop-color="#FF9732" stop-opacity="0.993461"/>
<stop offset="1" stop-color="#FFA54D" stop-opacity="0.99"/>
</linearGradient>
</defs>
</svg>
