<svg width="200" height="60" viewBox="0 0 200 60" fill="none" xmlns="http://www.w3.org/2000/svg">
<rect width="200" height="60" rx="15" fill="#FFA54D"/>
<path d="M57.08 34.792H66.8V36.784H57.08V34.792ZM57.08 31.552H66.8V33.52H57.08V31.552ZM55.304 30.256V38.08H68.648V30.256H55.304ZM51.368 22.912V24.496H72.656V22.912H51.368ZM61.016 19.84V29.512H62.816V19.84H61.016ZM59.984 23.368C58.064 26.056 54.296 28.648 50.84 29.824C51.224 30.184 51.752 30.832 52.016 31.264C55.544 29.872 59.336 27.064 61.496 23.968L59.984 23.368ZM63.8 23.392L62.336 23.968C64.52 26.992 68.36 29.752 71.936 31.096C72.2 30.616 72.728 29.944 73.136 29.608C69.584 28.48 65.744 26.008 63.8 23.392ZM51.752 39.544V41.152H72.32V39.544H51.752ZM81.176 30.52V41.992H82.904V31.96H93.368V41.992H95.168V30.52H81.176ZM76.352 27.352V28.84H97.544V27.352H76.352ZM78.104 24.136V25.576H96.152V24.136H78.104ZM82.352 33.592V34.864H94.136V33.592H82.352ZM82.352 36.568V37.816H94.136V36.568H82.352ZM82.184 39.592V41.032H94.136V39.592H82.184ZM94.76 20.032C90.944 20.824 83.624 21.16 77.768 21.208C77.936 21.592 78.104 22.216 78.152 22.624C84.08 22.6 91.448 22.24 95.912 21.352L94.76 20.032ZM84.92 21.688C83.648 26.992 80.84 32.248 75.752 35.176C76.112 35.512 76.64 36.184 76.88 36.568C82.256 33.376 85.184 27.88 86.792 22.072L84.92 21.688ZM101.456 21.136V22.768H122.36V21.136H101.456ZM111.128 21.832V31.12C111.128 35.104 110.384 38.632 101.024 40.36C101.408 40.792 101.912 41.56 102.104 41.944C111.728 39.904 113 35.776 113 31.144V21.832H111.128ZM105.368 30.136H119.048V32.584H105.368V30.136ZM105.368 26.296H119.048V28.696H105.368V26.296ZM103.664 24.784V34.096H120.872V24.784H103.664ZM105.968 34.288L104.432 34.912C107.648 40.36 113.552 41.488 122.384 41.848C122.48 41.272 122.84 40.504 123.152 40.072C114.488 39.856 109.016 39.04 105.968 34.288ZM130.904 25.144C132.704 26.032 134.888 27.448 135.92 28.456L137.192 27.28C136.112 26.272 133.904 24.928 132.104 24.088L130.904 25.144ZM141.992 21.88V22.168C139.376 26.896 132.464 30.136 126.416 31.264C126.752 31.648 127.112 32.392 127.28 32.848C133.616 31.456 140.72 28.096 143.84 22.504L142.664 21.784L142.352 21.88H141.992ZM133.976 21.88V23.392H142.448V21.88H133.976ZM135.752 19.816C134.096 21.832 130.928 24.088 126.608 25.6C127.016 25.912 127.568 26.512 127.832 26.944C132.296 25.168 135.56 22.792 137.768 20.248L135.752 19.816ZM133.976 33.952C135.872 34.984 138.152 36.592 139.232 37.72L140.648 36.568C139.496 35.416 137.192 33.904 135.296 32.92L133.976 33.952ZM145.496 30.28V30.544C142.904 36.592 135.656 39.448 128.24 40.336C128.528 40.744 128.888 41.488 129.008 41.992C136.856 40.84 144.344 37.84 147.368 30.832L146.192 30.184L145.856 30.28H145.496ZM137.696 30.28V31.816H145.976V30.28H137.696ZM139.64 28.024C137.768 30.304 134.12 32.8 129.032 34.384C129.416 34.72 129.944 35.368 130.16 35.776C135.416 33.928 139.208 31.312 141.632 28.48L139.64 28.024Z" fill="white"/>
</svg>
