<svg width="94" height="133" viewBox="0 0 94 133" fill="none" xmlns="http://www.w3.org/2000/svg">
<path d="M86.1907 7.84806C81.5601 3.22991 75.2871 0.636511 68.7472 0.636511C62.2073 0.636511 55.9343 3.22991 51.3037 7.84806L47.0117 12.1459L42.7081 7.84806C40.423 5.55093 37.7049 3.7299 34.7112 2.49041C31.7175 1.25091 28.5076 0.617574 25.2675 0.627058C22.0282 0.617701 18.8193 1.25112 15.8266 2.49063C12.8338 3.73014 10.1167 5.5511 7.8327 7.84806C3.1637 12.5113 0.600098 18.7057 0.600098 25.2945C0.600098 31.8833 3.1637 38.0777 7.8269 42.7351L14.2011 49.1093L39.2513 74.1595C41.3219 76.2301 44.0711 77.3727 47.0001 77.3727C49.9233 77.3727 52.6841 76.2359 54.7489 74.1595L86.1791 42.7293C90.7998 38.1019 93.3962 31.8305 93.3983 25.2911C93.4005 18.7517 90.8084 12.4785 86.1907 7.84806V7.84806ZM11.9855 38.5707C10.236 36.8302 8.84883 34.7603 7.90408 32.4805C6.95932 30.2008 6.47575 27.7564 6.4813 25.2887C6.4813 20.2717 8.4417 15.5563 11.9855 12.0067C19.0789 4.91326 31.4503 4.91326 38.5495 12.0067L42.6095 16.0609L32.8713 25.8977C31.1591 27.6159 29.994 29.8025 29.5227 32.182C29.0514 34.5614 29.2951 37.0271 30.2231 39.2682C31.1511 41.5094 32.7217 43.4256 34.7371 44.7754C36.7525 46.1252 39.1225 46.8481 41.5481 46.8531C44.6975 46.8531 47.8469 45.6525 50.2423 43.2571L59.9747 33.4319L73.5757 47.0329L50.6019 70.0067C50.5265 70.0763 50.4337 70.1053 50.3583 70.1691C48.4095 71.8743 45.2659 71.8453 43.4157 70.0067L11.9855 38.5707V38.5707ZM82.0321 38.5765L77.7285 42.8801L64.1101 29.2559L64.0695 29.2153L62.3875 27.5333L62.3817 27.5391L59.7021 24.8827L45.8401 38.8723C44.7007 40.0085 43.1572 40.6465 41.5481 40.6465C39.939 40.6465 38.3955 40.0085 37.2561 38.8723C36.1179 37.7308 35.4797 36.184 35.4819 34.5721C35.484 32.9601 36.1264 31.415 37.2677 30.2767L48.1021 19.3437L48.1195 19.3611L55.4623 12.0183C58.9885 8.50019 63.7662 6.52445 68.7472 6.52445C73.7282 6.52445 78.5059 8.50019 82.0321 12.0183C85.548 15.5432 87.5225 20.3187 87.5225 25.2974C87.5225 30.276 85.548 35.0515 82.0321 38.5765V38.5765Z" fill="#FF7E00"/>
<path d="M25.45 98.65V101.425H31.075V98.65H25.45ZM25.45 104.325V107.1H31.175V104.325H25.45ZM35.2 107.375V110.1H43.975V107.375H35.2ZM25.425 110.125V112.95H31.075V110.125H25.425ZM24.275 98.65V107.75C24.275 111.425 24.15 116.475 22.575 119.925C23.275 120.175 24.475 120.85 25 121.3C26.725 117.575 26.975 111.775 26.975 107.75V98.65H24.275ZM29.4 98.65V117.95C29.4 118.275 29.275 118.375 28.975 118.375C28.675 118.4 27.75 118.4 26.85 118.375C27.225 119.125 27.575 120.475 27.65 121.25C29.275 121.25 30.35 121.2 31.15 120.7C31.95 120.2 32.175 119.35 32.175 118V98.65H29.4ZM42.25 98.675V103.475C42.25 103.775 42.125 103.85 41.725 103.85C41.325 103.875 39.825 103.875 38.575 103.825C38.95 104.525 39.35 105.55 39.475 106.325C41.375 106.325 42.8 106.325 43.8 105.95C44.85 105.55 45.125 104.825 45.125 103.525V98.675H42.25ZM43.15 107.375V107.875C42.3 112.925 39.7 117.15 36.175 119.025C36.775 119.525 37.55 120.55 37.9 121.225C42 118.75 44.8 114.375 45.9 107.875L44.125 107.3L43.65 107.375H43.15ZM38.8 109.225L36.475 109.825C38.025 114.9 40.7 119.1 44.725 121.25C45.15 120.55 45.975 119.5 46.6 118.95C42.825 117.2 40.125 113.475 38.8 109.225ZM33.575 98.675V121.25H36.4V101.45H42.95V98.675H33.575ZM49.925 111.7V114.25H67.2V111.7H49.925ZM66.25 111.7L66.225 112.075C65.8 115.85 65.225 117.75 64.575 118.25C64.25 118.475 63.9 118.5 63.35 118.5C62.625 118.5 60.8 118.475 59.15 118.325C59.675 119.05 60.05 120.15 60.1 120.925C61.75 121 63.375 121 64.275 120.95C65.45 120.875 66.225 120.7 66.95 120.025C67.9 119.175 68.525 117.175 69.075 112.9C69.15 112.5 69.225 111.7 69.225 111.7H66.25ZM57.425 109.575C56.75 115 53.925 117.6 48.275 118.75C48.825 119.3 49.7 120.575 50.025 121.225C56.125 119.55 59.375 116.4 60.55 109.825L57.425 109.575ZM54.85 100.15V102.65H67.375V100.15H54.85ZM66.625 100.15V100.525C63.775 104.8 55.875 107.05 48.05 107.725C48.525 108.375 49.025 109.575 49.225 110.325C57.475 109.35 65.75 106.825 69.525 101.225L67.675 100.025L67.2 100.15H66.625ZM55.275 102.725L52.825 103.725C56.375 107.75 62.175 109.5 69.625 110.05C69.975 109.25 70.675 108.05 71.275 107.4C64.05 107.1 58.1 105.75 55.275 102.725ZM56 97.75C54.725 99.875 52.375 102.15 48.825 103.75C49.4 104.225 50.225 105.35 50.575 106.05C54.6 103.975 57.225 101.35 59.05 98.35L56 97.75Z" fill="url(#paint0_linear_593_9)"/>
<defs>
<linearGradient id="paint0_linear_593_9" x1="73.5558" y1="60.6626" x2="10.7779" y2="100.698" gradientUnits="userSpaceOnUse">
<stop stop-color="#EF2626"/>
<stop offset="1" stop-color="#F08200" stop-opacity="0.88"/>
</linearGradient>
</defs>
</svg>
