<svg width="101" height="140" viewBox="0 0 101 140" fill="none" xmlns="http://www.w3.org/2000/svg">
<path d="M30.525 105.875V108.6H49.775V105.875H30.525ZM28.775 105.875V113.325C28.775 117.25 28.6 122.875 26.525 126.725C27.275 127 28.6 127.725 29.175 128.2C31.375 124.075 31.725 117.6 31.725 113.325V105.875H28.775ZM36.325 116.1H44.85V117.55H36.325V116.1ZM36.325 112.6H44.85V114H36.325V112.6ZM33.375 110.35V119.8H47.925V110.35H33.375ZM39.125 118.525V125.275C39.125 125.55 39.025 125.65 38.675 125.65C38.325 125.65 37.1 125.65 36 125.625C36.35 126.375 36.725 127.475 36.825 128.275C38.6 128.275 39.9 128.25 40.85 127.825C41.8 127.425 42.05 126.7 42.05 125.35V118.525H39.125ZM38.625 108.375C38.575 109.275 38.35 110.525 38.175 111.45L41.25 111.775C41.5 111 41.875 109.875 42.225 108.625L38.625 108.375ZM43.275 121.875C44.95 123.4 46.9 125.55 47.75 126.975L50.225 125.375C49.275 123.925 47.225 121.9 45.55 120.475L43.275 121.875ZM34.925 120.6C33.975 122.425 32.3 124.275 30.5 125.4C31.2 125.8 32.4 126.625 32.975 127.125C34.75 125.775 36.625 123.6 37.825 121.375L34.925 120.6ZM63.825 112.825H71.4V114.975H63.825V112.825ZM63.825 108.375H71.4V110.475H63.825V108.375ZM61.125 105.825V117.5H74.25V105.825H61.125ZM60.95 119.65V122.35H74.525V119.65H60.95ZM59.2 124.75V127.45H75.35V124.75H59.2ZM51.875 106.2V109H60.175V106.2H51.875ZM52.125 113.4V116.175H59.75V113.4H52.125ZM51.6 122.9L52.275 125.95C54.675 125.175 57.675 124.2 60.475 123.25L59.95 120.375C56.95 121.35 53.75 122.35 51.6 122.9ZM54.65 107.3V123.125L57.5 122.675V107.3H54.65ZM66.4 106.9V116.325H66.125V126.025H69.2V116.325H68.925V106.9H66.4Z" fill="url(#paint0_linear_593_7)"/>
<path d="M87.2726 32.3805C85.7641 32.3829 84.2667 32.6376 82.8422 33.134L77.9147 24.5977C79.5914 23.1836 80.9017 21.3854 81.7341 19.3562C82.5665 17.3269 82.8965 15.1266 82.6959 12.9424C82.4953 10.7582 81.7701 8.65477 80.5819 6.81106C79.3938 4.96736 77.7779 3.43793 75.8717 2.35287C73.9655 1.26782 71.8254 0.659258 69.6335 0.578955C67.4416 0.498652 65.2627 0.948986 63.2822 1.89165C61.3017 2.83431 59.5783 4.2414 58.2584 5.99322C56.9385 7.74504 56.0613 9.78975 55.7014 11.9534H46.2142C45.8542 9.78965 44.9769 7.74488 43.6569 5.99305C42.3369 4.24122 40.6132 2.83417 38.6326 1.89162C36.6519 0.949061 34.4729 0.498895 32.2809 0.579418C30.0889 0.659941 27.9488 1.26877 26.0426 2.3541C24.1365 3.43944 22.5207 4.96916 21.3328 6.81312C20.1448 8.65709 19.4199 10.7607 19.2196 12.945C19.0194 15.1294 19.3497 17.3297 20.1826 19.359C21.0155 21.3882 22.3262 23.1862 24.0032 24.6L19.0735 33.134C17.0215 32.4214 14.8289 32.2101 12.6786 32.5176C10.5283 32.8251 8.48277 33.6425 6.71274 34.9015C4.94271 36.1606 3.49955 37.8248 2.50372 39.7553C1.50788 41.6857 0.988281 43.8263 0.988281 45.9985C0.988281 48.1706 1.50788 50.3113 2.50372 52.2417C3.49955 54.1722 4.94271 55.8364 6.71274 57.0954C8.48277 58.3545 10.5283 59.1719 12.6786 59.4794C14.8289 59.7869 17.0215 59.5755 19.0735 58.863L24.0032 67.3992C22.326 68.8131 21.0152 70.6112 20.1822 72.6405C19.3493 74.6698 19.0189 76.8704 19.2192 79.0548C19.4195 81.2393 20.1446 83.343 21.3327 85.187C22.5208 87.0311 24.1367 88.5608 26.0431 89.646C27.9494 90.7313 30.0898 91.34 32.2819 91.4203C34.4741 91.5005 36.6532 91.0501 38.6338 90.1072C40.6145 89.1643 42.338 87.7569 43.6578 86.0048C44.9776 84.2526 45.8546 82.2075 46.2142 80.0436H55.7014C56.0613 82.2072 56.9385 84.2519 58.2584 86.0038C59.5783 87.7556 61.3017 89.1627 63.2822 90.1053C65.2627 91.048 67.4416 91.4983 69.6335 91.418C71.8254 91.3377 73.9655 90.7292 75.8717 89.6441C77.7779 88.5591 79.3938 87.0296 80.5819 85.1859C81.7701 83.3422 82.4953 81.2388 82.6959 79.0546C82.8965 76.8704 82.5665 74.6701 81.7341 72.6408C80.9017 70.6115 79.5914 68.8134 77.9147 67.3992L82.8422 58.863C84.7141 59.513 86.7054 59.7466 88.6769 59.5476C90.6485 59.3486 92.5528 58.7217 94.2571 57.7107C95.9613 56.6997 97.4244 55.329 98.5443 53.6942C99.6641 52.0594 100.414 50.1999 100.741 48.2454C101.068 46.291 100.964 44.2888 100.437 42.3785C99.9106 40.4683 98.9733 38.6959 97.6909 37.1853C96.4085 35.6747 94.8118 34.4621 93.0124 33.6322C91.213 32.8023 89.2542 32.3751 87.2726 32.3805ZM69.1152 5.14438C70.9108 5.14438 72.6661 5.67684 74.1591 6.67442C75.652 7.672 76.8157 9.08989 77.5028 10.7488C78.19 12.4077 78.3698 14.2331 78.0195 15.9942C77.6692 17.7553 76.8045 19.373 75.5348 20.6427C74.2651 21.9124 72.6475 22.777 70.8864 23.1273C69.1253 23.4776 67.2999 23.2978 65.6409 22.6107C63.982 21.9235 62.5641 20.7599 61.5666 19.2669C60.569 17.7739 60.0365 16.0187 60.0365 14.2231C60.0365 11.8153 60.993 9.50605 62.6956 7.80347C64.3982 6.10088 66.7074 5.14438 69.1152 5.14438ZM32.8004 5.14438C34.596 5.14438 36.3513 5.67684 37.8443 6.67442C39.3373 7.672 40.5009 9.08989 41.1881 10.7488C41.8752 12.4077 42.055 14.2331 41.7047 15.9942C41.3544 17.7553 40.4897 19.373 39.2201 20.6427C37.9504 21.9124 36.3327 22.777 34.5716 23.1273C32.8105 23.4776 30.9851 23.2978 29.3262 22.6107C27.6673 21.9235 26.2494 20.7599 25.2518 19.2669C24.2542 17.7739 23.7218 16.0187 23.7218 14.2231C23.7218 11.8153 24.6783 9.50605 26.3808 7.80347C28.0834 6.10088 30.3926 5.14438 32.8004 5.14438ZM5.56437 45.9985C5.56437 44.2029 6.09683 42.4476 7.09441 40.9546C8.09199 39.4617 9.50989 38.298 11.1688 37.6109C12.8277 36.9237 14.6531 36.7439 16.4142 37.0942C18.1753 37.4445 19.793 38.3092 21.0627 39.5789C22.3323 40.8486 23.197 42.4662 23.5473 44.2273C23.8976 45.9884 23.7178 47.8138 23.0307 49.4728C22.3435 51.1317 21.1799 52.5496 19.6869 53.5471C18.1939 54.5447 16.4387 55.0772 14.6431 55.0772C12.2352 55.0772 9.92605 54.1207 8.22346 52.4181C6.52088 50.7155 5.56437 48.4063 5.56437 45.9985ZM32.8004 86.8526C31.0049 86.8526 29.2496 86.3201 27.7566 85.3226C26.2636 84.325 25.1 82.9071 24.4128 81.2482C23.7257 79.5893 23.5459 77.7638 23.8962 76.0027C24.2465 74.2417 25.1112 72.624 26.3808 71.3543C27.6505 70.0846 29.2682 69.22 31.0293 68.8697C32.7904 68.5194 34.6158 68.6992 36.2747 69.3863C37.9336 70.0734 39.3515 71.2371 40.3491 72.7301C41.3467 74.223 41.8791 75.9783 41.8791 77.7739C41.8791 80.1817 40.9226 82.4909 39.2201 84.1935C37.5175 85.8961 35.2083 86.8526 32.8004 86.8526ZM69.1152 86.8526C67.3196 86.8526 65.5643 86.3201 64.0714 85.3226C62.5784 84.325 61.4147 82.9071 60.7276 81.2482C60.0404 79.5893 59.8607 77.7638 60.211 76.0027C60.5613 74.2417 61.4259 72.624 62.6956 71.3543C63.9653 70.0846 65.583 69.22 67.344 68.8697C69.1051 68.5194 70.9306 68.6992 72.5895 69.3863C74.2484 70.0734 75.6663 71.2371 76.6639 72.7301C77.6614 74.223 78.1939 75.9783 78.1939 77.7739C78.1939 80.1817 77.2374 82.4909 75.5348 84.1935C73.8322 85.8961 71.523 86.8526 69.1152 86.8526ZM74.0109 65.0796C72.1299 64.3471 70.1092 64.0434 68.096 64.1909C66.0828 64.3383 64.1279 64.9331 62.3737 65.9318C60.6195 66.9306 59.1103 68.3082 57.956 69.9641C56.8017 71.6201 56.0315 73.5128 55.7014 75.5042H46.2142C45.8842 73.5128 45.1139 71.6201 43.9596 69.9641C42.8054 68.3082 41.2961 66.9306 39.542 65.9318C37.7878 64.9331 35.8328 64.3383 33.8196 64.1909C31.8065 64.0434 29.7857 64.3471 27.9048 65.0796L23.0567 56.6818C24.678 55.412 25.989 53.7898 26.8906 51.9383C27.7922 50.0868 28.2608 48.0545 28.2608 45.9951C28.2608 43.9357 27.7922 41.9033 26.8906 40.0518C25.989 38.2003 24.678 36.5782 23.0567 35.3083L27.9048 26.9105C29.7852 27.6431 31.8055 27.9469 33.8182 27.7999C35.831 27.6529 37.7856 27.0587 39.5397 26.0607C41.2938 25.0626 42.8031 23.6859 43.9578 22.0307C45.1124 20.3755 45.8833 18.4836 46.2142 16.4927H55.7014C56.0314 18.4842 56.8016 20.3768 57.9559 22.0328C59.1102 23.6888 60.6195 25.0662 62.3738 26.0648C64.1281 27.0634 66.0831 27.6579 68.0963 27.805C70.1095 27.9521 72.1301 27.6481 74.0109 26.9151L78.8589 35.3129C77.2377 36.5828 75.9266 38.2049 75.025 40.0564C74.1234 41.9079 73.6549 43.9403 73.6549 45.9996C73.6549 48.059 74.1234 50.0914 75.025 51.9429C75.9266 53.7944 77.2377 55.4165 78.8589 56.6864L74.0109 65.0796ZM87.2726 55.0772C85.477 55.0772 83.7217 54.5447 82.2287 53.5471C80.7358 52.5496 79.5721 51.1317 78.885 49.4728C78.1978 47.8138 78.018 45.9884 78.3683 44.2273C78.7187 42.4662 79.5833 40.8486 80.853 39.5789C82.1227 38.3092 83.7403 37.4445 85.5014 37.0942C87.2625 36.7439 89.0879 36.9237 90.7469 37.6109C92.4058 38.298 93.8237 39.4617 94.8213 40.9546C95.8188 42.4476 96.3513 44.2029 96.3513 45.9985C96.3513 48.4063 95.3948 50.7155 93.6922 52.4181C91.9896 54.1207 89.6804 55.0772 87.2726 55.0772Z" fill="#FF7E00"/>
<defs>
<linearGradient id="paint0_linear_593_7" x1="77.5558" y1="67.6626" x2="14.7779" y2="107.698" gradientUnits="userSpaceOnUse">
<stop stop-color="#EF2626"/>
<stop offset="1" stop-color="#F08200" stop-opacity="0.88"/>
</linearGradient>
</defs>
</svg>
