<svg width="436" height="259" viewBox="0 0 436 259" fill="none" xmlns="http://www.w3.org/2000/svg">
<path d="M54.295 60.78V70.3H55.795V62.26H68.855V70.2H70.415V60.78H54.295ZM55.095 67.58V69.04H69.755V67.58H55.095ZM61.535 57.2V75.58H63.095V57.2H61.535ZM77.215 61.22V62.56H87.475V61.22H77.215ZM77.775 65.4V66.72H86.995V65.4H77.775ZM76.915 70.1V71.38H87.915V70.1H76.915ZM81.555 61.64V70.78H82.955V61.64H81.555ZM84.215 67.6C84.935 68.28 85.795 69.26 86.195 69.88L87.215 69.26C86.815 68.64 85.935 67.72 85.175 67.06L84.215 67.6ZM74.075 58.12V75.62H75.595V59.5H89.055V75.62H90.655V58.12H74.075ZM74.895 73.22V74.6H89.795V73.22H74.895ZM102.995 59.4H108.635V63.5H102.995V59.4ZM101.575 58.06V64.84H110.135V58.06H101.575ZM100.955 67.3V75.56H102.395V68.68H109.295V75.46H110.775V67.3H100.955ZM101.995 73.14V74.52H109.915V73.14H101.995ZM96.015 57.26C95.395 59.12 94.295 60.9 93.055 62.08C93.295 62.42 93.695 63.18 93.815 63.48C95.235 62.04 96.575 59.84 97.375 57.66L96.015 57.26ZM95.635 59.5L95.355 60.92H100.235V59.5H95.635ZM96.135 75.46C96.455 75.12 96.975 74.74 100.315 72.58C100.175 72.3 99.995 71.72 99.935 71.32L96.375 73.48L95.895 74.1L96.135 75.46ZM94.515 63.08V64.44H99.795V63.08H94.515ZM93.575 67.14V68.5H100.155V67.14H93.575ZM96.135 75.46C96.135 74.9 97.755 73.56 97.755 73.56V63.54H96.355V72.48C96.355 73.44 95.695 74.12 95.335 74.4C95.595 74.64 95.975 75.18 96.135 75.46ZM113.575 73.08V74.58H131.215V73.08H113.575ZM119.175 57.46V73.7H120.695V57.46H119.175ZM124.075 57.46V73.8H125.595V57.46H124.075ZM129.435 61.86C128.655 64.08 127.235 66.98 126.115 68.8L127.355 69.46C128.495 67.58 129.855 64.82 130.815 62.5L129.435 61.86ZM114.015 62.22C115.055 64.48 116.255 67.52 116.735 69.3L118.235 68.74C117.695 66.98 116.455 64.02 115.395 61.8L114.015 62.22ZM142.935 57.9V59.3H148.035V57.9H142.935ZM141.095 65.86V67.26H149.415V65.86H141.095ZM142.335 57.9V60.26C142.335 61.66 142.055 63.3 140.135 64.52C140.435 64.72 141.015 65.24 141.235 65.52C143.355 64.12 143.775 62.04 143.775 60.3V57.9H142.335ZM147.235 57.9V62.9C147.235 64.32 147.595 64.7 148.795 64.7C149.035 64.7 149.875 64.7 150.135 64.7C151.195 64.7 151.555 64.1 151.675 61.68C151.295 61.6 150.695 61.36 150.415 61.14C150.355 63.12 150.295 63.4 149.975 63.4C149.795 63.4 149.175 63.4 149.015 63.4C148.715 63.4 148.675 63.32 148.675 62.88V57.9H147.235ZM143.275 67.2L141.895 67.66C143.555 71.56 146.595 74.4 150.715 75.66C150.935 75.28 151.395 74.66 151.755 74.36C147.735 73.28 144.675 70.66 143.275 67.2ZM148.895 65.86V66.14C147.655 70.34 144.035 73.2 140.175 74.3C140.475 74.62 140.875 75.22 141.035 75.62C145.195 74.22 148.955 71.24 150.415 66.2L149.455 65.8L149.195 65.86H148.895ZM135.095 57.94V59.34H139.475V57.94H135.095ZM135.095 62.6V64H139.515V62.6H135.095ZM135.055 67.34V68.76H139.495V67.34H135.055ZM134.495 57.94V65.14C134.495 68.08 134.395 72.1 133.015 74.92C133.375 75.06 133.975 75.4 134.255 75.64C135.655 72.68 135.855 68.26 135.855 65.14V57.94H134.495ZM138.655 57.94V73.8C138.655 74.08 138.555 74.16 138.295 74.18C138.035 74.2 137.215 74.2 136.275 74.18C136.475 74.56 136.695 75.24 136.735 75.6C138.055 75.62 138.875 75.58 139.375 75.34C139.895 75.08 140.075 74.62 140.075 73.82V57.94H138.655ZM160.035 65.2V66.58H168.455V65.2H160.035ZM162.455 57.76V59.12H167.375V57.76H162.455ZM166.255 57.76V58.54H166.615C167.255 61.66 168.755 64.5 170.755 66.12C171.015 65.76 171.535 65.16 171.875 64.9C169.955 63.52 168.495 60.78 167.915 57.76H166.255ZM167.835 65.2V65.5C167.695 71.24 167.515 73.28 167.135 73.74C166.975 73.94 166.815 73.98 166.495 73.98C166.175 73.98 165.355 73.98 164.495 73.9C164.715 74.3 164.875 74.94 164.915 75.4C165.815 75.44 166.695 75.44 167.195 75.4C167.775 75.34 168.135 75.18 168.475 74.72C168.995 74.04 169.155 71.94 169.335 65.9C169.355 65.68 169.355 65.2 169.355 65.2H167.835ZM162.855 65.82C162.635 69.26 161.935 72.64 158.495 74.48C158.815 74.74 159.235 75.28 159.415 75.6C163.095 73.48 164.055 69.8 164.335 65.82H162.855ZM161.215 59.42C160.595 61.46 159.235 63.94 157.615 65.46C157.915 65.7 158.395 66.16 158.595 66.46C160.375 64.76 161.835 62.1 162.675 59.8L161.215 59.42ZM157.655 57.28C156.535 60.32 154.655 63.32 152.675 65.26C152.955 65.6 153.375 66.4 153.535 66.74C155.695 64.5 157.755 61.12 159.075 57.72L157.655 57.28ZM155.575 62.44V75.58H157.015V61.04L156.975 61.02L155.575 62.44ZM173.635 59.8V61.22H191.155V59.8H173.635ZM178.515 66.94V68.24H187.915V66.94H178.515ZM177.455 63.54V75.6H178.935V64.88H187.675V63.54H177.455ZM187.335 63.54V73.72C187.335 74.02 187.215 74.12 186.875 74.14C186.515 74.14 185.295 74.16 183.955 74.1C184.175 74.52 184.395 75.14 184.455 75.56C186.175 75.56 187.295 75.56 187.935 75.32C188.615 75.08 188.795 74.62 188.795 73.74V63.54H187.335ZM180.175 57.2C179.095 61.22 176.735 65.46 173.155 67.92C173.455 68.22 173.915 68.74 174.115 69.08C177.935 66.4 180.335 61.96 181.695 57.56L180.175 57.2ZM178.515 70.32V71.62H187.915V70.32H178.515ZM202.115 61.88V63.14H209.575V61.88H202.115ZM198.995 73.86L199.495 75.32C201.435 74.88 204.115 74.3 206.635 73.72L206.535 72.4C203.735 72.96 200.835 73.54 198.995 73.86ZM201.255 58.1V73.98H202.715V58.1H201.255ZM202.115 58.1V59.42H208.815V65.66H202.115V66.98H210.275V58.1H202.115ZM205.975 66.12L204.735 66.36C205.655 70.58 207.515 73.96 210.635 75.54C210.855 75.16 211.295 74.6 211.635 74.3C208.655 72.98 206.835 69.86 205.975 66.12ZM209.955 67.44C209.115 68.4 207.615 69.66 206.535 70.44L207.475 71.2C208.595 70.46 210.015 69.34 211.135 68.3L209.955 67.44ZM193.995 58.08V75.62H195.415V59.44H199.115V58.08H193.995ZM198.675 58.08V58.5C198.215 59.88 197.395 62.3 196.595 64.12C198.155 65.68 198.575 67 198.575 68.1C198.595 68.72 198.475 69.24 198.135 69.46C197.935 69.58 197.695 69.64 197.435 69.66C197.075 69.68 196.635 69.68 196.115 69.62C196.355 70.02 196.475 70.62 196.495 70.98C196.995 71.02 197.555 71.02 198.015 70.96C198.435 70.92 198.815 70.8 199.115 70.6C199.715 70.18 199.975 69.36 199.975 68.26C199.975 67.02 199.595 65.6 197.975 63.94C198.715 62.36 199.555 60.3 200.195 58.64L199.175 58.02L198.955 58.08H198.675ZM220.715 64.46C219.775 67.28 218.035 71.18 216.615 73.64L217.995 74.08C219.475 71.66 221.215 67.92 222.475 64.9L220.715 64.46ZM214.155 73.18L214.355 74.76C218.115 74.6 223.715 74.3 228.955 74L228.995 72.56C223.635 72.82 217.815 73.06 214.155 73.18ZM224.555 68.84C226.335 70.96 228.415 73.88 229.355 75.7L230.875 74.88C229.875 73.06 227.815 70.28 225.995 68.18L224.555 68.84ZM218.695 57.8C217.535 60.76 215.555 63.64 213.355 65.44C213.775 65.68 214.475 66.22 214.795 66.52C216.915 64.54 219.015 61.48 220.355 58.26L218.695 57.8ZM225.855 57.78L224.375 58.4C225.915 61.2 228.415 64.6 230.275 66.5C230.575 66.12 231.135 65.54 231.535 65.22C229.695 63.56 227.175 60.4 225.855 57.78ZM234.135 58.5V59.94H249.215V58.5H234.135ZM234.255 62.04V63.38H246.315V62.04H234.255ZM248.615 58.5V73.36C248.615 73.74 248.495 73.84 248.115 73.86C247.695 73.88 246.335 73.88 244.935 73.84C245.175 74.28 245.395 75.02 245.475 75.48C247.255 75.48 248.515 75.46 249.215 75.2C249.915 74.92 250.115 74.4 250.115 73.36V58.5H248.615ZM235.535 65.54V73.42H236.995V65.54H235.535ZM236.735 65.54V66.88H243.455V70.62H236.735V71.94H244.935V65.54H236.735ZM261.495 57.62V73.1H263.075V57.62H261.495ZM254.475 61.98V75.36H255.995V61.98H254.475ZM268.795 61.96V75.28H270.335V61.96H268.795ZM255.215 72.2V73.74H269.475V72.2H255.215ZM275.915 67.5C276.115 67.3 276.895 67.2 278.075 67.2H289.835L289.855 65.74H276.895L275.915 66.28V67.5ZM282.515 62.8V73.52C282.515 73.8 282.435 73.88 282.115 73.9C281.775 73.92 280.715 73.92 279.575 73.88C279.795 74.32 280.055 75 280.135 75.44C281.555 75.44 282.595 75.4 283.195 75.14C283.835 74.88 284.035 74.44 284.035 73.56V62.8H282.515ZM277.515 68.78C276.675 70.68 275.275 72.58 273.795 73.8C274.155 74.02 274.775 74.52 275.055 74.78C276.515 73.42 278.035 71.3 278.995 69.2L277.515 68.78ZM285.695 69.4C287.235 70.96 289.035 73.14 289.835 74.54L291.175 73.78C290.315 72.38 288.475 70.28 286.935 68.76L285.695 69.4ZM273.915 59.86V61.3H290.695V59.86H273.915ZM275.915 67.5C275.915 67.16 277.135 66.6 277.135 66.6V66.58C278.975 64.26 280.895 61 282.355 57.76L280.775 57.1C279.535 60.24 277.515 63.52 276.875 64.36C276.255 65.24 275.815 65.82 275.355 65.94C275.555 66.36 275.815 67.16 275.915 67.5ZM296.115 64.78V66.24H307.555V64.78H296.115ZM307.055 64.78V65.06C306.795 71 306.495 73.28 305.955 73.82C305.755 74.04 305.515 74.08 305.115 74.08C304.635 74.08 303.395 74.06 302.075 73.94C302.355 74.38 302.555 75 302.575 75.46C303.835 75.52 305.095 75.54 305.755 75.48C306.455 75.42 306.895 75.28 307.295 74.78C308.015 74.02 308.295 71.7 308.575 65.5C308.595 65.3 308.615 64.78 308.615 64.78H307.055ZM298.855 57.62C297.595 60.7 295.375 63.46 292.815 65.18C293.195 65.46 293.835 66.04 294.115 66.36C296.635 64.44 298.995 61.46 300.435 58.08L298.855 57.62ZM305.835 57.58L304.395 58.16C305.895 61.14 308.415 64.38 310.635 66.18C310.935 65.76 311.495 65.16 311.895 64.84C309.715 63.3 307.135 60.26 305.835 57.58ZM300.335 65.18C299.935 68.96 299.135 72.66 293.895 74.4C294.235 74.72 294.675 75.32 294.855 75.7C300.435 73.7 301.475 69.56 301.935 65.18H300.335ZM320.715 64.46C319.775 67.28 318.035 71.18 316.615 73.64L317.995 74.08C319.475 71.66 321.215 67.92 322.475 64.9L320.715 64.46ZM314.155 73.18L314.355 74.76C318.115 74.6 323.715 74.3 328.955 74L328.995 72.56C323.635 72.82 317.815 73.06 314.155 73.18ZM324.555 68.84C326.335 70.96 328.415 73.88 329.355 75.7L330.875 74.88C329.875 73.06 327.815 70.28 325.995 68.18L324.555 68.84ZM318.695 57.8C317.535 60.76 315.555 63.64 313.355 65.44C313.775 65.68 314.475 66.22 314.795 66.52C316.915 64.54 319.015 61.48 320.355 58.26L318.695 57.8ZM325.855 57.78L324.375 58.4C325.915 61.2 328.415 64.6 330.275 66.5C330.575 66.12 331.135 65.54 331.535 65.22C329.695 63.56 327.175 60.4 325.855 57.78ZM334.135 58.5V59.94H349.215V58.5H334.135ZM334.255 62.04V63.38H346.315V62.04H334.255ZM348.615 58.5V73.36C348.615 73.74 348.495 73.84 348.115 73.86C347.695 73.88 346.335 73.88 344.935 73.84C345.175 74.28 345.395 75.02 345.475 75.48C347.255 75.48 348.515 75.46 349.215 75.2C349.915 74.92 350.115 74.4 350.115 73.36V58.5H348.615ZM335.535 65.54V73.42H336.995V65.54H335.535ZM336.735 65.54V66.88H343.455V70.62H336.735V71.94H344.935V65.54H336.735ZM355.515 76.14C357.615 75.42 358.975 73.78 358.975 71.62C358.975 70.22 358.375 69.3 357.255 69.3C356.455 69.3 355.735 69.8 355.735 70.74C355.735 71.7 356.415 72.18 357.235 72.18C357.615 72.18 358.015 72.08 358.295 71.72L357.215 70.2L357.595 71.9C357.595 73.4 356.695 74.42 355.055 75.1L355.515 76.14ZM385.075 57.2V71.14H386.495V57.2H385.075ZM378.775 65.46L379.355 66.78L390.115 62.2L389.555 60.92L378.775 65.46ZM380.935 59.08V72.44C380.935 74.62 381.615 75.16 383.915 75.16C384.415 75.16 388.295 75.16 388.835 75.16C390.935 75.16 391.415 74.28 391.655 71.52C391.235 71.44 390.655 71.2 390.295 70.96C390.155 73.26 389.955 73.8 388.775 73.8C387.975 73.8 384.615 73.8 383.955 73.8C382.615 73.8 382.375 73.56 382.375 72.46V59.08H380.935ZM389.295 61.12C389.295 65.1 389.275 67.94 389.155 68.46C389.055 68.92 388.855 69 388.555 69C388.335 69 387.675 69 387.215 68.98C387.395 69.32 387.515 69.88 387.575 70.28C388.115 70.28 388.915 70.28 389.455 70.14C390.035 70 390.415 69.62 390.535 68.82C390.675 68.04 390.735 65.04 390.735 61.28L390.795 61L389.735 60.6L389.475 60.82L389.115 61.12H389.295ZM373.195 62.02V63.44H379.555V62.02H373.195ZM375.775 57.44V70.42H377.195V57.44H375.775ZM373.015 70.94L373.615 72.42C375.395 71.66 377.655 70.64 379.795 69.62L379.475 68.28C377.095 69.3 374.635 70.34 373.015 70.94ZM397.075 60.38V61.78H401.455V60.38H397.075ZM400.995 60.38V60.74C400.195 68.26 397.355 72.38 393.055 74.46C393.435 74.7 394.015 75.3 394.275 75.64C398.635 73.38 401.635 68.8 402.575 60.6L401.575 60.34L401.295 60.38H400.995ZM396.755 62.9L395.555 63.32C397.595 73.34 402.575 75 408.115 75H411.055C411.135 74.56 411.415 73.8 411.655 73.42C410.875 73.44 408.815 73.44 408.195 73.44C403.315 73.44 398.635 72.06 396.755 62.9ZM396.775 57.28C396.215 61.2 394.995 64.98 393.415 67.08C393.795 67.28 394.355 67.68 394.635 67.92C396.335 65.66 397.635 61.74 398.355 57.66L396.775 57.28ZM405.575 62.82C407.095 64.52 408.955 66.86 409.795 68.3L411.095 67.48C410.195 66.04 408.315 63.8 406.775 62.14L405.575 62.82ZM404.675 57.24V71.96H406.275V57.24H404.675ZM426.435 58.52C427.615 59.56 428.975 61 429.575 61.96L430.815 61.08C430.155 60.16 428.755 58.74 427.575 57.74L426.435 58.52ZM413.475 63.12V64.56H431.295V63.12H413.475ZM413.175 69L413.615 70.5C416.135 69.94 419.675 69.12 422.955 68.36L422.835 67C419.315 67.76 415.555 68.56 413.175 69ZM417.775 59.24V73.66C417.775 74.02 417.655 74.12 417.295 74.12C416.935 74.14 415.755 74.16 414.475 74.1C414.695 74.54 414.955 75.22 415.035 75.62C416.695 75.64 417.755 75.58 418.395 75.34C419.035 75.1 419.275 74.66 419.275 73.68V59.24H417.775ZM421.575 57.44C419.655 58.16 416.415 58.84 413.595 59.28C413.795 59.62 413.975 60.18 414.055 60.52C416.915 60.12 420.315 59.5 422.635 58.7L421.575 57.44ZM423.575 57.38C423.655 66.9 425.435 75.68 429.355 75.68C430.855 75.68 431.395 74.7 431.675 71.38C431.255 71.22 430.715 70.88 430.395 70.54C430.275 73.12 430.035 74.16 429.495 74.16C427.055 74.16 425.095 66.56 425.135 57.38H423.575ZM428.995 65.48C427.215 68.86 423.915 71.94 420.355 73.66C420.735 74 421.155 74.48 421.395 74.86C425.075 72.92 428.375 69.7 430.335 66.04L428.995 65.48ZM17.84 90.22V91.56H28.1V90.22H17.84ZM18.4 94.4V95.72H27.62V94.4H18.4ZM17.54 99.1V100.38H28.54V99.1H17.54ZM22.18 90.64V99.78H23.58V90.64H22.18ZM24.84 96.6C25.56 97.28 26.42 98.26 26.82 98.88L27.84 98.26C27.44 97.64 26.56 96.72 25.8 96.06L24.84 96.6ZM14.7 87.12V104.62H16.22V88.5H29.68V104.62H31.28V87.12H14.7ZM15.52 102.22V103.6H30.42V102.22H15.52ZM37.78 87.96V89.14H51.62V87.96H37.78ZM38.08 90.26V91.42H50.04V90.26H38.08ZM35.92 92.56V93.78H47.86V92.56H35.92ZM38.04 86.2C37.12 88.58 35.5 90.86 33.7 92.32C34.08 92.52 34.74 92.96 35.04 93.24C36.78 91.64 38.48 89.2 39.56 86.58L38.04 86.2ZM47.3 92.56C47.44 99.34 47.82 104.62 50.62 104.62C51.82 104.62 52.14 103.64 52.26 101.06C51.96 100.86 51.54 100.5 51.24 100.18C51.22 101.96 51.08 103.14 50.74 103.14C49.26 103.14 48.86 98 48.8 92.56H47.3ZM39.94 96.54V104.6H41.42V96.54H39.94ZM34.96 96V97.12H46.34V96H34.96ZM35.66 98.32V99.4H45.86V98.32H35.66ZM34.26 100.7V101.88H46.88V100.7H34.26ZM36.96 94.24C37.38 94.88 37.82 95.72 37.98 96.28L39.3 95.84C39.12 95.3 38.66 94.46 38.2 93.86L36.96 94.24ZM43.14 93.78C42.84 94.36 42.28 95.26 41.86 95.84L43.04 96.22C43.5 95.72 44.04 94.94 44.56 94.18L43.14 93.78ZM62.72 86.7V101.52C62.72 103.72 63.36 104.32 65.46 104.32C65.92 104.32 69.06 104.32 69.58 104.32C71.66 104.32 72.1 103.18 72.34 99.9C71.9 99.8 71.28 99.52 70.9 99.24C70.76 102.16 70.6 102.9 69.5 102.9C68.82 102.9 66.1 102.9 65.56 102.9C64.44 102.9 64.24 102.66 64.24 101.54V86.7H62.72ZM70.22 90.02C68.52 91.58 65.66 93.44 63.1 94.78C63.32 95.1 63.62 95.62 63.72 95.96C66.36 94.58 69.3 92.96 71.32 91.3L70.22 90.02ZM59.24 86.52C57.92 89.68 55.72 92.72 53.4 94.66C53.7 95.02 54.16 95.8 54.32 96.16C56.8 93.94 59.2 90.52 60.7 87L59.24 86.52ZM56.96 91.74V104.58H58.44V90.3L58.42 90.28L56.96 91.74ZM83.62 88.4H89.26V92.5H83.62V88.4ZM82.2 87.06V93.84H90.76V87.06H82.2ZM81.58 96.3V104.56H83.02V97.68H89.92V104.46H91.4V96.3H81.58ZM82.62 102.14V103.52H90.54V102.14H82.62ZM76.64 86.26C76.02 88.12 74.92 89.9 73.68 91.08C73.92 91.42 74.32 92.18 74.44 92.48C75.86 91.04 77.2 88.84 78 86.66L76.64 86.26ZM76.26 88.5L75.98 89.92H80.86V88.5H76.26ZM76.76 104.46C77.08 104.12 77.6 103.74 80.94 101.58C80.8 101.3 80.62 100.72 80.56 100.32L77 102.48L76.52 103.1L76.76 104.46ZM75.14 92.08V93.44H80.42V92.08H75.14ZM74.2 96.14V97.5H80.78V96.14H74.2ZM76.76 104.46C76.76 103.9 78.38 102.56 78.38 102.56V92.54H76.98V101.48C76.98 102.44 76.32 103.12 75.96 103.4C76.22 103.64 76.6 104.18 76.76 104.46ZM98.46 104.12L99.82 102.96C98.56 101.5 96.76 99.7 95.32 98.54L94.02 99.68C95.44 100.84 97.16 102.54 98.46 104.12ZM116.28 93.44V94.84H129.52V93.44H116.28ZM122.02 86.24V101.32C122.02 103.66 122.68 104.26 124.92 104.26C125.44 104.26 128.82 104.26 129.36 104.26C131.48 104.26 131.98 103.2 132.24 100.16C131.76 100.04 131.12 99.78 130.74 99.5C130.58 102.08 130.38 102.74 129.28 102.74C128.56 102.74 125.62 102.74 125.02 102.74C123.84 102.74 123.6 102.52 123.6 101.34V86.24H122.02ZM116.4 89.12V90.58H128.76V97.74H116.4V99.2H130.28V89.12H116.4ZM115.5 89.12V100.42H117.06V89.12H115.5ZM135.76 91.28V92.46H141.54V91.28H135.76ZM135.76 94.68V95.82H141.54V94.68H135.76ZM135.76 98.16V99.34H141.54V98.16H135.76ZM144.28 95.68V96.98H151.9V95.68H144.28ZM136.8 88V89.18H140.12V88H136.8ZM143 87.22V88.5H150.82V87.22H143ZM142.76 99.42V100.76H152.24V99.42H142.76ZM146.98 93.62V104.52H148.42V93.62H146.98ZM138.24 91.86V98.66H139.32V91.86H138.24ZM150.34 87.22V87.42C150.2 90.56 150.04 91.72 149.78 92.02C149.66 92.18 149.48 92.22 149.2 92.2C148.92 92.2 148.2 92.2 147.4 92.12C147.58 92.46 147.72 92.98 147.74 93.38C148.58 93.42 149.42 93.42 149.82 93.38C150.34 93.34 150.64 93.22 150.92 92.88C151.34 92.42 151.54 91.12 151.68 87.78C151.7 87.6 151.7 87.22 151.7 87.22H150.34ZM144.36 93.8C144.02 95.5 143.4 97.18 142.54 98.3C142.86 98.46 143.46 98.76 143.72 98.94C144.56 97.74 145.26 95.92 145.66 94.06L144.36 93.8ZM136.76 86.2C136.16 88.66 135.04 91.04 133.62 92.58C133.94 92.78 134.52 93.24 134.76 93.48C136.18 91.78 137.4 89.2 138.14 86.5L136.76 86.2ZM135.18 91.28V96.6C135.18 98.86 135.04 101.84 133.68 103.96C133.98 104.1 134.54 104.44 134.76 104.64C136.18 102.42 136.42 99.04 136.42 96.6V91.28H135.18ZM141.14 91.28V102.96C141.14 103.22 141.02 103.3 140.76 103.32C140.48 103.34 139.58 103.34 138.56 103.3C138.74 103.66 138.96 104.24 139.02 104.58C140.4 104.58 141.22 104.56 141.72 104.34C142.24 104.12 142.4 103.7 142.4 102.96V91.28H141.14ZM145.84 87.64C145.56 89.9 144.84 91.88 142.38 92.92C142.68 93.14 143.04 93.62 143.22 93.94C146.02 92.68 146.88 90.4 147.22 87.64H145.84ZM139.76 88V88.24C139.46 89.24 138.9 90.68 138.4 91.58C138.68 91.7 139.12 91.96 139.36 92.16C139.96 91.22 140.72 89.74 141.14 88.5L140.26 87.92L140.06 88H139.76ZM163.62 88.4H169.26V92.5H163.62V88.4ZM162.2 87.06V93.84H170.76V87.06H162.2ZM161.58 96.3V104.56H163.02V97.68H169.92V104.46H171.4V96.3H161.58ZM162.62 102.14V103.52H170.54V102.14H162.62ZM156.64 86.26C156.02 88.12 154.92 89.9 153.68 91.08C153.92 91.42 154.32 92.18 154.44 92.48C155.86 91.04 157.2 88.84 158 86.66L156.64 86.26ZM156.26 88.5L155.98 89.92H160.86V88.5H156.26ZM156.76 104.46C157.08 104.12 157.6 103.74 160.94 101.58C160.8 101.3 160.62 100.72 160.56 100.32L157 102.48L156.52 103.1L156.76 104.46ZM155.14 92.08V93.44H160.42V92.08H155.14ZM154.2 96.14V97.5H160.78V96.14H154.2ZM156.76 104.46C156.76 103.9 158.38 102.56 158.38 102.56V92.54H156.98V101.48C156.98 102.44 156.32 103.12 155.96 103.4C156.22 103.64 156.6 104.18 156.76 104.46ZM178.46 104.12L179.82 102.96C178.56 101.5 176.76 99.7 175.32 98.54L174.02 99.68C175.44 100.84 177.16 102.54 178.46 104.12ZM203.62 88.4H209.26V92.5H203.62V88.4ZM202.2 87.06V93.84H210.76V87.06H202.2ZM201.58 96.3V104.56H203.02V97.68H209.92V104.46H211.4V96.3H201.58ZM202.62 102.14V103.52H210.54V102.14H202.62ZM196.64 86.26C196.02 88.12 194.92 89.9 193.68 91.08C193.92 91.42 194.32 92.18 194.44 92.48C195.86 91.04 197.2 88.84 198 86.66L196.64 86.26ZM196.26 88.5L195.98 89.92H200.86V88.5H196.26ZM196.76 104.46C197.08 104.12 197.6 103.74 200.94 101.58C200.8 101.3 200.62 100.72 200.56 100.32L197 102.48L196.52 103.1L196.76 104.46ZM195.14 92.08V93.44H200.42V92.08H195.14ZM194.2 96.14V97.5H200.78V96.14H194.2ZM196.76 104.46C196.76 103.9 198.38 102.56 198.38 102.56V92.54H196.98V101.48C196.98 102.44 196.32 103.12 195.96 103.4C196.22 103.64 196.6 104.18 196.76 104.46ZM222.52 90.52V91.96H232.16V90.52H222.52ZM228.52 86.24V102.58C228.52 102.94 228.4 103.04 228.02 103.06C227.66 103.06 226.36 103.08 225.06 103.04C225.26 103.48 225.5 104.16 225.6 104.58C227.3 104.58 228.48 104.56 229.16 104.3C229.82 104.06 230.08 103.6 230.08 102.56V86.24H228.52ZM228.36 91.18C226.96 94.56 224.08 98.34 221.36 100.2C221.74 100.5 222.2 101.02 222.44 101.42C225.2 99.32 228.08 95.42 229.56 91.9L228.36 91.18ZM214.2 90.5V91.94H221.78V90.5H214.2ZM217.54 86.2V104.58H219.04V86.2H217.54ZM217.46 91.38C216.76 94.32 215.12 97.72 213.5 99.52C213.78 99.88 214.18 100.5 214.34 100.94C216.06 98.92 217.7 95.02 218.52 91.76L217.46 91.38ZM218.9 92.36L218.12 93.12C218.84 93.96 220.7 96.46 221.34 97.52L222.3 96.22C221.8 95.58 219.54 92.94 218.9 92.36ZM236.34 93.74V95.22H251.56V93.74H236.34ZM235.2 88.62V90.04H251.04V88.62H235.2ZM235.48 93.74V96.46C235.48 98.58 235.28 101.54 233.7 103.72C234.02 103.9 234.68 104.46 234.94 104.76C236.68 102.4 237.04 98.9 237.04 96.5V93.74H235.48ZM238.24 90.78C238.92 91.66 239.64 92.9 239.96 93.68L241.32 93.06C240.98 92.28 240.22 91.08 239.56 90.24L238.24 90.78ZM246.76 90.34C246.38 91.38 245.66 92.88 245.08 93.82L246.24 94.32C246.9 93.44 247.7 92.06 248.4 90.88L246.76 90.34ZM241.5 86.6C242.08 87.36 242.68 88.4 242.92 89.1L244.5 88.6C244.22 87.92 243.6 86.9 242.98 86.18L241.5 86.6ZM257.98 89.7H267.94V90.82H257.98V89.7ZM257.98 87.76H267.94V88.84H257.98V87.76ZM256.54 86.86V91.72H269.44V86.86H256.54ZM257.6 97.56H268.54V98.7H257.6V97.56ZM257.6 95.54H268.54V96.66H257.6V95.54ZM256.18 94.6V99.62H270.02V94.6H256.18ZM262.22 94.94V103.56H263.7V94.94H262.22ZM254.04 92.56V93.72H271.98V92.56H254.04ZM255.62 100.72V101.78H270.46V100.72H255.62ZM253.92 102.94V104.12H272.08V102.94H253.92ZM278 90.32H288.04V91.74H278V90.32ZM278 87.92H288.04V89.3H278V87.92ZM276.54 86.84V92.8H289.52V86.84H276.54ZM274.16 93.92V95.16H291.78V93.92H274.16ZM283.04 96.42V97.64H290.16V96.42H283.04ZM276.76 96.54V97.66H281.7V96.54H276.76ZM276.76 99.06V100.18H281.7V99.06H276.76ZM285.14 97.54L283.92 97.9C285.24 101.18 287.82 103.56 291.34 104.6C291.54 104.24 291.94 103.7 292.26 103.42C288.86 102.58 286.3 100.4 285.14 97.54ZM289.7 96.42V96.66C288.6 100.02 285.52 102.36 282.32 103.32C282.6 103.6 282.98 104.14 283.14 104.5C286.62 103.3 289.84 100.8 291.16 96.74L290.24 96.36L289.98 96.42H289.7ZM273.98 102.12L274.12 103.46C276.18 103.22 278.96 102.88 281.66 102.56V101.32C278.84 101.64 275.94 101.96 273.98 102.12ZM280.9 94.32V104.6H282.34V94.32H280.9ZM275.88 94.34V102.48H277.28V94.34H275.88ZM294.3 88.12V89.42H311.68V88.12H294.3ZM302.12 86.2V88.74H303.66V86.2H302.12ZM295.18 95.94V104.62H296.64V97.22H310.04V95.94H295.18ZM309.42 95.94V102.78C309.42 103.06 309.34 103.16 309 103.16C308.66 103.2 307.54 103.2 306.22 103.16C306.44 103.56 306.66 104.16 306.72 104.58C308.38 104.58 309.46 104.56 310.1 104.34C310.74 104.08 310.92 103.64 310.92 102.82V95.94H309.42ZM299.18 98.52V103.76H300.52V98.52H299.18ZM299.9 98.52V99.6H305.46V101.66H299.9V102.74H306.82V98.52H299.9ZM299.06 91.64H306.88V93.58H299.06V91.64ZM297.62 90.54V94.68H308.4V90.54H297.62ZM315.62 89.42V90.76H320.3V101.14H315.62V102.5H321.7V89.42H315.62ZM314.72 89.42V104.1H316.12V89.42H314.72ZM315.52 94.98V96.32H321.04V94.98H315.52ZM317.78 86.16C317.62 87.2 317.24 88.72 316.9 89.68L318.1 89.98C318.5 89.08 319 87.7 319.4 86.46L317.78 86.16ZM324.54 89.36V90.76H330.68V89.36H324.54ZM330.16 89.36V89.68C329.88 98.5 329.56 101.82 328.9 102.54C328.68 102.8 328.44 102.86 328.04 102.86C327.58 102.86 326.38 102.84 325.08 102.74C325.36 103.14 325.54 103.76 325.58 104.2C326.7 104.26 327.88 104.3 328.56 104.22C329.26 104.16 329.72 103.98 330.16 103.4C330.96 102.42 331.24 99.32 331.56 90.14C331.56 89.92 331.56 89.36 331.56 89.36H330.16ZM324.96 86.12C324.32 88.9 323.22 91.66 321.86 93.42C322.22 93.62 322.84 94.04 323.1 94.28C324.48 92.38 325.66 89.44 326.4 86.46L324.96 86.12ZM324.04 94.56C325.14 96.02 326.48 98 327.08 99.22L328.36 98.42C327.72 97.24 326.34 95.3 325.2 93.88L324.04 94.56ZM342.22 86.2V90.9C342.22 91.16 342.12 91.22 341.82 91.22C341.5 91.26 340.42 91.26 339.26 91.2C339.5 91.58 339.78 92.12 339.88 92.52C341.3 92.52 342.26 92.52 342.9 92.3C343.52 92.1 343.72 91.72 343.72 90.94V86.2H342.22ZM347.06 89.9C344.58 92.78 339.18 94.26 333.76 94.94C334.06 95.26 334.52 95.92 334.7 96.28C340.04 95.42 345.64 93.82 348.5 90.54L347.06 89.9ZM338.4 87.26C337.38 88.78 335.72 90.22 334.06 91.16C334.4 91.4 334.98 91.94 335.24 92.2C336.9 91.14 338.7 89.46 339.86 87.72L338.4 87.26ZM346.44 87.88C348.04 89.02 349.96 90.68 350.84 91.78L352.12 90.94C351.16 89.82 349.22 88.22 347.62 87.14L346.44 87.88ZM337.82 94.44V104.64H339.28V95.64H348.04V104.54H349.56V94.44H337.82ZM338.54 97.24V98.34H348.72V97.24H338.54ZM338.54 100V101.1H348.72V100H338.54ZM338.54 102.74V103.92H348.72V102.74H338.54ZM360.66 94.2V95.58H369.08V94.2H360.66ZM363.08 86.76V88.12H368V86.76H363.08ZM366.88 86.76V87.54H367.24C367.88 90.66 369.38 93.5 371.38 95.12C371.64 94.76 372.16 94.16 372.5 93.9C370.58 92.52 369.12 89.78 368.54 86.76H366.88ZM368.46 94.2V94.5C368.32 100.24 368.14 102.28 367.76 102.74C367.6 102.94 367.44 102.98 367.12 102.98C366.8 102.98 365.98 102.98 365.12 102.9C365.34 103.3 365.5 103.94 365.54 104.4C366.44 104.44 367.32 104.44 367.82 104.4C368.4 104.34 368.76 104.18 369.1 103.72C369.62 103.04 369.78 100.94 369.96 94.9C369.98 94.68 369.98 94.2 369.98 94.2H368.46ZM363.48 94.82C363.26 98.26 362.56 101.64 359.12 103.48C359.44 103.74 359.86 104.28 360.04 104.6C363.72 102.48 364.68 98.8 364.96 94.82H363.48ZM361.84 88.42C361.22 90.46 359.86 92.94 358.24 94.46C358.54 94.7 359.02 95.16 359.22 95.46C361 93.76 362.46 91.1 363.3 88.8L361.84 88.42ZM358.28 86.28C357.16 89.32 355.28 92.32 353.3 94.26C353.58 94.6 354 95.4 354.16 95.74C356.32 93.5 358.38 90.12 359.7 86.72L358.28 86.28ZM356.2 91.44V104.58H357.64V90.04L357.6 90.02L356.2 91.44ZM376.14 105.14C378.24 104.42 379.6 102.78 379.6 100.62C379.6 99.22 379 98.3 377.88 98.3C377.08 98.3 376.36 98.8 376.36 99.74C376.36 100.7 377.04 101.18 377.86 101.18C378.24 101.18 378.64 101.08 378.92 100.72L377.84 99.2L378.22 100.9C378.22 102.4 377.32 103.42 375.68 104.1L376.14 105.14ZM399.7 97.7V99.1H412.14V97.7H399.7ZM401.4 92.52V93.9H409.64V92.52H401.4ZM405.3 95.84V102.82C405.3 103.1 405.2 103.18 404.86 103.2C404.5 103.2 403.32 103.22 401.98 103.18C402.18 103.6 402.38 104.18 402.46 104.6C404.18 104.6 405.28 104.6 405.94 104.38C406.62 104.14 406.8 103.72 406.8 102.84V95.84H405.3ZM409.24 92.52V92.8C408.48 93.84 406.9 95.24 405.56 96.04C405.82 96.24 406.2 96.66 406.4 96.92C407.94 96 409.7 94.54 410.88 93.16L409.92 92.44L409.6 92.52H409.24ZM394.24 88.82V90.26H411.76V88.82H394.24ZM400.7 86.2C399.58 90.34 397.26 94.78 393.62 97.32C393.88 97.68 394.26 98.34 394.42 98.72C398.42 95.86 400.86 91.2 402.26 86.6L400.7 86.2ZM396.76 94.38V104.56H398.26V94.38H396.76ZM414.24 89.3V90.76H431.76V89.3H414.24ZM420.44 95.64V97.04H430.98V95.64H420.44ZM419.66 102.72V104.14H431.76V102.72H419.66ZM424.96 91.78V103.48H426.46V91.78H424.96ZM420.82 86.2C419.7 90.32 417.36 94.76 413.76 97.3C414 97.64 414.38 98.28 414.54 98.68C418.52 95.82 420.96 91.16 422.36 86.58L420.82 86.2ZM416.86 94.44V104.54H418.36V94.44H416.86ZM15.08 116.32V117.66H31.1V116.32H15.08ZM15.76 122.9V124.24H31.72V122.9H15.76ZM20.14 116.78V123.46H21.6V116.78H20.14ZM24.32 116.76V123.48H25.8V116.76H24.32ZM15.92 118.72C16.68 119.88 17.38 121.44 17.64 122.46L18.98 121.98C18.72 120.94 18 119.4 17.18 118.28L15.92 118.72ZM28.64 118.22C28.18 119.38 27.36 121.04 26.68 122.06L27.9 122.5C28.6 121.54 29.48 120.02 30.18 118.72L28.64 118.22ZM15.26 122.9V126.18C15.26 128.08 15.06 130.68 13.56 132.58C13.86 132.76 14.48 133.32 14.72 133.62C16.4 131.5 16.74 128.38 16.74 126.18V122.9H15.26ZM34.04 131.74V132.98H51.98V131.74H34.04ZM34.14 118.76V120H51.86V118.76H34.14ZM35.52 128.82V130.02H50.7V128.82H35.52ZM42.16 116.74V132.34H43.66V116.74H42.16ZM49.12 115.32C45.96 115.9 40.3 116.26 35.64 116.38C35.78 116.7 35.96 117.22 35.96 117.58C40.64 117.48 46.34 117.14 49.92 116.48L49.12 115.32ZM37.62 124.8H48.44V126.34H37.62V124.8ZM37.62 122.28H48.44V123.8H37.62V122.28ZM36.16 121.2V127.42H49.96V121.2H36.16ZM55.62 118.42V119.76H60.3V130.14H55.62V131.5H61.7V118.42H55.62ZM54.72 118.42V133.1H56.12V118.42H54.72ZM55.52 123.98V125.32H61.04V123.98H55.52ZM57.78 115.16C57.62 116.2 57.24 117.72 56.9 118.68L58.1 118.98C58.5 118.08 59 116.7 59.4 115.46L57.78 115.16ZM64.54 118.36V119.76H70.68V118.36H64.54ZM70.16 118.36V118.68C69.88 127.5 69.56 130.82 68.9 131.54C68.68 131.8 68.44 131.86 68.04 131.86C67.58 131.86 66.38 131.84 65.08 131.74C65.36 132.14 65.54 132.76 65.58 133.2C66.7 133.26 67.88 133.3 68.56 133.22C69.26 133.16 69.72 132.98 70.16 132.4C70.96 131.42 71.24 128.32 71.56 119.14C71.56 118.92 71.56 118.36 71.56 118.36H70.16ZM64.96 115.12C64.32 117.9 63.22 120.66 61.86 122.42C62.22 122.62 62.84 123.04 63.1 123.28C64.48 121.38 65.66 118.44 66.4 115.46L64.96 115.12ZM64.04 123.56C65.14 125.02 66.48 127 67.08 128.22L68.36 127.42C67.72 126.24 66.34 124.3 65.2 122.88L64.04 123.56ZM87.68 125.34C88.94 126.94 90.34 129.14 90.92 130.5L92.36 129.8C91.72 128.42 90.28 126.3 89 124.74L87.68 125.34ZM82.18 115.24V122.38H83.72V115.24H82.18ZM74.14 121.9V123.34H91.9V121.9H74.14ZM76.12 117.62V119.06H90.32V117.62H76.12ZM84.7 122.68V131.74C84.7 132 84.62 132.08 84.3 132.08C84 132.1 82.96 132.12 81.82 132.08C82.04 132.52 82.28 133.16 82.36 133.58C83.86 133.58 84.84 133.56 85.46 133.32C86.08 133.06 86.26 132.64 86.26 131.76V122.68H84.7ZM76.84 124.84C76.26 126.44 75.02 128.36 73.62 129.56C73.98 129.76 74.52 130.14 74.82 130.42C76.26 129.12 77.58 127.06 78.36 125.24L76.84 124.84ZM80.2 122.5V124.52C80.2 126.98 79.88 130.2 76.18 132.64C76.54 132.9 77.08 133.4 77.3 133.74C81.3 131.04 81.72 127.38 81.72 124.54V122.5H80.2ZM100.66 116.24V123.08C100.66 126.1 100.46 130.1 98.2 132.88C98.56 133.02 99.2 133.4 99.46 133.64C101.78 130.76 102.1 126.32 102.1 123.08V116.24H100.66ZM103.56 122.98V131.22C103.56 133 104.08 133.48 106.04 133.48C106.44 133.48 109.28 133.48 109.7 133.48C111.52 133.48 111.94 132.64 112.12 129.58C111.74 129.48 111.12 129.24 110.8 129C110.7 131.64 110.56 132.12 109.62 132.12C109 132.12 106.62 132.12 106.16 132.12C105.18 132.12 104.98 131.96 104.98 131.22V122.98H103.56ZM109.98 123.88C108.64 125.06 106.2 126.34 104.02 127.28C104.22 127.58 104.44 128.06 104.54 128.34C106.84 127.42 109.4 126.2 111.14 124.94L109.98 123.88ZM101.32 116.24V117.62H109.64V120.54H101.32V121.94H111.1V116.24H101.32ZM94.76 116.52C96.1 117.1 97.72 118.04 98.5 118.76L99.38 117.5C98.56 116.82 96.92 115.94 95.58 115.42L94.76 116.52ZM93.76 122.04C95.06 122.58 96.64 123.52 97.42 124.2L98.26 122.94C97.44 122.28 95.84 121.42 94.56 120.92L93.76 122.04ZM94.34 132.32L95.66 133.28C96.76 131.4 98.08 128.88 99.06 126.76L97.9 125.84C96.82 128.12 95.34 130.78 94.34 132.32ZM117.7 118.38V119.78H122.08V118.38H117.7ZM121.62 118.38V118.74C120.82 126.26 117.98 130.38 113.68 132.46C114.06 132.7 114.64 133.3 114.9 133.64C119.26 131.38 122.26 126.8 123.2 118.6L122.2 118.34L121.92 118.38H121.62ZM117.38 120.9L116.18 121.32C118.22 131.34 123.2 133 128.74 133H131.68C131.76 132.56 132.04 131.8 132.28 131.42C131.5 131.44 129.44 131.44 128.82 131.44C123.94 131.44 119.26 130.06 117.38 120.9ZM117.4 115.28C116.84 119.2 115.62 122.98 114.04 125.08C114.42 125.28 114.98 125.68 115.26 125.92C116.96 123.66 118.26 119.74 118.98 115.66L117.4 115.28ZM126.2 120.82C127.72 122.52 129.58 124.86 130.42 126.3L131.72 125.48C130.82 124.04 128.94 121.8 127.4 120.14L126.2 120.82ZM125.3 115.24V129.96H126.9V115.24H125.3ZM142.5 121.22H149.94V123.8H142.5V121.22ZM142.5 117.44H149.94V119.98H142.5V117.44ZM141.14 116.14V125.1H151.38V116.14H141.14ZM140.88 127.44V128.82H151.66V127.44H140.88ZM139.34 131.58V132.94H152.32V131.58H139.34ZM133.9 116.56V117.98H140.14V116.56H133.9ZM134.12 122.34V123.76H139.86V122.34H134.12ZM133.7 130L134.06 131.54C135.84 130.94 138.12 130.18 140.3 129.44L140.04 128C137.72 128.78 135.32 129.56 133.7 130ZM136.4 117.12V129.8L137.84 129.52V117.12H136.4ZM145.56 116.76V124.46H145.46V132.2H146.98V124.46H146.88V116.76H145.56ZM163.28 122.72V124.08H171.42V122.72H163.28ZM163.3 126.66V128.02H171.44V126.66H163.3ZM163.18 130.78V132.18H172.1V130.78H163.18ZM166.96 119.3V131.54H168.32V119.3H166.96ZM163.92 118.82H163.4L162.52 119.76V133.62H163.92V120.2H171.86V118.82H163.92ZM164.1 115.32C163.36 117.8 161.92 120.94 160.24 122.94C160.48 123.26 160.82 123.9 160.98 124.28C162.96 122 164.58 118.64 165.58 115.72L164.1 115.32ZM166.2 115.84C166.72 116.74 167.32 117.96 167.56 118.76L168.94 118.14C168.66 117.38 168.06 116.2 167.5 115.32L166.2 115.84ZM154.16 117.5V118.86H159.94V117.5H154.16ZM159.48 117.5V117.86C158.78 123.78 156.46 128.72 153.58 130.9C153.94 131.14 154.4 131.68 154.64 132.04C157.8 129.44 160.12 124.54 160.94 117.76L160 117.44L159.74 117.5H159.48ZM153.96 120.92C156.2 123.88 158.84 127.86 159.96 130.32L161.14 129.28C159.98 126.9 157.24 123 155 120.1L153.96 120.92ZM176.5 119.7H180.6V121.22H176.5V119.7ZM176.5 117.14H180.6V118.64H176.5V117.14ZM175.16 116.06V122.34H182V116.06H175.16ZM173.96 123.82V124.98H183.02V123.82H173.96ZM182.98 116.12V117.36H192.1V116.12H182.98ZM178.02 124.2V131.04L179.32 131.82V124.2H178.02ZM178.62 127.14V128.28H182.64V127.14H178.62ZM186.8 116.54C186.62 117.4 186.24 118.64 185.94 119.46L187.14 119.76C187.5 119 187.92 117.88 188.32 116.84L186.8 116.54ZM176.34 128.04L175.42 128.38C177.04 132.52 180.24 133.18 185.26 133.18H191.72C191.78 132.78 192.04 132.2 192.26 131.88C191.1 131.92 186.18 131.92 185.28 131.92C180.84 131.92 177.74 131.48 176.34 128.04ZM183.78 119.28V127.7H185.06V120.42H189.8V127.64H191.12V119.28H183.78ZM175.46 125.98C175.36 128.86 175 131.26 173.66 132.82C173.96 133 174.52 133.38 174.74 133.56C176.1 131.82 176.6 129.28 176.74 126.06L175.46 125.98ZM186.88 121.4C186.76 126.6 186.34 129.14 182.14 130.48C182.42 130.7 182.74 131.18 182.88 131.46C187.44 129.96 188.02 127.04 188.16 121.4H186.88ZM187.58 128.3C188.84 129.2 190.38 130.52 191.16 131.36L192.06 130.44C191.28 129.6 189.7 128.34 188.46 127.5L187.58 128.3ZM196.88 127.14C195.2 127.14 193.82 128.5 193.82 130.18C193.82 131.86 195.2 133.22 196.88 133.22C198.56 133.22 199.92 131.86 199.92 130.18C199.92 128.5 198.56 127.14 196.88 127.14ZM196.88 132.2C195.76 132.2 194.84 131.3 194.84 130.18C194.84 129.06 195.76 128.16 196.88 128.16C198 128.16 198.9 129.06 198.9 130.18C198.9 131.3 198 132.2 196.88 132.2ZM219.24 118.2V119.16H226.8V118.2H219.24ZM222.94 116.32C224.9 117.76 228.28 119.24 230.98 119.98C231.14 119.64 231.46 119.1 231.74 118.82C228.88 118.14 225.68 116.86 223.5 115.28H222.24C220.6 116.7 217.44 118.14 214.34 119C214.58 119.3 214.88 119.8 215.02 120.12C218.08 119.18 221.24 117.68 222.94 116.32ZM227.18 124.94C228.3 126.02 230.1 127.14 231.64 127.8C231.82 127.5 232.12 127.04 232.36 126.74C230.7 126.16 228.92 125.14 227.7 123.94H226.56C225.66 125.04 223.9 126.22 222.16 126.9C222.42 127.16 222.7 127.6 222.84 127.88C224.54 127.14 226.22 126 227.18 124.94ZM218.56 121.36C218.86 121.84 219.18 122.52 219.3 122.96L220.5 122.6C220.38 122.2 220.02 121.54 219.7 121.06L218.56 121.36ZM226.28 120.92C226.06 121.44 225.64 122.2 225.32 122.72L226.34 123.04C226.7 122.56 227.12 121.92 227.56 121.24L226.28 120.92ZM216.78 120.16V121.16H229.1V120.16H216.78ZM215.38 122.78V123.82H230.7V122.78H215.38ZM222.24 118.62V123.22H223.66V118.62H222.24ZM215.94 126.66V127.6H221.26V126.66H215.94ZM215.32 130.06C215.64 130.62 215.94 131.4 216.06 131.88L217.04 131.58C216.92 131.1 216.6 130.36 216.26 129.8L215.32 130.06ZM220.74 129.66C220.58 130.16 220.26 130.88 220 131.38L220.86 131.64C221.14 131.2 221.42 130.6 221.74 129.96L220.74 129.66ZM214.52 128.62V129.62H222.34V128.62H214.52ZM217.9 127.08V132.2H219.06V127.08H217.9ZM214.04 132.3L214.22 133.36C216.36 133.14 219.42 132.8 222.34 132.48V131.48C219.24 131.82 216.1 132.12 214.04 132.3ZM224.36 126.66V127.6H230.08V126.66H224.36ZM223.68 130.1C224.04 130.68 224.38 131.46 224.52 132L225.56 131.64C225.42 131.16 225.04 130.38 224.68 129.82L223.68 130.1ZM229.64 129.78C229.4 130.32 228.98 131.16 228.62 131.7L229.54 131.98C229.9 131.46 230.3 130.78 230.68 130.08L229.64 129.78ZM222.94 128.68V129.68H231.68V128.68H222.94ZM222.6 131.98V133.04H232.02V131.98H222.6ZM226.52 127.02V132.32H227.76V127.02H226.52ZM217.96 123.94C217.14 124.94 215.66 126.06 213.74 126.88C214.02 127.04 214.38 127.42 214.58 127.68C216.62 126.7 218.08 125.56 219.02 124.62V124.24H218.64V123.94H217.96ZM218.22 123.94V124.84H218.52C219.68 125.5 221.12 126.58 221.9 127.24L222.82 126.42C221.94 125.68 220.36 124.64 219.12 123.94H218.22ZM235.16 117.64V118.9H251V117.64H235.16ZM234.02 122.84V124.1H252V122.84H234.02ZM240.22 118.16V123.54H241.62V118.16H240.22ZM244.18 118.16V123.54H245.62V118.16H244.18ZM236.14 119.64C236.84 120.6 237.5 121.9 237.74 122.76L239.04 122.24C238.8 121.36 238.12 120.08 237.38 119.16L236.14 119.64ZM237.62 115.7C238.22 116.36 238.84 117.34 239.08 118L240.46 117.38C240.18 116.74 239.58 115.82 238.94 115.18L237.62 115.7ZM248.54 119.06C248.12 120.04 247.32 121.42 246.74 122.3L247.9 122.7C248.52 121.9 249.28 120.66 249.9 119.54L248.54 119.06ZM246.8 115.18C246.46 115.82 245.84 116.78 245.34 117.38L246.66 117.84C247.14 117.28 247.76 116.48 248.28 115.66L246.8 115.18ZM236.98 125.32V133.58H238.48V126.52H247.52V133.52H249.1V125.32H236.98ZM237.8 128.48V129.66H248.24V128.48H237.8ZM237.82 131.68V132.9H248.26V131.68H237.82ZM253.98 121.24V122.64H263.5V121.24H253.98ZM264.84 117.58V128.64H266.3V117.58H264.84ZM258.18 116.9V133.58H259.66V116.9H258.18ZM269.76 115.58V131.62C269.76 132 269.6 132.12 269.22 132.12C268.84 132.14 267.6 132.14 266.16 132.1C266.4 132.54 266.64 133.2 266.72 133.62C268.56 133.64 269.68 133.6 270.34 133.34C270.98 133.1 271.24 132.64 271.24 131.6V115.58H269.76ZM262.16 115.32C260.28 116.16 256.8 116.84 253.84 117.26C254.02 117.58 254.24 118.1 254.3 118.46C257.34 118.06 260.96 117.4 263.28 116.48L262.16 115.32ZM258.12 121.88C257.24 124.56 255.3 127.74 253.54 129.42C253.8 129.8 254.18 130.4 254.36 130.84C256.22 128.94 258.18 125.36 259.2 122.32L258.12 121.88ZM259.46 123.94L258.64 124.74C259.56 125.52 261.74 127.62 262.56 128.54L263.44 127.28C262.8 126.72 260.22 124.48 259.46 123.94ZM277.24 116.86V133.56H278.7V116.86H277.24ZM273.86 120.84V122.26H281.66V120.84H273.86ZM277.32 121.38C276.6 123.86 275 126.98 273.56 128.58C273.82 128.92 274.18 129.54 274.32 129.96C275.86 128.1 277.46 124.6 278.26 121.78L277.32 121.38ZM280.44 115.48C278.92 116.16 276.3 116.74 274.04 117.1C274.2 117.44 274.4 117.94 274.48 118.28C276.76 117.96 279.52 117.42 281.36 116.7L280.44 115.48ZM278.62 122.52L277.92 123.14C278.52 123.92 280.08 126.3 280.56 127.26L281.5 126.08C281.06 125.48 279.14 123.06 278.62 122.52ZM288.24 115.2V133.58H289.72V115.2H288.24ZM281.42 128.22L281.64 129.64L292.3 127.9L292.06 126.5L281.42 128.22ZM283.04 117.48C284.22 118.28 285.62 119.48 286.26 120.32L287.3 119.34C286.62 118.5 285.2 117.36 284 116.6L283.04 117.48ZM282.24 122.68C283.54 123.5 285.06 124.76 285.8 125.64L286.8 124.64C286.06 123.78 284.48 122.58 283.18 121.8L282.24 122.68ZM300.54 118.36V119.76H311.56V118.36H300.54ZM300.96 122.76V124.14H309.78V122.76H300.96ZM305.26 115.2V123.54H306.74V115.2H305.26ZM302.9 123.78L301.54 124.18C303.28 128.88 306.52 132.2 311.32 133.62C311.54 133.24 311.96 132.64 312.3 132.34C307.62 131.1 304.4 127.98 302.9 123.78ZM309.66 122.76V123.02C308.2 127.96 303.98 131.06 299.4 132.24C299.68 132.56 300.06 133.2 300.2 133.6C305.1 132.12 309.46 128.86 311.16 123.12L310.22 122.7L309.94 122.76H309.66ZM293.72 125.8L294.16 127.24C295.94 126.72 298.26 126.04 300.44 125.38L300.26 124.02C297.88 124.7 295.4 125.38 293.72 125.8ZM293.98 119.24V120.66H300.26V119.24H293.98ZM296.56 115.22V131.8C296.56 132.08 296.44 132.18 296.18 132.18C295.92 132.2 295.04 132.2 294.1 132.18C294.3 132.58 294.52 133.18 294.56 133.56C295.94 133.56 296.78 133.52 297.3 133.28C297.84 133.06 298.04 132.64 298.04 131.8V115.22H296.56ZM321.34 122.46C320.4 125.28 318.66 129.18 317.24 131.64L318.62 132.08C320.1 129.66 321.84 125.92 323.1 122.9L321.34 122.46ZM314.78 131.18L314.98 132.76C318.74 132.6 324.34 132.3 329.58 132L329.62 130.56C324.26 130.82 318.44 131.06 314.78 131.18ZM325.18 126.84C326.96 128.96 329.04 131.88 329.98 133.7L331.5 132.88C330.5 131.06 328.44 128.28 326.62 126.18L325.18 126.84ZM319.32 115.8C318.16 118.76 316.18 121.64 313.98 123.44C314.4 123.68 315.1 124.22 315.42 124.52C317.54 122.54 319.64 119.48 320.98 116.26L319.32 115.8ZM326.48 115.78L325 116.4C326.54 119.2 329.04 122.6 330.9 124.5C331.2 124.12 331.76 123.54 332.16 123.22C330.32 121.56 327.8 118.4 326.48 115.78ZM334.76 116.5V117.94H349.84V116.5H334.76ZM334.88 120.04V121.38H346.94V120.04H334.88ZM349.24 116.5V131.36C349.24 131.74 349.12 131.84 348.74 131.86C348.32 131.88 346.96 131.88 345.56 131.84C345.8 132.28 346.02 133.02 346.1 133.48C347.88 133.48 349.14 133.46 349.84 133.2C350.54 132.92 350.74 132.4 350.74 131.36V116.5H349.24ZM336.16 123.54V131.42H337.62V123.54H336.16ZM337.36 123.54V124.88H344.08V128.62H337.36V129.94H345.56V123.54H337.36ZM358.2 122.48V123.88H367.76V122.48H358.2ZM359.18 118.06V119.5H369.86V118.06H359.18ZM354.06 126.8V128.24H371.96V126.8H354.06ZM367.22 122.48V122.76C366.68 128.72 366.14 131.24 365.34 131.92C365.06 132.14 364.8 132.18 364.3 132.18C363.72 132.18 362.24 132.16 360.7 132.02C361 132.44 361.2 133.08 361.22 133.52C362.68 133.6 364.1 133.64 364.82 133.58C365.64 133.52 366.12 133.4 366.62 132.88C367.56 131.96 368.12 129.46 368.7 123.2C368.74 122.98 368.76 122.48 368.76 122.48H367.22ZM359.04 115.18C358.54 118.18 357.64 122.34 356.94 124.76L358.5 124.92C359.12 122.52 360.02 118.42 360.6 115.32L359.04 115.18ZM374.92 118.78V128.3H376.42V120.26H389.48V128.2H391.04V118.78H374.92ZM375.72 125.58V127.04H390.38V125.58H375.72ZM382.16 115.2V133.58H383.72V115.2H382.16ZM403.62 117.4H409.26V121.5H403.62V117.4ZM402.2 116.06V122.84H410.76V116.06H402.2ZM401.58 125.3V133.56H403.02V126.68H409.92V133.46H411.4V125.3H401.58ZM402.62 131.14V132.52H410.54V131.14H402.62ZM396.64 115.26C396.02 117.12 394.92 118.9 393.68 120.08C393.92 120.42 394.32 121.18 394.44 121.48C395.86 120.04 397.2 117.84 398 115.66L396.64 115.26ZM396.26 117.5L395.98 118.92H400.86V117.5H396.26ZM396.76 133.46C397.08 133.12 397.6 132.74 400.94 130.58C400.8 130.3 400.62 129.72 400.56 129.32L397 131.48L396.52 132.1L396.76 133.46ZM395.14 121.08V122.44H400.42V121.08H395.14ZM394.2 125.14V126.5H400.78V125.14H394.2ZM396.76 133.46C396.76 132.9 398.38 131.56 398.38 131.56V121.54H396.98V130.48C396.98 131.44 396.32 132.12 395.96 132.4C396.22 132.64 396.6 133.18 396.76 133.46ZM422.12 115.62V131.1H423.7V115.62H422.12ZM415.1 119.98V133.36H416.62V119.98H415.1ZM429.42 119.96V133.28H430.96V119.96H429.42ZM415.84 130.2V131.74H430.1V130.2H415.84ZM16.54 154.5C16.74 154.3 17.52 154.2 18.7 154.2H30.46L30.48 152.74H17.52L16.54 153.28V154.5ZM23.14 149.8V160.52C23.14 160.8 23.06 160.88 22.74 160.9C22.4 160.92 21.34 160.92 20.2 160.88C20.42 161.32 20.68 162 20.76 162.44C22.18 162.44 23.22 162.4 23.82 162.14C24.46 161.88 24.66 161.44 24.66 160.56V149.8H23.14ZM18.14 155.78C17.3 157.68 15.9 159.58 14.42 160.8C14.78 161.02 15.4 161.52 15.68 161.78C17.14 160.42 18.66 158.3 19.62 156.2L18.14 155.78ZM26.32 156.4C27.86 157.96 29.66 160.14 30.46 161.54L31.8 160.78C30.94 159.38 29.1 157.28 27.56 155.76L26.32 156.4ZM14.54 146.86V148.3H31.32V146.86H14.54ZM16.54 154.5C16.54 154.16 17.76 153.6 17.76 153.6V153.58C19.6 151.26 21.52 148 22.98 144.76L21.4 144.1C20.16 147.24 18.14 150.52 17.5 151.36C16.88 152.24 16.44 152.82 15.98 152.94C16.18 153.36 16.44 154.16 16.54 154.5ZM39.2 148.94V150.34H51.7V148.94H39.2ZM38.32 153.52H34V154.9H36.86V159.36H38.32V153.52ZM38.32 158.56H36.98C35.92 159.42 34.72 160.3 33.72 160.94L34.5 162.44C35.62 161.56 36.66 160.7 37.66 159.84C38.92 161.4 40.72 162.12 43.34 162.24C45.52 162.3 49.66 162.26 51.84 162.18C51.9 161.72 52.14 161.02 52.32 160.68C49.96 160.84 45.5 160.88 43.32 160.8C41.02 160.72 39.26 160.02 38.32 158.56ZM34.94 145.38C36.18 146.08 37.6 147.16 38.28 147.96L39.34 146.94C38.66 146.12 37.18 145.1 35.96 144.46L34.94 145.38ZM34.12 149.46C35.44 150.1 36.98 151.16 37.68 151.96L38.72 150.9C37.96 150.1 36.4 149.08 35.12 148.48L34.12 149.46ZM44.52 144.26C44.44 151.2 44.32 155.88 39 158.26C39.34 158.52 39.8 159.06 40 159.4C45.62 156.78 45.9 151.62 46.02 144.26H44.52ZM46.14 149.78L44.82 149.98C45.64 154.76 47.36 157.84 51.12 159.36C51.32 158.96 51.74 158.38 52.08 158.08C48.52 156.84 46.86 154 46.14 149.78ZM56.4 151.7V153.1H61.38V151.7H56.4ZM60.78 151.7V151.96C60.72 156.28 60.62 157.78 60.32 158.14C60.18 158.32 59.98 158.34 59.7 158.34C59.36 158.34 58.48 158.34 57.58 158.26C57.8 158.64 57.96 159.22 58 159.66C58.98 159.7 59.88 159.72 60.4 159.66C60.96 159.6 61.28 159.46 61.6 159.1C62.02 158.54 62.14 156.86 62.24 152.34C62.24 152.14 62.24 151.7 62.24 151.7H60.78ZM66.42 145.22C67.68 145.88 69.22 146.9 69.98 147.6L70.92 146.58C70.14 145.88 68.56 144.92 67.32 144.28L66.42 145.22ZM69.28 150.64C67.78 155.46 64.96 159.12 60.9 161.28C61.22 161.58 61.78 162.2 62 162.5C66.1 160.08 69.08 156.22 70.78 151L69.28 150.64ZM56.52 147.6V149.08H72V147.6H56.52ZM55.56 147.6V153.22C55.56 155.84 55.38 159.28 53.72 161.74C54.08 161.92 54.72 162.44 54.98 162.74C56.8 160.12 57.12 156.08 57.12 153.24V147.6H55.56ZM63.86 144.24C63.94 153.82 65.74 162.46 69.82 162.46C71.34 162.46 71.9 161.48 72.18 158.06C71.78 157.92 71.22 157.58 70.88 157.24C70.76 159.9 70.5 160.94 69.94 160.94C67.34 160.94 65.38 153.44 65.42 144.24H63.86ZM77.96 150.74V152.08H88.06V150.74H77.96ZM77.6 160.46V161.8H88.32V160.46H77.6ZM76.92 154.6V162.62H78.38V155.96H87.64V162.62H89.16V154.6H76.92ZM82.94 145.74C84.82 148.3 88.34 151.12 91.48 152.76C91.74 152.32 92.1 151.8 92.48 151.44C89.28 150.02 85.78 147.24 83.62 144.26H82.1C80.52 146.84 77.18 149.9 73.66 151.68C74 152 74.4 152.54 74.6 152.88C78.02 151.02 81.3 148.18 82.94 145.74ZM102.74 147.56L102.04 149H112.22V147.56H102.74ZM105.24 151.9V153.28H111.76V151.9H105.24ZM105.22 156.3V157.72H112.04V156.3H105.22ZM104.48 148.02V162.6H106.02V148.02H104.48ZM103.5 144.44C102.52 147.38 100.9 150.3 99.08 152.16C99.42 152.4 100.02 152.94 100.24 153.2C102.08 151.14 103.82 148 104.96 144.82L103.5 144.44ZM98.7 144.28C97.56 147.32 95.7 150.32 93.7 152.26C93.98 152.62 94.44 153.42 94.58 153.78C96.76 151.54 98.82 148.12 100.14 144.74L98.7 144.28ZM96.56 149.44V162.58H98.08V147.96L98.04 147.94L96.56 149.44ZM116.14 163.14C118.24 162.42 119.6 160.78 119.6 158.62C119.6 157.22 119 156.3 117.88 156.3C117.08 156.3 116.36 156.8 116.36 157.74C116.36 158.7 117.04 159.18 117.86 159.18C118.24 159.18 118.64 159.08 118.92 158.72L117.84 157.2L118.22 158.9C118.22 160.4 117.32 161.42 115.68 162.1L116.14 163.14ZM137.64 144.28C136.68 147.38 135.1 150.44 133.34 152.44C133.6 152.82 134 153.64 134.14 153.98C136.12 151.64 137.9 148.14 139.04 144.68L137.64 144.28ZM136.04 149.22V162.6H137.52V147.82L137.46 147.78L136.04 149.22ZM142.04 146.48H149.28V150.6H142.04V146.48ZM140.6 145.14V151.94H150.78V145.14H140.6ZM145.58 155.02V156.44H151.14V155.02H145.58ZM144.94 151.26V160.64L146.42 161.28V151.26H144.94ZM141.92 156.28L140.76 156.72C142.18 161.26 144.9 162.16 148.62 162.16H151.82C151.9 161.76 152.12 161.08 152.32 160.74C151.6 160.74 149.26 160.76 148.72 160.74C145.64 160.74 143.04 160.1 141.92 156.28ZM141 153.92C140.66 157.26 139.86 160.04 138.04 161.76C138.38 161.96 139 162.4 139.24 162.64C141.1 160.72 142.04 157.78 142.44 154.06L141 153.92ZM159.78 147.84V149.28H171.48V147.84H159.78ZM162.6 144.64V151.62C162.6 153.94 162.34 156.62 159.94 158.46C160.26 158.66 160.84 159.24 161.04 159.52C163.68 157.52 164.08 154.24 164.08 151.64V144.64H162.6ZM159.64 152.88V154.3H171.86V152.88H159.64ZM158.22 151.44H153.98V152.86H156.76V159.18H158.22V151.44ZM157.46 158.44C156.46 158.44 155.12 159.5 153.76 160.96L154.76 162.32C155.78 160.96 156.76 159.78 157.44 159.78C157.9 159.78 158.52 160.44 159.36 160.98C160.76 161.84 162.44 162.08 164.92 162.08C166.82 162.08 170.4 161.96 171.82 161.86C171.86 161.44 172.1 160.72 172.26 160.3C170.32 160.52 167.32 160.68 164.96 160.68C162.68 160.68 161 160.54 159.7 159.74C158.6 159.04 158.14 158.44 157.46 158.44ZM154.6 145.46C155.72 146.46 157.06 147.9 157.66 148.82L158.82 147.88C158.16 146.98 156.8 145.6 155.68 144.62L154.6 145.46ZM167.4 144.62V159.42H168.88V144.62H167.4ZM187.68 154.34C188.94 155.94 190.34 158.14 190.92 159.5L192.36 158.8C191.72 157.42 190.28 155.3 189 153.74L187.68 154.34ZM182.18 144.24V151.38H183.72V144.24H182.18ZM174.14 150.9V152.34H191.9V150.9H174.14ZM176.12 146.62V148.06H190.32V146.62H176.12ZM184.7 151.68V160.74C184.7 161 184.62 161.08 184.3 161.08C184 161.1 182.96 161.12 181.82 161.08C182.04 161.52 182.28 162.16 182.36 162.58C183.86 162.58 184.84 162.56 185.46 162.32C186.08 162.06 186.26 161.64 186.26 160.76V151.68H184.7ZM176.84 153.84C176.26 155.44 175.02 157.36 173.62 158.56C173.98 158.76 174.52 159.14 174.82 159.42C176.26 158.12 177.58 156.06 178.36 154.24L176.84 153.84ZM180.2 151.5V153.52C180.2 155.98 179.88 159.2 176.18 161.64C176.54 161.9 177.08 162.4 177.3 162.74C181.3 160.04 181.72 156.38 181.72 153.54V151.5H180.2ZM200.66 145.24V152.08C200.66 155.1 200.46 159.1 198.2 161.88C198.56 162.02 199.2 162.4 199.46 162.64C201.78 159.76 202.1 155.32 202.1 152.08V145.24H200.66ZM203.56 151.98V160.22C203.56 162 204.08 162.48 206.04 162.48C206.44 162.48 209.28 162.48 209.7 162.48C211.52 162.48 211.94 161.64 212.12 158.58C211.74 158.48 211.12 158.24 210.8 158C210.7 160.64 210.56 161.12 209.62 161.12C209 161.12 206.62 161.12 206.16 161.12C205.18 161.12 204.98 160.96 204.98 160.22V151.98H203.56ZM209.98 152.88C208.64 154.06 206.2 155.34 204.02 156.28C204.22 156.58 204.44 157.06 204.54 157.34C206.84 156.42 209.4 155.2 211.14 153.94L209.98 152.88ZM201.32 145.24V146.62H209.64V149.54H201.32V150.94H211.1V145.24H201.32ZM194.76 145.52C196.1 146.1 197.72 147.04 198.5 147.76L199.38 146.5C198.56 145.82 196.92 144.94 195.58 144.42L194.76 145.52ZM193.76 151.04C195.06 151.58 196.64 152.52 197.42 153.2L198.26 151.94C197.44 151.28 195.84 150.42 194.56 149.92L193.76 151.04ZM194.34 161.32L195.66 162.28C196.76 160.4 198.08 157.88 199.06 155.76L197.9 154.84C196.82 157.12 195.34 159.78 194.34 161.32ZM223.6 160.52V161.84H230.2V160.52H223.6ZM224.58 146.26V147.56H229.86V146.26H224.58ZM223.02 155.36V162.56H224.4V156.66H229.44V162.5H230.88V155.36H223.02ZM229.32 146.26V146.52C228.02 150.7 224.48 153.92 220.94 155.28C221.24 155.56 221.64 156.08 221.82 156.42C225.62 154.8 229.28 151.52 230.82 146.6L229.86 146.2L229.58 146.26H229.32ZM224.92 144.2C224.16 146.66 222.78 149 221.14 150.5C221.5 150.72 222.08 151.2 222.32 151.46C223.98 149.8 225.46 147.26 226.36 144.54L224.92 144.2ZM224.52 147.08L223.54 147.9C224.76 150.78 227.4 154.4 231.52 156.18C231.72 155.8 232.14 155.22 232.46 154.94C228.36 153.38 225.68 149.94 224.52 147.08ZM214.78 153.08V160.34H216.04V153.08H214.78ZM216.12 146.36H219.88V149.88H216.12V146.36ZM214.78 145.04V151.2H221.28V145.04H214.78ZM217.6 150.54V159.68H218.96V150.54H217.6ZM213.74 160.18L214.02 161.64C216.12 161.12 219 160.42 221.74 159.74L221.6 158.4C218.72 159.08 215.72 159.78 213.74 160.18ZM218.08 154.1V155.44H221.46V154.1H218.08ZM236.9 145.62V147.06H249.84V145.62H236.9ZM236.9 150.28V151.7H249.82V150.28H236.9ZM236.8 155.06V156.48H249.86V155.06H236.8ZM236.06 145.62V152.86C236.06 155.68 235.84 159.24 233.64 161.72C233.96 161.92 234.56 162.42 234.8 162.72C237.18 160.06 237.54 155.92 237.54 152.88V145.62H236.06ZM249.24 145.62V160.56C249.24 160.94 249.1 161.06 248.72 161.08C248.34 161.08 246.98 161.1 245.56 161.04C245.78 161.44 246.02 162.1 246.08 162.5C247.98 162.52 249.14 162.5 249.82 162.26C250.48 162 250.72 161.54 250.72 160.56V145.62H249.24ZM242.34 146.16V162.42H243.86V146.16H242.34ZM263.74 158.86C266.4 159.88 269.08 161.26 270.68 162.48L271.6 161.32C269.96 160.12 267.14 158.74 264.48 157.78L263.74 158.86ZM261.56 144.54C262.1 145.38 262.68 146.56 262.92 147.26L264.46 146.74C264.22 146.02 263.6 144.9 263.06 144.08L261.56 144.54ZM254.8 146.48V150.54H256.28V147.9H269.68V150.54H271.22V146.48H254.8ZM263.06 148.9C262.84 155.8 262.5 159.58 254.6 161.24C254.92 161.56 255.32 162.14 255.46 162.54C263.76 160.64 264.38 156.32 264.62 148.9H263.06ZM254.42 155.9V157.2H271.68V155.9H254.42ZM257.8 149.88C258.88 150.52 260.14 151.5 260.74 152.2L261.68 151.12C261.06 150.42 259.78 149.5 258.7 148.92L257.8 149.88ZM255.8 152.98C256.92 153.6 258.28 154.6 258.92 155.32L259.82 154.2C259.16 153.5 257.82 152.56 256.68 151.98L255.8 152.98ZM276.04 146.38H279.58V149.92H276.04V146.38ZM274.72 145.08V151.22H280.94V145.08H274.72ZM277.34 150.56V159.84H278.68V150.56H277.34ZM274.74 153.08V160.5H275.98V153.08H274.74ZM273.74 160.2L274.06 161.62C276.18 161.08 279.08 160.34 281.84 159.62L281.68 158.3C278.76 159.04 275.72 159.78 273.74 160.2ZM277.94 154.1V155.42H281.44V154.1H277.94ZM281.74 147.86L281.88 149.18L291.5 148.2L291.38 146.9L281.74 147.86ZM282.22 150.98L282.36 152.24L291.16 151.28L291 150.02L282.22 150.98ZM281.76 154.3L281.92 155.62L292.22 154.46L292.06 153.16L281.76 154.3ZM284.88 144.24C284.94 154.1 286.36 162.6 290.28 162.6C291.66 162.6 292.14 161.8 292.42 159.12C292.06 158.98 291.56 158.68 291.26 158.34C291.14 160.44 290.92 161.14 290.4 161.14C287.94 161.14 286.32 153.72 286.4 144.24H284.88ZM287.42 145.06C288.42 145.56 289.66 146.3 290.28 146.88L291.14 145.86C290.52 145.3 289.26 144.58 288.26 144.16L287.42 145.06ZM290.04 155.32C288.2 158 284.72 160.12 280.94 161.26C281.28 161.6 281.66 162.12 281.86 162.5C285.76 161.2 289.32 158.88 291.34 155.88L290.04 155.32ZM296.14 163.14C298.24 162.42 299.6 160.78 299.6 158.62C299.6 157.22 299 156.3 297.88 156.3C297.08 156.3 296.36 156.8 296.36 157.74C296.36 158.7 297.04 159.18 297.86 159.18C298.24 159.18 298.64 159.08 298.92 158.72L297.84 157.2L298.22 158.9C298.22 160.4 297.32 161.42 295.68 162.1L296.14 163.14ZM319.82 153.74V155.14H332.18V153.74H319.82ZM327.96 152.14V160.76C327.96 161.06 327.88 161.12 327.56 161.14C327.2 161.16 326.08 161.16 324.84 161.12C325.06 161.56 325.28 162.18 325.34 162.6C326.92 162.6 327.98 162.58 328.62 162.34C329.26 162.1 329.44 161.66 329.44 160.78V152.14H327.96ZM329.98 144.2C327.56 144.96 323.3 145.66 319.64 146.08C319.82 146.4 320 146.94 320.06 147.28C323.78 146.9 328.16 146.22 331.02 145.36L329.98 144.2ZM320.36 148.32C320.98 149.48 321.56 151.06 321.76 152.02L323.1 151.54C322.9 150.56 322.26 149.04 321.62 147.9L320.36 148.32ZM324.28 147.54C324.74 148.72 325.12 150.24 325.18 151.2L326.6 150.82C326.52 149.88 326.1 148.4 325.62 147.22L324.28 147.54ZM321.42 156.62C322.46 157.68 323.6 159.2 324.04 160.22L325.34 159.46C324.84 158.46 323.7 156.98 322.66 155.96L321.42 156.62ZM317.54 144.22V162.6H318.98V144.22H317.54ZM313.5 157.3L314.26 158.84C315.52 158 317 156.98 318.42 155.98L317.94 154.72C316.3 155.72 314.62 156.72 313.5 157.3ZM313.72 147.34C314.64 148.64 315.6 150.38 315.96 151.52L317.26 150.82C316.88 149.72 315.9 148.02 314.94 146.76L313.72 147.34ZM330.46 146.98C329.62 148.54 328.1 150.6 326.98 151.9L328.14 152.56C329.28 151.26 330.74 149.34 331.82 147.66L330.46 146.98ZM347.68 154.34C348.94 155.94 350.34 158.14 350.92 159.5L352.36 158.8C351.72 157.42 350.28 155.3 349 153.74L347.68 154.34ZM342.18 144.24V151.38H343.72V144.24H342.18ZM334.14 150.9V152.34H351.9V150.9H334.14ZM336.12 146.62V148.06H350.32V146.62H336.12ZM344.7 151.68V160.74C344.7 161 344.62 161.08 344.3 161.08C344 161.1 342.96 161.12 341.82 161.08C342.04 161.52 342.28 162.16 342.36 162.58C343.86 162.58 344.84 162.56 345.46 162.32C346.08 162.06 346.26 161.64 346.26 160.76V151.68H344.7ZM336.84 153.84C336.26 155.44 335.02 157.36 333.62 158.56C333.98 158.76 334.52 159.14 334.82 159.42C336.26 158.12 337.58 156.06 338.36 154.24L336.84 153.84ZM340.2 151.5V153.52C340.2 155.98 339.88 159.2 336.18 161.64C336.54 161.9 337.08 162.4 337.3 162.74C341.3 160.04 341.72 156.38 341.72 153.54V151.5H340.2ZM360.66 145.24V152.08C360.66 155.1 360.46 159.1 358.2 161.88C358.56 162.02 359.2 162.4 359.46 162.64C361.78 159.76 362.1 155.32 362.1 152.08V145.24H360.66ZM363.56 151.98V160.22C363.56 162 364.08 162.48 366.04 162.48C366.44 162.48 369.28 162.48 369.7 162.48C371.52 162.48 371.94 161.64 372.12 158.58C371.74 158.48 371.12 158.24 370.8 158C370.7 160.64 370.56 161.12 369.62 161.12C369 161.12 366.62 161.12 366.16 161.12C365.18 161.12 364.98 160.96 364.98 160.22V151.98H363.56ZM369.98 152.88C368.64 154.06 366.2 155.34 364.02 156.28C364.22 156.58 364.44 157.06 364.54 157.34C366.84 156.42 369.4 155.2 371.14 153.94L369.98 152.88ZM361.32 145.24V146.62H369.64V149.54H361.32V150.94H371.1V145.24H361.32ZM354.76 145.52C356.1 146.1 357.72 147.04 358.5 147.76L359.38 146.5C358.56 145.82 356.92 144.94 355.58 144.42L354.76 145.52ZM353.76 151.04C355.06 151.58 356.64 152.52 357.42 153.2L358.26 151.94C357.44 151.28 355.84 150.42 354.56 149.92L353.76 151.04ZM354.34 161.32L355.66 162.28C356.76 160.4 358.08 157.88 359.06 155.76L357.9 154.84C356.82 157.12 355.34 159.78 354.34 161.32ZM380.26 150H383.8V151.6H380.26V150ZM380.26 147.36H383.8V148.94H380.26V147.36ZM379.02 146.24V152.72H385.08V146.24H379.02ZM378.08 154.22V155.5H385.94V154.22H378.08ZM386.74 148.06V149.44H392.24V148.06H386.74ZM380.68 156.76V158H384.2V156.76H380.68ZM381.26 152.54V154.84H382.66V152.54H381.26ZM381.46 144.2C381.32 144.94 381 146.06 380.74 146.8L382.04 147.04C382.34 146.36 382.72 145.36 383.06 144.42L381.46 144.2ZM383.64 156.76V156.96C383.54 159.74 383.42 160.74 383.18 161.02C383.08 161.16 382.94 161.18 382.66 161.18C382.4 161.18 381.76 161.18 381.04 161.1C381.24 161.44 381.36 161.96 381.4 162.34C382.14 162.38 382.9 162.38 383.28 162.34C383.74 162.3 384.06 162.18 384.32 161.86C384.7 161.44 384.82 160.28 384.96 157.32C384.98 157.12 384.98 156.76 384.98 156.76H383.64ZM389.94 148.84C389.4 154.88 388.06 159.18 384.4 161.68C384.7 161.92 385.26 162.42 385.48 162.66C389.2 159.84 390.68 155.42 391.32 148.96L389.94 148.84ZM387.1 148.94L386.14 149.82C386.62 154 387.76 159.66 391.5 162.6C391.72 162.24 392.18 161.68 392.46 161.42C388.72 158.78 387.58 153.26 387.1 148.94ZM374.62 145.48C375.74 146.08 377.06 147.02 377.68 147.72L378.6 146.54C377.94 145.86 376.6 144.98 375.5 144.42L374.62 145.48ZM373.78 150.84C374.92 151.4 376.28 152.28 376.92 152.96L377.82 151.74C377.14 151.1 375.76 150.26 374.64 149.76L373.78 150.84ZM374.16 161.58L375.5 162.38C376.38 160.54 377.4 158.08 378.14 155.98L376.94 155.18C376.12 157.42 374.98 160.04 374.16 161.58ZM386.84 144.2C386.44 147.46 385.72 150.62 384.44 152.66C384.74 152.92 385.28 153.48 385.5 153.74C386.9 151.46 387.76 148.02 388.24 144.42L386.84 144.2ZM380.3 155.02V156.2C380.3 157.7 380 160.08 377.44 161.86C377.76 162.08 378.24 162.46 378.46 162.74C381.24 160.76 381.58 158.08 381.58 156.24V155.02H380.3ZM401.12 152.9L399.84 153.3C401.88 158.22 405.66 161.42 411.34 162.66C411.54 162.26 411.96 161.64 412.28 161.34C406.72 160.26 402.92 157.28 401.12 152.9ZM408.26 152.34V152.6C406.76 157.42 402.46 160.22 397.78 161.36C398.08 161.68 398.44 162.26 398.6 162.64C403.6 161.28 408.06 158.36 409.88 152.74L408.86 152.28L408.56 152.34H408.26ZM400.68 152.34L400.26 153.78H408.5V152.34H400.68ZM402.06 144.14C401.18 151.26 398.9 156.66 393.6 159.86C393.96 160.14 394.5 160.7 394.72 161.02C400.36 157.56 402.7 151.98 403.72 144.4L402.06 144.14ZM406.44 145.2C407.32 146.14 408.44 147.42 409 148.18L410.2 147.36C409.64 146.62 408.48 145.38 407.62 144.5L406.44 145.2ZM395.88 150.54C395.88 150.18 397.08 149.68 397.08 149.68V149.66C397.76 148.54 398.56 146.76 399.06 145.06L397.44 144.78C397.12 146.32 396.34 147.92 396.12 148.34C395.88 148.78 395.64 149.06 395.38 149.14C395.54 149.5 395.78 150.22 395.88 150.54ZM395.88 150.54C396.08 150.32 396.74 150.2 398 150.2H411.6V148.76H396.88L395.88 149.36V150.54ZM415.18 151.32V152.7H420.26V151.32H415.18ZM414.38 145.96V147.36H419.74V153.46H421.18V145.96H414.38ZM414.38 151.32V157.72C414.38 159.42 414.88 159.86 416.66 159.86C417.04 159.86 419.36 159.86 419.76 159.86C421.32 159.86 421.74 159.22 421.92 156.68C421.5 156.58 420.88 156.34 420.56 156.08C420.48 158.12 420.36 158.44 419.64 158.44C419.14 158.44 417.2 158.44 416.82 158.44C415.98 158.44 415.84 158.34 415.84 157.7V151.32H414.38ZM424 147.88V149.3H432.24V147.88H424ZM424.52 144.22C423.88 147.54 422.68 150.66 420.92 152.64C421.3 152.86 421.96 153.32 422.26 153.58C424 151.42 425.3 148.1 426.08 144.48L424.52 144.22ZM429.2 148.44C428.24 155.36 425.9 159.28 420.18 161.34C420.48 161.68 420.94 162.34 421.1 162.68C427.04 160.24 429.6 156.08 430.72 148.62L429.2 148.44ZM424.6 149.16L423.22 149.42C424.44 155.66 426.78 160.42 431.42 162.6C431.66 162.18 432.14 161.6 432.48 161.3C428.02 159.42 425.68 154.84 424.6 149.16ZM16.42 173.2V191.58H17.94V173.2H16.42ZM14.58 177C14.44 178.62 14.08 180.82 13.54 182.16L14.72 182.56C15.26 181.12 15.62 178.8 15.72 177.18L14.58 177ZM18.08 176.88C18.64 178 19.24 179.46 19.46 180.34L20.58 179.78C20.36 178.92 19.74 177.5 19.12 176.42L18.08 176.88ZM22.16 174.14C21.72 176.84 20.92 179.56 19.74 181.32C20.12 181.48 20.8 181.8 21.1 182.02C22.22 180.14 23.1 177.3 23.62 174.38L22.16 174.14ZM22.18 177.44L21.72 178.88H31.48V177.44H22.18ZM25.42 173.28V190.28H26.92V173.28H25.42ZM21.16 183.04V184.46H31.04V183.04H21.16ZM19.66 189.46V190.9H31.96V189.46H19.66ZM34.62 178.02V179.52H50.06V178.02H34.62ZM49.44 178.02V178.34C49.18 186.02 48.86 188.98 48.22 189.62C47.98 189.86 47.76 189.92 47.34 189.92C46.84 189.92 45.58 189.92 44.24 189.78C44.52 190.24 44.72 190.9 44.76 191.34C45.98 191.42 47.26 191.44 47.96 191.38C48.68 191.32 49.16 191.14 49.6 190.58C50.4 189.66 50.68 186.82 50.98 178.8C51 178.58 51 178.02 51 178.02H49.44ZM41.2 173.24V175.62C41.2 179.76 40.78 185.88 34.08 190.22C34.46 190.48 35.02 190.98 35.26 191.34C42.24 186.7 42.72 180.1 42.72 175.62V173.24H41.2ZM36.22 174.32C37.02 175.26 37.94 176.56 38.32 177.36L39.68 176.72C39.26 175.9 38.32 174.64 37.52 173.76L36.22 174.32ZM42.96 182.6C43.98 183.8 45.18 185.48 45.68 186.54L47 185.84C46.48 184.78 45.26 183.16 44.2 181.98L42.96 182.6ZM55.66 174.16V175.54H59.78V174.16H55.66ZM55.7 178.86V180.24H59.66V178.86H55.7ZM55.68 183.66V185.06H59.68V183.66H55.68ZM55.04 174.16V181.32C55.04 184.24 54.94 188.22 53.62 191.02C53.96 191.16 54.56 191.48 54.82 191.72C56.18 188.78 56.38 184.38 56.38 181.3V174.16H55.04ZM59 174.16V189.78C59 190.04 58.94 190.12 58.72 190.12C58.48 190.12 57.78 190.14 57 190.12C57.2 190.5 57.4 191.14 57.44 191.54C58.6 191.54 59.3 191.52 59.78 191.26C60.24 191.02 60.4 190.58 60.4 189.8V174.16H59ZM65.54 173.22V176.76H67.04V173.22H65.54ZM67.78 178.68C69 179.88 70.42 181.58 71.06 182.68L72.32 181.92C71.66 180.82 70.18 179.18 68.96 178.02L67.78 178.68ZM63.44 178.12C62.74 179.62 61.6 181.14 60.38 182.16C60.74 182.36 61.34 182.8 61.6 183.06C62.8 181.94 64.08 180.2 64.9 178.5L63.44 178.12ZM60.84 176.08V177.46H72.14V176.08H60.84ZM64.2 181.72L62.88 182.08C64.42 186.58 67.28 190.04 71.46 191.58C71.68 191.2 72.12 190.62 72.46 190.32C68.44 188.98 65.54 185.74 64.2 181.72ZM68.16 181.62C67.12 185.68 64.52 188.68 60.52 190.5C60.82 190.74 61.28 191.28 61.48 191.6C65.68 189.62 68.34 186.42 69.58 181.96L68.16 181.62ZM73.96 175.48C75.08 176.34 76.42 177.62 77.06 178.46L78.1 177.38C77.46 176.54 76.08 175.36 74.96 174.52L73.96 175.48ZM73.74 189.14L75.04 189.92C75.9 188.12 76.96 185.68 77.74 183.62L76.56 182.84C75.74 185.06 74.56 187.62 73.74 189.14ZM78.68 173.22V177.72C78.68 179.1 79.06 179.48 80.62 179.48C80.92 179.48 82.74 179.48 83.08 179.48C84.26 179.48 84.64 179 84.76 177.24C84.4 177.16 83.86 176.96 83.58 176.74C83.52 178.08 83.42 178.26 82.92 178.26C82.54 178.26 81.04 178.26 80.76 178.26C80.14 178.26 80.04 178.16 80.04 177.72V173.22H78.68ZM83.4 174.04C82.42 174.6 80.72 175.22 79.3 175.66C79.44 175.96 79.62 176.38 79.68 176.64C81.16 176.26 82.94 175.7 84.22 175.08L83.4 174.04ZM79.42 179.5C79.1 180.96 78.54 182.42 77.76 183.42C78.08 183.6 78.62 183.96 78.86 184.16C79.64 183.06 80.3 181.44 80.7 179.78L79.42 179.5ZM79.56 181.2L79.1 182.46H84.24V181.2H79.56ZM78.04 184.8V186.1H84.58V184.8H78.04ZM84.88 173.8V175.04H90.92V173.8H84.88ZM84.62 180.06V181.36H91.32V180.06H84.62ZM80.8 181.72V184.3C80.8 186.08 80.54 188.88 77.44 190.7C77.76 190.94 78.18 191.34 78.38 191.64C81.76 189.5 82.12 186.48 82.12 184.32V181.72H80.8ZM80.88 187.38C81.76 188.12 82.78 189.22 83.24 189.92L84.14 188.9C83.64 188.22 82.6 187.2 81.72 186.48L80.88 187.38ZM90.48 173.8V174.08C89.86 175.18 88.62 176.66 87.52 177.56C87.78 177.74 88.18 178.16 88.4 178.44C89.64 177.42 91.08 175.82 92.02 174.36L91.08 173.72L90.8 173.8H90.48ZM85.4 177.02C86.9 177.82 88.72 179.06 89.6 179.94L90.5 178.88C89.58 178 87.74 176.82 86.24 176.08L85.4 177.02ZM90.96 180.06V180.26C90.82 181.24 90.56 182.4 90.36 183.16L91.4 183.44C91.68 182.6 91.98 181.32 92.2 180.22L91.36 180.02L91.14 180.06H90.96ZM87.7 180.62V189.9L89 190.76V180.62H87.7ZM88.28 184.64V185.9H91.92V184.64H88.28ZM86.12 185.8L85.26 186.14C86.2 190.46 88.08 191.3 90.42 191.3H92C92.06 190.94 92.22 190.32 92.42 190C91.98 190 90.78 190 90.48 190C88.66 190 86.92 189.4 86.12 185.8ZM85.22 182.86C85.16 186.18 84.84 189.08 83.3 190.7C83.58 190.9 83.98 191.32 84.16 191.6C85.88 189.76 86.26 186.58 86.38 182.86H85.22ZM94.46 177.08V178.46H111.68V177.08H94.46ZM94.38 185.02V186.44H111.78V185.02H94.38ZM107.9 173.62C107.38 174.54 106.42 175.88 105.66 176.7L106.92 177.18C107.7 176.4 108.68 175.24 109.5 174.14L107.9 173.62ZM102.2 173.22V182.42H103.7V173.22H102.2ZM96.64 174.36C97.5 175.22 98.42 176.42 98.82 177.22L100.16 176.54C99.76 175.74 98.8 174.58 97.92 173.76L96.64 174.36ZM104.98 183.34C106.18 183.84 107.7 184.58 108.44 185.12L109.38 184.26C108.56 183.74 107.02 183.04 105.86 182.58L104.98 183.34ZM102.28 182.86C101.84 186.96 100.74 189.22 93.92 190.24C94.2 190.56 94.56 191.22 94.7 191.62C101.94 190.4 103.32 187.64 103.86 182.86H102.28ZM101.64 177.64C100.14 179.66 97.08 181.38 94.04 182.1C94.38 182.42 94.82 182.98 95.04 183.38C98.12 182.48 101.2 180.54 102.88 178.16L101.64 177.64ZM104.22 177.6L103 178.08C104.66 180.5 107.76 182.34 111.02 183.16C111.22 182.76 111.64 182.18 111.96 181.9C108.76 181.24 105.72 179.64 104.22 177.6ZM103.94 185.48L102.56 185.78C103.92 189.28 106.68 191 111.32 191.6C111.5 191.16 111.92 190.5 112.26 190.16C107.82 189.78 105.08 188.34 103.94 185.48ZM122.52 177.52V178.96H132.16V177.52H122.52ZM128.52 173.24V189.58C128.52 189.94 128.4 190.04 128.02 190.06C127.66 190.06 126.36 190.08 125.06 190.04C125.26 190.48 125.5 191.16 125.6 191.58C127.3 191.58 128.48 191.56 129.16 191.3C129.82 191.06 130.08 190.6 130.08 189.56V173.24H128.52ZM128.36 178.18C126.96 181.56 124.08 185.34 121.36 187.2C121.74 187.5 122.2 188.02 122.44 188.42C125.2 186.32 128.08 182.42 129.56 178.9L128.36 178.18ZM114.2 177.5V178.94H121.78V177.5H114.2ZM117.54 173.2V191.58H119.04V173.2H117.54ZM117.46 178.38C116.76 181.32 115.12 184.72 113.5 186.52C113.78 186.88 114.18 187.5 114.34 187.94C116.06 185.92 117.7 182.02 118.52 178.76L117.46 178.38ZM118.9 179.36L118.12 180.12C118.84 180.96 120.7 183.46 121.34 184.52L122.3 183.22C121.8 182.58 119.54 179.94 118.9 179.36ZM137.16 173.28V191.58H138.56V173.28H137.16ZM133.94 179.92V181.34H141.84V179.92H133.94ZM136.94 180.66C136.3 183 134.9 186.04 133.62 187.58C133.86 187.98 134.22 188.62 134.38 189.06C135.72 187.24 137.14 183.78 137.84 181.06L136.94 180.66ZM138.52 181.6L137.78 182.22C138.44 183.08 140.08 185.7 140.58 186.78L141.58 185.58C141.12 184.92 139.08 182.2 138.52 181.6ZM134.08 174.76C134.6 176.16 135.06 178.02 135.16 179.22L136.34 178.9C136.2 177.7 135.74 175.88 135.18 174.48L134.08 174.76ZM140.54 174.4C140.26 175.76 139.66 177.76 139.22 178.96L140.18 179.26C140.72 178.14 141.34 176.26 141.86 174.74L140.54 174.4ZM148.3 173.22V191.6H149.72V173.22H148.3ZM141.8 185.94L142.04 187.34L152.32 185.48L152.08 184.1L141.8 185.94ZM143.3 175.66C144.46 176.38 145.84 177.46 146.48 178.24L147.28 177.08C146.62 176.34 145.24 175.32 144.08 174.64L143.3 175.66ZM142.28 180.7C143.48 181.36 144.92 182.38 145.62 183.1L146.38 181.92C145.66 181.2 144.18 180.26 142.98 179.64L142.28 180.7ZM156.14 192.14C158.24 191.42 159.6 189.78 159.6 187.62C159.6 186.22 159 185.3 157.88 185.3C157.08 185.3 156.36 185.8 156.36 186.74C156.36 187.7 157.04 188.18 157.86 188.18C158.24 188.18 158.64 188.08 158.92 187.72L157.84 186.2L158.22 187.9C158.22 189.4 157.32 190.42 155.68 191.1L156.14 192.14ZM177.54 179.02V180.38H188.42V179.02H177.54ZM174.12 182.7V184.12H191.86V182.7H174.12ZM179.38 183.68C179.04 186.94 178.18 189.24 173.68 190.36C174 190.66 174.4 191.26 174.56 191.64C179.44 190.28 180.56 187.58 180.98 183.68H179.38ZM184.44 183.56V189.2C184.44 190.8 184.92 191.26 186.76 191.26C187.16 191.26 189.46 191.26 189.86 191.26C191.46 191.26 191.9 190.56 192.06 187.82C191.66 187.7 191.02 187.46 190.7 187.22C190.64 189.52 190.5 189.88 189.74 189.88C189.22 189.88 187.32 189.88 186.92 189.88C186.08 189.88 185.94 189.78 185.94 189.18V183.56H184.44ZM182.16 173.22V176.4H183.74V173.22H182.16ZM174.58 175.36V179.6H176.1V176.78H189.82V179.6H191.4V175.36H174.58ZM202.92 174.66C204.72 177.18 208.22 180.16 211.32 181.94C211.58 181.5 211.94 181 212.32 180.62C209.18 179.06 205.68 176.14 203.6 173.18H202.06C200.52 175.78 197.18 178.96 193.74 180.86C194.06 181.18 194.48 181.7 194.68 182.06C198.06 180.08 201.28 177.1 202.92 174.66ZM196.16 185.06V186.4H209.8V185.06H196.16ZM197.06 180.58V181.94H209.02V180.58H197.06ZM194.52 189.7V191.06H211.56V189.7H194.52ZM202.14 181.14V190.46H203.72V181.14H202.14ZM216.72 183.14V191.6H218.18V184.44H227.74V191.52H229.26V183.14H216.72ZM217.62 186.36V187.52H228.36V186.36H217.62ZM214.8 174.98V176.18H221.98V174.98H214.8ZM223.5 174.98V176.18H231.16V174.98H223.5ZM214.2 177.94V179.18H222.32V177.94H214.2ZM223.1 177.94V179.18H231.8V177.94H223.1ZM217.6 189.56V190.86H228.32V189.56H217.6ZM217.88 173.2V176.16C217.88 178.1 217.58 180.92 213.86 182.78C214.18 183.02 214.64 183.5 214.86 183.8C218.78 181.64 219.3 178.5 219.3 176.16V173.2H217.88ZM226.48 173.2V176.38C226.48 178.12 226.14 180.56 222.54 182.06C222.86 182.32 223.3 182.78 223.5 183.12C227.34 181.32 227.92 178.56 227.92 176.4V173.2H226.48ZM228 178.22L226.82 178.56C227.62 180.8 229.22 182.7 231.34 183.62C231.54 183.26 231.96 182.74 232.3 182.48C230.28 181.76 228.74 180.12 228 178.22ZM217.7 179.94C218.86 180.78 220.38 181.94 221.14 182.64L222.12 181.62C221.32 180.94 219.78 179.84 218.62 179.06L217.7 179.94ZM239.46 180.08L239.68 181.5L252.08 179.94L251.86 178.52L239.46 180.08ZM247.28 174.34C248.46 175.34 249.88 176.76 250.52 177.66L251.68 176.86C251 175.94 249.58 174.58 248.38 173.62L247.28 174.34ZM239.24 173.42C237.92 176.58 235.72 179.66 233.4 181.6C233.68 181.94 234.12 182.7 234.28 183.06C236.78 180.82 239.16 177.38 240.66 173.88L239.24 173.42ZM236.98 178.74V191.58H238.5V177.26V177.24L236.98 178.74ZM243.94 173.5C244.38 183.72 245.7 191.28 250.2 191.6C251.24 191.64 252.06 190.62 252.48 187.14C252.2 187.02 251.54 186.64 251.24 186.34C251.04 188.68 250.7 189.86 250.14 189.82C247.12 189.54 245.74 182.48 245.46 173.5H243.94ZM254.08 178.34V179.84H260.1V178.34H254.08ZM262.24 173.26V189.5C262.24 189.88 262.08 190 261.7 190.02C261.28 190.02 260 190.04 258.56 189.98C258.8 190.44 259.1 191.18 259.16 191.62C261.02 191.62 262.18 191.58 262.86 191.3C263.52 191.04 263.8 190.56 263.8 189.5V173.26H262.24ZM259.58 178.34V178.68C258.74 183.26 256.44 186.68 253.58 188.48C253.94 188.72 254.54 189.32 254.8 189.68C257.74 187.68 260.16 183.94 261.18 178.66L260.16 178.28L259.9 178.34H259.58ZM263.72 176.52L262.52 176.8C264 182.72 266.72 187.82 271.28 190.08C271.54 189.62 272.06 189.02 272.44 188.72C267.96 186.76 265.1 181.9 263.72 176.52ZM270.24 176.46C268.92 178.24 266.6 180.58 264.9 181.96L265.96 182.8C267.7 181.46 269.98 179.26 271.62 177.44L270.24 176.46ZM280.66 174.24V181.08C280.66 184.1 280.46 188.1 278.2 190.88C278.56 191.02 279.2 191.4 279.46 191.64C281.78 188.76 282.1 184.32 282.1 181.08V174.24H280.66ZM283.56 180.98V189.22C283.56 191 284.08 191.48 286.04 191.48C286.44 191.48 289.28 191.48 289.7 191.48C291.52 191.48 291.94 190.64 292.12 187.58C291.74 187.48 291.12 187.24 290.8 187C290.7 189.64 290.56 190.12 289.62 190.12C289 190.12 286.62 190.12 286.16 190.12C285.18 190.12 284.98 189.96 284.98 189.22V180.98H283.56ZM289.98 181.88C288.64 183.06 286.2 184.34 284.02 185.28C284.22 185.58 284.44 186.06 284.54 186.34C286.84 185.42 289.4 184.2 291.14 182.94L289.98 181.88ZM281.32 174.24V175.62H289.64V178.54H281.32V179.94H291.1V174.24H281.32ZM274.76 174.52C276.1 175.1 277.72 176.04 278.5 176.76L279.38 175.5C278.56 174.82 276.92 173.94 275.58 173.42L274.76 174.52ZM273.76 180.04C275.06 180.58 276.64 181.52 277.42 182.2L278.26 180.94C277.44 180.28 275.84 179.42 274.56 178.92L273.76 180.04ZM274.34 190.32L275.66 191.28C276.76 189.4 278.08 186.88 279.06 184.76L277.9 183.84C276.82 186.12 275.34 188.78 274.34 190.32ZM302.74 176.56L302.04 178H312.22V176.56H302.74ZM305.24 180.9V182.28H311.76V180.9H305.24ZM305.22 185.3V186.72H312.04V185.3H305.22ZM304.48 177.02V191.6H306.02V177.02H304.48ZM303.5 173.44C302.52 176.38 300.9 179.3 299.08 181.16C299.42 181.4 300.02 181.94 300.24 182.2C302.08 180.14 303.82 177 304.96 173.82L303.5 173.44ZM298.7 173.28C297.56 176.32 295.7 179.32 293.7 181.26C293.98 181.62 294.44 182.42 294.58 182.78C296.76 180.54 298.82 177.12 300.14 173.74L298.7 173.28ZM296.56 178.44V191.58H298.08V176.96L298.04 176.94L296.56 178.44ZM314.62 178.02V179.52H330.06V178.02H314.62ZM329.44 178.02V178.34C329.18 186.02 328.86 188.98 328.22 189.62C327.98 189.86 327.76 189.92 327.34 189.92C326.84 189.92 325.58 189.92 324.24 189.78C324.52 190.24 324.72 190.9 324.76 191.34C325.98 191.42 327.26 191.44 327.96 191.38C328.68 191.32 329.16 191.14 329.6 190.58C330.4 189.66 330.68 186.82 330.98 178.8C331 178.58 331 178.02 331 178.02H329.44ZM321.2 173.24V175.62C321.2 179.76 320.78 185.88 314.08 190.22C314.46 190.48 315.02 190.98 315.26 191.34C322.24 186.7 322.72 180.1 322.72 175.62V173.24H321.2ZM316.22 174.32C317.02 175.26 317.94 176.56 318.32 177.36L319.68 176.72C319.26 175.9 318.32 174.64 317.52 173.76L316.22 174.32ZM322.96 182.6C323.98 183.8 325.18 185.48 325.68 186.54L327 185.84C326.48 184.78 325.26 183.16 324.2 181.98L322.96 182.6ZM343.6 189.52V190.84H350.2V189.52H343.6ZM344.58 175.26V176.56H349.86V175.26H344.58ZM343.02 184.36V191.56H344.4V185.66H349.44V191.5H350.88V184.36H343.02ZM349.32 175.26V175.52C348.02 179.7 344.48 182.92 340.94 184.28C341.24 184.56 341.64 185.08 341.82 185.42C345.62 183.8 349.28 180.52 350.82 175.6L349.86 175.2L349.58 175.26H349.32ZM344.92 173.2C344.16 175.66 342.78 178 341.14 179.5C341.5 179.72 342.08 180.2 342.32 180.46C343.98 178.8 345.46 176.26 346.36 173.54L344.92 173.2ZM344.52 176.08L343.54 176.9C344.76 179.78 347.4 183.4 351.52 185.18C351.72 184.8 352.14 184.22 352.46 183.94C348.36 182.38 345.68 178.94 344.52 176.08ZM334.78 182.08V189.34H336.04V182.08H334.78ZM336.12 175.36H339.88V178.88H336.12V175.36ZM334.78 174.04V180.2H341.28V174.04H334.78ZM337.6 179.54V188.68H338.96V179.54H337.6ZM333.74 189.18L334.02 190.64C336.12 190.12 339 189.42 341.74 188.74L341.6 187.4C338.72 188.08 335.72 188.78 333.74 189.18ZM338.08 183.1V184.44H341.46V183.1H338.08ZM354.84 175.14V176.42H371.22V175.14H354.84ZM355.48 189.8V191.06H370.62V189.8H355.48ZM358.78 177.74V178.88H367.2V177.74H358.78ZM358.78 180.26V181.4H367.2V180.26H358.78ZM353.9 182.84V184.1H372.08V182.84H353.9ZM358.1 186.42V187.66H367.92V186.42H358.1ZM357.88 173.22V183.54H359.38V173.22H357.88ZM366.68 173.22V183.54H368.18V173.22H366.68ZM362.18 184.74V190.5H363.72V184.74H362.18ZM358.94 183.18C357.86 184.94 355.72 186.66 353.7 187.46C354.04 187.74 354.46 188.26 354.68 188.6C356.78 187.62 358.98 185.72 360.2 183.66L358.94 183.18ZM367.12 183.18L365.94 183.64C367.1 185.6 369.22 187.46 371.34 188.36C371.56 188 372 187.48 372.34 187.2C370.26 186.46 368.18 184.88 367.12 183.18ZM382.52 177.52V178.96H392.16V177.52H382.52ZM388.52 173.24V189.58C388.52 189.94 388.4 190.04 388.02 190.06C387.66 190.06 386.36 190.08 385.06 190.04C385.26 190.48 385.5 191.16 385.6 191.58C387.3 191.58 388.48 191.56 389.16 191.3C389.82 191.06 390.08 190.6 390.08 189.56V173.24H388.52ZM388.36 178.18C386.96 181.56 384.08 185.34 381.36 187.2C381.74 187.5 382.2 188.02 382.44 188.42C385.2 186.32 388.08 182.42 389.56 178.9L388.36 178.18ZM374.2 177.5V178.94H381.78V177.5H374.2ZM377.54 173.2V191.58H379.04V173.2H377.54ZM377.46 178.38C376.76 181.32 375.12 184.72 373.5 186.52C373.78 186.88 374.18 187.5 374.34 187.94C376.06 185.92 377.7 182.02 378.52 178.76L377.46 178.38ZM378.9 179.36L378.12 180.12C378.84 180.96 380.7 183.46 381.34 184.52L382.3 183.22C381.8 182.58 379.54 179.94 378.9 179.36ZM397.16 173.28V191.58H398.56V173.28H397.16ZM393.94 179.92V181.34H401.84V179.92H393.94ZM396.94 180.66C396.3 183 394.9 186.04 393.62 187.58C393.86 187.98 394.22 188.62 394.38 189.06C395.72 187.24 397.14 183.78 397.84 181.06L396.94 180.66ZM398.52 181.6L397.78 182.22C398.44 183.08 400.08 185.7 400.58 186.78L401.58 185.58C401.12 184.92 399.08 182.2 398.52 181.6ZM394.08 174.76C394.6 176.16 395.06 178.02 395.16 179.22L396.34 178.9C396.2 177.7 395.74 175.88 395.18 174.48L394.08 174.76ZM400.54 174.4C400.26 175.76 399.66 177.76 399.22 178.96L400.18 179.26C400.72 178.14 401.34 176.26 401.86 174.74L400.54 174.4ZM408.3 173.22V191.6H409.72V173.22H408.3ZM401.8 185.94L402.04 187.34L412.32 185.48L412.08 184.1L401.8 185.94ZM403.3 175.66C404.46 176.38 405.84 177.46 406.48 178.24L407.28 177.08C406.62 176.34 405.24 175.32 404.08 174.64L403.3 175.66ZM402.28 180.7C403.48 181.36 404.92 182.38 405.62 183.1L406.38 181.92C405.66 181.2 404.18 180.26 402.98 179.64L402.28 180.7ZM416.14 192.14C418.24 191.42 419.6 189.78 419.6 187.62C419.6 186.22 419 185.3 417.88 185.3C417.08 185.3 416.36 185.8 416.36 186.74C416.36 187.7 417.04 188.18 417.86 188.18C418.24 188.18 418.64 188.08 418.92 187.72L417.84 186.2L418.22 187.9C418.22 189.4 417.32 190.42 415.68 191.1L416.14 192.14ZM23.74 216.86C26.4 217.88 29.08 219.26 30.68 220.48L31.6 219.32C29.96 218.12 27.14 216.74 24.48 215.78L23.74 216.86ZM21.56 202.54C22.1 203.38 22.68 204.56 22.92 205.26L24.46 204.74C24.22 204.02 23.6 202.9 23.06 202.08L21.56 202.54ZM14.8 204.48V208.54H16.28V205.9H29.68V208.54H31.22V204.48H14.8ZM23.06 206.9C22.84 213.8 22.5 217.58 14.6 219.24C14.92 219.56 15.32 220.14 15.46 220.54C23.76 218.64 24.38 214.32 24.62 206.9H23.06ZM14.42 213.9V215.2H31.68V213.9H14.42ZM17.8 207.88C18.88 208.52 20.14 209.5 20.74 210.2L21.68 209.12C21.06 208.42 19.78 207.5 18.7 206.92L17.8 207.88ZM15.8 210.98C16.92 211.6 18.28 212.6 18.92 213.32L19.82 212.2C19.16 211.5 17.82 210.56 16.68 209.98L15.8 210.98ZM34.1 203.56V204.98H40.72V203.56H34.1ZM34.4 209.34V210.76H40.3V209.34H34.4ZM33.86 217L34.18 218.46C36.08 217.88 38.62 217.14 41.02 216.42L40.82 215.04C38.28 215.8 35.62 216.56 33.86 217ZM36.78 204.2V216.78L38.22 216.48V204.2H36.78ZM41.62 203.18V213.82H43.06V204.5H49.14V213.82H50.62V203.18H41.62ZM46.18 213.5V218.38C46.18 219.72 46.72 220.08 48.1 220.08H49.94C51.68 220.08 51.9 219.28 52.08 216.12C51.7 216.04 51.22 215.84 50.86 215.54C50.76 218.4 50.64 218.94 49.96 218.94H48.3C47.74 218.94 47.58 218.8 47.58 218.24V213.5H46.18ZM45.32 206.22V210.08C45.32 213.2 44.68 216.98 39.64 219.58C39.94 219.82 40.4 220.36 40.58 220.66C45.84 217.94 46.72 213.54 46.72 210.1V206.22H45.32ZM67.68 212.34C68.94 213.94 70.34 216.14 70.92 217.5L72.36 216.8C71.72 215.42 70.28 213.3 69 211.74L67.68 212.34ZM62.18 202.24V209.38H63.72V202.24H62.18ZM54.14 208.9V210.34H71.9V208.9H54.14ZM56.12 204.62V206.06H70.32V204.62H56.12ZM64.7 209.68V218.74C64.7 219 64.62 219.08 64.3 219.08C64 219.1 62.96 219.12 61.82 219.08C62.04 219.52 62.28 220.16 62.36 220.58C63.86 220.58 64.84 220.56 65.46 220.32C66.08 220.06 66.26 219.64 66.26 218.76V209.68H64.7ZM56.84 211.84C56.26 213.44 55.02 215.36 53.62 216.56C53.98 216.76 54.52 217.14 54.82 217.42C56.26 216.12 57.58 214.06 58.36 212.24L56.84 211.84ZM60.2 209.5V211.52C60.2 213.98 59.88 217.2 56.18 219.64C56.54 219.9 57.08 220.4 57.3 220.74C61.3 218.04 61.72 214.38 61.72 211.54V209.5H60.2ZM80.66 203.24V210.08C80.66 213.1 80.46 217.1 78.2 219.88C78.56 220.02 79.2 220.4 79.46 220.64C81.78 217.76 82.1 213.32 82.1 210.08V203.24H80.66ZM83.56 209.98V218.22C83.56 220 84.08 220.48 86.04 220.48C86.44 220.48 89.28 220.48 89.7 220.48C91.52 220.48 91.94 219.64 92.12 216.58C91.74 216.48 91.12 216.24 90.8 216C90.7 218.64 90.56 219.12 89.62 219.12C89 219.12 86.62 219.12 86.16 219.12C85.18 219.12 84.98 218.96 84.98 218.22V209.98H83.56ZM89.98 210.88C88.64 212.06 86.2 213.34 84.02 214.28C84.22 214.58 84.44 215.06 84.54 215.34C86.84 214.42 89.4 213.2 91.14 211.94L89.98 210.88ZM81.32 203.24V204.62H89.64V207.54H81.32V208.94H91.1V203.24H81.32ZM74.76 203.52C76.1 204.1 77.72 205.04 78.5 205.76L79.38 204.5C78.56 203.82 76.92 202.94 75.58 202.42L74.76 203.52ZM73.76 209.04C75.06 209.58 76.64 210.52 77.42 211.2L78.26 209.94C77.44 209.28 75.84 208.42 74.56 207.92L73.76 209.04ZM74.34 219.32L75.66 220.28C76.76 218.4 78.08 215.88 79.06 213.76L77.9 212.84C76.82 215.12 75.34 217.78 74.34 219.32ZM94.3 204.12V205.42H111.68V204.12H94.3ZM102.12 202.2V204.74H103.66V202.2H102.12ZM95.18 211.94V220.62H96.64V213.22H110.04V211.94H95.18ZM109.42 211.94V218.78C109.42 219.06 109.34 219.16 109 219.16C108.66 219.2 107.54 219.2 106.22 219.16C106.44 219.56 106.66 220.16 106.72 220.58C108.38 220.58 109.46 220.56 110.1 220.34C110.74 220.08 110.92 219.64 110.92 218.82V211.94H109.42ZM99.18 214.52V219.76H100.52V214.52H99.18ZM99.9 214.52V215.6H105.46V217.66H99.9V218.74H106.82V214.52H99.9ZM99.06 207.64H106.88V209.58H99.06V207.64ZM97.62 206.54V210.68H108.4V206.54H97.62ZM119.58 204.26V205.58H131.56V204.26H119.58ZM118.72 218.74V220.02H132.16V218.74H118.72ZM120.64 207.46V219.1H122V208.62H128.98V219.1H130.36V207.46H120.64ZM121.58 210.32V211.44H129.3V210.32H121.58ZM121.54 213.14V214.24H129.6V213.14H121.54ZM121.54 215.96V217.08H129.34V215.96H121.54ZM124.96 202.22C124.8 203.9 124.38 206.34 124 207.82L125.32 207.96C125.74 206.56 126.22 204.22 126.56 202.32L124.96 202.22ZM118.26 202.24C117.2 205.28 115.48 208.26 113.62 210.22C113.88 210.56 114.32 211.34 114.46 211.7C116.52 209.44 118.42 206.04 119.66 202.66L118.26 202.24ZM116.16 207.48V220.6H117.56V206.08L117.54 206.06L116.16 207.48ZM134.28 205.54V206.94H141.32V205.54H134.28ZM133.84 210.16V211.6H141.56V210.16H133.84ZM137.14 202.42V208.92C137.14 212.02 137.02 216.64 133.72 219.36C134.08 219.6 134.58 220.1 134.78 220.4C138.28 217.32 138.58 212.42 138.58 208.9V202.42H137.14ZM138.24 212.56L137.32 213.26C138.08 214.14 139.98 216.6 140.64 217.66L141.68 216.54C141.16 215.9 138.9 213.18 138.24 212.56ZM142.5 203.18V213.82H143.96V204.5H149.48V213.82H150.96V203.18H142.5ZM146.7 213.22V218.48C146.7 219.82 147.22 220.18 148.52 220.18H150.14C151.78 220.18 152.02 219.4 152.18 216.26C151.82 216.18 151.3 215.98 150.96 215.7C150.88 218.46 150.76 218.98 150.12 218.98H148.7C148.22 218.98 148.04 218.86 148.04 218.32V213.22H146.7ZM146.04 206.22V210.06C146.04 213.14 145.4 216.92 140.34 219.5C140.64 219.74 141.12 220.3 141.28 220.58C146.54 217.88 147.44 213.5 147.44 210.08V206.22H146.04ZM160.2 203.86V205.14H171.88V203.86H160.2ZM159.78 214.9V216.16H171.86V214.9H159.78ZM163.14 202.22V206.66H164.56V202.22H163.14ZM167.62 202.22V206.66H169.08V202.22H167.62ZM162.42 210.66H169.4V212.1H162.42V210.66ZM162.42 208.16H169.4V209.58H162.42V208.16ZM161.02 207.04V213.24H170.84V207.04H161.02ZM165.12 213.04C164.78 216.36 163.84 218.42 159.24 219.42C159.52 219.72 159.9 220.28 160.02 220.62C165.02 219.4 166.18 216.98 166.6 213.04H165.12ZM166.94 215.32L165.66 215.6C166.6 218.14 168.56 219.84 171.38 220.6C171.58 220.22 172 219.66 172.32 219.36C169.68 218.82 167.76 217.38 166.94 215.32ZM154 206.08V207.46H160V206.08H154ZM156.48 202.2V220.58H157.92V202.2H156.48ZM156.58 206.98C156.08 209.78 154.88 213.28 153.62 215.08C153.88 215.44 154.26 216.1 154.42 216.52C155.74 214.48 156.94 210.5 157.52 207.28L156.58 206.98ZM157.86 208.18L157.1 208.78C157.62 209.64 158.92 212.22 159.36 213.3L160.3 212.2C159.94 211.54 158.3 208.8 157.86 208.18ZM182.72 202.7V217.52C182.72 219.72 183.36 220.32 185.46 220.32C185.92 220.32 189.06 220.32 189.58 220.32C191.66 220.32 192.1 219.18 192.34 215.9C191.9 215.8 191.28 215.52 190.9 215.24C190.76 218.16 190.6 218.9 189.5 218.9C188.82 218.9 186.1 218.9 185.56 218.9C184.44 218.9 184.24 218.66 184.24 217.54V202.7H182.72ZM190.22 206.02C188.52 207.58 185.66 209.44 183.1 210.78C183.32 211.1 183.62 211.62 183.72 211.96C186.36 210.58 189.3 208.96 191.32 207.3L190.22 206.02ZM179.24 202.52C177.92 205.68 175.72 208.72 173.4 210.66C173.7 211.02 174.16 211.8 174.32 212.16C176.8 209.94 179.2 206.52 180.7 203L179.24 202.52ZM176.96 207.74V220.58H178.44V206.3L178.42 206.28L176.96 207.74ZM203.6 218.52V219.84H210.2V218.52H203.6ZM204.58 204.26V205.56H209.86V204.26H204.58ZM203.02 213.36V220.56H204.4V214.66H209.44V220.5H210.88V213.36H203.02ZM209.32 204.26V204.52C208.02 208.7 204.48 211.92 200.94 213.28C201.24 213.56 201.64 214.08 201.82 214.42C205.62 212.8 209.28 209.52 210.82 204.6L209.86 204.2L209.58 204.26H209.32ZM204.92 202.2C204.16 204.66 202.78 207 201.14 208.5C201.5 208.72 202.08 209.2 202.32 209.46C203.98 207.8 205.46 205.26 206.36 202.54L204.92 202.2ZM204.52 205.08L203.54 205.9C204.76 208.78 207.4 212.4 211.52 214.18C211.72 213.8 212.14 213.22 212.46 212.94C208.36 211.38 205.68 207.94 204.52 205.08ZM194.78 211.08V218.34H196.04V211.08H194.78ZM196.12 204.36H199.88V207.88H196.12V204.36ZM194.78 203.04V209.2H201.28V203.04H194.78ZM197.6 208.54V217.68H198.96V208.54H197.6ZM193.74 218.18L194.02 219.64C196.12 219.12 199 218.42 201.74 217.74L201.6 216.4C198.72 217.08 195.72 217.78 193.74 218.18ZM198.08 212.1V213.44H201.46V212.1H198.08ZM216.9 203.62V205.06H229.84V203.62H216.9ZM216.9 208.28V209.7H229.82V208.28H216.9ZM216.8 213.06V214.48H229.86V213.06H216.8ZM216.06 203.62V210.86C216.06 213.68 215.84 217.24 213.64 219.72C213.96 219.92 214.56 220.42 214.8 220.72C217.18 218.06 217.54 213.92 217.54 210.88V203.62H216.06ZM229.24 203.62V218.56C229.24 218.94 229.1 219.06 228.72 219.08C228.34 219.08 226.98 219.1 225.56 219.04C225.78 219.44 226.02 220.1 226.08 220.5C227.98 220.52 229.14 220.5 229.82 220.26C230.48 220 230.72 219.54 230.72 218.56V203.62H229.24ZM222.34 204.16V220.42H223.86V204.16H222.34ZM236.88 214.14C235.2 214.14 233.82 215.5 233.82 217.18C233.82 218.86 235.2 220.22 236.88 220.22C238.56 220.22 239.92 218.86 239.92 217.18C239.92 215.5 238.56 214.14 236.88 214.14ZM236.88 219.2C235.76 219.2 234.84 218.3 234.84 217.18C234.84 216.06 235.76 215.16 236.88 215.16C238 215.16 238.9 216.06 238.9 217.18C238.9 218.3 238 219.2 236.88 219.2Z" fill="black"/>
<rect y="17" width="256" height="20" rx="10" fill="#FFC24D" fill-opacity="0.5"/>
<path d="M16.875 5.4V8.15H26.575V5.4H16.875ZM21.6 9.675V26.2H24.475V9.675H21.6ZM16.675 19.4L17.25 22.275C20.075 21.8 23.8 21.15 27.3 20.525L27.175 17.925C23.35 18.5 19.325 19.075 16.675 19.4ZM17.8 16.25C17.8 15.775 19.35 14.825 19.35 14.825V14.775C20.875 11.775 22.5 7.425 23.4 3.3L20.5 2.75C20.025 6.525 18.675 10.775 18.225 11.775C17.775 12.85 17.425 13.575 16.9 13.725C17.25 14.425 17.675 15.725 17.8 16.25ZM17.8 16.25C18.025 16.025 18.95 15.875 19.75 15.875H26.325V13.175H19.1L17.8 13.875V16.25ZM30.05 14.825V17.625H37.375V14.825H30.05ZM36.65 14.825V15.125C35.525 16.8 33.325 19.775 31.475 22.025L34.025 23.225C35.95 20.875 38.1 18.05 39.675 15.725L37.575 14.675L37.125 14.825H36.65ZM28.5 21.05C31.225 22.575 34.45 24.925 36.025 26.4L37.975 24.05C36.325 22.6 33.175 20.575 30.425 19.15L28.5 21.05ZM32.275 2.8C31.25 7.55 29.5 13.825 28.2 17.625H31.4C32.5 14.05 34.1 7.95 35.25 3.175L32.275 2.8ZM27.525 5.425V8.175H39.275V5.425H27.525ZM26.65 10.1V12.875H40.15V10.1H26.65ZM52.925 3.425V21.4C52.925 24.95 53.85 25.95 57 25.95C57.675 25.95 60.575 25.95 61.3 25.95C64.25 25.95 65.05 24.35 65.425 20.025C64.575 19.85 63.35 19.3 62.625 18.775C62.45 22.3 62.25 23.175 61.025 23.175C60.425 23.175 57.925 23.175 57.375 23.175C56.15 23.175 55.975 22.925 55.975 21.425V3.425H52.925ZM62.3 7.6C60.075 9.5 56.75 11.75 53.65 13.225C54.075 13.875 54.65 14.925 54.85 15.625C58.1 14.1 61.675 12.225 64.5 10.225L62.3 7.6ZM48.1 3.1C46.55 6.875 43.925 10.575 41.225 12.9C41.775 13.65 42.65 15.3 42.95 16.075C46.1 13.175 49.175 8.55 51.05 4.1L48.1 3.1ZM45.45 10.15V26.2H48.45V7.25L48.4 7.2L45.45 10.15ZM70.525 12.175V14.925H76.3V12.175H70.525ZM75.15 12.175V12.625C75.1 17.475 75 19.225 74.7 19.625C74.5 19.875 74.275 19.925 73.925 19.925C73.525 19.925 72.675 19.925 71.775 19.825C72.225 20.575 72.55 21.75 72.6 22.625C73.775 22.65 74.85 22.65 75.525 22.55C76.25 22.425 76.75 22.2 77.25 21.575C77.825 20.8 77.95 18.575 78.05 13.275C78.05 12.925 78.075 12.175 78.075 12.175H75.15ZM82.675 4.35C84.075 5.15 85.85 6.375 86.675 7.25L88.6 5.225C87.7 4.4 85.85 3.25 84.475 2.525L82.675 4.35ZM85.625 10.775C83.9 16.575 80.55 21.1 75.75 23.675C76.375 24.275 77.475 25.525 77.925 26.15C82.875 23.1 86.55 18.025 88.65 11.5L85.625 10.775ZM70.7 6.525V9.475H89.975V6.525H70.7ZM68.7 6.525V13.85C68.7 17.125 68.525 21.5 66.6 24.5C67.3 24.85 68.65 25.95 69.15 26.55C71.425 23.175 71.85 17.625 71.85 13.875V6.525H68.7ZM78.85 2.8C78.925 14.2 80.95 26.075 86.4 26.075C88.75 26.075 89.75 24.95 90.225 20.3C89.425 20 88.35 19.3 87.675 18.6C87.525 21.75 87.225 23.025 86.65 23.025C84.125 23.025 81.825 13 82 2.8H78.85ZM99.075 6.625H107.875V10H99.075V6.625ZM96.175 3.775V12.85H110.95V3.775H96.175ZM92.75 14.95V26.25H95.575V17.8H99.3V26.1H102.3V14.95H92.75ZM104.425 14.95V26.25H107.3V17.8H111.3V26.125H114.325V14.95H104.425ZM94 22.125V25H100.55V22.125H94ZM105.8 22.125V25H112.8V22.125H105.8ZM128.375 5.625C130.525 8.725 134.725 12.325 138.6 14.475C139.175 13.575 139.875 12.575 140.625 11.8C136.6 10.05 132.5 6.65 129.8 2.65H126.675C124.8 5.875 120.75 9.85 116.4 12.1C117.075 12.725 117.925 13.825 118.325 14.525C122.475 12.175 126.325 8.675 128.375 5.625ZM128.525 15.175V17.85H136.925V15.175H128.525ZM117.825 22.875V25.575H139.2V22.875H117.825ZM127.025 9.8V24.325H130.225V9.8H127.025ZM120.55 14.125V24.25H123.5V14.125H120.55ZM142.275 22.1V25.075H164.775V22.1H142.275ZM148.75 3.1V23.225H151.85V3.1H148.75ZM155.15 3.075V23.4H158.225V3.075H155.15ZM161.825 8.1C160.95 11.15 159.35 14.925 158.05 17.275L160.525 18.55C161.85 16.125 163.425 12.575 164.55 9.4L161.825 8.1ZM142.6 8.875C143.725 11.925 145.05 16 145.6 18.4L148.6 17.325C147.95 14.925 146.5 11 145.35 8.05L142.6 8.875ZM170.75 4.675V7.1H178.45V4.675H170.75ZM180.425 4.675V7.125H189.75V4.675H180.425ZM170.675 2.625C169.85 4.85 168.4 7.1 166.75 8.5C167.425 8.85 168.625 9.625 169.2 10.1C170.8 8.5 172.475 5.925 173.475 3.35L170.675 2.625ZM180.875 2.675C180.275 4.775 179.125 6.85 177.75 8.175C178.45 8.525 179.65 9.3 180.2 9.8C181.575 8.25 182.925 5.8 183.7 3.35L180.875 2.675ZM172.1 6.575C172.775 7.675 173.525 9.175 173.8 10.125L176.4 9.025C176.05 8.1 175.225 6.65 174.525 5.6L172.1 6.575ZM182.8 6.45C183.625 7.6 184.55 9.15 184.9 10.125L187.475 8.95C187.05 7.95 186.05 6.475 185.225 5.4L182.8 6.45ZM175.075 17.8V19.85H181.925V17.8H175.075ZM168.2 12.85V26.225H171.125V12.85H168.2ZM174.875 10.25V12.9H187.75V10.25H174.875ZM169.475 10.8C170.475 11.725 171.65 13.075 172.125 13.95L174.45 12.325C173.9 11.425 172.7 10.175 171.675 9.3L169.475 10.8ZM185.95 10.25V23.05C185.95 23.4 185.825 23.5 185.425 23.525C185.075 23.55 183.7 23.55 182.575 23.475C182.95 24.175 183.325 25.275 183.45 26.025C185.35 26.05 186.7 26 187.65 25.6C188.6 25.175 188.9 24.5 188.9 23.075V10.25H185.95ZM176.45 16.525H180.7V21.2H176.45V16.525ZM173.925 14.325V23.375H183.35V14.325H173.925ZM203.4 5.775C205.425 9.025 209.525 12.525 213.525 14.55C214.075 13.625 214.75 12.6 215.525 11.8C211.425 10.225 207.45 6.925 204.875 2.7H201.625C199.9 6.025 196 10.025 191.55 12.15C192.2 12.775 193.05 13.9 193.425 14.65C197.625 12.425 201.45 8.975 203.4 5.775ZM206.175 11.925V26.25H209.3V11.925H206.175ZM197.55 12.05V15.075C197.55 17.975 197.1 21.5 192.7 24.125C193.5 24.6 194.675 25.6 195.2 26.25C200.125 23.175 200.625 18.7 200.625 15.15V12.05H197.55Z" fill="#0A0A0A"/>
</svg>
