<svg width="313" height="62" viewBox="0 0 313 62" fill="none" xmlns="http://www.w3.org/2000/svg">
<rect width="313" height="62" rx="11" fill="url(#paint0_linear_599_23)"/>
<path d="M48.945 19.912V22.882H59.421V19.912H48.945ZM54.048 24.529V42.376H57.153V24.529H54.048ZM48.729 35.032L49.35 38.137C52.401 37.624 56.424 36.922 60.204 36.247L60.069 33.439C55.938 34.06 51.591 34.681 48.729 35.032ZM49.944 31.63C49.944 31.117 51.618 30.091 51.618 30.091V30.037C53.265 26.797 55.02 22.099 55.992 17.644L52.86 17.05C52.347 21.127 50.889 25.717 50.403 26.797C49.917 27.958 49.539 28.741 48.972 28.903C49.35 29.659 49.809 31.063 49.944 31.63ZM49.944 31.63C50.187 31.387 51.186 31.225 52.05 31.225H59.151V28.309H51.348L49.944 29.065V31.63ZM63.174 30.091V33.115H71.085V30.091H63.174ZM70.302 30.091V30.415C69.087 32.224 66.711 35.437 64.713 37.867L67.467 39.163C69.546 36.625 71.868 33.574 73.569 31.063L71.301 29.929L70.815 30.091H70.302ZM61.5 36.814C64.443 38.461 67.926 40.999 69.627 42.592L71.733 40.054C69.951 38.488 66.549 36.301 63.579 34.762L61.5 36.814ZM65.577 17.104C64.47 22.234 62.58 29.011 61.176 33.115H64.632C65.82 29.254 67.548 22.666 68.79 17.509L65.577 17.104ZM60.447 19.939V22.909H73.137V19.939H60.447ZM59.502 24.988V27.985H74.082V24.988H59.502ZM87.879 17.779V37.192C87.879 41.026 88.878 42.106 92.28 42.106C93.009 42.106 96.141 42.106 96.924 42.106C100.11 42.106 100.974 40.378 101.379 35.707C100.461 35.518 99.138 34.924 98.355 34.357C98.166 38.164 97.95 39.109 96.627 39.109C95.979 39.109 93.279 39.109 92.685 39.109C91.362 39.109 91.173 38.839 91.173 37.219V17.779H87.879ZM98.004 22.288C95.601 24.34 92.01 26.77 88.662 28.363C89.121 29.065 89.742 30.199 89.958 30.955C93.468 29.308 97.329 27.283 100.38 25.123L98.004 22.288ZM82.668 17.428C80.994 21.505 78.159 25.501 75.243 28.012C75.837 28.822 76.782 30.604 77.106 31.441C80.508 28.309 83.829 23.314 85.854 18.508L82.668 17.428ZM79.806 25.042V42.376H83.046V21.91L82.992 21.856L79.806 25.042ZM106.887 27.229V30.199H113.124V27.229H106.887ZM111.882 27.229V27.715C111.828 32.953 111.72 34.843 111.396 35.275C111.18 35.545 110.937 35.599 110.559 35.599C110.127 35.599 109.209 35.599 108.237 35.491C108.723 36.301 109.074 37.57 109.128 38.515C110.397 38.542 111.558 38.542 112.287 38.434C113.07 38.299 113.61 38.056 114.15 37.381C114.771 36.544 114.906 34.141 115.014 28.417C115.014 28.039 115.041 27.229 115.041 27.229H111.882ZM120.009 18.778C121.521 19.642 123.438 20.965 124.329 21.91L126.408 19.723C125.436 18.832 123.438 17.59 121.953 16.807L120.009 18.778ZM123.195 25.717C121.332 31.981 117.714 36.868 112.53 39.649C113.205 40.297 114.393 41.647 114.879 42.322C120.225 39.028 124.194 33.547 126.462 26.5L123.195 25.717ZM107.076 21.127V24.313H127.893V21.127H107.076ZM104.916 21.127V29.038C104.916 32.575 104.727 37.3 102.648 40.54C103.404 40.918 104.862 42.106 105.402 42.754C107.859 39.109 108.318 33.115 108.318 29.065V21.127H104.916ZM115.878 17.104C115.959 29.416 118.146 42.241 124.032 42.241C126.57 42.241 127.65 41.026 128.163 36.004C127.299 35.68 126.138 34.924 125.409 34.168C125.247 37.57 124.923 38.947 124.302 38.947C121.575 38.947 119.091 28.12 119.28 17.104H115.878ZM137.721 21.235H147.225V24.88H137.721V21.235ZM134.589 18.157V27.958H150.546V18.157H134.589ZM130.89 30.226V42.43H133.941V33.304H137.964V42.268H141.204V30.226H130.89ZM143.499 30.226V42.43H146.604V33.304H150.924V42.295H154.191V30.226H143.499ZM132.24 37.975V41.08H139.314V37.975H132.24ZM144.984 37.975V41.08H152.544V37.975H144.984ZM169.365 20.155C171.687 23.503 176.223 27.391 180.408 29.713C181.029 28.741 181.785 27.661 182.595 26.824C178.248 24.934 173.82 21.262 170.904 16.942H167.529C165.504 20.425 161.13 24.718 156.432 27.148C157.161 27.823 158.079 29.011 158.511 29.767C162.993 27.229 167.151 23.449 169.365 20.155ZM169.527 30.469V33.358H178.599V30.469H169.527ZM157.971 38.785V41.701H181.056V38.785H157.971ZM167.907 24.664V40.351H171.363V24.664H167.907ZM160.914 29.335V40.27H164.1V29.335H160.914ZM184.377 37.948V41.161H208.677V37.948H184.377ZM191.37 17.428V39.163H194.718V17.428H191.37ZM198.282 17.401V39.352H201.603V17.401H198.282ZM205.491 22.828C204.546 26.122 202.818 30.199 201.414 32.737L204.087 34.114C205.518 31.495 207.219 27.661 208.434 24.232L205.491 22.828ZM184.728 23.665C185.943 26.959 187.374 31.36 187.968 33.952L191.208 32.791C190.506 30.199 188.94 25.96 187.698 22.774L184.728 23.665ZM215.13 19.129V21.748H223.446V19.129H215.13ZM225.579 19.129V21.775H235.65V19.129H225.579ZM215.049 16.915C214.158 19.318 212.592 21.748 210.81 23.26C211.539 23.638 212.835 24.475 213.456 24.988C215.184 23.26 216.993 20.479 218.073 17.698L215.049 16.915ZM226.065 16.969C225.417 19.237 224.175 21.478 222.69 22.909C223.446 23.287 224.742 24.124 225.336 24.664C226.821 22.99 228.279 20.344 229.116 17.698L226.065 16.969ZM216.588 21.181C217.317 22.369 218.127 23.989 218.424 25.015L221.232 23.827C220.854 22.828 219.963 21.262 219.207 20.128L216.588 21.181ZM228.144 21.046C229.035 22.288 230.034 23.962 230.412 25.015L233.193 23.746C232.734 22.666 231.654 21.073 230.763 19.912L228.144 21.046ZM219.801 33.304V35.518H227.199V33.304H219.801ZM212.376 27.958V42.403H215.535V27.958H212.376ZM219.585 25.15V28.012H233.49V25.15H219.585ZM213.753 25.744C214.833 26.743 216.102 28.201 216.615 29.146L219.126 27.391C218.532 26.419 217.236 25.069 216.129 24.124L213.753 25.744ZM231.546 25.15V38.974C231.546 39.352 231.411 39.46 230.979 39.487C230.601 39.514 229.116 39.514 227.901 39.433C228.306 40.189 228.711 41.377 228.846 42.187C230.898 42.214 232.356 42.16 233.382 41.728C234.408 41.269 234.732 40.54 234.732 39.001V25.15H231.546ZM221.286 31.927H225.876V36.976H221.286V31.927ZM218.559 29.551V39.325H228.738V29.551H218.559ZM250.392 20.317C252.579 23.827 257.007 27.607 261.327 29.794C261.921 28.795 262.65 27.688 263.487 26.824C259.059 25.123 254.766 21.559 251.985 16.996H248.475C246.612 20.587 242.4 24.907 237.594 27.202C238.296 27.877 239.214 29.092 239.619 29.902C244.155 27.499 248.286 23.773 250.392 20.317ZM253.389 26.959V42.43H256.764V26.959H253.389ZM244.074 27.094V30.361C244.074 33.493 243.588 37.3 238.836 40.135C239.7 40.648 240.969 41.728 241.536 42.43C246.855 39.109 247.395 34.276 247.395 30.442V27.094H244.074Z" fill="white"/>
<defs>
<linearGradient id="paint0_linear_599_23" x1="-88" y1="62" x2="313" y2="62" gradientUnits="userSpaceOnUse">
<stop stop-color="#FF7E00"/>
<stop offset="1" stop-color="#FFB66F" stop-opacity="0.4"/>
</linearGradient>
</defs>
</svg>
