<svg width="436" height="259" viewBox="0 0 436 259" fill="none" xmlns="http://www.w3.org/2000/svg">
<path d="M59.56 58.52C60.68 59.56 61.96 61.02 62.54 61.98L63.78 61.08C63.16 60.16 61.84 58.76 60.72 57.76L59.56 58.52ZM63.22 64.7H58.98V66.12H61.76V71.98H63.22V64.7ZM62.46 71.2C61.46 71.2 60.1 72.24 58.72 73.74L59.78 75.14C60.8 73.78 61.76 72.6 62.44 72.6C62.88 72.6 63.52 73.26 64.38 73.8C65.76 74.68 67.44 74.88 69.94 74.88C71.84 74.88 75.4 74.78 76.82 74.7C76.84 74.24 77.08 73.48 77.28 73.06C75.34 73.28 72.32 73.44 69.96 73.44C67.72 73.44 66.02 73.3 64.72 72.48C63.6 71.8 63.14 71.2 62.46 71.2ZM64.64 60.82V62.24H76.68V60.82H64.64ZM72.38 57.28V70.16C72.38 70.52 72.24 70.62 71.84 70.66C71.44 70.66 70.06 70.66 68.58 70.62C68.8 71.06 69.06 71.72 69.12 72.16C71.02 72.16 72.24 72.12 72.92 71.88C73.64 71.64 73.92 71.2 73.92 70.18V57.28H72.38ZM65.6 64.46C66.62 65.72 67.86 67.46 68.4 68.52L69.66 67.74C69.08 66.7 67.82 65.04 66.8 63.82L65.6 64.46ZM80.6 60.22V61.74H95.54V60.22H80.6ZM79.04 65.5V67H97.02V65.5H79.04ZM87.14 57.2V66.34H88.72V57.2H87.14ZM85.52 66.48C84.8 68.62 83.42 71.64 82.3 73.54L83.7 74.02C84.86 72.16 86.24 69.3 87.28 66.94L85.52 66.48ZM79.76 73.18L79.96 74.78C83.74 74.62 89.48 74.32 94.86 74.02L94.92 72.56C89.44 72.82 83.52 73.08 79.76 73.18ZM90.78 69.28C92.52 71.26 94.48 74 95.34 75.78L96.82 74.98C95.9 73.22 93.96 70.6 92.16 68.64L90.78 69.28ZM99.5057 74V72.7216L104.307 67.4659C104.87 66.8504 105.334 66.3153 105.699 65.8608C106.063 65.4015 106.333 64.9706 106.509 64.5682C106.688 64.161 106.778 63.7348 106.778 63.2898C106.778 62.7784 106.655 62.3357 106.409 61.9616C106.168 61.5876 105.836 61.2988 105.415 61.0952C104.993 60.8916 104.52 60.7898 103.994 60.7898C103.436 60.7898 102.948 60.9058 102.531 61.1378C102.119 61.3651 101.8 61.6847 101.572 62.0966C101.35 62.5085 101.239 62.9915 101.239 63.5455H99.5625C99.5625 62.6932 99.759 61.9451 100.152 61.3011C100.545 60.6572 101.08 60.1553 101.757 59.7955C102.439 59.4356 103.204 59.2557 104.051 59.2557C104.903 59.2557 105.659 59.4356 106.317 59.7955C106.975 60.1553 107.491 60.6406 107.865 61.2514C108.239 61.8622 108.426 62.5417 108.426 63.2898C108.426 63.8248 108.329 64.348 108.135 64.8594C107.946 65.366 107.614 65.9318 107.141 66.5568C106.672 67.1771 106.021 67.9347 105.188 68.8295L101.92 72.3239V72.4375H108.682V74H99.5057ZM116.359 74.1989C115.289 74.1989 114.378 73.9077 113.625 73.3253C112.872 72.7382 112.297 71.8883 111.899 70.7756C111.501 69.6581 111.303 68.3087 111.303 66.7273C111.303 65.1553 111.501 63.813 111.899 62.7003C112.302 61.5829 112.879 60.7306 113.632 60.1435C114.39 59.5516 115.299 59.2557 116.359 59.2557C117.42 59.2557 118.327 59.5516 119.08 60.1435C119.837 60.7306 120.415 61.5829 120.812 62.7003C121.215 63.813 121.416 65.1553 121.416 66.7273C121.416 68.3087 121.217 69.6581 120.82 70.7756C120.422 71.8883 119.847 72.7382 119.094 73.3253C118.341 73.9077 117.429 74.1989 116.359 74.1989ZM116.359 72.6364C117.42 72.6364 118.244 72.125 118.831 71.1023C119.418 70.0795 119.712 68.6212 119.712 66.7273C119.712 65.4678 119.577 64.3954 119.307 63.5099C119.042 62.6245 118.658 61.9498 118.156 61.4858C117.659 61.0218 117.06 60.7898 116.359 60.7898C115.308 60.7898 114.487 61.3082 113.895 62.3452C113.303 63.3774 113.007 64.8381 113.007 66.7273C113.007 67.9867 113.14 69.0568 113.405 69.9375C113.67 70.8182 114.051 71.4882 114.548 71.9474C115.05 72.4067 115.654 72.6364 116.359 72.6364ZM127.629 61.62C129.129 62.36 130.949 63.54 131.809 64.38L132.869 63.4C131.969 62.56 130.129 61.44 128.629 60.74L127.629 61.62ZM136.869 58.9V59.14C134.689 63.08 128.929 65.78 123.889 66.72C124.169 67.04 124.469 67.66 124.609 68.04C129.889 66.88 135.809 64.08 138.409 59.42L137.429 58.82L137.169 58.9H136.869ZM130.189 58.9V60.16H137.249V58.9H130.189ZM131.669 57.18C130.289 58.86 127.649 60.74 124.049 62C124.389 62.26 124.849 62.76 125.069 63.12C128.789 61.64 131.509 59.66 133.349 57.54L131.669 57.18ZM130.189 68.96C131.769 69.82 133.669 71.16 134.569 72.1L135.749 71.14C134.789 70.18 132.869 68.92 131.289 68.1L130.189 68.96ZM139.789 65.9V66.12C137.629 71.16 131.589 73.54 125.409 74.28C125.649 74.62 125.949 75.24 126.049 75.66C132.589 74.7 138.829 72.2 141.349 66.36L140.369 65.82L140.089 65.9H139.789ZM133.289 65.9V67.18H140.189V65.9H133.289ZM134.909 64.02C133.349 65.92 130.309 68 126.069 69.32C126.389 69.6 126.829 70.14 127.009 70.48C131.389 68.94 134.549 66.76 136.569 64.4L134.909 64.02ZM148.149 57.14C147.169 59.84 145.509 62.44 143.609 64.1C143.989 64.3 144.609 64.8 144.909 65.06C146.769 63.26 148.549 60.48 149.649 57.52L148.149 57.14ZM147.829 59.62L147.109 61.08H160.729V59.62H147.829ZM146.849 64.16V70.3H148.349V65.56H160.289V64.16H146.849ZM143.549 69.54V71H161.669V69.54H143.549ZM152.849 60.38V75.62H154.389V60.38H152.849ZM165.749 76.14C167.849 75.42 169.209 73.78 169.209 71.62C169.209 70.22 168.609 69.3 167.489 69.3C166.689 69.3 165.969 69.8 165.969 70.74C165.969 71.7 166.649 72.18 167.469 72.18C167.849 72.18 168.249 72.08 168.529 71.72L167.449 70.2L167.829 71.9C167.829 73.4 166.929 74.42 165.289 75.1L165.749 76.14ZM199.709 58.54C197.489 60.1 193.429 61.54 189.749 62.48C189.949 62.8 190.209 63.32 190.289 63.66C194.049 62.7 198.189 61.36 200.849 59.7L199.709 58.54ZM193.189 57.48V64.62C193.189 66.26 193.709 66.7 195.649 66.7C196.049 66.7 198.729 66.7 199.169 66.7C200.789 66.7 201.229 66.06 201.389 63.74C201.009 63.64 200.409 63.42 200.049 63.16C199.969 65.04 199.829 65.38 199.069 65.38C198.489 65.38 196.229 65.38 195.789 65.38C194.849 65.38 194.689 65.26 194.689 64.62V57.48H193.189ZM189.089 57.18C187.809 59.36 185.669 61.44 183.529 62.76C183.869 63.02 184.409 63.58 184.629 63.86C186.769 62.4 189.049 60.08 190.509 57.68L189.089 57.18ZM187.069 60.44V67.26H188.549V59.48L188.149 59.36L187.069 60.44ZM191.809 67.24V75.6H193.369V67.24H191.809ZM183.629 69.58V71.04H201.569V69.58H183.629ZM204.229 62.02V63.52H219.669V62.02H204.229ZM219.049 62.02V62.34C218.789 70.02 218.469 72.98 217.829 73.62C217.589 73.86 217.369 73.92 216.949 73.92C216.449 73.92 215.189 73.92 213.849 73.78C214.129 74.24 214.329 74.9 214.369 75.34C215.589 75.42 216.869 75.44 217.569 75.38C218.289 75.32 218.769 75.14 219.209 74.58C220.009 73.66 220.289 70.82 220.589 62.8C220.609 62.58 220.609 62.02 220.609 62.02H219.049ZM210.809 57.24V59.62C210.809 63.76 210.389 69.88 203.689 74.22C204.069 74.48 204.629 74.98 204.869 75.34C211.849 70.7 212.329 64.1 212.329 59.62V57.24H210.809ZM205.829 58.32C206.629 59.26 207.549 60.56 207.929 61.36L209.289 60.72C208.869 59.9 207.929 58.64 207.129 57.76L205.829 58.32ZM212.569 66.6C213.589 67.8 214.789 69.48 215.289 70.54L216.609 69.84C216.089 68.78 214.869 67.16 213.809 65.98L212.569 66.6ZM239.829 57.68C237.889 58.38 234.329 58.96 231.269 59.3C231.449 59.6 231.649 60.14 231.709 60.48C234.889 60.18 238.589 59.6 241.029 58.76L239.829 57.68ZM230.849 58.8V63.7C230.849 66.92 230.609 71.38 228.529 74.74C228.889 74.9 229.469 75.32 229.669 75.62C231.929 72.02 232.229 67.08 232.229 63.72V59.6C232.509 59.58 232.629 59.5 232.649 59.36L230.849 58.8ZM234.609 59.9V75.24H235.969V59.9H234.609ZM239.629 58.62L238.289 58.68C238.489 65.9 238.849 72.2 240.929 75.66C241.209 75.22 241.769 74.62 242.129 74.34C240.209 71.4 239.829 65.18 239.629 58.62ZM223.169 67.84L223.569 69.3C225.429 68.76 227.829 68 230.109 67.28L229.929 65.92C227.449 66.64 224.889 67.4 223.169 67.84ZM223.429 61.24V62.64H229.909V61.24H223.429ZM226.209 57.22V73.88C226.209 74.16 226.109 74.26 225.829 74.26C225.589 74.26 224.749 74.26 223.849 74.24C224.029 74.64 224.249 75.24 224.289 75.6C225.629 75.62 226.429 75.58 226.949 75.34C227.469 75.12 227.669 74.7 227.669 73.88V57.22H226.209ZM249.389 61.2V62.62H261.549V61.2H249.389ZM250.069 67.02V68.46H260.969V67.02H250.069ZM248.869 73.48V74.92H261.849V73.48H248.869ZM254.689 61.62V74.34H256.209V61.62H254.689ZM252.089 58.22C253.609 59.12 255.549 60.48 256.469 61.4L257.529 60.2C256.549 59.3 254.589 58.02 253.069 57.16L252.089 58.22ZM248.129 57.26C246.969 60.3 245.009 63.28 242.989 65.18C243.269 65.54 243.689 66.32 243.829 66.66C246.049 64.44 248.189 61.08 249.549 57.7L248.129 57.26ZM246.049 62.42V75.56H247.489V61.02L247.469 61L246.049 62.42ZM264.529 60.78V70.3H266.029V62.26H279.089V70.2H280.649V60.78H264.529ZM265.329 67.58V69.04H279.989V67.58H265.329ZM271.769 57.2V75.58H273.329V57.2H271.769ZM287.449 61.22V62.56H297.709V61.22H287.449ZM288.009 65.4V66.72H297.229V65.4H288.009ZM287.149 70.1V71.38H298.149V70.1H287.149ZM291.789 61.64V70.78H293.189V61.64H291.789ZM294.449 67.6C295.169 68.28 296.029 69.26 296.429 69.88L297.449 69.26C297.049 68.64 296.169 67.72 295.409 67.06L294.449 67.6ZM284.309 58.12V75.62H285.829V59.5H299.289V75.62H300.889V58.12H284.309ZM285.129 73.22V74.6H300.029V73.22H285.129ZM304.789 64.32V65.7H309.869V64.32H304.789ZM303.989 58.96V60.36H309.349V66.46H310.789V58.96H303.989ZM303.989 64.32V70.72C303.989 72.42 304.489 72.86 306.269 72.86C306.649 72.86 308.969 72.86 309.369 72.86C310.929 72.86 311.349 72.22 311.529 69.68C311.109 69.58 310.489 69.34 310.169 69.08C310.089 71.12 309.969 71.44 309.249 71.44C308.749 71.44 306.809 71.44 306.429 71.44C305.589 71.44 305.449 71.34 305.449 70.7V64.32H303.989ZM313.609 60.88V62.3H321.849V60.88H313.609ZM314.129 57.22C313.489 60.54 312.289 63.66 310.529 65.64C310.909 65.86 311.569 66.32 311.869 66.58C313.609 64.42 314.909 61.1 315.689 57.48L314.129 57.22ZM318.809 61.44C317.849 68.36 315.509 72.28 309.789 74.34C310.089 74.68 310.549 75.34 310.709 75.68C316.649 73.24 319.209 69.08 320.329 61.62L318.809 61.44ZM314.209 62.16L312.829 62.42C314.049 68.66 316.389 73.42 321.029 75.6C321.269 75.18 321.749 74.6 322.089 74.3C317.629 72.42 315.289 67.84 314.209 62.16ZM331.809 62.58V75.62H333.369V62.58H331.809ZM323.989 58.94V60.26H341.249V58.94H323.989ZM323.649 71.08V72.46H341.589V71.08H323.649ZM328.129 57.2V63.12H337.109V57.2H335.569V61.96H329.609V57.2H328.129ZM327.369 65.74H337.909V68.12H327.369V65.74ZM325.869 64.5V69.34H339.489V64.5H325.869ZM344.389 58.52V59.94H360.949V58.52H344.389ZM343.649 65.66V67.1H361.589V65.66H343.649ZM355.569 59.26V75.62H357.109V59.26H355.569ZM348.449 59.26V64.8C348.449 68.26 347.989 71.92 343.689 74.58C344.069 74.82 344.609 75.34 344.869 75.68C349.469 72.78 349.969 68.68 349.969 64.8V59.26H348.449ZM363.469 60.44V61.86H372.369V60.44H363.469ZM366.709 64.52V65.9H370.549V64.52H366.709ZM367.129 57.24V61.12H368.609V57.24H367.129ZM370.029 64.52V64.82C369.909 71.24 369.749 73.46 369.409 73.94C369.249 74.16 369.069 74.22 368.789 74.2C368.469 74.2 367.729 74.2 366.889 74.14C367.109 74.52 367.249 75.1 367.289 75.52C368.129 75.56 368.989 75.56 369.469 75.52C370.009 75.44 370.329 75.3 370.649 74.86C371.189 74.16 371.309 71.88 371.449 65.2C371.469 65 371.469 64.52 371.469 64.52H370.029ZM374.249 60.94V62.34H381.849V60.94H374.249ZM374.709 57.2C374.129 60.64 373.089 64 371.489 66.12C371.849 66.34 372.509 66.84 372.769 67.1C374.409 64.78 375.569 61.2 376.249 57.42L374.709 57.2ZM378.969 61.7C378.049 68.1 375.929 72.12 370.989 74.34C371.289 74.66 371.729 75.32 371.869 75.66C377.069 73.08 379.349 68.82 380.449 61.86L378.969 61.7ZM374.829 62.22L373.529 62.46C374.629 68.54 376.709 73.36 380.929 75.56C381.149 75.16 381.629 74.58 381.989 74.28C377.929 72.38 375.809 67.76 374.829 62.22ZM365.849 61.14V66.02C365.849 68.84 365.549 72.02 363.089 74.62C363.469 74.88 363.949 75.28 364.209 75.58C366.869 72.76 367.269 69.34 367.269 66.02V61.14H365.849ZM393.769 71.62V73.06H399.969V71.62H393.769ZM393.209 59.08V74.72H394.669V60.5H399.149V74.58H400.669V59.08H393.209ZM387.529 58.9V75.58H389.029V58.9H387.529ZM383.609 63.12V64.52H392.529V63.12H383.609ZM387.449 63.62C386.649 66.38 384.809 69.62 383.129 71.34C383.389 71.7 383.769 72.3 383.929 72.72C385.729 70.8 387.569 67.1 388.509 64L387.449 63.62ZM391.369 57.4C389.629 58.12 386.449 58.72 383.789 59.08C383.969 59.42 384.149 59.92 384.229 60.26C386.969 59.94 390.249 59.36 392.389 58.56L391.369 57.4ZM388.909 64.92L388.149 65.66C388.889 66.54 390.829 69.1 391.469 70.16L392.389 68.94C391.869 68.28 389.549 65.56 388.909 64.92ZM406.132 59.4545V74H404.371V59.4545H406.132ZM421.368 64H419.607C419.503 63.4934 419.32 63.0483 419.06 62.6648C418.804 62.2812 418.492 61.9593 418.123 61.6989C417.758 61.4337 417.353 61.2348 416.908 61.1023C416.463 60.9697 415.999 60.9034 415.516 60.9034C414.635 60.9034 413.837 61.1259 413.123 61.571C412.412 62.0161 411.846 62.6719 411.425 63.5384C411.008 64.4048 410.8 65.4678 410.8 66.7273C410.8 67.9867 411.008 69.0497 411.425 69.9162C411.846 70.7827 412.412 71.4384 413.123 71.8835C413.837 72.3286 414.635 72.5511 415.516 72.5511C415.999 72.5511 416.463 72.4848 416.908 72.3523C417.353 72.2197 417.758 72.0232 418.123 71.7628C418.492 71.4976 418.804 71.1733 419.06 70.7898C419.32 70.4015 419.503 69.9564 419.607 69.4545H421.368C421.236 70.1979 420.994 70.8632 420.644 71.4503C420.293 72.0374 419.858 72.5369 419.337 72.9489C418.816 73.3561 418.231 73.6662 417.583 73.8793C416.939 74.0923 416.25 74.1989 415.516 74.1989C414.275 74.1989 413.172 73.8958 412.206 73.2898C411.24 72.6837 410.48 71.822 409.926 70.7045C409.373 69.5871 409.096 68.2614 409.096 66.7273C409.096 65.1932 409.373 63.8674 409.926 62.75C410.48 61.6326 411.24 60.7708 412.206 60.1648C413.172 59.5587 414.275 59.2557 415.516 59.2557C416.25 59.2557 416.939 59.3622 417.583 59.5753C418.231 59.7884 418.816 60.1009 419.337 60.5128C419.858 60.92 420.293 61.4171 420.644 62.0043C420.994 62.5866 421.236 63.2519 421.368 64ZM423.419 61.017V59.4545H434.328V61.017H429.754V74H427.993V61.017H423.419ZM21.7 87.42V88.86H31.52V87.42H21.7ZM27.54 93.38V102.66C27.54 103 27.42 103.08 27.02 103.1C26.66 103.12 25.32 103.12 23.9 103.08C24.12 103.52 24.32 104.14 24.38 104.56C26.34 104.56 27.48 104.54 28.16 104.32C28.84 104.08 29.06 103.62 29.06 102.68V93.38H27.54ZM20.82 92.94V94.36H32.1V92.94H20.82ZM16.82 94.48V104.66H18.32V93.26L18.14 93.18L16.82 94.48ZM19.14 90.48C17.76 92.78 15.56 95.1 13.48 96.58C13.8 96.86 14.32 97.52 14.54 97.82C16.64 96.14 19 93.56 20.56 91.02L19.14 90.48ZM18.32 86.2C17.3 87.64 15.36 89.44 13.7 90.56C13.96 90.86 14.36 91.44 14.58 91.76C16.36 90.48 18.42 88.54 19.76 86.78L18.32 86.2ZM34.2 102.08V103.58H51.84V102.08H34.2ZM39.8 86.46V102.7H41.32V86.46H39.8ZM44.7 86.46V102.8H46.22V86.46H44.7ZM50.06 90.86C49.28 93.08 47.86 95.98 46.74 97.8L47.98 98.46C49.12 96.58 50.48 93.82 51.44 91.5L50.06 90.86ZM34.64 91.22C35.68 93.48 36.88 96.52 37.36 98.3L38.86 97.74C38.32 95.98 37.08 93.02 36.02 90.8L34.64 91.22ZM54.3 88.12V89.42H71.68V88.12H54.3ZM62.12 86.2V88.74H63.66V86.2H62.12ZM55.18 95.94V104.62H56.64V97.22H70.04V95.94H55.18ZM69.42 95.94V102.78C69.42 103.06 69.34 103.16 69 103.16C68.66 103.2 67.54 103.2 66.22 103.16C66.44 103.56 66.66 104.16 66.72 104.58C68.38 104.58 69.46 104.56 70.1 104.34C70.74 104.08 70.92 103.64 70.92 102.82V95.94H69.42ZM59.18 98.52V103.76H60.52V98.52H59.18ZM59.9 98.52V99.6H65.46V101.66H59.9V102.74H66.82V98.52H59.9ZM59.06 91.64H66.88V93.58H59.06V91.64ZM57.62 90.54V94.68H68.4V90.54H57.62ZM78.22 94.1H73.96V95.5H76.76V101.18H78.22V94.1ZM78.22 100.52H76.86C75.84 101.38 74.66 102.26 73.7 102.9L74.5 104.44C75.58 103.56 76.6 102.7 77.56 101.84C78.84 103.42 80.64 104.12 83.24 104.22C85.46 104.3 89.6 104.26 91.8 104.18C91.86 103.72 92.12 103 92.28 102.64C89.92 102.8 85.42 102.86 83.24 102.78C80.94 102.68 79.16 102 78.22 100.52ZM74.18 87.6C75.48 88.48 76.98 89.84 77.62 90.8L78.8 89.82C78.1 88.84 76.6 87.54 75.28 86.7L74.18 87.6ZM81.58 92.46H89.52V95H81.58V92.46ZM80.18 91.24V96.22H90.98V91.24H80.18ZM79.36 88.3V89.6H91.88V88.3H79.36ZM84.74 86.24V102.02H86.18V86.24H84.74ZM84.24 95.74C83.14 97.58 80.96 99.44 78.98 100.3C79.3 100.56 79.74 101.08 79.96 101.44C81.98 100.38 84.16 98.3 85.34 96.16L84.24 95.74ZM86.54 95.74L85.48 96.22C86.74 98.2 89.02 100.32 90.98 101.38C91.2 101 91.66 100.5 92 100.2C90.02 99.34 87.74 97.5 86.54 95.74ZM101.12 94.9L99.84 95.3C101.88 100.22 105.66 103.42 111.34 104.66C111.54 104.26 111.96 103.64 112.28 103.34C106.72 102.26 102.92 99.28 101.12 94.9ZM108.26 94.34V94.6C106.76 99.42 102.46 102.22 97.78 103.36C98.08 103.68 98.44 104.26 98.6 104.64C103.6 103.28 108.06 100.36 109.88 94.74L108.86 94.28L108.56 94.34H108.26ZM100.68 94.34L100.26 95.78H108.5V94.34H100.68ZM102.06 86.14C101.18 93.26 98.9 98.66 93.6 101.86C93.96 102.14 94.5 102.7 94.72 103.02C100.36 99.56 102.7 93.98 103.72 86.4L102.06 86.14ZM106.44 87.2C107.32 88.14 108.44 89.42 109 90.18L110.2 89.36C109.64 88.62 108.48 87.38 107.62 86.5L106.44 87.2ZM95.88 92.54C95.88 92.18 97.08 91.68 97.08 91.68V91.66C97.76 90.54 98.56 88.76 99.06 87.06L97.44 86.78C97.12 88.32 96.34 89.92 96.12 90.34C95.88 90.78 95.64 91.06 95.38 91.14C95.54 91.5 95.78 92.22 95.88 92.54ZM95.88 92.54C96.08 92.32 96.74 92.2 98 92.2H111.6V90.76H96.88L95.88 91.36V92.54ZM117.98 93.92V95.22H131.2V93.92H117.98ZM117.36 97.26V98.56H132V97.26H117.36ZM120.98 91.96V97.94H122.38V91.96H120.98ZM119.9 97.72V103.12H121.3V97.72H119.9ZM126.4 91.96V97.88H127.82V91.96H126.4ZM115.8 87.18V93.04C115.8 96.24 115.62 100.7 113.62 103.86C113.98 104 114.66 104.4 114.94 104.62C117.02 101.36 117.32 96.44 117.32 93.04V87.18H115.8ZM116.7 87.18V88.48H129.32V90.78H116.7V92.08H130.82V87.18H116.7ZM117.6 102.94L117.84 104.34C119.94 103.98 122.86 103.52 125.62 103.02L125.56 101.72C122.6 102.2 119.58 102.68 117.6 102.94ZM124.82 97.78L123.58 98.08C124.9 101.46 127.52 103.7 131.3 104.64C131.48 104.26 131.88 103.72 132.2 103.4C128.58 102.68 125.98 100.68 124.82 97.78ZM129.8 98.68C128.92 99.4 127.38 100.4 126.28 101L127.24 101.74C128.38 101.16 129.84 100.32 130.92 99.46L129.8 98.68ZM142.14 93.96V104.6H143.7V93.96H142.14ZM142.2 86.3V91.92H143.7V86.3H142.2ZM136.74 96.48V102.82H138.22V97.82H148.48V96.48H136.74ZM148.06 96.48V101.2C148.06 101.42 148 101.5 147.72 101.5C147.44 101.52 146.56 101.54 145.52 101.5C145.72 101.88 145.94 102.4 146 102.82C147.38 102.82 148.3 102.8 148.84 102.58C149.44 102.36 149.58 101.96 149.58 101.22V96.48H148.06ZM134.56 92.94V97H136.02V94.22H149.94V97H151.46V92.94H134.56ZM134.02 88.6V89.9H152V88.6H134.02ZM137.26 86.32V91.96H138.78V86.32H137.26ZM147.3 86.32V92H148.8V86.32H147.3ZM154.12 95.08V96.52H171.9V95.08H154.12ZM155.08 88.62V90.06H171.06V88.62H155.08ZM162.18 86.22V104.6H163.76V86.22H162.18ZM168.12 90.42C167.66 91.64 166.78 93.38 166.08 94.44L167.36 94.9C168.08 93.9 168.96 92.3 169.68 90.92L168.12 90.42ZM156.7 91.02C157.48 92.22 158.24 93.84 158.5 94.86L159.92 94.28C159.64 93.26 158.84 91.68 158.02 90.52L156.7 91.02ZM161.78 95.64C160.06 98.4 156.72 101.18 153.68 102.5C154.02 102.8 154.5 103.36 154.74 103.72C157.78 102.22 161.1 99.26 163 96.14L161.78 95.64ZM164.2 95.64L162.98 96.16C164.9 99.24 168.22 102.28 171.28 103.8C171.52 103.42 172 102.84 172.34 102.54C169.3 101.22 165.94 98.4 164.2 95.64ZM175.62 89.42V90.76H180.3V101.14H175.62V102.5H181.7V89.42H175.62ZM174.72 89.42V104.1H176.12V89.42H174.72ZM175.52 94.98V96.32H181.04V94.98H175.52ZM177.78 86.16C177.62 87.2 177.24 88.72 176.9 89.68L178.1 89.98C178.5 89.08 179 87.7 179.4 86.46L177.78 86.16ZM184.54 89.36V90.76H190.68V89.36H184.54ZM190.16 89.36V89.68C189.88 98.5 189.56 101.82 188.9 102.54C188.68 102.8 188.44 102.86 188.04 102.86C187.58 102.86 186.38 102.84 185.08 102.74C185.36 103.14 185.54 103.76 185.58 104.2C186.7 104.26 187.88 104.3 188.56 104.22C189.26 104.16 189.72 103.98 190.16 103.4C190.96 102.42 191.24 99.32 191.56 90.14C191.56 89.92 191.56 89.36 191.56 89.36H190.16ZM184.96 86.12C184.32 88.9 183.22 91.66 181.86 93.42C182.22 93.62 182.84 94.04 183.1 94.28C184.48 92.38 185.66 89.44 186.4 86.46L184.96 86.12ZM184.04 94.56C185.14 96.02 186.48 98 187.08 99.22L188.36 98.42C187.72 97.24 186.34 95.3 185.2 93.88L184.04 94.56ZM196.22 87.2V88.6H211.92V87.2H196.22ZM195.28 87.2V93.58C195.28 96.62 195.16 100.74 193.68 103.72C194.06 103.86 194.74 104.3 195.02 104.56C196.58 101.42 196.82 96.78 196.82 93.58V87.2H195.28ZM198.08 92.98V94.4H210.04V92.98H198.08ZM209.4 92.98V93.26C209.1 99.6 208.78 102.04 208.18 102.6C207.96 102.82 207.74 102.88 207.32 102.86C206.86 102.86 205.64 102.86 204.36 102.74C204.64 103.16 204.82 103.78 204.86 104.24C206.06 104.3 207.26 104.32 207.92 104.28C208.62 104.22 209.06 104.06 209.48 103.56C210.22 102.74 210.54 100.32 210.88 93.7C210.9 93.5 210.9 92.98 210.9 92.98H209.4ZM202.86 89.68C202.72 95.72 202.56 100.84 197.22 103.42C197.58 103.68 198.04 104.16 198.22 104.5C203.86 101.66 204.24 96.18 204.42 89.68H202.86ZM222.24 86.28V94.68C222.24 98.3 221.74 101.6 213.84 103.28C214.16 103.62 214.56 104.26 214.74 104.6C222.9 102.66 223.78 98.84 223.78 94.68V86.28H222.24ZM216.92 90.82H229.14V94.56H216.92V90.82ZM215.44 89.36V96H230.68V89.36H215.44ZM217.72 96.66L216.38 97.16C218.96 102.74 223.72 104.1 231.58 104.56C231.68 104.04 231.98 103.4 232.28 103.04C224.58 102.7 220.18 101.66 217.72 96.66ZM243.84 87.36V88.78H248.84V87.36H243.84ZM242.94 87.36V93.76C242.94 96.86 242.68 100.86 239.96 103.64C240.3 103.84 240.88 104.32 241.12 104.6C244 101.64 244.4 97.1 244.4 93.78V87.36H242.94ZM248.16 87.36V101.64C248.16 103.36 248.28 103.74 248.62 104.02C248.92 104.3 249.38 104.4 249.78 104.4C250.02 104.4 250.5 104.4 250.78 104.4C251.2 104.4 251.56 104.32 251.86 104.14C252.14 103.92 252.32 103.58 252.42 103.02C252.48 102.5 252.56 101.04 252.56 99.9C252.2 99.76 251.72 99.54 251.42 99.24C251.4 100.6 251.38 101.66 251.34 102.1C251.3 102.58 251.24 102.76 251.14 102.86C251.04 102.98 250.9 103.02 250.72 103.02C250.54 103.02 250.28 103.02 250.14 103.02C250 103.02 249.88 102.98 249.78 102.9C249.68 102.8 249.66 102.42 249.66 101.78V87.36H248.16ZM234.02 90.5V91.94H241.76V90.5H234.02ZM237.36 86.2V104.58H238.8V86.2H237.36ZM237.28 91.38C236.62 94.3 235.08 97.72 233.54 99.52C233.8 99.86 234.18 100.46 234.34 100.88C235.96 98.88 237.52 94.98 238.28 91.72L237.28 91.38ZM238.66 93.58L237.9 94.3C238.6 95.12 240.36 97.36 240.94 98.32L241.86 97.1C241.4 96.52 239.26 94.14 238.66 93.58ZM257.9 94.06H253.92V95.46H256.46V101.16H257.9V94.06ZM257.9 100.58H256.6C255.66 101.44 254.58 102.34 253.7 102.98L254.48 104.44C255.48 103.56 256.4 102.7 257.28 101.84C258.52 103.42 260.34 104.12 262.98 104.22C265.22 104.32 269.5 104.28 271.76 104.18C271.82 103.74 272.06 103.04 272.24 102.7C269.82 102.86 265.2 102.92 262.98 102.82C260.6 102.74 258.84 102.06 257.9 100.58ZM254.1 87.44C255.32 88.42 256.7 89.82 257.26 90.82L258.5 89.88C257.88 88.9 256.48 87.52 255.24 86.6L254.1 87.44ZM267.06 96.62C267.6 97.68 268.14 99.1 268.34 99.96L269.34 99.68C269.16 98.84 268.56 97.44 268 96.4L267.06 96.62ZM261.78 90.62H268.96V92.26H261.78V90.62ZM261.78 87.96H268.96V89.56H261.78V87.96ZM260.44 86.86V93.36H270.36V86.86H260.44ZM259.64 94.64V101.66H261.04V95.86H270.52V94.64H259.64ZM261.66 98.32L261.8 99.54C263.64 99.4 266.1 99.22 268.52 99.02V97.92C265.94 98.06 263.4 98.24 261.66 98.32ZM269.92 94.64V100.56C269.92 100.76 269.84 100.84 269.6 100.86C269.34 100.86 268.5 100.86 267.56 100.84C267.72 101.14 267.92 101.58 268 101.94C269.3 101.94 270.16 101.92 270.66 101.74C271.18 101.54 271.34 101.24 271.34 100.54V94.64H269.92ZM264.62 87.36V95.06H265.98V87.36H264.62ZM264.6 95.06V98.94H265.9V95.06H264.6ZM276.14 105.14C278.24 104.42 279.6 102.78 279.6 100.62C279.6 99.22 279 98.3 277.88 98.3C277.08 98.3 276.36 98.8 276.36 99.74C276.36 100.7 277.04 101.18 277.86 101.18C278.24 101.18 278.64 101.08 278.92 100.72L277.84 99.2L278.22 100.9C278.22 102.4 277.32 103.42 275.68 104.1L276.14 105.14ZM294.06 102.66V103.98H311.98V102.66H294.06ZM296.06 98.44V99.74H309.88V98.44H296.06ZM302.18 96.96V103.38H303.7V96.96H302.18ZM301.82 87.12V88.44H309.84V87.12H301.82ZM303.7 88.16L302.48 88.48C303.94 92.68 306.8 95.52 311.14 96.74C311.36 96.34 311.8 95.74 312.12 95.42C307.88 94.44 305.02 91.84 303.7 88.16ZM309.34 87.12V87.38C308.18 91.48 304.84 94.2 301.14 95.28C301.44 95.58 301.82 96.18 301.96 96.58C305.98 95.2 309.46 92.32 310.82 87.4L309.9 87.06L309.64 87.12H309.34ZM295.24 87.54V95.72H296.62V87.54H295.24ZM299.04 86.64V96.48H300.42V86.64H299.04ZM321.26 88.8V90.18H331.24V88.8H321.26ZM320.46 96.32V97.72H332.06V96.32H320.46ZM320.22 92.72V94.1H332.2V92.72H320.22ZM325.52 86.3V93.44H326.94V86.3H325.52ZM328.16 93.8V102.78C328.16 103.06 328.08 103.14 327.76 103.16C327.46 103.18 326.42 103.18 325.3 103.14C325.48 103.56 325.68 104.16 325.74 104.58C327.24 104.58 328.22 104.58 328.8 104.34C329.4 104.12 329.6 103.7 329.6 102.8V93.8H328.16ZM321.94 98.94C322.82 100.02 323.78 101.52 324.14 102.5L325.4 101.72C324.98 100.76 323.98 99.32 323.1 98.26L321.94 98.94ZM313.54 96.84L313.94 98.3C315.64 97.74 317.88 97.02 319.98 96.32L319.78 94.94C317.48 95.68 315.12 96.4 313.54 96.84ZM313.82 90.24V91.64H319.92V90.24H313.82ZM316.4 86.22V102.8C316.4 103.08 316.3 103.16 316.06 103.16C315.82 103.18 315.06 103.18 314.18 103.14C314.38 103.56 314.56 104.18 314.62 104.54C315.88 104.56 316.66 104.5 317.12 104.28C317.62 104.04 317.82 103.62 317.82 102.8V86.22H316.4ZM340.28 89.36C341.56 90.84 342.86 92.9 343.38 94.28L344.82 93.5C344.24 92.14 342.96 90.16 341.62 88.7L340.28 89.36ZM333.7 100.88L334.24 102.44C336.46 101.48 339.5 100.14 342.28 98.86L341.94 97.4C338.94 98.72 335.74 100.08 333.7 100.88ZM345.7 98.24C347.62 100.2 350.02 102.9 351.14 104.56L352.42 103.38C351.24 101.74 348.76 99.14 346.86 97.26L345.7 98.24ZM348.48 87.24C347.58 95.94 345.46 100.84 338.54 103.36C338.92 103.68 339.52 104.34 339.74 104.66C346.74 101.74 349.08 96.64 350.1 87.4L348.48 87.24ZM336.14 87.3L336.48 100.52L338.02 100.46L337.68 87.24L336.14 87.3ZM360.52 89.74C359.5 91.3 357.56 93.04 354.78 94.28C355.12 94.5 355.58 95 355.8 95.36C358.74 93.9 360.76 92 362.14 90.06L360.52 89.74ZM360.3 91.24L359.22 92.44H367.26V91.24H360.3ZM366.84 91.24V91.48C364.56 95 358.84 97.42 353.7 98.36C353.98 98.7 354.3 99.3 354.44 99.68C359.82 98.54 365.72 96 368.4 91.8L367.4 91.18L367.12 91.24H366.84ZM359.72 92.18L358.4 92.78C361.08 96.24 365.92 98.38 371.3 99.22C371.52 98.78 371.92 98.14 372.26 97.8C366.9 97.12 362.06 95.18 359.72 92.18ZM357.48 98.44V104.58H358.96V99.72H367.06V104.56H368.6V98.44H357.48ZM358.22 102.64V103.92H367.82V102.64H358.22ZM362.18 86.22V88.82H363.72V86.22H362.18ZM354.52 88.02V91.8H356V89.4H369.92V91.8H371.44V88.02H354.52ZM376.38 89.3V93.66C376.38 96.68 376.12 100.86 373.66 103.82C374.04 103.98 374.7 104.44 374.96 104.72C377.52 101.62 377.94 96.94 377.94 93.66V89.3H376.38ZM381.8 86.48C382.22 87.42 382.74 88.68 382.96 89.48L384.48 89.02C384.24 88.24 383.72 87.04 383.26 86.1L381.8 86.48ZM377.36 89.3V90.72H388.38V97.46H389.9V89.3H377.36ZM377.36 94.74V96.14H389.2V94.74H377.36ZM394.62 91.02V92.52H410.06V91.02H394.62ZM409.44 91.02V91.34C409.18 99.02 408.86 101.98 408.22 102.62C407.98 102.86 407.76 102.92 407.34 102.92C406.84 102.92 405.58 102.92 404.24 102.78C404.52 103.24 404.72 103.9 404.76 104.34C405.98 104.42 407.26 104.44 407.96 104.38C408.68 104.32 409.16 104.14 409.6 103.58C410.4 102.66 410.68 99.82 410.98 91.8C411 91.58 411 91.02 411 91.02H409.44ZM401.2 86.24V88.62C401.2 92.76 400.78 98.88 394.08 103.22C394.46 103.48 395.02 103.98 395.26 104.34C402.24 99.7 402.72 93.1 402.72 88.62V86.24H401.2ZM396.22 87.32C397.02 88.26 397.94 89.56 398.32 90.36L399.68 89.72C399.26 88.9 398.32 87.64 397.52 86.76L396.22 87.32ZM402.96 95.6C403.98 96.8 405.18 98.48 405.68 99.54L407 98.84C406.48 97.78 405.26 96.16 404.2 94.98L402.96 95.6ZM414.92 89.78V99.3H416.42V91.26H429.48V99.2H431.04V89.78H414.92ZM415.72 96.58V98.04H430.38V96.58H415.72ZM422.16 86.2V104.58H423.72V86.2H422.16ZM19.08 120.8V130.84C19.08 132.8 19.7 133.34 21.82 133.34C22.28 133.34 25.26 133.34 25.74 133.34C27.92 133.34 28.38 132.22 28.6 128.44C28.16 128.34 27.54 128.06 27.18 127.76C27.02 131.22 26.84 131.96 25.66 131.96C24.98 131.96 22.46 131.96 21.96 131.96C20.86 131.96 20.62 131.78 20.62 130.84V120.8H19.08ZM19.24 116.44C21.66 117.3 24.58 118.8 26.12 119.96L27.08 118.64C25.5 117.56 22.6 116.12 20.18 115.3L19.24 116.44ZM15.74 122.4C15.46 125 14.8 127.92 13.46 129.68L14.82 130.5C16.26 128.58 16.88 125.38 17.18 122.7L15.74 122.4ZM27.4 122.42C29.1 124.68 30.6 127.8 31.04 129.9L32.54 129.18C32.04 127.06 30.54 124.04 28.74 121.76L27.4 122.42ZM36.14 134.14C38.24 133.42 39.6 131.78 39.6 129.62C39.6 128.22 39 127.3 37.88 127.3C37.08 127.3 36.36 127.8 36.36 128.74C36.36 129.7 37.04 130.18 37.86 130.18C38.24 130.18 38.64 130.08 38.92 129.72L37.84 128.2L38.22 129.9C38.22 131.4 37.32 132.42 35.68 133.1L36.14 134.14ZM60.28 118.36C61.56 119.84 62.86 121.9 63.38 123.28L64.82 122.5C64.24 121.14 62.96 119.16 61.62 117.7L60.28 118.36ZM53.7 129.88L54.24 131.44C56.46 130.48 59.5 129.14 62.28 127.86L61.94 126.4C58.94 127.72 55.74 129.08 53.7 129.88ZM65.7 127.24C67.62 129.2 70.02 131.9 71.14 133.56L72.42 132.38C71.24 130.74 68.76 128.14 66.86 126.26L65.7 127.24ZM68.48 116.24C67.58 124.94 65.46 129.84 58.54 132.36C58.92 132.68 59.52 133.34 59.74 133.66C66.74 130.74 69.08 125.64 70.1 116.4L68.48 116.24ZM56.14 116.3L56.48 129.52L58.02 129.46L57.68 116.24L56.14 116.3ZM74.72 117.8V119.18H91.56V117.8H74.72ZM82.42 115.2C81.74 118.48 80.42 122.42 73.68 124.1C73.98 124.4 74.32 124.96 74.46 125.32C81.52 123.4 83.14 119.12 83.94 115.2H82.42ZM84.24 118.32L82.98 118.74C84.54 121.98 87.5 124.26 91.3 125.26C91.5 124.86 91.94 124.26 92.28 123.96C88.58 123.14 85.62 121.12 84.24 118.32ZM77.6 131.16V132.4H88.1V131.16H77.6ZM77.56 127.34V128.6H88.2V127.34H77.56ZM76.76 123.62V133.56H78.22V124.92H87.66V133.56H89.18V123.62H76.76ZM82.2 123.88V131.84H83.68V123.88H82.2ZM105.48 115.22V133.6H107.04V115.22H105.48ZM94.16 128.18L94.38 129.66L111.88 127.1L111.68 125.68L94.16 128.18ZM97.74 117.56C99.36 118.32 101.44 119.5 102.48 120.32L103.4 119.04C102.32 118.24 100.2 117.12 98.62 116.42L97.74 117.56ZM95.46 122.18C97.24 122.96 99.56 124.16 100.7 125L101.62 123.7C100.44 122.9 98.08 121.76 96.34 121.06L95.46 122.18ZM114.08 121.64V122.98H131.9V121.64H114.08ZM115.84 117.72V119.06H127.42V117.72H115.84ZM119.08 128.34V129.54H128.5V128.34H119.08ZM119.08 131.66V132.96H128.5V131.66H119.08ZM120.98 115.2V122.36H122.44V115.2H120.98ZM129.74 115.9C126.04 120.86 120.08 124.74 113.62 126.98C113.92 127.28 114.4 127.9 114.58 128.24C120.98 125.78 127 121.84 131.02 116.58L129.74 115.9ZM118.26 125.1V133.62H119.76V126.36H127.9V133.54H129.46V125.1H118.26ZM134.62 120.02V121.52H150.06V120.02H134.62ZM149.44 120.02V120.34C149.18 128.02 148.86 130.98 148.22 131.62C147.98 131.86 147.76 131.92 147.34 131.92C146.84 131.92 145.58 131.92 144.24 131.78C144.52 132.24 144.72 132.9 144.76 133.34C145.98 133.42 147.26 133.44 147.96 133.38C148.68 133.32 149.16 133.14 149.6 132.58C150.4 131.66 150.68 128.82 150.98 120.8C151 120.58 151 120.02 151 120.02H149.44ZM141.2 115.24V117.62C141.2 121.76 140.78 127.88 134.08 132.22C134.46 132.48 135.02 132.98 135.26 133.34C142.24 128.7 142.72 122.1 142.72 117.62V115.24H141.2ZM136.22 116.32C137.02 117.26 137.94 118.56 138.32 119.36L139.68 118.72C139.26 117.9 138.32 116.64 137.52 115.76L136.22 116.32ZM142.96 124.6C143.98 125.8 145.18 127.48 145.68 128.54L147 127.84C146.48 126.78 145.26 125.16 144.2 123.98L142.96 124.6ZM154.28 119.42V120.94H171.74V119.42H154.28ZM158.28 128.34V129.86H167.6V128.34H158.28ZM162.18 115.22V133.6H163.76V115.22H162.18ZM161.72 119.92C160.12 123.76 156.94 127.48 153.6 129.22C153.94 129.52 154.44 130.08 154.68 130.46C158.14 128.44 161.28 124.62 163.06 120.38L161.72 119.92ZM164.26 119.98L162.92 120.44C164.68 124.64 167.76 128.46 171.3 130.42C171.54 130 172.06 129.4 172.44 129.08C168.98 127.42 165.84 123.78 164.26 119.98ZM176.14 134.14C178.24 133.42 179.6 131.78 179.6 129.62C179.6 128.22 179 127.3 177.88 127.3C177.08 127.3 176.36 127.8 176.36 128.74C176.36 129.7 177.04 130.18 177.86 130.18C178.24 130.18 178.64 130.08 178.92 129.72L177.84 128.2L178.22 129.9C178.22 131.4 177.32 132.42 175.68 133.1L176.14 134.14ZM194.84 117.14V118.42H211.22V117.14H194.84ZM195.48 131.8V133.06H210.62V131.8H195.48ZM198.78 119.74V120.88H207.2V119.74H198.78ZM198.78 122.26V123.4H207.2V122.26H198.78ZM193.9 124.84V126.1H212.08V124.84H193.9ZM198.1 128.42V129.66H207.92V128.42H198.1ZM197.88 115.22V125.54H199.38V115.22H197.88ZM206.68 115.22V125.54H208.18V115.22H206.68ZM202.18 126.74V132.5H203.72V126.74H202.18ZM198.94 125.18C197.86 126.94 195.72 128.66 193.7 129.46C194.04 129.74 194.46 130.26 194.68 130.6C196.78 129.62 198.98 127.72 200.2 125.66L198.94 125.18ZM207.12 125.18L205.94 125.64C207.1 127.6 209.22 129.46 211.34 130.36C211.56 130 212 129.48 212.34 129.2C210.26 128.46 208.18 126.88 207.12 125.18ZM214.08 123.2V124.68H231.92V123.2H214.08ZM222.38 117.14V131.42C222.38 131.82 222.22 131.94 221.8 131.96C221.34 131.98 219.82 131.98 218.18 131.94C218.4 132.38 218.7 133.08 218.8 133.52C220.84 133.52 222.16 133.48 222.9 133.24C223.66 132.98 223.96 132.52 223.96 131.42V117.14H222.38ZM215.48 116.64V118.12H230.52V116.64H215.48ZM240.52 118.74C239.5 120.3 237.56 122.04 234.78 123.28C235.12 123.5 235.58 124 235.8 124.36C238.74 122.9 240.76 121 242.14 119.06L240.52 118.74ZM240.3 120.24L239.22 121.44H247.26V120.24H240.3ZM246.84 120.24V120.48C244.56 124 238.84 126.42 233.7 127.36C233.98 127.7 234.3 128.3 234.44 128.68C239.82 127.54 245.72 125 248.4 120.8L247.4 120.18L247.12 120.24H246.84ZM239.72 121.18L238.4 121.78C241.08 125.24 245.92 127.38 251.3 128.22C251.52 127.78 251.92 127.14 252.26 126.8C246.9 126.12 242.06 124.18 239.72 121.18ZM237.48 127.44V133.58H238.96V128.72H247.06V133.56H248.6V127.44H237.48ZM238.22 131.64V132.92H247.82V131.64H238.22ZM242.18 115.22V117.82H243.72V115.22H242.18ZM234.52 117.02V120.8H236V118.4H249.92V120.8H251.44V117.02H234.52ZM256.38 118.3V122.66C256.38 125.68 256.12 129.86 253.66 132.82C254.04 132.98 254.7 133.44 254.96 133.72C257.52 130.62 257.94 125.94 257.94 122.66V118.3H256.38ZM261.8 115.48C262.22 116.42 262.74 117.68 262.96 118.48L264.48 118.02C264.24 117.24 263.72 116.04 263.26 115.1L261.8 115.48ZM257.36 118.3V119.72H268.38V126.46H269.9V118.3H257.36ZM257.36 123.74V125.14H269.2V123.74H257.36ZM275.68 116.02V117.22H290.3V116.02H275.68ZM274.28 124.88V126.1H291.76V124.88H274.28ZM276.86 120.58V121.6H281.18V120.58H276.86ZM276.44 122.68V123.7H281.18V122.68H276.44ZM284.7 122.68V123.7H289.6V122.68H284.7ZM284.7 120.58V121.6H289.12V120.58H284.7ZM282.2 116.48V124.22H283.66V116.48H282.2ZM280.22 128.32V133.46H281.62V128.32H280.22ZM284.66 128.32V133.46H286.04V128.32H284.66ZM274.52 118.38V122.22H275.88V119.48H290.08V122.22H291.5V118.38H274.52ZM275.84 127.54V133.58H277.26V128.78H289.56V127.54H275.84ZM289.18 127.54V132.1C289.18 132.28 289.12 132.34 288.9 132.36C288.68 132.38 288 132.38 287.2 132.36C287.38 132.72 287.6 133.24 287.66 133.6C288.76 133.6 289.5 133.62 290 133.38C290.52 133.16 290.62 132.8 290.62 132.12V127.54H289.18ZM282.22 125.34C282.08 126.16 281.72 127.36 281.42 128.18L282.74 128.32C283.08 127.58 283.5 126.48 283.86 125.4L282.22 125.34ZM294.28 118.56V120.02H311.78V118.56H294.28ZM303.6 119.86L302.42 120.22C304.06 125.48 307 130.06 311.26 132.14C311.5 131.7 312 131.12 312.36 130.82C308.18 129 305.1 124.66 303.6 119.86ZM309.6 120.84C308.52 122.32 306.66 124.26 305.3 125.4L306.36 126.22C307.76 125.08 309.58 123.3 310.9 121.78L309.6 120.84ZM305.6 116.22C306.88 116.9 308.48 117.9 309.26 118.6L310.22 117.52C309.38 116.86 307.74 115.92 306.52 115.28L305.6 116.22ZM295.36 121.98C296.6 123.08 297.98 124.68 298.58 125.72L299.8 124.86C299.18 123.8 297.74 122.28 296.52 121.22L295.36 121.98ZM302.18 115.26V131.58C302.18 131.96 302.04 132.06 301.68 132.08C301.28 132.1 299.98 132.1 298.58 132.06C298.82 132.52 299.06 133.22 299.14 133.64C300.9 133.64 302.1 133.62 302.78 133.34C303.44 133.1 303.72 132.64 303.72 131.58V115.26H302.18ZM293.74 130.32L294.66 131.66C296.44 130.66 298.8 129.26 300.96 127.92L300.48 126.58C298.04 128 295.42 129.46 293.74 130.32ZM321.26 117.8V119.18H331.24V117.8H321.26ZM320.46 125.32V126.72H332.06V125.32H320.46ZM320.22 121.72V123.1H332.2V121.72H320.22ZM325.52 115.3V122.44H326.94V115.3H325.52ZM328.16 122.8V131.78C328.16 132.06 328.08 132.14 327.76 132.16C327.46 132.18 326.42 132.18 325.3 132.14C325.48 132.56 325.68 133.16 325.74 133.58C327.24 133.58 328.22 133.58 328.8 133.34C329.4 133.12 329.6 132.7 329.6 131.8V122.8H328.16ZM321.94 127.94C322.82 129.02 323.78 130.52 324.14 131.5L325.4 130.72C324.98 129.76 323.98 128.32 323.1 127.26L321.94 127.94ZM313.54 125.84L313.94 127.3C315.64 126.74 317.88 126.02 319.98 125.32L319.78 123.94C317.48 124.68 315.12 125.4 313.54 125.84ZM313.82 119.24V120.64H319.92V119.24H313.82ZM316.4 115.22V131.8C316.4 132.08 316.3 132.16 316.06 132.16C315.82 132.18 315.06 132.18 314.18 132.14C314.38 132.56 314.56 133.18 314.62 133.54C315.88 133.56 316.66 133.5 317.12 133.28C317.62 133.04 317.82 132.62 317.82 131.8V115.22H316.4ZM341.74 117.06V118.34H350.68V117.06H341.74ZM345.36 115.22V120.74H346.86V115.22H345.36ZM342.46 122.96C343.36 123.48 344.4 124.26 344.92 124.82L345.66 124C345.14 123.44 344.06 122.7 343.18 122.22L342.46 122.96ZM341.02 124.78C341.94 125.32 343.04 126.14 343.56 126.72L344.32 125.86C343.76 125.28 342.64 124.5 341.74 124.02L341.02 124.78ZM341 120.14V121.44H350.62V120.14H341ZM350.32 120.14V120.36C350.02 121.52 349.52 122.92 349.14 123.8L350.32 124.12C350.8 123.18 351.32 121.66 351.72 120.32L350.78 120.08L350.54 120.14H350.32ZM340.6 127V128.32H351.76V127H340.6ZM345.96 122.24V124.6C345.96 127.14 345.44 130.34 340.22 132.54C340.5 132.8 340.92 133.32 341.1 133.64C346.72 131.22 347.36 127.58 347.36 124.64V122.24H345.96ZM346.76 129.9C348.34 131 350.24 132.6 351.16 133.66L352.12 132.7C351.2 131.66 349.24 130.12 347.68 129.08L346.76 129.9ZM334.34 128.36C334.34 128.08 335.32 127.64 335.32 127.64V127.6C337.12 125.64 338.98 122.88 340.44 120.14L339.26 119.44C337.98 122.18 335.98 125 335.36 125.74C334.76 126.5 334.32 127 333.9 127.08C334.06 127.44 334.28 128.08 334.34 128.36ZM334.34 128.36C334.74 128.1 335.38 127.86 340.08 126.6C340.02 126.3 339.98 125.72 339.98 125.34L334.92 126.6L334.24 127.1L334.34 128.36ZM334.22 123.56C334.22 123.26 335.08 122.8 335.08 122.8V122.78C336.48 120.94 337.9 118.34 338.92 115.86L337.6 115.24C336.8 117.68 335.34 120.3 334.88 120.98C334.44 121.66 334.1 122.12 333.74 122.22C333.92 122.58 334.14 123.26 334.22 123.56ZM334.22 123.56C334.54 123.4 335.08 123.28 338.22 122.88C338.22 122.58 338.26 122.04 338.34 121.66L334.88 122.02L334.18 122.46L334.22 123.56ZM333.84 130.86L334.2 132.26C335.9 131.6 338.1 130.76 340.2 129.94L339.96 128.7C337.7 129.52 335.4 130.36 333.84 130.86ZM369.76 115.52V131.62C369.76 131.98 369.6 132.1 369.22 132.12C368.84 132.14 367.56 132.16 366.16 132.1C366.38 132.5 366.62 133.16 366.7 133.54C368.56 133.54 369.68 133.52 370.34 133.28C370.98 133.04 371.24 132.62 371.24 131.62V115.52H369.76ZM365.84 117.54V128.66H367.28V117.54H365.84ZM356.48 122.52V123.86H362.24V122.52H356.48ZM355.84 122.52V131.12C355.84 132.88 356.44 133.32 358.38 133.32C358.8 133.32 361.64 133.32 362.1 133.32C363.88 133.32 364.32 132.54 364.5 129.76C364.1 129.68 363.5 129.44 363.18 129.18C363.08 131.58 362.92 132 362 132C361.38 132 358.98 132 358.5 132C357.48 132 357.3 131.86 357.3 131.1V122.52H355.84ZM361.7 122.52V122.76C361.54 126.02 361.34 127.22 361.06 127.56C360.9 127.72 360.74 127.76 360.48 127.76C360.2 127.76 359.5 127.74 358.74 127.66C358.96 128.02 359.1 128.56 359.14 128.96C359.92 129 360.7 129 361.12 128.96C361.62 128.92 361.94 128.8 362.26 128.44C362.72 127.94 362.92 126.6 363.1 123.12C363.12 122.94 363.14 122.52 363.14 122.52H361.7ZM358.94 117.06C360.66 118.86 362.8 121.36 363.8 122.88L364.88 121.86C363.86 120.36 361.68 117.98 359.94 116.22L358.94 117.06ZM359.26 115.24C358.2 117.82 356.06 120.6 353.54 122.42C353.86 122.64 354.4 123.16 354.64 123.46C357.24 121.44 359.36 118.6 360.64 115.66L359.26 115.24ZM384.74 121.96V123.36H392.18V121.96H384.74ZM374.22 117.3V118.58H383.04V117.3H374.22ZM374 125.24V126.54H383.14V125.24H374ZM373.94 121.88V123.16H383.28V121.88H373.94ZM388.46 122.52V133.5H389.92V122.52H388.46ZM377.92 115.28V117.96H379.38V115.28H377.92ZM377.92 122.92V133.58H379.38V122.92H377.92ZM384.02 116.84V123.84C384.02 126.68 383.74 130.14 381.18 132.66C381.54 132.86 382.08 133.36 382.26 133.7C385.08 130.92 385.44 126.86 385.44 123.86V117.68C385.72 117.64 385.84 117.56 385.86 117.4L384.02 116.84ZM390.72 115.44C389.26 116.16 386.62 116.86 384.38 117.34C384.56 117.64 384.76 118.16 384.84 118.48C387.24 118.06 390.04 117.38 391.92 116.54L390.72 115.44ZM379.24 126.92L378.42 127.6C379.16 128.22 381.04 129.98 381.68 130.72L382.56 129.6C382.06 129.14 379.88 127.36 379.24 126.92ZM375.42 118.94C375.82 119.86 376.14 121.06 376.2 121.84L377.46 121.5C377.36 120.74 377.02 119.56 376.6 118.68L375.42 118.94ZM380.54 118.64C380.32 119.48 379.9 120.72 379.54 121.52L380.74 121.8C381.1 121.06 381.52 119.94 381.9 118.94L380.54 118.64ZM377.94 125.9C376.98 127.86 375.16 130.02 373.54 131.08C373.88 131.32 374.32 131.8 374.56 132.14C376.16 130.9 378 128.54 379.02 126.32L377.94 125.9ZM396.14 134.14C398.24 133.42 399.6 131.78 399.6 129.62C399.6 128.22 399 127.3 397.88 127.3C397.08 127.3 396.36 127.8 396.36 128.74C396.36 129.7 397.04 130.18 397.86 130.18C398.24 130.18 398.64 130.08 398.92 129.72L397.84 128.2L398.22 129.9C398.22 131.4 397.32 132.42 395.68 133.1L396.14 134.14ZM418.16 124.4V132.24C418.16 132.44 418.1 132.5 417.88 132.5C417.66 132.52 417.02 132.52 416.24 132.5C416.4 132.8 416.56 133.24 416.6 133.54C417.66 133.56 418.34 133.54 418.74 133.38C419.18 133.18 419.28 132.84 419.28 132.24V124.4H418.16ZM415.12 124.4V127.88C415.12 129.42 414.98 131.42 413.74 132.9C414.02 133.02 414.52 133.36 414.7 133.56C416 132 416.24 129.62 416.24 127.9V124.4H415.12ZM417.66 121.5H428.34V122.6H417.66V121.5ZM416.3 120.54V123.58H429.76V120.54H416.3ZM415.68 124.4V125.44H418.8V124.4H415.68ZM415.68 126.78V127.8H418.78V126.78H415.68ZM415.64 129.24V130.24H418.8V129.24H415.64ZM413.8 116.4V117.48H432.1V116.4H413.8ZM425.8 124.4V127.7C425.8 129.36 425.56 131.46 423.98 132.98C424.26 133.12 424.74 133.44 424.94 133.64C426.58 132.02 426.92 129.58 426.92 127.72V124.4H425.8ZM426.24 124.4V125.5H429.64V124.4H426.24ZM429.14 124.4V131.44C429.14 132.68 429.2 132.96 429.42 133.2C429.64 133.42 429.98 133.48 430.3 133.48C430.44 133.48 430.78 133.48 430.96 133.48C431.22 133.48 431.5 133.46 431.66 133.34C431.86 133.24 432.02 133.04 432.1 132.72C432.2 132.44 432.26 131.62 432.28 130.92C431.98 130.82 431.62 130.64 431.38 130.46C431.38 131.18 431.36 131.76 431.32 132.02C431.26 132.24 431.22 132.36 431.16 132.42C431.12 132.48 431 132.5 430.88 132.5C430.78 132.5 430.62 132.5 430.54 132.5C430.44 132.5 430.36 132.48 430.32 132.42C430.26 132.34 430.26 132.04 430.26 131.6V124.4H429.14ZM421.84 115.34C422.16 115.86 422.54 116.58 422.72 117.04L424.18 116.62C424 116.2 423.6 115.52 423.24 115.02L421.84 115.34ZM416.18 116.56V119.64H430.76V118.58H417.42V116.56H416.18ZM426.68 127.02C427.34 128.14 428.06 129.66 428.34 130.64L429.26 130.22C428.94 129.26 428.22 127.76 427.54 126.66L426.68 127.02ZM420.16 124.42V130.4H421.14V125.48H423.9V130.3H424.92V124.42H420.16ZM422.1 126.22C422 129.86 421.62 131.68 419.28 132.74C419.5 132.94 419.8 133.34 419.9 133.58C422.48 132.36 422.98 130.22 423.08 126.22H422.1ZM422.06 130.72C422.74 131.28 423.58 132.06 424 132.56L424.74 131.8C424.32 131.28 423.46 130.54 422.76 130.04L422.06 130.72ZM22.62 148.66H29.24V150.3H22.62V148.66ZM22.62 145.96H29.24V147.58H22.62V145.96ZM21.18 144.82V151.44H30.74V144.82H21.18ZM19.94 152.82V154.08H31.7V152.82H19.94ZM19.48 155.8V157.12H32.06V155.8H19.48ZM27.56 153.92V160.92C27.56 161.18 27.48 161.26 27.16 161.28C26.86 161.3 25.86 161.3 24.72 161.26C24.92 161.66 25.16 162.22 25.22 162.62C26.72 162.62 27.68 162.62 28.28 162.38C28.88 162.16 29.06 161.76 29.06 160.96V153.92H27.56ZM21.22 158.14C22.12 159.02 23.2 160.26 23.68 161.06L24.82 160.22C24.3 159.44 23.2 158.26 22.28 157.42L21.22 158.14ZM18.38 148.66C17.18 150.74 15.24 152.8 13.42 154.12C13.68 154.46 14.1 155.26 14.22 155.56C16.2 154 18.34 151.58 19.7 149.2L18.38 148.66ZM18 144.26C17.14 145.68 15.34 147.34 13.74 148.38C14 148.68 14.38 149.26 14.54 149.6C16.32 148.42 18.24 146.54 19.44 144.82L18 144.26ZM16.58 152.2V162.6H18.04V150.82L17.98 150.78L16.58 152.2ZM42.24 151.02V160.64C42.24 161 42.1 161.12 41.66 161.14C41.2 161.16 39.66 161.16 38 161.1C38.24 161.54 38.52 162.18 38.62 162.62C40.64 162.62 41.98 162.6 42.76 162.36C43.54 162.14 43.8 161.68 43.8 160.68V151.02H42.24ZM34.96 145.78V147.24H49.4V145.78H34.96ZM48.86 145.78V146.14C47.6 147.8 44.96 150.1 42.68 151.36C43 151.58 43.48 152.08 43.7 152.4C46.18 151 49 148.64 50.78 146.52L49.62 145.68L49.26 145.78H48.86ZM60.52 147.74C59.5 149.3 57.56 151.04 54.78 152.28C55.12 152.5 55.58 153 55.8 153.36C58.74 151.9 60.76 150 62.14 148.06L60.52 147.74ZM60.3 149.24L59.22 150.44H67.26V149.24H60.3ZM66.84 149.24V149.48C64.56 153 58.84 155.42 53.7 156.36C53.98 156.7 54.3 157.3 54.44 157.68C59.82 156.54 65.72 154 68.4 149.8L67.4 149.18L67.12 149.24H66.84ZM59.72 150.18L58.4 150.78C61.08 154.24 65.92 156.38 71.3 157.22C71.52 156.78 71.92 156.14 72.26 155.8C66.9 155.12 62.06 153.18 59.72 150.18ZM57.48 156.44V162.58H58.96V157.72H67.06V162.56H68.6V156.44H57.48ZM58.22 160.64V161.92H67.82V160.64H58.22ZM62.18 144.22V146.82H63.72V144.22H62.18ZM54.52 146.02V149.8H56V147.4H69.92V149.8H71.44V146.02H54.52ZM76.38 147.3V151.66C76.38 154.68 76.12 158.86 73.66 161.82C74.04 161.98 74.7 162.44 74.96 162.72C77.52 159.62 77.94 154.94 77.94 151.66V147.3H76.38ZM81.8 144.48C82.22 145.42 82.74 146.68 82.96 147.48L84.48 147.02C84.24 146.24 83.72 145.04 83.26 144.1L81.8 144.48ZM77.36 147.3V148.72H88.38V155.46H89.9V147.3H77.36ZM77.36 152.74V154.14H89.2V152.74H77.36ZM95.62 147.42V148.76H100.3V159.14H95.62V160.5H101.7V147.42H95.62ZM94.72 147.42V162.1H96.12V147.42H94.72ZM95.52 152.98V154.32H101.04V152.98H95.52ZM97.78 144.16C97.62 145.2 97.24 146.72 96.9 147.68L98.1 147.98C98.5 147.08 99 145.7 99.4 144.46L97.78 144.16ZM104.54 147.36V148.76H110.68V147.36H104.54ZM110.16 147.36V147.68C109.88 156.5 109.56 159.82 108.9 160.54C108.68 160.8 108.44 160.86 108.04 160.86C107.58 160.86 106.38 160.84 105.08 160.74C105.36 161.14 105.54 161.76 105.58 162.2C106.7 162.26 107.88 162.3 108.56 162.22C109.26 162.16 109.72 161.98 110.16 161.4C110.96 160.42 111.24 157.32 111.56 148.14C111.56 147.92 111.56 147.36 111.56 147.36H110.16ZM104.96 144.12C104.32 146.9 103.22 149.66 101.86 151.42C102.22 151.62 102.84 152.04 103.1 152.28C104.48 150.38 105.66 147.44 106.4 144.46L104.96 144.12ZM104.04 152.56C105.14 154.02 106.48 156 107.08 157.22L108.36 156.42C107.72 155.24 106.34 153.3 105.2 151.88L104.04 152.56ZM113.92 157.14V158.38H132.08V157.14H113.92ZM114.32 146.38V147.6H131.6V146.38H114.32ZM116.86 152.94V153.86H129.02V152.94H116.86ZM125.94 155.68V160.94C125.94 161.2 125.86 161.26 125.5 161.3C125.16 161.3 124.08 161.3 122.76 161.26C122.98 161.68 123.2 162.22 123.28 162.62C124.88 162.62 125.92 162.62 126.58 162.4C127.22 162.2 127.4 161.8 127.4 160.96V155.68H125.94ZM117.5 159.22C118.7 159.96 120.12 161.1 120.78 161.9L121.78 160.92C121.08 160.12 119.62 159.04 118.44 158.32L117.5 159.22ZM117.82 144.68C118.42 145.32 119.12 146.22 119.44 146.8L120.72 146.2C120.36 145.62 119.64 144.76 119.04 144.16L117.82 144.68ZM117.3 149.78H128.64V154.9H117.3V149.78ZM115.92 148.8V155.88H130.08V148.8H115.92ZM126.62 144.18C126.3 144.88 125.68 145.92 125.2 146.58L126.32 147C126.88 146.4 127.56 145.5 128.16 144.64L126.62 144.18ZM123.94 146.96V150.58C123.94 151.7 124.3 151.94 125.8 151.94C126.1 151.94 128.04 151.94 128.36 151.94C129.26 151.94 129.62 151.76 129.72 151.28C129.38 151.24 128.94 151.12 128.66 150.96C128.62 151.06 128.52 151.08 128.16 151.08C127.8 151.08 126.24 151.08 125.94 151.08C125.36 151.08 125.26 151 125.26 150.6V146.96H123.94ZM120.58 146.94V149.34C120.58 150.28 120.24 151.3 117.66 151.78C117.92 152 118.26 152.46 118.4 152.74C121.26 152 121.88 150.68 121.88 149.34V146.94H120.58ZM134.04 160.74V161.98H151.98V160.74H134.04ZM134.14 147.76V149H151.86V147.76H134.14ZM135.52 157.82V159.02H150.7V157.82H135.52ZM142.16 145.74V161.34H143.66V145.74H142.16ZM149.12 144.32C145.96 144.9 140.3 145.26 135.64 145.38C135.78 145.7 135.96 146.22 135.96 146.58C140.64 146.48 146.34 146.14 149.92 145.48L149.12 144.32ZM137.62 153.8H148.44V155.34H137.62V153.8ZM137.62 151.28H148.44V152.8H137.62V151.28ZM136.16 150.2V156.42H149.96V150.2H136.16ZM164.16 158.62V160.06H170.36V158.62H164.16ZM163.6 146.08V161.72H165.06V147.5H169.54V161.58H171.06V146.08H163.6ZM157.92 145.9V162.58H159.42V145.9H157.92ZM154 150.12V151.52H162.92V150.12H154ZM157.84 150.62C157.04 153.38 155.2 156.62 153.52 158.34C153.78 158.7 154.16 159.3 154.32 159.72C156.12 157.8 157.96 154.1 158.9 151L157.84 150.62ZM161.76 144.4C160.02 145.12 156.84 145.72 154.18 146.08C154.36 146.42 154.54 146.92 154.62 147.26C157.36 146.94 160.64 146.36 162.78 145.56L161.76 144.4ZM159.3 151.92L158.54 152.66C159.28 153.54 161.22 156.1 161.86 157.16L162.78 155.94C162.26 155.28 159.94 152.56 159.3 151.92ZM181.08 145.16V146.38H190.34V145.16H181.08ZM180.84 150.7V151.94H190.7V150.7H180.84ZM180.84 153.48V154.72H190.66V153.48H180.84ZM181.42 160.42V161.66H190.1V160.42H181.42ZM179.2 147.92V149.18H192.22V147.92H179.2ZM180.64 156.26V162.6H182.08V157.48H189.38V162.54H190.88V156.26H180.64ZM178.52 144.26C177.36 147.3 175.4 150.28 173.38 152.18C173.66 152.54 174.08 153.32 174.22 153.66C176.44 151.44 178.58 148.08 179.94 144.7L178.52 144.26ZM176.44 149.42V162.56H177.88V148.02L177.86 148L176.44 149.42ZM197.84 144.34V150.34H199.22V144.34H197.84ZM194.1 146.4V147.72H202.66V146.4H194.1ZM195.96 150.9H200.92V154.1H195.96V150.9ZM194.68 149.7V155.32H202.26V149.7H194.68ZM197.7 154.46C196.94 156.44 195.38 158.7 193.94 159.84C194.16 160.22 194.52 160.84 194.66 161.24C196.22 159.88 197.78 157.22 198.64 154.88L197.7 154.46ZM197.96 150.34V154.54H197.82V162.54H199.22V154.54H199.1V150.34H197.96ZM205.76 145.8L204.78 147.04H209.62V145.8H205.76ZM205.68 144.22C205.1 145.88 204.02 148.06 202.48 149.78C202.82 149.92 203.32 150.22 203.58 150.5C205.18 148.62 206.28 146.36 207.06 144.44L205.68 144.22ZM209.22 145.8V146.06C208.86 147.14 208.1 148.72 207.38 149.68C207.68 149.84 208.12 150.1 208.38 150.3C209.12 149.26 210.04 147.64 210.58 146.28L209.7 145.74L209.48 145.8H209.22ZM198.24 155.78C199.4 156.9 200.86 158.48 201.54 159.48L202.48 158.54C201.8 157.58 200.32 156.08 199.14 155L198.24 155.78ZM203.56 149.5V158.44H204.9V150.66H209.76V158.4H211.12V149.5H203.56ZM206.7 151.72C206.64 157.94 206.36 160.32 201.92 161.64C202.18 161.86 202.54 162.36 202.66 162.64C207.46 161.16 207.9 158.36 207.98 151.72H206.7ZM207.46 159.56C208.84 160.44 210.6 161.7 211.46 162.52L212.34 161.54C211.44 160.76 209.64 159.52 208.28 158.72L207.46 159.56ZM216.14 163.14C218.24 162.42 219.6 160.78 219.6 158.62C219.6 157.22 219 156.3 217.88 156.3C217.08 156.3 216.36 156.8 216.36 157.74C216.36 158.7 217.04 159.18 217.86 159.18C218.24 159.18 218.64 159.08 218.92 158.72L217.84 157.2L218.22 158.9C218.22 160.4 217.32 161.42 215.68 162.1L216.14 163.14ZM245.4 144.94C245.32 149.06 245.24 157.48 239.54 161.44C240.04 161.74 240.56 162.16 240.9 162.58C246.64 158.3 246.9 149.52 247 144.94H245.4ZM237.9 152.92C239.3 154.52 240.88 156.76 241.6 158.16L242.74 156.88C242 155.52 240.4 153.38 238.94 151.8L237.9 152.92ZM246.76 146.98L245.48 147.8C245.96 152.74 247.08 159.22 251.18 162.6C251.44 162.16 252.02 161.46 252.36 161.16C248.32 158.18 247.22 151.9 246.76 146.98ZM238.22 144.88C237.9 152.24 237.06 158.14 233.72 161.6C234.1 161.84 234.9 162.38 235.18 162.64C238.52 158.76 239.44 152.78 239.86 144.94L238.22 144.88ZM253.88 152.38V154.02H272.18V152.38H253.88ZM282.2 144.22V146.88H283.74V144.22H282.2ZM274.74 146V149.98H276.2V147.38H289.84V149.98H291.36V146H274.74ZM277.3 149.38V150.7H288.56V149.38H277.3ZM279.92 152.38C283.8 155.34 283.88 159.86 282.46 160.88C282.06 161.22 281.62 161.26 281.08 161.26C280.62 161.26 279.94 161.24 279.2 161.16C279.46 161.58 279.6 162.2 279.64 162.6C280.26 162.64 280.9 162.66 281.38 162.66C282.28 162.66 282.84 162.52 283.52 161.98C285.58 160.54 285.48 154.96 281.04 151.68L279.92 152.38ZM282.92 149.68C281.1 151.38 277.66 152.74 274.6 153.48C274.86 153.76 275.26 154.38 275.42 154.66C278.54 153.76 282.1 152.22 284.16 150.22L282.92 149.68ZM281.5 153.5C280.02 154.72 277 156.14 274.74 156.76C275.04 157.06 275.36 157.58 275.54 157.92C277.84 157.1 280.84 155.54 282.5 154.18L281.5 153.5ZM282.98 155.56C281.1 157.5 277.22 159.58 274.04 160.42C274.32 160.76 274.66 161.3 274.84 161.68C278.04 160.62 281.94 158.42 284.02 156.32L282.98 155.56ZM284.82 149.9L283.58 150.16C284.78 155.18 287.14 159.24 291.08 161.04C291.32 160.62 291.78 160.04 292.12 159.74C288.32 158.22 285.92 154.4 284.82 149.9ZM289.96 151.38C288.82 152.4 286.88 153.76 285.52 154.56L286.46 155.48C287.88 154.72 289.76 153.48 291.12 152.38L289.96 151.38ZM294.72 148.14V149.62H311.42V148.14H294.72ZM294.04 160.24V161.74H311.98V160.24H294.04ZM302.16 144.22V148.96H303.72V144.22H302.16ZM306.92 150.54C306.32 153.6 305.14 157.9 304.12 160.46L305.56 160.8C306.6 158.26 307.8 154.14 308.64 150.86L306.92 150.54ZM297.4 151.02C298.38 153.64 299.14 157.04 299.26 159.24L300.78 158.88C300.64 156.64 299.88 153.3 298.82 150.66L297.4 151.02ZM323 155.1V156.52H330.64V155.1H323ZM318.52 155.96L317.28 156.46C319.08 161.32 322.42 162.34 327.28 162.34H331.72C331.8 161.92 332.04 161.24 332.26 160.88C331.4 160.9 328 160.9 327.36 160.9C323.18 160.9 319.96 160.1 318.52 155.96ZM322.32 151.58V161.02L323.86 161.52V151.58H322.32ZM317.84 146.62H328.5V150.56H317.84V146.62ZM316.36 145.2V152H330.06V145.2H316.36ZM317.52 153.5C317.22 156.38 316.24 159.78 313.86 161.6C314.18 161.82 314.68 162.32 314.94 162.62C317.5 160.64 318.62 156.96 319.1 153.68L317.52 153.5ZM334.08 152.2V153.68H351.92V152.2H334.08ZM342.38 146.14V160.42C342.38 160.82 342.22 160.94 341.8 160.96C341.34 160.98 339.82 160.98 338.18 160.94C338.4 161.38 338.7 162.08 338.8 162.52C340.84 162.52 342.16 162.48 342.9 162.24C343.66 161.98 343.96 161.52 343.96 160.42V146.14H342.38ZM335.48 145.64V147.12H350.52V145.64H335.48ZM354.92 147.78V157.3H356.42V149.26H369.48V157.2H371.04V147.78H354.92ZM355.72 154.58V156.04H370.38V154.58H355.72ZM362.16 144.2V162.58H363.72V144.2H362.16ZM377.84 148.22V149.56H388.1V148.22H377.84ZM378.4 152.4V153.72H387.62V152.4H378.4ZM377.54 157.1V158.38H388.54V157.1H377.54ZM382.18 148.64V157.78H383.58V148.64H382.18ZM384.84 154.6C385.56 155.28 386.42 156.26 386.82 156.88L387.84 156.26C387.44 155.64 386.56 154.72 385.8 154.06L384.84 154.6ZM374.7 145.12V162.62H376.22V146.5H389.68V162.62H391.28V145.12H374.7ZM375.52 160.22V161.6H390.42V160.22H375.52ZM399.28 154.38V155.74H411.98V154.38H399.28ZM406.66 146.24V150.18C406.66 151.54 407 151.9 408.46 151.9C408.74 151.9 410.2 151.9 410.5 151.9C411.6 151.9 411.98 151.44 412.12 149.62C411.74 149.52 411.18 149.34 410.88 149.12C410.84 150.48 410.76 150.68 410.34 150.68C410.04 150.68 408.86 150.68 408.64 150.68C408.12 150.68 408.06 150.6 408.06 150.16V146.24H406.66ZM399.56 145.1V148.78H400.9V146.38H410.46V148.44H411.84V145.1H399.56ZM404.74 152.12V162.6H406.2V152.12H404.74ZM403.34 146.26C403.18 149.28 402.58 150.72 399.26 151.52C399.52 151.78 399.9 152.3 400.02 152.64C403.76 151.64 404.56 149.82 404.76 146.26H403.34ZM406.8 155.02L405.7 155.42C406.9 157.88 409.1 160.38 411.22 161.62C411.46 161.22 411.94 160.68 412.3 160.4C410.16 159.38 407.92 157.16 406.8 155.02ZM404.28 154.9C403.06 157.28 400.68 159.56 398.3 160.62C398.62 160.9 399.04 161.42 399.26 161.76C401.72 160.5 404.14 158.02 405.46 155.3L404.28 154.9ZM394.7 145.52C395.98 146.14 397.48 147.12 398.22 147.86L399.12 146.64C398.36 145.94 396.82 145 395.58 144.44L394.7 145.52ZM393.78 151.02C395.06 151.5 396.64 152.28 397.42 152.94L398.22 151.62C397.42 151 395.82 150.26 394.54 149.86L393.78 151.02ZM394.3 161.46L395.6 162.38C396.66 160.54 397.88 158.08 398.82 156L397.66 155.12C396.64 157.34 395.26 159.94 394.3 161.46ZM425.88 145.76V160.04H427.3V145.76H425.88ZM429.8 144.7V162.34H431.34V144.7H429.8ZM421.9 144.8V151.6C421.9 155.16 421.66 158.6 419.42 161.48C419.82 161.66 420.46 162.08 420.78 162.34C423.12 159.24 423.36 155.42 423.36 151.6V144.8H421.9ZM414.04 149.1V150.56H420.54V149.1H414.04ZM416.54 144.44V157.8H418.06V144.44H416.54ZM413.7 158.42L414.2 159.96C416.04 159.26 418.42 158.3 420.66 157.4L420.38 156.02C417.94 156.94 415.38 157.88 413.7 158.42ZM21.78 175.38V176.76H31.24V175.38H21.78ZM20.6 179.3V180.7H32.16V179.3H20.6ZM20.94 183.1V184.5H32.04V183.1H20.94ZM25.72 173.2V180.04H27.2V173.2H25.72ZM28.2 180.5V189.74C28.2 190.04 28.12 190.1 27.8 190.12C27.44 190.14 26.34 190.14 25.14 190.1C25.36 190.54 25.56 191.18 25.62 191.6C27.16 191.6 28.22 191.58 28.86 191.34C29.5 191.1 29.7 190.66 29.7 189.76V180.5H28.2ZM21.98 185.76C22.96 186.74 24.04 188.12 24.48 189.06L25.7 188.28C25.2 187.34 24.1 186.02 23.12 185.08L21.98 185.76ZM13.7 184.08L14.1 185.54C16.12 184.9 18.82 184.06 21.36 183.24L21.16 181.94C18.44 182.76 15.58 183.6 13.7 184.08ZM17.44 173.22V191.6H18.84V173.22H17.44ZM14.96 174.28C14.72 176.74 14.32 179.28 13.56 180.98C13.88 181.12 14.46 181.46 14.7 181.64C15.46 179.86 15.96 177.16 16.26 174.5L14.96 174.28ZM15.08 177.26L14.84 178.7H20.9V177.26H15.08ZM47.16 176.58C44.98 180.82 41.48 184.66 37.58 187C37.94 187.28 38.52 187.86 38.78 188.16C42.62 185.58 46.22 181.64 48.64 177.08L47.16 176.58ZM38.4 179.02C42.12 181.36 46.4 184.9 48.36 187.4L49.56 186.28C47.5 183.76 43.14 180.34 39.46 178.06L38.4 179.02ZM34.88 174.44V191.64H36.36V175.88H51.56V174.44H34.88ZM35.84 189.04V190.5H52.02V189.04H35.84ZM56.14 192.14C58.24 191.42 59.6 189.78 59.6 187.62C59.6 186.22 59 185.3 57.88 185.3C57.08 185.3 56.36 185.8 56.36 186.74C56.36 187.7 57.04 188.18 57.86 188.18C58.24 188.18 58.64 188.08 58.92 187.72L57.84 186.2L58.22 187.9C58.22 189.4 57.32 190.42 55.68 191.1L56.14 192.14ZM81.26 175.06V176.48H90.82V175.06H81.26ZM90.26 175.06V175.42C90.06 185.3 89.8 188.88 89.18 189.6C88.96 189.88 88.76 189.96 88.4 189.94C87.94 189.94 86.88 189.94 85.7 189.84C85.96 190.28 86.14 190.94 86.18 191.38C87.26 191.44 88.36 191.48 89.04 191.4C89.7 191.3 90.14 191.12 90.58 190.5C91.34 189.5 91.56 186.1 91.78 175.9C91.78 175.68 91.78 175.06 91.78 175.06H90.26ZM84.7 175.66C84.58 181.12 84.44 187.4 79.78 190.5C80.18 190.76 80.68 191.26 80.96 191.64C85.78 188.2 86.08 181.58 86.22 175.66H84.7ZM77 182.86V191.62H78.46V181.1L77 182.86ZM74.08 176.9V178.26H80.28V176.9H74.08ZM77 173.22V177.64H78.46V173.22H77ZM78.42 181.82L77.6 182.52C78.34 183.24 80.1 185.34 80.72 186.24L81.64 185.12C81.14 184.56 79.02 182.34 78.42 181.82ZM79.86 176.9V177.22C78.7 180.3 76 183.56 73.52 185.32C73.76 185.58 74.18 186.26 74.34 186.64C76.94 184.64 79.84 181.08 81.28 177.38L80.42 176.82L80.14 176.9H79.86ZM80.92 180.64C80.52 181.36 79.72 182.46 79.16 183.1L79.9 183.72C80.5 183.14 81.22 182.24 81.92 181.44L80.92 180.64ZM103.56 189.36V190.72H110.54V189.36H103.56ZM102.78 183.5V191.62H104.22V184.88H109.84V191.54H111.32V183.5H102.78ZM101.42 180.14L101.6 181.62C104.08 181.46 107.66 181.18 111.04 180.92L111.06 179.58C107.5 179.82 103.78 180.02 101.42 180.14ZM108.04 176.92C109.36 178.62 110.7 180.9 111.18 182.4L112.5 181.68C111.96 180.2 110.58 177.96 109.24 176.3L108.04 176.92ZM105.32 173.2C104.76 175.44 103.68 178.64 102.78 180.58L104.06 180.94C105 179.04 106.14 175.98 106.96 173.54L105.32 173.2ZM93.86 177.34V178.76H100.46V177.34H93.86ZM96.9 173.2C96.2 177 94.96 182.38 94.06 185.42L95.3 186.1C96.24 182.76 97.52 177.36 98.34 173.36L96.9 173.2ZM94.86 184.82C97.1 186.12 99.7 188.14 100.88 189.64L101.8 188.42C100.6 186.94 97.94 185.02 95.7 183.76L94.86 184.82ZM99.88 177.34V177.66C99.4 184.44 97.3 188.7 93.98 190.46C94.3 190.76 94.7 191.3 94.92 191.66C98.6 189.46 100.76 185.22 101.3 177.48L100.4 177.3L100.14 177.34H99.88ZM114.68 174.98C116.16 175.52 117.98 176.44 118.88 177.16L119.66 175.98C118.74 175.28 116.9 174.42 115.46 173.94L114.68 174.98ZM113.98 180.1L114.42 181.48C116.02 180.94 118.06 180.28 120.02 179.62L119.78 178.3C117.6 179 115.44 179.68 113.98 180.1ZM122.68 173.28C122.16 174.68 121.12 176.38 119.48 177.6C119.82 177.78 120.3 178.2 120.54 178.54C122.34 177.08 123.42 175.24 124.1 173.48L122.68 173.28ZM122.7 175.06L121.86 176.24H130.28V175.06H122.7ZM129.94 175.06V175.26C129.58 176.22 129.04 177.32 128.6 178.02L129.9 178.4C130.42 177.6 131 176.4 131.52 175.3L130.44 175L130.18 175.06H129.94ZM116.64 182.58V188.16H118.12V183.96H128.04V188.02H129.58V182.58H116.64ZM122.44 184.56C121.86 187.86 120.34 189.64 113.98 190.42C114.24 190.72 114.56 191.3 114.66 191.64C121.4 190.7 123.24 188.54 123.92 184.56H122.44ZM123.3 188.52C125.82 189.32 129.12 190.64 130.82 191.54L131.7 190.28C129.94 189.42 126.6 188.16 124.14 187.42L123.3 188.52ZM125.18 175.66C124.64 177.98 123.4 180.08 119.5 181.12C119.8 181.36 120.16 181.88 120.32 182.22C124.54 180.94 126.04 178.58 126.68 175.66H125.18ZM126.06 177.02L124.94 177.34C126.08 179.58 128.36 181.3 131.08 182.08C131.28 181.7 131.66 181.16 131.98 180.88C129.36 180.32 127.1 178.88 126.06 177.02ZM134.28 177.42V178.94H151.74V177.42H134.28ZM138.28 186.34V187.86H147.6V186.34H138.28ZM142.18 173.22V191.6H143.76V173.22H142.18ZM141.72 177.92C140.12 181.76 136.94 185.48 133.6 187.22C133.94 187.52 134.44 188.08 134.68 188.46C138.14 186.44 141.28 182.62 143.06 178.38L141.72 177.92ZM144.26 177.98L142.92 178.44C144.68 182.64 147.76 186.46 151.3 188.42C151.54 188 152.06 187.4 152.44 187.08C148.98 185.42 145.84 181.78 144.26 177.98ZM156.32 174.58V185.34H157.82V176.02H168.54V185.24H170.08V174.58H156.32ZM157.02 183.18V184.62H169.16V183.18H157.02ZM164.78 186.84C166.76 188.28 169.2 190.34 170.34 191.66L171.64 190.74C170.44 189.38 167.94 187.4 166 186.04L164.78 186.84ZM159.76 186C158.6 187.6 156.26 189.44 154.14 190.56C154.5 190.82 155.04 191.32 155.34 191.64C157.5 190.42 159.86 188.48 161.34 186.64L159.76 186ZM174.26 175.8V177.22H191.78V175.8H174.26ZM179.14 182.94V184.24H188.54V182.94H179.14ZM178.08 179.54V191.6H179.56V180.88H188.3V179.54H178.08ZM187.96 179.54V189.72C187.96 190.02 187.84 190.12 187.5 190.14C187.14 190.14 185.92 190.16 184.58 190.1C184.8 190.52 185.02 191.14 185.08 191.56C186.8 191.56 187.92 191.56 188.56 191.32C189.24 191.08 189.42 190.62 189.42 189.74V179.54H187.96ZM180.8 173.2C179.72 177.22 177.36 181.46 173.78 183.92C174.08 184.22 174.54 184.74 174.74 185.08C178.56 182.4 180.96 177.96 182.32 173.56L180.8 173.2ZM179.14 186.32V187.62H188.54V186.32H179.14ZM194.506 190V188.722L199.307 183.466C199.87 182.85 200.334 182.315 200.699 181.861C201.063 181.402 201.333 180.971 201.509 180.568C201.688 180.161 201.778 179.735 201.778 179.29C201.778 178.778 201.655 178.336 201.409 177.962C201.168 177.588 200.836 177.299 200.415 177.095C199.993 176.892 199.52 176.79 198.994 176.79C198.436 176.79 197.948 176.906 197.531 177.138C197.119 177.365 196.8 177.685 196.572 178.097C196.35 178.509 196.239 178.991 196.239 179.545H194.562C194.562 178.693 194.759 177.945 195.152 177.301C195.545 176.657 196.08 176.155 196.757 175.795C197.439 175.436 198.204 175.256 199.051 175.256C199.903 175.256 200.659 175.436 201.317 175.795C201.975 176.155 202.491 176.641 202.865 177.251C203.239 177.862 203.426 178.542 203.426 179.29C203.426 179.825 203.329 180.348 203.135 180.859C202.946 181.366 202.614 181.932 202.141 182.557C201.672 183.177 201.021 183.935 200.188 184.83L196.92 188.324V188.438H203.682V190H194.506ZM211.729 175.455V190H209.967V177.301H209.882L206.331 179.659V177.869L209.967 175.455H211.729ZM220.656 190.199C219.586 190.199 218.675 189.908 217.922 189.325C217.169 188.738 216.594 187.888 216.196 186.776C215.798 185.658 215.599 184.309 215.599 182.727C215.599 181.155 215.798 179.813 216.196 178.7C216.598 177.583 217.176 176.731 217.929 176.143C218.687 175.552 219.596 175.256 220.656 175.256C221.717 175.256 222.624 175.552 223.376 176.143C224.134 176.731 224.712 177.583 225.109 178.7C225.512 179.813 225.713 181.155 225.713 182.727C225.713 184.309 225.514 185.658 225.116 186.776C224.719 187.888 224.143 188.738 223.391 189.325C222.638 189.908 221.726 190.199 220.656 190.199ZM220.656 188.636C221.717 188.636 222.541 188.125 223.128 187.102C223.715 186.08 224.009 184.621 224.009 182.727C224.009 181.468 223.874 180.395 223.604 179.51C223.339 178.625 222.955 177.95 222.453 177.486C221.956 177.022 221.357 176.79 220.656 176.79C219.605 176.79 218.784 177.308 218.192 178.345C217.6 179.377 217.304 180.838 217.304 182.727C217.304 183.987 217.437 185.057 217.702 185.938C217.967 186.818 218.348 187.488 218.845 187.947C219.347 188.407 219.951 188.636 220.656 188.636ZM233.156 190.199C232.086 190.199 231.175 189.908 230.422 189.325C229.669 188.738 229.094 187.888 228.696 186.776C228.298 185.658 228.099 184.309 228.099 182.727C228.099 181.155 228.298 179.813 228.696 178.7C229.098 177.583 229.676 176.731 230.429 176.143C231.187 175.552 232.096 175.256 233.156 175.256C234.217 175.256 235.124 175.552 235.876 176.143C236.634 176.731 237.212 177.583 237.609 178.7C238.012 179.813 238.213 181.155 238.213 182.727C238.213 184.309 238.014 185.658 237.616 186.776C237.219 187.888 236.643 188.738 235.891 189.325C235.138 189.908 234.226 190.199 233.156 190.199ZM233.156 188.636C234.217 188.636 235.041 188.125 235.628 187.102C236.215 186.08 236.509 184.621 236.509 182.727C236.509 181.468 236.374 180.395 236.104 179.51C235.839 178.625 235.455 177.95 234.953 177.486C234.456 177.022 233.857 176.79 233.156 176.79C232.105 176.79 231.284 177.308 230.692 178.345C230.1 179.377 229.804 180.838 229.804 182.727C229.804 183.987 229.937 185.057 230.202 185.938C230.467 186.818 230.848 187.488 231.345 187.947C231.847 188.407 232.451 188.636 233.156 188.636ZM245.656 190.199C244.586 190.199 243.675 189.908 242.922 189.325C242.169 188.738 241.594 187.888 241.196 186.776C240.798 185.658 240.599 184.309 240.599 182.727C240.599 181.155 240.798 179.813 241.196 178.7C241.598 177.583 242.176 176.731 242.929 176.143C243.687 175.552 244.596 175.256 245.656 175.256C246.717 175.256 247.624 175.552 248.376 176.143C249.134 176.731 249.712 177.583 250.109 178.7C250.512 179.813 250.713 181.155 250.713 182.727C250.713 184.309 250.514 185.658 250.116 186.776C249.719 187.888 249.143 188.738 248.391 189.325C247.638 189.908 246.726 190.199 245.656 190.199ZM245.656 188.636C246.717 188.636 247.541 188.125 248.128 187.102C248.715 186.08 249.009 184.621 249.009 182.727C249.009 181.468 248.874 180.395 248.604 179.51C248.339 178.625 247.955 177.95 247.453 177.486C246.956 177.022 246.357 176.79 245.656 176.79C244.605 176.79 243.784 177.308 243.192 178.345C242.6 179.377 242.304 180.838 242.304 182.727C242.304 183.987 242.437 185.057 242.702 185.938C242.967 186.818 243.348 187.488 243.845 187.947C244.347 188.407 244.951 188.636 245.656 188.636ZM260.866 173.82C260.726 176.48 260.726 186.1 252.566 190.26C253.026 190.6 253.526 191.06 253.786 191.44C262.066 186.94 262.366 176.96 262.526 173.82H260.866ZM262.466 174.22L261.026 174.36C261.166 176.2 261.726 187.38 270.206 191.44C270.446 191.02 270.906 190.52 271.346 190.18C263.106 186.4 262.526 175.78 262.466 174.22ZM281.886 179.88C282.246 186.24 285.146 191.6 288.846 191.6C290.326 191.6 290.946 190.82 291.186 187.86C290.766 187.74 290.206 187.44 289.846 187.14C289.746 189.28 289.526 190.1 288.906 190.12C286.366 190.14 283.706 185.58 283.426 179.88H281.886ZM275.826 182.98V184.38H290.766V182.98H275.826ZM272.966 189.78L273.306 191.34C275.846 190.96 279.526 190.44 282.966 189.9L282.906 188.44C279.266 188.96 275.406 189.5 272.966 189.78ZM275.066 174.26V190.22H276.586V174.26H275.066ZM275.826 174.26V175.66H287.766V178.86H275.826V180.26H289.286V174.26H275.826ZM301.066 175.56V191.58H302.606V175.56H301.066ZM294.906 179.34V189.28H296.426V180.8H308.226V179.34H294.906ZM307.466 179.34V187.18C307.466 187.46 307.366 187.54 307.026 187.56C306.686 187.58 305.566 187.58 304.286 187.54C304.506 187.98 304.746 188.62 304.806 189.06C306.426 189.06 307.506 189.04 308.166 188.78C308.826 188.54 309.006 188.08 309.006 187.22V179.34H307.466ZM309.686 173.78C305.746 174.46 298.906 174.86 293.346 175C293.486 175.34 293.666 175.92 293.686 176.34C299.206 176.26 306.046 175.86 310.286 175.14L309.686 173.78ZM314.526 176.42V177.76H319.206V188.14H314.526V189.5H320.606V176.42H314.526ZM313.626 176.42V191.1H315.026V176.42H313.626ZM314.426 181.98V183.32H319.946V181.98H314.426ZM316.686 173.16C316.526 174.2 316.146 175.72 315.806 176.68L317.006 176.98C317.406 176.08 317.906 174.7 318.306 173.46L316.686 173.16ZM323.446 176.36V177.76H329.586V176.36H323.446ZM329.066 176.36V176.68C328.786 185.5 328.466 188.82 327.806 189.54C327.586 189.8 327.346 189.86 326.946 189.86C326.486 189.86 325.286 189.84 323.986 189.74C324.266 190.14 324.446 190.76 324.486 191.2C325.606 191.26 326.786 191.3 327.466 191.22C328.166 191.16 328.626 190.98 329.066 190.4C329.866 189.42 330.146 186.32 330.466 177.14C330.466 176.92 330.466 176.36 330.466 176.36H329.066ZM323.866 173.12C323.226 175.9 322.126 178.66 320.766 180.42C321.126 180.62 321.746 181.04 322.006 181.28C323.386 179.38 324.566 176.44 325.306 173.46L323.866 173.12ZM322.946 181.56C324.046 183.02 325.386 185 325.986 186.22L327.266 185.42C326.626 184.24 325.246 182.3 324.106 180.88L322.946 181.56ZM341.886 179.88C342.246 186.24 345.146 191.6 348.846 191.6C350.326 191.6 350.946 190.82 351.186 187.86C350.766 187.74 350.206 187.44 349.846 187.14C349.746 189.28 349.526 190.1 348.906 190.12C346.366 190.14 343.706 185.58 343.426 179.88H341.886ZM335.826 182.98V184.38H350.766V182.98H335.826ZM332.966 189.78L333.306 191.34C335.846 190.96 339.526 190.44 342.966 189.9L342.906 188.44C339.266 188.96 335.406 189.5 332.966 189.78ZM335.066 174.26V190.22H336.586V174.26H335.066ZM335.826 174.26V175.66H347.766V178.86H335.826V180.26H349.286V174.26H335.826ZM358.106 181.8H365.846V183.6H358.106V181.8ZM356.686 180.72V184.68H367.326V180.72H356.686ZM355.286 185.96V191.66H356.726V187.28H367.366V191.62H368.866V185.96H355.286ZM356.046 189.64V190.9H368.066V189.64H356.046ZM353.686 178.22V182.12H355.086V179.42H368.806V182.12H370.266V178.22H353.686ZM353.126 174.88V176.24H370.726V174.88H353.126ZM357.546 173.22V177.66H359.006V173.22H357.546ZM364.686 173.22V177.66H366.166V173.22H364.686ZM381.806 174.66C383.626 177.36 387.126 180.46 390.266 182.28C390.546 181.84 390.926 181.34 391.286 180.96C388.106 179.36 384.586 176.3 382.486 173.16H380.966C379.406 175.92 376.066 179.24 372.566 181.2C372.906 181.52 373.326 182.06 373.526 182.4C376.946 180.36 380.206 177.24 381.806 174.66ZM381.946 183.3V184.66H388.586V183.3H381.946ZM373.406 189.66V191.04H390.466V189.66H373.406ZM381.226 178.6V190.38H382.806V178.6H381.226ZM375.946 182.22V190.32H377.406V182.22H375.946ZM393.106 189.08V190.58H410.746V189.08H393.106ZM398.706 173.46V189.7H400.226V173.46H398.706ZM403.606 173.46V189.8H405.126V173.46H403.606ZM408.966 177.86C408.186 180.08 406.766 182.98 405.646 184.8L406.886 185.46C408.026 183.58 409.386 180.82 410.346 178.5L408.966 177.86ZM393.546 178.22C394.586 180.48 395.786 183.52 396.266 185.3L397.766 184.74C397.226 182.98 395.986 180.02 394.926 177.8L393.546 178.22ZM415.046 192.14C417.146 191.42 418.506 189.78 418.506 187.62C418.506 186.22 417.906 185.3 416.786 185.3C415.986 185.3 415.266 185.8 415.266 186.74C415.266 187.7 415.946 188.18 416.766 188.18C417.146 188.18 417.546 188.08 417.826 187.72L416.746 186.2L417.126 187.9C417.126 189.4 416.226 190.42 414.586 191.1L415.046 192.14ZM21.48 206.7V207.96H29.28V212.56H21.2V213.82H30.66V206.7H21.48ZM23.16 203.56V204.78H28.66V203.56H23.16ZM21.76 209.64V210.84H29.82V209.64H21.76ZM23.68 202.12C23.04 203.58 21.8 205.36 19.96 206.66C20.26 206.86 20.68 207.32 20.86 207.64C22.88 206.1 24.22 204.18 25.06 202.36L23.68 202.12ZM28.24 203.56V203.82C27.84 204.78 26.96 206.2 26.2 207.04C26.52 207.2 26.98 207.48 27.24 207.7C28.04 206.78 29.06 205.32 29.68 204.1L28.76 203.5L28.54 203.56H28.24ZM22.8 215.28V218.56C22.8 219.92 23.22 220.3 24.92 220.3C25.26 220.3 27.42 220.3 27.76 220.3C29.14 220.3 29.52 219.76 29.68 217.58C29.3 217.5 28.74 217.3 28.44 217.08C28.38 218.84 28.26 219.08 27.62 219.08C27.16 219.08 25.4 219.08 25.06 219.08C24.3 219.08 24.18 219 24.18 218.54V215.28H22.8ZM24.78 214.72C25.54 215.52 26.44 216.6 26.86 217.3L27.96 216.6C27.52 215.94 26.6 214.88 25.86 214.14L24.78 214.72ZM29.2 215.5C29.88 216.74 30.66 218.44 30.98 219.46L32.24 219C31.9 217.98 31.08 216.34 30.38 215.12L29.2 215.5ZM21.02 215.28C20.6 216.38 19.9 217.98 19.24 218.98L20.44 219.64C21.08 218.56 21.72 216.92 22.18 215.8L21.02 215.28ZM16.92 203.76V220.62H18.32V203.76H16.92ZM14.1 207.94V209.36H20.64V207.94H14.1ZM16.96 208.48C16.34 210.92 14.94 214.04 13.66 215.68C13.92 216.06 14.3 216.7 14.46 217.12C15.84 215.26 17.22 211.68 17.92 208.86L16.96 208.48ZM19.64 202.36C18.38 203 16.22 203.58 14.32 203.94C14.5 204.28 14.7 204.8 14.76 205.12C16.7 204.8 19.02 204.28 20.62 203.58L19.64 202.36ZM18.24 209.7L17.54 210.32C18.06 211.08 19.32 213.32 19.72 214.24L20.68 213C20.32 212.44 18.7 210.18 18.24 209.7ZM46.16 202.36V218.24H47.56V202.36H46.16ZM41.88 206.64V207.8H52.36V206.64H41.88ZM42.32 214.8V215.96H51.98V214.8H42.32ZM42.92 212.06V213.22H51.42V212.06H42.92ZM38.38 203.86V205.12H41.28V203.86H38.38ZM39.14 209.48V210.64H41.7V209.48H39.14ZM40.96 203.86V204.04C40.3 205.68 38.92 208.96 37.82 211.28L39.08 211.58C40.16 209.24 41.52 206.14 42.34 204.06L41.38 203.8L41.14 203.86H40.96ZM41.3 209.48V209.72C40.9 214.48 39.52 217.86 37.36 219.44C37.66 219.72 38.04 220.22 38.22 220.54C40.7 218.6 42.12 215.14 42.6 209.6L41.8 209.44L41.56 209.48H41.3ZM39.22 212.26L38.06 212.62C39.38 218.82 42.02 220.24 46.8 220.24H51.9C51.98 219.84 52.2 219.2 52.42 218.86C51.56 218.88 47.5 218.88 46.86 218.88C42.78 218.88 40.3 217.68 39.22 212.26ZM43.24 203.96V205.12H49.86V209.36H43.24V210.54H51.16V203.96H43.24ZM37.34 202.32C36.48 205.26 35.04 208.14 33.4 210.04C33.64 210.42 34.02 211.24 34.16 211.58C36 209.36 37.66 206 38.7 202.7L37.34 202.32ZM35.92 207.38V220.56H37.26V206.08L37.24 206.06L35.92 207.38ZM56.4 209.7V211.1H61.38V209.7H56.4ZM60.78 209.7V209.96C60.72 214.28 60.62 215.78 60.32 216.14C60.18 216.32 59.98 216.34 59.7 216.34C59.36 216.34 58.48 216.34 57.58 216.26C57.8 216.64 57.96 217.22 58 217.66C58.98 217.7 59.88 217.72 60.4 217.66C60.96 217.6 61.28 217.46 61.6 217.1C62.02 216.54 62.14 214.86 62.24 210.34C62.24 210.14 62.24 209.7 62.24 209.7H60.78ZM66.42 203.22C67.68 203.88 69.22 204.9 69.98 205.6L70.92 204.58C70.14 203.88 68.56 202.92 67.32 202.28L66.42 203.22ZM69.28 208.64C67.78 213.46 64.96 217.12 60.9 219.28C61.22 219.58 61.78 220.2 62 220.5C66.1 218.08 69.08 214.22 70.78 209L69.28 208.64ZM56.52 205.6V207.08H72V205.6H56.52ZM55.56 205.6V211.22C55.56 213.84 55.38 217.28 53.72 219.74C54.08 219.92 54.72 220.44 54.98 220.74C56.8 218.12 57.12 214.08 57.12 211.24V205.6H55.56ZM63.86 202.24C63.94 211.82 65.74 220.46 69.82 220.46C71.34 220.46 71.9 219.48 72.18 216.06C71.78 215.92 71.22 215.58 70.88 215.24C70.76 217.9 70.5 218.94 69.94 218.94C67.34 218.94 65.38 211.44 65.42 202.24H63.86ZM77.76 220.48C77.76 219.94 79.52 219.14 79.52 219.14V202.32H77.96V217.92C77.96 218.7 77.48 219 77.14 219.16C77.36 219.48 77.66 220.12 77.76 220.48ZM77.76 220.48C78.24 220.18 78.98 219.94 84.48 218.46C84.4 218.14 84.34 217.5 84.34 217.06L78.44 218.52L77.64 219.12L77.76 220.48ZM74.1 210.04V211.54H91.88V210.04H74.1ZM83.88 210.72L82.5 211.08C84.08 215.46 86.96 218.6 91.28 220.02C91.5 219.58 91.96 218.94 92.34 218.62C88.18 217.44 85.28 214.56 83.88 210.72ZM88.38 202.64C86.62 204.72 83.7 206.64 80.9 207.78C81.28 208.06 81.88 208.68 82.14 209C84.86 207.68 87.9 205.6 89.88 203.28L88.38 202.64ZM94.62 207.02V208.52H110.06V207.02H94.62ZM109.44 207.02V207.34C109.18 215.02 108.86 217.98 108.22 218.62C107.98 218.86 107.76 218.92 107.34 218.92C106.84 218.92 105.58 218.92 104.24 218.78C104.52 219.24 104.72 219.9 104.76 220.34C105.98 220.42 107.26 220.44 107.96 220.38C108.68 220.32 109.16 220.14 109.6 219.58C110.4 218.66 110.68 215.82 110.98 207.8C111 207.58 111 207.02 111 207.02H109.44ZM101.2 202.24V204.62C101.2 208.76 100.78 214.88 94.08 219.22C94.46 219.48 95.02 219.98 95.26 220.34C102.24 215.7 102.72 209.1 102.72 204.62V202.24H101.2ZM96.22 203.32C97.02 204.26 97.94 205.56 98.32 206.36L99.68 205.72C99.26 204.9 98.32 203.64 97.52 202.76L96.22 203.32ZM102.96 211.6C103.98 212.8 105.18 214.48 105.68 215.54L107 214.84C106.48 213.78 105.26 212.16 104.2 210.98L102.96 211.6ZM113.94 207.22V208.68H132.1V207.22H113.94ZM117.72 217.68V219.12H131.42V217.68H117.72ZM122.86 212.86V214.28H128.14V212.86H122.86ZM116.94 202.74V220.62H118.48V202.74H116.94ZM122.2 202.32V215.26H123.72V202.32H122.2ZM127.48 202.54V215.16H128.98V202.54H127.48ZM137.62 207.46H148.34V209.64H137.62V207.46ZM137.62 204.12H148.34V206.26H137.62V204.12ZM136.12 202.86V210.88H149.88V202.86H136.12ZM145.2 210.06L143.92 210.54C145.5 212.82 148.36 214.72 151.22 215.64C151.44 215.24 151.88 214.66 152.22 214.36C149.42 213.62 146.6 212 145.2 210.06ZM140.88 210.06C139.44 211.98 136.58 213.7 133.88 214.48C134.22 214.78 134.66 215.34 134.9 215.72C137.64 214.74 140.58 212.82 142.18 210.6L140.88 210.06ZM139.22 213.58V214.78C139.22 216.26 138.86 218.2 135.34 219.52C135.68 219.82 136.16 220.34 136.38 220.72C140.26 219.16 140.74 216.74 140.74 214.82V213.58H139.22ZM142.2 203.52V210.32H143.72V203.52H142.2ZM145.58 213.58V220.56H147.12V213.58H145.58ZM159.051 219.199C158.218 219.199 157.467 219.033 156.8 218.702C156.132 218.37 155.597 217.916 155.195 217.338C154.792 216.76 154.572 216.102 154.534 215.364H156.239C156.305 216.022 156.603 216.566 157.134 216.997C157.669 217.423 158.308 217.636 159.051 217.636C159.648 217.636 160.178 217.497 160.642 217.217C161.111 216.938 161.478 216.554 161.743 216.067C162.013 215.574 162.148 215.018 162.148 214.398C162.148 213.763 162.008 213.197 161.729 212.7C161.454 212.198 161.075 211.803 160.592 211.514C160.109 211.225 159.558 211.079 158.938 211.074C158.492 211.069 158.036 211.138 157.567 211.28C157.098 211.417 156.712 211.595 156.409 211.812L154.761 211.614L155.642 204.455H163.199V206.017H157.119L156.608 210.307H156.693C156.991 210.07 157.366 209.874 157.815 209.717C158.265 209.561 158.734 209.483 159.222 209.483C160.112 209.483 160.905 209.696 161.601 210.122C162.302 210.544 162.851 211.121 163.249 211.855C163.651 212.589 163.852 213.427 163.852 214.369C163.852 215.297 163.644 216.126 163.227 216.855C162.815 217.58 162.247 218.152 161.523 218.574C160.798 218.991 159.974 219.199 159.051 219.199ZM171.418 219.199C170.348 219.199 169.436 218.908 168.684 218.325C167.931 217.738 167.355 216.888 166.958 215.776C166.56 214.658 166.361 213.309 166.361 211.727C166.361 210.155 166.56 208.813 166.958 207.7C167.36 206.583 167.938 205.731 168.691 205.143C169.448 204.552 170.357 204.256 171.418 204.256C172.479 204.256 173.385 204.552 174.138 205.143C174.896 205.731 175.473 206.583 175.871 207.7C176.274 208.813 176.475 210.155 176.475 211.727C176.475 213.309 176.276 214.658 175.878 215.776C175.48 216.888 174.905 217.738 174.152 218.325C173.4 218.908 172.488 219.199 171.418 219.199ZM171.418 217.636C172.479 217.636 173.302 217.125 173.89 216.102C174.477 215.08 174.77 213.621 174.77 211.727C174.77 210.468 174.635 209.395 174.365 208.51C174.1 207.625 173.717 206.95 173.215 206.486C172.718 206.022 172.119 205.79 171.418 205.79C170.367 205.79 169.545 206.308 168.953 207.345C168.362 208.377 168.066 209.838 168.066 211.727C168.066 212.987 168.198 214.057 168.463 214.938C168.729 215.818 169.11 216.488 169.607 216.947C170.109 217.407 170.712 217.636 171.418 217.636ZM183.918 219.199C182.848 219.199 181.936 218.908 181.184 218.325C180.431 217.738 179.855 216.888 179.458 215.776C179.06 214.658 178.861 213.309 178.861 211.727C178.861 210.155 179.06 208.813 179.458 207.7C179.86 206.583 180.438 205.731 181.191 205.143C181.948 204.552 182.857 204.256 183.918 204.256C184.979 204.256 185.885 204.552 186.638 205.143C187.396 205.731 187.973 206.583 188.371 207.7C188.774 208.813 188.975 210.155 188.975 211.727C188.975 213.309 188.776 214.658 188.378 215.776C187.98 216.888 187.405 217.738 186.652 218.325C185.9 218.908 184.988 219.199 183.918 219.199ZM183.918 217.636C184.979 217.636 185.802 217.125 186.39 216.102C186.977 215.08 187.27 213.621 187.27 211.727C187.27 210.468 187.135 209.395 186.865 208.51C186.6 207.625 186.217 206.95 185.715 206.486C185.218 206.022 184.619 205.79 183.918 205.79C182.867 205.79 182.045 206.308 181.453 207.345C180.862 208.377 180.566 209.838 180.566 211.727C180.566 212.987 180.698 214.057 180.963 214.938C181.229 215.818 181.61 216.488 182.107 216.947C182.609 217.407 183.212 217.636 183.918 217.636ZM197.808 218.66L198.008 220.12C200.688 219.94 204.508 219.64 208.108 219.36L208.128 218C204.328 218.28 200.348 218.52 197.808 218.66ZM205.708 216.32C206.728 217.68 207.788 219.54 208.188 220.72L209.528 220.12C209.088 218.92 207.988 217.12 206.948 215.76L205.708 216.32ZM200.028 211.32H206.928V214.08H200.028V211.32ZM198.708 210.08V215.34H208.288V210.08H198.708ZM200.508 204.58H206.348V207.28H200.508V204.58ZM199.128 203.3V208.56H207.788V203.3H199.128ZM202.668 208.22V218.86L204.108 218.82V208.22H202.668ZM191.968 211.98V213.34H196.688V211.98H191.968ZM196.188 211.98V212.24C195.928 216.86 195.628 218.6 195.208 219.06C195.028 219.24 194.848 219.28 194.508 219.28C194.168 219.28 193.308 219.26 192.388 219.18C192.608 219.56 192.768 220.16 192.808 220.58C193.728 220.62 194.648 220.62 195.148 220.58C195.708 220.54 196.088 220.4 196.448 220C197.028 219.34 197.328 217.52 197.628 212.64C197.648 212.44 197.668 211.98 197.668 211.98H196.188ZM191.828 207.86C191.668 209.8 191.348 212.4 191.068 213.98L192.428 214.14C192.688 212.54 192.988 209.9 193.188 207.86H191.828ZM192.168 207.86V209.22H197.428V203.24H191.308V204.62H196.028V207.86H192.168ZM218.508 209.46C217.568 212.28 215.828 216.18 214.408 218.64L215.788 219.08C217.268 216.66 219.008 212.92 220.268 209.9L218.508 209.46ZM211.948 218.18L212.148 219.76C215.908 219.6 221.508 219.3 226.748 219L226.788 217.56C221.428 217.82 215.608 218.06 211.948 218.18ZM222.348 213.84C224.128 215.96 226.208 218.88 227.148 220.7L228.668 219.88C227.668 218.06 225.608 215.28 223.788 213.18L222.348 213.84ZM216.488 202.8C215.328 205.76 213.348 208.64 211.148 210.44C211.568 210.68 212.268 211.22 212.588 211.52C214.708 209.54 216.808 206.48 218.148 203.26L216.488 202.8ZM223.648 202.78L222.168 203.4C223.708 206.2 226.208 209.6 228.068 211.5C228.368 211.12 228.928 210.54 229.328 210.22C227.488 208.56 224.968 205.4 223.648 202.78ZM231.928 203.5V204.94H247.008V203.5H231.928ZM232.048 207.04V208.38H244.108V207.04H232.048ZM246.408 203.5V218.36C246.408 218.74 246.288 218.84 245.908 218.86C245.488 218.88 244.128 218.88 242.728 218.84C242.968 219.28 243.188 220.02 243.268 220.48C245.048 220.48 246.308 220.46 247.008 220.2C247.708 219.92 247.908 219.4 247.908 218.36V203.5H246.408ZM233.328 210.54V218.42H234.788V210.54H233.328ZM234.528 210.54V211.88H241.248V215.62H234.528V216.94H242.728V210.54H234.528ZM254.048 214.14C252.368 214.14 250.988 215.5 250.988 217.18C250.988 218.86 252.368 220.22 254.048 220.22C255.728 220.22 257.088 218.86 257.088 217.18C257.088 215.5 255.728 214.14 254.048 214.14ZM254.048 219.2C252.928 219.2 252.008 218.3 252.008 217.18C252.008 216.06 252.928 215.16 254.048 215.16C255.168 215.16 256.068 216.06 256.068 217.18C256.068 218.3 255.168 219.2 254.048 219.2Z" fill="black"/>
<rect y="17" width="256" height="20" rx="10" fill="#FFC24D" fill-opacity="0.5"/>
<path d="M16.875 5.4V8.15H26.575V5.4H16.875ZM21.6 9.675V26.2H24.475V9.675H21.6ZM16.675 19.4L17.25 22.275C20.075 21.8 23.8 21.15 27.3 20.525L27.175 17.925C23.35 18.5 19.325 19.075 16.675 19.4ZM17.8 16.25C17.8 15.775 19.35 14.825 19.35 14.825V14.775C20.875 11.775 22.5 7.425 23.4 3.3L20.5 2.75C20.025 6.525 18.675 10.775 18.225 11.775C17.775 12.85 17.425 13.575 16.9 13.725C17.25 14.425 17.675 15.725 17.8 16.25ZM17.8 16.25C18.025 16.025 18.95 15.875 19.75 15.875H26.325V13.175H19.1L17.8 13.875V16.25ZM30.05 14.825V17.625H37.375V14.825H30.05ZM36.65 14.825V15.125C35.525 16.8 33.325 19.775 31.475 22.025L34.025 23.225C35.95 20.875 38.1 18.05 39.675 15.725L37.575 14.675L37.125 14.825H36.65ZM28.5 21.05C31.225 22.575 34.45 24.925 36.025 26.4L37.975 24.05C36.325 22.6 33.175 20.575 30.425 19.15L28.5 21.05ZM32.275 2.8C31.25 7.55 29.5 13.825 28.2 17.625H31.4C32.5 14.05 34.1 7.95 35.25 3.175L32.275 2.8ZM27.525 5.425V8.175H39.275V5.425H27.525ZM26.65 10.1V12.875H40.15V10.1H26.65ZM52.925 3.425V21.4C52.925 24.95 53.85 25.95 57 25.95C57.675 25.95 60.575 25.95 61.3 25.95C64.25 25.95 65.05 24.35 65.425 20.025C64.575 19.85 63.35 19.3 62.625 18.775C62.45 22.3 62.25 23.175 61.025 23.175C60.425 23.175 57.925 23.175 57.375 23.175C56.15 23.175 55.975 22.925 55.975 21.425V3.425H52.925ZM62.3 7.6C60.075 9.5 56.75 11.75 53.65 13.225C54.075 13.875 54.65 14.925 54.85 15.625C58.1 14.1 61.675 12.225 64.5 10.225L62.3 7.6ZM48.1 3.1C46.55 6.875 43.925 10.575 41.225 12.9C41.775 13.65 42.65 15.3 42.95 16.075C46.1 13.175 49.175 8.55 51.05 4.1L48.1 3.1ZM45.45 10.15V26.2H48.45V7.25L48.4 7.2L45.45 10.15ZM70.525 12.175V14.925H76.3V12.175H70.525ZM75.15 12.175V12.625C75.1 17.475 75 19.225 74.7 19.625C74.5 19.875 74.275 19.925 73.925 19.925C73.525 19.925 72.675 19.925 71.775 19.825C72.225 20.575 72.55 21.75 72.6 22.625C73.775 22.65 74.85 22.65 75.525 22.55C76.25 22.425 76.75 22.2 77.25 21.575C77.825 20.8 77.95 18.575 78.05 13.275C78.05 12.925 78.075 12.175 78.075 12.175H75.15ZM82.675 4.35C84.075 5.15 85.85 6.375 86.675 7.25L88.6 5.225C87.7 4.4 85.85 3.25 84.475 2.525L82.675 4.35ZM85.625 10.775C83.9 16.575 80.55 21.1 75.75 23.675C76.375 24.275 77.475 25.525 77.925 26.15C82.875 23.1 86.55 18.025 88.65 11.5L85.625 10.775ZM70.7 6.525V9.475H89.975V6.525H70.7ZM68.7 6.525V13.85C68.7 17.125 68.525 21.5 66.6 24.5C67.3 24.85 68.65 25.95 69.15 26.55C71.425 23.175 71.85 17.625 71.85 13.875V6.525H68.7ZM78.85 2.8C78.925 14.2 80.95 26.075 86.4 26.075C88.75 26.075 89.75 24.95 90.225 20.3C89.425 20 88.35 19.3 87.675 18.6C87.525 21.75 87.225 23.025 86.65 23.025C84.125 23.025 81.825 13 82 2.8H78.85ZM99.075 6.625H107.875V10H99.075V6.625ZM96.175 3.775V12.85H110.95V3.775H96.175ZM92.75 14.95V26.25H95.575V17.8H99.3V26.1H102.3V14.95H92.75ZM104.425 14.95V26.25H107.3V17.8H111.3V26.125H114.325V14.95H104.425ZM94 22.125V25H100.55V22.125H94ZM105.8 22.125V25H112.8V22.125H105.8ZM128.375 5.625C130.525 8.725 134.725 12.325 138.6 14.475C139.175 13.575 139.875 12.575 140.625 11.8C136.6 10.05 132.5 6.65 129.8 2.65H126.675C124.8 5.875 120.75 9.85 116.4 12.1C117.075 12.725 117.925 13.825 118.325 14.525C122.475 12.175 126.325 8.675 128.375 5.625ZM128.525 15.175V17.85H136.925V15.175H128.525ZM117.825 22.875V25.575H139.2V22.875H117.825ZM127.025 9.8V24.325H130.225V9.8H127.025ZM120.55 14.125V24.25H123.5V14.125H120.55ZM142.275 22.1V25.075H164.775V22.1H142.275ZM148.75 3.1V23.225H151.85V3.1H148.75ZM155.15 3.075V23.4H158.225V3.075H155.15ZM161.825 8.1C160.95 11.15 159.35 14.925 158.05 17.275L160.525 18.55C161.85 16.125 163.425 12.575 164.55 9.4L161.825 8.1ZM142.6 8.875C143.725 11.925 145.05 16 145.6 18.4L148.6 17.325C147.95 14.925 146.5 11 145.35 8.05L142.6 8.875ZM170.75 4.675V7.1H178.45V4.675H170.75ZM180.425 4.675V7.125H189.75V4.675H180.425ZM170.675 2.625C169.85 4.85 168.4 7.1 166.75 8.5C167.425 8.85 168.625 9.625 169.2 10.1C170.8 8.5 172.475 5.925 173.475 3.35L170.675 2.625ZM180.875 2.675C180.275 4.775 179.125 6.85 177.75 8.175C178.45 8.525 179.65 9.3 180.2 9.8C181.575 8.25 182.925 5.8 183.7 3.35L180.875 2.675ZM172.1 6.575C172.775 7.675 173.525 9.175 173.8 10.125L176.4 9.025C176.05 8.1 175.225 6.65 174.525 5.6L172.1 6.575ZM182.8 6.45C183.625 7.6 184.55 9.15 184.9 10.125L187.475 8.95C187.05 7.95 186.05 6.475 185.225 5.4L182.8 6.45ZM175.075 17.8V19.85H181.925V17.8H175.075ZM168.2 12.85V26.225H171.125V12.85H168.2ZM174.875 10.25V12.9H187.75V10.25H174.875ZM169.475 10.8C170.475 11.725 171.65 13.075 172.125 13.95L174.45 12.325C173.9 11.425 172.7 10.175 171.675 9.3L169.475 10.8ZM185.95 10.25V23.05C185.95 23.4 185.825 23.5 185.425 23.525C185.075 23.55 183.7 23.55 182.575 23.475C182.95 24.175 183.325 25.275 183.45 26.025C185.35 26.05 186.7 26 187.65 25.6C188.6 25.175 188.9 24.5 188.9 23.075V10.25H185.95ZM176.45 16.525H180.7V21.2H176.45V16.525ZM173.925 14.325V23.375H183.35V14.325H173.925ZM203.4 5.775C205.425 9.025 209.525 12.525 213.525 14.55C214.075 13.625 214.75 12.6 215.525 11.8C211.425 10.225 207.45 6.925 204.875 2.7H201.625C199.9 6.025 196 10.025 191.55 12.15C192.2 12.775 193.05 13.9 193.425 14.65C197.625 12.425 201.45 8.975 203.4 5.775ZM206.175 11.925V26.25H209.3V11.925H206.175ZM197.55 12.05V15.075C197.55 17.975 197.1 21.5 192.7 24.125C193.5 24.6 194.675 25.6 195.2 26.25C200.125 23.175 200.625 18.7 200.625 15.15V12.05H197.55Z" fill="#0A0A0A"/>
</svg>
