<svg width="104" height="126" viewBox="0 0 104 126" fill="none" xmlns="http://www.w3.org/2000/svg">
<path d="M93.985 21.1699L83.15 1.54488C82.705 0.769882 81.52 0.00488293 80.625 0.00488281H20.805C19.905 0.00488281 18.695 0.784883 18.255 1.57988L7.43498 21.1749C7.11004 21.7682 6.96141 22.4421 7.00658 23.1171C7.05176 23.7921 7.28886 24.4401 7.68998 24.9849L48.415 79.0499C48.6771 79.4174 49.0228 79.7174 49.4235 79.9251C49.8242 80.1329 50.2686 80.2425 50.72 80.2449C51.1635 80.2105 51.5955 80.0874 51.9906 79.883C52.3857 79.6786 52.7357 79.397 53.02 79.0549L71.54 54.4549C71.7528 54.1939 71.9107 53.8927 72.0042 53.5692C72.0977 53.2457 72.1249 52.9067 72.0841 52.5724C72.0434 52.2382 71.9356 51.9156 71.7671 51.6241C71.5986 51.3325 71.373 51.078 71.1037 50.8758C70.8345 50.6737 70.5271 50.5279 70.2002 50.4474C69.8732 50.3669 69.5334 50.3533 69.201 50.4074C68.8687 50.4615 68.5507 50.5821 68.2661 50.7621C67.9815 50.9421 67.7363 51.1778 67.545 51.4549L50.72 73.7999L12.27 22.7499L22.08 4.99988H79.34L89.155 22.7649L78.85 36.4499C78.653 36.7125 78.5097 37.0114 78.4282 37.3294C78.3467 37.6475 78.3287 37.9784 78.3751 38.3034C78.4215 38.6284 78.5315 38.9411 78.6988 39.2236C78.8661 39.5061 79.0873 39.7529 79.35 39.9499C79.6126 40.1469 79.9115 40.2902 80.2295 40.3717C80.5476 40.4531 80.8785 40.4712 81.2035 40.4248C81.5285 40.3783 81.8412 40.2683 82.1237 40.1011C82.4062 39.9338 82.653 39.7125 82.85 39.4499L93.75 24.9799C94.1538 24.4349 94.3913 23.7848 94.4339 23.1079C94.4765 22.4309 94.3223 21.7561 93.99 21.1649" fill="#FF7E00"/>
<path d="M80.59 22.75C80.59 22.087 80.3266 21.4511 79.8578 20.9822C79.389 20.5134 78.7531 20.25 78.09 20.25H23.29C22.627 20.25 21.9911 20.5134 21.5223 20.9822C21.0534 21.4511 20.79 22.087 20.79 22.75C20.79 23.413 21.0534 24.0489 21.5223 24.5178C21.9911 24.9866 22.627 25.25 23.29 25.25H78.09C78.7531 25.25 79.389 24.9866 79.8578 24.5178C80.3266 24.0489 80.59 23.413 80.59 22.75Z" fill="#FF7E00"/>
<path d="M0.875 93.4V96.15H10.575V93.4H0.875ZM5.6 97.675V114.2H8.475V97.675H5.6ZM0.675 107.4L1.25 110.275C4.075 109.8 7.8 109.15 11.3 108.525L11.175 105.925C7.35 106.5 3.325 107.075 0.675 107.4ZM1.8 104.25C1.8 103.775 3.35 102.825 3.35 102.825V102.775C4.875 99.775 6.5 95.425 7.4 91.3L4.5 90.75C4.025 94.525 2.675 98.775 2.225 99.775C1.775 100.85 1.425 101.575 0.9 101.725C1.25 102.425 1.675 103.725 1.8 104.25ZM1.8 104.25C2.025 104.025 2.95 103.875 3.75 103.875H10.325V101.175H3.1L1.8 101.875V104.25ZM14.05 102.825V105.625H21.375V102.825H14.05ZM20.65 102.825V103.125C19.525 104.8 17.325 107.775 15.475 110.025L18.025 111.225C19.95 108.875 22.1 106.05 23.675 103.725L21.575 102.675L21.125 102.825H20.65ZM12.5 109.05C15.225 110.575 18.45 112.925 20.025 114.4L21.975 112.05C20.325 110.6 17.175 108.575 14.425 107.15L12.5 109.05ZM16.275 90.8C15.25 95.55 13.5 101.825 12.2 105.625H15.4C16.5 102.05 18.1 95.95 19.25 91.175L16.275 90.8ZM11.525 93.425V96.175H23.275V93.425H11.525ZM10.65 98.1V100.875H24.15V98.1H10.65ZM36.925 91.425V109.4C36.925 112.95 37.85 113.95 41 113.95C41.675 113.95 44.575 113.95 45.3 113.95C48.25 113.95 49.05 112.35 49.425 108.025C48.575 107.85 47.35 107.3 46.625 106.775C46.45 110.3 46.25 111.175 45.025 111.175C44.425 111.175 41.925 111.175 41.375 111.175C40.15 111.175 39.975 110.925 39.975 109.425V91.425H36.925ZM46.3 95.6C44.075 97.5 40.75 99.75 37.65 101.225C38.075 101.875 38.65 102.925 38.85 103.625C42.1 102.1 45.675 100.225 48.5 98.225L46.3 95.6ZM32.1 91.1C30.55 94.875 27.925 98.575 25.225 100.9C25.775 101.65 26.65 103.3 26.95 104.075C30.1 101.175 33.175 96.55 35.05 92.1L32.1 91.1ZM29.45 98.15V114.2H32.45V95.25L32.4 95.2L29.45 98.15ZM65.475 94.3C67.075 96.95 70.05 100.275 72.925 102.2C73.4 101.3 74.05 100.225 74.675 99.45C71.75 97.85 68.75 94.525 66.8 91.225H63.95C62.55 94.05 59.6 97.725 56.5 99.7C57.075 100.35 57.8 101.475 58.175 102.25C61.225 100.2 63.95 96.925 65.475 94.3ZM67.5 100.2V114H70.5V100.2H67.5ZM61 100.25V103.85C61 106.125 60.7 109.975 57.25 112.45C57.975 112.95 58.925 113.85 59.375 114.45C63.3 111.4 63.9 106.95 63.9 103.9V100.25H61ZM55.925 90.875C54.65 94.45 52.475 98 50.2 100.275C50.725 101 51.525 102.65 51.8 103.375C54.525 100.525 57.125 96.025 58.75 91.75L55.925 90.875ZM53.5 97.775V114.225H56.375V94.95L56.35 94.925L53.5 97.775ZM83.35 93.05V95.625H98.625V93.05H83.35ZM82.25 111.275V113.775H99.175V111.275H82.25ZM84.425 97.35V111.725H87.075V99.525H94.525V111.725H97.275V97.35H84.425ZM86.4 100.9V102.975H95V100.9H86.4ZM86.35 104.375V106.375H95.65V104.375H86.35ZM86.275 107.8V109.85H95.05V107.8H86.275ZM89.625 90.825C89.475 93.075 89.05 96.15 88.6 98.125L91.2 98.325C91.75 96.5 92.375 93.575 92.8 90.925L89.625 90.825ZM80.9 90.85C79.675 94.425 77.65 97.95 75.5 100.25C75.975 100.975 76.775 102.625 77.05 103.375C79.65 100.5 82.1 95.975 83.65 91.725L80.9 90.85ZM78.425 97.8V114.225H81.2V94.975V94.95L78.425 97.8Z" fill="url(#paint0_linear_596_12)"/>
<defs>
<linearGradient id="paint0_linear_596_12" x1="85.1079" y1="53.6626" x2="15.9621" y2="126.457" gradientUnits="userSpaceOnUse">
<stop stop-color="#EF2626"/>
<stop offset="1" stop-color="#F08200" stop-opacity="0.88"/>
</linearGradient>
</defs>
</svg>
