<svg width="527" height="132" viewBox="0 0 527 132" fill="none" xmlns="http://www.w3.org/2000/svg">
<rect x="185" y="112" width="320" height="20" rx="10" fill="#FFC24D" fill-opacity="0.5"/>
<path d="M10.66 18.072V21.816H41.236V18.072H10.66ZM8.736 30.76V34.452H43.368V30.76H8.736ZM27.872 32.008L24.492 32.736C27.196 43.292 32.604 50.78 41.912 54.16C42.484 53.12 43.628 51.56 44.564 50.728C35.62 47.972 30.264 41.16 27.872 32.008ZM35.568 6.424C34.372 9.336 32.188 13.548 30.472 16.148L33.644 17.448C35.464 15.004 37.752 11.156 39.624 7.828L35.568 6.424ZM12.792 8.556C14.872 11.312 17.108 15.108 17.992 17.604L21.372 15.732C20.436 13.288 18.148 9.596 15.964 6.944L12.792 8.556ZM23.66 18.956V29.772C23.66 36.48 22.62 45.424 7.124 51.3C8.06 52.08 9.256 53.432 9.828 54.368C25.792 47.712 27.716 37.78 27.716 29.772V18.956H23.66ZM56.888 27.12V30.968H103.272V27.12H56.888ZM78.468 11.364V48.492C78.468 49.532 78.052 49.844 76.96 49.896C75.764 49.948 71.812 49.948 67.548 49.844C68.12 50.988 68.9 52.808 69.16 53.952C74.464 53.952 77.896 53.848 79.82 53.224C81.796 52.548 82.576 51.352 82.576 48.492V11.364H78.468ZM60.528 10.064V13.912H99.632V10.064H60.528ZM144.716 9.752C147.784 12.456 151.32 16.2 152.88 18.696L156.104 16.408C154.388 14.016 150.748 10.324 147.68 7.724L144.716 9.752ZM111.02 21.712V25.456H157.352V21.712H111.02ZM110.24 37L111.384 40.9C117.936 39.444 127.14 37.312 135.668 35.336L135.356 31.8C126.204 33.776 116.428 35.856 110.24 37ZM122.2 11.624V49.116C122.2 50.052 121.888 50.312 120.952 50.312C120.016 50.364 116.948 50.416 113.62 50.26C114.192 51.404 114.868 53.172 115.076 54.212C119.392 54.264 122.148 54.108 123.812 53.484C125.476 52.86 126.1 51.716 126.1 49.168V11.624H122.2ZM132.08 6.944C127.088 8.816 118.664 10.584 111.332 11.728C111.852 12.612 112.32 14.068 112.528 14.952C119.964 13.912 128.804 12.3 134.836 10.22L132.08 6.944ZM137.28 6.788C137.488 31.54 142.116 54.368 152.308 54.368C156.208 54.368 157.612 51.82 158.34 43.188C157.248 42.772 155.844 41.888 155.012 41.004C154.7 47.712 154.076 50.416 152.672 50.416C146.328 50.416 141.232 30.656 141.336 6.788H137.28ZM151.372 27.848C146.744 36.636 138.164 44.644 128.908 49.116C129.896 50 130.988 51.248 131.612 52.236C141.18 47.192 149.76 38.82 154.856 29.304L151.372 27.848ZM192.14 8.244V11.832H207.792V8.244H192.14ZM206.284 8.244V49.22C206.284 50.052 205.972 50.312 205.14 50.364C204.256 50.416 201.396 50.468 198.432 50.312C198.952 51.352 199.524 53.068 199.68 54.056C203.788 54.056 206.44 54.004 208 53.38C209.612 52.756 210.184 51.612 210.184 49.272V8.244H206.284ZM182 8.036C184.288 11.208 186.888 15.576 188.032 18.228L191.256 16.356C190.06 13.756 187.304 9.492 185.016 6.372L182 8.036ZM179.816 16.824V54.16H183.612V16.824H179.816ZM173.888 6.632C171.756 14.64 168.168 22.648 164.06 27.9C164.736 28.888 165.828 30.968 166.192 31.852C170.872 25.768 174.928 16.616 177.528 7.62L173.888 6.632ZM169.78 19.736V54.16H173.524V16.2L173.368 16.096L169.78 19.736ZM24.18 69.58C22.464 77.224 19.448 84.712 15.6 89.548C16.484 90.12 18.044 91.368 18.72 92.044C22.724 86.74 26 78.732 28.028 70.412L24.18 69.58ZM23.296 91.628C21.84 97.868 19.344 104.056 16.12 108.06C17.056 108.528 18.72 109.568 19.5 110.192C22.672 105.824 25.48 99.22 27.092 92.408L23.296 91.628ZM23.712 79.356L22.204 82.996H47.112V79.356H23.712ZM31.772 80.864V112.428C31.772 113.104 31.564 113.312 30.888 113.312C30.16 113.312 27.924 113.364 25.48 113.26C26.052 114.404 26.624 116.12 26.884 117.212C30.108 117.212 32.344 117.108 33.748 116.432C35.204 115.808 35.672 114.664 35.672 112.428V80.864H31.772ZM39.416 92.408C42.276 97.868 44.876 105.2 45.708 109.984L49.4 108.736C48.516 103.9 45.916 96.724 42.9 91.264L39.416 92.408ZM45.968 79.356V79.928C45.448 83.36 44.772 87.728 44.2 90.328L47.58 90.952C48.256 88.144 49.14 83.672 49.868 79.824L47.164 79.252L46.488 79.356H45.968ZM13.728 69.528C10.816 77.432 5.928 85.232 0.78 90.276C1.508 91.16 2.6 93.24 3.016 94.124C8.632 88.3 13.988 79.512 17.42 70.672L13.728 69.528ZM8.32 82.944V117.108H12.064V79.304L11.96 79.252L8.32 82.944ZM62.296 76.028V79.72H103.064V76.028H62.296ZM60.32 76.028V90.224C60.32 97.608 59.956 108.008 55.952 115.392C56.836 115.756 58.656 116.848 59.332 117.576C63.596 109.776 64.272 98.128 64.272 90.224V76.028H60.32ZM78.364 69.944C79.56 72.232 80.964 75.3 81.588 77.276L85.54 76.028C84.916 74.156 83.46 71.244 82.16 68.956L78.364 69.944ZM67.756 87.52C69.888 93.188 72.384 100.572 73.424 105.46L77.064 103.9C75.92 99.064 73.424 91.836 71.136 86.168L67.756 87.52ZM79.04 84.66C80.756 90.276 82.68 97.66 83.356 102.496L87.1 101.404C86.32 96.568 84.396 89.288 82.576 83.62L79.04 84.66ZM96.668 83.308C94.588 92.564 90.428 103.536 85.176 111.7C86.008 112.272 87.204 113.364 87.776 114.04C93.392 105.408 97.916 94.592 100.724 84.816L96.668 83.308ZM64.896 111.024V114.768H103.74V111.024H64.896ZM114.14 72.18C116.74 74.884 119.912 78.68 121.368 81.072L124.384 78.524C122.824 76.236 119.6 72.596 116.948 69.944L114.14 72.18ZM118.404 116.588C119.132 115.6 120.432 114.612 128.648 108.632C128.284 107.904 127.712 106.396 127.452 105.304L118.872 111.284L117.728 112.896L118.404 116.588ZM110.552 85.544V89.288H121.004V85.544H110.552ZM118.404 116.588C118.404 115.08 122.564 111.44 122.564 111.44V85.544H118.82V108.632C118.82 111.18 117.156 112.948 116.22 113.728C116.896 114.352 117.988 115.808 118.404 116.588ZM126.88 76.184V79.772H157.144V76.184H126.88ZM142.74 106.604C146.744 109.62 151.84 113.988 154.336 116.64L157.3 114.092C154.7 111.492 149.5 107.28 145.6 104.368L142.74 106.604ZM148.668 84.088C144.82 91.524 136.448 98.804 126.984 102.808C127.712 103.588 128.752 105.044 129.272 105.928C139.152 101.404 147.68 93.708 152.516 85.388L148.668 84.088ZM152.932 93.24C147.836 102.08 137.176 109.932 124.852 114.092C125.58 114.924 126.724 116.432 127.192 117.368C139.984 112.74 150.696 104.576 156.936 94.748L152.932 93.24ZM129.22 93.76C129.22 92.564 134.16 91.16 134.16 91.16C136.708 88.092 141.336 81.644 143.676 78.16H139.204C137.592 80.604 133.016 86.948 131.56 88.352C130.676 89.236 129.012 89.652 127.972 89.964C128.336 90.796 129.012 92.772 129.22 93.76ZM129.22 93.76C130.364 93.292 132.184 93.032 145.6 92.096C145.86 91.264 146.38 89.756 146.796 88.716L131.404 89.548L129.168 90.796L129.22 93.76ZM138.788 70.1C140.036 72.388 141.336 75.508 141.752 77.432L145.756 76.288C145.288 74.312 143.936 71.296 142.584 69.06L138.788 70.1ZM192.296 107.852V111.544H207.688V107.852H192.296ZM190.684 73.844V115.704H194.428V77.536H205.504V115.132H209.404V73.844H190.684ZM175.292 78.108V88.508C175.292 96.568 174.096 106.916 163.956 114.144C164.788 114.716 166.192 116.224 166.712 117.056C177.476 109.36 179.244 97.4 179.244 88.56V78.108H175.292ZM169.936 76.34V79.98H187.46V76.34H169.936ZM164.528 90.328V94.072H189.02V90.328H164.528ZM177.996 97.192L175.604 99.428C177.996 101.976 183.976 109.1 186.16 112.272L188.812 108.996C187.148 107.02 180.024 99.012 177.996 97.192ZM170.404 69.32C169.156 75.664 167.024 81.904 163.904 85.908C164.788 86.428 166.452 87.52 167.128 88.144C170.196 83.724 172.692 77.016 174.2 70.048L170.404 69.32ZM232.492 75.976V79.252H265.564V75.976H232.492ZM246.688 77.432C246.428 79.46 245.752 82.528 245.232 84.556L248.456 85.18C249.236 83.308 250.224 80.448 251.056 77.796L246.688 77.432ZM255.736 69.32C254.904 71.296 253.292 74.208 252.044 76.08L255.32 76.964C256.672 75.248 258.232 72.7 259.688 70.308L255.736 69.32ZM238.004 70.672C239.564 72.492 241.124 75.04 241.696 76.756L244.868 75.352C244.296 73.636 242.684 71.192 241.072 69.476L238.004 70.672ZM229.892 89.86H218.816V93.5H226.096V108.268H229.892V89.86ZM229.892 106.552H226.356C223.704 108.788 220.636 111.076 218.14 112.74L220.22 116.744C223.028 114.456 225.68 112.22 228.176 109.984C231.504 114.092 236.184 115.912 242.944 116.172C248.716 116.38 259.48 116.276 265.2 116.068C265.356 114.872 266.032 113 266.448 112.064C260.312 112.48 248.612 112.636 242.944 112.428C236.964 112.168 232.336 110.4 229.892 106.552ZM219.388 72.96C222.768 75.248 226.668 78.784 228.332 81.28L231.4 78.732C229.58 76.184 225.68 72.804 222.248 70.62L219.388 72.96ZM240.292 93.552H257.608V97.868H240.292V93.552ZM240.292 100.728H257.608V105.096H240.292V100.728ZM240.292 86.376H257.608V90.692H240.292V86.376ZM236.6 83.36V108.112H261.456V83.36H236.6ZM277.212 77.692V81.176H289.38V108.164H277.212V111.7H293.02V77.692H277.212ZM274.872 77.692V115.86H278.512V77.692H274.872ZM276.952 92.148V95.632H291.304V92.148H276.952ZM282.828 69.216C282.412 71.92 281.424 75.872 280.54 78.368L283.66 79.148C284.7 76.808 286 73.22 287.04 69.996L282.828 69.216ZM300.404 77.536V81.176H316.368V77.536H300.404ZM315.016 77.536V78.368C314.288 101.3 313.456 109.932 311.74 111.804C311.168 112.48 310.544 112.636 309.504 112.636C308.308 112.636 305.188 112.584 301.808 112.324C302.536 113.364 303.004 114.976 303.108 116.12C306.02 116.276 309.088 116.38 310.856 116.172C312.676 116.016 313.872 115.548 315.016 114.04C317.096 111.492 317.824 103.432 318.656 79.564C318.656 78.992 318.656 77.536 318.656 77.536H315.016ZM301.496 69.112C299.832 76.34 296.972 83.516 293.436 88.092C294.372 88.612 295.984 89.704 296.66 90.328C300.248 85.388 303.316 77.744 305.24 69.996L301.496 69.112ZM299.104 91.056C301.964 94.852 305.448 100 307.008 103.172L310.336 101.092C308.672 98.024 305.084 92.98 302.12 89.288L299.104 91.056ZM339.144 72.336V76.132H360.516V72.336H339.144ZM337.636 72.336V88.248C337.636 96.724 336.596 107.176 326.716 114.404C327.6 114.976 329.16 116.484 329.732 117.316C340.184 109.672 341.692 97.452 341.692 88.3V72.336H337.636ZM358.176 72.336V109.516C358.176 114.664 359.424 116.016 363.428 116.016C364.26 116.016 368.368 116.016 369.2 116.016C373.36 116.016 374.244 112.948 374.66 104.16C373.516 103.848 371.904 103.12 370.916 102.288C370.708 110.192 370.5 112.22 368.888 112.22C368.004 112.22 364.728 112.22 364 112.22C362.544 112.22 362.232 111.856 362.232 109.568V72.336H358.176ZM409.968 69.996V117.16H413.868V69.996H409.968ZM400.972 71.972C399.776 78.732 397.592 85.44 394.576 89.808C395.564 90.224 397.176 91.16 397.956 91.732C400.92 87.104 403.312 79.98 404.716 72.7L400.972 71.972ZM401.492 79.98L400.504 83.828H425.776V79.98H401.492ZM394.992 95.268V99.116H428.064V95.268H394.992ZM392.444 69.528C389.688 77.432 385.06 85.232 380.172 90.276C380.9 91.212 382.044 93.24 382.408 94.124C387.816 88.248 392.86 79.46 396.136 70.672L392.444 69.528ZM387.192 82.944V117.108H390.936V79.304L390.884 79.252L387.192 82.944ZM456.456 69.32V112.792C456.456 113.728 456.144 114.04 455.208 114.092C454.272 114.092 451.152 114.144 448.032 114.04C448.552 114.924 449.176 116.38 449.384 117.316C453.752 117.316 456.456 117.264 458.12 116.744C459.732 116.172 460.408 115.236 460.408 112.792V69.32H456.456ZM436.124 73.48V76.704H481.26V73.48H436.124ZM445.276 82.528H472.108V86.272H445.276V82.528ZM441.584 79.824V89.028H476.06V79.824H441.584ZM440.076 92.668V95.58H472.94V111.596H476.84V92.668H440.076ZM435.136 99.168V102.288H482.248V99.168H435.136ZM439.556 106.24V109.256H474.968V106.24H439.556Z" fill="black"/>
</svg>
